G75*
%MOIN*%
%OFA0B0*%
%FSLAX25Y25*%
%IPPOS*%
%LPD*%
%AMOC8*
5,1,8,0,0,1.08239X$1,22.5*
%
%ADD10C,0.00000*%
%ADD11C,0.00300*%
%ADD12C,0.00600*%
%ADD13C,0.00200*%
D10*
X0001800Y0001800D02*
X0001800Y0148001D01*
X0106721Y0148001D01*
X0106721Y0001800D01*
X0001800Y0001800D01*
X0048001Y0051800D02*
X0048003Y0051958D01*
X0048009Y0052116D01*
X0048019Y0052274D01*
X0048033Y0052432D01*
X0048051Y0052589D01*
X0048072Y0052746D01*
X0048098Y0052902D01*
X0048128Y0053058D01*
X0048161Y0053213D01*
X0048199Y0053366D01*
X0048240Y0053519D01*
X0048285Y0053671D01*
X0048334Y0053822D01*
X0048387Y0053971D01*
X0048443Y0054119D01*
X0048503Y0054265D01*
X0048567Y0054410D01*
X0048635Y0054553D01*
X0048706Y0054695D01*
X0048780Y0054835D01*
X0048858Y0054972D01*
X0048940Y0055108D01*
X0049024Y0055242D01*
X0049113Y0055373D01*
X0049204Y0055502D01*
X0049299Y0055629D01*
X0049396Y0055754D01*
X0049497Y0055876D01*
X0049601Y0055995D01*
X0049708Y0056112D01*
X0049818Y0056226D01*
X0049931Y0056337D01*
X0050046Y0056446D01*
X0050164Y0056551D01*
X0050285Y0056653D01*
X0050408Y0056753D01*
X0050534Y0056849D01*
X0050662Y0056942D01*
X0050792Y0057032D01*
X0050925Y0057118D01*
X0051060Y0057202D01*
X0051196Y0057281D01*
X0051335Y0057358D01*
X0051476Y0057430D01*
X0051618Y0057500D01*
X0051762Y0057565D01*
X0051908Y0057627D01*
X0052055Y0057685D01*
X0052204Y0057740D01*
X0052354Y0057791D01*
X0052505Y0057838D01*
X0052657Y0057881D01*
X0052810Y0057920D01*
X0052965Y0057956D01*
X0053120Y0057987D01*
X0053276Y0058015D01*
X0053432Y0058039D01*
X0053589Y0058059D01*
X0053747Y0058075D01*
X0053904Y0058087D01*
X0054063Y0058095D01*
X0054221Y0058099D01*
X0054379Y0058099D01*
X0054537Y0058095D01*
X0054696Y0058087D01*
X0054853Y0058075D01*
X0055011Y0058059D01*
X0055168Y0058039D01*
X0055324Y0058015D01*
X0055480Y0057987D01*
X0055635Y0057956D01*
X0055790Y0057920D01*
X0055943Y0057881D01*
X0056095Y0057838D01*
X0056246Y0057791D01*
X0056396Y0057740D01*
X0056545Y0057685D01*
X0056692Y0057627D01*
X0056838Y0057565D01*
X0056982Y0057500D01*
X0057124Y0057430D01*
X0057265Y0057358D01*
X0057404Y0057281D01*
X0057540Y0057202D01*
X0057675Y0057118D01*
X0057808Y0057032D01*
X0057938Y0056942D01*
X0058066Y0056849D01*
X0058192Y0056753D01*
X0058315Y0056653D01*
X0058436Y0056551D01*
X0058554Y0056446D01*
X0058669Y0056337D01*
X0058782Y0056226D01*
X0058892Y0056112D01*
X0058999Y0055995D01*
X0059103Y0055876D01*
X0059204Y0055754D01*
X0059301Y0055629D01*
X0059396Y0055502D01*
X0059487Y0055373D01*
X0059576Y0055242D01*
X0059660Y0055108D01*
X0059742Y0054972D01*
X0059820Y0054835D01*
X0059894Y0054695D01*
X0059965Y0054553D01*
X0060033Y0054410D01*
X0060097Y0054265D01*
X0060157Y0054119D01*
X0060213Y0053971D01*
X0060266Y0053822D01*
X0060315Y0053671D01*
X0060360Y0053519D01*
X0060401Y0053366D01*
X0060439Y0053213D01*
X0060472Y0053058D01*
X0060502Y0052902D01*
X0060528Y0052746D01*
X0060549Y0052589D01*
X0060567Y0052432D01*
X0060581Y0052274D01*
X0060591Y0052116D01*
X0060597Y0051958D01*
X0060599Y0051800D01*
X0060597Y0051642D01*
X0060591Y0051484D01*
X0060581Y0051326D01*
X0060567Y0051168D01*
X0060549Y0051011D01*
X0060528Y0050854D01*
X0060502Y0050698D01*
X0060472Y0050542D01*
X0060439Y0050387D01*
X0060401Y0050234D01*
X0060360Y0050081D01*
X0060315Y0049929D01*
X0060266Y0049778D01*
X0060213Y0049629D01*
X0060157Y0049481D01*
X0060097Y0049335D01*
X0060033Y0049190D01*
X0059965Y0049047D01*
X0059894Y0048905D01*
X0059820Y0048765D01*
X0059742Y0048628D01*
X0059660Y0048492D01*
X0059576Y0048358D01*
X0059487Y0048227D01*
X0059396Y0048098D01*
X0059301Y0047971D01*
X0059204Y0047846D01*
X0059103Y0047724D01*
X0058999Y0047605D01*
X0058892Y0047488D01*
X0058782Y0047374D01*
X0058669Y0047263D01*
X0058554Y0047154D01*
X0058436Y0047049D01*
X0058315Y0046947D01*
X0058192Y0046847D01*
X0058066Y0046751D01*
X0057938Y0046658D01*
X0057808Y0046568D01*
X0057675Y0046482D01*
X0057540Y0046398D01*
X0057404Y0046319D01*
X0057265Y0046242D01*
X0057124Y0046170D01*
X0056982Y0046100D01*
X0056838Y0046035D01*
X0056692Y0045973D01*
X0056545Y0045915D01*
X0056396Y0045860D01*
X0056246Y0045809D01*
X0056095Y0045762D01*
X0055943Y0045719D01*
X0055790Y0045680D01*
X0055635Y0045644D01*
X0055480Y0045613D01*
X0055324Y0045585D01*
X0055168Y0045561D01*
X0055011Y0045541D01*
X0054853Y0045525D01*
X0054696Y0045513D01*
X0054537Y0045505D01*
X0054379Y0045501D01*
X0054221Y0045501D01*
X0054063Y0045505D01*
X0053904Y0045513D01*
X0053747Y0045525D01*
X0053589Y0045541D01*
X0053432Y0045561D01*
X0053276Y0045585D01*
X0053120Y0045613D01*
X0052965Y0045644D01*
X0052810Y0045680D01*
X0052657Y0045719D01*
X0052505Y0045762D01*
X0052354Y0045809D01*
X0052204Y0045860D01*
X0052055Y0045915D01*
X0051908Y0045973D01*
X0051762Y0046035D01*
X0051618Y0046100D01*
X0051476Y0046170D01*
X0051335Y0046242D01*
X0051196Y0046319D01*
X0051060Y0046398D01*
X0050925Y0046482D01*
X0050792Y0046568D01*
X0050662Y0046658D01*
X0050534Y0046751D01*
X0050408Y0046847D01*
X0050285Y0046947D01*
X0050164Y0047049D01*
X0050046Y0047154D01*
X0049931Y0047263D01*
X0049818Y0047374D01*
X0049708Y0047488D01*
X0049601Y0047605D01*
X0049497Y0047724D01*
X0049396Y0047846D01*
X0049299Y0047971D01*
X0049204Y0048098D01*
X0049113Y0048227D01*
X0049024Y0048358D01*
X0048940Y0048492D01*
X0048858Y0048628D01*
X0048780Y0048765D01*
X0048706Y0048905D01*
X0048635Y0049047D01*
X0048567Y0049190D01*
X0048503Y0049335D01*
X0048443Y0049481D01*
X0048387Y0049629D01*
X0048334Y0049778D01*
X0048285Y0049929D01*
X0048240Y0050081D01*
X0048199Y0050234D01*
X0048161Y0050387D01*
X0048128Y0050542D01*
X0048098Y0050698D01*
X0048072Y0050854D01*
X0048051Y0051011D01*
X0048033Y0051168D01*
X0048019Y0051326D01*
X0048009Y0051484D01*
X0048003Y0051642D01*
X0048001Y0051800D01*
D11*
X0044920Y0014050D02*
X0044454Y0011950D01*
X0043987Y0013350D01*
X0043520Y0011950D01*
X0043054Y0014050D01*
X0042122Y0013583D02*
X0041539Y0014050D01*
X0041539Y0011950D01*
X0042122Y0011950D02*
X0040956Y0011950D01*
X0038738Y0012417D02*
X0038738Y0013583D01*
X0038739Y0013583D02*
X0038737Y0013624D01*
X0038732Y0013664D01*
X0038723Y0013704D01*
X0038711Y0013743D01*
X0038695Y0013780D01*
X0038676Y0013817D01*
X0038655Y0013851D01*
X0038630Y0013883D01*
X0038602Y0013913D01*
X0038572Y0013941D01*
X0038540Y0013966D01*
X0038506Y0013987D01*
X0038469Y0014006D01*
X0038432Y0014022D01*
X0038393Y0014034D01*
X0038353Y0014043D01*
X0038313Y0014048D01*
X0038272Y0014050D01*
X0037572Y0014050D01*
X0037572Y0013117D02*
X0037572Y0011950D01*
X0038272Y0011950D01*
X0038313Y0011952D01*
X0038353Y0011957D01*
X0038393Y0011966D01*
X0038432Y0011978D01*
X0038469Y0011994D01*
X0038506Y0012013D01*
X0038540Y0012034D01*
X0038572Y0012059D01*
X0038602Y0012087D01*
X0038630Y0012117D01*
X0038655Y0012149D01*
X0038676Y0012184D01*
X0038695Y0012220D01*
X0038711Y0012257D01*
X0038723Y0012296D01*
X0038732Y0012336D01*
X0038737Y0012376D01*
X0038739Y0012417D01*
X0037922Y0013117D02*
X0037572Y0013117D01*
X0036434Y0014050D02*
X0035268Y0011950D01*
X0035268Y0014050D01*
X0034130Y0014050D02*
X0034130Y0011950D01*
X0033547Y0011950D01*
X0033501Y0011952D01*
X0033456Y0011957D01*
X0033411Y0011966D01*
X0033367Y0011979D01*
X0033324Y0011994D01*
X0033282Y0012014D01*
X0033242Y0012036D01*
X0033204Y0012061D01*
X0033168Y0012090D01*
X0033135Y0012121D01*
X0033104Y0012154D01*
X0033075Y0012190D01*
X0033050Y0012228D01*
X0033028Y0012268D01*
X0033008Y0012310D01*
X0032993Y0012353D01*
X0032980Y0012397D01*
X0032971Y0012442D01*
X0032966Y0012487D01*
X0032964Y0012533D01*
X0032964Y0013467D01*
X0032966Y0013513D01*
X0032971Y0013558D01*
X0032980Y0013603D01*
X0032993Y0013647D01*
X0033008Y0013690D01*
X0033028Y0013732D01*
X0033050Y0013772D01*
X0033075Y0013810D01*
X0033104Y0013846D01*
X0033135Y0013879D01*
X0033168Y0013910D01*
X0033204Y0013939D01*
X0033242Y0013964D01*
X0033282Y0013986D01*
X0033324Y0014006D01*
X0033367Y0014021D01*
X0033411Y0014034D01*
X0033456Y0014043D01*
X0033501Y0014048D01*
X0033547Y0014050D01*
X0034130Y0014050D01*
X0036434Y0014050D02*
X0036434Y0011950D01*
X0030746Y0011950D02*
X0030046Y0011950D01*
X0030005Y0011952D01*
X0029965Y0011957D01*
X0029925Y0011966D01*
X0029886Y0011978D01*
X0029849Y0011994D01*
X0029813Y0012013D01*
X0029778Y0012034D01*
X0029746Y0012059D01*
X0029716Y0012087D01*
X0029688Y0012117D01*
X0029663Y0012149D01*
X0029642Y0012184D01*
X0029623Y0012220D01*
X0029607Y0012257D01*
X0029595Y0012296D01*
X0029586Y0012336D01*
X0029581Y0012376D01*
X0029579Y0012417D01*
X0029580Y0012417D02*
X0029580Y0012650D01*
X0029579Y0012650D02*
X0029581Y0012691D01*
X0029586Y0012731D01*
X0029595Y0012771D01*
X0029607Y0012810D01*
X0029623Y0012847D01*
X0029642Y0012884D01*
X0029663Y0012918D01*
X0029688Y0012950D01*
X0029716Y0012980D01*
X0029746Y0013008D01*
X0029778Y0013033D01*
X0029813Y0013054D01*
X0029849Y0013073D01*
X0029886Y0013089D01*
X0029925Y0013101D01*
X0029965Y0013110D01*
X0030005Y0013115D01*
X0030046Y0013117D01*
X0030746Y0013117D01*
X0030746Y0014050D01*
X0029580Y0014050D01*
X0028703Y0014050D02*
X0028003Y0011950D01*
X0027303Y0014050D01*
X0046013Y0012825D02*
X0046655Y0013175D01*
X0046421Y0014050D02*
X0046365Y0014048D01*
X0046309Y0014043D01*
X0046253Y0014034D01*
X0046198Y0014021D01*
X0046144Y0014005D01*
X0046091Y0013986D01*
X0046040Y0013963D01*
X0045990Y0013937D01*
X0045942Y0013907D01*
X0045896Y0013875D01*
X0046655Y0013175D02*
X0046689Y0013197D01*
X0046721Y0013222D01*
X0046751Y0013250D01*
X0046779Y0013280D01*
X0046804Y0013313D01*
X0046826Y0013348D01*
X0046844Y0013384D01*
X0046860Y0013422D01*
X0046872Y0013461D01*
X0046881Y0013501D01*
X0046886Y0013542D01*
X0046888Y0013583D01*
X0046886Y0013624D01*
X0046881Y0013664D01*
X0046872Y0013704D01*
X0046860Y0013743D01*
X0046844Y0013780D01*
X0046825Y0013817D01*
X0046804Y0013851D01*
X0046779Y0013883D01*
X0046751Y0013913D01*
X0046721Y0013941D01*
X0046689Y0013966D01*
X0046655Y0013987D01*
X0046618Y0014006D01*
X0046581Y0014022D01*
X0046542Y0014034D01*
X0046502Y0014043D01*
X0046462Y0014048D01*
X0046421Y0014050D01*
X0046946Y0012242D02*
X0046903Y0012200D01*
X0046857Y0012162D01*
X0046809Y0012126D01*
X0046759Y0012094D01*
X0046706Y0012064D01*
X0046653Y0012038D01*
X0046597Y0012015D01*
X0046541Y0011995D01*
X0046483Y0011979D01*
X0046425Y0011966D01*
X0046365Y0011957D01*
X0046306Y0011952D01*
X0046246Y0011950D01*
X0046205Y0011952D01*
X0046165Y0011957D01*
X0046125Y0011966D01*
X0046086Y0011978D01*
X0046049Y0011994D01*
X0046013Y0012013D01*
X0045978Y0012034D01*
X0045946Y0012059D01*
X0045916Y0012087D01*
X0045888Y0012117D01*
X0045863Y0012149D01*
X0045842Y0012184D01*
X0045823Y0012220D01*
X0045807Y0012257D01*
X0045795Y0012296D01*
X0045786Y0012336D01*
X0045781Y0012376D01*
X0045779Y0012417D01*
X0045780Y0012417D02*
X0045782Y0012458D01*
X0045787Y0012499D01*
X0045796Y0012539D01*
X0045808Y0012578D01*
X0045824Y0012616D01*
X0045842Y0012652D01*
X0045864Y0012687D01*
X0045889Y0012720D01*
X0045917Y0012750D01*
X0045947Y0012778D01*
X0045979Y0012803D01*
X0046013Y0012825D01*
X0049020Y0011950D02*
X0050186Y0011950D01*
X0049195Y0013117D01*
X0049545Y0014050D02*
X0049595Y0014048D01*
X0049644Y0014043D01*
X0049693Y0014033D01*
X0049742Y0014021D01*
X0049789Y0014004D01*
X0049834Y0013985D01*
X0049879Y0013962D01*
X0049921Y0013935D01*
X0049961Y0013906D01*
X0049999Y0013874D01*
X0050035Y0013839D01*
X0050068Y0013801D01*
X0050098Y0013762D01*
X0050125Y0013720D01*
X0050149Y0013676D01*
X0050169Y0013630D01*
X0050186Y0013584D01*
X0049194Y0013117D02*
X0049162Y0013149D01*
X0049133Y0013185D01*
X0049107Y0013222D01*
X0049084Y0013262D01*
X0049065Y0013303D01*
X0049048Y0013345D01*
X0049036Y0013389D01*
X0049026Y0013434D01*
X0049021Y0013479D01*
X0049019Y0013525D01*
X0049020Y0013525D02*
X0049022Y0013568D01*
X0049027Y0013611D01*
X0049036Y0013654D01*
X0049048Y0013695D01*
X0049064Y0013736D01*
X0049083Y0013775D01*
X0049105Y0013812D01*
X0049131Y0013847D01*
X0049159Y0013881D01*
X0049189Y0013911D01*
X0049223Y0013939D01*
X0049258Y0013965D01*
X0049295Y0013987D01*
X0049334Y0014006D01*
X0049375Y0014022D01*
X0049416Y0014034D01*
X0049459Y0014043D01*
X0049502Y0014048D01*
X0049545Y0014050D01*
X0051118Y0014050D02*
X0051584Y0011950D01*
X0052051Y0013350D01*
X0052518Y0011950D01*
X0052984Y0014050D01*
X0054077Y0012825D02*
X0054719Y0013175D01*
X0054485Y0014050D02*
X0054429Y0014048D01*
X0054373Y0014043D01*
X0054317Y0014034D01*
X0054262Y0014021D01*
X0054208Y0014005D01*
X0054155Y0013986D01*
X0054104Y0013963D01*
X0054054Y0013937D01*
X0054006Y0013907D01*
X0053960Y0013875D01*
X0054719Y0013175D02*
X0054753Y0013197D01*
X0054785Y0013222D01*
X0054815Y0013250D01*
X0054843Y0013280D01*
X0054868Y0013313D01*
X0054890Y0013348D01*
X0054908Y0013384D01*
X0054924Y0013422D01*
X0054936Y0013461D01*
X0054945Y0013501D01*
X0054950Y0013542D01*
X0054952Y0013583D01*
X0054950Y0013624D01*
X0054945Y0013664D01*
X0054936Y0013704D01*
X0054924Y0013743D01*
X0054908Y0013780D01*
X0054889Y0013817D01*
X0054868Y0013851D01*
X0054843Y0013883D01*
X0054815Y0013913D01*
X0054785Y0013941D01*
X0054753Y0013966D01*
X0054719Y0013987D01*
X0054682Y0014006D01*
X0054645Y0014022D01*
X0054606Y0014034D01*
X0054566Y0014043D01*
X0054526Y0014048D01*
X0054485Y0014050D01*
X0055010Y0012242D02*
X0054967Y0012200D01*
X0054921Y0012162D01*
X0054873Y0012126D01*
X0054823Y0012094D01*
X0054770Y0012064D01*
X0054717Y0012038D01*
X0054661Y0012015D01*
X0054605Y0011995D01*
X0054547Y0011979D01*
X0054489Y0011966D01*
X0054429Y0011957D01*
X0054370Y0011952D01*
X0054310Y0011950D01*
X0054269Y0011952D01*
X0054229Y0011957D01*
X0054189Y0011966D01*
X0054150Y0011978D01*
X0054113Y0011994D01*
X0054077Y0012013D01*
X0054042Y0012034D01*
X0054010Y0012059D01*
X0053980Y0012087D01*
X0053952Y0012117D01*
X0053927Y0012149D01*
X0053906Y0012184D01*
X0053887Y0012220D01*
X0053871Y0012257D01*
X0053859Y0012296D01*
X0053850Y0012336D01*
X0053845Y0012376D01*
X0053843Y0012417D01*
X0053844Y0012417D02*
X0053846Y0012458D01*
X0053851Y0012499D01*
X0053860Y0012539D01*
X0053872Y0012578D01*
X0053888Y0012616D01*
X0053906Y0012652D01*
X0053928Y0012687D01*
X0053953Y0012720D01*
X0053981Y0012750D01*
X0054011Y0012778D01*
X0054043Y0012803D01*
X0054077Y0012825D01*
X0056940Y0014050D02*
X0058106Y0014050D01*
X0057523Y0014050D02*
X0057523Y0011950D01*
X0058839Y0011950D02*
X0059539Y0014050D01*
X0060239Y0011950D01*
X0060064Y0012475D02*
X0059014Y0012475D01*
X0061188Y0012533D02*
X0061188Y0013467D01*
X0061190Y0013513D01*
X0061195Y0013558D01*
X0061204Y0013603D01*
X0061217Y0013647D01*
X0061232Y0013690D01*
X0061252Y0013732D01*
X0061274Y0013772D01*
X0061299Y0013810D01*
X0061328Y0013846D01*
X0061359Y0013879D01*
X0061392Y0013910D01*
X0061428Y0013939D01*
X0061466Y0013964D01*
X0061506Y0013986D01*
X0061548Y0014006D01*
X0061591Y0014021D01*
X0061635Y0014034D01*
X0061680Y0014043D01*
X0061725Y0014048D01*
X0061771Y0014050D01*
X0062354Y0014050D01*
X0062354Y0011950D01*
X0061771Y0011950D01*
X0061725Y0011952D01*
X0061680Y0011957D01*
X0061635Y0011966D01*
X0061591Y0011979D01*
X0061548Y0011994D01*
X0061506Y0012014D01*
X0061466Y0012036D01*
X0061428Y0012061D01*
X0061392Y0012090D01*
X0061359Y0012121D01*
X0061328Y0012154D01*
X0061299Y0012190D01*
X0061274Y0012228D01*
X0061252Y0012268D01*
X0061232Y0012310D01*
X0061217Y0012353D01*
X0061204Y0012397D01*
X0061195Y0012442D01*
X0061190Y0012487D01*
X0061188Y0012533D01*
X0064458Y0011950D02*
X0065158Y0013233D01*
X0065625Y0012767D02*
X0064458Y0014050D01*
X0065625Y0014050D02*
X0065625Y0011950D01*
X0066599Y0011950D02*
X0067533Y0011950D01*
X0067533Y0014050D01*
X0068485Y0014050D02*
X0068951Y0014050D01*
X0068992Y0014048D01*
X0069032Y0014043D01*
X0069072Y0014034D01*
X0069111Y0014022D01*
X0069148Y0014006D01*
X0069185Y0013987D01*
X0069219Y0013966D01*
X0069251Y0013941D01*
X0069281Y0013913D01*
X0069309Y0013883D01*
X0069334Y0013851D01*
X0069355Y0013817D01*
X0069374Y0013780D01*
X0069390Y0013743D01*
X0069402Y0013704D01*
X0069411Y0013664D01*
X0069416Y0013624D01*
X0069418Y0013583D01*
X0069418Y0012417D01*
X0069416Y0012376D01*
X0069411Y0012336D01*
X0069402Y0012296D01*
X0069390Y0012257D01*
X0069374Y0012220D01*
X0069355Y0012184D01*
X0069334Y0012149D01*
X0069309Y0012117D01*
X0069281Y0012087D01*
X0069251Y0012059D01*
X0069219Y0012034D01*
X0069185Y0012013D01*
X0069148Y0011994D01*
X0069111Y0011978D01*
X0069072Y0011966D01*
X0069032Y0011957D01*
X0068992Y0011952D01*
X0068951Y0011950D01*
X0068485Y0011950D01*
X0071411Y0014050D02*
X0072578Y0014050D01*
X0071995Y0014050D02*
X0071995Y0011950D01*
X0073311Y0011950D02*
X0074011Y0014050D01*
X0074711Y0011950D01*
X0074536Y0012475D02*
X0073486Y0012475D01*
X0075455Y0011950D02*
X0076389Y0011950D01*
X0076389Y0014050D01*
X0078493Y0014050D02*
X0078959Y0014050D01*
X0079000Y0014048D01*
X0079040Y0014043D01*
X0079080Y0014034D01*
X0079119Y0014022D01*
X0079156Y0014006D01*
X0079193Y0013987D01*
X0079227Y0013966D01*
X0079259Y0013941D01*
X0079289Y0013913D01*
X0079317Y0013883D01*
X0079342Y0013851D01*
X0079363Y0013817D01*
X0079382Y0013780D01*
X0079398Y0013743D01*
X0079410Y0013704D01*
X0079419Y0013664D01*
X0079424Y0013624D01*
X0079426Y0013583D01*
X0079426Y0012417D01*
X0079424Y0012376D01*
X0079419Y0012336D01*
X0079410Y0012296D01*
X0079398Y0012257D01*
X0079382Y0012220D01*
X0079363Y0012184D01*
X0079342Y0012149D01*
X0079317Y0012117D01*
X0079289Y0012087D01*
X0079259Y0012059D01*
X0079227Y0012034D01*
X0079193Y0012013D01*
X0079156Y0011994D01*
X0079119Y0011978D01*
X0079080Y0011966D01*
X0079040Y0011957D01*
X0079000Y0011952D01*
X0078959Y0011950D01*
X0078493Y0011950D01*
X0080483Y0011950D02*
X0080483Y0014050D01*
X0081650Y0014050D02*
X0080483Y0011950D01*
X0081650Y0011950D02*
X0081650Y0014050D01*
D12*
X0064018Y0034128D02*
X0064018Y0038528D01*
X0062795Y0038528D01*
X0062795Y0038527D02*
X0062726Y0038525D01*
X0062658Y0038519D01*
X0062590Y0038510D01*
X0062523Y0038496D01*
X0062457Y0038479D01*
X0062391Y0038458D01*
X0062327Y0038434D01*
X0062265Y0038406D01*
X0062204Y0038375D01*
X0062145Y0038340D01*
X0062088Y0038302D01*
X0062033Y0038260D01*
X0061981Y0038216D01*
X0061931Y0038169D01*
X0061884Y0038119D01*
X0061840Y0038067D01*
X0061798Y0038012D01*
X0061760Y0037955D01*
X0061725Y0037896D01*
X0061694Y0037835D01*
X0061666Y0037773D01*
X0061642Y0037709D01*
X0061621Y0037643D01*
X0061604Y0037577D01*
X0061590Y0037510D01*
X0061581Y0037442D01*
X0061575Y0037374D01*
X0061573Y0037305D01*
X0061575Y0037236D01*
X0061581Y0037168D01*
X0061590Y0037100D01*
X0061604Y0037033D01*
X0061621Y0036967D01*
X0061642Y0036901D01*
X0061666Y0036837D01*
X0061694Y0036775D01*
X0061725Y0036714D01*
X0061760Y0036655D01*
X0061798Y0036598D01*
X0061840Y0036543D01*
X0061884Y0036491D01*
X0061931Y0036441D01*
X0061981Y0036394D01*
X0062033Y0036350D01*
X0062088Y0036308D01*
X0062145Y0036270D01*
X0062204Y0036235D01*
X0062265Y0036204D01*
X0062327Y0036176D01*
X0062391Y0036152D01*
X0062457Y0036131D01*
X0062523Y0036114D01*
X0062590Y0036100D01*
X0062658Y0036091D01*
X0062726Y0036085D01*
X0062795Y0036083D01*
X0064018Y0036083D01*
X0062551Y0036083D02*
X0061573Y0034128D01*
X0059609Y0034861D02*
X0059609Y0036083D01*
X0059609Y0035594D02*
X0057654Y0035594D01*
X0057654Y0036083D01*
X0057656Y0036144D01*
X0057662Y0036206D01*
X0057671Y0036266D01*
X0057685Y0036326D01*
X0057702Y0036385D01*
X0057723Y0036443D01*
X0057747Y0036499D01*
X0057775Y0036554D01*
X0057806Y0036607D01*
X0057841Y0036658D01*
X0057878Y0036706D01*
X0057919Y0036752D01*
X0057963Y0036796D01*
X0058009Y0036837D01*
X0058057Y0036874D01*
X0058108Y0036909D01*
X0058161Y0036940D01*
X0058216Y0036968D01*
X0058272Y0036992D01*
X0058330Y0037013D01*
X0058389Y0037030D01*
X0058449Y0037044D01*
X0058509Y0037053D01*
X0058571Y0037059D01*
X0058632Y0037061D01*
X0058693Y0037059D01*
X0058755Y0037053D01*
X0058815Y0037044D01*
X0058875Y0037030D01*
X0058934Y0037013D01*
X0058992Y0036992D01*
X0059048Y0036968D01*
X0059103Y0036940D01*
X0059156Y0036909D01*
X0059207Y0036874D01*
X0059255Y0036837D01*
X0059301Y0036796D01*
X0059345Y0036752D01*
X0059386Y0036706D01*
X0059423Y0036658D01*
X0059458Y0036607D01*
X0059489Y0036554D01*
X0059517Y0036499D01*
X0059541Y0036443D01*
X0059562Y0036385D01*
X0059579Y0036326D01*
X0059593Y0036266D01*
X0059602Y0036206D01*
X0059608Y0036144D01*
X0059610Y0036083D01*
X0059609Y0034861D02*
X0059607Y0034809D01*
X0059602Y0034757D01*
X0059592Y0034705D01*
X0059579Y0034654D01*
X0059563Y0034605D01*
X0059543Y0034557D01*
X0059519Y0034510D01*
X0059493Y0034465D01*
X0059463Y0034422D01*
X0059430Y0034381D01*
X0059394Y0034343D01*
X0059356Y0034307D01*
X0059315Y0034274D01*
X0059272Y0034244D01*
X0059227Y0034218D01*
X0059181Y0034194D01*
X0059132Y0034174D01*
X0059083Y0034158D01*
X0059032Y0034145D01*
X0058980Y0034135D01*
X0058928Y0034130D01*
X0058876Y0034128D01*
X0057654Y0034128D01*
X0055448Y0034128D02*
X0055448Y0037061D01*
X0053248Y0037061D01*
X0053196Y0037059D01*
X0053144Y0037054D01*
X0053092Y0037044D01*
X0053041Y0037031D01*
X0052992Y0037015D01*
X0052944Y0036995D01*
X0052897Y0036971D01*
X0052852Y0036945D01*
X0052809Y0036915D01*
X0052768Y0036882D01*
X0052730Y0036846D01*
X0052694Y0036808D01*
X0052661Y0036767D01*
X0052631Y0036724D01*
X0052605Y0036679D01*
X0052581Y0036633D01*
X0052561Y0036584D01*
X0052545Y0036535D01*
X0052532Y0036484D01*
X0052522Y0036432D01*
X0052517Y0036380D01*
X0052515Y0036328D01*
X0052515Y0034128D01*
X0053982Y0034128D02*
X0053982Y0037061D01*
X0050309Y0036083D02*
X0050309Y0035105D01*
X0050310Y0035105D02*
X0050308Y0035044D01*
X0050302Y0034982D01*
X0050293Y0034922D01*
X0050279Y0034862D01*
X0050262Y0034803D01*
X0050241Y0034745D01*
X0050217Y0034689D01*
X0050189Y0034634D01*
X0050158Y0034581D01*
X0050123Y0034530D01*
X0050086Y0034482D01*
X0050045Y0034436D01*
X0050001Y0034392D01*
X0049955Y0034351D01*
X0049907Y0034314D01*
X0049856Y0034279D01*
X0049803Y0034248D01*
X0049748Y0034220D01*
X0049692Y0034196D01*
X0049634Y0034175D01*
X0049575Y0034158D01*
X0049515Y0034144D01*
X0049455Y0034135D01*
X0049393Y0034129D01*
X0049332Y0034127D01*
X0049271Y0034129D01*
X0049209Y0034135D01*
X0049149Y0034144D01*
X0049089Y0034158D01*
X0049030Y0034175D01*
X0048972Y0034196D01*
X0048916Y0034220D01*
X0048861Y0034248D01*
X0048808Y0034279D01*
X0048757Y0034314D01*
X0048709Y0034351D01*
X0048663Y0034392D01*
X0048619Y0034436D01*
X0048578Y0034482D01*
X0048541Y0034530D01*
X0048506Y0034581D01*
X0048475Y0034634D01*
X0048447Y0034689D01*
X0048423Y0034745D01*
X0048402Y0034803D01*
X0048385Y0034862D01*
X0048371Y0034922D01*
X0048362Y0034982D01*
X0048356Y0035044D01*
X0048354Y0035105D01*
X0048354Y0036083D01*
X0048356Y0036144D01*
X0048362Y0036206D01*
X0048371Y0036266D01*
X0048385Y0036326D01*
X0048402Y0036385D01*
X0048423Y0036443D01*
X0048447Y0036499D01*
X0048475Y0036554D01*
X0048506Y0036607D01*
X0048541Y0036658D01*
X0048578Y0036706D01*
X0048619Y0036752D01*
X0048663Y0036796D01*
X0048709Y0036837D01*
X0048757Y0036874D01*
X0048808Y0036909D01*
X0048861Y0036940D01*
X0048916Y0036968D01*
X0048972Y0036992D01*
X0049030Y0037013D01*
X0049089Y0037030D01*
X0049149Y0037044D01*
X0049209Y0037053D01*
X0049271Y0037059D01*
X0049332Y0037061D01*
X0049393Y0037059D01*
X0049455Y0037053D01*
X0049515Y0037044D01*
X0049575Y0037030D01*
X0049634Y0037013D01*
X0049692Y0036992D01*
X0049748Y0036968D01*
X0049803Y0036940D01*
X0049856Y0036909D01*
X0049907Y0036874D01*
X0049955Y0036837D01*
X0050001Y0036796D01*
X0050045Y0036752D01*
X0050086Y0036706D01*
X0050123Y0036658D01*
X0050158Y0036607D01*
X0050189Y0036554D01*
X0050217Y0036499D01*
X0050241Y0036443D01*
X0050262Y0036385D01*
X0050279Y0036326D01*
X0050293Y0036266D01*
X0050302Y0036206D01*
X0050308Y0036144D01*
X0050310Y0036083D01*
X0046810Y0037061D02*
X0045344Y0037061D01*
X0046322Y0038528D02*
X0046322Y0034861D01*
X0046321Y0034861D02*
X0046319Y0034809D01*
X0046314Y0034757D01*
X0046304Y0034705D01*
X0046291Y0034654D01*
X0046275Y0034605D01*
X0046255Y0034556D01*
X0046231Y0034510D01*
X0046205Y0034465D01*
X0046175Y0034422D01*
X0046142Y0034381D01*
X0046106Y0034343D01*
X0046068Y0034307D01*
X0046027Y0034274D01*
X0045984Y0034244D01*
X0045939Y0034218D01*
X0045892Y0034194D01*
X0045844Y0034174D01*
X0045795Y0034158D01*
X0045744Y0034145D01*
X0045692Y0034135D01*
X0045640Y0034130D01*
X0045588Y0034128D01*
X0045344Y0034128D01*
X0043559Y0034861D02*
X0043559Y0036083D01*
X0043559Y0035594D02*
X0041604Y0035594D01*
X0041604Y0036083D01*
X0041606Y0036144D01*
X0041612Y0036206D01*
X0041621Y0036266D01*
X0041635Y0036326D01*
X0041652Y0036385D01*
X0041673Y0036443D01*
X0041697Y0036499D01*
X0041725Y0036554D01*
X0041756Y0036607D01*
X0041791Y0036658D01*
X0041828Y0036706D01*
X0041869Y0036752D01*
X0041913Y0036796D01*
X0041959Y0036837D01*
X0042007Y0036874D01*
X0042058Y0036909D01*
X0042111Y0036940D01*
X0042166Y0036968D01*
X0042222Y0036992D01*
X0042280Y0037013D01*
X0042339Y0037030D01*
X0042399Y0037044D01*
X0042459Y0037053D01*
X0042521Y0037059D01*
X0042582Y0037061D01*
X0042643Y0037059D01*
X0042705Y0037053D01*
X0042765Y0037044D01*
X0042825Y0037030D01*
X0042884Y0037013D01*
X0042942Y0036992D01*
X0042998Y0036968D01*
X0043053Y0036940D01*
X0043106Y0036909D01*
X0043157Y0036874D01*
X0043205Y0036837D01*
X0043251Y0036796D01*
X0043295Y0036752D01*
X0043336Y0036706D01*
X0043373Y0036658D01*
X0043408Y0036607D01*
X0043439Y0036554D01*
X0043467Y0036499D01*
X0043491Y0036443D01*
X0043512Y0036385D01*
X0043529Y0036326D01*
X0043543Y0036266D01*
X0043552Y0036206D01*
X0043558Y0036144D01*
X0043560Y0036083D01*
X0043559Y0034861D02*
X0043557Y0034809D01*
X0043552Y0034757D01*
X0043542Y0034705D01*
X0043529Y0034654D01*
X0043513Y0034605D01*
X0043493Y0034557D01*
X0043469Y0034510D01*
X0043443Y0034465D01*
X0043413Y0034422D01*
X0043380Y0034381D01*
X0043344Y0034343D01*
X0043306Y0034307D01*
X0043265Y0034274D01*
X0043222Y0034244D01*
X0043177Y0034218D01*
X0043131Y0034194D01*
X0043082Y0034174D01*
X0043033Y0034158D01*
X0042982Y0034145D01*
X0042930Y0034135D01*
X0042878Y0034130D01*
X0042826Y0034128D01*
X0041604Y0034128D01*
X0031662Y0050619D02*
X0031662Y0052981D01*
X0026938Y0052981D02*
X0026938Y0050619D01*
X0025481Y0079438D02*
X0023119Y0079438D01*
X0023119Y0084162D02*
X0025481Y0084162D01*
X0025481Y0086938D02*
X0023119Y0086938D01*
X0023119Y0091662D02*
X0025481Y0091662D01*
X0025481Y0094438D02*
X0023119Y0094438D01*
X0023119Y0099162D02*
X0025481Y0099162D01*
X0025481Y0101938D02*
X0023119Y0101938D01*
X0023119Y0106662D02*
X0025481Y0106662D01*
X0025481Y0109438D02*
X0023119Y0109438D01*
X0023119Y0114162D02*
X0025481Y0114162D01*
X0025481Y0116938D02*
X0023119Y0116938D01*
X0023119Y0121662D02*
X0025481Y0121662D01*
X0025481Y0124438D02*
X0023119Y0124438D01*
X0023119Y0129162D02*
X0025481Y0129162D01*
X0048100Y0126800D02*
X0060500Y0126800D01*
X0060576Y0126798D01*
X0060652Y0126792D01*
X0060727Y0126783D01*
X0060802Y0126769D01*
X0060876Y0126752D01*
X0060949Y0126731D01*
X0061021Y0126707D01*
X0061092Y0126678D01*
X0061161Y0126647D01*
X0061228Y0126612D01*
X0061293Y0126573D01*
X0061357Y0126531D01*
X0061418Y0126486D01*
X0061477Y0126438D01*
X0061533Y0126387D01*
X0061587Y0126333D01*
X0061638Y0126277D01*
X0061686Y0126218D01*
X0061731Y0126157D01*
X0061773Y0126093D01*
X0061812Y0126028D01*
X0061847Y0125961D01*
X0061878Y0125892D01*
X0061907Y0125821D01*
X0061931Y0125749D01*
X0061952Y0125676D01*
X0061969Y0125602D01*
X0061983Y0125527D01*
X0061992Y0125452D01*
X0061998Y0125376D01*
X0062000Y0125300D01*
X0048100Y0126800D02*
X0048024Y0126798D01*
X0047948Y0126792D01*
X0047873Y0126783D01*
X0047798Y0126769D01*
X0047724Y0126752D01*
X0047651Y0126731D01*
X0047579Y0126707D01*
X0047508Y0126678D01*
X0047439Y0126647D01*
X0047372Y0126612D01*
X0047307Y0126573D01*
X0047243Y0126531D01*
X0047182Y0126486D01*
X0047123Y0126438D01*
X0047067Y0126387D01*
X0047013Y0126333D01*
X0046962Y0126277D01*
X0046914Y0126218D01*
X0046869Y0126157D01*
X0046827Y0126093D01*
X0046788Y0126028D01*
X0046753Y0125961D01*
X0046722Y0125892D01*
X0046693Y0125821D01*
X0046669Y0125749D01*
X0046648Y0125676D01*
X0046631Y0125602D01*
X0046617Y0125527D01*
X0046608Y0125452D01*
X0046602Y0125376D01*
X0046600Y0125300D01*
X0046600Y0088300D02*
X0046602Y0088224D01*
X0046608Y0088148D01*
X0046617Y0088073D01*
X0046631Y0087998D01*
X0046648Y0087924D01*
X0046669Y0087851D01*
X0046693Y0087779D01*
X0046722Y0087708D01*
X0046753Y0087639D01*
X0046788Y0087572D01*
X0046827Y0087507D01*
X0046869Y0087443D01*
X0046914Y0087382D01*
X0046962Y0087323D01*
X0047013Y0087267D01*
X0047067Y0087213D01*
X0047123Y0087162D01*
X0047182Y0087114D01*
X0047243Y0087069D01*
X0047307Y0087027D01*
X0047372Y0086988D01*
X0047439Y0086953D01*
X0047508Y0086922D01*
X0047579Y0086893D01*
X0047651Y0086869D01*
X0047724Y0086848D01*
X0047798Y0086831D01*
X0047873Y0086817D01*
X0047948Y0086808D01*
X0048024Y0086802D01*
X0048100Y0086800D01*
X0052300Y0086800D01*
X0056300Y0086800D01*
X0060500Y0086800D01*
X0060576Y0086802D01*
X0060652Y0086808D01*
X0060727Y0086817D01*
X0060802Y0086831D01*
X0060876Y0086848D01*
X0060949Y0086869D01*
X0061021Y0086893D01*
X0061092Y0086922D01*
X0061161Y0086953D01*
X0061228Y0086988D01*
X0061293Y0087027D01*
X0061357Y0087069D01*
X0061418Y0087114D01*
X0061477Y0087162D01*
X0061533Y0087213D01*
X0061587Y0087267D01*
X0061638Y0087323D01*
X0061686Y0087382D01*
X0061731Y0087443D01*
X0061773Y0087507D01*
X0061812Y0087572D01*
X0061847Y0087639D01*
X0061878Y0087708D01*
X0061907Y0087779D01*
X0061931Y0087851D01*
X0061952Y0087924D01*
X0061969Y0087998D01*
X0061983Y0088073D01*
X0061992Y0088148D01*
X0061998Y0088224D01*
X0062000Y0088300D01*
X0056300Y0086800D02*
X0056298Y0086888D01*
X0056292Y0086977D01*
X0056282Y0087065D01*
X0056269Y0087152D01*
X0056251Y0087239D01*
X0056230Y0087325D01*
X0056205Y0087410D01*
X0056176Y0087493D01*
X0056143Y0087576D01*
X0056107Y0087656D01*
X0056068Y0087735D01*
X0056025Y0087813D01*
X0055978Y0087888D01*
X0055928Y0087961D01*
X0055875Y0088032D01*
X0055819Y0088101D01*
X0055760Y0088167D01*
X0055698Y0088230D01*
X0055634Y0088290D01*
X0055567Y0088348D01*
X0055497Y0088402D01*
X0055425Y0088454D01*
X0055351Y0088502D01*
X0055274Y0088547D01*
X0055196Y0088588D01*
X0055116Y0088626D01*
X0055035Y0088660D01*
X0054952Y0088691D01*
X0054867Y0088718D01*
X0054782Y0088741D01*
X0054696Y0088760D01*
X0054608Y0088776D01*
X0054521Y0088788D01*
X0054433Y0088796D01*
X0054344Y0088800D01*
X0054256Y0088800D01*
X0054167Y0088796D01*
X0054079Y0088788D01*
X0053992Y0088776D01*
X0053904Y0088760D01*
X0053818Y0088741D01*
X0053733Y0088718D01*
X0053648Y0088691D01*
X0053565Y0088660D01*
X0053484Y0088626D01*
X0053404Y0088588D01*
X0053326Y0088547D01*
X0053249Y0088502D01*
X0053175Y0088454D01*
X0053103Y0088402D01*
X0053033Y0088348D01*
X0052966Y0088290D01*
X0052902Y0088230D01*
X0052840Y0088167D01*
X0052781Y0088101D01*
X0052725Y0088032D01*
X0052672Y0087961D01*
X0052622Y0087888D01*
X0052575Y0087813D01*
X0052532Y0087735D01*
X0052493Y0087656D01*
X0052457Y0087576D01*
X0052424Y0087493D01*
X0052395Y0087410D01*
X0052370Y0087325D01*
X0052349Y0087239D01*
X0052331Y0087152D01*
X0052318Y0087065D01*
X0052308Y0086977D01*
X0052302Y0086888D01*
X0052300Y0086800D01*
X0076938Y0052981D02*
X0076938Y0050619D01*
X0081662Y0050619D02*
X0081662Y0052981D01*
X0083119Y0089438D02*
X0085481Y0089438D01*
X0085481Y0094162D02*
X0083119Y0094162D01*
X0083119Y0096938D02*
X0085481Y0096938D01*
X0085481Y0101662D02*
X0083119Y0101662D01*
D13*
X0048000Y0086800D02*
X0048000Y0126800D01*
M02*
