M48
;GenerationSoftware,Autodesk,EAGLE,9.6.2*%
;CreationDate,2021-02-09T07:21:27Z*%
FMAT,2
ICI,OFF
METRIC,TZ,000.000
T9C0.350
T8C0.813
T7C0.900
T6C1.000
T5C1.016
T4C1.194
T3C1.321
T2C1.500
T1C2.794
%
G90
M71
T1
X58420Y134620
X30480Y134620
T2
X34290Y59110
X34290Y70612
X36322Y64770
X22098Y47752
X22098Y36068
X34290Y36250
X34290Y47752
X36322Y41910
X22098Y24892
X22098Y13208
X34290Y13390
X34290Y24892
X36322Y19050
X69850Y126492
X34290Y81970
X69850Y109220
X29972Y109220
X29972Y126492
X34290Y93472
X36322Y87630
X22098Y70612
X22098Y58928
X22098Y81788
X22098Y93472
T3
X38100Y134620
X50800Y134620
X66040Y134620
X22860Y134620
T4
X11410Y36910
X11410Y14050
X11410Y19050
X11410Y92630
X11430Y132120
X11430Y137120
X11410Y69770
X11410Y64770
X11410Y59770
X11410Y82630
X11410Y24050
X11410Y87630
X11430Y110530
X11430Y115530
X11410Y41910
X11410Y46910
T5
X81280Y92964
X81280Y90424
X81280Y87884
X81280Y85344
X81280Y82804
X81280Y80264
X81280Y77724
X81280Y95504
X101600Y22860
X101600Y25400
X99060Y22860
X99060Y25400
X96520Y22860
X96520Y25400
X93980Y22860
X115570Y12700
X118110Y12700
X120650Y12700
X123190Y12700
X125730Y12700
X128270Y12700
X130810Y12700
X93980Y25400
X91440Y22860
X91440Y25400
X88900Y22860
X88900Y25400
X86360Y22860
X86360Y25400
X129540Y30480
X83820Y22860
X83820Y25400
X121920Y22860
X121920Y25400
X119380Y22860
X119380Y25400
X116840Y22860
X116840Y25400
X114300Y22860
X114300Y25400
X111760Y22860
X111760Y25400
X109220Y22860
X106680Y22860
X106680Y25400
X104140Y22860
X104140Y25400
X124460Y25400
X124460Y22860
X81280Y25400
X81280Y22860
X129540Y86360
X129540Y83820
X129540Y81280
X129540Y78740
X129540Y76200
X129540Y73660
X76200Y12700
X78740Y12700
X81280Y12700
X83820Y12700
X86360Y12700
X88900Y12700
X91440Y12700
X93980Y12700
X96520Y12700
X99060Y12700
X101600Y12700
X104140Y12700
X106680Y12700
X109220Y12700
X111760Y12700
X137160Y29972
X137160Y32512
X137160Y35052
X137160Y37592
X137160Y40132
X137160Y42672
X137160Y45212
X109220Y25400
X129540Y43180
X129540Y40640
X129540Y38100
X129540Y35560
X129540Y33020
X129540Y27940
X129540Y45720
X81280Y48260
X81280Y45720
X81280Y43180
X81280Y40640
X81280Y38100
X81280Y35560
X81280Y33020
X81280Y50800
X129540Y66040
X129540Y63500
X129540Y60960
X129540Y58420
X129540Y55880
X129540Y53340
X129540Y50800
X129540Y68580
X81280Y71120
X81280Y68580
X81280Y66040
X81280Y63500
X81280Y60960
X81280Y58420
X81280Y55880
X81280Y73660
T6
X217170Y34290
X217170Y39370
X217170Y44450
X217170Y49530
X149860Y88900
X149860Y93980
X149860Y99060
X149860Y104140
X149860Y39370
X217170Y88900
X217170Y93980
X217170Y99060
X217170Y104140
X149860Y34290
X149860Y49530
X149860Y44450
T7
X41910Y20320
X19050Y109220
X19050Y116840
X41910Y58420
X41910Y66040
X41910Y81280
X41910Y88900
X41910Y35560
X41910Y43180
X41910Y12700
T8
X58420Y39370
X60960Y39370
X58420Y16510
X60960Y16510
X48260Y71120
X48260Y68580
X55880Y68580
X55880Y71120
X48260Y93980
X48260Y91440
X55880Y91440
X55880Y93980
X48260Y48260
X48260Y45720
X55880Y45720
X55880Y48260
X48260Y25400
X48260Y22860
X55880Y22860
X55880Y25400
X58420Y85090
X52070Y59690
X49530Y59690
X46990Y82550
X52070Y82550
X49530Y82550
X46990Y36830
X52070Y36830
X46990Y13970
X52070Y13970
X49530Y13970
X68580Y39370
X68580Y46990
X63500Y24130
X63500Y16510
X63500Y46990
X63500Y39370
X68580Y62230
X63500Y85090
X63500Y92710
X68580Y92710
X68580Y69850
X68580Y85090
X63500Y62230
X49530Y36830
X46990Y59690
X68580Y24130
X68580Y16510
X60960Y85090
X60960Y62230
X58420Y62230
X63500Y69850
T9
X76200Y10160
X41910Y73660
X41910Y27940
X73660Y12700
X68580Y12700
X52070Y26670
X41910Y97790
X52070Y105410
X52070Y95250
X52070Y72390
X52070Y49530
X41910Y50800
X130810Y5204
X41910Y105410
X68580Y10160
M30