G04 EAGLE Gerber RS-274X export*
G75*
%MOMM*%
%FSLAX34Y34*%
%LPD*%
%INBottom Copper*%
%IPPOS*%
%AMOC8*
5,1,8,0,0,1.08239X$1,22.5*%
G01*
%ADD10C,1.950000*%
%ADD11C,1.408000*%
%ADD12P,1.814519X8X202.500000*%
%ADD13P,1.814519X8X292.500000*%
%ADD14C,1.790700*%
%ADD15C,0.609600*%


D10*
X256100Y355600D03*
X201100Y355600D03*
D11*
X215900Y177800D03*
X215900Y254000D03*
X165100Y177800D03*
X165100Y254000D03*
X101600Y254000D03*
X101600Y177800D03*
X63500Y254000D03*
X63500Y177800D03*
D12*
X88900Y393700D03*
X63500Y393700D03*
D13*
X139700Y393700D03*
X139700Y317500D03*
D14*
X127400Y460947D02*
X127400Y478854D01*
X177400Y478854D02*
X177400Y460947D01*
X177400Y72454D02*
X177400Y54547D01*
X127400Y54547D02*
X127400Y72454D01*
D15*
X63500Y50800D02*
X63500Y177800D01*
X63500Y50800D02*
X76200Y38100D01*
X165100Y38100D01*
X177400Y50400D01*
X177400Y63500D01*
X215900Y177800D02*
X241300Y177800D01*
X254000Y165100D01*
X254000Y50800D01*
X241300Y38100D01*
X165100Y38100D01*
X127400Y63500D02*
X127000Y63900D01*
X127000Y177800D01*
X101600Y177800D01*
X165100Y177800D01*
X165100Y292100D02*
X139700Y317500D01*
X165100Y292100D02*
X165100Y254000D01*
X215900Y254000D01*
X241300Y469900D02*
X177400Y469900D01*
X215900Y254000D02*
X241300Y254000D01*
X256100Y268800D01*
X256100Y355600D01*
X256100Y455100D02*
X241300Y469900D01*
X256100Y455100D02*
X256100Y355600D01*
X63500Y393700D02*
X63500Y457200D01*
X76200Y469900D02*
X127400Y469900D01*
X63500Y393700D02*
X63500Y254000D01*
X101600Y254000D01*
X101600Y330200D01*
X127000Y355600D01*
X201100Y355600D01*
X76200Y469900D02*
X63500Y457200D01*
X88900Y393700D02*
X139700Y393700D01*
M02*
