G75*
%MOIN*%
%OFA0B0*%
%FSLAX25Y25*%
%IPPOS*%
%LPD*%
%AMOC8*
5,1,8,0,0,1.08239X$1,22.5*
%
%ADD10C,0.00000*%
%ADD11C,0.00400*%
%ADD12C,0.00800*%
%ADD13C,0.00300*%
D10*
X0003220Y0057549D02*
X0003220Y0400069D01*
X0365642Y0400069D01*
X0365642Y0057549D01*
X0003220Y0057549D01*
X0010701Y0071329D02*
X0010703Y0071487D01*
X0010709Y0071645D01*
X0010719Y0071803D01*
X0010733Y0071961D01*
X0010751Y0072118D01*
X0010772Y0072275D01*
X0010798Y0072431D01*
X0010828Y0072587D01*
X0010861Y0072742D01*
X0010899Y0072895D01*
X0010940Y0073048D01*
X0010985Y0073200D01*
X0011034Y0073351D01*
X0011087Y0073500D01*
X0011143Y0073648D01*
X0011203Y0073794D01*
X0011267Y0073939D01*
X0011335Y0074082D01*
X0011406Y0074224D01*
X0011480Y0074364D01*
X0011558Y0074501D01*
X0011640Y0074637D01*
X0011724Y0074771D01*
X0011813Y0074902D01*
X0011904Y0075031D01*
X0011999Y0075158D01*
X0012096Y0075283D01*
X0012197Y0075405D01*
X0012301Y0075524D01*
X0012408Y0075641D01*
X0012518Y0075755D01*
X0012631Y0075866D01*
X0012746Y0075975D01*
X0012864Y0076080D01*
X0012985Y0076182D01*
X0013108Y0076282D01*
X0013234Y0076378D01*
X0013362Y0076471D01*
X0013492Y0076561D01*
X0013625Y0076647D01*
X0013760Y0076731D01*
X0013896Y0076810D01*
X0014035Y0076887D01*
X0014176Y0076959D01*
X0014318Y0077029D01*
X0014462Y0077094D01*
X0014608Y0077156D01*
X0014755Y0077214D01*
X0014904Y0077269D01*
X0015054Y0077320D01*
X0015205Y0077367D01*
X0015357Y0077410D01*
X0015510Y0077449D01*
X0015665Y0077485D01*
X0015820Y0077516D01*
X0015976Y0077544D01*
X0016132Y0077568D01*
X0016289Y0077588D01*
X0016447Y0077604D01*
X0016604Y0077616D01*
X0016763Y0077624D01*
X0016921Y0077628D01*
X0017079Y0077628D01*
X0017237Y0077624D01*
X0017396Y0077616D01*
X0017553Y0077604D01*
X0017711Y0077588D01*
X0017868Y0077568D01*
X0018024Y0077544D01*
X0018180Y0077516D01*
X0018335Y0077485D01*
X0018490Y0077449D01*
X0018643Y0077410D01*
X0018795Y0077367D01*
X0018946Y0077320D01*
X0019096Y0077269D01*
X0019245Y0077214D01*
X0019392Y0077156D01*
X0019538Y0077094D01*
X0019682Y0077029D01*
X0019824Y0076959D01*
X0019965Y0076887D01*
X0020104Y0076810D01*
X0020240Y0076731D01*
X0020375Y0076647D01*
X0020508Y0076561D01*
X0020638Y0076471D01*
X0020766Y0076378D01*
X0020892Y0076282D01*
X0021015Y0076182D01*
X0021136Y0076080D01*
X0021254Y0075975D01*
X0021369Y0075866D01*
X0021482Y0075755D01*
X0021592Y0075641D01*
X0021699Y0075524D01*
X0021803Y0075405D01*
X0021904Y0075283D01*
X0022001Y0075158D01*
X0022096Y0075031D01*
X0022187Y0074902D01*
X0022276Y0074771D01*
X0022360Y0074637D01*
X0022442Y0074501D01*
X0022520Y0074364D01*
X0022594Y0074224D01*
X0022665Y0074082D01*
X0022733Y0073939D01*
X0022797Y0073794D01*
X0022857Y0073648D01*
X0022913Y0073500D01*
X0022966Y0073351D01*
X0023015Y0073200D01*
X0023060Y0073048D01*
X0023101Y0072895D01*
X0023139Y0072742D01*
X0023172Y0072587D01*
X0023202Y0072431D01*
X0023228Y0072275D01*
X0023249Y0072118D01*
X0023267Y0071961D01*
X0023281Y0071803D01*
X0023291Y0071645D01*
X0023297Y0071487D01*
X0023299Y0071329D01*
X0023297Y0071171D01*
X0023291Y0071013D01*
X0023281Y0070855D01*
X0023267Y0070697D01*
X0023249Y0070540D01*
X0023228Y0070383D01*
X0023202Y0070227D01*
X0023172Y0070071D01*
X0023139Y0069916D01*
X0023101Y0069763D01*
X0023060Y0069610D01*
X0023015Y0069458D01*
X0022966Y0069307D01*
X0022913Y0069158D01*
X0022857Y0069010D01*
X0022797Y0068864D01*
X0022733Y0068719D01*
X0022665Y0068576D01*
X0022594Y0068434D01*
X0022520Y0068294D01*
X0022442Y0068157D01*
X0022360Y0068021D01*
X0022276Y0067887D01*
X0022187Y0067756D01*
X0022096Y0067627D01*
X0022001Y0067500D01*
X0021904Y0067375D01*
X0021803Y0067253D01*
X0021699Y0067134D01*
X0021592Y0067017D01*
X0021482Y0066903D01*
X0021369Y0066792D01*
X0021254Y0066683D01*
X0021136Y0066578D01*
X0021015Y0066476D01*
X0020892Y0066376D01*
X0020766Y0066280D01*
X0020638Y0066187D01*
X0020508Y0066097D01*
X0020375Y0066011D01*
X0020240Y0065927D01*
X0020104Y0065848D01*
X0019965Y0065771D01*
X0019824Y0065699D01*
X0019682Y0065629D01*
X0019538Y0065564D01*
X0019392Y0065502D01*
X0019245Y0065444D01*
X0019096Y0065389D01*
X0018946Y0065338D01*
X0018795Y0065291D01*
X0018643Y0065248D01*
X0018490Y0065209D01*
X0018335Y0065173D01*
X0018180Y0065142D01*
X0018024Y0065114D01*
X0017868Y0065090D01*
X0017711Y0065070D01*
X0017553Y0065054D01*
X0017396Y0065042D01*
X0017237Y0065034D01*
X0017079Y0065030D01*
X0016921Y0065030D01*
X0016763Y0065034D01*
X0016604Y0065042D01*
X0016447Y0065054D01*
X0016289Y0065070D01*
X0016132Y0065090D01*
X0015976Y0065114D01*
X0015820Y0065142D01*
X0015665Y0065173D01*
X0015510Y0065209D01*
X0015357Y0065248D01*
X0015205Y0065291D01*
X0015054Y0065338D01*
X0014904Y0065389D01*
X0014755Y0065444D01*
X0014608Y0065502D01*
X0014462Y0065564D01*
X0014318Y0065629D01*
X0014176Y0065699D01*
X0014035Y0065771D01*
X0013896Y0065848D01*
X0013760Y0065927D01*
X0013625Y0066011D01*
X0013492Y0066097D01*
X0013362Y0066187D01*
X0013234Y0066280D01*
X0013108Y0066376D01*
X0012985Y0066476D01*
X0012864Y0066578D01*
X0012746Y0066683D01*
X0012631Y0066792D01*
X0012518Y0066903D01*
X0012408Y0067017D01*
X0012301Y0067134D01*
X0012197Y0067253D01*
X0012096Y0067375D01*
X0011999Y0067500D01*
X0011904Y0067627D01*
X0011813Y0067756D01*
X0011724Y0067887D01*
X0011640Y0068021D01*
X0011558Y0068157D01*
X0011480Y0068294D01*
X0011406Y0068434D01*
X0011335Y0068576D01*
X0011267Y0068719D01*
X0011203Y0068864D01*
X0011143Y0069010D01*
X0011087Y0069158D01*
X0011034Y0069307D01*
X0010985Y0069458D01*
X0010940Y0069610D01*
X0010899Y0069763D01*
X0010861Y0069916D01*
X0010828Y0070071D01*
X0010798Y0070227D01*
X0010772Y0070383D01*
X0010751Y0070540D01*
X0010733Y0070697D01*
X0010719Y0070855D01*
X0010709Y0071013D01*
X0010703Y0071171D01*
X0010701Y0071329D01*
X0245760Y0137549D02*
X0245762Y0137662D01*
X0245768Y0137776D01*
X0245778Y0137889D01*
X0245792Y0138001D01*
X0245809Y0138113D01*
X0245831Y0138224D01*
X0245856Y0138335D01*
X0245886Y0138444D01*
X0245919Y0138553D01*
X0245956Y0138660D01*
X0245997Y0138766D01*
X0246041Y0138870D01*
X0246089Y0138973D01*
X0246140Y0139074D01*
X0246195Y0139173D01*
X0246254Y0139270D01*
X0246315Y0139365D01*
X0246380Y0139458D01*
X0246449Y0139549D01*
X0246520Y0139637D01*
X0246594Y0139722D01*
X0246672Y0139805D01*
X0246752Y0139885D01*
X0246835Y0139963D01*
X0246920Y0140037D01*
X0247008Y0140108D01*
X0247099Y0140177D01*
X0247192Y0140242D01*
X0247287Y0140303D01*
X0247384Y0140362D01*
X0247483Y0140417D01*
X0247584Y0140468D01*
X0247687Y0140516D01*
X0247791Y0140560D01*
X0247897Y0140601D01*
X0248004Y0140638D01*
X0248113Y0140671D01*
X0248222Y0140701D01*
X0248333Y0140726D01*
X0248444Y0140748D01*
X0248556Y0140765D01*
X0248668Y0140779D01*
X0248781Y0140789D01*
X0248895Y0140795D01*
X0249008Y0140797D01*
X0249121Y0140795D01*
X0249235Y0140789D01*
X0249348Y0140779D01*
X0249460Y0140765D01*
X0249572Y0140748D01*
X0249683Y0140726D01*
X0249794Y0140701D01*
X0249903Y0140671D01*
X0250012Y0140638D01*
X0250119Y0140601D01*
X0250225Y0140560D01*
X0250329Y0140516D01*
X0250432Y0140468D01*
X0250533Y0140417D01*
X0250632Y0140362D01*
X0250729Y0140303D01*
X0250824Y0140242D01*
X0250917Y0140177D01*
X0251008Y0140108D01*
X0251096Y0140037D01*
X0251181Y0139963D01*
X0251264Y0139885D01*
X0251344Y0139805D01*
X0251422Y0139722D01*
X0251496Y0139637D01*
X0251567Y0139549D01*
X0251636Y0139458D01*
X0251701Y0139365D01*
X0251762Y0139270D01*
X0251821Y0139173D01*
X0251876Y0139074D01*
X0251927Y0138973D01*
X0251975Y0138870D01*
X0252019Y0138766D01*
X0252060Y0138660D01*
X0252097Y0138553D01*
X0252130Y0138444D01*
X0252160Y0138335D01*
X0252185Y0138224D01*
X0252207Y0138113D01*
X0252224Y0138001D01*
X0252238Y0137889D01*
X0252248Y0137776D01*
X0252254Y0137662D01*
X0252256Y0137549D01*
X0252254Y0137436D01*
X0252248Y0137322D01*
X0252238Y0137209D01*
X0252224Y0137097D01*
X0252207Y0136985D01*
X0252185Y0136874D01*
X0252160Y0136763D01*
X0252130Y0136654D01*
X0252097Y0136545D01*
X0252060Y0136438D01*
X0252019Y0136332D01*
X0251975Y0136228D01*
X0251927Y0136125D01*
X0251876Y0136024D01*
X0251821Y0135925D01*
X0251762Y0135828D01*
X0251701Y0135733D01*
X0251636Y0135640D01*
X0251567Y0135549D01*
X0251496Y0135461D01*
X0251422Y0135376D01*
X0251344Y0135293D01*
X0251264Y0135213D01*
X0251181Y0135135D01*
X0251096Y0135061D01*
X0251008Y0134990D01*
X0250917Y0134921D01*
X0250824Y0134856D01*
X0250729Y0134795D01*
X0250632Y0134736D01*
X0250533Y0134681D01*
X0250432Y0134630D01*
X0250329Y0134582D01*
X0250225Y0134538D01*
X0250119Y0134497D01*
X0250012Y0134460D01*
X0249903Y0134427D01*
X0249794Y0134397D01*
X0249683Y0134372D01*
X0249572Y0134350D01*
X0249460Y0134333D01*
X0249348Y0134319D01*
X0249235Y0134309D01*
X0249121Y0134303D01*
X0249008Y0134301D01*
X0248895Y0134303D01*
X0248781Y0134309D01*
X0248668Y0134319D01*
X0248556Y0134333D01*
X0248444Y0134350D01*
X0248333Y0134372D01*
X0248222Y0134397D01*
X0248113Y0134427D01*
X0248004Y0134460D01*
X0247897Y0134497D01*
X0247791Y0134538D01*
X0247687Y0134582D01*
X0247584Y0134630D01*
X0247483Y0134681D01*
X0247384Y0134736D01*
X0247287Y0134795D01*
X0247192Y0134856D01*
X0247099Y0134921D01*
X0247008Y0134990D01*
X0246920Y0135061D01*
X0246835Y0135135D01*
X0246752Y0135213D01*
X0246672Y0135293D01*
X0246594Y0135376D01*
X0246520Y0135461D01*
X0246449Y0135549D01*
X0246380Y0135640D01*
X0246315Y0135733D01*
X0246254Y0135828D01*
X0246195Y0135925D01*
X0246140Y0136024D01*
X0246089Y0136125D01*
X0246041Y0136228D01*
X0245997Y0136332D01*
X0245956Y0136438D01*
X0245919Y0136545D01*
X0245886Y0136654D01*
X0245856Y0136763D01*
X0245831Y0136874D01*
X0245809Y0136985D01*
X0245792Y0137097D01*
X0245778Y0137209D01*
X0245768Y0137322D01*
X0245762Y0137436D01*
X0245760Y0137549D01*
X0345169Y0137549D02*
X0345171Y0137644D01*
X0345177Y0137738D01*
X0345187Y0137833D01*
X0345201Y0137927D01*
X0345218Y0138020D01*
X0345240Y0138112D01*
X0345266Y0138203D01*
X0345295Y0138294D01*
X0345328Y0138382D01*
X0345365Y0138470D01*
X0345405Y0138556D01*
X0345449Y0138640D01*
X0345496Y0138722D01*
X0345547Y0138802D01*
X0345601Y0138880D01*
X0345659Y0138955D01*
X0345719Y0139028D01*
X0345783Y0139099D01*
X0345849Y0139167D01*
X0345918Y0139231D01*
X0345990Y0139293D01*
X0346064Y0139352D01*
X0346141Y0139408D01*
X0346220Y0139461D01*
X0346301Y0139510D01*
X0346384Y0139555D01*
X0346469Y0139598D01*
X0346556Y0139636D01*
X0346644Y0139671D01*
X0346733Y0139702D01*
X0346824Y0139730D01*
X0346916Y0139753D01*
X0347009Y0139773D01*
X0347102Y0139789D01*
X0347196Y0139801D01*
X0347291Y0139809D01*
X0347386Y0139813D01*
X0347480Y0139813D01*
X0347575Y0139809D01*
X0347670Y0139801D01*
X0347764Y0139789D01*
X0347857Y0139773D01*
X0347950Y0139753D01*
X0348042Y0139730D01*
X0348133Y0139702D01*
X0348222Y0139671D01*
X0348310Y0139636D01*
X0348397Y0139598D01*
X0348482Y0139555D01*
X0348565Y0139510D01*
X0348646Y0139461D01*
X0348725Y0139408D01*
X0348802Y0139352D01*
X0348876Y0139293D01*
X0348948Y0139231D01*
X0349017Y0139167D01*
X0349083Y0139099D01*
X0349147Y0139028D01*
X0349207Y0138955D01*
X0349265Y0138880D01*
X0349319Y0138802D01*
X0349370Y0138722D01*
X0349417Y0138640D01*
X0349461Y0138556D01*
X0349501Y0138470D01*
X0349538Y0138382D01*
X0349571Y0138294D01*
X0349600Y0138203D01*
X0349626Y0138112D01*
X0349648Y0138020D01*
X0349665Y0137927D01*
X0349679Y0137833D01*
X0349689Y0137738D01*
X0349695Y0137644D01*
X0349697Y0137549D01*
X0349695Y0137454D01*
X0349689Y0137360D01*
X0349679Y0137265D01*
X0349665Y0137171D01*
X0349648Y0137078D01*
X0349626Y0136986D01*
X0349600Y0136895D01*
X0349571Y0136804D01*
X0349538Y0136716D01*
X0349501Y0136628D01*
X0349461Y0136542D01*
X0349417Y0136458D01*
X0349370Y0136376D01*
X0349319Y0136296D01*
X0349265Y0136218D01*
X0349207Y0136143D01*
X0349147Y0136070D01*
X0349083Y0135999D01*
X0349017Y0135931D01*
X0348948Y0135867D01*
X0348876Y0135805D01*
X0348802Y0135746D01*
X0348725Y0135690D01*
X0348646Y0135637D01*
X0348565Y0135588D01*
X0348482Y0135543D01*
X0348397Y0135500D01*
X0348310Y0135462D01*
X0348222Y0135427D01*
X0348133Y0135396D01*
X0348042Y0135368D01*
X0347950Y0135345D01*
X0347857Y0135325D01*
X0347764Y0135309D01*
X0347670Y0135297D01*
X0347575Y0135289D01*
X0347480Y0135285D01*
X0347386Y0135285D01*
X0347291Y0135289D01*
X0347196Y0135297D01*
X0347102Y0135309D01*
X0347009Y0135325D01*
X0346916Y0135345D01*
X0346824Y0135368D01*
X0346733Y0135396D01*
X0346644Y0135427D01*
X0346556Y0135462D01*
X0346469Y0135500D01*
X0346384Y0135543D01*
X0346301Y0135588D01*
X0346220Y0135637D01*
X0346141Y0135690D01*
X0346064Y0135746D01*
X0345990Y0135805D01*
X0345918Y0135867D01*
X0345849Y0135931D01*
X0345783Y0135999D01*
X0345719Y0136070D01*
X0345659Y0136143D01*
X0345601Y0136218D01*
X0345547Y0136296D01*
X0345496Y0136376D01*
X0345449Y0136458D01*
X0345405Y0136542D01*
X0345365Y0136628D01*
X0345328Y0136716D01*
X0345295Y0136804D01*
X0345266Y0136895D01*
X0345240Y0136986D01*
X0345218Y0137078D01*
X0345201Y0137171D01*
X0345187Y0137265D01*
X0345177Y0137360D01*
X0345171Y0137454D01*
X0345169Y0137549D01*
X0345347Y0071329D02*
X0345349Y0071487D01*
X0345355Y0071645D01*
X0345365Y0071803D01*
X0345379Y0071961D01*
X0345397Y0072118D01*
X0345418Y0072275D01*
X0345444Y0072431D01*
X0345474Y0072587D01*
X0345507Y0072742D01*
X0345545Y0072895D01*
X0345586Y0073048D01*
X0345631Y0073200D01*
X0345680Y0073351D01*
X0345733Y0073500D01*
X0345789Y0073648D01*
X0345849Y0073794D01*
X0345913Y0073939D01*
X0345981Y0074082D01*
X0346052Y0074224D01*
X0346126Y0074364D01*
X0346204Y0074501D01*
X0346286Y0074637D01*
X0346370Y0074771D01*
X0346459Y0074902D01*
X0346550Y0075031D01*
X0346645Y0075158D01*
X0346742Y0075283D01*
X0346843Y0075405D01*
X0346947Y0075524D01*
X0347054Y0075641D01*
X0347164Y0075755D01*
X0347277Y0075866D01*
X0347392Y0075975D01*
X0347510Y0076080D01*
X0347631Y0076182D01*
X0347754Y0076282D01*
X0347880Y0076378D01*
X0348008Y0076471D01*
X0348138Y0076561D01*
X0348271Y0076647D01*
X0348406Y0076731D01*
X0348542Y0076810D01*
X0348681Y0076887D01*
X0348822Y0076959D01*
X0348964Y0077029D01*
X0349108Y0077094D01*
X0349254Y0077156D01*
X0349401Y0077214D01*
X0349550Y0077269D01*
X0349700Y0077320D01*
X0349851Y0077367D01*
X0350003Y0077410D01*
X0350156Y0077449D01*
X0350311Y0077485D01*
X0350466Y0077516D01*
X0350622Y0077544D01*
X0350778Y0077568D01*
X0350935Y0077588D01*
X0351093Y0077604D01*
X0351250Y0077616D01*
X0351409Y0077624D01*
X0351567Y0077628D01*
X0351725Y0077628D01*
X0351883Y0077624D01*
X0352042Y0077616D01*
X0352199Y0077604D01*
X0352357Y0077588D01*
X0352514Y0077568D01*
X0352670Y0077544D01*
X0352826Y0077516D01*
X0352981Y0077485D01*
X0353136Y0077449D01*
X0353289Y0077410D01*
X0353441Y0077367D01*
X0353592Y0077320D01*
X0353742Y0077269D01*
X0353891Y0077214D01*
X0354038Y0077156D01*
X0354184Y0077094D01*
X0354328Y0077029D01*
X0354470Y0076959D01*
X0354611Y0076887D01*
X0354750Y0076810D01*
X0354886Y0076731D01*
X0355021Y0076647D01*
X0355154Y0076561D01*
X0355284Y0076471D01*
X0355412Y0076378D01*
X0355538Y0076282D01*
X0355661Y0076182D01*
X0355782Y0076080D01*
X0355900Y0075975D01*
X0356015Y0075866D01*
X0356128Y0075755D01*
X0356238Y0075641D01*
X0356345Y0075524D01*
X0356449Y0075405D01*
X0356550Y0075283D01*
X0356647Y0075158D01*
X0356742Y0075031D01*
X0356833Y0074902D01*
X0356922Y0074771D01*
X0357006Y0074637D01*
X0357088Y0074501D01*
X0357166Y0074364D01*
X0357240Y0074224D01*
X0357311Y0074082D01*
X0357379Y0073939D01*
X0357443Y0073794D01*
X0357503Y0073648D01*
X0357559Y0073500D01*
X0357612Y0073351D01*
X0357661Y0073200D01*
X0357706Y0073048D01*
X0357747Y0072895D01*
X0357785Y0072742D01*
X0357818Y0072587D01*
X0357848Y0072431D01*
X0357874Y0072275D01*
X0357895Y0072118D01*
X0357913Y0071961D01*
X0357927Y0071803D01*
X0357937Y0071645D01*
X0357943Y0071487D01*
X0357945Y0071329D01*
X0357943Y0071171D01*
X0357937Y0071013D01*
X0357927Y0070855D01*
X0357913Y0070697D01*
X0357895Y0070540D01*
X0357874Y0070383D01*
X0357848Y0070227D01*
X0357818Y0070071D01*
X0357785Y0069916D01*
X0357747Y0069763D01*
X0357706Y0069610D01*
X0357661Y0069458D01*
X0357612Y0069307D01*
X0357559Y0069158D01*
X0357503Y0069010D01*
X0357443Y0068864D01*
X0357379Y0068719D01*
X0357311Y0068576D01*
X0357240Y0068434D01*
X0357166Y0068294D01*
X0357088Y0068157D01*
X0357006Y0068021D01*
X0356922Y0067887D01*
X0356833Y0067756D01*
X0356742Y0067627D01*
X0356647Y0067500D01*
X0356550Y0067375D01*
X0356449Y0067253D01*
X0356345Y0067134D01*
X0356238Y0067017D01*
X0356128Y0066903D01*
X0356015Y0066792D01*
X0355900Y0066683D01*
X0355782Y0066578D01*
X0355661Y0066476D01*
X0355538Y0066376D01*
X0355412Y0066280D01*
X0355284Y0066187D01*
X0355154Y0066097D01*
X0355021Y0066011D01*
X0354886Y0065927D01*
X0354750Y0065848D01*
X0354611Y0065771D01*
X0354470Y0065699D01*
X0354328Y0065629D01*
X0354184Y0065564D01*
X0354038Y0065502D01*
X0353891Y0065444D01*
X0353742Y0065389D01*
X0353592Y0065338D01*
X0353441Y0065291D01*
X0353289Y0065248D01*
X0353136Y0065209D01*
X0352981Y0065173D01*
X0352826Y0065142D01*
X0352670Y0065114D01*
X0352514Y0065090D01*
X0352357Y0065070D01*
X0352199Y0065054D01*
X0352042Y0065042D01*
X0351883Y0065034D01*
X0351725Y0065030D01*
X0351567Y0065030D01*
X0351409Y0065034D01*
X0351250Y0065042D01*
X0351093Y0065054D01*
X0350935Y0065070D01*
X0350778Y0065090D01*
X0350622Y0065114D01*
X0350466Y0065142D01*
X0350311Y0065173D01*
X0350156Y0065209D01*
X0350003Y0065248D01*
X0349851Y0065291D01*
X0349700Y0065338D01*
X0349550Y0065389D01*
X0349401Y0065444D01*
X0349254Y0065502D01*
X0349108Y0065564D01*
X0348964Y0065629D01*
X0348822Y0065699D01*
X0348681Y0065771D01*
X0348542Y0065848D01*
X0348406Y0065927D01*
X0348271Y0066011D01*
X0348138Y0066097D01*
X0348008Y0066187D01*
X0347880Y0066280D01*
X0347754Y0066376D01*
X0347631Y0066476D01*
X0347510Y0066578D01*
X0347392Y0066683D01*
X0347277Y0066792D01*
X0347164Y0066903D01*
X0347054Y0067017D01*
X0346947Y0067134D01*
X0346843Y0067253D01*
X0346742Y0067375D01*
X0346645Y0067500D01*
X0346550Y0067627D01*
X0346459Y0067756D01*
X0346370Y0067887D01*
X0346286Y0068021D01*
X0346204Y0068157D01*
X0346126Y0068294D01*
X0346052Y0068434D01*
X0345981Y0068576D01*
X0345913Y0068719D01*
X0345849Y0068864D01*
X0345789Y0069010D01*
X0345733Y0069158D01*
X0345680Y0069307D01*
X0345631Y0069458D01*
X0345586Y0069610D01*
X0345545Y0069763D01*
X0345507Y0069916D01*
X0345474Y0070071D01*
X0345444Y0070227D01*
X0345418Y0070383D01*
X0345397Y0070540D01*
X0345379Y0070697D01*
X0345365Y0070855D01*
X0345355Y0071013D01*
X0345349Y0071171D01*
X0345347Y0071329D01*
X0345347Y0386289D02*
X0345349Y0386447D01*
X0345355Y0386605D01*
X0345365Y0386763D01*
X0345379Y0386921D01*
X0345397Y0387078D01*
X0345418Y0387235D01*
X0345444Y0387391D01*
X0345474Y0387547D01*
X0345507Y0387702D01*
X0345545Y0387855D01*
X0345586Y0388008D01*
X0345631Y0388160D01*
X0345680Y0388311D01*
X0345733Y0388460D01*
X0345789Y0388608D01*
X0345849Y0388754D01*
X0345913Y0388899D01*
X0345981Y0389042D01*
X0346052Y0389184D01*
X0346126Y0389324D01*
X0346204Y0389461D01*
X0346286Y0389597D01*
X0346370Y0389731D01*
X0346459Y0389862D01*
X0346550Y0389991D01*
X0346645Y0390118D01*
X0346742Y0390243D01*
X0346843Y0390365D01*
X0346947Y0390484D01*
X0347054Y0390601D01*
X0347164Y0390715D01*
X0347277Y0390826D01*
X0347392Y0390935D01*
X0347510Y0391040D01*
X0347631Y0391142D01*
X0347754Y0391242D01*
X0347880Y0391338D01*
X0348008Y0391431D01*
X0348138Y0391521D01*
X0348271Y0391607D01*
X0348406Y0391691D01*
X0348542Y0391770D01*
X0348681Y0391847D01*
X0348822Y0391919D01*
X0348964Y0391989D01*
X0349108Y0392054D01*
X0349254Y0392116D01*
X0349401Y0392174D01*
X0349550Y0392229D01*
X0349700Y0392280D01*
X0349851Y0392327D01*
X0350003Y0392370D01*
X0350156Y0392409D01*
X0350311Y0392445D01*
X0350466Y0392476D01*
X0350622Y0392504D01*
X0350778Y0392528D01*
X0350935Y0392548D01*
X0351093Y0392564D01*
X0351250Y0392576D01*
X0351409Y0392584D01*
X0351567Y0392588D01*
X0351725Y0392588D01*
X0351883Y0392584D01*
X0352042Y0392576D01*
X0352199Y0392564D01*
X0352357Y0392548D01*
X0352514Y0392528D01*
X0352670Y0392504D01*
X0352826Y0392476D01*
X0352981Y0392445D01*
X0353136Y0392409D01*
X0353289Y0392370D01*
X0353441Y0392327D01*
X0353592Y0392280D01*
X0353742Y0392229D01*
X0353891Y0392174D01*
X0354038Y0392116D01*
X0354184Y0392054D01*
X0354328Y0391989D01*
X0354470Y0391919D01*
X0354611Y0391847D01*
X0354750Y0391770D01*
X0354886Y0391691D01*
X0355021Y0391607D01*
X0355154Y0391521D01*
X0355284Y0391431D01*
X0355412Y0391338D01*
X0355538Y0391242D01*
X0355661Y0391142D01*
X0355782Y0391040D01*
X0355900Y0390935D01*
X0356015Y0390826D01*
X0356128Y0390715D01*
X0356238Y0390601D01*
X0356345Y0390484D01*
X0356449Y0390365D01*
X0356550Y0390243D01*
X0356647Y0390118D01*
X0356742Y0389991D01*
X0356833Y0389862D01*
X0356922Y0389731D01*
X0357006Y0389597D01*
X0357088Y0389461D01*
X0357166Y0389324D01*
X0357240Y0389184D01*
X0357311Y0389042D01*
X0357379Y0388899D01*
X0357443Y0388754D01*
X0357503Y0388608D01*
X0357559Y0388460D01*
X0357612Y0388311D01*
X0357661Y0388160D01*
X0357706Y0388008D01*
X0357747Y0387855D01*
X0357785Y0387702D01*
X0357818Y0387547D01*
X0357848Y0387391D01*
X0357874Y0387235D01*
X0357895Y0387078D01*
X0357913Y0386921D01*
X0357927Y0386763D01*
X0357937Y0386605D01*
X0357943Y0386447D01*
X0357945Y0386289D01*
X0357943Y0386131D01*
X0357937Y0385973D01*
X0357927Y0385815D01*
X0357913Y0385657D01*
X0357895Y0385500D01*
X0357874Y0385343D01*
X0357848Y0385187D01*
X0357818Y0385031D01*
X0357785Y0384876D01*
X0357747Y0384723D01*
X0357706Y0384570D01*
X0357661Y0384418D01*
X0357612Y0384267D01*
X0357559Y0384118D01*
X0357503Y0383970D01*
X0357443Y0383824D01*
X0357379Y0383679D01*
X0357311Y0383536D01*
X0357240Y0383394D01*
X0357166Y0383254D01*
X0357088Y0383117D01*
X0357006Y0382981D01*
X0356922Y0382847D01*
X0356833Y0382716D01*
X0356742Y0382587D01*
X0356647Y0382460D01*
X0356550Y0382335D01*
X0356449Y0382213D01*
X0356345Y0382094D01*
X0356238Y0381977D01*
X0356128Y0381863D01*
X0356015Y0381752D01*
X0355900Y0381643D01*
X0355782Y0381538D01*
X0355661Y0381436D01*
X0355538Y0381336D01*
X0355412Y0381240D01*
X0355284Y0381147D01*
X0355154Y0381057D01*
X0355021Y0380971D01*
X0354886Y0380887D01*
X0354750Y0380808D01*
X0354611Y0380731D01*
X0354470Y0380659D01*
X0354328Y0380589D01*
X0354184Y0380524D01*
X0354038Y0380462D01*
X0353891Y0380404D01*
X0353742Y0380349D01*
X0353592Y0380298D01*
X0353441Y0380251D01*
X0353289Y0380208D01*
X0353136Y0380169D01*
X0352981Y0380133D01*
X0352826Y0380102D01*
X0352670Y0380074D01*
X0352514Y0380050D01*
X0352357Y0380030D01*
X0352199Y0380014D01*
X0352042Y0380002D01*
X0351883Y0379994D01*
X0351725Y0379990D01*
X0351567Y0379990D01*
X0351409Y0379994D01*
X0351250Y0380002D01*
X0351093Y0380014D01*
X0350935Y0380030D01*
X0350778Y0380050D01*
X0350622Y0380074D01*
X0350466Y0380102D01*
X0350311Y0380133D01*
X0350156Y0380169D01*
X0350003Y0380208D01*
X0349851Y0380251D01*
X0349700Y0380298D01*
X0349550Y0380349D01*
X0349401Y0380404D01*
X0349254Y0380462D01*
X0349108Y0380524D01*
X0348964Y0380589D01*
X0348822Y0380659D01*
X0348681Y0380731D01*
X0348542Y0380808D01*
X0348406Y0380887D01*
X0348271Y0380971D01*
X0348138Y0381057D01*
X0348008Y0381147D01*
X0347880Y0381240D01*
X0347754Y0381336D01*
X0347631Y0381436D01*
X0347510Y0381538D01*
X0347392Y0381643D01*
X0347277Y0381752D01*
X0347164Y0381863D01*
X0347054Y0381977D01*
X0346947Y0382094D01*
X0346843Y0382213D01*
X0346742Y0382335D01*
X0346645Y0382460D01*
X0346550Y0382587D01*
X0346459Y0382716D01*
X0346370Y0382847D01*
X0346286Y0382981D01*
X0346204Y0383117D01*
X0346126Y0383254D01*
X0346052Y0383394D01*
X0345981Y0383536D01*
X0345913Y0383679D01*
X0345849Y0383824D01*
X0345789Y0383970D01*
X0345733Y0384118D01*
X0345680Y0384267D01*
X0345631Y0384418D01*
X0345586Y0384570D01*
X0345545Y0384723D01*
X0345507Y0384876D01*
X0345474Y0385031D01*
X0345444Y0385187D01*
X0345418Y0385343D01*
X0345397Y0385500D01*
X0345379Y0385657D01*
X0345365Y0385815D01*
X0345355Y0385973D01*
X0345349Y0386131D01*
X0345347Y0386289D01*
X0010701Y0386289D02*
X0010703Y0386447D01*
X0010709Y0386605D01*
X0010719Y0386763D01*
X0010733Y0386921D01*
X0010751Y0387078D01*
X0010772Y0387235D01*
X0010798Y0387391D01*
X0010828Y0387547D01*
X0010861Y0387702D01*
X0010899Y0387855D01*
X0010940Y0388008D01*
X0010985Y0388160D01*
X0011034Y0388311D01*
X0011087Y0388460D01*
X0011143Y0388608D01*
X0011203Y0388754D01*
X0011267Y0388899D01*
X0011335Y0389042D01*
X0011406Y0389184D01*
X0011480Y0389324D01*
X0011558Y0389461D01*
X0011640Y0389597D01*
X0011724Y0389731D01*
X0011813Y0389862D01*
X0011904Y0389991D01*
X0011999Y0390118D01*
X0012096Y0390243D01*
X0012197Y0390365D01*
X0012301Y0390484D01*
X0012408Y0390601D01*
X0012518Y0390715D01*
X0012631Y0390826D01*
X0012746Y0390935D01*
X0012864Y0391040D01*
X0012985Y0391142D01*
X0013108Y0391242D01*
X0013234Y0391338D01*
X0013362Y0391431D01*
X0013492Y0391521D01*
X0013625Y0391607D01*
X0013760Y0391691D01*
X0013896Y0391770D01*
X0014035Y0391847D01*
X0014176Y0391919D01*
X0014318Y0391989D01*
X0014462Y0392054D01*
X0014608Y0392116D01*
X0014755Y0392174D01*
X0014904Y0392229D01*
X0015054Y0392280D01*
X0015205Y0392327D01*
X0015357Y0392370D01*
X0015510Y0392409D01*
X0015665Y0392445D01*
X0015820Y0392476D01*
X0015976Y0392504D01*
X0016132Y0392528D01*
X0016289Y0392548D01*
X0016447Y0392564D01*
X0016604Y0392576D01*
X0016763Y0392584D01*
X0016921Y0392588D01*
X0017079Y0392588D01*
X0017237Y0392584D01*
X0017396Y0392576D01*
X0017553Y0392564D01*
X0017711Y0392548D01*
X0017868Y0392528D01*
X0018024Y0392504D01*
X0018180Y0392476D01*
X0018335Y0392445D01*
X0018490Y0392409D01*
X0018643Y0392370D01*
X0018795Y0392327D01*
X0018946Y0392280D01*
X0019096Y0392229D01*
X0019245Y0392174D01*
X0019392Y0392116D01*
X0019538Y0392054D01*
X0019682Y0391989D01*
X0019824Y0391919D01*
X0019965Y0391847D01*
X0020104Y0391770D01*
X0020240Y0391691D01*
X0020375Y0391607D01*
X0020508Y0391521D01*
X0020638Y0391431D01*
X0020766Y0391338D01*
X0020892Y0391242D01*
X0021015Y0391142D01*
X0021136Y0391040D01*
X0021254Y0390935D01*
X0021369Y0390826D01*
X0021482Y0390715D01*
X0021592Y0390601D01*
X0021699Y0390484D01*
X0021803Y0390365D01*
X0021904Y0390243D01*
X0022001Y0390118D01*
X0022096Y0389991D01*
X0022187Y0389862D01*
X0022276Y0389731D01*
X0022360Y0389597D01*
X0022442Y0389461D01*
X0022520Y0389324D01*
X0022594Y0389184D01*
X0022665Y0389042D01*
X0022733Y0388899D01*
X0022797Y0388754D01*
X0022857Y0388608D01*
X0022913Y0388460D01*
X0022966Y0388311D01*
X0023015Y0388160D01*
X0023060Y0388008D01*
X0023101Y0387855D01*
X0023139Y0387702D01*
X0023172Y0387547D01*
X0023202Y0387391D01*
X0023228Y0387235D01*
X0023249Y0387078D01*
X0023267Y0386921D01*
X0023281Y0386763D01*
X0023291Y0386605D01*
X0023297Y0386447D01*
X0023299Y0386289D01*
X0023297Y0386131D01*
X0023291Y0385973D01*
X0023281Y0385815D01*
X0023267Y0385657D01*
X0023249Y0385500D01*
X0023228Y0385343D01*
X0023202Y0385187D01*
X0023172Y0385031D01*
X0023139Y0384876D01*
X0023101Y0384723D01*
X0023060Y0384570D01*
X0023015Y0384418D01*
X0022966Y0384267D01*
X0022913Y0384118D01*
X0022857Y0383970D01*
X0022797Y0383824D01*
X0022733Y0383679D01*
X0022665Y0383536D01*
X0022594Y0383394D01*
X0022520Y0383254D01*
X0022442Y0383117D01*
X0022360Y0382981D01*
X0022276Y0382847D01*
X0022187Y0382716D01*
X0022096Y0382587D01*
X0022001Y0382460D01*
X0021904Y0382335D01*
X0021803Y0382213D01*
X0021699Y0382094D01*
X0021592Y0381977D01*
X0021482Y0381863D01*
X0021369Y0381752D01*
X0021254Y0381643D01*
X0021136Y0381538D01*
X0021015Y0381436D01*
X0020892Y0381336D01*
X0020766Y0381240D01*
X0020638Y0381147D01*
X0020508Y0381057D01*
X0020375Y0380971D01*
X0020240Y0380887D01*
X0020104Y0380808D01*
X0019965Y0380731D01*
X0019824Y0380659D01*
X0019682Y0380589D01*
X0019538Y0380524D01*
X0019392Y0380462D01*
X0019245Y0380404D01*
X0019096Y0380349D01*
X0018946Y0380298D01*
X0018795Y0380251D01*
X0018643Y0380208D01*
X0018490Y0380169D01*
X0018335Y0380133D01*
X0018180Y0380102D01*
X0018024Y0380074D01*
X0017868Y0380050D01*
X0017711Y0380030D01*
X0017553Y0380014D01*
X0017396Y0380002D01*
X0017237Y0379994D01*
X0017079Y0379990D01*
X0016921Y0379990D01*
X0016763Y0379994D01*
X0016604Y0380002D01*
X0016447Y0380014D01*
X0016289Y0380030D01*
X0016132Y0380050D01*
X0015976Y0380074D01*
X0015820Y0380102D01*
X0015665Y0380133D01*
X0015510Y0380169D01*
X0015357Y0380208D01*
X0015205Y0380251D01*
X0015054Y0380298D01*
X0014904Y0380349D01*
X0014755Y0380404D01*
X0014608Y0380462D01*
X0014462Y0380524D01*
X0014318Y0380589D01*
X0014176Y0380659D01*
X0014035Y0380731D01*
X0013896Y0380808D01*
X0013760Y0380887D01*
X0013625Y0380971D01*
X0013492Y0381057D01*
X0013362Y0381147D01*
X0013234Y0381240D01*
X0013108Y0381336D01*
X0012985Y0381436D01*
X0012864Y0381538D01*
X0012746Y0381643D01*
X0012631Y0381752D01*
X0012518Y0381863D01*
X0012408Y0381977D01*
X0012301Y0382094D01*
X0012197Y0382213D01*
X0012096Y0382335D01*
X0011999Y0382460D01*
X0011904Y0382587D01*
X0011813Y0382716D01*
X0011724Y0382847D01*
X0011640Y0382981D01*
X0011558Y0383117D01*
X0011480Y0383254D01*
X0011406Y0383394D01*
X0011335Y0383536D01*
X0011267Y0383679D01*
X0011203Y0383824D01*
X0011143Y0383970D01*
X0011087Y0384118D01*
X0011034Y0384267D01*
X0010985Y0384418D01*
X0010940Y0384570D01*
X0010899Y0384723D01*
X0010861Y0384876D01*
X0010828Y0385031D01*
X0010798Y0385187D01*
X0010772Y0385343D01*
X0010751Y0385500D01*
X0010733Y0385657D01*
X0010719Y0385815D01*
X0010709Y0385973D01*
X0010703Y0386131D01*
X0010701Y0386289D01*
D11*
X0060698Y0275163D02*
X0062743Y0275163D01*
X0062812Y0275161D01*
X0062881Y0275156D01*
X0062950Y0275146D01*
X0063018Y0275133D01*
X0063085Y0275116D01*
X0063151Y0275096D01*
X0063216Y0275072D01*
X0063280Y0275045D01*
X0063342Y0275014D01*
X0063402Y0274980D01*
X0063460Y0274943D01*
X0063516Y0274902D01*
X0063570Y0274859D01*
X0063622Y0274813D01*
X0063671Y0274764D01*
X0063717Y0274712D01*
X0063760Y0274658D01*
X0063801Y0274602D01*
X0063838Y0274544D01*
X0063872Y0274484D01*
X0063903Y0274422D01*
X0063930Y0274358D01*
X0063954Y0274293D01*
X0063974Y0274227D01*
X0063991Y0274160D01*
X0064004Y0274092D01*
X0064014Y0274023D01*
X0064019Y0273954D01*
X0064021Y0273885D01*
X0064020Y0273885D02*
X0064020Y0272608D01*
X0059420Y0272608D01*
X0059420Y0273885D01*
X0059422Y0273954D01*
X0059427Y0274023D01*
X0059437Y0274092D01*
X0059450Y0274160D01*
X0059467Y0274227D01*
X0059487Y0274293D01*
X0059511Y0274358D01*
X0059538Y0274422D01*
X0059569Y0274484D01*
X0059603Y0274544D01*
X0059640Y0274602D01*
X0059681Y0274658D01*
X0059724Y0274712D01*
X0059770Y0274764D01*
X0059819Y0274813D01*
X0059871Y0274859D01*
X0059925Y0274902D01*
X0059981Y0274943D01*
X0060039Y0274980D01*
X0060099Y0275014D01*
X0060161Y0275045D01*
X0060225Y0275072D01*
X0060290Y0275096D01*
X0060356Y0275116D01*
X0060423Y0275133D01*
X0060491Y0275146D01*
X0060560Y0275156D01*
X0060629Y0275161D01*
X0060698Y0275163D01*
X0059420Y0270363D02*
X0064020Y0270363D01*
X0064020Y0267808D02*
X0059420Y0267808D01*
X0059420Y0265563D02*
X0059420Y0264030D01*
X0059421Y0264030D02*
X0059423Y0263968D01*
X0059428Y0263907D01*
X0059438Y0263846D01*
X0059451Y0263785D01*
X0059467Y0263726D01*
X0059487Y0263668D01*
X0059511Y0263611D01*
X0059538Y0263555D01*
X0059568Y0263501D01*
X0059602Y0263449D01*
X0059638Y0263400D01*
X0059678Y0263352D01*
X0059720Y0263307D01*
X0059765Y0263265D01*
X0059813Y0263225D01*
X0059862Y0263189D01*
X0059914Y0263155D01*
X0059968Y0263125D01*
X0060024Y0263098D01*
X0060081Y0263074D01*
X0060139Y0263054D01*
X0060198Y0263038D01*
X0060259Y0263025D01*
X0060320Y0263015D01*
X0060381Y0263010D01*
X0060443Y0263008D01*
X0062998Y0263008D01*
X0063060Y0263010D01*
X0063121Y0263015D01*
X0063182Y0263025D01*
X0063243Y0263038D01*
X0063302Y0263054D01*
X0063360Y0263074D01*
X0063417Y0263098D01*
X0063473Y0263125D01*
X0063527Y0263155D01*
X0063579Y0263189D01*
X0063628Y0263225D01*
X0063676Y0263265D01*
X0063721Y0263307D01*
X0063763Y0263352D01*
X0063802Y0263400D01*
X0063839Y0263449D01*
X0063873Y0263501D01*
X0063903Y0263555D01*
X0063930Y0263611D01*
X0063954Y0263668D01*
X0063974Y0263726D01*
X0063990Y0263785D01*
X0064003Y0263846D01*
X0064013Y0263907D01*
X0064018Y0263968D01*
X0064020Y0264030D01*
X0064020Y0265563D01*
X0061976Y0265563D02*
X0059420Y0265563D01*
X0061976Y0265563D02*
X0061976Y0264797D01*
X0064020Y0267808D02*
X0059420Y0270363D01*
X0060698Y0258174D02*
X0061209Y0256897D01*
X0061230Y0256850D01*
X0061255Y0256805D01*
X0061282Y0256762D01*
X0061313Y0256722D01*
X0061347Y0256683D01*
X0061384Y0256648D01*
X0061423Y0256615D01*
X0061465Y0256586D01*
X0061509Y0256560D01*
X0061555Y0256537D01*
X0061602Y0256518D01*
X0061651Y0256503D01*
X0061701Y0256492D01*
X0061752Y0256484D01*
X0061803Y0256480D01*
X0061854Y0256481D01*
X0061905Y0256485D01*
X0061955Y0256493D01*
X0062005Y0256505D01*
X0062053Y0256521D01*
X0062101Y0256540D01*
X0062146Y0256563D01*
X0062190Y0256589D01*
X0062231Y0256619D01*
X0062271Y0256652D01*
X0062307Y0256688D01*
X0062341Y0256726D01*
X0062371Y0256767D01*
X0062399Y0256810D01*
X0062422Y0256856D01*
X0062443Y0256903D01*
X0062460Y0256951D01*
X0062472Y0257000D01*
X0062482Y0257051D01*
X0062487Y0257101D01*
X0062488Y0257152D01*
X0059676Y0256514D02*
X0059634Y0256637D01*
X0059595Y0256762D01*
X0059560Y0256887D01*
X0059529Y0257014D01*
X0059502Y0257142D01*
X0059479Y0257270D01*
X0059459Y0257399D01*
X0059444Y0257529D01*
X0059432Y0257658D01*
X0059424Y0257789D01*
X0059420Y0257919D01*
X0059421Y0257970D01*
X0059426Y0258020D01*
X0059436Y0258071D01*
X0059448Y0258120D01*
X0059465Y0258168D01*
X0059486Y0258215D01*
X0059509Y0258261D01*
X0059537Y0258304D01*
X0059567Y0258345D01*
X0059601Y0258383D01*
X0059637Y0258419D01*
X0059677Y0258452D01*
X0059718Y0258482D01*
X0059762Y0258508D01*
X0059807Y0258531D01*
X0059855Y0258550D01*
X0059903Y0258566D01*
X0059953Y0258578D01*
X0060003Y0258586D01*
X0060054Y0258590D01*
X0060105Y0258591D01*
X0060156Y0258587D01*
X0060207Y0258579D01*
X0060257Y0258568D01*
X0060306Y0258553D01*
X0060353Y0258534D01*
X0060399Y0258511D01*
X0060443Y0258485D01*
X0060485Y0258456D01*
X0060524Y0258423D01*
X0060561Y0258388D01*
X0060595Y0258349D01*
X0060626Y0258309D01*
X0060653Y0258266D01*
X0060678Y0258221D01*
X0060699Y0258174D01*
X0062231Y0258302D02*
X0062270Y0258212D01*
X0062306Y0258119D01*
X0062339Y0258026D01*
X0062368Y0257932D01*
X0062395Y0257837D01*
X0062418Y0257741D01*
X0062438Y0257644D01*
X0062454Y0257546D01*
X0062467Y0257448D01*
X0062477Y0257350D01*
X0062484Y0257251D01*
X0062487Y0257152D01*
X0059420Y0254019D02*
X0059424Y0253889D01*
X0059432Y0253758D01*
X0059444Y0253629D01*
X0059459Y0253499D01*
X0059479Y0253370D01*
X0059502Y0253242D01*
X0059529Y0253114D01*
X0059560Y0252987D01*
X0059595Y0252862D01*
X0059634Y0252737D01*
X0059676Y0252614D01*
X0062487Y0253252D02*
X0062484Y0253351D01*
X0062477Y0253450D01*
X0062467Y0253548D01*
X0062454Y0253646D01*
X0062438Y0253744D01*
X0062418Y0253841D01*
X0062395Y0253937D01*
X0062368Y0254032D01*
X0062339Y0254126D01*
X0062306Y0254219D01*
X0062270Y0254312D01*
X0062231Y0254402D01*
X0062488Y0253252D02*
X0062487Y0253201D01*
X0062482Y0253151D01*
X0062472Y0253100D01*
X0062460Y0253051D01*
X0062443Y0253003D01*
X0062422Y0252956D01*
X0062399Y0252910D01*
X0062371Y0252867D01*
X0062341Y0252826D01*
X0062307Y0252788D01*
X0062271Y0252752D01*
X0062231Y0252719D01*
X0062190Y0252689D01*
X0062146Y0252663D01*
X0062101Y0252640D01*
X0062053Y0252621D01*
X0062005Y0252605D01*
X0061955Y0252593D01*
X0061905Y0252585D01*
X0061854Y0252581D01*
X0061803Y0252580D01*
X0061752Y0252584D01*
X0061701Y0252592D01*
X0061651Y0252603D01*
X0061602Y0252618D01*
X0061555Y0252637D01*
X0061509Y0252660D01*
X0061465Y0252686D01*
X0061423Y0252715D01*
X0061384Y0252748D01*
X0061347Y0252783D01*
X0061313Y0252822D01*
X0061282Y0252862D01*
X0061255Y0252905D01*
X0061230Y0252950D01*
X0061209Y0252997D01*
X0060698Y0254274D01*
X0060699Y0254274D02*
X0060678Y0254321D01*
X0060653Y0254366D01*
X0060626Y0254409D01*
X0060595Y0254449D01*
X0060561Y0254488D01*
X0060524Y0254523D01*
X0060485Y0254556D01*
X0060443Y0254585D01*
X0060399Y0254611D01*
X0060353Y0254634D01*
X0060306Y0254653D01*
X0060257Y0254668D01*
X0060207Y0254679D01*
X0060156Y0254687D01*
X0060105Y0254691D01*
X0060054Y0254690D01*
X0060003Y0254686D01*
X0059953Y0254678D01*
X0059903Y0254666D01*
X0059855Y0254650D01*
X0059807Y0254631D01*
X0059762Y0254608D01*
X0059718Y0254582D01*
X0059677Y0254552D01*
X0059637Y0254519D01*
X0059601Y0254483D01*
X0059567Y0254445D01*
X0059537Y0254404D01*
X0059509Y0254361D01*
X0059486Y0254315D01*
X0059465Y0254268D01*
X0059448Y0254220D01*
X0059436Y0254171D01*
X0059426Y0254120D01*
X0059421Y0254070D01*
X0059420Y0254019D01*
X0059420Y0250585D02*
X0061720Y0250585D01*
X0061209Y0250585D02*
X0061209Y0249435D01*
X0061720Y0250585D02*
X0061775Y0250583D01*
X0061829Y0250577D01*
X0061883Y0250567D01*
X0061936Y0250554D01*
X0061988Y0250537D01*
X0062039Y0250516D01*
X0062088Y0250491D01*
X0062135Y0250463D01*
X0062180Y0250432D01*
X0062222Y0250398D01*
X0062262Y0250360D01*
X0062300Y0250320D01*
X0062334Y0250278D01*
X0062365Y0250233D01*
X0062393Y0250186D01*
X0062418Y0250137D01*
X0062439Y0250086D01*
X0062456Y0250034D01*
X0062469Y0249981D01*
X0062479Y0249927D01*
X0062485Y0249873D01*
X0062487Y0249818D01*
X0062487Y0248796D01*
X0061720Y0246731D02*
X0060187Y0246731D01*
X0060132Y0246729D01*
X0060078Y0246723D01*
X0060024Y0246713D01*
X0059971Y0246700D01*
X0059919Y0246683D01*
X0059868Y0246662D01*
X0059819Y0246637D01*
X0059772Y0246609D01*
X0059727Y0246578D01*
X0059685Y0246544D01*
X0059645Y0246506D01*
X0059607Y0246466D01*
X0059573Y0246424D01*
X0059542Y0246379D01*
X0059514Y0246332D01*
X0059489Y0246283D01*
X0059468Y0246232D01*
X0059451Y0246180D01*
X0059438Y0246127D01*
X0059428Y0246073D01*
X0059422Y0246019D01*
X0059420Y0245964D01*
X0059420Y0244686D01*
X0057887Y0244686D02*
X0062487Y0244686D01*
X0062487Y0245964D01*
X0062485Y0246019D01*
X0062479Y0246073D01*
X0062469Y0246127D01*
X0062456Y0246180D01*
X0062439Y0246232D01*
X0062418Y0246283D01*
X0062393Y0246332D01*
X0062365Y0246379D01*
X0062334Y0246424D01*
X0062300Y0246466D01*
X0062262Y0246506D01*
X0062222Y0246544D01*
X0062180Y0246578D01*
X0062135Y0246609D01*
X0062088Y0246637D01*
X0062039Y0246662D01*
X0061988Y0246683D01*
X0061936Y0246700D01*
X0061883Y0246713D01*
X0061829Y0246723D01*
X0061775Y0246729D01*
X0061720Y0246731D01*
X0061209Y0249435D02*
X0061207Y0249377D01*
X0061201Y0249318D01*
X0061192Y0249261D01*
X0061179Y0249204D01*
X0061162Y0249148D01*
X0061141Y0249093D01*
X0061117Y0249040D01*
X0061089Y0248988D01*
X0061058Y0248938D01*
X0061024Y0248891D01*
X0060987Y0248846D01*
X0060947Y0248803D01*
X0060904Y0248763D01*
X0060859Y0248726D01*
X0060812Y0248692D01*
X0060762Y0248661D01*
X0060710Y0248633D01*
X0060657Y0248609D01*
X0060602Y0248588D01*
X0060546Y0248571D01*
X0060489Y0248558D01*
X0060432Y0248549D01*
X0060373Y0248543D01*
X0060315Y0248541D01*
X0060257Y0248543D01*
X0060198Y0248549D01*
X0060141Y0248558D01*
X0060084Y0248571D01*
X0060028Y0248588D01*
X0059973Y0248609D01*
X0059920Y0248633D01*
X0059868Y0248661D01*
X0059818Y0248692D01*
X0059771Y0248726D01*
X0059726Y0248763D01*
X0059683Y0248803D01*
X0059643Y0248846D01*
X0059606Y0248891D01*
X0059572Y0248938D01*
X0059541Y0248988D01*
X0059513Y0249040D01*
X0059489Y0249093D01*
X0059468Y0249148D01*
X0059451Y0249204D01*
X0059438Y0249261D01*
X0059429Y0249318D01*
X0059423Y0249377D01*
X0059421Y0249435D01*
X0059420Y0249435D02*
X0059420Y0250585D01*
X0062487Y0242808D02*
X0057887Y0241274D01*
X0057887Y0240763D01*
X0059420Y0241786D02*
X0062487Y0240763D01*
X0061976Y0237952D02*
X0061976Y0236674D01*
X0061976Y0237952D02*
X0061978Y0238015D01*
X0061984Y0238078D01*
X0061993Y0238140D01*
X0062007Y0238201D01*
X0062024Y0238262D01*
X0062045Y0238321D01*
X0062070Y0238379D01*
X0062098Y0238436D01*
X0062129Y0238490D01*
X0062164Y0238542D01*
X0062202Y0238593D01*
X0062243Y0238641D01*
X0062287Y0238686D01*
X0062333Y0238728D01*
X0062382Y0238768D01*
X0062433Y0238804D01*
X0062487Y0238837D01*
X0062542Y0238867D01*
X0062600Y0238893D01*
X0062658Y0238916D01*
X0062718Y0238935D01*
X0062779Y0238950D01*
X0062841Y0238962D01*
X0062904Y0238970D01*
X0062967Y0238974D01*
X0063029Y0238974D01*
X0063092Y0238970D01*
X0063155Y0238962D01*
X0063217Y0238950D01*
X0063278Y0238935D01*
X0063338Y0238916D01*
X0063396Y0238893D01*
X0063454Y0238867D01*
X0063509Y0238837D01*
X0063563Y0238804D01*
X0063614Y0238768D01*
X0063663Y0238728D01*
X0063709Y0238686D01*
X0063753Y0238641D01*
X0063794Y0238593D01*
X0063832Y0238542D01*
X0063867Y0238490D01*
X0063898Y0238436D01*
X0063926Y0238379D01*
X0063951Y0238321D01*
X0063972Y0238262D01*
X0063989Y0238201D01*
X0064003Y0238140D01*
X0064012Y0238078D01*
X0064018Y0238015D01*
X0064020Y0237952D01*
X0064020Y0236674D01*
X0059420Y0236674D01*
X0059420Y0237952D01*
X0059422Y0238022D01*
X0059428Y0238093D01*
X0059437Y0238162D01*
X0059451Y0238231D01*
X0059468Y0238300D01*
X0059489Y0238367D01*
X0059514Y0238433D01*
X0059542Y0238497D01*
X0059574Y0238560D01*
X0059609Y0238621D01*
X0059648Y0238680D01*
X0059689Y0238737D01*
X0059734Y0238791D01*
X0059782Y0238843D01*
X0059832Y0238892D01*
X0059886Y0238939D01*
X0059941Y0238982D01*
X0059999Y0239022D01*
X0060059Y0239059D01*
X0060121Y0239092D01*
X0060185Y0239122D01*
X0060250Y0239149D01*
X0060316Y0239172D01*
X0060384Y0239191D01*
X0060453Y0239206D01*
X0060522Y0239218D01*
X0060592Y0239226D01*
X0060663Y0239230D01*
X0060733Y0239230D01*
X0060804Y0239226D01*
X0060874Y0239218D01*
X0060943Y0239206D01*
X0061012Y0239191D01*
X0061080Y0239172D01*
X0061146Y0239149D01*
X0061211Y0239122D01*
X0061275Y0239092D01*
X0061337Y0239059D01*
X0061397Y0239022D01*
X0061455Y0238982D01*
X0061510Y0238939D01*
X0061564Y0238892D01*
X0061614Y0238843D01*
X0061662Y0238791D01*
X0061707Y0238737D01*
X0061748Y0238680D01*
X0061787Y0238621D01*
X0061822Y0238560D01*
X0061854Y0238497D01*
X0061882Y0238433D01*
X0061907Y0238367D01*
X0061928Y0238300D01*
X0061945Y0238231D01*
X0061959Y0238162D01*
X0061968Y0238093D01*
X0061974Y0238022D01*
X0061976Y0237952D01*
X0044020Y0237952D02*
X0044020Y0236674D01*
X0039420Y0236674D01*
X0039420Y0237952D01*
X0039422Y0238022D01*
X0039428Y0238093D01*
X0039437Y0238162D01*
X0039451Y0238231D01*
X0039468Y0238300D01*
X0039489Y0238367D01*
X0039514Y0238433D01*
X0039542Y0238497D01*
X0039574Y0238560D01*
X0039609Y0238621D01*
X0039648Y0238680D01*
X0039689Y0238737D01*
X0039734Y0238791D01*
X0039782Y0238843D01*
X0039832Y0238892D01*
X0039886Y0238939D01*
X0039941Y0238982D01*
X0039999Y0239022D01*
X0040059Y0239059D01*
X0040121Y0239092D01*
X0040185Y0239122D01*
X0040250Y0239149D01*
X0040316Y0239172D01*
X0040384Y0239191D01*
X0040453Y0239206D01*
X0040522Y0239218D01*
X0040592Y0239226D01*
X0040663Y0239230D01*
X0040733Y0239230D01*
X0040804Y0239226D01*
X0040874Y0239218D01*
X0040943Y0239206D01*
X0041012Y0239191D01*
X0041080Y0239172D01*
X0041146Y0239149D01*
X0041211Y0239122D01*
X0041275Y0239092D01*
X0041337Y0239059D01*
X0041397Y0239022D01*
X0041455Y0238982D01*
X0041510Y0238939D01*
X0041564Y0238892D01*
X0041614Y0238843D01*
X0041662Y0238791D01*
X0041707Y0238737D01*
X0041748Y0238680D01*
X0041787Y0238621D01*
X0041822Y0238560D01*
X0041854Y0238497D01*
X0041882Y0238433D01*
X0041907Y0238367D01*
X0041928Y0238300D01*
X0041945Y0238231D01*
X0041959Y0238162D01*
X0041968Y0238093D01*
X0041974Y0238022D01*
X0041976Y0237952D01*
X0041976Y0236674D01*
X0041976Y0237952D02*
X0041978Y0238015D01*
X0041984Y0238078D01*
X0041993Y0238140D01*
X0042007Y0238201D01*
X0042024Y0238262D01*
X0042045Y0238321D01*
X0042070Y0238379D01*
X0042098Y0238436D01*
X0042129Y0238490D01*
X0042164Y0238542D01*
X0042202Y0238593D01*
X0042243Y0238641D01*
X0042287Y0238686D01*
X0042333Y0238728D01*
X0042382Y0238768D01*
X0042433Y0238804D01*
X0042487Y0238837D01*
X0042542Y0238867D01*
X0042600Y0238893D01*
X0042658Y0238916D01*
X0042718Y0238935D01*
X0042779Y0238950D01*
X0042841Y0238962D01*
X0042904Y0238970D01*
X0042967Y0238974D01*
X0043029Y0238974D01*
X0043092Y0238970D01*
X0043155Y0238962D01*
X0043217Y0238950D01*
X0043278Y0238935D01*
X0043338Y0238916D01*
X0043396Y0238893D01*
X0043454Y0238867D01*
X0043509Y0238837D01*
X0043563Y0238804D01*
X0043614Y0238768D01*
X0043663Y0238728D01*
X0043709Y0238686D01*
X0043753Y0238641D01*
X0043794Y0238593D01*
X0043832Y0238542D01*
X0043867Y0238490D01*
X0043898Y0238436D01*
X0043926Y0238379D01*
X0043951Y0238321D01*
X0043972Y0238262D01*
X0043989Y0238201D01*
X0044003Y0238140D01*
X0044012Y0238078D01*
X0044018Y0238015D01*
X0044020Y0237952D01*
X0042487Y0240763D02*
X0039420Y0241786D01*
X0037887Y0241274D02*
X0042487Y0242808D01*
X0042487Y0244686D02*
X0042487Y0245964D01*
X0042485Y0246019D01*
X0042479Y0246073D01*
X0042469Y0246127D01*
X0042456Y0246180D01*
X0042439Y0246232D01*
X0042418Y0246283D01*
X0042393Y0246332D01*
X0042365Y0246379D01*
X0042334Y0246424D01*
X0042300Y0246466D01*
X0042262Y0246506D01*
X0042222Y0246544D01*
X0042180Y0246578D01*
X0042135Y0246609D01*
X0042088Y0246637D01*
X0042039Y0246662D01*
X0041988Y0246683D01*
X0041936Y0246700D01*
X0041883Y0246713D01*
X0041829Y0246723D01*
X0041775Y0246729D01*
X0041720Y0246731D01*
X0040187Y0246731D01*
X0040132Y0246729D01*
X0040078Y0246723D01*
X0040024Y0246713D01*
X0039971Y0246700D01*
X0039919Y0246683D01*
X0039868Y0246662D01*
X0039819Y0246637D01*
X0039772Y0246609D01*
X0039727Y0246578D01*
X0039685Y0246544D01*
X0039645Y0246506D01*
X0039607Y0246466D01*
X0039573Y0246424D01*
X0039542Y0246379D01*
X0039514Y0246332D01*
X0039489Y0246283D01*
X0039468Y0246232D01*
X0039451Y0246180D01*
X0039438Y0246127D01*
X0039428Y0246073D01*
X0039422Y0246019D01*
X0039420Y0245964D01*
X0039420Y0244686D01*
X0037887Y0244686D02*
X0042487Y0244686D01*
X0042487Y0248796D02*
X0042487Y0249818D01*
X0042485Y0249873D01*
X0042479Y0249927D01*
X0042469Y0249981D01*
X0042456Y0250034D01*
X0042439Y0250086D01*
X0042418Y0250137D01*
X0042393Y0250186D01*
X0042365Y0250233D01*
X0042334Y0250278D01*
X0042300Y0250320D01*
X0042262Y0250360D01*
X0042222Y0250398D01*
X0042180Y0250432D01*
X0042135Y0250463D01*
X0042088Y0250491D01*
X0042039Y0250516D01*
X0041988Y0250537D01*
X0041936Y0250554D01*
X0041883Y0250567D01*
X0041829Y0250577D01*
X0041775Y0250583D01*
X0041720Y0250585D01*
X0039420Y0250585D01*
X0039420Y0249435D01*
X0039421Y0249435D02*
X0039423Y0249377D01*
X0039429Y0249318D01*
X0039438Y0249261D01*
X0039451Y0249204D01*
X0039468Y0249148D01*
X0039489Y0249093D01*
X0039513Y0249040D01*
X0039541Y0248988D01*
X0039572Y0248938D01*
X0039606Y0248891D01*
X0039643Y0248846D01*
X0039683Y0248803D01*
X0039726Y0248763D01*
X0039771Y0248726D01*
X0039818Y0248692D01*
X0039868Y0248661D01*
X0039920Y0248633D01*
X0039973Y0248609D01*
X0040028Y0248588D01*
X0040084Y0248571D01*
X0040141Y0248558D01*
X0040198Y0248549D01*
X0040257Y0248543D01*
X0040315Y0248541D01*
X0040373Y0248543D01*
X0040432Y0248549D01*
X0040489Y0248558D01*
X0040546Y0248571D01*
X0040602Y0248588D01*
X0040657Y0248609D01*
X0040710Y0248633D01*
X0040762Y0248661D01*
X0040812Y0248692D01*
X0040859Y0248726D01*
X0040904Y0248763D01*
X0040947Y0248803D01*
X0040987Y0248846D01*
X0041024Y0248891D01*
X0041058Y0248938D01*
X0041089Y0248988D01*
X0041117Y0249040D01*
X0041141Y0249093D01*
X0041162Y0249148D01*
X0041179Y0249204D01*
X0041192Y0249261D01*
X0041201Y0249318D01*
X0041207Y0249377D01*
X0041209Y0249435D01*
X0041209Y0250585D01*
X0041209Y0252997D02*
X0040698Y0254274D01*
X0040699Y0254274D02*
X0040678Y0254321D01*
X0040653Y0254366D01*
X0040626Y0254409D01*
X0040595Y0254449D01*
X0040561Y0254488D01*
X0040524Y0254523D01*
X0040485Y0254556D01*
X0040443Y0254585D01*
X0040399Y0254611D01*
X0040353Y0254634D01*
X0040306Y0254653D01*
X0040257Y0254668D01*
X0040207Y0254679D01*
X0040156Y0254687D01*
X0040105Y0254691D01*
X0040054Y0254690D01*
X0040003Y0254686D01*
X0039953Y0254678D01*
X0039903Y0254666D01*
X0039855Y0254650D01*
X0039807Y0254631D01*
X0039762Y0254608D01*
X0039718Y0254582D01*
X0039677Y0254552D01*
X0039637Y0254519D01*
X0039601Y0254483D01*
X0039567Y0254445D01*
X0039537Y0254404D01*
X0039509Y0254361D01*
X0039486Y0254315D01*
X0039465Y0254268D01*
X0039448Y0254220D01*
X0039436Y0254171D01*
X0039426Y0254120D01*
X0039421Y0254070D01*
X0039420Y0254019D01*
X0042231Y0254402D02*
X0042270Y0254312D01*
X0042306Y0254219D01*
X0042339Y0254126D01*
X0042368Y0254032D01*
X0042395Y0253937D01*
X0042418Y0253841D01*
X0042438Y0253744D01*
X0042454Y0253646D01*
X0042467Y0253548D01*
X0042477Y0253450D01*
X0042484Y0253351D01*
X0042487Y0253252D01*
X0042488Y0253252D02*
X0042487Y0253201D01*
X0042482Y0253151D01*
X0042472Y0253100D01*
X0042460Y0253051D01*
X0042443Y0253003D01*
X0042422Y0252956D01*
X0042399Y0252910D01*
X0042371Y0252867D01*
X0042341Y0252826D01*
X0042307Y0252788D01*
X0042271Y0252752D01*
X0042231Y0252719D01*
X0042190Y0252689D01*
X0042146Y0252663D01*
X0042101Y0252640D01*
X0042053Y0252621D01*
X0042005Y0252605D01*
X0041955Y0252593D01*
X0041905Y0252585D01*
X0041854Y0252581D01*
X0041803Y0252580D01*
X0041752Y0252584D01*
X0041701Y0252592D01*
X0041651Y0252603D01*
X0041602Y0252618D01*
X0041555Y0252637D01*
X0041509Y0252660D01*
X0041465Y0252686D01*
X0041423Y0252715D01*
X0041384Y0252748D01*
X0041347Y0252783D01*
X0041313Y0252822D01*
X0041282Y0252862D01*
X0041255Y0252905D01*
X0041230Y0252950D01*
X0041209Y0252997D01*
X0039676Y0252614D02*
X0039634Y0252737D01*
X0039595Y0252862D01*
X0039560Y0252987D01*
X0039529Y0253114D01*
X0039502Y0253242D01*
X0039479Y0253370D01*
X0039459Y0253499D01*
X0039444Y0253629D01*
X0039432Y0253758D01*
X0039424Y0253889D01*
X0039420Y0254019D01*
X0042487Y0257152D02*
X0042484Y0257251D01*
X0042477Y0257350D01*
X0042467Y0257448D01*
X0042454Y0257546D01*
X0042438Y0257644D01*
X0042418Y0257741D01*
X0042395Y0257837D01*
X0042368Y0257932D01*
X0042339Y0258026D01*
X0042306Y0258119D01*
X0042270Y0258212D01*
X0042231Y0258302D01*
X0042488Y0257152D02*
X0042487Y0257101D01*
X0042482Y0257051D01*
X0042472Y0257000D01*
X0042460Y0256951D01*
X0042443Y0256903D01*
X0042422Y0256856D01*
X0042399Y0256810D01*
X0042371Y0256767D01*
X0042341Y0256726D01*
X0042307Y0256688D01*
X0042271Y0256652D01*
X0042231Y0256619D01*
X0042190Y0256589D01*
X0042146Y0256563D01*
X0042101Y0256540D01*
X0042053Y0256521D01*
X0042005Y0256505D01*
X0041955Y0256493D01*
X0041905Y0256485D01*
X0041854Y0256481D01*
X0041803Y0256480D01*
X0041752Y0256484D01*
X0041701Y0256492D01*
X0041651Y0256503D01*
X0041602Y0256518D01*
X0041555Y0256537D01*
X0041509Y0256560D01*
X0041465Y0256586D01*
X0041423Y0256615D01*
X0041384Y0256648D01*
X0041347Y0256683D01*
X0041313Y0256722D01*
X0041282Y0256762D01*
X0041255Y0256805D01*
X0041230Y0256850D01*
X0041209Y0256897D01*
X0040698Y0258174D01*
X0040699Y0258174D02*
X0040678Y0258221D01*
X0040653Y0258266D01*
X0040626Y0258309D01*
X0040595Y0258349D01*
X0040561Y0258388D01*
X0040524Y0258423D01*
X0040485Y0258456D01*
X0040443Y0258485D01*
X0040399Y0258511D01*
X0040353Y0258534D01*
X0040306Y0258553D01*
X0040257Y0258568D01*
X0040207Y0258579D01*
X0040156Y0258587D01*
X0040105Y0258591D01*
X0040054Y0258590D01*
X0040003Y0258586D01*
X0039953Y0258578D01*
X0039903Y0258566D01*
X0039855Y0258550D01*
X0039807Y0258531D01*
X0039762Y0258508D01*
X0039718Y0258482D01*
X0039677Y0258452D01*
X0039637Y0258419D01*
X0039601Y0258383D01*
X0039567Y0258345D01*
X0039537Y0258304D01*
X0039509Y0258261D01*
X0039486Y0258215D01*
X0039465Y0258168D01*
X0039448Y0258120D01*
X0039436Y0258071D01*
X0039426Y0258020D01*
X0039421Y0257970D01*
X0039420Y0257919D01*
X0039424Y0257789D01*
X0039432Y0257658D01*
X0039444Y0257529D01*
X0039459Y0257399D01*
X0039479Y0257270D01*
X0039502Y0257142D01*
X0039529Y0257014D01*
X0039560Y0256887D01*
X0039595Y0256762D01*
X0039634Y0256637D01*
X0039676Y0256514D01*
X0044020Y0262602D02*
X0039420Y0264135D01*
X0044020Y0265669D01*
X0042998Y0267345D02*
X0040443Y0267345D01*
X0040381Y0267347D01*
X0040320Y0267352D01*
X0040259Y0267362D01*
X0040198Y0267375D01*
X0040139Y0267391D01*
X0040081Y0267411D01*
X0040024Y0267435D01*
X0039968Y0267462D01*
X0039914Y0267492D01*
X0039862Y0267526D01*
X0039813Y0267562D01*
X0039765Y0267602D01*
X0039720Y0267644D01*
X0039678Y0267689D01*
X0039638Y0267737D01*
X0039602Y0267786D01*
X0039568Y0267838D01*
X0039538Y0267892D01*
X0039511Y0267948D01*
X0039487Y0268005D01*
X0039467Y0268063D01*
X0039451Y0268122D01*
X0039438Y0268183D01*
X0039428Y0268244D01*
X0039423Y0268305D01*
X0039421Y0268367D01*
X0039420Y0268367D02*
X0039420Y0269389D01*
X0040443Y0271095D02*
X0042998Y0271095D01*
X0043060Y0271097D01*
X0043121Y0271102D01*
X0043182Y0271112D01*
X0043243Y0271125D01*
X0043302Y0271141D01*
X0043360Y0271161D01*
X0043417Y0271185D01*
X0043473Y0271212D01*
X0043527Y0271242D01*
X0043579Y0271276D01*
X0043628Y0271312D01*
X0043676Y0271352D01*
X0043721Y0271394D01*
X0043763Y0271439D01*
X0043802Y0271487D01*
X0043839Y0271536D01*
X0043873Y0271588D01*
X0043903Y0271642D01*
X0043930Y0271698D01*
X0043954Y0271755D01*
X0043974Y0271813D01*
X0043990Y0271872D01*
X0044003Y0271933D01*
X0044013Y0271994D01*
X0044018Y0272055D01*
X0044020Y0272117D01*
X0044020Y0273139D01*
X0040443Y0271095D02*
X0040381Y0271097D01*
X0040320Y0271102D01*
X0040259Y0271112D01*
X0040198Y0271125D01*
X0040139Y0271141D01*
X0040081Y0271161D01*
X0040024Y0271185D01*
X0039968Y0271212D01*
X0039914Y0271242D01*
X0039862Y0271276D01*
X0039813Y0271312D01*
X0039765Y0271352D01*
X0039720Y0271394D01*
X0039678Y0271439D01*
X0039638Y0271487D01*
X0039602Y0271536D01*
X0039568Y0271588D01*
X0039538Y0271642D01*
X0039511Y0271698D01*
X0039487Y0271755D01*
X0039467Y0271813D01*
X0039451Y0271872D01*
X0039438Y0271933D01*
X0039428Y0271994D01*
X0039423Y0272055D01*
X0039421Y0272117D01*
X0039420Y0272117D02*
X0039420Y0273139D01*
X0044020Y0269389D02*
X0044020Y0268367D01*
X0044018Y0268305D01*
X0044013Y0268244D01*
X0044003Y0268183D01*
X0043990Y0268122D01*
X0043974Y0268063D01*
X0043954Y0268005D01*
X0043930Y0267948D01*
X0043903Y0267892D01*
X0043873Y0267838D01*
X0043839Y0267786D01*
X0043802Y0267737D01*
X0043763Y0267689D01*
X0043721Y0267644D01*
X0043676Y0267602D01*
X0043628Y0267562D01*
X0043579Y0267526D01*
X0043527Y0267492D01*
X0043473Y0267462D01*
X0043417Y0267435D01*
X0043360Y0267411D01*
X0043302Y0267391D01*
X0043243Y0267375D01*
X0043182Y0267362D01*
X0043121Y0267352D01*
X0043060Y0267347D01*
X0042998Y0267345D01*
X0037887Y0241274D02*
X0037887Y0240763D01*
X0349387Y0182160D02*
X0353987Y0183694D01*
X0353987Y0181649D02*
X0350920Y0182672D01*
X0349387Y0182160D02*
X0349387Y0181649D01*
X0351687Y0179967D02*
X0353220Y0179967D01*
X0353275Y0179965D01*
X0353329Y0179959D01*
X0353383Y0179949D01*
X0353436Y0179936D01*
X0353488Y0179919D01*
X0353539Y0179898D01*
X0353588Y0179873D01*
X0353635Y0179845D01*
X0353680Y0179814D01*
X0353722Y0179780D01*
X0353762Y0179742D01*
X0353800Y0179702D01*
X0353834Y0179660D01*
X0353865Y0179615D01*
X0353893Y0179568D01*
X0353918Y0179519D01*
X0353939Y0179468D01*
X0353956Y0179416D01*
X0353969Y0179363D01*
X0353979Y0179309D01*
X0353985Y0179255D01*
X0353987Y0179200D01*
X0353987Y0177923D01*
X0355520Y0177923D02*
X0350920Y0177923D01*
X0350920Y0179200D01*
X0350922Y0179255D01*
X0350928Y0179309D01*
X0350938Y0179363D01*
X0350951Y0179416D01*
X0350968Y0179468D01*
X0350989Y0179519D01*
X0351014Y0179568D01*
X0351042Y0179615D01*
X0351073Y0179660D01*
X0351107Y0179702D01*
X0351145Y0179742D01*
X0351185Y0179780D01*
X0351227Y0179814D01*
X0351272Y0179845D01*
X0351319Y0179873D01*
X0351368Y0179898D01*
X0351419Y0179919D01*
X0351471Y0179936D01*
X0351524Y0179949D01*
X0351578Y0179959D01*
X0351632Y0179965D01*
X0351687Y0179967D01*
X0351176Y0185244D02*
X0351176Y0185499D01*
X0350920Y0185499D01*
X0350920Y0185244D01*
X0351176Y0185244D01*
X0350920Y0189184D02*
X0350920Y0189695D01*
X0350921Y0189695D02*
X0350923Y0189757D01*
X0350928Y0189818D01*
X0350938Y0189879D01*
X0350951Y0189940D01*
X0350967Y0189999D01*
X0350987Y0190057D01*
X0351011Y0190114D01*
X0351038Y0190170D01*
X0351068Y0190224D01*
X0351102Y0190276D01*
X0351138Y0190325D01*
X0351178Y0190373D01*
X0351220Y0190418D01*
X0351265Y0190460D01*
X0351313Y0190500D01*
X0351362Y0190536D01*
X0351414Y0190570D01*
X0351468Y0190600D01*
X0351524Y0190627D01*
X0351581Y0190651D01*
X0351639Y0190671D01*
X0351698Y0190687D01*
X0351759Y0190700D01*
X0351820Y0190710D01*
X0351881Y0190715D01*
X0351943Y0190717D01*
X0351943Y0190718D02*
X0355520Y0190718D01*
X0353987Y0192899D02*
X0351687Y0192899D01*
X0351632Y0192901D01*
X0351578Y0192907D01*
X0351524Y0192917D01*
X0351471Y0192930D01*
X0351419Y0192947D01*
X0351368Y0192968D01*
X0351319Y0192993D01*
X0351272Y0193021D01*
X0351227Y0193052D01*
X0351185Y0193086D01*
X0351145Y0193124D01*
X0351107Y0193164D01*
X0351073Y0193206D01*
X0351042Y0193251D01*
X0351014Y0193298D01*
X0350989Y0193347D01*
X0350968Y0193398D01*
X0350951Y0193450D01*
X0350938Y0193503D01*
X0350928Y0193557D01*
X0350922Y0193611D01*
X0350920Y0193666D01*
X0350920Y0194944D01*
X0353987Y0194944D01*
X0353987Y0197099D02*
X0353987Y0198377D01*
X0353985Y0198432D01*
X0353979Y0198486D01*
X0353969Y0198540D01*
X0353956Y0198593D01*
X0353939Y0198645D01*
X0353918Y0198696D01*
X0353893Y0198745D01*
X0353865Y0198792D01*
X0353834Y0198837D01*
X0353800Y0198879D01*
X0353762Y0198919D01*
X0353722Y0198957D01*
X0353680Y0198991D01*
X0353635Y0199022D01*
X0353588Y0199050D01*
X0353539Y0199075D01*
X0353488Y0199096D01*
X0353436Y0199113D01*
X0353383Y0199126D01*
X0353329Y0199136D01*
X0353275Y0199142D01*
X0353220Y0199144D01*
X0350920Y0199144D01*
X0350920Y0197099D02*
X0353987Y0197099D01*
X0352454Y0201353D02*
X0353987Y0203397D01*
X0353093Y0202247D02*
X0350920Y0203397D01*
X0350920Y0205199D02*
X0355520Y0205199D01*
X0353987Y0205199D02*
X0353987Y0206477D01*
X0353985Y0206532D01*
X0353979Y0206586D01*
X0353969Y0206640D01*
X0353956Y0206693D01*
X0353939Y0206745D01*
X0353918Y0206796D01*
X0353893Y0206845D01*
X0353865Y0206892D01*
X0353834Y0206937D01*
X0353800Y0206979D01*
X0353762Y0207019D01*
X0353722Y0207057D01*
X0353680Y0207091D01*
X0353635Y0207122D01*
X0353588Y0207150D01*
X0353539Y0207175D01*
X0353488Y0207196D01*
X0353436Y0207213D01*
X0353383Y0207226D01*
X0353329Y0207236D01*
X0353275Y0207242D01*
X0353220Y0207244D01*
X0350920Y0207244D01*
X0351687Y0209399D02*
X0353987Y0209399D01*
X0353987Y0211444D02*
X0350920Y0211444D01*
X0350920Y0210166D01*
X0350922Y0210111D01*
X0350928Y0210057D01*
X0350938Y0210003D01*
X0350951Y0209950D01*
X0350968Y0209898D01*
X0350989Y0209847D01*
X0351014Y0209798D01*
X0351042Y0209751D01*
X0351073Y0209706D01*
X0351107Y0209664D01*
X0351145Y0209624D01*
X0351185Y0209586D01*
X0351227Y0209552D01*
X0351272Y0209521D01*
X0351319Y0209493D01*
X0351368Y0209468D01*
X0351419Y0209447D01*
X0351471Y0209430D01*
X0351524Y0209417D01*
X0351578Y0209407D01*
X0351632Y0209401D01*
X0351687Y0209399D01*
X0350920Y0213688D02*
X0353987Y0213688D01*
X0353987Y0215988D01*
X0353987Y0215222D02*
X0350920Y0215222D01*
X0350920Y0216755D02*
X0353220Y0216755D01*
X0353275Y0216753D01*
X0353329Y0216747D01*
X0353383Y0216737D01*
X0353436Y0216724D01*
X0353488Y0216707D01*
X0353539Y0216686D01*
X0353588Y0216661D01*
X0353635Y0216633D01*
X0353680Y0216602D01*
X0353722Y0216568D01*
X0353762Y0216530D01*
X0353800Y0216490D01*
X0353834Y0216448D01*
X0353865Y0216403D01*
X0353893Y0216356D01*
X0353918Y0216307D01*
X0353939Y0216256D01*
X0353956Y0216204D01*
X0353969Y0216151D01*
X0353979Y0216097D01*
X0353985Y0216043D01*
X0353987Y0215988D01*
X0355520Y0221160D02*
X0355520Y0222183D01*
X0355520Y0221672D02*
X0350920Y0221672D01*
X0350920Y0222183D02*
X0350920Y0221160D01*
X0350920Y0224099D02*
X0353987Y0224099D01*
X0353987Y0225377D01*
X0353985Y0225432D01*
X0353979Y0225486D01*
X0353969Y0225540D01*
X0353956Y0225593D01*
X0353939Y0225645D01*
X0353918Y0225696D01*
X0353893Y0225745D01*
X0353865Y0225792D01*
X0353834Y0225837D01*
X0353800Y0225879D01*
X0353762Y0225919D01*
X0353722Y0225957D01*
X0353680Y0225991D01*
X0353635Y0226022D01*
X0353588Y0226050D01*
X0353539Y0226075D01*
X0353488Y0226096D01*
X0353436Y0226113D01*
X0353383Y0226126D01*
X0353329Y0226136D01*
X0353275Y0226142D01*
X0353220Y0226144D01*
X0350920Y0226144D01*
X0350920Y0228299D02*
X0353987Y0228299D01*
X0353987Y0229577D01*
X0353985Y0229632D01*
X0353979Y0229686D01*
X0353969Y0229740D01*
X0353956Y0229793D01*
X0353939Y0229845D01*
X0353918Y0229896D01*
X0353893Y0229945D01*
X0353865Y0229992D01*
X0353834Y0230037D01*
X0353800Y0230079D01*
X0353762Y0230119D01*
X0353722Y0230157D01*
X0353680Y0230191D01*
X0353635Y0230222D01*
X0353588Y0230250D01*
X0353539Y0230275D01*
X0353488Y0230296D01*
X0353436Y0230313D01*
X0353383Y0230326D01*
X0353329Y0230336D01*
X0353275Y0230342D01*
X0353220Y0230344D01*
X0350920Y0230344D01*
X0351943Y0232349D02*
X0352965Y0232349D01*
X0352965Y0232350D02*
X0353028Y0232352D01*
X0353091Y0232358D01*
X0353153Y0232367D01*
X0353214Y0232381D01*
X0353275Y0232398D01*
X0353334Y0232419D01*
X0353392Y0232444D01*
X0353449Y0232472D01*
X0353503Y0232503D01*
X0353555Y0232538D01*
X0353606Y0232576D01*
X0353654Y0232617D01*
X0353699Y0232661D01*
X0353741Y0232707D01*
X0353781Y0232756D01*
X0353817Y0232807D01*
X0353850Y0232861D01*
X0353880Y0232916D01*
X0353906Y0232974D01*
X0353929Y0233032D01*
X0353948Y0233092D01*
X0353963Y0233153D01*
X0353975Y0233215D01*
X0353983Y0233278D01*
X0353987Y0233341D01*
X0353987Y0233403D01*
X0353983Y0233466D01*
X0353975Y0233529D01*
X0353963Y0233591D01*
X0353948Y0233652D01*
X0353929Y0233712D01*
X0353906Y0233770D01*
X0353880Y0233828D01*
X0353850Y0233883D01*
X0353817Y0233937D01*
X0353781Y0233988D01*
X0353741Y0234037D01*
X0353699Y0234083D01*
X0353654Y0234127D01*
X0353606Y0234168D01*
X0353555Y0234206D01*
X0353503Y0234241D01*
X0353449Y0234272D01*
X0353392Y0234300D01*
X0353334Y0234325D01*
X0353275Y0234346D01*
X0353214Y0234363D01*
X0353153Y0234377D01*
X0353091Y0234386D01*
X0353028Y0234392D01*
X0352965Y0234394D01*
X0351943Y0234394D01*
X0351880Y0234392D01*
X0351817Y0234386D01*
X0351755Y0234377D01*
X0351694Y0234363D01*
X0351633Y0234346D01*
X0351574Y0234325D01*
X0351516Y0234300D01*
X0351459Y0234272D01*
X0351405Y0234241D01*
X0351353Y0234206D01*
X0351302Y0234168D01*
X0351254Y0234127D01*
X0351209Y0234083D01*
X0351167Y0234037D01*
X0351127Y0233988D01*
X0351091Y0233937D01*
X0351058Y0233883D01*
X0351028Y0233828D01*
X0351002Y0233770D01*
X0350979Y0233712D01*
X0350960Y0233652D01*
X0350945Y0233591D01*
X0350933Y0233529D01*
X0350925Y0233466D01*
X0350921Y0233403D01*
X0350921Y0233341D01*
X0350925Y0233278D01*
X0350933Y0233215D01*
X0350945Y0233153D01*
X0350960Y0233092D01*
X0350979Y0233032D01*
X0351002Y0232974D01*
X0351028Y0232916D01*
X0351058Y0232861D01*
X0351091Y0232807D01*
X0351127Y0232756D01*
X0351167Y0232707D01*
X0351209Y0232661D01*
X0351254Y0232617D01*
X0351302Y0232576D01*
X0351353Y0232538D01*
X0351405Y0232503D01*
X0351459Y0232472D01*
X0351516Y0232444D01*
X0351574Y0232419D01*
X0351633Y0232398D01*
X0351694Y0232381D01*
X0351755Y0232367D01*
X0351817Y0232358D01*
X0351880Y0232352D01*
X0351943Y0232350D01*
X0353987Y0236099D02*
X0350920Y0237122D01*
X0353987Y0238144D01*
X0353987Y0240082D02*
X0353987Y0241104D01*
X0353985Y0241159D01*
X0353979Y0241213D01*
X0353969Y0241267D01*
X0353956Y0241320D01*
X0353939Y0241372D01*
X0353918Y0241423D01*
X0353893Y0241472D01*
X0353865Y0241519D01*
X0353834Y0241564D01*
X0353800Y0241606D01*
X0353762Y0241646D01*
X0353722Y0241684D01*
X0353680Y0241718D01*
X0353635Y0241749D01*
X0353588Y0241777D01*
X0353539Y0241802D01*
X0353488Y0241823D01*
X0353436Y0241840D01*
X0353383Y0241853D01*
X0353329Y0241863D01*
X0353275Y0241869D01*
X0353220Y0241871D01*
X0350920Y0241871D01*
X0350920Y0240721D01*
X0350921Y0240721D02*
X0350923Y0240663D01*
X0350929Y0240604D01*
X0350938Y0240547D01*
X0350951Y0240490D01*
X0350968Y0240434D01*
X0350989Y0240379D01*
X0351013Y0240326D01*
X0351041Y0240274D01*
X0351072Y0240224D01*
X0351106Y0240177D01*
X0351143Y0240132D01*
X0351183Y0240089D01*
X0351226Y0240049D01*
X0351271Y0240012D01*
X0351318Y0239978D01*
X0351368Y0239947D01*
X0351420Y0239919D01*
X0351473Y0239895D01*
X0351528Y0239874D01*
X0351584Y0239857D01*
X0351641Y0239844D01*
X0351698Y0239835D01*
X0351757Y0239829D01*
X0351815Y0239827D01*
X0351873Y0239829D01*
X0351932Y0239835D01*
X0351989Y0239844D01*
X0352046Y0239857D01*
X0352102Y0239874D01*
X0352157Y0239895D01*
X0352210Y0239919D01*
X0352262Y0239947D01*
X0352312Y0239978D01*
X0352359Y0240012D01*
X0352404Y0240049D01*
X0352447Y0240089D01*
X0352487Y0240132D01*
X0352524Y0240177D01*
X0352558Y0240224D01*
X0352589Y0240274D01*
X0352617Y0240326D01*
X0352641Y0240379D01*
X0352662Y0240434D01*
X0352679Y0240490D01*
X0352692Y0240547D01*
X0352701Y0240604D01*
X0352707Y0240663D01*
X0352709Y0240721D01*
X0352709Y0241871D01*
X0353987Y0243519D02*
X0353987Y0245052D01*
X0353987Y0246722D02*
X0350920Y0246722D01*
X0350920Y0245052D02*
X0350920Y0244796D01*
X0350922Y0244741D01*
X0350928Y0244687D01*
X0350938Y0244633D01*
X0350951Y0244580D01*
X0350968Y0244528D01*
X0350989Y0244477D01*
X0351014Y0244428D01*
X0351042Y0244381D01*
X0351073Y0244336D01*
X0351107Y0244294D01*
X0351145Y0244254D01*
X0351185Y0244216D01*
X0351227Y0244182D01*
X0351272Y0244151D01*
X0351319Y0244123D01*
X0351368Y0244098D01*
X0351419Y0244077D01*
X0351471Y0244060D01*
X0351524Y0244047D01*
X0351578Y0244037D01*
X0351632Y0244031D01*
X0351687Y0244029D01*
X0351687Y0244030D02*
X0355520Y0244030D01*
X0355520Y0246594D02*
X0355520Y0246849D01*
X0355265Y0246849D01*
X0355265Y0246594D01*
X0355520Y0246594D01*
X0352965Y0248549D02*
X0351943Y0248549D01*
X0351943Y0248550D02*
X0351880Y0248552D01*
X0351817Y0248558D01*
X0351755Y0248567D01*
X0351694Y0248581D01*
X0351633Y0248598D01*
X0351574Y0248619D01*
X0351516Y0248644D01*
X0351459Y0248672D01*
X0351405Y0248703D01*
X0351353Y0248738D01*
X0351302Y0248776D01*
X0351254Y0248817D01*
X0351209Y0248861D01*
X0351167Y0248907D01*
X0351127Y0248956D01*
X0351091Y0249007D01*
X0351058Y0249061D01*
X0351028Y0249116D01*
X0351002Y0249174D01*
X0350979Y0249232D01*
X0350960Y0249292D01*
X0350945Y0249353D01*
X0350933Y0249415D01*
X0350925Y0249478D01*
X0350921Y0249541D01*
X0350921Y0249603D01*
X0350925Y0249666D01*
X0350933Y0249729D01*
X0350945Y0249791D01*
X0350960Y0249852D01*
X0350979Y0249912D01*
X0351002Y0249970D01*
X0351028Y0250028D01*
X0351058Y0250083D01*
X0351091Y0250137D01*
X0351127Y0250188D01*
X0351167Y0250237D01*
X0351209Y0250283D01*
X0351254Y0250327D01*
X0351302Y0250368D01*
X0351353Y0250406D01*
X0351405Y0250441D01*
X0351459Y0250472D01*
X0351516Y0250500D01*
X0351574Y0250525D01*
X0351633Y0250546D01*
X0351694Y0250563D01*
X0351755Y0250577D01*
X0351817Y0250586D01*
X0351880Y0250592D01*
X0351943Y0250594D01*
X0352965Y0250594D01*
X0353028Y0250592D01*
X0353091Y0250586D01*
X0353153Y0250577D01*
X0353214Y0250563D01*
X0353275Y0250546D01*
X0353334Y0250525D01*
X0353392Y0250500D01*
X0353449Y0250472D01*
X0353503Y0250441D01*
X0353555Y0250406D01*
X0353606Y0250368D01*
X0353654Y0250327D01*
X0353699Y0250283D01*
X0353741Y0250237D01*
X0353781Y0250188D01*
X0353817Y0250137D01*
X0353850Y0250083D01*
X0353880Y0250028D01*
X0353906Y0249970D01*
X0353929Y0249912D01*
X0353948Y0249852D01*
X0353963Y0249791D01*
X0353975Y0249729D01*
X0353983Y0249666D01*
X0353987Y0249603D01*
X0353987Y0249541D01*
X0353983Y0249478D01*
X0353975Y0249415D01*
X0353963Y0249353D01*
X0353948Y0249292D01*
X0353929Y0249232D01*
X0353906Y0249174D01*
X0353880Y0249116D01*
X0353850Y0249061D01*
X0353817Y0249007D01*
X0353781Y0248956D01*
X0353741Y0248907D01*
X0353699Y0248861D01*
X0353654Y0248817D01*
X0353606Y0248776D01*
X0353555Y0248738D01*
X0353503Y0248703D01*
X0353449Y0248672D01*
X0353392Y0248644D01*
X0353334Y0248619D01*
X0353275Y0248598D01*
X0353214Y0248581D01*
X0353153Y0248567D01*
X0353091Y0248558D01*
X0353028Y0248552D01*
X0352965Y0248550D01*
X0353987Y0252599D02*
X0350920Y0252599D01*
X0350920Y0254644D02*
X0353220Y0254644D01*
X0353275Y0254642D01*
X0353329Y0254636D01*
X0353383Y0254626D01*
X0353436Y0254613D01*
X0353488Y0254596D01*
X0353539Y0254575D01*
X0353588Y0254550D01*
X0353635Y0254522D01*
X0353680Y0254491D01*
X0353722Y0254457D01*
X0353762Y0254419D01*
X0353800Y0254379D01*
X0353834Y0254337D01*
X0353865Y0254292D01*
X0353893Y0254245D01*
X0353918Y0254196D01*
X0353939Y0254145D01*
X0353956Y0254093D01*
X0353969Y0254040D01*
X0353979Y0253986D01*
X0353985Y0253932D01*
X0353987Y0253877D01*
X0353987Y0252599D01*
X0351559Y0261266D02*
X0351663Y0261314D01*
X0351768Y0261360D01*
X0351874Y0261402D01*
X0351982Y0261441D01*
X0352091Y0261477D01*
X0352201Y0261509D01*
X0352312Y0261539D01*
X0352424Y0261564D01*
X0352536Y0261587D01*
X0352649Y0261606D01*
X0352763Y0261621D01*
X0352877Y0261633D01*
X0352991Y0261642D01*
X0353105Y0261647D01*
X0353220Y0261649D01*
X0353220Y0259094D02*
X0353335Y0259096D01*
X0353449Y0259101D01*
X0353563Y0259110D01*
X0353677Y0259122D01*
X0353791Y0259137D01*
X0353904Y0259156D01*
X0354016Y0259179D01*
X0354128Y0259204D01*
X0354239Y0259234D01*
X0354349Y0259266D01*
X0354458Y0259302D01*
X0354566Y0259341D01*
X0354672Y0259383D01*
X0354777Y0259429D01*
X0354881Y0259477D01*
X0355521Y0260372D02*
X0355519Y0260431D01*
X0355514Y0260489D01*
X0355505Y0260547D01*
X0355492Y0260604D01*
X0355476Y0260661D01*
X0355456Y0260716D01*
X0355433Y0260770D01*
X0355407Y0260822D01*
X0355377Y0260873D01*
X0355345Y0260922D01*
X0355309Y0260969D01*
X0355271Y0261013D01*
X0355230Y0261055D01*
X0355186Y0261094D01*
X0355140Y0261131D01*
X0355092Y0261164D01*
X0355042Y0261195D01*
X0354990Y0261222D01*
X0354937Y0261246D01*
X0354882Y0261267D01*
X0354498Y0261394D02*
X0351943Y0259349D01*
X0350920Y0260372D02*
X0350922Y0260431D01*
X0350927Y0260489D01*
X0350936Y0260547D01*
X0350949Y0260604D01*
X0350965Y0260661D01*
X0350985Y0260716D01*
X0351008Y0260770D01*
X0351034Y0260822D01*
X0351064Y0260873D01*
X0351096Y0260922D01*
X0351132Y0260969D01*
X0351170Y0261013D01*
X0351211Y0261055D01*
X0351255Y0261094D01*
X0351301Y0261131D01*
X0351349Y0261164D01*
X0351399Y0261195D01*
X0351451Y0261222D01*
X0351504Y0261246D01*
X0351559Y0261267D01*
X0350920Y0260372D02*
X0350922Y0260313D01*
X0350927Y0260255D01*
X0350936Y0260197D01*
X0350949Y0260140D01*
X0350965Y0260083D01*
X0350985Y0260028D01*
X0351008Y0259974D01*
X0351034Y0259922D01*
X0351064Y0259871D01*
X0351096Y0259822D01*
X0351132Y0259775D01*
X0351170Y0259731D01*
X0351211Y0259689D01*
X0351255Y0259650D01*
X0351301Y0259613D01*
X0351349Y0259580D01*
X0351399Y0259549D01*
X0351451Y0259522D01*
X0351504Y0259498D01*
X0351559Y0259477D01*
X0353220Y0261650D02*
X0353335Y0261648D01*
X0353449Y0261643D01*
X0353563Y0261634D01*
X0353677Y0261622D01*
X0353791Y0261607D01*
X0353904Y0261588D01*
X0354016Y0261565D01*
X0354128Y0261540D01*
X0354239Y0261510D01*
X0354349Y0261478D01*
X0354458Y0261442D01*
X0354566Y0261403D01*
X0354672Y0261361D01*
X0354777Y0261315D01*
X0354881Y0261267D01*
X0355521Y0260372D02*
X0355519Y0260313D01*
X0355514Y0260255D01*
X0355505Y0260197D01*
X0355492Y0260140D01*
X0355476Y0260083D01*
X0355456Y0260028D01*
X0355433Y0259974D01*
X0355407Y0259922D01*
X0355377Y0259871D01*
X0355345Y0259822D01*
X0355309Y0259775D01*
X0355271Y0259731D01*
X0355230Y0259689D01*
X0355186Y0259650D01*
X0355140Y0259613D01*
X0355092Y0259580D01*
X0355042Y0259549D01*
X0354990Y0259522D01*
X0354937Y0259498D01*
X0354882Y0259477D01*
X0353220Y0259094D02*
X0353105Y0259096D01*
X0352991Y0259101D01*
X0352877Y0259110D01*
X0352763Y0259122D01*
X0352649Y0259137D01*
X0352536Y0259156D01*
X0352424Y0259179D01*
X0352312Y0259204D01*
X0352201Y0259234D01*
X0352091Y0259266D01*
X0351982Y0259302D01*
X0351874Y0259341D01*
X0351768Y0259383D01*
X0351663Y0259429D01*
X0351559Y0259477D01*
X0352198Y0263594D02*
X0352128Y0263596D01*
X0352057Y0263602D01*
X0351988Y0263611D01*
X0351919Y0263625D01*
X0351850Y0263642D01*
X0351783Y0263663D01*
X0351717Y0263688D01*
X0351653Y0263716D01*
X0351590Y0263748D01*
X0351529Y0263783D01*
X0351470Y0263822D01*
X0351413Y0263863D01*
X0351359Y0263908D01*
X0351307Y0263956D01*
X0351258Y0264006D01*
X0351211Y0264060D01*
X0351168Y0264115D01*
X0351128Y0264173D01*
X0351091Y0264233D01*
X0351058Y0264295D01*
X0351028Y0264359D01*
X0351001Y0264424D01*
X0350978Y0264490D01*
X0350959Y0264558D01*
X0350944Y0264627D01*
X0350932Y0264696D01*
X0350924Y0264766D01*
X0350920Y0264837D01*
X0350920Y0264907D01*
X0350924Y0264978D01*
X0350932Y0265048D01*
X0350944Y0265117D01*
X0350959Y0265186D01*
X0350978Y0265254D01*
X0351001Y0265320D01*
X0351028Y0265385D01*
X0351058Y0265449D01*
X0351091Y0265511D01*
X0351128Y0265571D01*
X0351168Y0265629D01*
X0351211Y0265684D01*
X0351258Y0265738D01*
X0351307Y0265788D01*
X0351359Y0265836D01*
X0351413Y0265881D01*
X0351470Y0265922D01*
X0351529Y0265961D01*
X0351590Y0265996D01*
X0351653Y0266028D01*
X0351717Y0266056D01*
X0351783Y0266081D01*
X0351850Y0266102D01*
X0351919Y0266119D01*
X0351988Y0266133D01*
X0352057Y0266142D01*
X0352128Y0266148D01*
X0352198Y0266150D01*
X0352268Y0266148D01*
X0352339Y0266142D01*
X0352408Y0266133D01*
X0352477Y0266119D01*
X0352546Y0266102D01*
X0352613Y0266081D01*
X0352679Y0266056D01*
X0352743Y0266028D01*
X0352806Y0265996D01*
X0352867Y0265961D01*
X0352926Y0265922D01*
X0352983Y0265881D01*
X0353037Y0265836D01*
X0353089Y0265788D01*
X0353138Y0265738D01*
X0353185Y0265684D01*
X0353228Y0265629D01*
X0353268Y0265571D01*
X0353305Y0265511D01*
X0353338Y0265449D01*
X0353368Y0265385D01*
X0353395Y0265320D01*
X0353418Y0265254D01*
X0353437Y0265186D01*
X0353452Y0265117D01*
X0353464Y0265048D01*
X0353472Y0264978D01*
X0353476Y0264907D01*
X0353476Y0264837D01*
X0353472Y0264766D01*
X0353464Y0264696D01*
X0353452Y0264627D01*
X0353437Y0264558D01*
X0353418Y0264490D01*
X0353395Y0264424D01*
X0353368Y0264359D01*
X0353338Y0264295D01*
X0353305Y0264233D01*
X0353268Y0264173D01*
X0353228Y0264115D01*
X0353185Y0264060D01*
X0353138Y0264006D01*
X0353089Y0263956D01*
X0353037Y0263908D01*
X0352983Y0263863D01*
X0352926Y0263822D01*
X0352867Y0263783D01*
X0352806Y0263748D01*
X0352743Y0263716D01*
X0352679Y0263688D01*
X0352613Y0263663D01*
X0352546Y0263642D01*
X0352477Y0263625D01*
X0352408Y0263611D01*
X0352339Y0263602D01*
X0352268Y0263596D01*
X0352198Y0263594D01*
X0354498Y0263850D02*
X0354435Y0263852D01*
X0354372Y0263858D01*
X0354310Y0263867D01*
X0354249Y0263881D01*
X0354188Y0263898D01*
X0354129Y0263919D01*
X0354071Y0263944D01*
X0354014Y0263972D01*
X0353960Y0264003D01*
X0353908Y0264038D01*
X0353857Y0264076D01*
X0353809Y0264117D01*
X0353764Y0264161D01*
X0353722Y0264207D01*
X0353682Y0264256D01*
X0353646Y0264307D01*
X0353613Y0264361D01*
X0353583Y0264416D01*
X0353557Y0264474D01*
X0353534Y0264532D01*
X0353515Y0264592D01*
X0353500Y0264653D01*
X0353488Y0264715D01*
X0353480Y0264778D01*
X0353476Y0264841D01*
X0353476Y0264903D01*
X0353480Y0264966D01*
X0353488Y0265029D01*
X0353500Y0265091D01*
X0353515Y0265152D01*
X0353534Y0265212D01*
X0353557Y0265270D01*
X0353583Y0265328D01*
X0353613Y0265383D01*
X0353646Y0265437D01*
X0353682Y0265488D01*
X0353722Y0265537D01*
X0353764Y0265583D01*
X0353809Y0265627D01*
X0353857Y0265668D01*
X0353908Y0265706D01*
X0353960Y0265741D01*
X0354014Y0265772D01*
X0354071Y0265800D01*
X0354129Y0265825D01*
X0354188Y0265846D01*
X0354249Y0265863D01*
X0354310Y0265877D01*
X0354372Y0265886D01*
X0354435Y0265892D01*
X0354498Y0265894D01*
X0354561Y0265892D01*
X0354624Y0265886D01*
X0354686Y0265877D01*
X0354747Y0265863D01*
X0354808Y0265846D01*
X0354867Y0265825D01*
X0354925Y0265800D01*
X0354982Y0265772D01*
X0355036Y0265741D01*
X0355088Y0265706D01*
X0355139Y0265668D01*
X0355187Y0265627D01*
X0355232Y0265583D01*
X0355274Y0265537D01*
X0355314Y0265488D01*
X0355350Y0265437D01*
X0355383Y0265383D01*
X0355413Y0265328D01*
X0355439Y0265270D01*
X0355462Y0265212D01*
X0355481Y0265152D01*
X0355496Y0265091D01*
X0355508Y0265029D01*
X0355516Y0264966D01*
X0355520Y0264903D01*
X0355520Y0264841D01*
X0355516Y0264778D01*
X0355508Y0264715D01*
X0355496Y0264653D01*
X0355481Y0264592D01*
X0355462Y0264532D01*
X0355439Y0264474D01*
X0355413Y0264416D01*
X0355383Y0264361D01*
X0355350Y0264307D01*
X0355314Y0264256D01*
X0355274Y0264207D01*
X0355232Y0264161D01*
X0355187Y0264117D01*
X0355139Y0264076D01*
X0355088Y0264038D01*
X0355036Y0264003D01*
X0354982Y0263972D01*
X0354925Y0263944D01*
X0354867Y0263919D01*
X0354808Y0263898D01*
X0354747Y0263881D01*
X0354686Y0263867D01*
X0354624Y0263858D01*
X0354561Y0263852D01*
X0354498Y0263850D01*
X0354498Y0268094D02*
X0355520Y0269372D01*
X0350920Y0269372D01*
X0350920Y0270649D02*
X0350920Y0268094D01*
X0352709Y0272638D02*
X0352709Y0275705D01*
X0350920Y0277694D02*
X0350920Y0280249D01*
X0350920Y0278972D02*
X0355520Y0278972D01*
X0354498Y0277694D01*
X0354243Y0282194D02*
X0353987Y0282194D01*
X0353925Y0282196D01*
X0353864Y0282201D01*
X0353803Y0282211D01*
X0353742Y0282224D01*
X0353683Y0282240D01*
X0353625Y0282260D01*
X0353568Y0282284D01*
X0353512Y0282311D01*
X0353458Y0282341D01*
X0353406Y0282375D01*
X0353357Y0282411D01*
X0353309Y0282451D01*
X0353264Y0282493D01*
X0353222Y0282538D01*
X0353182Y0282586D01*
X0353146Y0282635D01*
X0353112Y0282687D01*
X0353082Y0282741D01*
X0353055Y0282797D01*
X0353031Y0282854D01*
X0353011Y0282912D01*
X0352995Y0282971D01*
X0352982Y0283032D01*
X0352972Y0283093D01*
X0352967Y0283154D01*
X0352965Y0283216D01*
X0352965Y0284749D01*
X0354243Y0284749D01*
X0354313Y0284747D01*
X0354384Y0284741D01*
X0354453Y0284732D01*
X0354522Y0284718D01*
X0354591Y0284701D01*
X0354658Y0284680D01*
X0354724Y0284655D01*
X0354788Y0284627D01*
X0354851Y0284595D01*
X0354912Y0284560D01*
X0354971Y0284521D01*
X0355028Y0284480D01*
X0355082Y0284435D01*
X0355134Y0284387D01*
X0355183Y0284337D01*
X0355230Y0284283D01*
X0355273Y0284228D01*
X0355313Y0284170D01*
X0355350Y0284110D01*
X0355383Y0284048D01*
X0355413Y0283984D01*
X0355440Y0283919D01*
X0355463Y0283853D01*
X0355482Y0283785D01*
X0355497Y0283716D01*
X0355509Y0283647D01*
X0355517Y0283577D01*
X0355521Y0283506D01*
X0355521Y0283436D01*
X0355517Y0283365D01*
X0355509Y0283295D01*
X0355497Y0283226D01*
X0355482Y0283157D01*
X0355463Y0283089D01*
X0355440Y0283023D01*
X0355413Y0282958D01*
X0355383Y0282894D01*
X0355350Y0282832D01*
X0355313Y0282772D01*
X0355273Y0282714D01*
X0355230Y0282659D01*
X0355183Y0282605D01*
X0355134Y0282555D01*
X0355082Y0282507D01*
X0355028Y0282462D01*
X0354971Y0282421D01*
X0354912Y0282382D01*
X0354851Y0282347D01*
X0354788Y0282315D01*
X0354724Y0282287D01*
X0354658Y0282262D01*
X0354591Y0282241D01*
X0354522Y0282224D01*
X0354453Y0282210D01*
X0354384Y0282201D01*
X0354313Y0282195D01*
X0354243Y0282193D01*
X0352965Y0284749D02*
X0352876Y0284747D01*
X0352787Y0284741D01*
X0352698Y0284732D01*
X0352610Y0284718D01*
X0352523Y0284701D01*
X0352436Y0284679D01*
X0352350Y0284654D01*
X0352266Y0284626D01*
X0352183Y0284593D01*
X0352101Y0284557D01*
X0352021Y0284518D01*
X0351943Y0284475D01*
X0351867Y0284429D01*
X0351793Y0284379D01*
X0351721Y0284327D01*
X0351651Y0284271D01*
X0351584Y0284212D01*
X0351520Y0284150D01*
X0351458Y0284086D01*
X0351399Y0284019D01*
X0351343Y0283949D01*
X0351291Y0283877D01*
X0351241Y0283803D01*
X0351195Y0283727D01*
X0351152Y0283649D01*
X0351113Y0283569D01*
X0351077Y0283487D01*
X0351044Y0283404D01*
X0351016Y0283320D01*
X0350991Y0283234D01*
X0350969Y0283147D01*
X0350952Y0283060D01*
X0350938Y0282972D01*
X0350929Y0282883D01*
X0350923Y0282794D01*
X0350921Y0282705D01*
X0350920Y0286694D02*
X0350920Y0289249D01*
X0350920Y0287971D02*
X0355520Y0287971D01*
X0354498Y0286694D01*
X0352709Y0291238D02*
X0352709Y0294305D01*
X0353476Y0296294D02*
X0355520Y0296294D01*
X0355520Y0298849D01*
X0353476Y0297827D02*
X0353476Y0296294D01*
X0353476Y0297827D02*
X0353474Y0297889D01*
X0353469Y0297950D01*
X0353459Y0298011D01*
X0353446Y0298072D01*
X0353430Y0298131D01*
X0353410Y0298189D01*
X0353386Y0298246D01*
X0353359Y0298302D01*
X0353329Y0298356D01*
X0353295Y0298408D01*
X0353259Y0298457D01*
X0353219Y0298505D01*
X0353177Y0298550D01*
X0353132Y0298592D01*
X0353084Y0298632D01*
X0353035Y0298668D01*
X0352983Y0298702D01*
X0352929Y0298732D01*
X0352873Y0298759D01*
X0352816Y0298783D01*
X0352758Y0298803D01*
X0352699Y0298819D01*
X0352638Y0298832D01*
X0352577Y0298842D01*
X0352516Y0298847D01*
X0352454Y0298849D01*
X0351943Y0298849D01*
X0351881Y0298847D01*
X0351820Y0298842D01*
X0351759Y0298832D01*
X0351698Y0298819D01*
X0351639Y0298803D01*
X0351581Y0298783D01*
X0351524Y0298759D01*
X0351468Y0298732D01*
X0351414Y0298702D01*
X0351362Y0298668D01*
X0351313Y0298632D01*
X0351265Y0298592D01*
X0351220Y0298550D01*
X0351178Y0298505D01*
X0351138Y0298457D01*
X0351102Y0298408D01*
X0351068Y0298356D01*
X0351038Y0298302D01*
X0351011Y0298246D01*
X0350987Y0298189D01*
X0350967Y0298131D01*
X0350951Y0298072D01*
X0350938Y0298011D01*
X0350928Y0297950D01*
X0350923Y0297889D01*
X0350921Y0297827D01*
X0350920Y0297827D02*
X0350920Y0296294D01*
X0350920Y0300794D02*
X0350920Y0303349D01*
X0350920Y0305294D02*
X0350920Y0306571D01*
X0350922Y0306641D01*
X0350928Y0306712D01*
X0350937Y0306781D01*
X0350951Y0306850D01*
X0350968Y0306919D01*
X0350989Y0306986D01*
X0351014Y0307052D01*
X0351042Y0307116D01*
X0351074Y0307179D01*
X0351109Y0307240D01*
X0351148Y0307299D01*
X0351189Y0307356D01*
X0351234Y0307410D01*
X0351282Y0307462D01*
X0351332Y0307511D01*
X0351386Y0307558D01*
X0351441Y0307601D01*
X0351499Y0307641D01*
X0351559Y0307678D01*
X0351621Y0307711D01*
X0351685Y0307741D01*
X0351750Y0307768D01*
X0351816Y0307791D01*
X0351884Y0307810D01*
X0351953Y0307825D01*
X0352022Y0307837D01*
X0352092Y0307845D01*
X0352163Y0307849D01*
X0352233Y0307849D01*
X0352304Y0307845D01*
X0352374Y0307837D01*
X0352443Y0307825D01*
X0352512Y0307810D01*
X0352580Y0307791D01*
X0352646Y0307768D01*
X0352711Y0307741D01*
X0352775Y0307711D01*
X0352837Y0307678D01*
X0352897Y0307641D01*
X0352955Y0307601D01*
X0353010Y0307558D01*
X0353064Y0307511D01*
X0353114Y0307462D01*
X0353162Y0307410D01*
X0353207Y0307356D01*
X0353248Y0307299D01*
X0353287Y0307240D01*
X0353322Y0307179D01*
X0353354Y0307116D01*
X0353382Y0307052D01*
X0353407Y0306986D01*
X0353428Y0306919D01*
X0353445Y0306850D01*
X0353459Y0306781D01*
X0353468Y0306712D01*
X0353474Y0306641D01*
X0353476Y0306571D01*
X0353476Y0306827D02*
X0353476Y0305805D01*
X0353476Y0306827D02*
X0353478Y0306890D01*
X0353484Y0306953D01*
X0353493Y0307015D01*
X0353507Y0307076D01*
X0353524Y0307137D01*
X0353545Y0307196D01*
X0353570Y0307254D01*
X0353598Y0307311D01*
X0353629Y0307365D01*
X0353664Y0307417D01*
X0353702Y0307468D01*
X0353743Y0307516D01*
X0353787Y0307561D01*
X0353833Y0307603D01*
X0353882Y0307643D01*
X0353933Y0307679D01*
X0353987Y0307712D01*
X0354042Y0307742D01*
X0354100Y0307768D01*
X0354158Y0307791D01*
X0354218Y0307810D01*
X0354279Y0307825D01*
X0354341Y0307837D01*
X0354404Y0307845D01*
X0354467Y0307849D01*
X0354529Y0307849D01*
X0354592Y0307845D01*
X0354655Y0307837D01*
X0354717Y0307825D01*
X0354778Y0307810D01*
X0354838Y0307791D01*
X0354896Y0307768D01*
X0354954Y0307742D01*
X0355009Y0307712D01*
X0355063Y0307679D01*
X0355114Y0307643D01*
X0355163Y0307603D01*
X0355209Y0307561D01*
X0355253Y0307516D01*
X0355294Y0307468D01*
X0355332Y0307417D01*
X0355367Y0307365D01*
X0355398Y0307311D01*
X0355426Y0307254D01*
X0355451Y0307196D01*
X0355472Y0307137D01*
X0355489Y0307076D01*
X0355503Y0307015D01*
X0355512Y0306953D01*
X0355518Y0306890D01*
X0355520Y0306827D01*
X0355520Y0305294D01*
X0353476Y0302966D02*
X0350920Y0300794D01*
X0354498Y0300794D02*
X0354568Y0300819D01*
X0354637Y0300847D01*
X0354704Y0300878D01*
X0354770Y0300913D01*
X0354833Y0300951D01*
X0354895Y0300993D01*
X0354955Y0301037D01*
X0355012Y0301084D01*
X0355067Y0301134D01*
X0355119Y0301187D01*
X0355169Y0301243D01*
X0355215Y0301301D01*
X0355259Y0301361D01*
X0355300Y0301423D01*
X0355337Y0301487D01*
X0355371Y0301553D01*
X0355402Y0301621D01*
X0355429Y0301690D01*
X0355453Y0301760D01*
X0355474Y0301831D01*
X0355490Y0301904D01*
X0355503Y0301977D01*
X0355513Y0302051D01*
X0355518Y0302125D01*
X0355520Y0302199D01*
X0355518Y0302266D01*
X0355512Y0302333D01*
X0355503Y0302399D01*
X0355489Y0302464D01*
X0355472Y0302529D01*
X0355451Y0302592D01*
X0355426Y0302654D01*
X0355398Y0302715D01*
X0355366Y0302774D01*
X0355331Y0302831D01*
X0355292Y0302886D01*
X0355251Y0302938D01*
X0355206Y0302988D01*
X0355159Y0303035D01*
X0355109Y0303080D01*
X0355057Y0303121D01*
X0355002Y0303160D01*
X0354945Y0303195D01*
X0354886Y0303227D01*
X0354825Y0303255D01*
X0354763Y0303280D01*
X0354700Y0303301D01*
X0354635Y0303318D01*
X0354570Y0303332D01*
X0354504Y0303341D01*
X0354437Y0303347D01*
X0354370Y0303349D01*
X0354303Y0303347D01*
X0354237Y0303342D01*
X0354171Y0303333D01*
X0354105Y0303320D01*
X0354041Y0303304D01*
X0353977Y0303285D01*
X0353914Y0303262D01*
X0353853Y0303236D01*
X0353793Y0303206D01*
X0353735Y0303173D01*
X0353679Y0303138D01*
X0353625Y0303099D01*
X0353573Y0303057D01*
X0353523Y0303013D01*
X0353476Y0302966D01*
X0353476Y0309794D02*
X0352198Y0309794D01*
X0352198Y0309793D02*
X0352128Y0309795D01*
X0352057Y0309801D01*
X0351988Y0309810D01*
X0351919Y0309824D01*
X0351850Y0309841D01*
X0351783Y0309862D01*
X0351717Y0309887D01*
X0351653Y0309915D01*
X0351590Y0309947D01*
X0351529Y0309982D01*
X0351470Y0310021D01*
X0351413Y0310062D01*
X0351359Y0310107D01*
X0351307Y0310155D01*
X0351258Y0310205D01*
X0351211Y0310259D01*
X0351168Y0310314D01*
X0351128Y0310372D01*
X0351091Y0310432D01*
X0351058Y0310494D01*
X0351028Y0310558D01*
X0351001Y0310623D01*
X0350978Y0310689D01*
X0350959Y0310757D01*
X0350944Y0310826D01*
X0350932Y0310895D01*
X0350924Y0310965D01*
X0350920Y0311036D01*
X0350920Y0311106D01*
X0350924Y0311177D01*
X0350932Y0311247D01*
X0350944Y0311316D01*
X0350959Y0311385D01*
X0350978Y0311453D01*
X0351001Y0311519D01*
X0351028Y0311584D01*
X0351058Y0311648D01*
X0351091Y0311710D01*
X0351128Y0311770D01*
X0351168Y0311828D01*
X0351211Y0311883D01*
X0351258Y0311937D01*
X0351307Y0311987D01*
X0351359Y0312035D01*
X0351413Y0312080D01*
X0351470Y0312121D01*
X0351529Y0312160D01*
X0351590Y0312195D01*
X0351653Y0312227D01*
X0351717Y0312255D01*
X0351783Y0312280D01*
X0351850Y0312301D01*
X0351919Y0312318D01*
X0351988Y0312332D01*
X0352057Y0312341D01*
X0352128Y0312347D01*
X0352198Y0312349D01*
X0352454Y0312349D01*
X0352516Y0312347D01*
X0352577Y0312342D01*
X0352638Y0312332D01*
X0352699Y0312319D01*
X0352758Y0312303D01*
X0352816Y0312283D01*
X0352873Y0312259D01*
X0352929Y0312232D01*
X0352983Y0312202D01*
X0353035Y0312168D01*
X0353084Y0312132D01*
X0353132Y0312092D01*
X0353177Y0312050D01*
X0353219Y0312005D01*
X0353259Y0311957D01*
X0353295Y0311908D01*
X0353329Y0311856D01*
X0353359Y0311802D01*
X0353386Y0311746D01*
X0353410Y0311689D01*
X0353430Y0311631D01*
X0353446Y0311572D01*
X0353459Y0311511D01*
X0353469Y0311450D01*
X0353474Y0311389D01*
X0353476Y0311327D01*
X0353476Y0309794D01*
X0353565Y0309796D01*
X0353654Y0309802D01*
X0353743Y0309811D01*
X0353831Y0309825D01*
X0353918Y0309842D01*
X0354005Y0309864D01*
X0354091Y0309889D01*
X0354175Y0309917D01*
X0354258Y0309950D01*
X0354340Y0309986D01*
X0354420Y0310025D01*
X0354498Y0310068D01*
X0354574Y0310114D01*
X0354648Y0310164D01*
X0354720Y0310216D01*
X0354790Y0310272D01*
X0354857Y0310331D01*
X0354921Y0310393D01*
X0354983Y0310457D01*
X0355042Y0310524D01*
X0355098Y0310594D01*
X0355150Y0310666D01*
X0355200Y0310740D01*
X0355246Y0310816D01*
X0355289Y0310894D01*
X0355328Y0310974D01*
X0355364Y0311056D01*
X0355397Y0311139D01*
X0355425Y0311223D01*
X0355450Y0311309D01*
X0355472Y0311396D01*
X0355489Y0311483D01*
X0355503Y0311571D01*
X0355512Y0311660D01*
X0355518Y0311749D01*
X0355520Y0311838D01*
X0355520Y0201353D02*
X0350920Y0201353D01*
X0350920Y0173321D02*
X0350920Y0172043D01*
X0350922Y0171988D01*
X0350928Y0171934D01*
X0350938Y0171880D01*
X0350951Y0171827D01*
X0350968Y0171775D01*
X0350989Y0171724D01*
X0351014Y0171675D01*
X0351042Y0171628D01*
X0351073Y0171583D01*
X0351107Y0171541D01*
X0351145Y0171501D01*
X0351185Y0171463D01*
X0351227Y0171429D01*
X0351272Y0171398D01*
X0351319Y0171370D01*
X0351368Y0171345D01*
X0351419Y0171324D01*
X0351471Y0171307D01*
X0351524Y0171294D01*
X0351578Y0171284D01*
X0351632Y0171278D01*
X0351687Y0171276D01*
X0353220Y0171276D01*
X0353275Y0171278D01*
X0353329Y0171284D01*
X0353383Y0171294D01*
X0353436Y0171307D01*
X0353488Y0171324D01*
X0353539Y0171345D01*
X0353588Y0171370D01*
X0353635Y0171398D01*
X0353680Y0171429D01*
X0353722Y0171463D01*
X0353762Y0171501D01*
X0353800Y0171541D01*
X0353834Y0171583D01*
X0353865Y0171628D01*
X0353893Y0171675D01*
X0353918Y0171724D01*
X0353939Y0171775D01*
X0353956Y0171827D01*
X0353969Y0171880D01*
X0353979Y0171934D01*
X0353985Y0171988D01*
X0353987Y0172043D01*
X0353987Y0173321D01*
X0355520Y0173321D02*
X0350920Y0173321D01*
X0350920Y0169444D02*
X0350920Y0168166D01*
X0350922Y0168111D01*
X0350928Y0168057D01*
X0350938Y0168003D01*
X0350951Y0167950D01*
X0350968Y0167898D01*
X0350989Y0167847D01*
X0351014Y0167798D01*
X0351042Y0167751D01*
X0351073Y0167706D01*
X0351107Y0167664D01*
X0351145Y0167624D01*
X0351185Y0167586D01*
X0351227Y0167552D01*
X0351272Y0167521D01*
X0351319Y0167493D01*
X0351368Y0167468D01*
X0351419Y0167447D01*
X0351471Y0167430D01*
X0351524Y0167417D01*
X0351578Y0167407D01*
X0351632Y0167401D01*
X0351687Y0167399D01*
X0352965Y0167399D01*
X0352454Y0167399D02*
X0352454Y0169444D01*
X0352965Y0169444D01*
X0353028Y0169442D01*
X0353091Y0169436D01*
X0353153Y0169427D01*
X0353214Y0169413D01*
X0353275Y0169396D01*
X0353334Y0169375D01*
X0353392Y0169350D01*
X0353449Y0169322D01*
X0353503Y0169291D01*
X0353555Y0169256D01*
X0353606Y0169218D01*
X0353654Y0169177D01*
X0353699Y0169133D01*
X0353741Y0169087D01*
X0353781Y0169038D01*
X0353817Y0168987D01*
X0353850Y0168933D01*
X0353880Y0168878D01*
X0353906Y0168820D01*
X0353929Y0168762D01*
X0353948Y0168702D01*
X0353963Y0168641D01*
X0353975Y0168579D01*
X0353983Y0168516D01*
X0353987Y0168453D01*
X0353987Y0168391D01*
X0353983Y0168328D01*
X0353975Y0168265D01*
X0353963Y0168203D01*
X0353948Y0168142D01*
X0353929Y0168082D01*
X0353906Y0168024D01*
X0353880Y0167966D01*
X0353850Y0167911D01*
X0353817Y0167857D01*
X0353781Y0167806D01*
X0353741Y0167757D01*
X0353699Y0167711D01*
X0353654Y0167667D01*
X0353606Y0167626D01*
X0353555Y0167588D01*
X0353503Y0167553D01*
X0353449Y0167522D01*
X0353392Y0167494D01*
X0353334Y0167469D01*
X0353275Y0167448D01*
X0353214Y0167431D01*
X0353153Y0167417D01*
X0353091Y0167408D01*
X0353028Y0167402D01*
X0352965Y0167400D01*
X0353220Y0165394D02*
X0350920Y0165394D01*
X0350920Y0163349D02*
X0353987Y0163349D01*
X0353987Y0164627D01*
X0353985Y0164682D01*
X0353979Y0164736D01*
X0353969Y0164790D01*
X0353956Y0164843D01*
X0353939Y0164895D01*
X0353918Y0164946D01*
X0353893Y0164995D01*
X0353865Y0165042D01*
X0353834Y0165087D01*
X0353800Y0165129D01*
X0353762Y0165169D01*
X0353722Y0165207D01*
X0353680Y0165241D01*
X0353635Y0165272D01*
X0353588Y0165300D01*
X0353539Y0165325D01*
X0353488Y0165346D01*
X0353436Y0165363D01*
X0353383Y0165376D01*
X0353329Y0165386D01*
X0353275Y0165392D01*
X0353220Y0165394D01*
X0353987Y0161171D02*
X0350154Y0161171D01*
X0350920Y0161171D02*
X0350920Y0159893D01*
X0350922Y0159838D01*
X0350928Y0159784D01*
X0350938Y0159730D01*
X0350951Y0159677D01*
X0350968Y0159625D01*
X0350989Y0159574D01*
X0351014Y0159525D01*
X0351042Y0159478D01*
X0351073Y0159433D01*
X0351107Y0159391D01*
X0351145Y0159351D01*
X0351185Y0159313D01*
X0351227Y0159279D01*
X0351272Y0159248D01*
X0351319Y0159220D01*
X0351368Y0159195D01*
X0351419Y0159174D01*
X0351471Y0159157D01*
X0351524Y0159144D01*
X0351578Y0159134D01*
X0351632Y0159128D01*
X0351687Y0159126D01*
X0353220Y0159126D01*
X0353275Y0159128D01*
X0353329Y0159134D01*
X0353383Y0159144D01*
X0353436Y0159157D01*
X0353488Y0159174D01*
X0353539Y0159195D01*
X0353588Y0159220D01*
X0353635Y0159248D01*
X0353680Y0159279D01*
X0353722Y0159313D01*
X0353762Y0159351D01*
X0353800Y0159391D01*
X0353834Y0159433D01*
X0353865Y0159478D01*
X0353893Y0159525D01*
X0353918Y0159574D01*
X0353939Y0159625D01*
X0353956Y0159677D01*
X0353969Y0159730D01*
X0353979Y0159784D01*
X0353985Y0159838D01*
X0353987Y0159893D01*
X0353987Y0161171D01*
X0353987Y0157322D02*
X0350920Y0157322D01*
X0350920Y0154855D02*
X0350921Y0154906D01*
X0350926Y0154956D01*
X0350936Y0155007D01*
X0350948Y0155056D01*
X0350965Y0155104D01*
X0350986Y0155151D01*
X0351009Y0155197D01*
X0351037Y0155240D01*
X0351067Y0155281D01*
X0351101Y0155319D01*
X0351137Y0155355D01*
X0351177Y0155388D01*
X0351218Y0155418D01*
X0351262Y0155444D01*
X0351307Y0155467D01*
X0351355Y0155486D01*
X0351403Y0155502D01*
X0351453Y0155514D01*
X0351503Y0155522D01*
X0351554Y0155526D01*
X0351605Y0155527D01*
X0351656Y0155523D01*
X0351707Y0155515D01*
X0351757Y0155504D01*
X0351806Y0155489D01*
X0351853Y0155470D01*
X0351899Y0155447D01*
X0351943Y0155421D01*
X0351985Y0155392D01*
X0352024Y0155359D01*
X0352061Y0155324D01*
X0352095Y0155285D01*
X0352126Y0155245D01*
X0352153Y0155202D01*
X0352178Y0155157D01*
X0352199Y0155110D01*
X0352198Y0155111D02*
X0352709Y0153833D01*
X0352730Y0153786D01*
X0352755Y0153741D01*
X0352782Y0153698D01*
X0352813Y0153658D01*
X0352847Y0153619D01*
X0352884Y0153584D01*
X0352923Y0153551D01*
X0352965Y0153522D01*
X0353009Y0153496D01*
X0353055Y0153473D01*
X0353102Y0153454D01*
X0353151Y0153439D01*
X0353201Y0153428D01*
X0353252Y0153420D01*
X0353303Y0153416D01*
X0353354Y0153417D01*
X0353405Y0153421D01*
X0353455Y0153429D01*
X0353505Y0153441D01*
X0353553Y0153457D01*
X0353601Y0153476D01*
X0353646Y0153499D01*
X0353690Y0153525D01*
X0353731Y0153555D01*
X0353771Y0153588D01*
X0353807Y0153624D01*
X0353841Y0153662D01*
X0353871Y0153703D01*
X0353899Y0153746D01*
X0353922Y0153792D01*
X0353943Y0153839D01*
X0353960Y0153887D01*
X0353972Y0153936D01*
X0353982Y0153987D01*
X0353987Y0154037D01*
X0353988Y0154088D01*
X0351176Y0153450D02*
X0351134Y0153573D01*
X0351095Y0153698D01*
X0351060Y0153823D01*
X0351029Y0153950D01*
X0351002Y0154078D01*
X0350979Y0154206D01*
X0350959Y0154335D01*
X0350944Y0154465D01*
X0350932Y0154594D01*
X0350924Y0154725D01*
X0350920Y0154855D01*
X0353731Y0155238D02*
X0353770Y0155148D01*
X0353806Y0155055D01*
X0353839Y0154962D01*
X0353868Y0154868D01*
X0353895Y0154773D01*
X0353918Y0154677D01*
X0353938Y0154580D01*
X0353954Y0154482D01*
X0353967Y0154384D01*
X0353977Y0154286D01*
X0353984Y0154187D01*
X0353987Y0154088D01*
X0352965Y0151594D02*
X0352454Y0151594D01*
X0352454Y0149549D01*
X0352965Y0149549D02*
X0351687Y0149549D01*
X0351632Y0149551D01*
X0351578Y0149557D01*
X0351524Y0149567D01*
X0351471Y0149580D01*
X0351419Y0149597D01*
X0351368Y0149618D01*
X0351319Y0149643D01*
X0351272Y0149671D01*
X0351227Y0149702D01*
X0351185Y0149736D01*
X0351145Y0149774D01*
X0351107Y0149814D01*
X0351073Y0149856D01*
X0351042Y0149901D01*
X0351014Y0149948D01*
X0350989Y0149997D01*
X0350968Y0150048D01*
X0350951Y0150100D01*
X0350938Y0150153D01*
X0350928Y0150207D01*
X0350922Y0150261D01*
X0350920Y0150316D01*
X0350920Y0151594D01*
X0352965Y0151594D02*
X0353028Y0151592D01*
X0353091Y0151586D01*
X0353153Y0151577D01*
X0353214Y0151563D01*
X0353275Y0151546D01*
X0353334Y0151525D01*
X0353392Y0151500D01*
X0353449Y0151472D01*
X0353503Y0151441D01*
X0353555Y0151406D01*
X0353606Y0151368D01*
X0353654Y0151327D01*
X0353699Y0151283D01*
X0353741Y0151237D01*
X0353781Y0151188D01*
X0353817Y0151137D01*
X0353850Y0151083D01*
X0353880Y0151028D01*
X0353906Y0150970D01*
X0353929Y0150912D01*
X0353948Y0150852D01*
X0353963Y0150791D01*
X0353975Y0150729D01*
X0353983Y0150666D01*
X0353987Y0150603D01*
X0353987Y0150541D01*
X0353983Y0150478D01*
X0353975Y0150415D01*
X0353963Y0150353D01*
X0353948Y0150292D01*
X0353929Y0150232D01*
X0353906Y0150174D01*
X0353880Y0150116D01*
X0353850Y0150061D01*
X0353817Y0150007D01*
X0353781Y0149956D01*
X0353741Y0149907D01*
X0353699Y0149861D01*
X0353654Y0149817D01*
X0353606Y0149776D01*
X0353555Y0149738D01*
X0353503Y0149703D01*
X0353449Y0149672D01*
X0353392Y0149644D01*
X0353334Y0149619D01*
X0353275Y0149598D01*
X0353214Y0149581D01*
X0353153Y0149567D01*
X0353091Y0149558D01*
X0353028Y0149552D01*
X0352965Y0149550D01*
X0352198Y0147499D02*
X0354243Y0147499D01*
X0354243Y0147500D02*
X0354312Y0147498D01*
X0354381Y0147493D01*
X0354450Y0147483D01*
X0354518Y0147470D01*
X0354585Y0147453D01*
X0354651Y0147433D01*
X0354716Y0147409D01*
X0354780Y0147382D01*
X0354842Y0147351D01*
X0354902Y0147317D01*
X0354960Y0147280D01*
X0355016Y0147239D01*
X0355070Y0147196D01*
X0355122Y0147150D01*
X0355171Y0147101D01*
X0355217Y0147049D01*
X0355260Y0146995D01*
X0355301Y0146939D01*
X0355338Y0146881D01*
X0355372Y0146821D01*
X0355403Y0146759D01*
X0355430Y0146695D01*
X0355454Y0146630D01*
X0355474Y0146564D01*
X0355491Y0146497D01*
X0355504Y0146429D01*
X0355514Y0146360D01*
X0355519Y0146291D01*
X0355521Y0146222D01*
X0355520Y0146222D02*
X0355520Y0144944D01*
X0350920Y0144944D01*
X0350920Y0146222D01*
X0350922Y0146291D01*
X0350927Y0146360D01*
X0350937Y0146429D01*
X0350950Y0146497D01*
X0350967Y0146564D01*
X0350987Y0146630D01*
X0351011Y0146695D01*
X0351038Y0146759D01*
X0351069Y0146821D01*
X0351103Y0146881D01*
X0351140Y0146939D01*
X0351181Y0146995D01*
X0351224Y0147049D01*
X0351270Y0147101D01*
X0351319Y0147150D01*
X0351371Y0147196D01*
X0351425Y0147239D01*
X0351481Y0147280D01*
X0351539Y0147317D01*
X0351599Y0147351D01*
X0351661Y0147382D01*
X0351725Y0147409D01*
X0351790Y0147433D01*
X0351856Y0147453D01*
X0351923Y0147470D01*
X0351991Y0147483D01*
X0352060Y0147493D01*
X0352129Y0147498D01*
X0352198Y0147500D01*
X0355265Y0157194D02*
X0355265Y0157449D01*
X0355520Y0157449D01*
X0355520Y0157194D01*
X0355265Y0157194D01*
X0350154Y0161171D02*
X0350099Y0161169D01*
X0350045Y0161163D01*
X0349991Y0161153D01*
X0349938Y0161140D01*
X0349886Y0161123D01*
X0349835Y0161102D01*
X0349786Y0161077D01*
X0349739Y0161049D01*
X0349694Y0161018D01*
X0349652Y0160984D01*
X0349612Y0160946D01*
X0349574Y0160906D01*
X0349540Y0160864D01*
X0349509Y0160819D01*
X0349481Y0160772D01*
X0349456Y0160723D01*
X0349435Y0160672D01*
X0349418Y0160620D01*
X0349405Y0160567D01*
X0349395Y0160513D01*
X0349389Y0160459D01*
X0349387Y0160404D01*
X0349387Y0159382D01*
D12*
X0307157Y0070699D02*
X0307157Y0064400D01*
X0307158Y0064399D02*
X0307144Y0064340D01*
X0307127Y0064282D01*
X0307106Y0064225D01*
X0307082Y0064169D01*
X0307054Y0064115D01*
X0307024Y0064063D01*
X0306990Y0064012D01*
X0306953Y0063964D01*
X0306914Y0063918D01*
X0306871Y0063875D01*
X0306827Y0063834D01*
X0306779Y0063796D01*
X0306730Y0063761D01*
X0306678Y0063729D01*
X0306625Y0063700D01*
X0306570Y0063674D01*
X0306514Y0063652D01*
X0306456Y0063633D01*
X0306397Y0063617D01*
X0306338Y0063606D01*
X0306278Y0063597D01*
X0306217Y0063593D01*
X0306157Y0063592D01*
X0306096Y0063595D01*
X0306036Y0063601D01*
X0305976Y0063611D01*
X0300465Y0063611D02*
X0300403Y0063601D01*
X0300340Y0063595D01*
X0300277Y0063592D01*
X0300214Y0063593D01*
X0300151Y0063599D01*
X0300089Y0063608D01*
X0300027Y0063621D01*
X0299966Y0063638D01*
X0299907Y0063659D01*
X0299849Y0063684D01*
X0299792Y0063712D01*
X0299738Y0063744D01*
X0299685Y0063779D01*
X0299635Y0063817D01*
X0299587Y0063858D01*
X0299542Y0063902D01*
X0299500Y0063949D01*
X0299461Y0063999D01*
X0299425Y0064051D01*
X0299393Y0064105D01*
X0299363Y0064160D01*
X0299338Y0064218D01*
X0299316Y0064277D01*
X0299298Y0064338D01*
X0299283Y0064399D01*
X0299283Y0064400D02*
X0299283Y0070699D01*
X0299298Y0070760D01*
X0299316Y0070821D01*
X0299338Y0070880D01*
X0299363Y0070938D01*
X0299393Y0070993D01*
X0299425Y0071047D01*
X0299461Y0071099D01*
X0299500Y0071149D01*
X0299542Y0071196D01*
X0299587Y0071240D01*
X0299635Y0071281D01*
X0299685Y0071319D01*
X0299738Y0071354D01*
X0299792Y0071386D01*
X0299849Y0071414D01*
X0299907Y0071439D01*
X0299966Y0071460D01*
X0300027Y0071477D01*
X0300089Y0071490D01*
X0300151Y0071499D01*
X0300214Y0071505D01*
X0300277Y0071506D01*
X0300340Y0071503D01*
X0300403Y0071497D01*
X0300465Y0071487D01*
X0305976Y0071487D02*
X0306036Y0071497D01*
X0306096Y0071503D01*
X0306157Y0071506D01*
X0306217Y0071505D01*
X0306278Y0071501D01*
X0306338Y0071492D01*
X0306397Y0071481D01*
X0306456Y0071465D01*
X0306514Y0071446D01*
X0306570Y0071424D01*
X0306625Y0071398D01*
X0306678Y0071369D01*
X0306730Y0071337D01*
X0306779Y0071302D01*
X0306827Y0071264D01*
X0306871Y0071223D01*
X0306914Y0071180D01*
X0306953Y0071134D01*
X0306990Y0071086D01*
X0307024Y0071035D01*
X0307054Y0070983D01*
X0307082Y0070929D01*
X0307106Y0070873D01*
X0307127Y0070816D01*
X0307144Y0070758D01*
X0307158Y0070699D01*
X0067157Y0224400D02*
X0067157Y0230699D01*
X0067158Y0230699D02*
X0067144Y0230758D01*
X0067127Y0230816D01*
X0067106Y0230873D01*
X0067082Y0230929D01*
X0067054Y0230983D01*
X0067024Y0231035D01*
X0066990Y0231086D01*
X0066953Y0231134D01*
X0066914Y0231180D01*
X0066871Y0231223D01*
X0066827Y0231264D01*
X0066779Y0231302D01*
X0066730Y0231337D01*
X0066678Y0231369D01*
X0066625Y0231398D01*
X0066570Y0231424D01*
X0066514Y0231446D01*
X0066456Y0231465D01*
X0066397Y0231481D01*
X0066338Y0231492D01*
X0066278Y0231501D01*
X0066217Y0231505D01*
X0066157Y0231506D01*
X0066096Y0231503D01*
X0066036Y0231497D01*
X0065976Y0231487D01*
X0060465Y0231487D02*
X0060403Y0231497D01*
X0060340Y0231503D01*
X0060277Y0231506D01*
X0060214Y0231505D01*
X0060151Y0231499D01*
X0060089Y0231490D01*
X0060027Y0231477D01*
X0059966Y0231460D01*
X0059907Y0231439D01*
X0059849Y0231414D01*
X0059792Y0231386D01*
X0059738Y0231354D01*
X0059685Y0231319D01*
X0059635Y0231281D01*
X0059587Y0231240D01*
X0059542Y0231196D01*
X0059500Y0231149D01*
X0059461Y0231099D01*
X0059425Y0231047D01*
X0059393Y0230993D01*
X0059363Y0230938D01*
X0059338Y0230880D01*
X0059316Y0230821D01*
X0059298Y0230760D01*
X0059283Y0230699D01*
X0059283Y0224400D01*
X0059283Y0224399D02*
X0059298Y0224338D01*
X0059316Y0224277D01*
X0059338Y0224218D01*
X0059363Y0224160D01*
X0059393Y0224105D01*
X0059425Y0224051D01*
X0059461Y0223999D01*
X0059500Y0223949D01*
X0059542Y0223902D01*
X0059587Y0223858D01*
X0059635Y0223817D01*
X0059685Y0223779D01*
X0059738Y0223744D01*
X0059792Y0223712D01*
X0059849Y0223684D01*
X0059907Y0223659D01*
X0059966Y0223638D01*
X0060027Y0223621D01*
X0060089Y0223608D01*
X0060151Y0223599D01*
X0060214Y0223593D01*
X0060277Y0223592D01*
X0060340Y0223595D01*
X0060403Y0223601D01*
X0060465Y0223611D01*
X0065976Y0223611D02*
X0066036Y0223601D01*
X0066096Y0223595D01*
X0066157Y0223592D01*
X0066217Y0223593D01*
X0066278Y0223597D01*
X0066338Y0223606D01*
X0066397Y0223617D01*
X0066456Y0223633D01*
X0066514Y0223652D01*
X0066570Y0223674D01*
X0066625Y0223700D01*
X0066678Y0223729D01*
X0066730Y0223761D01*
X0066779Y0223796D01*
X0066827Y0223834D01*
X0066871Y0223875D01*
X0066914Y0223918D01*
X0066953Y0223964D01*
X0066990Y0224012D01*
X0067024Y0224063D01*
X0067054Y0224115D01*
X0067082Y0224169D01*
X0067106Y0224225D01*
X0067127Y0224282D01*
X0067144Y0224340D01*
X0067158Y0224399D01*
X0047157Y0224400D02*
X0047157Y0230699D01*
X0047158Y0230699D02*
X0047144Y0230758D01*
X0047127Y0230816D01*
X0047106Y0230873D01*
X0047082Y0230929D01*
X0047054Y0230983D01*
X0047024Y0231035D01*
X0046990Y0231086D01*
X0046953Y0231134D01*
X0046914Y0231180D01*
X0046871Y0231223D01*
X0046827Y0231264D01*
X0046779Y0231302D01*
X0046730Y0231337D01*
X0046678Y0231369D01*
X0046625Y0231398D01*
X0046570Y0231424D01*
X0046514Y0231446D01*
X0046456Y0231465D01*
X0046397Y0231481D01*
X0046338Y0231492D01*
X0046278Y0231501D01*
X0046217Y0231505D01*
X0046157Y0231506D01*
X0046096Y0231503D01*
X0046036Y0231497D01*
X0045976Y0231487D01*
X0040465Y0231487D02*
X0040403Y0231497D01*
X0040340Y0231503D01*
X0040277Y0231506D01*
X0040214Y0231505D01*
X0040151Y0231499D01*
X0040089Y0231490D01*
X0040027Y0231477D01*
X0039966Y0231460D01*
X0039907Y0231439D01*
X0039849Y0231414D01*
X0039792Y0231386D01*
X0039738Y0231354D01*
X0039685Y0231319D01*
X0039635Y0231281D01*
X0039587Y0231240D01*
X0039542Y0231196D01*
X0039500Y0231149D01*
X0039461Y0231099D01*
X0039425Y0231047D01*
X0039393Y0230993D01*
X0039363Y0230938D01*
X0039338Y0230880D01*
X0039316Y0230821D01*
X0039298Y0230760D01*
X0039283Y0230699D01*
X0039283Y0224400D01*
X0039283Y0224399D02*
X0039298Y0224338D01*
X0039316Y0224277D01*
X0039338Y0224218D01*
X0039363Y0224160D01*
X0039393Y0224105D01*
X0039425Y0224051D01*
X0039461Y0223999D01*
X0039500Y0223949D01*
X0039542Y0223902D01*
X0039587Y0223858D01*
X0039635Y0223817D01*
X0039685Y0223779D01*
X0039738Y0223744D01*
X0039792Y0223712D01*
X0039849Y0223684D01*
X0039907Y0223659D01*
X0039966Y0223638D01*
X0040027Y0223621D01*
X0040089Y0223608D01*
X0040151Y0223599D01*
X0040214Y0223593D01*
X0040277Y0223592D01*
X0040340Y0223595D01*
X0040403Y0223601D01*
X0040465Y0223611D01*
X0045976Y0223611D02*
X0046036Y0223601D01*
X0046096Y0223595D01*
X0046157Y0223592D01*
X0046217Y0223593D01*
X0046278Y0223597D01*
X0046338Y0223606D01*
X0046397Y0223617D01*
X0046456Y0223633D01*
X0046514Y0223652D01*
X0046570Y0223674D01*
X0046625Y0223700D01*
X0046678Y0223729D01*
X0046730Y0223761D01*
X0046779Y0223796D01*
X0046827Y0223834D01*
X0046871Y0223875D01*
X0046914Y0223918D01*
X0046953Y0223964D01*
X0046990Y0224012D01*
X0047024Y0224063D01*
X0047054Y0224115D01*
X0047082Y0224169D01*
X0047106Y0224225D01*
X0047127Y0224282D01*
X0047144Y0224340D01*
X0047158Y0224399D01*
D13*
X0247566Y0068871D02*
X0247566Y0067227D01*
X0247568Y0067165D01*
X0247573Y0067103D01*
X0247583Y0067042D01*
X0247596Y0066981D01*
X0247613Y0066921D01*
X0247633Y0066862D01*
X0247657Y0066805D01*
X0247684Y0066749D01*
X0247714Y0066695D01*
X0247748Y0066643D01*
X0247785Y0066593D01*
X0247825Y0066545D01*
X0247867Y0066500D01*
X0247912Y0066458D01*
X0247960Y0066418D01*
X0248010Y0066381D01*
X0248062Y0066347D01*
X0248116Y0066317D01*
X0248172Y0066290D01*
X0248229Y0066266D01*
X0248288Y0066246D01*
X0248348Y0066229D01*
X0248409Y0066216D01*
X0248470Y0066206D01*
X0248532Y0066201D01*
X0248594Y0066199D01*
X0249622Y0066199D01*
X0249622Y0069899D01*
X0248594Y0069899D01*
X0248532Y0069897D01*
X0248470Y0069892D01*
X0248409Y0069882D01*
X0248348Y0069869D01*
X0248288Y0069852D01*
X0248229Y0069832D01*
X0248172Y0069808D01*
X0248116Y0069781D01*
X0248062Y0069751D01*
X0248010Y0069717D01*
X0247960Y0069680D01*
X0247912Y0069640D01*
X0247867Y0069598D01*
X0247825Y0069553D01*
X0247785Y0069505D01*
X0247748Y0069455D01*
X0247714Y0069403D01*
X0247684Y0069349D01*
X0247657Y0069293D01*
X0247633Y0069236D01*
X0247613Y0069177D01*
X0247596Y0069117D01*
X0247583Y0069056D01*
X0247573Y0068995D01*
X0247568Y0068933D01*
X0247566Y0068871D01*
X0251406Y0069899D02*
X0251406Y0066199D01*
X0253462Y0069899D01*
X0253462Y0066199D01*
X0255246Y0066199D02*
X0256480Y0066199D01*
X0256536Y0066201D01*
X0256592Y0066207D01*
X0256647Y0066216D01*
X0256702Y0066229D01*
X0256755Y0066246D01*
X0256807Y0066267D01*
X0256858Y0066291D01*
X0256907Y0066319D01*
X0256954Y0066349D01*
X0256999Y0066383D01*
X0257041Y0066420D01*
X0257081Y0066460D01*
X0257118Y0066502D01*
X0257152Y0066547D01*
X0257182Y0066594D01*
X0257210Y0066643D01*
X0257234Y0066694D01*
X0257255Y0066746D01*
X0257272Y0066799D01*
X0257285Y0066854D01*
X0257294Y0066909D01*
X0257300Y0066965D01*
X0257302Y0067021D01*
X0257302Y0069077D01*
X0257300Y0069133D01*
X0257294Y0069189D01*
X0257285Y0069244D01*
X0257272Y0069299D01*
X0257255Y0069352D01*
X0257234Y0069404D01*
X0257210Y0069455D01*
X0257182Y0069504D01*
X0257152Y0069551D01*
X0257118Y0069596D01*
X0257081Y0069638D01*
X0257041Y0069678D01*
X0256999Y0069715D01*
X0256954Y0069749D01*
X0256907Y0069779D01*
X0256858Y0069807D01*
X0256807Y0069831D01*
X0256755Y0069852D01*
X0256702Y0069869D01*
X0256647Y0069882D01*
X0256592Y0069891D01*
X0256536Y0069897D01*
X0256480Y0069899D01*
X0255246Y0069899D01*
X0255246Y0068255D02*
X0255246Y0066199D01*
X0255246Y0068255D02*
X0255863Y0068255D01*
X0260852Y0067844D02*
X0260852Y0067021D01*
X0260854Y0066965D01*
X0260860Y0066909D01*
X0260869Y0066854D01*
X0260882Y0066799D01*
X0260899Y0066746D01*
X0260920Y0066694D01*
X0260944Y0066643D01*
X0260972Y0066594D01*
X0261002Y0066547D01*
X0261036Y0066502D01*
X0261073Y0066460D01*
X0261113Y0066420D01*
X0261155Y0066383D01*
X0261200Y0066349D01*
X0261247Y0066319D01*
X0261296Y0066291D01*
X0261347Y0066267D01*
X0261399Y0066246D01*
X0261452Y0066229D01*
X0261507Y0066216D01*
X0261562Y0066207D01*
X0261618Y0066201D01*
X0261674Y0066199D01*
X0261730Y0066201D01*
X0261786Y0066207D01*
X0261841Y0066216D01*
X0261896Y0066229D01*
X0261949Y0066246D01*
X0262001Y0066267D01*
X0262052Y0066291D01*
X0262101Y0066319D01*
X0262148Y0066349D01*
X0262193Y0066383D01*
X0262235Y0066420D01*
X0262275Y0066460D01*
X0262312Y0066502D01*
X0262346Y0066547D01*
X0262376Y0066594D01*
X0262404Y0066643D01*
X0262428Y0066694D01*
X0262449Y0066746D01*
X0262466Y0066799D01*
X0262479Y0066854D01*
X0262488Y0066909D01*
X0262494Y0066965D01*
X0262496Y0067021D01*
X0262496Y0067844D01*
X0262494Y0067900D01*
X0262488Y0067956D01*
X0262479Y0068011D01*
X0262466Y0068066D01*
X0262449Y0068119D01*
X0262428Y0068171D01*
X0262404Y0068222D01*
X0262376Y0068271D01*
X0262346Y0068318D01*
X0262312Y0068363D01*
X0262275Y0068405D01*
X0262235Y0068445D01*
X0262193Y0068482D01*
X0262148Y0068516D01*
X0262101Y0068546D01*
X0262052Y0068574D01*
X0262001Y0068598D01*
X0261949Y0068619D01*
X0261896Y0068636D01*
X0261841Y0068649D01*
X0261786Y0068658D01*
X0261730Y0068664D01*
X0261674Y0068666D01*
X0261618Y0068664D01*
X0261562Y0068658D01*
X0261507Y0068649D01*
X0261452Y0068636D01*
X0261399Y0068619D01*
X0261347Y0068598D01*
X0261296Y0068574D01*
X0261247Y0068546D01*
X0261200Y0068516D01*
X0261155Y0068482D01*
X0261113Y0068445D01*
X0261073Y0068405D01*
X0261036Y0068363D01*
X0261002Y0068318D01*
X0260972Y0068271D01*
X0260944Y0068222D01*
X0260920Y0068171D01*
X0260899Y0068119D01*
X0260882Y0068066D01*
X0260869Y0068011D01*
X0260860Y0067956D01*
X0260854Y0067900D01*
X0260852Y0067844D01*
X0263846Y0068666D02*
X0265079Y0068666D01*
X0264668Y0069899D02*
X0264668Y0066816D01*
X0264666Y0066768D01*
X0264660Y0066719D01*
X0264651Y0066672D01*
X0264638Y0066625D01*
X0264621Y0066580D01*
X0264601Y0066536D01*
X0264577Y0066494D01*
X0264550Y0066453D01*
X0264520Y0066415D01*
X0264487Y0066380D01*
X0264452Y0066347D01*
X0264414Y0066317D01*
X0264373Y0066290D01*
X0264331Y0066266D01*
X0264287Y0066246D01*
X0264242Y0066229D01*
X0264195Y0066216D01*
X0264148Y0066207D01*
X0264099Y0066201D01*
X0264051Y0066199D01*
X0263846Y0066199D01*
X0268361Y0066199D02*
X0268361Y0069899D01*
X0269594Y0067844D01*
X0270827Y0069899D01*
X0270827Y0066199D01*
X0272526Y0067227D02*
X0272526Y0068871D01*
X0272528Y0068934D01*
X0272534Y0068997D01*
X0272544Y0069060D01*
X0272557Y0069122D01*
X0272574Y0069183D01*
X0272595Y0069242D01*
X0272620Y0069301D01*
X0272648Y0069357D01*
X0272680Y0069412D01*
X0272715Y0069465D01*
X0272753Y0069515D01*
X0272794Y0069564D01*
X0272838Y0069609D01*
X0272885Y0069652D01*
X0272934Y0069691D01*
X0272986Y0069728D01*
X0273040Y0069761D01*
X0273096Y0069791D01*
X0273153Y0069818D01*
X0273212Y0069841D01*
X0273273Y0069860D01*
X0273334Y0069875D01*
X0273396Y0069887D01*
X0273459Y0069895D01*
X0273522Y0069899D01*
X0273586Y0069899D01*
X0273649Y0069895D01*
X0273712Y0069887D01*
X0273774Y0069875D01*
X0273835Y0069860D01*
X0273896Y0069841D01*
X0273955Y0069818D01*
X0274012Y0069791D01*
X0274068Y0069761D01*
X0274122Y0069728D01*
X0274174Y0069691D01*
X0274223Y0069652D01*
X0274270Y0069609D01*
X0274314Y0069564D01*
X0274355Y0069515D01*
X0274393Y0069465D01*
X0274428Y0069412D01*
X0274460Y0069357D01*
X0274488Y0069301D01*
X0274513Y0069242D01*
X0274534Y0069183D01*
X0274551Y0069122D01*
X0274564Y0069060D01*
X0274574Y0068997D01*
X0274580Y0068934D01*
X0274582Y0068871D01*
X0274582Y0067227D01*
X0274580Y0067164D01*
X0274574Y0067101D01*
X0274564Y0067038D01*
X0274551Y0066976D01*
X0274534Y0066915D01*
X0274513Y0066856D01*
X0274488Y0066797D01*
X0274460Y0066741D01*
X0274428Y0066686D01*
X0274393Y0066633D01*
X0274355Y0066583D01*
X0274314Y0066534D01*
X0274270Y0066489D01*
X0274223Y0066446D01*
X0274174Y0066407D01*
X0274122Y0066370D01*
X0274068Y0066337D01*
X0274012Y0066307D01*
X0273955Y0066280D01*
X0273896Y0066257D01*
X0273835Y0066238D01*
X0273774Y0066223D01*
X0273712Y0066211D01*
X0273649Y0066203D01*
X0273586Y0066199D01*
X0273522Y0066199D01*
X0273459Y0066203D01*
X0273396Y0066211D01*
X0273334Y0066223D01*
X0273273Y0066238D01*
X0273212Y0066257D01*
X0273153Y0066280D01*
X0273096Y0066307D01*
X0273040Y0066337D01*
X0272986Y0066370D01*
X0272934Y0066407D01*
X0272885Y0066446D01*
X0272838Y0066489D01*
X0272794Y0066534D01*
X0272753Y0066583D01*
X0272715Y0066633D01*
X0272680Y0066686D01*
X0272648Y0066741D01*
X0272620Y0066797D01*
X0272595Y0066856D01*
X0272574Y0066915D01*
X0272557Y0066976D01*
X0272544Y0067038D01*
X0272534Y0067101D01*
X0272528Y0067164D01*
X0272526Y0067227D01*
X0275947Y0066199D02*
X0276770Y0066199D01*
X0276826Y0066201D01*
X0276882Y0066207D01*
X0276937Y0066216D01*
X0276992Y0066229D01*
X0277045Y0066246D01*
X0277097Y0066267D01*
X0277148Y0066291D01*
X0277197Y0066319D01*
X0277244Y0066349D01*
X0277289Y0066383D01*
X0277331Y0066420D01*
X0277371Y0066460D01*
X0277408Y0066502D01*
X0277442Y0066547D01*
X0277472Y0066594D01*
X0277500Y0066643D01*
X0277524Y0066694D01*
X0277545Y0066746D01*
X0277562Y0066799D01*
X0277575Y0066854D01*
X0277584Y0066909D01*
X0277590Y0066965D01*
X0277592Y0067021D01*
X0277592Y0069077D01*
X0277590Y0069133D01*
X0277584Y0069189D01*
X0277575Y0069244D01*
X0277562Y0069299D01*
X0277545Y0069352D01*
X0277524Y0069404D01*
X0277500Y0069455D01*
X0277472Y0069504D01*
X0277442Y0069551D01*
X0277408Y0069596D01*
X0277371Y0069638D01*
X0277331Y0069678D01*
X0277289Y0069715D01*
X0277244Y0069749D01*
X0277197Y0069779D01*
X0277148Y0069807D01*
X0277097Y0069831D01*
X0277045Y0069852D01*
X0276992Y0069869D01*
X0276937Y0069882D01*
X0276882Y0069891D01*
X0276826Y0069897D01*
X0276770Y0069899D01*
X0275947Y0069899D01*
X0281902Y0069899D02*
X0282930Y0069899D01*
X0282930Y0066199D01*
X0282930Y0067844D02*
X0281902Y0067844D01*
X0281902Y0067843D02*
X0281839Y0067845D01*
X0281776Y0067851D01*
X0281713Y0067861D01*
X0281651Y0067874D01*
X0281590Y0067891D01*
X0281531Y0067912D01*
X0281472Y0067937D01*
X0281416Y0067965D01*
X0281361Y0067997D01*
X0281308Y0068032D01*
X0281258Y0068070D01*
X0281209Y0068111D01*
X0281164Y0068155D01*
X0281121Y0068202D01*
X0281082Y0068251D01*
X0281045Y0068303D01*
X0281012Y0068357D01*
X0280982Y0068413D01*
X0280955Y0068470D01*
X0280932Y0068529D01*
X0280913Y0068590D01*
X0280898Y0068651D01*
X0280886Y0068713D01*
X0280878Y0068776D01*
X0280874Y0068839D01*
X0280874Y0068903D01*
X0280878Y0068966D01*
X0280886Y0069029D01*
X0280898Y0069091D01*
X0280913Y0069152D01*
X0280932Y0069213D01*
X0280955Y0069272D01*
X0280982Y0069329D01*
X0281012Y0069385D01*
X0281045Y0069439D01*
X0281082Y0069491D01*
X0281121Y0069540D01*
X0281164Y0069587D01*
X0281209Y0069631D01*
X0281258Y0069672D01*
X0281308Y0069710D01*
X0281361Y0069745D01*
X0281416Y0069777D01*
X0281472Y0069805D01*
X0281531Y0069830D01*
X0281590Y0069851D01*
X0281651Y0069868D01*
X0281713Y0069881D01*
X0281776Y0069891D01*
X0281839Y0069897D01*
X0281902Y0069899D01*
X0284801Y0069899D02*
X0284801Y0066199D01*
X0286034Y0067844D02*
X0284801Y0069899D01*
X0286034Y0067844D02*
X0287267Y0069899D01*
X0287267Y0066199D01*
X0289086Y0067227D02*
X0289086Y0069899D01*
X0291142Y0069899D02*
X0291142Y0067227D01*
X0291140Y0067164D01*
X0291134Y0067101D01*
X0291124Y0067038D01*
X0291111Y0066976D01*
X0291094Y0066915D01*
X0291073Y0066856D01*
X0291048Y0066797D01*
X0291020Y0066741D01*
X0290988Y0066686D01*
X0290953Y0066633D01*
X0290915Y0066583D01*
X0290874Y0066534D01*
X0290830Y0066489D01*
X0290783Y0066446D01*
X0290734Y0066407D01*
X0290682Y0066370D01*
X0290628Y0066337D01*
X0290572Y0066307D01*
X0290515Y0066280D01*
X0290456Y0066257D01*
X0290395Y0066238D01*
X0290334Y0066223D01*
X0290272Y0066211D01*
X0290209Y0066203D01*
X0290146Y0066199D01*
X0290082Y0066199D01*
X0290019Y0066203D01*
X0289956Y0066211D01*
X0289894Y0066223D01*
X0289833Y0066238D01*
X0289772Y0066257D01*
X0289713Y0066280D01*
X0289656Y0066307D01*
X0289600Y0066337D01*
X0289546Y0066370D01*
X0289494Y0066407D01*
X0289445Y0066446D01*
X0289398Y0066489D01*
X0289354Y0066534D01*
X0289313Y0066583D01*
X0289275Y0066633D01*
X0289240Y0066686D01*
X0289208Y0066741D01*
X0289180Y0066797D01*
X0289155Y0066856D01*
X0289134Y0066915D01*
X0289117Y0066976D01*
X0289104Y0067038D01*
X0289094Y0067101D01*
X0289088Y0067164D01*
X0289086Y0067227D01*
X0292912Y0067021D02*
X0292912Y0069899D01*
X0292912Y0067021D02*
X0292914Y0066965D01*
X0292920Y0066909D01*
X0292929Y0066854D01*
X0292942Y0066799D01*
X0292959Y0066746D01*
X0292980Y0066694D01*
X0293004Y0066643D01*
X0293032Y0066594D01*
X0293062Y0066547D01*
X0293096Y0066502D01*
X0293133Y0066460D01*
X0293173Y0066420D01*
X0293215Y0066383D01*
X0293260Y0066349D01*
X0293307Y0066319D01*
X0293356Y0066291D01*
X0293407Y0066267D01*
X0293459Y0066246D01*
X0293512Y0066229D01*
X0293567Y0066216D01*
X0293622Y0066207D01*
X0293678Y0066201D01*
X0293734Y0066199D01*
X0294145Y0066199D01*
M02*
