%
M48
M72
T01C0.01378
T02C0.02362
T03C0.03937
T04C0.04000
T05C0.04528
T06C0.04724
T07C0.05200
T08C0.05512
T09C0.05906
T10C0.06496
T11C0.12598
%
T01
X73220Y370049
X73220Y365049
X73220Y360049
X78220Y360049
X78220Y365049
X78220Y370049
X83220Y370049
X83220Y365049
X83220Y360049
X123220Y362549
X128220Y362549
X128220Y367549
X123220Y367549
X133220Y367549
X138220Y367549
X143220Y367549
X143220Y362549
X138220Y362549
X133220Y362549
X148220Y269549
X186220Y267049
X191220Y266549
X198220Y268549
X229720Y233549
X229720Y229049
X234220Y229049
X234220Y233549
X243720Y217049
X247720Y217049
X251220Y217049
X240720Y210049
X235720Y210049
X230720Y210049
X225720Y210049
X220720Y210049
X215720Y210049
X215720Y205049
X220720Y205049
X225720Y205049
X230720Y205049
X235720Y205049
X240720Y205049
X260720Y187549
X265720Y187549
X265720Y202549
X270720Y202549
X275720Y202549
X264220Y210549
X293220Y212549
X293220Y207549
X300720Y213549
X307720Y210549
X311720Y207049
X319720Y219049
X300720Y231549
X293220Y237049
X283220Y245049
X278220Y245049
X273220Y245049
X273220Y250049
X273220Y255049
X278220Y255049
X278220Y250049
X283220Y250049
X283220Y255049
X323220Y192549
X323220Y187549
X328220Y187549
X328220Y192549
X333220Y192549
X333220Y187549
X338220Y187549
X338220Y192549
X355720Y200049
X355720Y205049
X355720Y210049
X355720Y215049
X344220Y161549
X329220Y163549
X323220Y128549
X310720Y137549
X305720Y137549
X300720Y137549
X295720Y137549
X290720Y137549
X285720Y137549
X280720Y137549
X269720Y132049
X265220Y130549
X230220Y141049
X210720Y158549
X188220Y159049
X181720Y145049
X168220Y151549
X160720Y155049
X160720Y144549
X142220Y126549
X142220Y121549
X130720Y146049
X148720Y173049
X163220Y175049
X163220Y180049
X163220Y185049
X163220Y190049
X175220Y174049
X178220Y210549
X192720Y210549
X197720Y210549
X152720Y212049
X115720Y178549
X113220Y185049
X108220Y185049
X103220Y185049
X98220Y185049
X63220Y245049
X58220Y245049
X53220Y245049
X48220Y245049
X43220Y245049
X43220Y250049
X48220Y250049
X53220Y250049
X58220Y250049
X63220Y250049
X152720Y90049
X160220Y90049
X253220Y162049
X283220Y165049
X283220Y170049
X288220Y170049
X293220Y170049
X298220Y170049
X298220Y165049
X293220Y165049
X288220Y165049
X310720Y109049
X316220Y109049
X316220Y103549
X310720Y103549
X330720Y97549
X330720Y92549
X349720Y102549
X338220Y347549
X333220Y347549
X328220Y347549
X328220Y352549
X328220Y357549
X333220Y357549
X333220Y352549
X338220Y352549
X338220Y357549
X323220Y357549
X323220Y352549
X323220Y347549
X293220Y347549
X288220Y347549
X288220Y352549
X288220Y357549
X293220Y357549
X293220Y352549
X283220Y352549
X278220Y352549
X278220Y347549
X283220Y347549
X283220Y357549
X278220Y357549
T02
X108220Y171049
X79220Y254549
X102220Y281549
X99220Y299549
X155720Y348049
X227720Y111049
X198220Y105549
T03
X163220Y247549
X163220Y240049
X163220Y232549
X173220Y232549
X173220Y240049
X173220Y247549
T04
X118220Y120049
X128220Y120049
X193220Y75049
X203220Y75049
X213220Y75049
X223220Y75049
X185720Y300049
X175720Y300049
X165720Y300049
X155720Y300049
X140720Y300049
X130720Y300049
X120720Y300049
X110720Y300049
T05
X347433Y137549
T06
X56591Y79006
X76276Y79006
X95961Y79006
X115646Y79006
X253441Y79006
X273126Y79006
X292811Y79006
X312496Y79006
T07
X13920Y130049
X102520Y130049
T08
X34008Y286230
X54008Y286230
X74008Y286230
X64008Y206230
X44008Y206230
T09
X67720Y389049
X67720Y321049
X89720Y288049
X21720Y288049
X21720Y132049
X89720Y132049
X223720Y321049
X223720Y389049
T10
X249008Y137549
T11
X17000Y71329
X351646Y71329
X345720Y326549
X351646Y386289
X250720Y326549
X17000Y386289
M30
