G04 EAGLE Gerber RS-274X export*
G75*
%MOMM*%
%FSLAX34Y34*%
%LPD*%
%IN*%
%IPPOS*%
%AMOC8*
5,1,8,0,0,1.08239X$1,22.5*%
G01*
%ADD10C,0.254000*%


D10*
X0Y0D02*
X2285800Y0D01*
X2285800Y1419100D01*
X0Y1419100D01*
X0Y0D01*
X318770Y1345701D02*
X318699Y1344706D01*
X318557Y1343718D01*
X318345Y1342743D01*
X318064Y1341785D01*
X317715Y1340851D01*
X317300Y1339943D01*
X316822Y1339067D01*
X316283Y1338228D01*
X315685Y1337429D01*
X315031Y1336675D01*
X314325Y1335969D01*
X313571Y1335315D01*
X312773Y1334717D01*
X311933Y1334178D01*
X311057Y1333700D01*
X310150Y1333285D01*
X309215Y1332936D01*
X308257Y1332655D01*
X307282Y1332443D01*
X306294Y1332301D01*
X305299Y1332230D01*
X304301Y1332230D01*
X303306Y1332301D01*
X302318Y1332443D01*
X301343Y1332655D01*
X300385Y1332936D01*
X299451Y1333285D01*
X298543Y1333700D01*
X297667Y1334178D01*
X296828Y1334717D01*
X296029Y1335315D01*
X295275Y1335969D01*
X294569Y1336675D01*
X293915Y1337429D01*
X293317Y1338228D01*
X292778Y1339067D01*
X292300Y1339943D01*
X291885Y1340851D01*
X291536Y1341785D01*
X291255Y1342743D01*
X291043Y1343718D01*
X290901Y1344706D01*
X290830Y1345701D01*
X290830Y1346699D01*
X290901Y1347694D01*
X291043Y1348682D01*
X291255Y1349657D01*
X291536Y1350615D01*
X291885Y1351550D01*
X292300Y1352457D01*
X292778Y1353333D01*
X293317Y1354173D01*
X293915Y1354971D01*
X294569Y1355725D01*
X295275Y1356431D01*
X296029Y1357085D01*
X296828Y1357683D01*
X297667Y1358222D01*
X298543Y1358700D01*
X299451Y1359115D01*
X300385Y1359464D01*
X301343Y1359745D01*
X302318Y1359957D01*
X303306Y1360099D01*
X304301Y1360170D01*
X305299Y1360170D01*
X306294Y1360099D01*
X307282Y1359957D01*
X308257Y1359745D01*
X309215Y1359464D01*
X310150Y1359115D01*
X311057Y1358700D01*
X311933Y1358222D01*
X312773Y1357683D01*
X313571Y1357085D01*
X314325Y1356431D01*
X315031Y1355725D01*
X315685Y1354971D01*
X316283Y1354173D01*
X316822Y1353333D01*
X317300Y1352457D01*
X317715Y1351550D01*
X318064Y1350615D01*
X318345Y1349657D01*
X318557Y1348682D01*
X318699Y1347694D01*
X318770Y1346699D01*
X318770Y1345701D01*
X598170Y1345701D02*
X598099Y1344706D01*
X597957Y1343718D01*
X597745Y1342743D01*
X597464Y1341785D01*
X597115Y1340851D01*
X596700Y1339943D01*
X596222Y1339067D01*
X595683Y1338228D01*
X595085Y1337429D01*
X594431Y1336675D01*
X593725Y1335969D01*
X592971Y1335315D01*
X592173Y1334717D01*
X591333Y1334178D01*
X590457Y1333700D01*
X589550Y1333285D01*
X588615Y1332936D01*
X587657Y1332655D01*
X586682Y1332443D01*
X585694Y1332301D01*
X584699Y1332230D01*
X583701Y1332230D01*
X582706Y1332301D01*
X581718Y1332443D01*
X580743Y1332655D01*
X579785Y1332936D01*
X578851Y1333285D01*
X577943Y1333700D01*
X577067Y1334178D01*
X576228Y1334717D01*
X575429Y1335315D01*
X574675Y1335969D01*
X573969Y1336675D01*
X573315Y1337429D01*
X572717Y1338228D01*
X572178Y1339067D01*
X571700Y1339943D01*
X571285Y1340851D01*
X570936Y1341785D01*
X570655Y1342743D01*
X570443Y1343718D01*
X570301Y1344706D01*
X570230Y1345701D01*
X570230Y1346699D01*
X570301Y1347694D01*
X570443Y1348682D01*
X570655Y1349657D01*
X570936Y1350615D01*
X571285Y1351550D01*
X571700Y1352457D01*
X572178Y1353333D01*
X572717Y1354173D01*
X573315Y1354971D01*
X573969Y1355725D01*
X574675Y1356431D01*
X575429Y1357085D01*
X576228Y1357683D01*
X577067Y1358222D01*
X577943Y1358700D01*
X578851Y1359115D01*
X579785Y1359464D01*
X580743Y1359745D01*
X581718Y1359957D01*
X582706Y1360099D01*
X583701Y1360170D01*
X584699Y1360170D01*
X585694Y1360099D01*
X586682Y1359957D01*
X587657Y1359745D01*
X588615Y1359464D01*
X589550Y1359115D01*
X590457Y1358700D01*
X591333Y1358222D01*
X592173Y1357683D01*
X592971Y1357085D01*
X593725Y1356431D01*
X594431Y1355725D01*
X595085Y1354971D01*
X595683Y1354173D01*
X596222Y1353333D01*
X596700Y1352457D01*
X597115Y1351550D01*
X597464Y1350615D01*
X597745Y1349657D01*
X597957Y1348682D01*
X598099Y1347694D01*
X598170Y1346699D01*
X598170Y1345701D01*
M02*
