%
M48
M72
T01C0.01378
T02C0.01575
T03C0.02362
T04C0.02756
T05C0.03200
T06C0.03937
T07C0.04000
T08C0.04724
T09C0.11811
%
T01
X56600Y124100
X61600Y124100
X66600Y124100
X71600Y124100
X76600Y124100
X86100Y123600
X96600Y100600
X88600Y96600
X80100Y90600
X76100Y94100
X69100Y94100
X69100Y99100
X64100Y99100
X53100Y86100
X48600Y81600
X45600Y78100
X45100Y90100
X26600Y91600
X26600Y86600
X68100Y81100
X71600Y74100
X76600Y71600
X76600Y66600
X70100Y56100
X84600Y40600
X103600Y31600
X123600Y15100
X150025Y17506
X176600Y29100
X181600Y29100
X186600Y29100
X191600Y29100
X196600Y29100
X201600Y29100
X201600Y56600
X196600Y56600
X191600Y56600
X186600Y56600
X181600Y56600
X176600Y56600
X179100Y84100
X179100Y89100
X184100Y89100
X184100Y84100
X184100Y94100
X179100Y94100
X179100Y99100
X184100Y102100
X203600Y110600
X212100Y123100
X216600Y132100
X211600Y149100
X191600Y169600
X191600Y175100
X178600Y169600
X194100Y199100
X194100Y204100
X246600Y169100
X251600Y169100
X256600Y169100
X176600Y129600
X161600Y126100
X149600Y114100
X137600Y129600
X111600Y100600
X114600Y83600
X96100Y77100
X93600Y66600
X98100Y64100
X99100Y60100
X94600Y59600
X90600Y59100
X106100Y58600
X109600Y56100
X113100Y58600
X117100Y56100
X131350Y54350
X126600Y41600
X136600Y92100
X206600Y89600
X246600Y94100
X251600Y94100
X256600Y94100
X124100Y186600
X124100Y191600
X124100Y196600
X124100Y201600
X40100Y50100
X43600Y46100
X51600Y24100
X56600Y24100
X54100Y19100
X59100Y19100
T02
X94100Y124100
X94100Y129100
X94100Y134100
X99100Y134100
X99100Y129100
X99100Y124100
X104100Y124100
X104100Y129100
X104100Y134100
X109100Y134100
X114100Y134100
X114100Y129100
X109100Y129100
X109100Y124100
X114100Y124100
X59100Y136600
X59100Y141600
X59100Y146600
X54100Y141600
X49100Y141600
X49100Y136600
X54100Y136600
X44100Y136600
X44100Y141600
X44100Y146600
X39100Y146600
X39100Y141600
X39100Y136600
X39100Y151600
X39100Y156600
X44100Y156600
X44100Y151600
X49100Y151600
X54100Y151600
X54100Y156600
X49100Y156600
X59100Y156600
X59100Y151600
T03
X80498Y131600
X51757Y146600
X64100Y168100
X86600Y185100
X111600Y200600
T04
X26600Y19789
X26600Y27663
X26600Y35537
X26600Y43411
X26600Y51285
X26600Y59159
X26600Y67033
X26600Y74907
X26600Y103352
X26600Y111226
X26600Y119100
X26600Y126974
X26600Y134848
T05
X19100Y184100
X19100Y194100
X209100Y199100
X219100Y199100
X249100Y49100
X249100Y39100
T06
X16100Y154600
X16100Y168380
X234592Y169100
X234592Y180911
X234592Y192722
X234592Y157289
X234592Y145478
X234592Y117722
X234592Y105911
X234592Y94100
X234592Y82289
X234592Y70478
X251600Y25380
X251600Y11600
T07
X68064Y18064
X78064Y18064
X88064Y18064
X88064Y28064
X78064Y28064
X68064Y28064
X204100Y161600
X204100Y171600
X216600Y171600
X216600Y161600
T08
X157506Y41128
X165380Y64750
X212624Y64750
X212624Y17506
X165380Y17506
T09
X251600Y78943
X251600Y109257
X251600Y153943
X251600Y184257
M30
