G75*
%MOIN*%
%OFA0B0*%
%FSLAX25Y25*%
%IPPOS*%
%LPD*%
%AMOC8*
5,1,8,0,0,1.08239X$1,22.5*
%
%ADD10C,0.00000*%
%ADD11C,0.00400*%
%ADD12C,0.00600*%
%ADD13C,0.00500*%
D10*
X0001600Y0001600D02*
X0001600Y0211561D01*
X0270301Y0211561D01*
X0270301Y0001600D01*
X0001600Y0001600D01*
X0245694Y0078943D02*
X0245696Y0079096D01*
X0245702Y0079250D01*
X0245712Y0079403D01*
X0245726Y0079555D01*
X0245744Y0079708D01*
X0245766Y0079859D01*
X0245791Y0080010D01*
X0245821Y0080161D01*
X0245855Y0080311D01*
X0245892Y0080459D01*
X0245933Y0080607D01*
X0245978Y0080753D01*
X0246027Y0080899D01*
X0246080Y0081043D01*
X0246136Y0081185D01*
X0246196Y0081326D01*
X0246260Y0081466D01*
X0246327Y0081604D01*
X0246398Y0081740D01*
X0246473Y0081874D01*
X0246550Y0082006D01*
X0246632Y0082136D01*
X0246716Y0082264D01*
X0246804Y0082390D01*
X0246895Y0082513D01*
X0246989Y0082634D01*
X0247087Y0082752D01*
X0247187Y0082868D01*
X0247291Y0082981D01*
X0247397Y0083092D01*
X0247506Y0083200D01*
X0247618Y0083305D01*
X0247732Y0083406D01*
X0247850Y0083505D01*
X0247969Y0083601D01*
X0248091Y0083694D01*
X0248216Y0083783D01*
X0248343Y0083870D01*
X0248472Y0083952D01*
X0248603Y0084032D01*
X0248736Y0084108D01*
X0248871Y0084181D01*
X0249008Y0084250D01*
X0249147Y0084315D01*
X0249287Y0084377D01*
X0249429Y0084435D01*
X0249572Y0084490D01*
X0249717Y0084541D01*
X0249863Y0084588D01*
X0250010Y0084631D01*
X0250158Y0084670D01*
X0250307Y0084706D01*
X0250457Y0084737D01*
X0250608Y0084765D01*
X0250759Y0084789D01*
X0250912Y0084809D01*
X0251064Y0084825D01*
X0251217Y0084837D01*
X0251370Y0084845D01*
X0251523Y0084849D01*
X0251677Y0084849D01*
X0251830Y0084845D01*
X0251983Y0084837D01*
X0252136Y0084825D01*
X0252288Y0084809D01*
X0252441Y0084789D01*
X0252592Y0084765D01*
X0252743Y0084737D01*
X0252893Y0084706D01*
X0253042Y0084670D01*
X0253190Y0084631D01*
X0253337Y0084588D01*
X0253483Y0084541D01*
X0253628Y0084490D01*
X0253771Y0084435D01*
X0253913Y0084377D01*
X0254053Y0084315D01*
X0254192Y0084250D01*
X0254329Y0084181D01*
X0254464Y0084108D01*
X0254597Y0084032D01*
X0254728Y0083952D01*
X0254857Y0083870D01*
X0254984Y0083783D01*
X0255109Y0083694D01*
X0255231Y0083601D01*
X0255350Y0083505D01*
X0255468Y0083406D01*
X0255582Y0083305D01*
X0255694Y0083200D01*
X0255803Y0083092D01*
X0255909Y0082981D01*
X0256013Y0082868D01*
X0256113Y0082752D01*
X0256211Y0082634D01*
X0256305Y0082513D01*
X0256396Y0082390D01*
X0256484Y0082264D01*
X0256568Y0082136D01*
X0256650Y0082006D01*
X0256727Y0081874D01*
X0256802Y0081740D01*
X0256873Y0081604D01*
X0256940Y0081466D01*
X0257004Y0081326D01*
X0257064Y0081185D01*
X0257120Y0081043D01*
X0257173Y0080899D01*
X0257222Y0080753D01*
X0257267Y0080607D01*
X0257308Y0080459D01*
X0257345Y0080311D01*
X0257379Y0080161D01*
X0257409Y0080010D01*
X0257434Y0079859D01*
X0257456Y0079708D01*
X0257474Y0079555D01*
X0257488Y0079403D01*
X0257498Y0079250D01*
X0257504Y0079096D01*
X0257506Y0078943D01*
X0257504Y0078790D01*
X0257498Y0078636D01*
X0257488Y0078483D01*
X0257474Y0078331D01*
X0257456Y0078178D01*
X0257434Y0078027D01*
X0257409Y0077876D01*
X0257379Y0077725D01*
X0257345Y0077575D01*
X0257308Y0077427D01*
X0257267Y0077279D01*
X0257222Y0077133D01*
X0257173Y0076987D01*
X0257120Y0076843D01*
X0257064Y0076701D01*
X0257004Y0076560D01*
X0256940Y0076420D01*
X0256873Y0076282D01*
X0256802Y0076146D01*
X0256727Y0076012D01*
X0256650Y0075880D01*
X0256568Y0075750D01*
X0256484Y0075622D01*
X0256396Y0075496D01*
X0256305Y0075373D01*
X0256211Y0075252D01*
X0256113Y0075134D01*
X0256013Y0075018D01*
X0255909Y0074905D01*
X0255803Y0074794D01*
X0255694Y0074686D01*
X0255582Y0074581D01*
X0255468Y0074480D01*
X0255350Y0074381D01*
X0255231Y0074285D01*
X0255109Y0074192D01*
X0254984Y0074103D01*
X0254857Y0074016D01*
X0254728Y0073934D01*
X0254597Y0073854D01*
X0254464Y0073778D01*
X0254329Y0073705D01*
X0254192Y0073636D01*
X0254053Y0073571D01*
X0253913Y0073509D01*
X0253771Y0073451D01*
X0253628Y0073396D01*
X0253483Y0073345D01*
X0253337Y0073298D01*
X0253190Y0073255D01*
X0253042Y0073216D01*
X0252893Y0073180D01*
X0252743Y0073149D01*
X0252592Y0073121D01*
X0252441Y0073097D01*
X0252288Y0073077D01*
X0252136Y0073061D01*
X0251983Y0073049D01*
X0251830Y0073041D01*
X0251677Y0073037D01*
X0251523Y0073037D01*
X0251370Y0073041D01*
X0251217Y0073049D01*
X0251064Y0073061D01*
X0250912Y0073077D01*
X0250759Y0073097D01*
X0250608Y0073121D01*
X0250457Y0073149D01*
X0250307Y0073180D01*
X0250158Y0073216D01*
X0250010Y0073255D01*
X0249863Y0073298D01*
X0249717Y0073345D01*
X0249572Y0073396D01*
X0249429Y0073451D01*
X0249287Y0073509D01*
X0249147Y0073571D01*
X0249008Y0073636D01*
X0248871Y0073705D01*
X0248736Y0073778D01*
X0248603Y0073854D01*
X0248472Y0073934D01*
X0248343Y0074016D01*
X0248216Y0074103D01*
X0248091Y0074192D01*
X0247969Y0074285D01*
X0247850Y0074381D01*
X0247732Y0074480D01*
X0247618Y0074581D01*
X0247506Y0074686D01*
X0247397Y0074794D01*
X0247291Y0074905D01*
X0247187Y0075018D01*
X0247087Y0075134D01*
X0246989Y0075252D01*
X0246895Y0075373D01*
X0246804Y0075496D01*
X0246716Y0075622D01*
X0246632Y0075750D01*
X0246550Y0075880D01*
X0246473Y0076012D01*
X0246398Y0076146D01*
X0246327Y0076282D01*
X0246260Y0076420D01*
X0246196Y0076560D01*
X0246136Y0076701D01*
X0246080Y0076843D01*
X0246027Y0076987D01*
X0245978Y0077133D01*
X0245933Y0077279D01*
X0245892Y0077427D01*
X0245855Y0077575D01*
X0245821Y0077725D01*
X0245791Y0077876D01*
X0245766Y0078027D01*
X0245744Y0078178D01*
X0245726Y0078331D01*
X0245712Y0078483D01*
X0245702Y0078636D01*
X0245696Y0078790D01*
X0245694Y0078943D01*
X0245694Y0109257D02*
X0245696Y0109410D01*
X0245702Y0109564D01*
X0245712Y0109717D01*
X0245726Y0109869D01*
X0245744Y0110022D01*
X0245766Y0110173D01*
X0245791Y0110324D01*
X0245821Y0110475D01*
X0245855Y0110625D01*
X0245892Y0110773D01*
X0245933Y0110921D01*
X0245978Y0111067D01*
X0246027Y0111213D01*
X0246080Y0111357D01*
X0246136Y0111499D01*
X0246196Y0111640D01*
X0246260Y0111780D01*
X0246327Y0111918D01*
X0246398Y0112054D01*
X0246473Y0112188D01*
X0246550Y0112320D01*
X0246632Y0112450D01*
X0246716Y0112578D01*
X0246804Y0112704D01*
X0246895Y0112827D01*
X0246989Y0112948D01*
X0247087Y0113066D01*
X0247187Y0113182D01*
X0247291Y0113295D01*
X0247397Y0113406D01*
X0247506Y0113514D01*
X0247618Y0113619D01*
X0247732Y0113720D01*
X0247850Y0113819D01*
X0247969Y0113915D01*
X0248091Y0114008D01*
X0248216Y0114097D01*
X0248343Y0114184D01*
X0248472Y0114266D01*
X0248603Y0114346D01*
X0248736Y0114422D01*
X0248871Y0114495D01*
X0249008Y0114564D01*
X0249147Y0114629D01*
X0249287Y0114691D01*
X0249429Y0114749D01*
X0249572Y0114804D01*
X0249717Y0114855D01*
X0249863Y0114902D01*
X0250010Y0114945D01*
X0250158Y0114984D01*
X0250307Y0115020D01*
X0250457Y0115051D01*
X0250608Y0115079D01*
X0250759Y0115103D01*
X0250912Y0115123D01*
X0251064Y0115139D01*
X0251217Y0115151D01*
X0251370Y0115159D01*
X0251523Y0115163D01*
X0251677Y0115163D01*
X0251830Y0115159D01*
X0251983Y0115151D01*
X0252136Y0115139D01*
X0252288Y0115123D01*
X0252441Y0115103D01*
X0252592Y0115079D01*
X0252743Y0115051D01*
X0252893Y0115020D01*
X0253042Y0114984D01*
X0253190Y0114945D01*
X0253337Y0114902D01*
X0253483Y0114855D01*
X0253628Y0114804D01*
X0253771Y0114749D01*
X0253913Y0114691D01*
X0254053Y0114629D01*
X0254192Y0114564D01*
X0254329Y0114495D01*
X0254464Y0114422D01*
X0254597Y0114346D01*
X0254728Y0114266D01*
X0254857Y0114184D01*
X0254984Y0114097D01*
X0255109Y0114008D01*
X0255231Y0113915D01*
X0255350Y0113819D01*
X0255468Y0113720D01*
X0255582Y0113619D01*
X0255694Y0113514D01*
X0255803Y0113406D01*
X0255909Y0113295D01*
X0256013Y0113182D01*
X0256113Y0113066D01*
X0256211Y0112948D01*
X0256305Y0112827D01*
X0256396Y0112704D01*
X0256484Y0112578D01*
X0256568Y0112450D01*
X0256650Y0112320D01*
X0256727Y0112188D01*
X0256802Y0112054D01*
X0256873Y0111918D01*
X0256940Y0111780D01*
X0257004Y0111640D01*
X0257064Y0111499D01*
X0257120Y0111357D01*
X0257173Y0111213D01*
X0257222Y0111067D01*
X0257267Y0110921D01*
X0257308Y0110773D01*
X0257345Y0110625D01*
X0257379Y0110475D01*
X0257409Y0110324D01*
X0257434Y0110173D01*
X0257456Y0110022D01*
X0257474Y0109869D01*
X0257488Y0109717D01*
X0257498Y0109564D01*
X0257504Y0109410D01*
X0257506Y0109257D01*
X0257504Y0109104D01*
X0257498Y0108950D01*
X0257488Y0108797D01*
X0257474Y0108645D01*
X0257456Y0108492D01*
X0257434Y0108341D01*
X0257409Y0108190D01*
X0257379Y0108039D01*
X0257345Y0107889D01*
X0257308Y0107741D01*
X0257267Y0107593D01*
X0257222Y0107447D01*
X0257173Y0107301D01*
X0257120Y0107157D01*
X0257064Y0107015D01*
X0257004Y0106874D01*
X0256940Y0106734D01*
X0256873Y0106596D01*
X0256802Y0106460D01*
X0256727Y0106326D01*
X0256650Y0106194D01*
X0256568Y0106064D01*
X0256484Y0105936D01*
X0256396Y0105810D01*
X0256305Y0105687D01*
X0256211Y0105566D01*
X0256113Y0105448D01*
X0256013Y0105332D01*
X0255909Y0105219D01*
X0255803Y0105108D01*
X0255694Y0105000D01*
X0255582Y0104895D01*
X0255468Y0104794D01*
X0255350Y0104695D01*
X0255231Y0104599D01*
X0255109Y0104506D01*
X0254984Y0104417D01*
X0254857Y0104330D01*
X0254728Y0104248D01*
X0254597Y0104168D01*
X0254464Y0104092D01*
X0254329Y0104019D01*
X0254192Y0103950D01*
X0254053Y0103885D01*
X0253913Y0103823D01*
X0253771Y0103765D01*
X0253628Y0103710D01*
X0253483Y0103659D01*
X0253337Y0103612D01*
X0253190Y0103569D01*
X0253042Y0103530D01*
X0252893Y0103494D01*
X0252743Y0103463D01*
X0252592Y0103435D01*
X0252441Y0103411D01*
X0252288Y0103391D01*
X0252136Y0103375D01*
X0251983Y0103363D01*
X0251830Y0103355D01*
X0251677Y0103351D01*
X0251523Y0103351D01*
X0251370Y0103355D01*
X0251217Y0103363D01*
X0251064Y0103375D01*
X0250912Y0103391D01*
X0250759Y0103411D01*
X0250608Y0103435D01*
X0250457Y0103463D01*
X0250307Y0103494D01*
X0250158Y0103530D01*
X0250010Y0103569D01*
X0249863Y0103612D01*
X0249717Y0103659D01*
X0249572Y0103710D01*
X0249429Y0103765D01*
X0249287Y0103823D01*
X0249147Y0103885D01*
X0249008Y0103950D01*
X0248871Y0104019D01*
X0248736Y0104092D01*
X0248603Y0104168D01*
X0248472Y0104248D01*
X0248343Y0104330D01*
X0248216Y0104417D01*
X0248091Y0104506D01*
X0247969Y0104599D01*
X0247850Y0104695D01*
X0247732Y0104794D01*
X0247618Y0104895D01*
X0247506Y0105000D01*
X0247397Y0105108D01*
X0247291Y0105219D01*
X0247187Y0105332D01*
X0247087Y0105448D01*
X0246989Y0105566D01*
X0246895Y0105687D01*
X0246804Y0105810D01*
X0246716Y0105936D01*
X0246632Y0106064D01*
X0246550Y0106194D01*
X0246473Y0106326D01*
X0246398Y0106460D01*
X0246327Y0106596D01*
X0246260Y0106734D01*
X0246196Y0106874D01*
X0246136Y0107015D01*
X0246080Y0107157D01*
X0246027Y0107301D01*
X0245978Y0107447D01*
X0245933Y0107593D01*
X0245892Y0107741D01*
X0245855Y0107889D01*
X0245821Y0108039D01*
X0245791Y0108190D01*
X0245766Y0108341D01*
X0245744Y0108492D01*
X0245726Y0108645D01*
X0245712Y0108797D01*
X0245702Y0108950D01*
X0245696Y0109104D01*
X0245694Y0109257D01*
X0245694Y0153943D02*
X0245696Y0154096D01*
X0245702Y0154250D01*
X0245712Y0154403D01*
X0245726Y0154555D01*
X0245744Y0154708D01*
X0245766Y0154859D01*
X0245791Y0155010D01*
X0245821Y0155161D01*
X0245855Y0155311D01*
X0245892Y0155459D01*
X0245933Y0155607D01*
X0245978Y0155753D01*
X0246027Y0155899D01*
X0246080Y0156043D01*
X0246136Y0156185D01*
X0246196Y0156326D01*
X0246260Y0156466D01*
X0246327Y0156604D01*
X0246398Y0156740D01*
X0246473Y0156874D01*
X0246550Y0157006D01*
X0246632Y0157136D01*
X0246716Y0157264D01*
X0246804Y0157390D01*
X0246895Y0157513D01*
X0246989Y0157634D01*
X0247087Y0157752D01*
X0247187Y0157868D01*
X0247291Y0157981D01*
X0247397Y0158092D01*
X0247506Y0158200D01*
X0247618Y0158305D01*
X0247732Y0158406D01*
X0247850Y0158505D01*
X0247969Y0158601D01*
X0248091Y0158694D01*
X0248216Y0158783D01*
X0248343Y0158870D01*
X0248472Y0158952D01*
X0248603Y0159032D01*
X0248736Y0159108D01*
X0248871Y0159181D01*
X0249008Y0159250D01*
X0249147Y0159315D01*
X0249287Y0159377D01*
X0249429Y0159435D01*
X0249572Y0159490D01*
X0249717Y0159541D01*
X0249863Y0159588D01*
X0250010Y0159631D01*
X0250158Y0159670D01*
X0250307Y0159706D01*
X0250457Y0159737D01*
X0250608Y0159765D01*
X0250759Y0159789D01*
X0250912Y0159809D01*
X0251064Y0159825D01*
X0251217Y0159837D01*
X0251370Y0159845D01*
X0251523Y0159849D01*
X0251677Y0159849D01*
X0251830Y0159845D01*
X0251983Y0159837D01*
X0252136Y0159825D01*
X0252288Y0159809D01*
X0252441Y0159789D01*
X0252592Y0159765D01*
X0252743Y0159737D01*
X0252893Y0159706D01*
X0253042Y0159670D01*
X0253190Y0159631D01*
X0253337Y0159588D01*
X0253483Y0159541D01*
X0253628Y0159490D01*
X0253771Y0159435D01*
X0253913Y0159377D01*
X0254053Y0159315D01*
X0254192Y0159250D01*
X0254329Y0159181D01*
X0254464Y0159108D01*
X0254597Y0159032D01*
X0254728Y0158952D01*
X0254857Y0158870D01*
X0254984Y0158783D01*
X0255109Y0158694D01*
X0255231Y0158601D01*
X0255350Y0158505D01*
X0255468Y0158406D01*
X0255582Y0158305D01*
X0255694Y0158200D01*
X0255803Y0158092D01*
X0255909Y0157981D01*
X0256013Y0157868D01*
X0256113Y0157752D01*
X0256211Y0157634D01*
X0256305Y0157513D01*
X0256396Y0157390D01*
X0256484Y0157264D01*
X0256568Y0157136D01*
X0256650Y0157006D01*
X0256727Y0156874D01*
X0256802Y0156740D01*
X0256873Y0156604D01*
X0256940Y0156466D01*
X0257004Y0156326D01*
X0257064Y0156185D01*
X0257120Y0156043D01*
X0257173Y0155899D01*
X0257222Y0155753D01*
X0257267Y0155607D01*
X0257308Y0155459D01*
X0257345Y0155311D01*
X0257379Y0155161D01*
X0257409Y0155010D01*
X0257434Y0154859D01*
X0257456Y0154708D01*
X0257474Y0154555D01*
X0257488Y0154403D01*
X0257498Y0154250D01*
X0257504Y0154096D01*
X0257506Y0153943D01*
X0257504Y0153790D01*
X0257498Y0153636D01*
X0257488Y0153483D01*
X0257474Y0153331D01*
X0257456Y0153178D01*
X0257434Y0153027D01*
X0257409Y0152876D01*
X0257379Y0152725D01*
X0257345Y0152575D01*
X0257308Y0152427D01*
X0257267Y0152279D01*
X0257222Y0152133D01*
X0257173Y0151987D01*
X0257120Y0151843D01*
X0257064Y0151701D01*
X0257004Y0151560D01*
X0256940Y0151420D01*
X0256873Y0151282D01*
X0256802Y0151146D01*
X0256727Y0151012D01*
X0256650Y0150880D01*
X0256568Y0150750D01*
X0256484Y0150622D01*
X0256396Y0150496D01*
X0256305Y0150373D01*
X0256211Y0150252D01*
X0256113Y0150134D01*
X0256013Y0150018D01*
X0255909Y0149905D01*
X0255803Y0149794D01*
X0255694Y0149686D01*
X0255582Y0149581D01*
X0255468Y0149480D01*
X0255350Y0149381D01*
X0255231Y0149285D01*
X0255109Y0149192D01*
X0254984Y0149103D01*
X0254857Y0149016D01*
X0254728Y0148934D01*
X0254597Y0148854D01*
X0254464Y0148778D01*
X0254329Y0148705D01*
X0254192Y0148636D01*
X0254053Y0148571D01*
X0253913Y0148509D01*
X0253771Y0148451D01*
X0253628Y0148396D01*
X0253483Y0148345D01*
X0253337Y0148298D01*
X0253190Y0148255D01*
X0253042Y0148216D01*
X0252893Y0148180D01*
X0252743Y0148149D01*
X0252592Y0148121D01*
X0252441Y0148097D01*
X0252288Y0148077D01*
X0252136Y0148061D01*
X0251983Y0148049D01*
X0251830Y0148041D01*
X0251677Y0148037D01*
X0251523Y0148037D01*
X0251370Y0148041D01*
X0251217Y0148049D01*
X0251064Y0148061D01*
X0250912Y0148077D01*
X0250759Y0148097D01*
X0250608Y0148121D01*
X0250457Y0148149D01*
X0250307Y0148180D01*
X0250158Y0148216D01*
X0250010Y0148255D01*
X0249863Y0148298D01*
X0249717Y0148345D01*
X0249572Y0148396D01*
X0249429Y0148451D01*
X0249287Y0148509D01*
X0249147Y0148571D01*
X0249008Y0148636D01*
X0248871Y0148705D01*
X0248736Y0148778D01*
X0248603Y0148854D01*
X0248472Y0148934D01*
X0248343Y0149016D01*
X0248216Y0149103D01*
X0248091Y0149192D01*
X0247969Y0149285D01*
X0247850Y0149381D01*
X0247732Y0149480D01*
X0247618Y0149581D01*
X0247506Y0149686D01*
X0247397Y0149794D01*
X0247291Y0149905D01*
X0247187Y0150018D01*
X0247087Y0150134D01*
X0246989Y0150252D01*
X0246895Y0150373D01*
X0246804Y0150496D01*
X0246716Y0150622D01*
X0246632Y0150750D01*
X0246550Y0150880D01*
X0246473Y0151012D01*
X0246398Y0151146D01*
X0246327Y0151282D01*
X0246260Y0151420D01*
X0246196Y0151560D01*
X0246136Y0151701D01*
X0246080Y0151843D01*
X0246027Y0151987D01*
X0245978Y0152133D01*
X0245933Y0152279D01*
X0245892Y0152427D01*
X0245855Y0152575D01*
X0245821Y0152725D01*
X0245791Y0152876D01*
X0245766Y0153027D01*
X0245744Y0153178D01*
X0245726Y0153331D01*
X0245712Y0153483D01*
X0245702Y0153636D01*
X0245696Y0153790D01*
X0245694Y0153943D01*
X0245694Y0184257D02*
X0245696Y0184410D01*
X0245702Y0184564D01*
X0245712Y0184717D01*
X0245726Y0184869D01*
X0245744Y0185022D01*
X0245766Y0185173D01*
X0245791Y0185324D01*
X0245821Y0185475D01*
X0245855Y0185625D01*
X0245892Y0185773D01*
X0245933Y0185921D01*
X0245978Y0186067D01*
X0246027Y0186213D01*
X0246080Y0186357D01*
X0246136Y0186499D01*
X0246196Y0186640D01*
X0246260Y0186780D01*
X0246327Y0186918D01*
X0246398Y0187054D01*
X0246473Y0187188D01*
X0246550Y0187320D01*
X0246632Y0187450D01*
X0246716Y0187578D01*
X0246804Y0187704D01*
X0246895Y0187827D01*
X0246989Y0187948D01*
X0247087Y0188066D01*
X0247187Y0188182D01*
X0247291Y0188295D01*
X0247397Y0188406D01*
X0247506Y0188514D01*
X0247618Y0188619D01*
X0247732Y0188720D01*
X0247850Y0188819D01*
X0247969Y0188915D01*
X0248091Y0189008D01*
X0248216Y0189097D01*
X0248343Y0189184D01*
X0248472Y0189266D01*
X0248603Y0189346D01*
X0248736Y0189422D01*
X0248871Y0189495D01*
X0249008Y0189564D01*
X0249147Y0189629D01*
X0249287Y0189691D01*
X0249429Y0189749D01*
X0249572Y0189804D01*
X0249717Y0189855D01*
X0249863Y0189902D01*
X0250010Y0189945D01*
X0250158Y0189984D01*
X0250307Y0190020D01*
X0250457Y0190051D01*
X0250608Y0190079D01*
X0250759Y0190103D01*
X0250912Y0190123D01*
X0251064Y0190139D01*
X0251217Y0190151D01*
X0251370Y0190159D01*
X0251523Y0190163D01*
X0251677Y0190163D01*
X0251830Y0190159D01*
X0251983Y0190151D01*
X0252136Y0190139D01*
X0252288Y0190123D01*
X0252441Y0190103D01*
X0252592Y0190079D01*
X0252743Y0190051D01*
X0252893Y0190020D01*
X0253042Y0189984D01*
X0253190Y0189945D01*
X0253337Y0189902D01*
X0253483Y0189855D01*
X0253628Y0189804D01*
X0253771Y0189749D01*
X0253913Y0189691D01*
X0254053Y0189629D01*
X0254192Y0189564D01*
X0254329Y0189495D01*
X0254464Y0189422D01*
X0254597Y0189346D01*
X0254728Y0189266D01*
X0254857Y0189184D01*
X0254984Y0189097D01*
X0255109Y0189008D01*
X0255231Y0188915D01*
X0255350Y0188819D01*
X0255468Y0188720D01*
X0255582Y0188619D01*
X0255694Y0188514D01*
X0255803Y0188406D01*
X0255909Y0188295D01*
X0256013Y0188182D01*
X0256113Y0188066D01*
X0256211Y0187948D01*
X0256305Y0187827D01*
X0256396Y0187704D01*
X0256484Y0187578D01*
X0256568Y0187450D01*
X0256650Y0187320D01*
X0256727Y0187188D01*
X0256802Y0187054D01*
X0256873Y0186918D01*
X0256940Y0186780D01*
X0257004Y0186640D01*
X0257064Y0186499D01*
X0257120Y0186357D01*
X0257173Y0186213D01*
X0257222Y0186067D01*
X0257267Y0185921D01*
X0257308Y0185773D01*
X0257345Y0185625D01*
X0257379Y0185475D01*
X0257409Y0185324D01*
X0257434Y0185173D01*
X0257456Y0185022D01*
X0257474Y0184869D01*
X0257488Y0184717D01*
X0257498Y0184564D01*
X0257504Y0184410D01*
X0257506Y0184257D01*
X0257504Y0184104D01*
X0257498Y0183950D01*
X0257488Y0183797D01*
X0257474Y0183645D01*
X0257456Y0183492D01*
X0257434Y0183341D01*
X0257409Y0183190D01*
X0257379Y0183039D01*
X0257345Y0182889D01*
X0257308Y0182741D01*
X0257267Y0182593D01*
X0257222Y0182447D01*
X0257173Y0182301D01*
X0257120Y0182157D01*
X0257064Y0182015D01*
X0257004Y0181874D01*
X0256940Y0181734D01*
X0256873Y0181596D01*
X0256802Y0181460D01*
X0256727Y0181326D01*
X0256650Y0181194D01*
X0256568Y0181064D01*
X0256484Y0180936D01*
X0256396Y0180810D01*
X0256305Y0180687D01*
X0256211Y0180566D01*
X0256113Y0180448D01*
X0256013Y0180332D01*
X0255909Y0180219D01*
X0255803Y0180108D01*
X0255694Y0180000D01*
X0255582Y0179895D01*
X0255468Y0179794D01*
X0255350Y0179695D01*
X0255231Y0179599D01*
X0255109Y0179506D01*
X0254984Y0179417D01*
X0254857Y0179330D01*
X0254728Y0179248D01*
X0254597Y0179168D01*
X0254464Y0179092D01*
X0254329Y0179019D01*
X0254192Y0178950D01*
X0254053Y0178885D01*
X0253913Y0178823D01*
X0253771Y0178765D01*
X0253628Y0178710D01*
X0253483Y0178659D01*
X0253337Y0178612D01*
X0253190Y0178569D01*
X0253042Y0178530D01*
X0252893Y0178494D01*
X0252743Y0178463D01*
X0252592Y0178435D01*
X0252441Y0178411D01*
X0252288Y0178391D01*
X0252136Y0178375D01*
X0251983Y0178363D01*
X0251830Y0178355D01*
X0251677Y0178351D01*
X0251523Y0178351D01*
X0251370Y0178355D01*
X0251217Y0178363D01*
X0251064Y0178375D01*
X0250912Y0178391D01*
X0250759Y0178411D01*
X0250608Y0178435D01*
X0250457Y0178463D01*
X0250307Y0178494D01*
X0250158Y0178530D01*
X0250010Y0178569D01*
X0249863Y0178612D01*
X0249717Y0178659D01*
X0249572Y0178710D01*
X0249429Y0178765D01*
X0249287Y0178823D01*
X0249147Y0178885D01*
X0249008Y0178950D01*
X0248871Y0179019D01*
X0248736Y0179092D01*
X0248603Y0179168D01*
X0248472Y0179248D01*
X0248343Y0179330D01*
X0248216Y0179417D01*
X0248091Y0179506D01*
X0247969Y0179599D01*
X0247850Y0179695D01*
X0247732Y0179794D01*
X0247618Y0179895D01*
X0247506Y0180000D01*
X0247397Y0180108D01*
X0247291Y0180219D01*
X0247187Y0180332D01*
X0247087Y0180448D01*
X0246989Y0180566D01*
X0246895Y0180687D01*
X0246804Y0180810D01*
X0246716Y0180936D01*
X0246632Y0181064D01*
X0246550Y0181194D01*
X0246473Y0181326D01*
X0246398Y0181460D01*
X0246327Y0181596D01*
X0246260Y0181734D01*
X0246196Y0181874D01*
X0246136Y0182015D01*
X0246080Y0182157D01*
X0246027Y0182301D01*
X0245978Y0182447D01*
X0245933Y0182593D01*
X0245892Y0182741D01*
X0245855Y0182889D01*
X0245821Y0183039D01*
X0245791Y0183190D01*
X0245766Y0183341D01*
X0245744Y0183492D01*
X0245726Y0183645D01*
X0245712Y0183797D01*
X0245702Y0183950D01*
X0245696Y0184104D01*
X0245694Y0184257D01*
D11*
X0039400Y0137622D02*
X0039400Y0136844D01*
X0036600Y0136844D01*
X0036600Y0137622D01*
X0036602Y0137678D01*
X0036608Y0137733D01*
X0036618Y0137787D01*
X0036632Y0137841D01*
X0036649Y0137894D01*
X0036670Y0137945D01*
X0036695Y0137995D01*
X0036724Y0138043D01*
X0036755Y0138088D01*
X0036790Y0138131D01*
X0036828Y0138172D01*
X0036869Y0138210D01*
X0036912Y0138245D01*
X0036957Y0138276D01*
X0037005Y0138305D01*
X0037055Y0138330D01*
X0037106Y0138351D01*
X0037159Y0138368D01*
X0037213Y0138382D01*
X0037267Y0138392D01*
X0037322Y0138398D01*
X0037378Y0138400D01*
X0038622Y0138400D01*
X0038678Y0138398D01*
X0038733Y0138392D01*
X0038787Y0138382D01*
X0038841Y0138368D01*
X0038894Y0138351D01*
X0038945Y0138330D01*
X0038995Y0138305D01*
X0039043Y0138276D01*
X0039088Y0138245D01*
X0039131Y0138210D01*
X0039172Y0138172D01*
X0039210Y0138131D01*
X0039245Y0138088D01*
X0039276Y0138043D01*
X0039305Y0137995D01*
X0039330Y0137945D01*
X0039351Y0137894D01*
X0039368Y0137841D01*
X0039382Y0137787D01*
X0039392Y0137733D01*
X0039398Y0137678D01*
X0039400Y0137622D01*
X0039400Y0135328D02*
X0036600Y0135328D01*
X0039400Y0133772D01*
X0036600Y0133772D01*
X0036600Y0132256D02*
X0036600Y0131323D01*
X0036602Y0131274D01*
X0036608Y0131226D01*
X0036617Y0131178D01*
X0036630Y0131131D01*
X0036647Y0131085D01*
X0036668Y0131041D01*
X0036692Y0130998D01*
X0036719Y0130957D01*
X0036749Y0130919D01*
X0036782Y0130883D01*
X0036818Y0130850D01*
X0036856Y0130820D01*
X0036897Y0130793D01*
X0036940Y0130769D01*
X0036984Y0130748D01*
X0037030Y0130731D01*
X0037077Y0130718D01*
X0037125Y0130709D01*
X0037173Y0130703D01*
X0037222Y0130701D01*
X0037222Y0130700D02*
X0038778Y0130700D01*
X0038778Y0130701D02*
X0038827Y0130703D01*
X0038875Y0130709D01*
X0038923Y0130718D01*
X0038970Y0130731D01*
X0039016Y0130748D01*
X0039060Y0130769D01*
X0039103Y0130793D01*
X0039144Y0130820D01*
X0039182Y0130850D01*
X0039218Y0130883D01*
X0039251Y0130919D01*
X0039281Y0130957D01*
X0039308Y0130998D01*
X0039332Y0131041D01*
X0039353Y0131085D01*
X0039370Y0131131D01*
X0039383Y0131178D01*
X0039392Y0131226D01*
X0039398Y0131274D01*
X0039400Y0131323D01*
X0039400Y0132256D01*
X0038156Y0132256D02*
X0036600Y0132256D01*
X0038156Y0132256D02*
X0038156Y0131789D01*
X0039400Y0127900D02*
X0036600Y0126966D01*
X0039400Y0126033D01*
X0039400Y0124864D02*
X0039400Y0123308D01*
X0038156Y0123308D01*
X0038156Y0124242D01*
X0038155Y0124242D02*
X0038153Y0124291D01*
X0038147Y0124339D01*
X0038138Y0124387D01*
X0038125Y0124434D01*
X0038108Y0124480D01*
X0038087Y0124524D01*
X0038063Y0124567D01*
X0038036Y0124608D01*
X0038006Y0124646D01*
X0037973Y0124682D01*
X0037937Y0124715D01*
X0037899Y0124745D01*
X0037858Y0124772D01*
X0037815Y0124796D01*
X0037771Y0124817D01*
X0037725Y0124834D01*
X0037678Y0124847D01*
X0037630Y0124856D01*
X0037582Y0124862D01*
X0037533Y0124864D01*
X0037222Y0124864D01*
X0037173Y0124862D01*
X0037125Y0124856D01*
X0037077Y0124847D01*
X0037030Y0124834D01*
X0036984Y0124817D01*
X0036940Y0124796D01*
X0036897Y0124772D01*
X0036856Y0124745D01*
X0036818Y0124715D01*
X0036782Y0124682D01*
X0036749Y0124646D01*
X0036719Y0124608D01*
X0036692Y0124567D01*
X0036668Y0124524D01*
X0036647Y0124480D01*
X0036630Y0124434D01*
X0036617Y0124387D01*
X0036608Y0124339D01*
X0036602Y0124291D01*
X0036600Y0124242D01*
X0036600Y0123308D01*
X0036600Y0120604D02*
X0039400Y0118737D01*
X0039400Y0120604D02*
X0036600Y0118737D01*
X0036600Y0117592D02*
X0037844Y0116970D01*
X0037844Y0116814D02*
X0037844Y0116036D01*
X0037844Y0116814D02*
X0037846Y0116870D01*
X0037852Y0116925D01*
X0037862Y0116979D01*
X0037876Y0117033D01*
X0037893Y0117086D01*
X0037914Y0117137D01*
X0037939Y0117187D01*
X0037968Y0117235D01*
X0037999Y0117280D01*
X0038034Y0117323D01*
X0038072Y0117364D01*
X0038113Y0117402D01*
X0038156Y0117437D01*
X0038201Y0117468D01*
X0038249Y0117497D01*
X0038299Y0117522D01*
X0038350Y0117543D01*
X0038403Y0117560D01*
X0038457Y0117574D01*
X0038511Y0117584D01*
X0038566Y0117590D01*
X0038622Y0117592D01*
X0038678Y0117590D01*
X0038733Y0117584D01*
X0038787Y0117574D01*
X0038841Y0117560D01*
X0038894Y0117543D01*
X0038945Y0117522D01*
X0038995Y0117497D01*
X0039043Y0117468D01*
X0039088Y0117437D01*
X0039131Y0117402D01*
X0039172Y0117364D01*
X0039210Y0117323D01*
X0039245Y0117280D01*
X0039276Y0117235D01*
X0039305Y0117187D01*
X0039330Y0117137D01*
X0039351Y0117086D01*
X0039368Y0117033D01*
X0039382Y0116979D01*
X0039392Y0116925D01*
X0039398Y0116870D01*
X0039400Y0116814D01*
X0039400Y0116036D01*
X0036600Y0116036D01*
X0036600Y0113212D02*
X0039400Y0111345D01*
X0039400Y0110368D02*
X0039400Y0108812D01*
X0039400Y0109590D02*
X0036600Y0109590D01*
X0036600Y0111345D02*
X0039400Y0113212D01*
X0036600Y0106168D02*
X0037844Y0105546D01*
X0037844Y0105390D02*
X0037844Y0104612D01*
X0037844Y0105390D02*
X0037846Y0105446D01*
X0037852Y0105501D01*
X0037862Y0105555D01*
X0037876Y0105609D01*
X0037893Y0105662D01*
X0037914Y0105713D01*
X0037939Y0105763D01*
X0037968Y0105811D01*
X0037999Y0105856D01*
X0038034Y0105899D01*
X0038072Y0105940D01*
X0038113Y0105978D01*
X0038156Y0106013D01*
X0038201Y0106044D01*
X0038249Y0106073D01*
X0038299Y0106098D01*
X0038350Y0106119D01*
X0038403Y0106136D01*
X0038457Y0106150D01*
X0038511Y0106160D01*
X0038566Y0106166D01*
X0038622Y0106168D01*
X0038678Y0106166D01*
X0038733Y0106160D01*
X0038787Y0106150D01*
X0038841Y0106136D01*
X0038894Y0106119D01*
X0038945Y0106098D01*
X0038995Y0106073D01*
X0039043Y0106044D01*
X0039088Y0106013D01*
X0039131Y0105978D01*
X0039172Y0105940D01*
X0039210Y0105899D01*
X0039245Y0105856D01*
X0039276Y0105811D01*
X0039305Y0105763D01*
X0039330Y0105713D01*
X0039351Y0105662D01*
X0039368Y0105609D01*
X0039382Y0105555D01*
X0039392Y0105501D01*
X0039398Y0105446D01*
X0039400Y0105390D01*
X0039400Y0104612D01*
X0036600Y0104612D01*
X0036600Y0102582D02*
X0039400Y0102582D01*
X0039400Y0101805D02*
X0039400Y0103360D01*
X0038622Y0100576D02*
X0037378Y0100576D01*
X0037322Y0100574D01*
X0037267Y0100568D01*
X0037213Y0100558D01*
X0037159Y0100544D01*
X0037106Y0100527D01*
X0037055Y0100506D01*
X0037005Y0100481D01*
X0036957Y0100452D01*
X0036912Y0100421D01*
X0036869Y0100386D01*
X0036828Y0100348D01*
X0036790Y0100307D01*
X0036755Y0100264D01*
X0036724Y0100219D01*
X0036695Y0100171D01*
X0036670Y0100121D01*
X0036649Y0100070D01*
X0036632Y0100017D01*
X0036618Y0099963D01*
X0036608Y0099909D01*
X0036602Y0099854D01*
X0036600Y0099798D01*
X0036600Y0099021D01*
X0039400Y0099021D01*
X0039400Y0099798D01*
X0039398Y0099854D01*
X0039392Y0099909D01*
X0039382Y0099963D01*
X0039368Y0100017D01*
X0039351Y0100070D01*
X0039330Y0100121D01*
X0039305Y0100171D01*
X0039276Y0100219D01*
X0039245Y0100264D01*
X0039210Y0100307D01*
X0039172Y0100348D01*
X0039131Y0100386D01*
X0039088Y0100421D01*
X0039043Y0100452D01*
X0038995Y0100481D01*
X0038945Y0100506D01*
X0038894Y0100527D01*
X0038841Y0100544D01*
X0038787Y0100558D01*
X0038733Y0100568D01*
X0038678Y0100574D01*
X0038622Y0100576D01*
X0039400Y0078400D02*
X0036600Y0077467D01*
X0039400Y0076533D01*
X0039400Y0075364D02*
X0039400Y0073809D01*
X0038156Y0073809D01*
X0038156Y0074742D01*
X0038155Y0074742D02*
X0038153Y0074791D01*
X0038147Y0074839D01*
X0038138Y0074887D01*
X0038125Y0074934D01*
X0038108Y0074980D01*
X0038087Y0075024D01*
X0038063Y0075067D01*
X0038036Y0075108D01*
X0038006Y0075146D01*
X0037973Y0075182D01*
X0037937Y0075215D01*
X0037899Y0075245D01*
X0037858Y0075272D01*
X0037815Y0075296D01*
X0037771Y0075317D01*
X0037725Y0075334D01*
X0037678Y0075347D01*
X0037630Y0075356D01*
X0037582Y0075362D01*
X0037533Y0075364D01*
X0037222Y0075364D01*
X0037173Y0075362D01*
X0037125Y0075356D01*
X0037077Y0075347D01*
X0037030Y0075334D01*
X0036984Y0075317D01*
X0036940Y0075296D01*
X0036897Y0075272D01*
X0036856Y0075245D01*
X0036818Y0075215D01*
X0036782Y0075182D01*
X0036749Y0075146D01*
X0036719Y0075108D01*
X0036692Y0075067D01*
X0036668Y0075024D01*
X0036647Y0074980D01*
X0036630Y0074934D01*
X0036617Y0074887D01*
X0036608Y0074839D01*
X0036602Y0074791D01*
X0036600Y0074742D01*
X0036600Y0073809D01*
X0037378Y0070852D02*
X0038622Y0070852D01*
X0038622Y0070853D02*
X0038678Y0070851D01*
X0038733Y0070845D01*
X0038787Y0070835D01*
X0038841Y0070821D01*
X0038894Y0070804D01*
X0038945Y0070783D01*
X0038995Y0070758D01*
X0039043Y0070729D01*
X0039088Y0070698D01*
X0039131Y0070663D01*
X0039172Y0070625D01*
X0039210Y0070584D01*
X0039245Y0070541D01*
X0039276Y0070496D01*
X0039305Y0070448D01*
X0039330Y0070398D01*
X0039351Y0070347D01*
X0039368Y0070294D01*
X0039382Y0070240D01*
X0039392Y0070186D01*
X0039398Y0070131D01*
X0039400Y0070075D01*
X0039400Y0069297D01*
X0036600Y0069297D01*
X0036600Y0070075D01*
X0036602Y0070131D01*
X0036608Y0070186D01*
X0036618Y0070240D01*
X0036632Y0070294D01*
X0036649Y0070347D01*
X0036670Y0070398D01*
X0036695Y0070448D01*
X0036724Y0070496D01*
X0036755Y0070541D01*
X0036790Y0070584D01*
X0036828Y0070625D01*
X0036869Y0070663D01*
X0036912Y0070698D01*
X0036957Y0070729D01*
X0037005Y0070758D01*
X0037055Y0070783D01*
X0037106Y0070804D01*
X0037159Y0070821D01*
X0037213Y0070835D01*
X0037267Y0070845D01*
X0037322Y0070851D01*
X0037378Y0070853D01*
X0036600Y0067780D02*
X0039400Y0067780D01*
X0039400Y0066225D02*
X0036600Y0067780D01*
X0036600Y0066225D02*
X0039400Y0066225D01*
X0039400Y0064708D02*
X0039400Y0063775D01*
X0039398Y0063726D01*
X0039392Y0063678D01*
X0039383Y0063630D01*
X0039370Y0063583D01*
X0039353Y0063537D01*
X0039332Y0063493D01*
X0039308Y0063450D01*
X0039281Y0063409D01*
X0039251Y0063371D01*
X0039218Y0063335D01*
X0039182Y0063302D01*
X0039144Y0063272D01*
X0039103Y0063245D01*
X0039060Y0063221D01*
X0039016Y0063200D01*
X0038970Y0063183D01*
X0038923Y0063170D01*
X0038875Y0063161D01*
X0038827Y0063155D01*
X0038778Y0063153D01*
X0037222Y0063153D01*
X0037173Y0063155D01*
X0037125Y0063161D01*
X0037077Y0063170D01*
X0037030Y0063183D01*
X0036984Y0063200D01*
X0036940Y0063221D01*
X0036897Y0063245D01*
X0036856Y0063272D01*
X0036818Y0063302D01*
X0036782Y0063335D01*
X0036749Y0063371D01*
X0036719Y0063409D01*
X0036692Y0063450D01*
X0036668Y0063493D01*
X0036647Y0063537D01*
X0036630Y0063583D01*
X0036617Y0063630D01*
X0036608Y0063678D01*
X0036602Y0063726D01*
X0036600Y0063775D01*
X0036600Y0064708D01*
X0038156Y0064708D01*
X0038156Y0064242D01*
X0038156Y0059963D02*
X0036600Y0058641D01*
X0036600Y0060196D01*
X0038778Y0058641D02*
X0038831Y0058660D01*
X0038883Y0058682D01*
X0038933Y0058708D01*
X0038982Y0058737D01*
X0039029Y0058768D01*
X0039074Y0058803D01*
X0039116Y0058840D01*
X0039156Y0058880D01*
X0039193Y0058923D01*
X0039228Y0058967D01*
X0039260Y0059014D01*
X0039289Y0059063D01*
X0039314Y0059113D01*
X0039337Y0059165D01*
X0039356Y0059218D01*
X0039372Y0059272D01*
X0039384Y0059327D01*
X0039393Y0059383D01*
X0039398Y0059440D01*
X0039400Y0059496D01*
X0039398Y0059546D01*
X0039393Y0059596D01*
X0039384Y0059645D01*
X0039372Y0059693D01*
X0039356Y0059741D01*
X0039337Y0059787D01*
X0039314Y0059831D01*
X0039289Y0059874D01*
X0039260Y0059915D01*
X0039229Y0059954D01*
X0039195Y0059991D01*
X0039158Y0060025D01*
X0039119Y0060056D01*
X0039078Y0060085D01*
X0039035Y0060110D01*
X0038991Y0060133D01*
X0038945Y0060152D01*
X0038897Y0060168D01*
X0038849Y0060180D01*
X0038800Y0060189D01*
X0038750Y0060194D01*
X0038700Y0060196D01*
X0038700Y0060197D02*
X0038649Y0060195D01*
X0038599Y0060190D01*
X0038549Y0060182D01*
X0038499Y0060170D01*
X0038451Y0060155D01*
X0038404Y0060136D01*
X0038358Y0060115D01*
X0038313Y0060090D01*
X0038271Y0060063D01*
X0038230Y0060032D01*
X0038192Y0059999D01*
X0038155Y0059964D01*
X0037300Y0057239D02*
X0037300Y0055839D01*
X0036600Y0055605D02*
X0039400Y0056539D01*
X0036600Y0057472D01*
X0036600Y0052123D02*
X0036600Y0051345D01*
X0036600Y0052123D02*
X0036602Y0052179D01*
X0036608Y0052234D01*
X0036618Y0052288D01*
X0036632Y0052342D01*
X0036649Y0052395D01*
X0036670Y0052446D01*
X0036695Y0052496D01*
X0036724Y0052544D01*
X0036755Y0052589D01*
X0036790Y0052632D01*
X0036828Y0052673D01*
X0036869Y0052711D01*
X0036912Y0052746D01*
X0036957Y0052777D01*
X0037005Y0052806D01*
X0037055Y0052831D01*
X0037106Y0052852D01*
X0037159Y0052869D01*
X0037213Y0052883D01*
X0037267Y0052893D01*
X0037322Y0052899D01*
X0037378Y0052901D01*
X0037434Y0052899D01*
X0037489Y0052893D01*
X0037543Y0052883D01*
X0037597Y0052869D01*
X0037650Y0052852D01*
X0037701Y0052831D01*
X0037751Y0052806D01*
X0037799Y0052777D01*
X0037844Y0052746D01*
X0037887Y0052711D01*
X0037928Y0052673D01*
X0037966Y0052632D01*
X0038001Y0052589D01*
X0038032Y0052544D01*
X0038061Y0052496D01*
X0038086Y0052446D01*
X0038107Y0052395D01*
X0038124Y0052342D01*
X0038138Y0052288D01*
X0038148Y0052234D01*
X0038154Y0052179D01*
X0038156Y0052123D01*
X0038156Y0052278D02*
X0038156Y0051656D01*
X0038156Y0052278D02*
X0038158Y0052327D01*
X0038164Y0052375D01*
X0038173Y0052423D01*
X0038186Y0052470D01*
X0038203Y0052516D01*
X0038224Y0052560D01*
X0038248Y0052603D01*
X0038275Y0052644D01*
X0038305Y0052682D01*
X0038338Y0052718D01*
X0038374Y0052751D01*
X0038412Y0052781D01*
X0038453Y0052808D01*
X0038496Y0052832D01*
X0038540Y0052853D01*
X0038586Y0052870D01*
X0038633Y0052883D01*
X0038681Y0052892D01*
X0038729Y0052898D01*
X0038778Y0052900D01*
X0038827Y0052898D01*
X0038875Y0052892D01*
X0038923Y0052883D01*
X0038970Y0052870D01*
X0039016Y0052853D01*
X0039060Y0052832D01*
X0039103Y0052808D01*
X0039144Y0052781D01*
X0039182Y0052751D01*
X0039218Y0052718D01*
X0039251Y0052682D01*
X0039281Y0052644D01*
X0039308Y0052603D01*
X0039332Y0052560D01*
X0039353Y0052516D01*
X0039370Y0052470D01*
X0039383Y0052423D01*
X0039392Y0052375D01*
X0039398Y0052327D01*
X0039400Y0052278D01*
X0039400Y0051345D01*
X0039400Y0049243D02*
X0036600Y0050176D01*
X0037300Y0049943D02*
X0037300Y0048543D01*
X0036600Y0048309D02*
X0039400Y0049243D01*
X0038156Y0045371D02*
X0036600Y0044049D01*
X0036600Y0045604D01*
X0038778Y0044049D02*
X0038831Y0044068D01*
X0038883Y0044090D01*
X0038933Y0044116D01*
X0038982Y0044145D01*
X0039029Y0044176D01*
X0039074Y0044211D01*
X0039116Y0044248D01*
X0039156Y0044288D01*
X0039193Y0044331D01*
X0039228Y0044375D01*
X0039260Y0044422D01*
X0039289Y0044471D01*
X0039314Y0044521D01*
X0039337Y0044573D01*
X0039356Y0044626D01*
X0039372Y0044680D01*
X0039384Y0044735D01*
X0039393Y0044791D01*
X0039398Y0044848D01*
X0039400Y0044904D01*
X0039398Y0044954D01*
X0039393Y0045004D01*
X0039384Y0045053D01*
X0039372Y0045101D01*
X0039356Y0045149D01*
X0039337Y0045195D01*
X0039314Y0045239D01*
X0039289Y0045282D01*
X0039260Y0045323D01*
X0039229Y0045362D01*
X0039195Y0045399D01*
X0039158Y0045433D01*
X0039119Y0045464D01*
X0039078Y0045493D01*
X0039035Y0045518D01*
X0038991Y0045541D01*
X0038945Y0045560D01*
X0038897Y0045576D01*
X0038849Y0045588D01*
X0038800Y0045597D01*
X0038750Y0045602D01*
X0038700Y0045604D01*
X0038700Y0045605D02*
X0038649Y0045603D01*
X0038599Y0045598D01*
X0038549Y0045590D01*
X0038499Y0045578D01*
X0038451Y0045563D01*
X0038404Y0045544D01*
X0038358Y0045523D01*
X0038313Y0045498D01*
X0038271Y0045471D01*
X0038230Y0045440D01*
X0038192Y0045407D01*
X0038155Y0045372D01*
X0038622Y0042628D02*
X0037378Y0042628D01*
X0037378Y0042629D02*
X0037322Y0042627D01*
X0037267Y0042621D01*
X0037213Y0042611D01*
X0037159Y0042597D01*
X0037106Y0042580D01*
X0037055Y0042559D01*
X0037005Y0042534D01*
X0036957Y0042505D01*
X0036912Y0042474D01*
X0036869Y0042439D01*
X0036828Y0042401D01*
X0036790Y0042360D01*
X0036755Y0042317D01*
X0036724Y0042272D01*
X0036695Y0042224D01*
X0036670Y0042174D01*
X0036649Y0042123D01*
X0036632Y0042070D01*
X0036618Y0042016D01*
X0036608Y0041962D01*
X0036602Y0041907D01*
X0036600Y0041851D01*
X0036600Y0041073D01*
X0039400Y0041073D01*
X0039400Y0041851D01*
X0039398Y0041907D01*
X0039392Y0041962D01*
X0039382Y0042016D01*
X0039368Y0042070D01*
X0039351Y0042123D01*
X0039330Y0042174D01*
X0039305Y0042224D01*
X0039276Y0042272D01*
X0039245Y0042317D01*
X0039210Y0042360D01*
X0039172Y0042401D01*
X0039131Y0042439D01*
X0039088Y0042474D01*
X0039043Y0042505D01*
X0038995Y0042534D01*
X0038945Y0042559D01*
X0038894Y0042580D01*
X0038841Y0042597D01*
X0038787Y0042611D01*
X0038733Y0042621D01*
X0038678Y0042627D01*
X0038622Y0042629D01*
X0038156Y0037494D02*
X0038158Y0037543D01*
X0038164Y0037591D01*
X0038173Y0037639D01*
X0038186Y0037686D01*
X0038203Y0037732D01*
X0038224Y0037776D01*
X0038248Y0037819D01*
X0038275Y0037860D01*
X0038305Y0037898D01*
X0038338Y0037934D01*
X0038374Y0037967D01*
X0038412Y0037997D01*
X0038453Y0038024D01*
X0038496Y0038048D01*
X0038540Y0038069D01*
X0038586Y0038086D01*
X0038633Y0038099D01*
X0038681Y0038108D01*
X0038729Y0038114D01*
X0038778Y0038116D01*
X0038827Y0038114D01*
X0038875Y0038108D01*
X0038923Y0038099D01*
X0038970Y0038086D01*
X0039016Y0038069D01*
X0039060Y0038048D01*
X0039103Y0038024D01*
X0039144Y0037997D01*
X0039182Y0037967D01*
X0039218Y0037934D01*
X0039251Y0037898D01*
X0039281Y0037860D01*
X0039308Y0037819D01*
X0039332Y0037776D01*
X0039353Y0037732D01*
X0039370Y0037686D01*
X0039383Y0037639D01*
X0039392Y0037591D01*
X0039398Y0037543D01*
X0039400Y0037494D01*
X0039400Y0036561D01*
X0038156Y0036872D02*
X0038156Y0037494D01*
X0038156Y0037339D02*
X0038154Y0037395D01*
X0038148Y0037450D01*
X0038138Y0037504D01*
X0038124Y0037558D01*
X0038107Y0037611D01*
X0038086Y0037662D01*
X0038061Y0037712D01*
X0038032Y0037760D01*
X0038001Y0037805D01*
X0037966Y0037848D01*
X0037928Y0037889D01*
X0037887Y0037927D01*
X0037844Y0037962D01*
X0037799Y0037993D01*
X0037751Y0038022D01*
X0037701Y0038047D01*
X0037650Y0038068D01*
X0037597Y0038085D01*
X0037543Y0038099D01*
X0037489Y0038109D01*
X0037434Y0038115D01*
X0037378Y0038117D01*
X0037322Y0038115D01*
X0037267Y0038109D01*
X0037213Y0038099D01*
X0037159Y0038085D01*
X0037106Y0038068D01*
X0037055Y0038047D01*
X0037005Y0038022D01*
X0036957Y0037993D01*
X0036912Y0037962D01*
X0036869Y0037927D01*
X0036828Y0037889D01*
X0036790Y0037848D01*
X0036755Y0037805D01*
X0036724Y0037760D01*
X0036695Y0037712D01*
X0036670Y0037662D01*
X0036649Y0037611D01*
X0036632Y0037558D01*
X0036618Y0037504D01*
X0036608Y0037450D01*
X0036602Y0037395D01*
X0036600Y0037339D01*
X0036600Y0036561D01*
X0037378Y0035140D02*
X0038622Y0035140D01*
X0038622Y0035141D02*
X0038678Y0035139D01*
X0038733Y0035133D01*
X0038787Y0035123D01*
X0038841Y0035109D01*
X0038894Y0035092D01*
X0038945Y0035071D01*
X0038995Y0035046D01*
X0039043Y0035017D01*
X0039088Y0034986D01*
X0039131Y0034951D01*
X0039172Y0034913D01*
X0039210Y0034872D01*
X0039245Y0034829D01*
X0039276Y0034784D01*
X0039305Y0034736D01*
X0039330Y0034686D01*
X0039351Y0034635D01*
X0039368Y0034582D01*
X0039382Y0034528D01*
X0039392Y0034474D01*
X0039398Y0034419D01*
X0039400Y0034363D01*
X0039400Y0033585D01*
X0036600Y0033585D01*
X0036600Y0034363D01*
X0036602Y0034419D01*
X0036608Y0034474D01*
X0036618Y0034528D01*
X0036632Y0034582D01*
X0036649Y0034635D01*
X0036670Y0034686D01*
X0036695Y0034736D01*
X0036724Y0034784D01*
X0036755Y0034829D01*
X0036790Y0034872D01*
X0036828Y0034913D01*
X0036869Y0034951D01*
X0036912Y0034986D01*
X0036957Y0035017D01*
X0037005Y0035046D01*
X0037055Y0035071D01*
X0037106Y0035092D01*
X0037159Y0035109D01*
X0037213Y0035123D01*
X0037267Y0035133D01*
X0037322Y0035139D01*
X0037378Y0035141D01*
X0037222Y0030628D02*
X0037222Y0029073D01*
X0039400Y0029695D01*
X0037844Y0030162D02*
X0036600Y0030162D01*
X0037378Y0027652D02*
X0038622Y0027652D01*
X0038622Y0027653D02*
X0038678Y0027651D01*
X0038733Y0027645D01*
X0038787Y0027635D01*
X0038841Y0027621D01*
X0038894Y0027604D01*
X0038945Y0027583D01*
X0038995Y0027558D01*
X0039043Y0027529D01*
X0039088Y0027498D01*
X0039131Y0027463D01*
X0039172Y0027425D01*
X0039210Y0027384D01*
X0039245Y0027341D01*
X0039276Y0027296D01*
X0039305Y0027248D01*
X0039330Y0027198D01*
X0039351Y0027147D01*
X0039368Y0027094D01*
X0039382Y0027040D01*
X0039392Y0026986D01*
X0039398Y0026931D01*
X0039400Y0026875D01*
X0039400Y0026097D01*
X0036600Y0026097D01*
X0036600Y0026875D01*
X0036602Y0026931D01*
X0036608Y0026986D01*
X0036618Y0027040D01*
X0036632Y0027094D01*
X0036649Y0027147D01*
X0036670Y0027198D01*
X0036695Y0027248D01*
X0036724Y0027296D01*
X0036755Y0027341D01*
X0036790Y0027384D01*
X0036828Y0027425D01*
X0036869Y0027463D01*
X0036912Y0027498D01*
X0036957Y0027529D01*
X0037005Y0027558D01*
X0037055Y0027583D01*
X0037106Y0027604D01*
X0037159Y0027621D01*
X0037213Y0027635D01*
X0037267Y0027645D01*
X0037322Y0027651D01*
X0037378Y0027653D01*
D12*
X0044400Y0024403D02*
X0046600Y0024403D01*
X0046600Y0024402D02*
X0046652Y0024400D01*
X0046704Y0024395D01*
X0046756Y0024385D01*
X0046807Y0024372D01*
X0046856Y0024356D01*
X0046904Y0024336D01*
X0046951Y0024312D01*
X0046996Y0024286D01*
X0047039Y0024256D01*
X0047080Y0024223D01*
X0047118Y0024187D01*
X0047154Y0024149D01*
X0047187Y0024108D01*
X0047217Y0024065D01*
X0047243Y0024020D01*
X0047267Y0023973D01*
X0047287Y0023925D01*
X0047303Y0023876D01*
X0047316Y0023825D01*
X0047326Y0023773D01*
X0047331Y0023721D01*
X0047333Y0023669D01*
X0047333Y0021469D01*
X0044400Y0021469D01*
X0044400Y0022936D02*
X0047333Y0022936D01*
X0046356Y0019264D02*
X0045867Y0019264D01*
X0045867Y0017308D01*
X0046356Y0017308D02*
X0045133Y0017308D01*
X0045133Y0017309D02*
X0045081Y0017311D01*
X0045029Y0017316D01*
X0044977Y0017326D01*
X0044926Y0017339D01*
X0044877Y0017355D01*
X0044829Y0017375D01*
X0044782Y0017399D01*
X0044737Y0017425D01*
X0044694Y0017455D01*
X0044653Y0017488D01*
X0044615Y0017524D01*
X0044579Y0017562D01*
X0044546Y0017603D01*
X0044516Y0017646D01*
X0044490Y0017691D01*
X0044466Y0017738D01*
X0044446Y0017786D01*
X0044430Y0017835D01*
X0044417Y0017886D01*
X0044407Y0017938D01*
X0044402Y0017990D01*
X0044400Y0018042D01*
X0044400Y0019264D01*
X0046356Y0019264D02*
X0046417Y0019262D01*
X0046479Y0019256D01*
X0046539Y0019247D01*
X0046599Y0019233D01*
X0046658Y0019216D01*
X0046716Y0019195D01*
X0046772Y0019171D01*
X0046827Y0019143D01*
X0046880Y0019112D01*
X0046931Y0019077D01*
X0046979Y0019040D01*
X0047025Y0018999D01*
X0047069Y0018955D01*
X0047110Y0018909D01*
X0047147Y0018861D01*
X0047182Y0018810D01*
X0047213Y0018757D01*
X0047241Y0018702D01*
X0047265Y0018646D01*
X0047286Y0018588D01*
X0047303Y0018529D01*
X0047317Y0018469D01*
X0047326Y0018409D01*
X0047332Y0018347D01*
X0047334Y0018286D01*
X0047332Y0018225D01*
X0047326Y0018163D01*
X0047317Y0018103D01*
X0047303Y0018043D01*
X0047286Y0017984D01*
X0047265Y0017926D01*
X0047241Y0017870D01*
X0047213Y0017815D01*
X0047182Y0017762D01*
X0047147Y0017711D01*
X0047110Y0017663D01*
X0047069Y0017617D01*
X0047025Y0017573D01*
X0046979Y0017532D01*
X0046931Y0017495D01*
X0046880Y0017460D01*
X0046827Y0017429D01*
X0046772Y0017401D01*
X0046716Y0017377D01*
X0046658Y0017356D01*
X0046599Y0017339D01*
X0046539Y0017325D01*
X0046479Y0017316D01*
X0046417Y0017310D01*
X0046356Y0017308D01*
X0044400Y0015344D02*
X0046356Y0014367D01*
X0046356Y0014122D02*
X0046356Y0012900D01*
X0046356Y0014122D02*
X0046358Y0014191D01*
X0046364Y0014259D01*
X0046373Y0014327D01*
X0046387Y0014394D01*
X0046404Y0014460D01*
X0046425Y0014526D01*
X0046449Y0014590D01*
X0046477Y0014652D01*
X0046508Y0014713D01*
X0046543Y0014772D01*
X0046581Y0014829D01*
X0046623Y0014884D01*
X0046667Y0014936D01*
X0046714Y0014986D01*
X0046764Y0015033D01*
X0046816Y0015077D01*
X0046871Y0015119D01*
X0046928Y0015157D01*
X0046987Y0015192D01*
X0047048Y0015223D01*
X0047110Y0015251D01*
X0047174Y0015275D01*
X0047240Y0015296D01*
X0047306Y0015313D01*
X0047373Y0015327D01*
X0047441Y0015336D01*
X0047509Y0015342D01*
X0047578Y0015344D01*
X0047647Y0015342D01*
X0047715Y0015336D01*
X0047783Y0015327D01*
X0047850Y0015313D01*
X0047916Y0015296D01*
X0047982Y0015275D01*
X0048046Y0015251D01*
X0048108Y0015223D01*
X0048169Y0015192D01*
X0048228Y0015157D01*
X0048285Y0015119D01*
X0048340Y0015077D01*
X0048392Y0015033D01*
X0048442Y0014986D01*
X0048489Y0014936D01*
X0048533Y0014884D01*
X0048575Y0014829D01*
X0048613Y0014772D01*
X0048648Y0014713D01*
X0048679Y0014652D01*
X0048707Y0014590D01*
X0048731Y0014526D01*
X0048752Y0014460D01*
X0048769Y0014394D01*
X0048783Y0014327D01*
X0048792Y0014259D01*
X0048798Y0014191D01*
X0048800Y0014122D01*
X0048800Y0012900D01*
X0044400Y0012900D01*
X0045378Y0026608D02*
X0046356Y0026608D01*
X0046417Y0026610D01*
X0046479Y0026616D01*
X0046539Y0026625D01*
X0046599Y0026639D01*
X0046658Y0026656D01*
X0046716Y0026677D01*
X0046772Y0026701D01*
X0046827Y0026729D01*
X0046880Y0026760D01*
X0046931Y0026795D01*
X0046979Y0026832D01*
X0047025Y0026873D01*
X0047069Y0026917D01*
X0047110Y0026963D01*
X0047147Y0027011D01*
X0047182Y0027062D01*
X0047213Y0027115D01*
X0047241Y0027170D01*
X0047265Y0027226D01*
X0047286Y0027284D01*
X0047303Y0027343D01*
X0047317Y0027403D01*
X0047326Y0027463D01*
X0047332Y0027525D01*
X0047334Y0027586D01*
X0047332Y0027647D01*
X0047326Y0027709D01*
X0047317Y0027769D01*
X0047303Y0027829D01*
X0047286Y0027888D01*
X0047265Y0027946D01*
X0047241Y0028002D01*
X0047213Y0028057D01*
X0047182Y0028110D01*
X0047147Y0028161D01*
X0047110Y0028209D01*
X0047069Y0028255D01*
X0047025Y0028299D01*
X0046979Y0028340D01*
X0046931Y0028377D01*
X0046880Y0028412D01*
X0046827Y0028443D01*
X0046772Y0028471D01*
X0046716Y0028495D01*
X0046658Y0028516D01*
X0046599Y0028533D01*
X0046539Y0028547D01*
X0046479Y0028556D01*
X0046417Y0028562D01*
X0046356Y0028564D01*
X0045378Y0028564D01*
X0045317Y0028562D01*
X0045255Y0028556D01*
X0045195Y0028547D01*
X0045135Y0028533D01*
X0045076Y0028516D01*
X0045018Y0028495D01*
X0044962Y0028471D01*
X0044907Y0028443D01*
X0044854Y0028412D01*
X0044803Y0028377D01*
X0044755Y0028340D01*
X0044709Y0028299D01*
X0044665Y0028255D01*
X0044624Y0028209D01*
X0044587Y0028161D01*
X0044552Y0028110D01*
X0044521Y0028057D01*
X0044493Y0028002D01*
X0044469Y0027946D01*
X0044448Y0027888D01*
X0044431Y0027829D01*
X0044417Y0027769D01*
X0044408Y0027709D01*
X0044402Y0027647D01*
X0044400Y0027586D01*
X0044402Y0027525D01*
X0044408Y0027463D01*
X0044417Y0027403D01*
X0044431Y0027343D01*
X0044448Y0027284D01*
X0044469Y0027226D01*
X0044493Y0027170D01*
X0044521Y0027115D01*
X0044552Y0027062D01*
X0044587Y0027011D01*
X0044624Y0026963D01*
X0044665Y0026917D01*
X0044709Y0026873D01*
X0044755Y0026832D01*
X0044803Y0026795D01*
X0044854Y0026760D01*
X0044907Y0026729D01*
X0044962Y0026701D01*
X0045018Y0026677D01*
X0045076Y0026656D01*
X0045135Y0026639D01*
X0045195Y0026625D01*
X0045255Y0026616D01*
X0045317Y0026610D01*
X0045378Y0026608D01*
X0045133Y0030596D02*
X0048800Y0030596D01*
X0047333Y0030107D02*
X0047333Y0031574D01*
X0046356Y0033358D02*
X0045133Y0033358D01*
X0045081Y0033360D01*
X0045029Y0033365D01*
X0044977Y0033375D01*
X0044926Y0033388D01*
X0044877Y0033404D01*
X0044829Y0033424D01*
X0044782Y0033448D01*
X0044737Y0033474D01*
X0044694Y0033504D01*
X0044653Y0033537D01*
X0044615Y0033573D01*
X0044579Y0033611D01*
X0044546Y0033652D01*
X0044516Y0033695D01*
X0044490Y0033740D01*
X0044466Y0033787D01*
X0044446Y0033835D01*
X0044430Y0033884D01*
X0044417Y0033935D01*
X0044407Y0033987D01*
X0044402Y0034039D01*
X0044400Y0034091D01*
X0044400Y0035314D01*
X0045867Y0035314D02*
X0045867Y0033358D01*
X0046356Y0033358D02*
X0046417Y0033360D01*
X0046479Y0033366D01*
X0046539Y0033375D01*
X0046599Y0033389D01*
X0046658Y0033406D01*
X0046716Y0033427D01*
X0046772Y0033451D01*
X0046827Y0033479D01*
X0046880Y0033510D01*
X0046931Y0033545D01*
X0046979Y0033582D01*
X0047025Y0033623D01*
X0047069Y0033667D01*
X0047110Y0033713D01*
X0047147Y0033761D01*
X0047182Y0033812D01*
X0047213Y0033865D01*
X0047241Y0033920D01*
X0047265Y0033976D01*
X0047286Y0034034D01*
X0047303Y0034093D01*
X0047317Y0034153D01*
X0047326Y0034213D01*
X0047332Y0034275D01*
X0047334Y0034336D01*
X0047332Y0034397D01*
X0047326Y0034459D01*
X0047317Y0034519D01*
X0047303Y0034579D01*
X0047286Y0034638D01*
X0047265Y0034696D01*
X0047241Y0034752D01*
X0047213Y0034807D01*
X0047182Y0034860D01*
X0047147Y0034911D01*
X0047110Y0034959D01*
X0047069Y0035005D01*
X0047025Y0035049D01*
X0046979Y0035090D01*
X0046931Y0035127D01*
X0046880Y0035162D01*
X0046827Y0035193D01*
X0046772Y0035221D01*
X0046716Y0035245D01*
X0046658Y0035266D01*
X0046599Y0035283D01*
X0046539Y0035297D01*
X0046479Y0035306D01*
X0046417Y0035312D01*
X0046356Y0035314D01*
X0045867Y0035314D01*
X0044400Y0031574D02*
X0044400Y0031329D01*
X0044402Y0031277D01*
X0044407Y0031225D01*
X0044417Y0031173D01*
X0044430Y0031122D01*
X0044446Y0031073D01*
X0044466Y0031025D01*
X0044490Y0030978D01*
X0044516Y0030933D01*
X0044546Y0030890D01*
X0044579Y0030849D01*
X0044615Y0030811D01*
X0044653Y0030775D01*
X0044694Y0030742D01*
X0044737Y0030712D01*
X0044782Y0030686D01*
X0044829Y0030662D01*
X0044877Y0030642D01*
X0044926Y0030626D01*
X0044977Y0030613D01*
X0045029Y0030603D01*
X0045081Y0030598D01*
X0045133Y0030596D01*
X0045622Y0115400D02*
X0048800Y0115400D01*
X0048800Y0117844D02*
X0045622Y0117844D01*
X0045553Y0117842D01*
X0045485Y0117836D01*
X0045417Y0117827D01*
X0045350Y0117813D01*
X0045284Y0117796D01*
X0045218Y0117775D01*
X0045154Y0117751D01*
X0045092Y0117723D01*
X0045031Y0117692D01*
X0044972Y0117657D01*
X0044915Y0117619D01*
X0044860Y0117577D01*
X0044808Y0117533D01*
X0044758Y0117486D01*
X0044711Y0117436D01*
X0044667Y0117384D01*
X0044625Y0117329D01*
X0044587Y0117272D01*
X0044552Y0117213D01*
X0044521Y0117152D01*
X0044493Y0117090D01*
X0044469Y0117026D01*
X0044448Y0116960D01*
X0044431Y0116894D01*
X0044417Y0116827D01*
X0044408Y0116759D01*
X0044402Y0116691D01*
X0044400Y0116622D01*
X0044402Y0116553D01*
X0044408Y0116485D01*
X0044417Y0116417D01*
X0044431Y0116350D01*
X0044448Y0116284D01*
X0044469Y0116218D01*
X0044493Y0116154D01*
X0044521Y0116092D01*
X0044552Y0116031D01*
X0044587Y0115972D01*
X0044625Y0115915D01*
X0044667Y0115860D01*
X0044711Y0115808D01*
X0044758Y0115758D01*
X0044808Y0115711D01*
X0044860Y0115667D01*
X0044915Y0115625D01*
X0044972Y0115587D01*
X0045031Y0115552D01*
X0045092Y0115521D01*
X0045154Y0115493D01*
X0045218Y0115469D01*
X0045284Y0115448D01*
X0045350Y0115431D01*
X0045417Y0115417D01*
X0045485Y0115408D01*
X0045553Y0115402D01*
X0045622Y0115400D01*
X0044400Y0119806D02*
X0048800Y0121272D01*
X0044400Y0122739D01*
X0045500Y0122372D02*
X0045500Y0120172D01*
X0046356Y0124736D02*
X0046356Y0125958D01*
X0046356Y0126203D02*
X0044400Y0127181D01*
X0044400Y0124736D02*
X0048800Y0124736D01*
X0048800Y0125958D01*
X0048798Y0126027D01*
X0048792Y0126095D01*
X0048783Y0126163D01*
X0048769Y0126230D01*
X0048752Y0126296D01*
X0048731Y0126362D01*
X0048707Y0126426D01*
X0048679Y0126488D01*
X0048648Y0126549D01*
X0048613Y0126608D01*
X0048575Y0126665D01*
X0048533Y0126720D01*
X0048489Y0126772D01*
X0048442Y0126822D01*
X0048392Y0126869D01*
X0048340Y0126913D01*
X0048285Y0126955D01*
X0048228Y0126993D01*
X0048169Y0127028D01*
X0048108Y0127059D01*
X0048046Y0127087D01*
X0047982Y0127111D01*
X0047916Y0127132D01*
X0047850Y0127149D01*
X0047783Y0127163D01*
X0047715Y0127172D01*
X0047647Y0127178D01*
X0047578Y0127180D01*
X0047509Y0127178D01*
X0047441Y0127172D01*
X0047373Y0127163D01*
X0047306Y0127149D01*
X0047240Y0127132D01*
X0047174Y0127111D01*
X0047110Y0127087D01*
X0047048Y0127059D01*
X0046987Y0127028D01*
X0046928Y0126993D01*
X0046871Y0126955D01*
X0046816Y0126913D01*
X0046764Y0126869D01*
X0046714Y0126822D01*
X0046667Y0126772D01*
X0046623Y0126720D01*
X0046581Y0126665D01*
X0046543Y0126608D01*
X0046508Y0126549D01*
X0046477Y0126488D01*
X0046449Y0126426D01*
X0046425Y0126362D01*
X0046404Y0126296D01*
X0046387Y0126230D01*
X0046373Y0126163D01*
X0046364Y0126095D01*
X0046358Y0126027D01*
X0046356Y0125958D01*
X0048800Y0128900D02*
X0048800Y0131344D01*
X0048800Y0130122D02*
X0044400Y0130122D01*
X0224400Y0163856D02*
X0224400Y0166300D01*
X0224400Y0165078D02*
X0228800Y0165078D01*
X0227578Y0168206D02*
X0224400Y0168206D01*
X0227578Y0168206D02*
X0227647Y0168208D01*
X0227715Y0168214D01*
X0227783Y0168223D01*
X0227850Y0168237D01*
X0227916Y0168254D01*
X0227982Y0168275D01*
X0228046Y0168299D01*
X0228108Y0168327D01*
X0228169Y0168358D01*
X0228228Y0168393D01*
X0228285Y0168431D01*
X0228340Y0168473D01*
X0228392Y0168517D01*
X0228442Y0168564D01*
X0228489Y0168614D01*
X0228533Y0168666D01*
X0228575Y0168721D01*
X0228613Y0168778D01*
X0228648Y0168837D01*
X0228679Y0168898D01*
X0228707Y0168960D01*
X0228731Y0169024D01*
X0228752Y0169090D01*
X0228769Y0169156D01*
X0228783Y0169223D01*
X0228792Y0169291D01*
X0228798Y0169359D01*
X0228800Y0169428D01*
X0228798Y0169497D01*
X0228792Y0169565D01*
X0228783Y0169633D01*
X0228769Y0169700D01*
X0228752Y0169766D01*
X0228731Y0169832D01*
X0228707Y0169896D01*
X0228679Y0169958D01*
X0228648Y0170019D01*
X0228613Y0170078D01*
X0228575Y0170135D01*
X0228533Y0170190D01*
X0228489Y0170242D01*
X0228442Y0170292D01*
X0228392Y0170339D01*
X0228340Y0170383D01*
X0228285Y0170425D01*
X0228228Y0170463D01*
X0228169Y0170498D01*
X0228108Y0170529D01*
X0228046Y0170557D01*
X0227982Y0170581D01*
X0227916Y0170602D01*
X0227850Y0170619D01*
X0227783Y0170633D01*
X0227715Y0170642D01*
X0227647Y0170648D01*
X0227578Y0170650D01*
X0224400Y0170650D01*
X0225622Y0172856D02*
X0227578Y0172856D01*
X0227647Y0172858D01*
X0227715Y0172864D01*
X0227783Y0172873D01*
X0227850Y0172887D01*
X0227916Y0172904D01*
X0227982Y0172925D01*
X0228046Y0172949D01*
X0228108Y0172977D01*
X0228169Y0173008D01*
X0228228Y0173043D01*
X0228285Y0173081D01*
X0228340Y0173123D01*
X0228392Y0173167D01*
X0228442Y0173214D01*
X0228489Y0173264D01*
X0228533Y0173316D01*
X0228575Y0173371D01*
X0228613Y0173428D01*
X0228648Y0173487D01*
X0228679Y0173548D01*
X0228707Y0173610D01*
X0228731Y0173674D01*
X0228752Y0173740D01*
X0228769Y0173806D01*
X0228783Y0173873D01*
X0228792Y0173941D01*
X0228798Y0174009D01*
X0228800Y0174078D01*
X0228798Y0174147D01*
X0228792Y0174215D01*
X0228783Y0174283D01*
X0228769Y0174350D01*
X0228752Y0174416D01*
X0228731Y0174482D01*
X0228707Y0174546D01*
X0228679Y0174608D01*
X0228648Y0174669D01*
X0228613Y0174728D01*
X0228575Y0174785D01*
X0228533Y0174840D01*
X0228489Y0174892D01*
X0228442Y0174942D01*
X0228392Y0174989D01*
X0228340Y0175033D01*
X0228285Y0175075D01*
X0228228Y0175113D01*
X0228169Y0175148D01*
X0228108Y0175179D01*
X0228046Y0175207D01*
X0227982Y0175231D01*
X0227916Y0175252D01*
X0227850Y0175269D01*
X0227783Y0175283D01*
X0227715Y0175292D01*
X0227647Y0175298D01*
X0227578Y0175300D01*
X0225622Y0175300D01*
X0225553Y0175298D01*
X0225485Y0175292D01*
X0225417Y0175283D01*
X0225350Y0175269D01*
X0225284Y0175252D01*
X0225218Y0175231D01*
X0225154Y0175207D01*
X0225092Y0175179D01*
X0225031Y0175148D01*
X0224972Y0175113D01*
X0224915Y0175075D01*
X0224860Y0175033D01*
X0224808Y0174989D01*
X0224758Y0174942D01*
X0224711Y0174892D01*
X0224667Y0174840D01*
X0224625Y0174785D01*
X0224587Y0174728D01*
X0224552Y0174669D01*
X0224521Y0174608D01*
X0224493Y0174546D01*
X0224469Y0174482D01*
X0224448Y0174416D01*
X0224431Y0174350D01*
X0224417Y0174283D01*
X0224408Y0174215D01*
X0224402Y0174147D01*
X0224400Y0174078D01*
X0224402Y0174009D01*
X0224408Y0173941D01*
X0224417Y0173873D01*
X0224431Y0173806D01*
X0224448Y0173740D01*
X0224469Y0173674D01*
X0224493Y0173610D01*
X0224521Y0173548D01*
X0224552Y0173487D01*
X0224587Y0173428D01*
X0224625Y0173371D01*
X0224667Y0173316D01*
X0224711Y0173264D01*
X0224758Y0173214D01*
X0224808Y0173167D01*
X0224860Y0173123D01*
X0224915Y0173081D01*
X0224972Y0173043D01*
X0225031Y0173008D01*
X0225092Y0172977D01*
X0225154Y0172949D01*
X0225218Y0172925D01*
X0225284Y0172904D01*
X0225350Y0172887D01*
X0225417Y0172873D01*
X0225485Y0172864D01*
X0225553Y0172858D01*
X0225622Y0172856D01*
X0259400Y0169400D02*
X0259400Y0167933D01*
X0259402Y0167872D01*
X0259408Y0167810D01*
X0259417Y0167750D01*
X0259431Y0167690D01*
X0259448Y0167631D01*
X0259469Y0167573D01*
X0259493Y0167517D01*
X0259521Y0167462D01*
X0259552Y0167409D01*
X0259587Y0167358D01*
X0259624Y0167310D01*
X0259665Y0167264D01*
X0259709Y0167220D01*
X0259755Y0167179D01*
X0259803Y0167142D01*
X0259854Y0167107D01*
X0259907Y0167076D01*
X0259962Y0167048D01*
X0260018Y0167024D01*
X0260076Y0167003D01*
X0260135Y0166986D01*
X0260195Y0166972D01*
X0260255Y0166963D01*
X0260317Y0166957D01*
X0260378Y0166955D01*
X0260439Y0166957D01*
X0260501Y0166963D01*
X0260561Y0166972D01*
X0260621Y0166986D01*
X0260680Y0167003D01*
X0260738Y0167024D01*
X0260794Y0167048D01*
X0260849Y0167076D01*
X0260902Y0167107D01*
X0260953Y0167142D01*
X0261001Y0167179D01*
X0261047Y0167220D01*
X0261091Y0167264D01*
X0261132Y0167310D01*
X0261169Y0167358D01*
X0261204Y0167409D01*
X0261235Y0167462D01*
X0261263Y0167517D01*
X0261287Y0167573D01*
X0261308Y0167631D01*
X0261325Y0167690D01*
X0261339Y0167750D01*
X0261348Y0167810D01*
X0261354Y0167872D01*
X0261356Y0167933D01*
X0261356Y0168911D01*
X0261356Y0168178D02*
X0261358Y0168109D01*
X0261364Y0168041D01*
X0261373Y0167973D01*
X0261387Y0167906D01*
X0261404Y0167840D01*
X0261425Y0167774D01*
X0261449Y0167710D01*
X0261477Y0167648D01*
X0261508Y0167587D01*
X0261543Y0167528D01*
X0261581Y0167471D01*
X0261623Y0167416D01*
X0261667Y0167364D01*
X0261714Y0167314D01*
X0261764Y0167267D01*
X0261816Y0167223D01*
X0261871Y0167181D01*
X0261928Y0167143D01*
X0261987Y0167108D01*
X0262048Y0167077D01*
X0262110Y0167049D01*
X0262174Y0167025D01*
X0262240Y0167004D01*
X0262306Y0166987D01*
X0262373Y0166973D01*
X0262441Y0166964D01*
X0262509Y0166958D01*
X0262578Y0166956D01*
X0262647Y0166958D01*
X0262715Y0166964D01*
X0262783Y0166973D01*
X0262850Y0166987D01*
X0262916Y0167004D01*
X0262982Y0167025D01*
X0263046Y0167049D01*
X0263108Y0167077D01*
X0263169Y0167108D01*
X0263228Y0167143D01*
X0263285Y0167181D01*
X0263340Y0167223D01*
X0263392Y0167267D01*
X0263442Y0167314D01*
X0263489Y0167364D01*
X0263533Y0167416D01*
X0263575Y0167471D01*
X0263613Y0167528D01*
X0263648Y0167587D01*
X0263679Y0167648D01*
X0263707Y0167710D01*
X0263731Y0167774D01*
X0263752Y0167840D01*
X0263769Y0167906D01*
X0263783Y0167973D01*
X0263792Y0168041D01*
X0263798Y0168109D01*
X0263800Y0168178D01*
X0263800Y0169400D01*
X0263800Y0178656D02*
X0263800Y0181100D01*
X0261356Y0179022D01*
X0259400Y0179756D02*
X0259402Y0179830D01*
X0259408Y0179904D01*
X0259417Y0179977D01*
X0259431Y0180050D01*
X0259448Y0180122D01*
X0259469Y0180193D01*
X0259494Y0180263D01*
X0259522Y0180331D01*
X0259554Y0180398D01*
X0259590Y0180463D01*
X0259628Y0180526D01*
X0259670Y0180587D01*
X0259715Y0180646D01*
X0259763Y0180702D01*
X0259814Y0180756D01*
X0259868Y0180807D01*
X0259925Y0180855D01*
X0259983Y0180900D01*
X0260044Y0180942D01*
X0260107Y0180980D01*
X0260173Y0181016D01*
X0260239Y0181047D01*
X0260308Y0181076D01*
X0260378Y0181100D01*
X0261355Y0179023D02*
X0261307Y0178974D01*
X0261255Y0178929D01*
X0261202Y0178887D01*
X0261146Y0178848D01*
X0261087Y0178812D01*
X0261027Y0178780D01*
X0260965Y0178751D01*
X0260902Y0178726D01*
X0260837Y0178705D01*
X0260771Y0178687D01*
X0260704Y0178674D01*
X0260636Y0178664D01*
X0260568Y0178658D01*
X0260500Y0178656D01*
X0260436Y0178658D01*
X0260372Y0178663D01*
X0260309Y0178673D01*
X0260246Y0178686D01*
X0260185Y0178702D01*
X0260124Y0178722D01*
X0260064Y0178746D01*
X0260006Y0178773D01*
X0259950Y0178803D01*
X0259896Y0178837D01*
X0259843Y0178874D01*
X0259793Y0178913D01*
X0259745Y0178956D01*
X0259700Y0179001D01*
X0259657Y0179049D01*
X0259618Y0179099D01*
X0259581Y0179152D01*
X0259547Y0179206D01*
X0259517Y0179262D01*
X0259490Y0179320D01*
X0259466Y0179380D01*
X0259446Y0179441D01*
X0259430Y0179502D01*
X0259417Y0179565D01*
X0259407Y0179628D01*
X0259402Y0179692D01*
X0259400Y0179756D01*
X0263800Y0190356D02*
X0263800Y0192800D01*
X0263800Y0191578D02*
X0259400Y0191578D01*
X0260378Y0192800D01*
X0262822Y0157700D02*
X0259400Y0156722D01*
X0261844Y0155989D02*
X0263800Y0155989D01*
X0262822Y0155256D02*
X0262822Y0157700D01*
X0263800Y0146000D02*
X0263800Y0144533D01*
X0263798Y0144472D01*
X0263792Y0144410D01*
X0263783Y0144350D01*
X0263769Y0144290D01*
X0263752Y0144231D01*
X0263731Y0144173D01*
X0263707Y0144117D01*
X0263679Y0144062D01*
X0263648Y0144009D01*
X0263613Y0143958D01*
X0263576Y0143910D01*
X0263535Y0143864D01*
X0263491Y0143820D01*
X0263445Y0143779D01*
X0263397Y0143742D01*
X0263346Y0143707D01*
X0263293Y0143676D01*
X0263238Y0143648D01*
X0263182Y0143624D01*
X0263124Y0143603D01*
X0263065Y0143586D01*
X0263005Y0143572D01*
X0262945Y0143563D01*
X0262883Y0143557D01*
X0262822Y0143555D01*
X0262822Y0143556D02*
X0262333Y0143556D01*
X0262333Y0143555D02*
X0262272Y0143557D01*
X0262210Y0143563D01*
X0262150Y0143572D01*
X0262090Y0143586D01*
X0262031Y0143603D01*
X0261973Y0143624D01*
X0261917Y0143648D01*
X0261862Y0143676D01*
X0261809Y0143707D01*
X0261758Y0143742D01*
X0261710Y0143779D01*
X0261664Y0143820D01*
X0261620Y0143864D01*
X0261579Y0143910D01*
X0261542Y0143958D01*
X0261507Y0144009D01*
X0261476Y0144062D01*
X0261448Y0144117D01*
X0261424Y0144173D01*
X0261403Y0144231D01*
X0261386Y0144290D01*
X0261372Y0144350D01*
X0261363Y0144410D01*
X0261357Y0144472D01*
X0261355Y0144533D01*
X0261356Y0144533D02*
X0261356Y0146000D01*
X0259400Y0146000D01*
X0259400Y0143556D01*
X0260378Y0117800D02*
X0259400Y0116578D01*
X0263800Y0116578D01*
X0263800Y0117800D02*
X0263800Y0115356D01*
X0263800Y0106100D02*
X0263800Y0103656D01*
X0263800Y0106100D02*
X0261356Y0104022D01*
X0259400Y0104756D02*
X0259402Y0104830D01*
X0259408Y0104904D01*
X0259417Y0104977D01*
X0259431Y0105050D01*
X0259448Y0105122D01*
X0259469Y0105193D01*
X0259494Y0105263D01*
X0259522Y0105331D01*
X0259554Y0105398D01*
X0259590Y0105463D01*
X0259628Y0105526D01*
X0259670Y0105587D01*
X0259715Y0105646D01*
X0259763Y0105702D01*
X0259814Y0105756D01*
X0259868Y0105807D01*
X0259925Y0105855D01*
X0259983Y0105900D01*
X0260044Y0105942D01*
X0260107Y0105980D01*
X0260173Y0106016D01*
X0260239Y0106047D01*
X0260308Y0106076D01*
X0260378Y0106100D01*
X0261355Y0104023D02*
X0261307Y0103974D01*
X0261255Y0103929D01*
X0261202Y0103887D01*
X0261146Y0103848D01*
X0261087Y0103812D01*
X0261027Y0103780D01*
X0260965Y0103751D01*
X0260902Y0103726D01*
X0260837Y0103705D01*
X0260771Y0103687D01*
X0260704Y0103674D01*
X0260636Y0103664D01*
X0260568Y0103658D01*
X0260500Y0103656D01*
X0260436Y0103658D01*
X0260372Y0103663D01*
X0260309Y0103673D01*
X0260246Y0103686D01*
X0260185Y0103702D01*
X0260124Y0103722D01*
X0260064Y0103746D01*
X0260006Y0103773D01*
X0259950Y0103803D01*
X0259896Y0103837D01*
X0259843Y0103874D01*
X0259793Y0103913D01*
X0259745Y0103956D01*
X0259700Y0104001D01*
X0259657Y0104049D01*
X0259618Y0104099D01*
X0259581Y0104152D01*
X0259547Y0104206D01*
X0259517Y0104262D01*
X0259490Y0104320D01*
X0259466Y0104380D01*
X0259446Y0104441D01*
X0259430Y0104502D01*
X0259417Y0104565D01*
X0259407Y0104628D01*
X0259402Y0104692D01*
X0259400Y0104756D01*
X0259400Y0094400D02*
X0259400Y0092933D01*
X0259402Y0092872D01*
X0259408Y0092810D01*
X0259417Y0092750D01*
X0259431Y0092690D01*
X0259448Y0092631D01*
X0259469Y0092573D01*
X0259493Y0092517D01*
X0259521Y0092462D01*
X0259552Y0092409D01*
X0259587Y0092358D01*
X0259624Y0092310D01*
X0259665Y0092264D01*
X0259709Y0092220D01*
X0259755Y0092179D01*
X0259803Y0092142D01*
X0259854Y0092107D01*
X0259907Y0092076D01*
X0259962Y0092048D01*
X0260018Y0092024D01*
X0260076Y0092003D01*
X0260135Y0091986D01*
X0260195Y0091972D01*
X0260255Y0091963D01*
X0260317Y0091957D01*
X0260378Y0091955D01*
X0260439Y0091957D01*
X0260501Y0091963D01*
X0260561Y0091972D01*
X0260621Y0091986D01*
X0260680Y0092003D01*
X0260738Y0092024D01*
X0260794Y0092048D01*
X0260849Y0092076D01*
X0260902Y0092107D01*
X0260953Y0092142D01*
X0261001Y0092179D01*
X0261047Y0092220D01*
X0261091Y0092264D01*
X0261132Y0092310D01*
X0261169Y0092358D01*
X0261204Y0092409D01*
X0261235Y0092462D01*
X0261263Y0092517D01*
X0261287Y0092573D01*
X0261308Y0092631D01*
X0261325Y0092690D01*
X0261339Y0092750D01*
X0261348Y0092810D01*
X0261354Y0092872D01*
X0261356Y0092933D01*
X0261356Y0093911D01*
X0261356Y0093178D02*
X0261358Y0093109D01*
X0261364Y0093041D01*
X0261373Y0092973D01*
X0261387Y0092906D01*
X0261404Y0092840D01*
X0261425Y0092774D01*
X0261449Y0092710D01*
X0261477Y0092648D01*
X0261508Y0092587D01*
X0261543Y0092528D01*
X0261581Y0092471D01*
X0261623Y0092416D01*
X0261667Y0092364D01*
X0261714Y0092314D01*
X0261764Y0092267D01*
X0261816Y0092223D01*
X0261871Y0092181D01*
X0261928Y0092143D01*
X0261987Y0092108D01*
X0262048Y0092077D01*
X0262110Y0092049D01*
X0262174Y0092025D01*
X0262240Y0092004D01*
X0262306Y0091987D01*
X0262373Y0091973D01*
X0262441Y0091964D01*
X0262509Y0091958D01*
X0262578Y0091956D01*
X0262647Y0091958D01*
X0262715Y0091964D01*
X0262783Y0091973D01*
X0262850Y0091987D01*
X0262916Y0092004D01*
X0262982Y0092025D01*
X0263046Y0092049D01*
X0263108Y0092077D01*
X0263169Y0092108D01*
X0263228Y0092143D01*
X0263285Y0092181D01*
X0263340Y0092223D01*
X0263392Y0092267D01*
X0263442Y0092314D01*
X0263489Y0092364D01*
X0263533Y0092416D01*
X0263575Y0092471D01*
X0263613Y0092528D01*
X0263648Y0092587D01*
X0263679Y0092648D01*
X0263707Y0092710D01*
X0263731Y0092774D01*
X0263752Y0092840D01*
X0263769Y0092906D01*
X0263783Y0092973D01*
X0263792Y0093041D01*
X0263798Y0093109D01*
X0263800Y0093178D01*
X0263800Y0094400D01*
X0262822Y0082700D02*
X0259400Y0081722D01*
X0261844Y0080989D02*
X0263800Y0080989D01*
X0262822Y0080256D02*
X0262822Y0082700D01*
X0263800Y0071000D02*
X0263800Y0069533D01*
X0263798Y0069472D01*
X0263792Y0069410D01*
X0263783Y0069350D01*
X0263769Y0069290D01*
X0263752Y0069231D01*
X0263731Y0069173D01*
X0263707Y0069117D01*
X0263679Y0069062D01*
X0263648Y0069009D01*
X0263613Y0068958D01*
X0263576Y0068910D01*
X0263535Y0068864D01*
X0263491Y0068820D01*
X0263445Y0068779D01*
X0263397Y0068742D01*
X0263346Y0068707D01*
X0263293Y0068676D01*
X0263238Y0068648D01*
X0263182Y0068624D01*
X0263124Y0068603D01*
X0263065Y0068586D01*
X0263005Y0068572D01*
X0262945Y0068563D01*
X0262883Y0068557D01*
X0262822Y0068555D01*
X0262822Y0068556D02*
X0262333Y0068556D01*
X0262333Y0068555D02*
X0262272Y0068557D01*
X0262210Y0068563D01*
X0262150Y0068572D01*
X0262090Y0068586D01*
X0262031Y0068603D01*
X0261973Y0068624D01*
X0261917Y0068648D01*
X0261862Y0068676D01*
X0261809Y0068707D01*
X0261758Y0068742D01*
X0261710Y0068779D01*
X0261664Y0068820D01*
X0261620Y0068864D01*
X0261579Y0068910D01*
X0261542Y0068958D01*
X0261507Y0069009D01*
X0261476Y0069062D01*
X0261448Y0069117D01*
X0261424Y0069173D01*
X0261403Y0069231D01*
X0261386Y0069290D01*
X0261372Y0069350D01*
X0261363Y0069410D01*
X0261357Y0069472D01*
X0261355Y0069533D01*
X0261356Y0069533D02*
X0261356Y0071000D01*
X0259400Y0071000D01*
X0259400Y0068556D01*
X0228800Y0089839D02*
X0224400Y0089839D01*
X0224400Y0092283D02*
X0228800Y0089839D01*
X0228800Y0092283D02*
X0224400Y0092283D01*
X0224400Y0094322D02*
X0224400Y0095300D01*
X0224400Y0094811D02*
X0228800Y0094811D01*
X0228800Y0095300D02*
X0228800Y0094322D01*
D13*
X0039350Y0149549D02*
X0039350Y0150716D01*
X0039350Y0149549D02*
X0039348Y0149493D01*
X0039342Y0149438D01*
X0039332Y0149384D01*
X0039318Y0149330D01*
X0039301Y0149277D01*
X0039280Y0149226D01*
X0039255Y0149176D01*
X0039226Y0149128D01*
X0039195Y0149083D01*
X0039160Y0149040D01*
X0039122Y0148999D01*
X0039081Y0148961D01*
X0039038Y0148926D01*
X0038993Y0148895D01*
X0038945Y0148866D01*
X0038895Y0148841D01*
X0038844Y0148820D01*
X0038791Y0148803D01*
X0038737Y0148789D01*
X0038683Y0148779D01*
X0038628Y0148773D01*
X0038572Y0148771D01*
X0036628Y0148771D01*
X0036572Y0148773D01*
X0036517Y0148779D01*
X0036463Y0148789D01*
X0036409Y0148803D01*
X0036356Y0148820D01*
X0036305Y0148841D01*
X0036255Y0148866D01*
X0036207Y0148895D01*
X0036162Y0148926D01*
X0036119Y0148961D01*
X0036078Y0148999D01*
X0036040Y0149040D01*
X0036005Y0149083D01*
X0035974Y0149128D01*
X0035945Y0149176D01*
X0035920Y0149226D01*
X0035899Y0149277D01*
X0035882Y0149330D01*
X0035868Y0149384D01*
X0035858Y0149438D01*
X0035852Y0149493D01*
X0035850Y0149549D01*
X0035850Y0150716D01*
X0037794Y0150716D01*
X0037794Y0150132D01*
X0039350Y0152611D02*
X0035850Y0152611D01*
X0035850Y0154556D02*
X0039350Y0154556D01*
X0039350Y0156451D02*
X0035850Y0156451D01*
X0035850Y0157423D01*
X0035852Y0157484D01*
X0035858Y0157545D01*
X0035867Y0157605D01*
X0035881Y0157665D01*
X0035898Y0157723D01*
X0035918Y0157781D01*
X0035943Y0157837D01*
X0035970Y0157891D01*
X0036001Y0157944D01*
X0036036Y0157994D01*
X0036073Y0158043D01*
X0036113Y0158088D01*
X0036157Y0158132D01*
X0036202Y0158172D01*
X0036251Y0158209D01*
X0036301Y0158244D01*
X0036354Y0158275D01*
X0036408Y0158302D01*
X0036464Y0158327D01*
X0036522Y0158347D01*
X0036580Y0158364D01*
X0036640Y0158378D01*
X0036700Y0158387D01*
X0036761Y0158393D01*
X0036822Y0158395D01*
X0036822Y0158396D02*
X0038378Y0158396D01*
X0038378Y0158395D02*
X0038439Y0158393D01*
X0038500Y0158387D01*
X0038560Y0158378D01*
X0038620Y0158364D01*
X0038678Y0158347D01*
X0038736Y0158327D01*
X0038792Y0158302D01*
X0038846Y0158275D01*
X0038899Y0158244D01*
X0038949Y0158209D01*
X0038998Y0158172D01*
X0039043Y0158132D01*
X0039087Y0158088D01*
X0039127Y0158043D01*
X0039164Y0157994D01*
X0039199Y0157944D01*
X0039230Y0157891D01*
X0039257Y0157837D01*
X0039282Y0157781D01*
X0039302Y0157723D01*
X0039319Y0157665D01*
X0039333Y0157605D01*
X0039342Y0157545D01*
X0039348Y0157484D01*
X0039350Y0157423D01*
X0039350Y0156451D01*
X0039350Y0152611D02*
X0035850Y0154556D01*
X0035850Y0164011D02*
X0035850Y0165956D01*
X0035850Y0164983D02*
X0039350Y0164983D01*
X0038572Y0164011D01*
X0035850Y0167611D02*
X0035850Y0169556D01*
X0035850Y0167611D02*
X0037794Y0169264D01*
X0039350Y0168681D02*
X0039348Y0168617D01*
X0039343Y0168553D01*
X0039334Y0168489D01*
X0039321Y0168426D01*
X0039304Y0168364D01*
X0039285Y0168303D01*
X0039261Y0168243D01*
X0039235Y0168185D01*
X0039205Y0168128D01*
X0039171Y0168073D01*
X0039135Y0168020D01*
X0039096Y0167969D01*
X0039054Y0167921D01*
X0039009Y0167874D01*
X0038962Y0167831D01*
X0038912Y0167790D01*
X0038860Y0167753D01*
X0038806Y0167718D01*
X0038750Y0167686D01*
X0038692Y0167658D01*
X0038633Y0167633D01*
X0038572Y0167612D01*
X0037794Y0169264D02*
X0037836Y0169305D01*
X0037880Y0169344D01*
X0037927Y0169379D01*
X0037975Y0169412D01*
X0038026Y0169442D01*
X0038078Y0169468D01*
X0038132Y0169491D01*
X0038187Y0169511D01*
X0038243Y0169527D01*
X0038300Y0169540D01*
X0038358Y0169549D01*
X0038416Y0169554D01*
X0038475Y0169556D01*
X0038532Y0169554D01*
X0038589Y0169549D01*
X0038646Y0169539D01*
X0038701Y0169526D01*
X0038756Y0169510D01*
X0038810Y0169489D01*
X0038862Y0169466D01*
X0038913Y0169439D01*
X0038961Y0169409D01*
X0039008Y0169375D01*
X0039052Y0169339D01*
X0039094Y0169300D01*
X0039133Y0169258D01*
X0039169Y0169214D01*
X0039203Y0169167D01*
X0039233Y0169119D01*
X0039260Y0169068D01*
X0039283Y0169016D01*
X0039304Y0168962D01*
X0039320Y0168907D01*
X0039333Y0168852D01*
X0039343Y0168795D01*
X0039348Y0168738D01*
X0039350Y0168681D01*
X0039350Y0171017D02*
X0035850Y0172183D01*
X0039350Y0173350D01*
M02*
