G04 EAGLE Gerber RS-274X export*
G75*
%MOMM*%
%FSLAX34Y34*%
%LPD*%
%INBottom Copper*%
%IPPOS*%
%AMOC8*
5,1,8,0,0,1.08239X$1,22.5*%
G01*
%ADD10R,1.651000X1.651000*%
%ADD11C,1.651000*%
%ADD12C,1.408000*%
%ADD13P,1.814519X8X112.500000*%
%ADD14P,1.814519X8X202.500000*%
%ADD15P,1.814519X8X22.500000*%
%ADD16C,1.320800*%
%ADD17C,2.540000*%
%ADD18P,2.144431X8X112.500000*%
%ADD19C,1.778000*%
%ADD20C,1.270000*%
%ADD21C,0.812800*%
%ADD22C,0.304800*%


D10*
X520700Y482600D03*
D11*
X520700Y508000D03*
D12*
X381000Y152400D03*
X304800Y152400D03*
X381000Y127000D03*
X304800Y127000D03*
X228600Y127000D03*
X152400Y127000D03*
X241300Y76200D03*
X165100Y76200D03*
X533400Y76200D03*
X457200Y76200D03*
X304800Y177800D03*
X381000Y177800D03*
D13*
X50800Y698500D03*
X50800Y723900D03*
X177800Y698500D03*
X177800Y723900D03*
X304800Y698500D03*
X304800Y723900D03*
X406400Y698500D03*
X406400Y723900D03*
X533400Y698500D03*
X533400Y723900D03*
D14*
X271780Y469900D03*
X180340Y469900D03*
D15*
X297180Y355600D03*
X388620Y355600D03*
D14*
X388620Y469900D03*
X297180Y469900D03*
X236220Y190500D03*
X144780Y190500D03*
X236220Y152400D03*
X144780Y152400D03*
X388620Y304800D03*
X297180Y304800D03*
X388620Y266700D03*
X297180Y266700D03*
D15*
X462280Y266700D03*
X553720Y266700D03*
X462280Y215900D03*
X553720Y215900D03*
X297180Y228600D03*
X388620Y228600D03*
D16*
X177800Y323596D02*
X177800Y336804D01*
X127000Y336804D02*
X127000Y323596D01*
X152400Y323596D02*
X152400Y336804D01*
X177800Y235204D02*
X177800Y221996D01*
X228600Y221996D02*
X228600Y235204D01*
X203200Y235204D02*
X203200Y221996D01*
X190500Y399796D02*
X190500Y413004D01*
X241300Y413004D02*
X241300Y399796D01*
X215900Y399796D02*
X215900Y413004D01*
D17*
X88900Y495300D02*
X63500Y495300D01*
X63500Y419100D02*
X88900Y419100D01*
X88900Y127000D02*
X114300Y127000D01*
X114300Y177800D02*
X88900Y177800D01*
D18*
X419100Y381000D03*
X520700Y355600D03*
X520700Y406400D03*
D16*
X342900Y412496D02*
X342900Y425704D01*
X368300Y425704D02*
X368300Y412496D01*
X317500Y412496D02*
X317500Y425704D01*
X508000Y159004D02*
X508000Y145796D01*
X533400Y145796D02*
X533400Y159004D01*
X482600Y159004D02*
X482600Y145796D01*
D19*
X342900Y546100D03*
X292100Y546100D03*
X241300Y596900D03*
X292100Y596900D03*
X342900Y596900D03*
D15*
X330200Y76200D03*
X355600Y76200D03*
D20*
X297180Y469900D02*
X271780Y469900D01*
X297180Y469900D02*
X317500Y449580D01*
X317500Y419100D01*
X139700Y495300D02*
X76200Y495300D01*
X154940Y495300D02*
X157480Y495300D01*
X160890Y491511D01*
X180340Y469900D01*
X163322Y450342D01*
X163322Y357378D01*
X177800Y342900D02*
X177800Y330200D01*
X177800Y342900D02*
X163322Y357378D01*
X163322Y450342D02*
X163322Y489079D01*
X160890Y491511D01*
X154940Y495300D02*
X139700Y495300D01*
X154940Y495300D02*
X180340Y469900D01*
D21*
X330200Y228600D02*
X304800Y203200D01*
X248920Y203200D02*
X236220Y190500D01*
X248920Y203200D02*
X304800Y203200D01*
X330200Y228600D02*
X330200Y330200D01*
X342900Y342900D02*
X342900Y419100D01*
X342900Y342900D02*
X330200Y330200D01*
D20*
X101600Y457200D02*
X50800Y457200D01*
X38100Y469900D02*
X38100Y584200D01*
X50800Y596900D02*
X241300Y596900D01*
X50800Y457200D02*
X38100Y469900D01*
X101600Y457200D02*
X114300Y444500D01*
X114300Y330200D01*
X114300Y190500D01*
X101600Y177800D01*
X114300Y330200D02*
X127000Y330200D01*
X38100Y584200D02*
X50800Y596900D01*
X313436Y575564D02*
X342900Y546100D01*
X262636Y575564D02*
X241300Y596900D01*
X262636Y575564D02*
X313436Y575564D01*
X152400Y198120D02*
X144780Y190500D01*
X152400Y198120D02*
X152400Y330200D01*
D21*
X355600Y271780D02*
X388620Y304800D01*
X355600Y271780D02*
X355600Y203200D01*
X330200Y152400D02*
X355600Y127000D01*
X330200Y152400D02*
X330200Y177800D01*
X355600Y203200D01*
X355600Y127000D02*
X381000Y127000D01*
X330200Y152400D02*
X304800Y152400D01*
D20*
X304800Y127000D02*
X228600Y127000D01*
X241300Y76200D02*
X203200Y76200D01*
X152400Y127000D01*
X144780Y152400D02*
X177800Y185420D01*
X177800Y228600D01*
X177800Y266700D01*
X190500Y406400D02*
X190500Y444500D01*
X215900Y469900D02*
X215900Y520700D01*
X241300Y546100D02*
X292100Y546100D01*
X215900Y469900D02*
X190500Y444500D01*
X190500Y406400D02*
X190500Y381000D01*
X209550Y361950D01*
X209550Y298450D02*
X177800Y266700D01*
X209550Y298450D02*
X209550Y361950D01*
X215900Y520700D02*
X241300Y546100D01*
X203200Y228600D02*
X203200Y177800D01*
D22*
X297180Y297180D02*
X297180Y304800D01*
D20*
X203200Y177800D02*
X228600Y152400D01*
X236220Y152400D01*
X203200Y228600D02*
X203200Y254000D01*
X254000Y304800D01*
X297180Y304800D01*
D22*
X368300Y215900D02*
X368300Y190500D01*
D20*
X520700Y431800D02*
X520700Y482600D01*
X520700Y431800D02*
X520700Y419100D01*
X520700Y406400D01*
D21*
X388620Y266700D02*
X388620Y261620D01*
X368300Y241300D01*
X368300Y190500D01*
X388620Y266700D02*
X419100Y297180D01*
X419100Y381000D01*
D20*
X444500Y406400D01*
X495300Y406400D01*
X508000Y406400D01*
X520700Y406400D01*
X495300Y406400D02*
X520700Y431800D01*
X520700Y419100D02*
X508000Y406400D01*
D21*
X368300Y190500D02*
X355600Y177800D01*
X355600Y165100D01*
X368300Y152400D02*
X381000Y152400D01*
X368300Y152400D02*
X355600Y165100D01*
D20*
X259080Y228600D02*
X297180Y266700D01*
X259080Y228600D02*
X228600Y228600D01*
X462280Y215900D02*
X462280Y266700D01*
X462280Y215900D02*
X462280Y198120D01*
X462280Y177800D02*
X462280Y160020D01*
X330200Y88900D02*
X330200Y76200D01*
X330200Y88900D02*
X342900Y101600D01*
X462280Y259080D02*
X462280Y266700D01*
X467360Y152400D02*
X482600Y152400D01*
X467360Y152400D02*
X462280Y157480D01*
X427990Y181610D02*
X424180Y177800D01*
X427990Y181610D02*
X462280Y215900D01*
X424180Y177800D02*
X381000Y177800D01*
X342900Y101600D02*
X431800Y101600D01*
X463550Y133350D02*
X482600Y152400D01*
X463550Y133350D02*
X431800Y101600D01*
X463550Y133350D02*
X462280Y134620D01*
X462280Y139700D01*
X462280Y152400D01*
X462280Y157480D01*
X444500Y181610D02*
X427990Y181610D01*
X424180Y177800D02*
X444500Y177800D01*
X462280Y177800D01*
X462280Y185420D02*
X462280Y198120D01*
X457200Y203200D01*
X450850Y196850D01*
X444500Y190500D01*
X444500Y181610D01*
X450850Y196850D02*
X462280Y185420D01*
X462280Y177800D01*
X458470Y181610D01*
X444500Y181610D01*
D21*
X462280Y163830D01*
X462280Y152400D01*
D20*
X434340Y167640D02*
X424180Y177800D01*
X434340Y167640D02*
X462280Y139700D01*
X462280Y160020D02*
X444500Y177800D01*
X462280Y160020D02*
X462280Y157480D01*
X462280Y152400D02*
X447040Y167640D01*
X434340Y167640D01*
X533400Y152400D02*
X533400Y76200D01*
X508000Y152400D02*
X508000Y266700D01*
X482600Y292100D01*
X452120Y292100D02*
X388620Y228600D01*
X452120Y292100D02*
X482600Y292100D01*
D21*
X317500Y317500D02*
X304800Y330200D01*
X317500Y248920D02*
X297180Y228600D01*
X317500Y248920D02*
X317500Y317500D01*
X215900Y393700D02*
X215900Y406400D01*
X215900Y393700D02*
X279400Y330200D01*
X304800Y330200D01*
D20*
X241300Y406400D02*
X241300Y495300D01*
X266700Y520700D02*
X368300Y520700D01*
X266700Y520700D02*
X241300Y495300D01*
D21*
X241300Y406400D02*
X292100Y355600D01*
X297180Y355600D01*
D20*
X368300Y520700D02*
X381000Y533400D01*
X381000Y584200D01*
X368300Y596900D01*
X342900Y596900D01*
D22*
X342900Y279400D02*
X342900Y215900D01*
D21*
X304800Y177800D01*
X342900Y309880D02*
X388620Y355600D01*
X342900Y309880D02*
X342900Y215900D01*
D20*
X553720Y266700D02*
X553720Y322580D01*
X520700Y355600D01*
X177800Y698500D02*
X50800Y698500D01*
X177800Y698500D02*
X304800Y698500D01*
X406400Y698500D01*
X533400Y698500D01*
D22*
X254000Y635000D02*
X88900Y635000D01*
X76200Y635000D01*
D20*
X88900Y635000D02*
X266700Y635000D01*
X292100Y609600D01*
X292100Y596900D01*
X88900Y635000D02*
X50800Y635000D01*
X38100Y647700D01*
X38100Y685800D01*
X50800Y698500D01*
X355600Y63500D02*
X355600Y50800D01*
X381000Y50800D01*
X431800Y50800D01*
X444500Y50800D01*
X457200Y50800D01*
X457200Y63500D01*
X457200Y76200D01*
X457200Y50800D02*
X482600Y50800D01*
X584200Y215900D02*
X584200Y246380D01*
X584200Y482600D01*
X584200Y495300D01*
X584200Y508000D01*
X558800Y508000D01*
X520700Y508000D01*
X177800Y50800D02*
X165100Y50800D01*
X177800Y723900D02*
X406400Y723900D01*
X533400Y723900D01*
X304800Y723900D02*
X177800Y723900D01*
X50800Y723900D01*
X533400Y723900D02*
X558800Y723900D01*
X426720Y508000D02*
X388620Y469900D01*
X426720Y508000D02*
X520700Y508000D01*
X38100Y152400D02*
X38100Y127000D01*
X63500Y127000D01*
X101600Y127000D01*
X584200Y185420D02*
X584200Y203200D01*
X584200Y215900D01*
X584200Y698500D02*
X558800Y723900D01*
X584200Y698500D02*
X584200Y533400D01*
X584200Y508000D01*
X50800Y50800D02*
X38100Y63500D01*
X50800Y50800D02*
X139700Y50800D01*
X152400Y50800D01*
X165100Y50800D01*
X38100Y101600D02*
X38100Y127000D01*
X38100Y101600D02*
X38100Y63500D01*
X50800Y139700D02*
X38100Y152400D01*
X50800Y139700D02*
X63500Y127000D01*
X50800Y114300D02*
X38100Y101600D01*
X50800Y114300D02*
X63500Y127000D01*
X50800Y139700D02*
X50800Y114300D01*
X553720Y215900D02*
X584200Y215900D01*
X568960Y231140D02*
X553720Y215900D01*
X568960Y231140D02*
X584200Y246380D01*
X553720Y215900D02*
X584200Y185420D01*
X584200Y203200D02*
X571500Y215900D01*
X571500Y228600D01*
X568960Y231140D01*
X368300Y419100D02*
X368300Y449580D01*
X388620Y469900D01*
X76200Y419100D02*
X50800Y419100D01*
X38100Y406400D01*
X38100Y152400D01*
X558800Y508000D02*
X571500Y520700D01*
X584200Y533400D01*
X558800Y508000D02*
X584200Y482600D01*
X584200Y495300D02*
X571500Y508000D01*
X571500Y520700D01*
X165100Y76200D02*
X139700Y50800D01*
X165100Y76200D02*
X177800Y63500D01*
X177800Y50800D01*
X165100Y50800D02*
X165100Y76200D01*
X165100Y63500D02*
X152400Y50800D01*
X165100Y63500D02*
X177800Y63500D01*
X177800Y50800D02*
X190500Y50800D01*
X342900Y50800D01*
X355600Y50800D01*
X190500Y50800D02*
X177800Y63500D01*
X431800Y50800D02*
X457200Y76200D01*
X457200Y63500D02*
X444500Y50800D01*
X457200Y76200D02*
X476250Y57150D01*
X482600Y50800D01*
X476250Y57150D02*
X463550Y57150D01*
X457200Y63500D01*
X355600Y63500D02*
X355600Y76200D01*
X355600Y63500D02*
X342900Y50800D01*
X355600Y76200D02*
X374650Y57150D01*
X381000Y50800D01*
X374650Y57150D02*
X361950Y57150D01*
X355600Y63500D01*
X571500Y50800D02*
X584200Y63500D01*
X571500Y50800D02*
X482600Y50800D01*
X584200Y63500D02*
X584200Y185420D01*
M02*
