G04 EAGLE Gerber RS-274X export*
G75*
%MOMM*%
%FSLAX34Y34*%
%LPD*%
%INTop Copper*%
%IPPOS*%
%AMOC8*
5,1,8,0,0,1.08239X$1,22.5*%
G01*
%ADD10R,1.651000X1.651000*%
%ADD11C,1.651000*%
%ADD12C,1.408000*%
%ADD13P,1.814519X8X112.500000*%
%ADD14P,1.814519X8X202.500000*%
%ADD15P,1.814519X8X22.500000*%
%ADD16C,1.320800*%
%ADD17C,2.540000*%
%ADD18P,2.144431X8X112.500000*%
%ADD19C,1.778000*%


D10*
X520700Y482600D03*
D11*
X520700Y508000D03*
D12*
X381000Y152400D03*
X304800Y152400D03*
X381000Y127000D03*
X304800Y127000D03*
X228600Y127000D03*
X152400Y127000D03*
X241300Y76200D03*
X165100Y76200D03*
X533400Y76200D03*
X457200Y76200D03*
X304800Y177800D03*
X381000Y177800D03*
D13*
X50800Y698500D03*
X50800Y723900D03*
X177800Y698500D03*
X177800Y723900D03*
X304800Y698500D03*
X304800Y723900D03*
X406400Y698500D03*
X406400Y723900D03*
X533400Y698500D03*
X533400Y723900D03*
D14*
X271780Y469900D03*
X180340Y469900D03*
D15*
X297180Y355600D03*
X388620Y355600D03*
D14*
X388620Y469900D03*
X297180Y469900D03*
X236220Y190500D03*
X144780Y190500D03*
X236220Y152400D03*
X144780Y152400D03*
X388620Y304800D03*
X297180Y304800D03*
X388620Y266700D03*
X297180Y266700D03*
D15*
X462280Y266700D03*
X553720Y266700D03*
X462280Y215900D03*
X553720Y215900D03*
X297180Y228600D03*
X388620Y228600D03*
D16*
X177800Y323596D02*
X177800Y336804D01*
X127000Y336804D02*
X127000Y323596D01*
X152400Y323596D02*
X152400Y336804D01*
X177800Y235204D02*
X177800Y221996D01*
X228600Y221996D02*
X228600Y235204D01*
X203200Y235204D02*
X203200Y221996D01*
X190500Y399796D02*
X190500Y413004D01*
X241300Y413004D02*
X241300Y399796D01*
X215900Y399796D02*
X215900Y413004D01*
D17*
X88900Y495300D02*
X63500Y495300D01*
X63500Y419100D02*
X88900Y419100D01*
X88900Y127000D02*
X114300Y127000D01*
X114300Y177800D02*
X88900Y177800D01*
D18*
X419100Y381000D03*
X520700Y355600D03*
X520700Y406400D03*
D16*
X342900Y412496D02*
X342900Y425704D01*
X368300Y425704D02*
X368300Y412496D01*
X317500Y412496D02*
X317500Y425704D01*
X508000Y159004D02*
X508000Y145796D01*
X533400Y145796D02*
X533400Y159004D01*
X482600Y159004D02*
X482600Y145796D01*
D19*
X342900Y546100D03*
X292100Y546100D03*
X241300Y596900D03*
X292100Y596900D03*
X342900Y596900D03*
D15*
X330200Y76200D03*
X355600Y76200D03*
M02*
