G75*
%MOIN*%
%OFA0B0*%
%FSLAX25Y25*%
%IPPOS*%
%LPD*%
%AMOC8*
5,1,8,0,0,1.08239X$1,22.5*
%
%ADD10C,0.00000*%
%ADD11C,0.00600*%
%ADD12C,0.00800*%
%ADD13C,0.00200*%
D10*
X0001800Y0001800D02*
X0001800Y0148001D01*
X0106721Y0148001D01*
X0106721Y0001800D01*
X0001800Y0001800D01*
X0048001Y0051800D02*
X0048003Y0051958D01*
X0048009Y0052116D01*
X0048019Y0052274D01*
X0048033Y0052432D01*
X0048051Y0052589D01*
X0048072Y0052746D01*
X0048098Y0052902D01*
X0048128Y0053058D01*
X0048161Y0053213D01*
X0048199Y0053366D01*
X0048240Y0053519D01*
X0048285Y0053671D01*
X0048334Y0053822D01*
X0048387Y0053971D01*
X0048443Y0054119D01*
X0048503Y0054265D01*
X0048567Y0054410D01*
X0048635Y0054553D01*
X0048706Y0054695D01*
X0048780Y0054835D01*
X0048858Y0054972D01*
X0048940Y0055108D01*
X0049024Y0055242D01*
X0049113Y0055373D01*
X0049204Y0055502D01*
X0049299Y0055629D01*
X0049396Y0055754D01*
X0049497Y0055876D01*
X0049601Y0055995D01*
X0049708Y0056112D01*
X0049818Y0056226D01*
X0049931Y0056337D01*
X0050046Y0056446D01*
X0050164Y0056551D01*
X0050285Y0056653D01*
X0050408Y0056753D01*
X0050534Y0056849D01*
X0050662Y0056942D01*
X0050792Y0057032D01*
X0050925Y0057118D01*
X0051060Y0057202D01*
X0051196Y0057281D01*
X0051335Y0057358D01*
X0051476Y0057430D01*
X0051618Y0057500D01*
X0051762Y0057565D01*
X0051908Y0057627D01*
X0052055Y0057685D01*
X0052204Y0057740D01*
X0052354Y0057791D01*
X0052505Y0057838D01*
X0052657Y0057881D01*
X0052810Y0057920D01*
X0052965Y0057956D01*
X0053120Y0057987D01*
X0053276Y0058015D01*
X0053432Y0058039D01*
X0053589Y0058059D01*
X0053747Y0058075D01*
X0053904Y0058087D01*
X0054063Y0058095D01*
X0054221Y0058099D01*
X0054379Y0058099D01*
X0054537Y0058095D01*
X0054696Y0058087D01*
X0054853Y0058075D01*
X0055011Y0058059D01*
X0055168Y0058039D01*
X0055324Y0058015D01*
X0055480Y0057987D01*
X0055635Y0057956D01*
X0055790Y0057920D01*
X0055943Y0057881D01*
X0056095Y0057838D01*
X0056246Y0057791D01*
X0056396Y0057740D01*
X0056545Y0057685D01*
X0056692Y0057627D01*
X0056838Y0057565D01*
X0056982Y0057500D01*
X0057124Y0057430D01*
X0057265Y0057358D01*
X0057404Y0057281D01*
X0057540Y0057202D01*
X0057675Y0057118D01*
X0057808Y0057032D01*
X0057938Y0056942D01*
X0058066Y0056849D01*
X0058192Y0056753D01*
X0058315Y0056653D01*
X0058436Y0056551D01*
X0058554Y0056446D01*
X0058669Y0056337D01*
X0058782Y0056226D01*
X0058892Y0056112D01*
X0058999Y0055995D01*
X0059103Y0055876D01*
X0059204Y0055754D01*
X0059301Y0055629D01*
X0059396Y0055502D01*
X0059487Y0055373D01*
X0059576Y0055242D01*
X0059660Y0055108D01*
X0059742Y0054972D01*
X0059820Y0054835D01*
X0059894Y0054695D01*
X0059965Y0054553D01*
X0060033Y0054410D01*
X0060097Y0054265D01*
X0060157Y0054119D01*
X0060213Y0053971D01*
X0060266Y0053822D01*
X0060315Y0053671D01*
X0060360Y0053519D01*
X0060401Y0053366D01*
X0060439Y0053213D01*
X0060472Y0053058D01*
X0060502Y0052902D01*
X0060528Y0052746D01*
X0060549Y0052589D01*
X0060567Y0052432D01*
X0060581Y0052274D01*
X0060591Y0052116D01*
X0060597Y0051958D01*
X0060599Y0051800D01*
X0060597Y0051642D01*
X0060591Y0051484D01*
X0060581Y0051326D01*
X0060567Y0051168D01*
X0060549Y0051011D01*
X0060528Y0050854D01*
X0060502Y0050698D01*
X0060472Y0050542D01*
X0060439Y0050387D01*
X0060401Y0050234D01*
X0060360Y0050081D01*
X0060315Y0049929D01*
X0060266Y0049778D01*
X0060213Y0049629D01*
X0060157Y0049481D01*
X0060097Y0049335D01*
X0060033Y0049190D01*
X0059965Y0049047D01*
X0059894Y0048905D01*
X0059820Y0048765D01*
X0059742Y0048628D01*
X0059660Y0048492D01*
X0059576Y0048358D01*
X0059487Y0048227D01*
X0059396Y0048098D01*
X0059301Y0047971D01*
X0059204Y0047846D01*
X0059103Y0047724D01*
X0058999Y0047605D01*
X0058892Y0047488D01*
X0058782Y0047374D01*
X0058669Y0047263D01*
X0058554Y0047154D01*
X0058436Y0047049D01*
X0058315Y0046947D01*
X0058192Y0046847D01*
X0058066Y0046751D01*
X0057938Y0046658D01*
X0057808Y0046568D01*
X0057675Y0046482D01*
X0057540Y0046398D01*
X0057404Y0046319D01*
X0057265Y0046242D01*
X0057124Y0046170D01*
X0056982Y0046100D01*
X0056838Y0046035D01*
X0056692Y0045973D01*
X0056545Y0045915D01*
X0056396Y0045860D01*
X0056246Y0045809D01*
X0056095Y0045762D01*
X0055943Y0045719D01*
X0055790Y0045680D01*
X0055635Y0045644D01*
X0055480Y0045613D01*
X0055324Y0045585D01*
X0055168Y0045561D01*
X0055011Y0045541D01*
X0054853Y0045525D01*
X0054696Y0045513D01*
X0054537Y0045505D01*
X0054379Y0045501D01*
X0054221Y0045501D01*
X0054063Y0045505D01*
X0053904Y0045513D01*
X0053747Y0045525D01*
X0053589Y0045541D01*
X0053432Y0045561D01*
X0053276Y0045585D01*
X0053120Y0045613D01*
X0052965Y0045644D01*
X0052810Y0045680D01*
X0052657Y0045719D01*
X0052505Y0045762D01*
X0052354Y0045809D01*
X0052204Y0045860D01*
X0052055Y0045915D01*
X0051908Y0045973D01*
X0051762Y0046035D01*
X0051618Y0046100D01*
X0051476Y0046170D01*
X0051335Y0046242D01*
X0051196Y0046319D01*
X0051060Y0046398D01*
X0050925Y0046482D01*
X0050792Y0046568D01*
X0050662Y0046658D01*
X0050534Y0046751D01*
X0050408Y0046847D01*
X0050285Y0046947D01*
X0050164Y0047049D01*
X0050046Y0047154D01*
X0049931Y0047263D01*
X0049818Y0047374D01*
X0049708Y0047488D01*
X0049601Y0047605D01*
X0049497Y0047724D01*
X0049396Y0047846D01*
X0049299Y0047971D01*
X0049204Y0048098D01*
X0049113Y0048227D01*
X0049024Y0048358D01*
X0048940Y0048492D01*
X0048858Y0048628D01*
X0048780Y0048765D01*
X0048706Y0048905D01*
X0048635Y0049047D01*
X0048567Y0049190D01*
X0048503Y0049335D01*
X0048443Y0049481D01*
X0048387Y0049629D01*
X0048334Y0049778D01*
X0048285Y0049929D01*
X0048240Y0050081D01*
X0048199Y0050234D01*
X0048161Y0050387D01*
X0048128Y0050542D01*
X0048098Y0050698D01*
X0048072Y0050854D01*
X0048051Y0051011D01*
X0048033Y0051168D01*
X0048019Y0051326D01*
X0048009Y0051484D01*
X0048003Y0051642D01*
X0048001Y0051800D01*
D11*
X0040800Y0051800D02*
X0040804Y0052131D01*
X0040816Y0052462D01*
X0040837Y0052793D01*
X0040865Y0053123D01*
X0040902Y0053453D01*
X0040946Y0053781D01*
X0040999Y0054108D01*
X0041059Y0054434D01*
X0041128Y0054758D01*
X0041205Y0055080D01*
X0041289Y0055401D01*
X0041381Y0055719D01*
X0041481Y0056035D01*
X0041589Y0056348D01*
X0041705Y0056659D01*
X0041828Y0056966D01*
X0041958Y0057271D01*
X0042096Y0057572D01*
X0042241Y0057870D01*
X0042394Y0058164D01*
X0042554Y0058454D01*
X0042721Y0058740D01*
X0042894Y0059022D01*
X0043075Y0059300D01*
X0043263Y0059573D01*
X0043457Y0059842D01*
X0043657Y0060106D01*
X0043864Y0060364D01*
X0044078Y0060618D01*
X0044297Y0060866D01*
X0044523Y0061109D01*
X0044754Y0061346D01*
X0044991Y0061577D01*
X0045234Y0061803D01*
X0045482Y0062022D01*
X0045736Y0062236D01*
X0045994Y0062443D01*
X0046258Y0062643D01*
X0046527Y0062837D01*
X0046800Y0063025D01*
X0047078Y0063206D01*
X0047360Y0063379D01*
X0047646Y0063546D01*
X0047936Y0063706D01*
X0048230Y0063859D01*
X0048528Y0064004D01*
X0048829Y0064142D01*
X0049134Y0064272D01*
X0049441Y0064395D01*
X0049752Y0064511D01*
X0050065Y0064619D01*
X0050381Y0064719D01*
X0050699Y0064811D01*
X0051020Y0064895D01*
X0051342Y0064972D01*
X0051666Y0065041D01*
X0051992Y0065101D01*
X0052319Y0065154D01*
X0052647Y0065198D01*
X0052977Y0065235D01*
X0053307Y0065263D01*
X0053638Y0065284D01*
X0053969Y0065296D01*
X0054300Y0065300D01*
X0054631Y0065296D01*
X0054962Y0065284D01*
X0055293Y0065263D01*
X0055623Y0065235D01*
X0055953Y0065198D01*
X0056281Y0065154D01*
X0056608Y0065101D01*
X0056934Y0065041D01*
X0057258Y0064972D01*
X0057580Y0064895D01*
X0057901Y0064811D01*
X0058219Y0064719D01*
X0058535Y0064619D01*
X0058848Y0064511D01*
X0059159Y0064395D01*
X0059466Y0064272D01*
X0059771Y0064142D01*
X0060072Y0064004D01*
X0060370Y0063859D01*
X0060664Y0063706D01*
X0060954Y0063546D01*
X0061240Y0063379D01*
X0061522Y0063206D01*
X0061800Y0063025D01*
X0062073Y0062837D01*
X0062342Y0062643D01*
X0062606Y0062443D01*
X0062864Y0062236D01*
X0063118Y0062022D01*
X0063366Y0061803D01*
X0063609Y0061577D01*
X0063846Y0061346D01*
X0064077Y0061109D01*
X0064303Y0060866D01*
X0064522Y0060618D01*
X0064736Y0060364D01*
X0064943Y0060106D01*
X0065143Y0059842D01*
X0065337Y0059573D01*
X0065525Y0059300D01*
X0065706Y0059022D01*
X0065879Y0058740D01*
X0066046Y0058454D01*
X0066206Y0058164D01*
X0066359Y0057870D01*
X0066504Y0057572D01*
X0066642Y0057271D01*
X0066772Y0056966D01*
X0066895Y0056659D01*
X0067011Y0056348D01*
X0067119Y0056035D01*
X0067219Y0055719D01*
X0067311Y0055401D01*
X0067395Y0055080D01*
X0067472Y0054758D01*
X0067541Y0054434D01*
X0067601Y0054108D01*
X0067654Y0053781D01*
X0067698Y0053453D01*
X0067735Y0053123D01*
X0067763Y0052793D01*
X0067784Y0052462D01*
X0067796Y0052131D01*
X0067800Y0051800D01*
X0067796Y0051469D01*
X0067784Y0051138D01*
X0067763Y0050807D01*
X0067735Y0050477D01*
X0067698Y0050147D01*
X0067654Y0049819D01*
X0067601Y0049492D01*
X0067541Y0049166D01*
X0067472Y0048842D01*
X0067395Y0048520D01*
X0067311Y0048199D01*
X0067219Y0047881D01*
X0067119Y0047565D01*
X0067011Y0047252D01*
X0066895Y0046941D01*
X0066772Y0046634D01*
X0066642Y0046329D01*
X0066504Y0046028D01*
X0066359Y0045730D01*
X0066206Y0045436D01*
X0066046Y0045146D01*
X0065879Y0044860D01*
X0065706Y0044578D01*
X0065525Y0044300D01*
X0065337Y0044027D01*
X0065143Y0043758D01*
X0064943Y0043494D01*
X0064736Y0043236D01*
X0064522Y0042982D01*
X0064303Y0042734D01*
X0064077Y0042491D01*
X0063846Y0042254D01*
X0063609Y0042023D01*
X0063366Y0041797D01*
X0063118Y0041578D01*
X0062864Y0041364D01*
X0062606Y0041157D01*
X0062342Y0040957D01*
X0062073Y0040763D01*
X0061800Y0040575D01*
X0061522Y0040394D01*
X0061240Y0040221D01*
X0060954Y0040054D01*
X0060664Y0039894D01*
X0060370Y0039741D01*
X0060072Y0039596D01*
X0059771Y0039458D01*
X0059466Y0039328D01*
X0059159Y0039205D01*
X0058848Y0039089D01*
X0058535Y0038981D01*
X0058219Y0038881D01*
X0057901Y0038789D01*
X0057580Y0038705D01*
X0057258Y0038628D01*
X0056934Y0038559D01*
X0056608Y0038499D01*
X0056281Y0038446D01*
X0055953Y0038402D01*
X0055623Y0038365D01*
X0055293Y0038337D01*
X0054962Y0038316D01*
X0054631Y0038304D01*
X0054300Y0038300D01*
X0053969Y0038304D01*
X0053638Y0038316D01*
X0053307Y0038337D01*
X0052977Y0038365D01*
X0052647Y0038402D01*
X0052319Y0038446D01*
X0051992Y0038499D01*
X0051666Y0038559D01*
X0051342Y0038628D01*
X0051020Y0038705D01*
X0050699Y0038789D01*
X0050381Y0038881D01*
X0050065Y0038981D01*
X0049752Y0039089D01*
X0049441Y0039205D01*
X0049134Y0039328D01*
X0048829Y0039458D01*
X0048528Y0039596D01*
X0048230Y0039741D01*
X0047936Y0039894D01*
X0047646Y0040054D01*
X0047360Y0040221D01*
X0047078Y0040394D01*
X0046800Y0040575D01*
X0046527Y0040763D01*
X0046258Y0040957D01*
X0045994Y0041157D01*
X0045736Y0041364D01*
X0045482Y0041578D01*
X0045234Y0041797D01*
X0044991Y0042023D01*
X0044754Y0042254D01*
X0044523Y0042491D01*
X0044297Y0042734D01*
X0044078Y0042982D01*
X0043864Y0043236D01*
X0043657Y0043494D01*
X0043457Y0043758D01*
X0043263Y0044027D01*
X0043075Y0044300D01*
X0042894Y0044578D01*
X0042721Y0044860D01*
X0042554Y0045146D01*
X0042394Y0045436D01*
X0042241Y0045730D01*
X0042096Y0046028D01*
X0041958Y0046329D01*
X0041828Y0046634D01*
X0041705Y0046941D01*
X0041589Y0047252D01*
X0041481Y0047565D01*
X0041381Y0047881D01*
X0041289Y0048199D01*
X0041205Y0048520D01*
X0041128Y0048842D01*
X0041059Y0049166D01*
X0040999Y0049492D01*
X0040946Y0049819D01*
X0040902Y0050147D01*
X0040865Y0050477D01*
X0040837Y0050807D01*
X0040816Y0051138D01*
X0040804Y0051469D01*
X0040800Y0051800D01*
X0041300Y0048800D02*
X0041300Y0047800D01*
X0041300Y0048800D02*
X0042300Y0048800D01*
X0042300Y0054800D01*
X0041300Y0054800D01*
X0041300Y0055800D01*
X0037800Y0063800D02*
X0034300Y0063800D01*
X0024300Y0063800D01*
X0020800Y0063800D01*
X0019750Y0069600D02*
X0020728Y0074000D01*
X0022650Y0073022D02*
X0023872Y0074000D01*
X0023872Y0069600D01*
X0022650Y0069600D02*
X0025094Y0069600D01*
X0029800Y0073300D02*
X0078800Y0073300D01*
X0078800Y0140300D01*
X0029800Y0140300D01*
X0029800Y0073300D01*
X0019750Y0069600D02*
X0018772Y0072533D01*
X0017794Y0069600D01*
X0016817Y0074000D01*
X0014556Y0071433D02*
X0013211Y0072167D01*
X0013700Y0074000D02*
X0013784Y0073998D01*
X0013868Y0073992D01*
X0013952Y0073983D01*
X0014035Y0073969D01*
X0014118Y0073952D01*
X0014199Y0073931D01*
X0014280Y0073906D01*
X0014359Y0073877D01*
X0014437Y0073845D01*
X0014513Y0073810D01*
X0014588Y0073771D01*
X0014661Y0073728D01*
X0014731Y0073682D01*
X0014800Y0073633D01*
X0013211Y0072166D02*
X0013160Y0072199D01*
X0013110Y0072234D01*
X0013063Y0072273D01*
X0013019Y0072314D01*
X0012977Y0072358D01*
X0012938Y0072404D01*
X0012902Y0072453D01*
X0012868Y0072503D01*
X0012838Y0072556D01*
X0012811Y0072610D01*
X0012788Y0072666D01*
X0012768Y0072723D01*
X0012751Y0072782D01*
X0012739Y0072841D01*
X0012729Y0072901D01*
X0012724Y0072961D01*
X0012722Y0073022D01*
X0012724Y0073083D01*
X0012730Y0073145D01*
X0012739Y0073205D01*
X0012753Y0073265D01*
X0012770Y0073324D01*
X0012791Y0073382D01*
X0012815Y0073438D01*
X0012843Y0073493D01*
X0012874Y0073546D01*
X0012909Y0073597D01*
X0012946Y0073645D01*
X0012987Y0073691D01*
X0013031Y0073735D01*
X0013077Y0073776D01*
X0013125Y0073813D01*
X0013176Y0073848D01*
X0013229Y0073879D01*
X0013284Y0073907D01*
X0013340Y0073931D01*
X0013398Y0073952D01*
X0013457Y0073969D01*
X0013517Y0073983D01*
X0013577Y0073992D01*
X0013639Y0073998D01*
X0013700Y0074000D01*
X0012600Y0070211D02*
X0012665Y0070148D01*
X0012733Y0070088D01*
X0012804Y0070031D01*
X0012876Y0069977D01*
X0012952Y0069927D01*
X0013029Y0069880D01*
X0013108Y0069836D01*
X0013190Y0069796D01*
X0013272Y0069759D01*
X0013357Y0069726D01*
X0013443Y0069697D01*
X0013529Y0069671D01*
X0013617Y0069649D01*
X0013706Y0069632D01*
X0013796Y0069618D01*
X0013886Y0069608D01*
X0013976Y0069602D01*
X0014067Y0069600D01*
X0014128Y0069602D01*
X0014190Y0069608D01*
X0014250Y0069617D01*
X0014310Y0069631D01*
X0014369Y0069648D01*
X0014427Y0069669D01*
X0014483Y0069693D01*
X0014538Y0069721D01*
X0014591Y0069752D01*
X0014642Y0069787D01*
X0014690Y0069824D01*
X0014736Y0069865D01*
X0014780Y0069909D01*
X0014821Y0069955D01*
X0014858Y0070003D01*
X0014893Y0070054D01*
X0014924Y0070107D01*
X0014952Y0070162D01*
X0014976Y0070218D01*
X0014997Y0070276D01*
X0015014Y0070335D01*
X0015028Y0070395D01*
X0015037Y0070455D01*
X0015043Y0070517D01*
X0015045Y0070578D01*
X0015044Y0070578D02*
X0015042Y0070639D01*
X0015037Y0070699D01*
X0015027Y0070759D01*
X0015015Y0070818D01*
X0014998Y0070877D01*
X0014978Y0070934D01*
X0014955Y0070990D01*
X0014928Y0071044D01*
X0014898Y0071097D01*
X0014864Y0071147D01*
X0014828Y0071196D01*
X0014789Y0071242D01*
X0014747Y0071286D01*
X0014703Y0071327D01*
X0014656Y0071366D01*
X0014606Y0071401D01*
X0014555Y0071434D01*
X0017300Y0055800D02*
X0017300Y0054800D01*
X0016300Y0054800D01*
X0016300Y0048800D01*
X0017300Y0048800D01*
X0017300Y0047800D01*
X0020800Y0039800D02*
X0024300Y0039800D01*
X0033800Y0039800D01*
X0037800Y0039800D01*
X0028300Y0051800D02*
X0028302Y0051863D01*
X0028308Y0051925D01*
X0028318Y0051987D01*
X0028331Y0052049D01*
X0028349Y0052109D01*
X0028370Y0052168D01*
X0028395Y0052226D01*
X0028424Y0052282D01*
X0028456Y0052336D01*
X0028491Y0052388D01*
X0028529Y0052437D01*
X0028571Y0052485D01*
X0028615Y0052529D01*
X0028663Y0052571D01*
X0028712Y0052609D01*
X0028764Y0052644D01*
X0028818Y0052676D01*
X0028874Y0052705D01*
X0028932Y0052730D01*
X0028991Y0052751D01*
X0029051Y0052769D01*
X0029113Y0052782D01*
X0029175Y0052792D01*
X0029237Y0052798D01*
X0029300Y0052800D01*
X0029363Y0052798D01*
X0029425Y0052792D01*
X0029487Y0052782D01*
X0029549Y0052769D01*
X0029609Y0052751D01*
X0029668Y0052730D01*
X0029726Y0052705D01*
X0029782Y0052676D01*
X0029836Y0052644D01*
X0029888Y0052609D01*
X0029937Y0052571D01*
X0029985Y0052529D01*
X0030029Y0052485D01*
X0030071Y0052437D01*
X0030109Y0052388D01*
X0030144Y0052336D01*
X0030176Y0052282D01*
X0030205Y0052226D01*
X0030230Y0052168D01*
X0030251Y0052109D01*
X0030269Y0052049D01*
X0030282Y0051987D01*
X0030292Y0051925D01*
X0030298Y0051863D01*
X0030300Y0051800D01*
X0030298Y0051737D01*
X0030292Y0051675D01*
X0030282Y0051613D01*
X0030269Y0051551D01*
X0030251Y0051491D01*
X0030230Y0051432D01*
X0030205Y0051374D01*
X0030176Y0051318D01*
X0030144Y0051264D01*
X0030109Y0051212D01*
X0030071Y0051163D01*
X0030029Y0051115D01*
X0029985Y0051071D01*
X0029937Y0051029D01*
X0029888Y0050991D01*
X0029836Y0050956D01*
X0029782Y0050924D01*
X0029726Y0050895D01*
X0029668Y0050870D01*
X0029609Y0050849D01*
X0029549Y0050831D01*
X0029487Y0050818D01*
X0029425Y0050808D01*
X0029363Y0050802D01*
X0029300Y0050800D01*
X0029237Y0050802D01*
X0029175Y0050808D01*
X0029113Y0050818D01*
X0029051Y0050831D01*
X0028991Y0050849D01*
X0028932Y0050870D01*
X0028874Y0050895D01*
X0028818Y0050924D01*
X0028764Y0050956D01*
X0028712Y0050991D01*
X0028663Y0051029D01*
X0028615Y0051071D01*
X0028571Y0051115D01*
X0028529Y0051163D01*
X0028491Y0051212D01*
X0028456Y0051264D01*
X0028424Y0051318D01*
X0028395Y0051374D01*
X0028370Y0051432D01*
X0028349Y0051491D01*
X0028331Y0051551D01*
X0028318Y0051613D01*
X0028308Y0051675D01*
X0028302Y0051737D01*
X0028300Y0051800D01*
X0022300Y0051800D02*
X0022302Y0051972D01*
X0022308Y0052143D01*
X0022319Y0052315D01*
X0022334Y0052486D01*
X0022353Y0052657D01*
X0022376Y0052827D01*
X0022403Y0052997D01*
X0022435Y0053166D01*
X0022470Y0053334D01*
X0022510Y0053501D01*
X0022554Y0053667D01*
X0022601Y0053832D01*
X0022653Y0053996D01*
X0022709Y0054158D01*
X0022769Y0054319D01*
X0022833Y0054479D01*
X0022901Y0054637D01*
X0022972Y0054793D01*
X0023047Y0054947D01*
X0023127Y0055100D01*
X0023209Y0055250D01*
X0023296Y0055399D01*
X0023386Y0055545D01*
X0023480Y0055689D01*
X0023577Y0055831D01*
X0023678Y0055970D01*
X0023782Y0056107D01*
X0023889Y0056241D01*
X0024000Y0056372D01*
X0024113Y0056501D01*
X0024230Y0056627D01*
X0024350Y0056750D01*
X0024473Y0056870D01*
X0024599Y0056987D01*
X0024728Y0057100D01*
X0024859Y0057211D01*
X0024993Y0057318D01*
X0025130Y0057422D01*
X0025269Y0057523D01*
X0025411Y0057620D01*
X0025555Y0057714D01*
X0025701Y0057804D01*
X0025850Y0057891D01*
X0026000Y0057973D01*
X0026153Y0058053D01*
X0026307Y0058128D01*
X0026463Y0058199D01*
X0026621Y0058267D01*
X0026781Y0058331D01*
X0026942Y0058391D01*
X0027104Y0058447D01*
X0027268Y0058499D01*
X0027433Y0058546D01*
X0027599Y0058590D01*
X0027766Y0058630D01*
X0027934Y0058665D01*
X0028103Y0058697D01*
X0028273Y0058724D01*
X0028443Y0058747D01*
X0028614Y0058766D01*
X0028785Y0058781D01*
X0028957Y0058792D01*
X0029128Y0058798D01*
X0029300Y0058800D01*
X0029472Y0058798D01*
X0029643Y0058792D01*
X0029815Y0058781D01*
X0029986Y0058766D01*
X0030157Y0058747D01*
X0030327Y0058724D01*
X0030497Y0058697D01*
X0030666Y0058665D01*
X0030834Y0058630D01*
X0031001Y0058590D01*
X0031167Y0058546D01*
X0031332Y0058499D01*
X0031496Y0058447D01*
X0031658Y0058391D01*
X0031819Y0058331D01*
X0031979Y0058267D01*
X0032137Y0058199D01*
X0032293Y0058128D01*
X0032447Y0058053D01*
X0032600Y0057973D01*
X0032750Y0057891D01*
X0032899Y0057804D01*
X0033045Y0057714D01*
X0033189Y0057620D01*
X0033331Y0057523D01*
X0033470Y0057422D01*
X0033607Y0057318D01*
X0033741Y0057211D01*
X0033872Y0057100D01*
X0034001Y0056987D01*
X0034127Y0056870D01*
X0034250Y0056750D01*
X0034370Y0056627D01*
X0034487Y0056501D01*
X0034600Y0056372D01*
X0034711Y0056241D01*
X0034818Y0056107D01*
X0034922Y0055970D01*
X0035023Y0055831D01*
X0035120Y0055689D01*
X0035214Y0055545D01*
X0035304Y0055399D01*
X0035391Y0055250D01*
X0035473Y0055100D01*
X0035553Y0054947D01*
X0035628Y0054793D01*
X0035699Y0054637D01*
X0035767Y0054479D01*
X0035831Y0054319D01*
X0035891Y0054158D01*
X0035947Y0053996D01*
X0035999Y0053832D01*
X0036046Y0053667D01*
X0036090Y0053501D01*
X0036130Y0053334D01*
X0036165Y0053166D01*
X0036197Y0052997D01*
X0036224Y0052827D01*
X0036247Y0052657D01*
X0036266Y0052486D01*
X0036281Y0052315D01*
X0036292Y0052143D01*
X0036298Y0051972D01*
X0036300Y0051800D01*
X0036298Y0051628D01*
X0036292Y0051457D01*
X0036281Y0051285D01*
X0036266Y0051114D01*
X0036247Y0050943D01*
X0036224Y0050773D01*
X0036197Y0050603D01*
X0036165Y0050434D01*
X0036130Y0050266D01*
X0036090Y0050099D01*
X0036046Y0049933D01*
X0035999Y0049768D01*
X0035947Y0049604D01*
X0035891Y0049442D01*
X0035831Y0049281D01*
X0035767Y0049121D01*
X0035699Y0048963D01*
X0035628Y0048807D01*
X0035553Y0048653D01*
X0035473Y0048500D01*
X0035391Y0048350D01*
X0035304Y0048201D01*
X0035214Y0048055D01*
X0035120Y0047911D01*
X0035023Y0047769D01*
X0034922Y0047630D01*
X0034818Y0047493D01*
X0034711Y0047359D01*
X0034600Y0047228D01*
X0034487Y0047099D01*
X0034370Y0046973D01*
X0034250Y0046850D01*
X0034127Y0046730D01*
X0034001Y0046613D01*
X0033872Y0046500D01*
X0033741Y0046389D01*
X0033607Y0046282D01*
X0033470Y0046178D01*
X0033331Y0046077D01*
X0033189Y0045980D01*
X0033045Y0045886D01*
X0032899Y0045796D01*
X0032750Y0045709D01*
X0032600Y0045627D01*
X0032447Y0045547D01*
X0032293Y0045472D01*
X0032137Y0045401D01*
X0031979Y0045333D01*
X0031819Y0045269D01*
X0031658Y0045209D01*
X0031496Y0045153D01*
X0031332Y0045101D01*
X0031167Y0045054D01*
X0031001Y0045010D01*
X0030834Y0044970D01*
X0030666Y0044935D01*
X0030497Y0044903D01*
X0030327Y0044876D01*
X0030157Y0044853D01*
X0029986Y0044834D01*
X0029815Y0044819D01*
X0029643Y0044808D01*
X0029472Y0044802D01*
X0029300Y0044800D01*
X0029128Y0044802D01*
X0028957Y0044808D01*
X0028785Y0044819D01*
X0028614Y0044834D01*
X0028443Y0044853D01*
X0028273Y0044876D01*
X0028103Y0044903D01*
X0027934Y0044935D01*
X0027766Y0044970D01*
X0027599Y0045010D01*
X0027433Y0045054D01*
X0027268Y0045101D01*
X0027104Y0045153D01*
X0026942Y0045209D01*
X0026781Y0045269D01*
X0026621Y0045333D01*
X0026463Y0045401D01*
X0026307Y0045472D01*
X0026153Y0045547D01*
X0026000Y0045627D01*
X0025850Y0045709D01*
X0025701Y0045796D01*
X0025555Y0045886D01*
X0025411Y0045980D01*
X0025269Y0046077D01*
X0025130Y0046178D01*
X0024993Y0046282D01*
X0024859Y0046389D01*
X0024728Y0046500D01*
X0024599Y0046613D01*
X0024473Y0046730D01*
X0024350Y0046850D01*
X0024230Y0046973D01*
X0024113Y0047099D01*
X0024000Y0047228D01*
X0023889Y0047359D01*
X0023782Y0047493D01*
X0023678Y0047630D01*
X0023577Y0047769D01*
X0023480Y0047911D01*
X0023386Y0048055D01*
X0023296Y0048201D01*
X0023209Y0048350D01*
X0023127Y0048500D01*
X0023047Y0048653D01*
X0022972Y0048807D01*
X0022901Y0048963D01*
X0022833Y0049121D01*
X0022769Y0049281D01*
X0022709Y0049442D01*
X0022653Y0049604D01*
X0022601Y0049768D01*
X0022554Y0049933D01*
X0022510Y0050099D01*
X0022470Y0050266D01*
X0022435Y0050434D01*
X0022403Y0050603D01*
X0022376Y0050773D01*
X0022353Y0050943D01*
X0022334Y0051114D01*
X0022319Y0051285D01*
X0022308Y0051457D01*
X0022302Y0051628D01*
X0022300Y0051800D01*
X0066300Y0048800D02*
X0067300Y0048800D01*
X0067300Y0047800D01*
X0066300Y0048800D02*
X0066300Y0054800D01*
X0067300Y0054800D01*
X0067300Y0055800D01*
X0070800Y0063800D02*
X0074300Y0063800D01*
X0084300Y0063800D01*
X0087800Y0063800D01*
X0090294Y0069600D02*
X0091272Y0072533D01*
X0092250Y0069600D01*
X0093228Y0074000D01*
X0097227Y0072045D02*
X0097276Y0072093D01*
X0097321Y0072145D01*
X0097363Y0072198D01*
X0097402Y0072254D01*
X0097438Y0072313D01*
X0097470Y0072373D01*
X0097499Y0072435D01*
X0097524Y0072498D01*
X0097545Y0072563D01*
X0097563Y0072629D01*
X0097576Y0072696D01*
X0097586Y0072764D01*
X0097592Y0072832D01*
X0097594Y0072900D01*
X0097228Y0072044D02*
X0095150Y0069600D01*
X0097594Y0069600D01*
X0095150Y0073022D02*
X0095174Y0073092D01*
X0095203Y0073161D01*
X0095234Y0073227D01*
X0095270Y0073293D01*
X0095308Y0073356D01*
X0095350Y0073417D01*
X0095395Y0073475D01*
X0095443Y0073532D01*
X0095494Y0073586D01*
X0095548Y0073637D01*
X0095604Y0073685D01*
X0095663Y0073730D01*
X0095724Y0073772D01*
X0095787Y0073810D01*
X0095852Y0073846D01*
X0095919Y0073878D01*
X0095987Y0073906D01*
X0096057Y0073931D01*
X0096128Y0073952D01*
X0096200Y0073969D01*
X0096273Y0073983D01*
X0096346Y0073992D01*
X0096420Y0073998D01*
X0096494Y0074000D01*
X0096558Y0073998D01*
X0096622Y0073993D01*
X0096685Y0073983D01*
X0096748Y0073970D01*
X0096809Y0073954D01*
X0096870Y0073934D01*
X0096930Y0073910D01*
X0096988Y0073883D01*
X0097044Y0073853D01*
X0097098Y0073819D01*
X0097151Y0073782D01*
X0097201Y0073743D01*
X0097249Y0073700D01*
X0097294Y0073655D01*
X0097337Y0073607D01*
X0097376Y0073557D01*
X0097413Y0073504D01*
X0097447Y0073450D01*
X0097477Y0073394D01*
X0097504Y0073336D01*
X0097528Y0073276D01*
X0097548Y0073215D01*
X0097564Y0073154D01*
X0097577Y0073091D01*
X0097587Y0073028D01*
X0097592Y0072964D01*
X0097594Y0072900D01*
X0090294Y0069600D02*
X0089317Y0074000D01*
X0087056Y0071433D02*
X0085711Y0072167D01*
X0086200Y0074000D02*
X0086284Y0073998D01*
X0086368Y0073992D01*
X0086452Y0073983D01*
X0086535Y0073969D01*
X0086618Y0073952D01*
X0086699Y0073931D01*
X0086780Y0073906D01*
X0086859Y0073877D01*
X0086937Y0073845D01*
X0087013Y0073810D01*
X0087088Y0073771D01*
X0087161Y0073728D01*
X0087231Y0073682D01*
X0087300Y0073633D01*
X0085711Y0072166D02*
X0085660Y0072199D01*
X0085610Y0072234D01*
X0085563Y0072273D01*
X0085519Y0072314D01*
X0085477Y0072358D01*
X0085438Y0072404D01*
X0085402Y0072453D01*
X0085368Y0072503D01*
X0085338Y0072556D01*
X0085311Y0072610D01*
X0085288Y0072666D01*
X0085268Y0072723D01*
X0085251Y0072782D01*
X0085239Y0072841D01*
X0085229Y0072901D01*
X0085224Y0072961D01*
X0085222Y0073022D01*
X0085224Y0073083D01*
X0085230Y0073145D01*
X0085239Y0073205D01*
X0085253Y0073265D01*
X0085270Y0073324D01*
X0085291Y0073382D01*
X0085315Y0073438D01*
X0085343Y0073493D01*
X0085374Y0073546D01*
X0085409Y0073597D01*
X0085446Y0073645D01*
X0085487Y0073691D01*
X0085531Y0073735D01*
X0085577Y0073776D01*
X0085625Y0073813D01*
X0085676Y0073848D01*
X0085729Y0073879D01*
X0085784Y0073907D01*
X0085840Y0073931D01*
X0085898Y0073952D01*
X0085957Y0073969D01*
X0086017Y0073983D01*
X0086077Y0073992D01*
X0086139Y0073998D01*
X0086200Y0074000D01*
X0085100Y0070211D02*
X0085165Y0070148D01*
X0085233Y0070088D01*
X0085304Y0070031D01*
X0085376Y0069977D01*
X0085452Y0069927D01*
X0085529Y0069880D01*
X0085608Y0069836D01*
X0085690Y0069796D01*
X0085772Y0069759D01*
X0085857Y0069726D01*
X0085943Y0069697D01*
X0086029Y0069671D01*
X0086117Y0069649D01*
X0086206Y0069632D01*
X0086296Y0069618D01*
X0086386Y0069608D01*
X0086476Y0069602D01*
X0086567Y0069600D01*
X0086628Y0069602D01*
X0086690Y0069608D01*
X0086750Y0069617D01*
X0086810Y0069631D01*
X0086869Y0069648D01*
X0086927Y0069669D01*
X0086983Y0069693D01*
X0087038Y0069721D01*
X0087091Y0069752D01*
X0087142Y0069787D01*
X0087190Y0069824D01*
X0087236Y0069865D01*
X0087280Y0069909D01*
X0087321Y0069955D01*
X0087358Y0070003D01*
X0087393Y0070054D01*
X0087424Y0070107D01*
X0087452Y0070162D01*
X0087476Y0070218D01*
X0087497Y0070276D01*
X0087514Y0070335D01*
X0087528Y0070395D01*
X0087537Y0070455D01*
X0087543Y0070517D01*
X0087545Y0070578D01*
X0087544Y0070578D02*
X0087542Y0070639D01*
X0087537Y0070699D01*
X0087527Y0070759D01*
X0087515Y0070818D01*
X0087498Y0070877D01*
X0087478Y0070934D01*
X0087455Y0070990D01*
X0087428Y0071044D01*
X0087398Y0071097D01*
X0087364Y0071147D01*
X0087328Y0071196D01*
X0087289Y0071242D01*
X0087247Y0071286D01*
X0087203Y0071327D01*
X0087156Y0071366D01*
X0087106Y0071401D01*
X0087055Y0071434D01*
X0091300Y0055800D02*
X0091300Y0054800D01*
X0092300Y0054800D01*
X0092300Y0048800D01*
X0091300Y0048800D01*
X0091300Y0047800D01*
X0087800Y0039800D02*
X0083800Y0039800D01*
X0074300Y0039800D01*
X0070800Y0039800D01*
X0078300Y0051800D02*
X0078302Y0051863D01*
X0078308Y0051925D01*
X0078318Y0051987D01*
X0078331Y0052049D01*
X0078349Y0052109D01*
X0078370Y0052168D01*
X0078395Y0052226D01*
X0078424Y0052282D01*
X0078456Y0052336D01*
X0078491Y0052388D01*
X0078529Y0052437D01*
X0078571Y0052485D01*
X0078615Y0052529D01*
X0078663Y0052571D01*
X0078712Y0052609D01*
X0078764Y0052644D01*
X0078818Y0052676D01*
X0078874Y0052705D01*
X0078932Y0052730D01*
X0078991Y0052751D01*
X0079051Y0052769D01*
X0079113Y0052782D01*
X0079175Y0052792D01*
X0079237Y0052798D01*
X0079300Y0052800D01*
X0079363Y0052798D01*
X0079425Y0052792D01*
X0079487Y0052782D01*
X0079549Y0052769D01*
X0079609Y0052751D01*
X0079668Y0052730D01*
X0079726Y0052705D01*
X0079782Y0052676D01*
X0079836Y0052644D01*
X0079888Y0052609D01*
X0079937Y0052571D01*
X0079985Y0052529D01*
X0080029Y0052485D01*
X0080071Y0052437D01*
X0080109Y0052388D01*
X0080144Y0052336D01*
X0080176Y0052282D01*
X0080205Y0052226D01*
X0080230Y0052168D01*
X0080251Y0052109D01*
X0080269Y0052049D01*
X0080282Y0051987D01*
X0080292Y0051925D01*
X0080298Y0051863D01*
X0080300Y0051800D01*
X0080298Y0051737D01*
X0080292Y0051675D01*
X0080282Y0051613D01*
X0080269Y0051551D01*
X0080251Y0051491D01*
X0080230Y0051432D01*
X0080205Y0051374D01*
X0080176Y0051318D01*
X0080144Y0051264D01*
X0080109Y0051212D01*
X0080071Y0051163D01*
X0080029Y0051115D01*
X0079985Y0051071D01*
X0079937Y0051029D01*
X0079888Y0050991D01*
X0079836Y0050956D01*
X0079782Y0050924D01*
X0079726Y0050895D01*
X0079668Y0050870D01*
X0079609Y0050849D01*
X0079549Y0050831D01*
X0079487Y0050818D01*
X0079425Y0050808D01*
X0079363Y0050802D01*
X0079300Y0050800D01*
X0079237Y0050802D01*
X0079175Y0050808D01*
X0079113Y0050818D01*
X0079051Y0050831D01*
X0078991Y0050849D01*
X0078932Y0050870D01*
X0078874Y0050895D01*
X0078818Y0050924D01*
X0078764Y0050956D01*
X0078712Y0050991D01*
X0078663Y0051029D01*
X0078615Y0051071D01*
X0078571Y0051115D01*
X0078529Y0051163D01*
X0078491Y0051212D01*
X0078456Y0051264D01*
X0078424Y0051318D01*
X0078395Y0051374D01*
X0078370Y0051432D01*
X0078349Y0051491D01*
X0078331Y0051551D01*
X0078318Y0051613D01*
X0078308Y0051675D01*
X0078302Y0051737D01*
X0078300Y0051800D01*
X0072300Y0051800D02*
X0072302Y0051972D01*
X0072308Y0052143D01*
X0072319Y0052315D01*
X0072334Y0052486D01*
X0072353Y0052657D01*
X0072376Y0052827D01*
X0072403Y0052997D01*
X0072435Y0053166D01*
X0072470Y0053334D01*
X0072510Y0053501D01*
X0072554Y0053667D01*
X0072601Y0053832D01*
X0072653Y0053996D01*
X0072709Y0054158D01*
X0072769Y0054319D01*
X0072833Y0054479D01*
X0072901Y0054637D01*
X0072972Y0054793D01*
X0073047Y0054947D01*
X0073127Y0055100D01*
X0073209Y0055250D01*
X0073296Y0055399D01*
X0073386Y0055545D01*
X0073480Y0055689D01*
X0073577Y0055831D01*
X0073678Y0055970D01*
X0073782Y0056107D01*
X0073889Y0056241D01*
X0074000Y0056372D01*
X0074113Y0056501D01*
X0074230Y0056627D01*
X0074350Y0056750D01*
X0074473Y0056870D01*
X0074599Y0056987D01*
X0074728Y0057100D01*
X0074859Y0057211D01*
X0074993Y0057318D01*
X0075130Y0057422D01*
X0075269Y0057523D01*
X0075411Y0057620D01*
X0075555Y0057714D01*
X0075701Y0057804D01*
X0075850Y0057891D01*
X0076000Y0057973D01*
X0076153Y0058053D01*
X0076307Y0058128D01*
X0076463Y0058199D01*
X0076621Y0058267D01*
X0076781Y0058331D01*
X0076942Y0058391D01*
X0077104Y0058447D01*
X0077268Y0058499D01*
X0077433Y0058546D01*
X0077599Y0058590D01*
X0077766Y0058630D01*
X0077934Y0058665D01*
X0078103Y0058697D01*
X0078273Y0058724D01*
X0078443Y0058747D01*
X0078614Y0058766D01*
X0078785Y0058781D01*
X0078957Y0058792D01*
X0079128Y0058798D01*
X0079300Y0058800D01*
X0079472Y0058798D01*
X0079643Y0058792D01*
X0079815Y0058781D01*
X0079986Y0058766D01*
X0080157Y0058747D01*
X0080327Y0058724D01*
X0080497Y0058697D01*
X0080666Y0058665D01*
X0080834Y0058630D01*
X0081001Y0058590D01*
X0081167Y0058546D01*
X0081332Y0058499D01*
X0081496Y0058447D01*
X0081658Y0058391D01*
X0081819Y0058331D01*
X0081979Y0058267D01*
X0082137Y0058199D01*
X0082293Y0058128D01*
X0082447Y0058053D01*
X0082600Y0057973D01*
X0082750Y0057891D01*
X0082899Y0057804D01*
X0083045Y0057714D01*
X0083189Y0057620D01*
X0083331Y0057523D01*
X0083470Y0057422D01*
X0083607Y0057318D01*
X0083741Y0057211D01*
X0083872Y0057100D01*
X0084001Y0056987D01*
X0084127Y0056870D01*
X0084250Y0056750D01*
X0084370Y0056627D01*
X0084487Y0056501D01*
X0084600Y0056372D01*
X0084711Y0056241D01*
X0084818Y0056107D01*
X0084922Y0055970D01*
X0085023Y0055831D01*
X0085120Y0055689D01*
X0085214Y0055545D01*
X0085304Y0055399D01*
X0085391Y0055250D01*
X0085473Y0055100D01*
X0085553Y0054947D01*
X0085628Y0054793D01*
X0085699Y0054637D01*
X0085767Y0054479D01*
X0085831Y0054319D01*
X0085891Y0054158D01*
X0085947Y0053996D01*
X0085999Y0053832D01*
X0086046Y0053667D01*
X0086090Y0053501D01*
X0086130Y0053334D01*
X0086165Y0053166D01*
X0086197Y0052997D01*
X0086224Y0052827D01*
X0086247Y0052657D01*
X0086266Y0052486D01*
X0086281Y0052315D01*
X0086292Y0052143D01*
X0086298Y0051972D01*
X0086300Y0051800D01*
X0086298Y0051628D01*
X0086292Y0051457D01*
X0086281Y0051285D01*
X0086266Y0051114D01*
X0086247Y0050943D01*
X0086224Y0050773D01*
X0086197Y0050603D01*
X0086165Y0050434D01*
X0086130Y0050266D01*
X0086090Y0050099D01*
X0086046Y0049933D01*
X0085999Y0049768D01*
X0085947Y0049604D01*
X0085891Y0049442D01*
X0085831Y0049281D01*
X0085767Y0049121D01*
X0085699Y0048963D01*
X0085628Y0048807D01*
X0085553Y0048653D01*
X0085473Y0048500D01*
X0085391Y0048350D01*
X0085304Y0048201D01*
X0085214Y0048055D01*
X0085120Y0047911D01*
X0085023Y0047769D01*
X0084922Y0047630D01*
X0084818Y0047493D01*
X0084711Y0047359D01*
X0084600Y0047228D01*
X0084487Y0047099D01*
X0084370Y0046973D01*
X0084250Y0046850D01*
X0084127Y0046730D01*
X0084001Y0046613D01*
X0083872Y0046500D01*
X0083741Y0046389D01*
X0083607Y0046282D01*
X0083470Y0046178D01*
X0083331Y0046077D01*
X0083189Y0045980D01*
X0083045Y0045886D01*
X0082899Y0045796D01*
X0082750Y0045709D01*
X0082600Y0045627D01*
X0082447Y0045547D01*
X0082293Y0045472D01*
X0082137Y0045401D01*
X0081979Y0045333D01*
X0081819Y0045269D01*
X0081658Y0045209D01*
X0081496Y0045153D01*
X0081332Y0045101D01*
X0081167Y0045054D01*
X0081001Y0045010D01*
X0080834Y0044970D01*
X0080666Y0044935D01*
X0080497Y0044903D01*
X0080327Y0044876D01*
X0080157Y0044853D01*
X0079986Y0044834D01*
X0079815Y0044819D01*
X0079643Y0044808D01*
X0079472Y0044802D01*
X0079300Y0044800D01*
X0079128Y0044802D01*
X0078957Y0044808D01*
X0078785Y0044819D01*
X0078614Y0044834D01*
X0078443Y0044853D01*
X0078273Y0044876D01*
X0078103Y0044903D01*
X0077934Y0044935D01*
X0077766Y0044970D01*
X0077599Y0045010D01*
X0077433Y0045054D01*
X0077268Y0045101D01*
X0077104Y0045153D01*
X0076942Y0045209D01*
X0076781Y0045269D01*
X0076621Y0045333D01*
X0076463Y0045401D01*
X0076307Y0045472D01*
X0076153Y0045547D01*
X0076000Y0045627D01*
X0075850Y0045709D01*
X0075701Y0045796D01*
X0075555Y0045886D01*
X0075411Y0045980D01*
X0075269Y0046077D01*
X0075130Y0046178D01*
X0074993Y0046282D01*
X0074859Y0046389D01*
X0074728Y0046500D01*
X0074599Y0046613D01*
X0074473Y0046730D01*
X0074350Y0046850D01*
X0074230Y0046973D01*
X0074113Y0047099D01*
X0074000Y0047228D01*
X0073889Y0047359D01*
X0073782Y0047493D01*
X0073678Y0047630D01*
X0073577Y0047769D01*
X0073480Y0047911D01*
X0073386Y0048055D01*
X0073296Y0048201D01*
X0073209Y0048350D01*
X0073127Y0048500D01*
X0073047Y0048653D01*
X0072972Y0048807D01*
X0072901Y0048963D01*
X0072833Y0049121D01*
X0072769Y0049281D01*
X0072709Y0049442D01*
X0072653Y0049604D01*
X0072601Y0049768D01*
X0072554Y0049933D01*
X0072510Y0050099D01*
X0072470Y0050266D01*
X0072435Y0050434D01*
X0072403Y0050603D01*
X0072376Y0050773D01*
X0072353Y0050943D01*
X0072334Y0051114D01*
X0072319Y0051285D01*
X0072308Y0051457D01*
X0072302Y0051628D01*
X0072300Y0051800D01*
D12*
X0058788Y0032627D02*
X0056229Y0032627D01*
X0056229Y0026328D01*
X0053867Y0026328D02*
X0053867Y0032627D01*
X0051308Y0032627D01*
X0051308Y0002706D01*
X0090284Y0002706D01*
X0090284Y0032627D01*
X0087725Y0032627D01*
X0087725Y0026328D01*
X0058788Y0032627D02*
X0058788Y0002706D01*
X0019812Y0002706D01*
X0019812Y0032627D01*
X0022371Y0032627D01*
X0022371Y0026328D01*
X0047607Y0051800D02*
X0047609Y0051964D01*
X0047615Y0052128D01*
X0047625Y0052292D01*
X0047639Y0052456D01*
X0047657Y0052619D01*
X0047679Y0052782D01*
X0047706Y0052944D01*
X0047736Y0053106D01*
X0047770Y0053266D01*
X0047808Y0053426D01*
X0047849Y0053585D01*
X0047895Y0053743D01*
X0047945Y0053899D01*
X0047998Y0054055D01*
X0048055Y0054209D01*
X0048116Y0054361D01*
X0048181Y0054512D01*
X0048250Y0054662D01*
X0048322Y0054809D01*
X0048397Y0054955D01*
X0048477Y0055099D01*
X0048559Y0055241D01*
X0048645Y0055381D01*
X0048735Y0055518D01*
X0048828Y0055654D01*
X0048924Y0055787D01*
X0049024Y0055918D01*
X0049126Y0056046D01*
X0049232Y0056172D01*
X0049341Y0056295D01*
X0049453Y0056415D01*
X0049567Y0056533D01*
X0049685Y0056647D01*
X0049805Y0056759D01*
X0049928Y0056868D01*
X0050054Y0056974D01*
X0050182Y0057076D01*
X0050313Y0057176D01*
X0050446Y0057272D01*
X0050582Y0057365D01*
X0050719Y0057455D01*
X0050859Y0057541D01*
X0051001Y0057623D01*
X0051145Y0057703D01*
X0051291Y0057778D01*
X0051438Y0057850D01*
X0051588Y0057919D01*
X0051739Y0057984D01*
X0051891Y0058045D01*
X0052045Y0058102D01*
X0052201Y0058155D01*
X0052357Y0058205D01*
X0052515Y0058251D01*
X0052674Y0058292D01*
X0052834Y0058330D01*
X0052994Y0058364D01*
X0053156Y0058394D01*
X0053318Y0058421D01*
X0053481Y0058443D01*
X0053644Y0058461D01*
X0053808Y0058475D01*
X0053972Y0058485D01*
X0054136Y0058491D01*
X0054300Y0058493D01*
X0054464Y0058491D01*
X0054628Y0058485D01*
X0054792Y0058475D01*
X0054956Y0058461D01*
X0055119Y0058443D01*
X0055282Y0058421D01*
X0055444Y0058394D01*
X0055606Y0058364D01*
X0055766Y0058330D01*
X0055926Y0058292D01*
X0056085Y0058251D01*
X0056243Y0058205D01*
X0056399Y0058155D01*
X0056555Y0058102D01*
X0056709Y0058045D01*
X0056861Y0057984D01*
X0057012Y0057919D01*
X0057162Y0057850D01*
X0057309Y0057778D01*
X0057455Y0057703D01*
X0057599Y0057623D01*
X0057741Y0057541D01*
X0057881Y0057455D01*
X0058018Y0057365D01*
X0058154Y0057272D01*
X0058287Y0057176D01*
X0058418Y0057076D01*
X0058546Y0056974D01*
X0058672Y0056868D01*
X0058795Y0056759D01*
X0058915Y0056647D01*
X0059033Y0056533D01*
X0059147Y0056415D01*
X0059259Y0056295D01*
X0059368Y0056172D01*
X0059474Y0056046D01*
X0059576Y0055918D01*
X0059676Y0055787D01*
X0059772Y0055654D01*
X0059865Y0055518D01*
X0059955Y0055381D01*
X0060041Y0055241D01*
X0060123Y0055099D01*
X0060203Y0054955D01*
X0060278Y0054809D01*
X0060350Y0054662D01*
X0060419Y0054512D01*
X0060484Y0054361D01*
X0060545Y0054209D01*
X0060602Y0054055D01*
X0060655Y0053899D01*
X0060705Y0053743D01*
X0060751Y0053585D01*
X0060792Y0053426D01*
X0060830Y0053266D01*
X0060864Y0053106D01*
X0060894Y0052944D01*
X0060921Y0052782D01*
X0060943Y0052619D01*
X0060961Y0052456D01*
X0060975Y0052292D01*
X0060985Y0052128D01*
X0060991Y0051964D01*
X0060993Y0051800D01*
X0060991Y0051636D01*
X0060985Y0051472D01*
X0060975Y0051308D01*
X0060961Y0051144D01*
X0060943Y0050981D01*
X0060921Y0050818D01*
X0060894Y0050656D01*
X0060864Y0050494D01*
X0060830Y0050334D01*
X0060792Y0050174D01*
X0060751Y0050015D01*
X0060705Y0049857D01*
X0060655Y0049701D01*
X0060602Y0049545D01*
X0060545Y0049391D01*
X0060484Y0049239D01*
X0060419Y0049088D01*
X0060350Y0048938D01*
X0060278Y0048791D01*
X0060203Y0048645D01*
X0060123Y0048501D01*
X0060041Y0048359D01*
X0059955Y0048219D01*
X0059865Y0048082D01*
X0059772Y0047946D01*
X0059676Y0047813D01*
X0059576Y0047682D01*
X0059474Y0047554D01*
X0059368Y0047428D01*
X0059259Y0047305D01*
X0059147Y0047185D01*
X0059033Y0047067D01*
X0058915Y0046953D01*
X0058795Y0046841D01*
X0058672Y0046732D01*
X0058546Y0046626D01*
X0058418Y0046524D01*
X0058287Y0046424D01*
X0058154Y0046328D01*
X0058018Y0046235D01*
X0057881Y0046145D01*
X0057741Y0046059D01*
X0057599Y0045977D01*
X0057455Y0045897D01*
X0057309Y0045822D01*
X0057162Y0045750D01*
X0057012Y0045681D01*
X0056861Y0045616D01*
X0056709Y0045555D01*
X0056555Y0045498D01*
X0056399Y0045445D01*
X0056243Y0045395D01*
X0056085Y0045349D01*
X0055926Y0045308D01*
X0055766Y0045270D01*
X0055606Y0045236D01*
X0055444Y0045206D01*
X0055282Y0045179D01*
X0055119Y0045157D01*
X0054956Y0045139D01*
X0054792Y0045125D01*
X0054628Y0045115D01*
X0054464Y0045109D01*
X0054300Y0045107D01*
X0054136Y0045109D01*
X0053972Y0045115D01*
X0053808Y0045125D01*
X0053644Y0045139D01*
X0053481Y0045157D01*
X0053318Y0045179D01*
X0053156Y0045206D01*
X0052994Y0045236D01*
X0052834Y0045270D01*
X0052674Y0045308D01*
X0052515Y0045349D01*
X0052357Y0045395D01*
X0052201Y0045445D01*
X0052045Y0045498D01*
X0051891Y0045555D01*
X0051739Y0045616D01*
X0051588Y0045681D01*
X0051438Y0045750D01*
X0051291Y0045822D01*
X0051145Y0045897D01*
X0051001Y0045977D01*
X0050859Y0046059D01*
X0050719Y0046145D01*
X0050582Y0046235D01*
X0050446Y0046328D01*
X0050313Y0046424D01*
X0050182Y0046524D01*
X0050054Y0046626D01*
X0049928Y0046732D01*
X0049805Y0046841D01*
X0049685Y0046953D01*
X0049567Y0047067D01*
X0049453Y0047185D01*
X0049341Y0047305D01*
X0049232Y0047428D01*
X0049126Y0047554D01*
X0049024Y0047682D01*
X0048924Y0047813D01*
X0048828Y0047946D01*
X0048735Y0048082D01*
X0048645Y0048219D01*
X0048559Y0048359D01*
X0048477Y0048501D01*
X0048397Y0048645D01*
X0048322Y0048791D01*
X0048250Y0048938D01*
X0048181Y0049088D01*
X0048116Y0049239D01*
X0048055Y0049391D01*
X0047998Y0049545D01*
X0047945Y0049701D01*
X0047895Y0049857D01*
X0047849Y0050015D01*
X0047808Y0050174D01*
X0047770Y0050334D01*
X0047736Y0050494D01*
X0047706Y0050656D01*
X0047679Y0050818D01*
X0047657Y0050981D01*
X0047639Y0051144D01*
X0047625Y0051308D01*
X0047615Y0051472D01*
X0047609Y0051636D01*
X0047607Y0051800D01*
D13*
X0034300Y0062800D02*
X0034300Y0063800D01*
X0034300Y0062800D02*
X0024300Y0062800D01*
X0024300Y0063800D01*
X0024300Y0040800D02*
X0024300Y0039800D01*
X0024300Y0040800D02*
X0033800Y0040800D01*
X0033800Y0039800D01*
X0074300Y0039800D02*
X0074300Y0040800D01*
X0083800Y0040800D01*
X0083800Y0039800D01*
X0084300Y0062800D02*
X0074300Y0062800D01*
X0074300Y0063800D01*
X0084300Y0063800D02*
X0084300Y0062800D01*
M02*
