G75*
%MOIN*%
%OFA0B0*%
%FSLAX25Y25*%
%IPPOS*%
%LPD*%
%AMOC8*
5,1,8,0,0,1.08239X$1,22.5*
%
%ADD10C,0.00000*%
%ADD11R,0.32500X0.29000*%
%ADD12R,0.28000X0.24000*%
%ADD13C,0.06600*%
%ADD14C,0.06299*%
%ADD15C,0.07400*%
%ADD16OC8,0.07400*%
%ADD17C,0.08600*%
%ADD18OC8,0.06600*%
%ADD19C,0.03962*%
%ADD20C,0.01600*%
%ADD21C,0.01200*%
%ADD22C,0.02978*%
%ADD23C,0.03175*%
%ADD24C,0.03200*%
D10*
X0001600Y0001600D02*
X0001600Y0211561D01*
X0270301Y0211561D01*
X0270301Y0001600D01*
X0001600Y0001600D01*
X0245694Y0078943D02*
X0245696Y0079096D01*
X0245702Y0079250D01*
X0245712Y0079403D01*
X0245726Y0079555D01*
X0245744Y0079708D01*
X0245766Y0079859D01*
X0245791Y0080010D01*
X0245821Y0080161D01*
X0245855Y0080311D01*
X0245892Y0080459D01*
X0245933Y0080607D01*
X0245978Y0080753D01*
X0246027Y0080899D01*
X0246080Y0081043D01*
X0246136Y0081185D01*
X0246196Y0081326D01*
X0246260Y0081466D01*
X0246327Y0081604D01*
X0246398Y0081740D01*
X0246473Y0081874D01*
X0246550Y0082006D01*
X0246632Y0082136D01*
X0246716Y0082264D01*
X0246804Y0082390D01*
X0246895Y0082513D01*
X0246989Y0082634D01*
X0247087Y0082752D01*
X0247187Y0082868D01*
X0247291Y0082981D01*
X0247397Y0083092D01*
X0247506Y0083200D01*
X0247618Y0083305D01*
X0247732Y0083406D01*
X0247850Y0083505D01*
X0247969Y0083601D01*
X0248091Y0083694D01*
X0248216Y0083783D01*
X0248343Y0083870D01*
X0248472Y0083952D01*
X0248603Y0084032D01*
X0248736Y0084108D01*
X0248871Y0084181D01*
X0249008Y0084250D01*
X0249147Y0084315D01*
X0249287Y0084377D01*
X0249429Y0084435D01*
X0249572Y0084490D01*
X0249717Y0084541D01*
X0249863Y0084588D01*
X0250010Y0084631D01*
X0250158Y0084670D01*
X0250307Y0084706D01*
X0250457Y0084737D01*
X0250608Y0084765D01*
X0250759Y0084789D01*
X0250912Y0084809D01*
X0251064Y0084825D01*
X0251217Y0084837D01*
X0251370Y0084845D01*
X0251523Y0084849D01*
X0251677Y0084849D01*
X0251830Y0084845D01*
X0251983Y0084837D01*
X0252136Y0084825D01*
X0252288Y0084809D01*
X0252441Y0084789D01*
X0252592Y0084765D01*
X0252743Y0084737D01*
X0252893Y0084706D01*
X0253042Y0084670D01*
X0253190Y0084631D01*
X0253337Y0084588D01*
X0253483Y0084541D01*
X0253628Y0084490D01*
X0253771Y0084435D01*
X0253913Y0084377D01*
X0254053Y0084315D01*
X0254192Y0084250D01*
X0254329Y0084181D01*
X0254464Y0084108D01*
X0254597Y0084032D01*
X0254728Y0083952D01*
X0254857Y0083870D01*
X0254984Y0083783D01*
X0255109Y0083694D01*
X0255231Y0083601D01*
X0255350Y0083505D01*
X0255468Y0083406D01*
X0255582Y0083305D01*
X0255694Y0083200D01*
X0255803Y0083092D01*
X0255909Y0082981D01*
X0256013Y0082868D01*
X0256113Y0082752D01*
X0256211Y0082634D01*
X0256305Y0082513D01*
X0256396Y0082390D01*
X0256484Y0082264D01*
X0256568Y0082136D01*
X0256650Y0082006D01*
X0256727Y0081874D01*
X0256802Y0081740D01*
X0256873Y0081604D01*
X0256940Y0081466D01*
X0257004Y0081326D01*
X0257064Y0081185D01*
X0257120Y0081043D01*
X0257173Y0080899D01*
X0257222Y0080753D01*
X0257267Y0080607D01*
X0257308Y0080459D01*
X0257345Y0080311D01*
X0257379Y0080161D01*
X0257409Y0080010D01*
X0257434Y0079859D01*
X0257456Y0079708D01*
X0257474Y0079555D01*
X0257488Y0079403D01*
X0257498Y0079250D01*
X0257504Y0079096D01*
X0257506Y0078943D01*
X0257504Y0078790D01*
X0257498Y0078636D01*
X0257488Y0078483D01*
X0257474Y0078331D01*
X0257456Y0078178D01*
X0257434Y0078027D01*
X0257409Y0077876D01*
X0257379Y0077725D01*
X0257345Y0077575D01*
X0257308Y0077427D01*
X0257267Y0077279D01*
X0257222Y0077133D01*
X0257173Y0076987D01*
X0257120Y0076843D01*
X0257064Y0076701D01*
X0257004Y0076560D01*
X0256940Y0076420D01*
X0256873Y0076282D01*
X0256802Y0076146D01*
X0256727Y0076012D01*
X0256650Y0075880D01*
X0256568Y0075750D01*
X0256484Y0075622D01*
X0256396Y0075496D01*
X0256305Y0075373D01*
X0256211Y0075252D01*
X0256113Y0075134D01*
X0256013Y0075018D01*
X0255909Y0074905D01*
X0255803Y0074794D01*
X0255694Y0074686D01*
X0255582Y0074581D01*
X0255468Y0074480D01*
X0255350Y0074381D01*
X0255231Y0074285D01*
X0255109Y0074192D01*
X0254984Y0074103D01*
X0254857Y0074016D01*
X0254728Y0073934D01*
X0254597Y0073854D01*
X0254464Y0073778D01*
X0254329Y0073705D01*
X0254192Y0073636D01*
X0254053Y0073571D01*
X0253913Y0073509D01*
X0253771Y0073451D01*
X0253628Y0073396D01*
X0253483Y0073345D01*
X0253337Y0073298D01*
X0253190Y0073255D01*
X0253042Y0073216D01*
X0252893Y0073180D01*
X0252743Y0073149D01*
X0252592Y0073121D01*
X0252441Y0073097D01*
X0252288Y0073077D01*
X0252136Y0073061D01*
X0251983Y0073049D01*
X0251830Y0073041D01*
X0251677Y0073037D01*
X0251523Y0073037D01*
X0251370Y0073041D01*
X0251217Y0073049D01*
X0251064Y0073061D01*
X0250912Y0073077D01*
X0250759Y0073097D01*
X0250608Y0073121D01*
X0250457Y0073149D01*
X0250307Y0073180D01*
X0250158Y0073216D01*
X0250010Y0073255D01*
X0249863Y0073298D01*
X0249717Y0073345D01*
X0249572Y0073396D01*
X0249429Y0073451D01*
X0249287Y0073509D01*
X0249147Y0073571D01*
X0249008Y0073636D01*
X0248871Y0073705D01*
X0248736Y0073778D01*
X0248603Y0073854D01*
X0248472Y0073934D01*
X0248343Y0074016D01*
X0248216Y0074103D01*
X0248091Y0074192D01*
X0247969Y0074285D01*
X0247850Y0074381D01*
X0247732Y0074480D01*
X0247618Y0074581D01*
X0247506Y0074686D01*
X0247397Y0074794D01*
X0247291Y0074905D01*
X0247187Y0075018D01*
X0247087Y0075134D01*
X0246989Y0075252D01*
X0246895Y0075373D01*
X0246804Y0075496D01*
X0246716Y0075622D01*
X0246632Y0075750D01*
X0246550Y0075880D01*
X0246473Y0076012D01*
X0246398Y0076146D01*
X0246327Y0076282D01*
X0246260Y0076420D01*
X0246196Y0076560D01*
X0246136Y0076701D01*
X0246080Y0076843D01*
X0246027Y0076987D01*
X0245978Y0077133D01*
X0245933Y0077279D01*
X0245892Y0077427D01*
X0245855Y0077575D01*
X0245821Y0077725D01*
X0245791Y0077876D01*
X0245766Y0078027D01*
X0245744Y0078178D01*
X0245726Y0078331D01*
X0245712Y0078483D01*
X0245702Y0078636D01*
X0245696Y0078790D01*
X0245694Y0078943D01*
X0245694Y0109257D02*
X0245696Y0109410D01*
X0245702Y0109564D01*
X0245712Y0109717D01*
X0245726Y0109869D01*
X0245744Y0110022D01*
X0245766Y0110173D01*
X0245791Y0110324D01*
X0245821Y0110475D01*
X0245855Y0110625D01*
X0245892Y0110773D01*
X0245933Y0110921D01*
X0245978Y0111067D01*
X0246027Y0111213D01*
X0246080Y0111357D01*
X0246136Y0111499D01*
X0246196Y0111640D01*
X0246260Y0111780D01*
X0246327Y0111918D01*
X0246398Y0112054D01*
X0246473Y0112188D01*
X0246550Y0112320D01*
X0246632Y0112450D01*
X0246716Y0112578D01*
X0246804Y0112704D01*
X0246895Y0112827D01*
X0246989Y0112948D01*
X0247087Y0113066D01*
X0247187Y0113182D01*
X0247291Y0113295D01*
X0247397Y0113406D01*
X0247506Y0113514D01*
X0247618Y0113619D01*
X0247732Y0113720D01*
X0247850Y0113819D01*
X0247969Y0113915D01*
X0248091Y0114008D01*
X0248216Y0114097D01*
X0248343Y0114184D01*
X0248472Y0114266D01*
X0248603Y0114346D01*
X0248736Y0114422D01*
X0248871Y0114495D01*
X0249008Y0114564D01*
X0249147Y0114629D01*
X0249287Y0114691D01*
X0249429Y0114749D01*
X0249572Y0114804D01*
X0249717Y0114855D01*
X0249863Y0114902D01*
X0250010Y0114945D01*
X0250158Y0114984D01*
X0250307Y0115020D01*
X0250457Y0115051D01*
X0250608Y0115079D01*
X0250759Y0115103D01*
X0250912Y0115123D01*
X0251064Y0115139D01*
X0251217Y0115151D01*
X0251370Y0115159D01*
X0251523Y0115163D01*
X0251677Y0115163D01*
X0251830Y0115159D01*
X0251983Y0115151D01*
X0252136Y0115139D01*
X0252288Y0115123D01*
X0252441Y0115103D01*
X0252592Y0115079D01*
X0252743Y0115051D01*
X0252893Y0115020D01*
X0253042Y0114984D01*
X0253190Y0114945D01*
X0253337Y0114902D01*
X0253483Y0114855D01*
X0253628Y0114804D01*
X0253771Y0114749D01*
X0253913Y0114691D01*
X0254053Y0114629D01*
X0254192Y0114564D01*
X0254329Y0114495D01*
X0254464Y0114422D01*
X0254597Y0114346D01*
X0254728Y0114266D01*
X0254857Y0114184D01*
X0254984Y0114097D01*
X0255109Y0114008D01*
X0255231Y0113915D01*
X0255350Y0113819D01*
X0255468Y0113720D01*
X0255582Y0113619D01*
X0255694Y0113514D01*
X0255803Y0113406D01*
X0255909Y0113295D01*
X0256013Y0113182D01*
X0256113Y0113066D01*
X0256211Y0112948D01*
X0256305Y0112827D01*
X0256396Y0112704D01*
X0256484Y0112578D01*
X0256568Y0112450D01*
X0256650Y0112320D01*
X0256727Y0112188D01*
X0256802Y0112054D01*
X0256873Y0111918D01*
X0256940Y0111780D01*
X0257004Y0111640D01*
X0257064Y0111499D01*
X0257120Y0111357D01*
X0257173Y0111213D01*
X0257222Y0111067D01*
X0257267Y0110921D01*
X0257308Y0110773D01*
X0257345Y0110625D01*
X0257379Y0110475D01*
X0257409Y0110324D01*
X0257434Y0110173D01*
X0257456Y0110022D01*
X0257474Y0109869D01*
X0257488Y0109717D01*
X0257498Y0109564D01*
X0257504Y0109410D01*
X0257506Y0109257D01*
X0257504Y0109104D01*
X0257498Y0108950D01*
X0257488Y0108797D01*
X0257474Y0108645D01*
X0257456Y0108492D01*
X0257434Y0108341D01*
X0257409Y0108190D01*
X0257379Y0108039D01*
X0257345Y0107889D01*
X0257308Y0107741D01*
X0257267Y0107593D01*
X0257222Y0107447D01*
X0257173Y0107301D01*
X0257120Y0107157D01*
X0257064Y0107015D01*
X0257004Y0106874D01*
X0256940Y0106734D01*
X0256873Y0106596D01*
X0256802Y0106460D01*
X0256727Y0106326D01*
X0256650Y0106194D01*
X0256568Y0106064D01*
X0256484Y0105936D01*
X0256396Y0105810D01*
X0256305Y0105687D01*
X0256211Y0105566D01*
X0256113Y0105448D01*
X0256013Y0105332D01*
X0255909Y0105219D01*
X0255803Y0105108D01*
X0255694Y0105000D01*
X0255582Y0104895D01*
X0255468Y0104794D01*
X0255350Y0104695D01*
X0255231Y0104599D01*
X0255109Y0104506D01*
X0254984Y0104417D01*
X0254857Y0104330D01*
X0254728Y0104248D01*
X0254597Y0104168D01*
X0254464Y0104092D01*
X0254329Y0104019D01*
X0254192Y0103950D01*
X0254053Y0103885D01*
X0253913Y0103823D01*
X0253771Y0103765D01*
X0253628Y0103710D01*
X0253483Y0103659D01*
X0253337Y0103612D01*
X0253190Y0103569D01*
X0253042Y0103530D01*
X0252893Y0103494D01*
X0252743Y0103463D01*
X0252592Y0103435D01*
X0252441Y0103411D01*
X0252288Y0103391D01*
X0252136Y0103375D01*
X0251983Y0103363D01*
X0251830Y0103355D01*
X0251677Y0103351D01*
X0251523Y0103351D01*
X0251370Y0103355D01*
X0251217Y0103363D01*
X0251064Y0103375D01*
X0250912Y0103391D01*
X0250759Y0103411D01*
X0250608Y0103435D01*
X0250457Y0103463D01*
X0250307Y0103494D01*
X0250158Y0103530D01*
X0250010Y0103569D01*
X0249863Y0103612D01*
X0249717Y0103659D01*
X0249572Y0103710D01*
X0249429Y0103765D01*
X0249287Y0103823D01*
X0249147Y0103885D01*
X0249008Y0103950D01*
X0248871Y0104019D01*
X0248736Y0104092D01*
X0248603Y0104168D01*
X0248472Y0104248D01*
X0248343Y0104330D01*
X0248216Y0104417D01*
X0248091Y0104506D01*
X0247969Y0104599D01*
X0247850Y0104695D01*
X0247732Y0104794D01*
X0247618Y0104895D01*
X0247506Y0105000D01*
X0247397Y0105108D01*
X0247291Y0105219D01*
X0247187Y0105332D01*
X0247087Y0105448D01*
X0246989Y0105566D01*
X0246895Y0105687D01*
X0246804Y0105810D01*
X0246716Y0105936D01*
X0246632Y0106064D01*
X0246550Y0106194D01*
X0246473Y0106326D01*
X0246398Y0106460D01*
X0246327Y0106596D01*
X0246260Y0106734D01*
X0246196Y0106874D01*
X0246136Y0107015D01*
X0246080Y0107157D01*
X0246027Y0107301D01*
X0245978Y0107447D01*
X0245933Y0107593D01*
X0245892Y0107741D01*
X0245855Y0107889D01*
X0245821Y0108039D01*
X0245791Y0108190D01*
X0245766Y0108341D01*
X0245744Y0108492D01*
X0245726Y0108645D01*
X0245712Y0108797D01*
X0245702Y0108950D01*
X0245696Y0109104D01*
X0245694Y0109257D01*
X0245694Y0153943D02*
X0245696Y0154096D01*
X0245702Y0154250D01*
X0245712Y0154403D01*
X0245726Y0154555D01*
X0245744Y0154708D01*
X0245766Y0154859D01*
X0245791Y0155010D01*
X0245821Y0155161D01*
X0245855Y0155311D01*
X0245892Y0155459D01*
X0245933Y0155607D01*
X0245978Y0155753D01*
X0246027Y0155899D01*
X0246080Y0156043D01*
X0246136Y0156185D01*
X0246196Y0156326D01*
X0246260Y0156466D01*
X0246327Y0156604D01*
X0246398Y0156740D01*
X0246473Y0156874D01*
X0246550Y0157006D01*
X0246632Y0157136D01*
X0246716Y0157264D01*
X0246804Y0157390D01*
X0246895Y0157513D01*
X0246989Y0157634D01*
X0247087Y0157752D01*
X0247187Y0157868D01*
X0247291Y0157981D01*
X0247397Y0158092D01*
X0247506Y0158200D01*
X0247618Y0158305D01*
X0247732Y0158406D01*
X0247850Y0158505D01*
X0247969Y0158601D01*
X0248091Y0158694D01*
X0248216Y0158783D01*
X0248343Y0158870D01*
X0248472Y0158952D01*
X0248603Y0159032D01*
X0248736Y0159108D01*
X0248871Y0159181D01*
X0249008Y0159250D01*
X0249147Y0159315D01*
X0249287Y0159377D01*
X0249429Y0159435D01*
X0249572Y0159490D01*
X0249717Y0159541D01*
X0249863Y0159588D01*
X0250010Y0159631D01*
X0250158Y0159670D01*
X0250307Y0159706D01*
X0250457Y0159737D01*
X0250608Y0159765D01*
X0250759Y0159789D01*
X0250912Y0159809D01*
X0251064Y0159825D01*
X0251217Y0159837D01*
X0251370Y0159845D01*
X0251523Y0159849D01*
X0251677Y0159849D01*
X0251830Y0159845D01*
X0251983Y0159837D01*
X0252136Y0159825D01*
X0252288Y0159809D01*
X0252441Y0159789D01*
X0252592Y0159765D01*
X0252743Y0159737D01*
X0252893Y0159706D01*
X0253042Y0159670D01*
X0253190Y0159631D01*
X0253337Y0159588D01*
X0253483Y0159541D01*
X0253628Y0159490D01*
X0253771Y0159435D01*
X0253913Y0159377D01*
X0254053Y0159315D01*
X0254192Y0159250D01*
X0254329Y0159181D01*
X0254464Y0159108D01*
X0254597Y0159032D01*
X0254728Y0158952D01*
X0254857Y0158870D01*
X0254984Y0158783D01*
X0255109Y0158694D01*
X0255231Y0158601D01*
X0255350Y0158505D01*
X0255468Y0158406D01*
X0255582Y0158305D01*
X0255694Y0158200D01*
X0255803Y0158092D01*
X0255909Y0157981D01*
X0256013Y0157868D01*
X0256113Y0157752D01*
X0256211Y0157634D01*
X0256305Y0157513D01*
X0256396Y0157390D01*
X0256484Y0157264D01*
X0256568Y0157136D01*
X0256650Y0157006D01*
X0256727Y0156874D01*
X0256802Y0156740D01*
X0256873Y0156604D01*
X0256940Y0156466D01*
X0257004Y0156326D01*
X0257064Y0156185D01*
X0257120Y0156043D01*
X0257173Y0155899D01*
X0257222Y0155753D01*
X0257267Y0155607D01*
X0257308Y0155459D01*
X0257345Y0155311D01*
X0257379Y0155161D01*
X0257409Y0155010D01*
X0257434Y0154859D01*
X0257456Y0154708D01*
X0257474Y0154555D01*
X0257488Y0154403D01*
X0257498Y0154250D01*
X0257504Y0154096D01*
X0257506Y0153943D01*
X0257504Y0153790D01*
X0257498Y0153636D01*
X0257488Y0153483D01*
X0257474Y0153331D01*
X0257456Y0153178D01*
X0257434Y0153027D01*
X0257409Y0152876D01*
X0257379Y0152725D01*
X0257345Y0152575D01*
X0257308Y0152427D01*
X0257267Y0152279D01*
X0257222Y0152133D01*
X0257173Y0151987D01*
X0257120Y0151843D01*
X0257064Y0151701D01*
X0257004Y0151560D01*
X0256940Y0151420D01*
X0256873Y0151282D01*
X0256802Y0151146D01*
X0256727Y0151012D01*
X0256650Y0150880D01*
X0256568Y0150750D01*
X0256484Y0150622D01*
X0256396Y0150496D01*
X0256305Y0150373D01*
X0256211Y0150252D01*
X0256113Y0150134D01*
X0256013Y0150018D01*
X0255909Y0149905D01*
X0255803Y0149794D01*
X0255694Y0149686D01*
X0255582Y0149581D01*
X0255468Y0149480D01*
X0255350Y0149381D01*
X0255231Y0149285D01*
X0255109Y0149192D01*
X0254984Y0149103D01*
X0254857Y0149016D01*
X0254728Y0148934D01*
X0254597Y0148854D01*
X0254464Y0148778D01*
X0254329Y0148705D01*
X0254192Y0148636D01*
X0254053Y0148571D01*
X0253913Y0148509D01*
X0253771Y0148451D01*
X0253628Y0148396D01*
X0253483Y0148345D01*
X0253337Y0148298D01*
X0253190Y0148255D01*
X0253042Y0148216D01*
X0252893Y0148180D01*
X0252743Y0148149D01*
X0252592Y0148121D01*
X0252441Y0148097D01*
X0252288Y0148077D01*
X0252136Y0148061D01*
X0251983Y0148049D01*
X0251830Y0148041D01*
X0251677Y0148037D01*
X0251523Y0148037D01*
X0251370Y0148041D01*
X0251217Y0148049D01*
X0251064Y0148061D01*
X0250912Y0148077D01*
X0250759Y0148097D01*
X0250608Y0148121D01*
X0250457Y0148149D01*
X0250307Y0148180D01*
X0250158Y0148216D01*
X0250010Y0148255D01*
X0249863Y0148298D01*
X0249717Y0148345D01*
X0249572Y0148396D01*
X0249429Y0148451D01*
X0249287Y0148509D01*
X0249147Y0148571D01*
X0249008Y0148636D01*
X0248871Y0148705D01*
X0248736Y0148778D01*
X0248603Y0148854D01*
X0248472Y0148934D01*
X0248343Y0149016D01*
X0248216Y0149103D01*
X0248091Y0149192D01*
X0247969Y0149285D01*
X0247850Y0149381D01*
X0247732Y0149480D01*
X0247618Y0149581D01*
X0247506Y0149686D01*
X0247397Y0149794D01*
X0247291Y0149905D01*
X0247187Y0150018D01*
X0247087Y0150134D01*
X0246989Y0150252D01*
X0246895Y0150373D01*
X0246804Y0150496D01*
X0246716Y0150622D01*
X0246632Y0150750D01*
X0246550Y0150880D01*
X0246473Y0151012D01*
X0246398Y0151146D01*
X0246327Y0151282D01*
X0246260Y0151420D01*
X0246196Y0151560D01*
X0246136Y0151701D01*
X0246080Y0151843D01*
X0246027Y0151987D01*
X0245978Y0152133D01*
X0245933Y0152279D01*
X0245892Y0152427D01*
X0245855Y0152575D01*
X0245821Y0152725D01*
X0245791Y0152876D01*
X0245766Y0153027D01*
X0245744Y0153178D01*
X0245726Y0153331D01*
X0245712Y0153483D01*
X0245702Y0153636D01*
X0245696Y0153790D01*
X0245694Y0153943D01*
X0245694Y0184257D02*
X0245696Y0184410D01*
X0245702Y0184564D01*
X0245712Y0184717D01*
X0245726Y0184869D01*
X0245744Y0185022D01*
X0245766Y0185173D01*
X0245791Y0185324D01*
X0245821Y0185475D01*
X0245855Y0185625D01*
X0245892Y0185773D01*
X0245933Y0185921D01*
X0245978Y0186067D01*
X0246027Y0186213D01*
X0246080Y0186357D01*
X0246136Y0186499D01*
X0246196Y0186640D01*
X0246260Y0186780D01*
X0246327Y0186918D01*
X0246398Y0187054D01*
X0246473Y0187188D01*
X0246550Y0187320D01*
X0246632Y0187450D01*
X0246716Y0187578D01*
X0246804Y0187704D01*
X0246895Y0187827D01*
X0246989Y0187948D01*
X0247087Y0188066D01*
X0247187Y0188182D01*
X0247291Y0188295D01*
X0247397Y0188406D01*
X0247506Y0188514D01*
X0247618Y0188619D01*
X0247732Y0188720D01*
X0247850Y0188819D01*
X0247969Y0188915D01*
X0248091Y0189008D01*
X0248216Y0189097D01*
X0248343Y0189184D01*
X0248472Y0189266D01*
X0248603Y0189346D01*
X0248736Y0189422D01*
X0248871Y0189495D01*
X0249008Y0189564D01*
X0249147Y0189629D01*
X0249287Y0189691D01*
X0249429Y0189749D01*
X0249572Y0189804D01*
X0249717Y0189855D01*
X0249863Y0189902D01*
X0250010Y0189945D01*
X0250158Y0189984D01*
X0250307Y0190020D01*
X0250457Y0190051D01*
X0250608Y0190079D01*
X0250759Y0190103D01*
X0250912Y0190123D01*
X0251064Y0190139D01*
X0251217Y0190151D01*
X0251370Y0190159D01*
X0251523Y0190163D01*
X0251677Y0190163D01*
X0251830Y0190159D01*
X0251983Y0190151D01*
X0252136Y0190139D01*
X0252288Y0190123D01*
X0252441Y0190103D01*
X0252592Y0190079D01*
X0252743Y0190051D01*
X0252893Y0190020D01*
X0253042Y0189984D01*
X0253190Y0189945D01*
X0253337Y0189902D01*
X0253483Y0189855D01*
X0253628Y0189804D01*
X0253771Y0189749D01*
X0253913Y0189691D01*
X0254053Y0189629D01*
X0254192Y0189564D01*
X0254329Y0189495D01*
X0254464Y0189422D01*
X0254597Y0189346D01*
X0254728Y0189266D01*
X0254857Y0189184D01*
X0254984Y0189097D01*
X0255109Y0189008D01*
X0255231Y0188915D01*
X0255350Y0188819D01*
X0255468Y0188720D01*
X0255582Y0188619D01*
X0255694Y0188514D01*
X0255803Y0188406D01*
X0255909Y0188295D01*
X0256013Y0188182D01*
X0256113Y0188066D01*
X0256211Y0187948D01*
X0256305Y0187827D01*
X0256396Y0187704D01*
X0256484Y0187578D01*
X0256568Y0187450D01*
X0256650Y0187320D01*
X0256727Y0187188D01*
X0256802Y0187054D01*
X0256873Y0186918D01*
X0256940Y0186780D01*
X0257004Y0186640D01*
X0257064Y0186499D01*
X0257120Y0186357D01*
X0257173Y0186213D01*
X0257222Y0186067D01*
X0257267Y0185921D01*
X0257308Y0185773D01*
X0257345Y0185625D01*
X0257379Y0185475D01*
X0257409Y0185324D01*
X0257434Y0185173D01*
X0257456Y0185022D01*
X0257474Y0184869D01*
X0257488Y0184717D01*
X0257498Y0184564D01*
X0257504Y0184410D01*
X0257506Y0184257D01*
X0257504Y0184104D01*
X0257498Y0183950D01*
X0257488Y0183797D01*
X0257474Y0183645D01*
X0257456Y0183492D01*
X0257434Y0183341D01*
X0257409Y0183190D01*
X0257379Y0183039D01*
X0257345Y0182889D01*
X0257308Y0182741D01*
X0257267Y0182593D01*
X0257222Y0182447D01*
X0257173Y0182301D01*
X0257120Y0182157D01*
X0257064Y0182015D01*
X0257004Y0181874D01*
X0256940Y0181734D01*
X0256873Y0181596D01*
X0256802Y0181460D01*
X0256727Y0181326D01*
X0256650Y0181194D01*
X0256568Y0181064D01*
X0256484Y0180936D01*
X0256396Y0180810D01*
X0256305Y0180687D01*
X0256211Y0180566D01*
X0256113Y0180448D01*
X0256013Y0180332D01*
X0255909Y0180219D01*
X0255803Y0180108D01*
X0255694Y0180000D01*
X0255582Y0179895D01*
X0255468Y0179794D01*
X0255350Y0179695D01*
X0255231Y0179599D01*
X0255109Y0179506D01*
X0254984Y0179417D01*
X0254857Y0179330D01*
X0254728Y0179248D01*
X0254597Y0179168D01*
X0254464Y0179092D01*
X0254329Y0179019D01*
X0254192Y0178950D01*
X0254053Y0178885D01*
X0253913Y0178823D01*
X0253771Y0178765D01*
X0253628Y0178710D01*
X0253483Y0178659D01*
X0253337Y0178612D01*
X0253190Y0178569D01*
X0253042Y0178530D01*
X0252893Y0178494D01*
X0252743Y0178463D01*
X0252592Y0178435D01*
X0252441Y0178411D01*
X0252288Y0178391D01*
X0252136Y0178375D01*
X0251983Y0178363D01*
X0251830Y0178355D01*
X0251677Y0178351D01*
X0251523Y0178351D01*
X0251370Y0178355D01*
X0251217Y0178363D01*
X0251064Y0178375D01*
X0250912Y0178391D01*
X0250759Y0178411D01*
X0250608Y0178435D01*
X0250457Y0178463D01*
X0250307Y0178494D01*
X0250158Y0178530D01*
X0250010Y0178569D01*
X0249863Y0178612D01*
X0249717Y0178659D01*
X0249572Y0178710D01*
X0249429Y0178765D01*
X0249287Y0178823D01*
X0249147Y0178885D01*
X0249008Y0178950D01*
X0248871Y0179019D01*
X0248736Y0179092D01*
X0248603Y0179168D01*
X0248472Y0179248D01*
X0248343Y0179330D01*
X0248216Y0179417D01*
X0248091Y0179506D01*
X0247969Y0179599D01*
X0247850Y0179695D01*
X0247732Y0179794D01*
X0247618Y0179895D01*
X0247506Y0180000D01*
X0247397Y0180108D01*
X0247291Y0180219D01*
X0247187Y0180332D01*
X0247087Y0180448D01*
X0246989Y0180566D01*
X0246895Y0180687D01*
X0246804Y0180810D01*
X0246716Y0180936D01*
X0246632Y0181064D01*
X0246550Y0181194D01*
X0246473Y0181326D01*
X0246398Y0181460D01*
X0246327Y0181596D01*
X0246260Y0181734D01*
X0246196Y0181874D01*
X0246136Y0182015D01*
X0246080Y0182157D01*
X0246027Y0182301D01*
X0245978Y0182447D01*
X0245933Y0182593D01*
X0245892Y0182741D01*
X0245855Y0182889D01*
X0245821Y0183039D01*
X0245791Y0183190D01*
X0245766Y0183341D01*
X0245744Y0183492D01*
X0245726Y0183645D01*
X0245712Y0183797D01*
X0245702Y0183950D01*
X0245696Y0184104D01*
X0245694Y0184257D01*
D11*
X0051850Y0146600D03*
D12*
X0104100Y0131100D03*
D13*
X0234592Y0117722D03*
X0234592Y0105911D03*
X0234592Y0094100D03*
X0234592Y0082289D03*
X0234592Y0070478D03*
X0234592Y0145478D03*
X0234592Y0157289D03*
X0234592Y0169100D03*
X0234592Y0180911D03*
X0234592Y0192722D03*
D14*
X0026600Y0134848D03*
X0026600Y0126974D03*
X0026600Y0119100D03*
X0026600Y0111226D03*
X0026600Y0103352D03*
X0026600Y0074907D03*
X0026600Y0067033D03*
X0026600Y0059159D03*
X0026600Y0051285D03*
X0026600Y0043411D03*
X0026600Y0035537D03*
X0026600Y0027663D03*
X0026600Y0019789D03*
D15*
X0204100Y0161600D03*
X0204100Y0171600D03*
X0216600Y0171600D03*
X0216600Y0161600D03*
D16*
X0088064Y0028064D03*
X0078064Y0028064D03*
X0068064Y0028064D03*
X0068064Y0018064D03*
X0078064Y0018064D03*
X0088064Y0018064D03*
D17*
X0157506Y0041128D03*
X0165380Y0064750D03*
X0212624Y0064750D03*
X0251600Y0025380D03*
X0251600Y0011600D03*
X0212624Y0017506D03*
X0165380Y0017506D03*
X0016100Y0154600D03*
X0016100Y0168380D03*
D18*
X0019100Y0184100D03*
X0019100Y0194100D03*
X0209100Y0199100D03*
X0219100Y0199100D03*
X0249100Y0049100D03*
X0249100Y0039100D03*
D19*
X0080498Y0131600D03*
X0051757Y0146600D03*
X0064100Y0168100D03*
X0086600Y0185100D03*
X0111600Y0200600D03*
D20*
X0069100Y0200600D01*
X0051757Y0183257D01*
X0050915Y0184100D01*
X0019100Y0184100D01*
X0051757Y0183257D02*
X0051757Y0146600D01*
X0026600Y0134848D02*
X0018352Y0134848D01*
X0016100Y0132596D01*
X0016100Y0018600D01*
X0025100Y0009600D01*
X0035100Y0009600D01*
X0037600Y0012100D01*
X0040100Y0009600D01*
X0064100Y0009600D01*
X0068600Y0014100D01*
X0071100Y0011600D01*
X0120100Y0011600D01*
X0123600Y0015100D01*
X0117564Y0018064D02*
X0121100Y0021600D01*
X0121100Y0044100D01*
X0131350Y0054350D01*
X0141750Y0064750D01*
X0165380Y0064750D01*
X0117564Y0018064D02*
X0088064Y0018064D01*
X0068600Y0017529D02*
X0068600Y0014100D01*
X0068600Y0017529D02*
X0068064Y0018064D01*
X0040100Y0009600D02*
X0037100Y0009600D01*
X0037600Y0010100D01*
X0037600Y0012100D01*
X0037600Y0047600D01*
X0040100Y0050100D01*
X0037100Y0009600D02*
X0035100Y0009600D01*
X0080498Y0131600D02*
X0080498Y0178998D01*
X0086600Y0185100D01*
X0018352Y0134848D02*
X0016100Y0137100D01*
X0016100Y0134600D01*
X0016348Y0134848D01*
X0018352Y0134848D01*
X0016100Y0134600D02*
X0016100Y0132596D01*
X0016100Y0137100D02*
X0016100Y0154600D01*
D21*
X0015800Y0154984D02*
X0015800Y0162280D01*
X0014887Y0162280D02*
X0017313Y0162280D01*
X0019555Y0163208D01*
X0021271Y0164924D01*
X0022200Y0167166D01*
X0022200Y0169593D01*
X0021271Y0171835D01*
X0019555Y0173551D01*
X0017313Y0174480D01*
X0014887Y0174480D01*
X0012645Y0173551D01*
X0010929Y0171835D01*
X0010000Y0169593D01*
X0010000Y0167166D01*
X0010929Y0164924D01*
X0012645Y0163208D01*
X0014887Y0162280D01*
X0014596Y0162400D02*
X0006200Y0162400D01*
X0006200Y0160000D02*
X0013702Y0160000D01*
X0013835Y0160068D02*
X0013008Y0159646D01*
X0012256Y0159100D01*
X0011600Y0158444D01*
X0011054Y0157692D01*
X0010632Y0156865D01*
X0010345Y0155982D01*
X0010200Y0155064D01*
X0010200Y0154984D01*
X0015716Y0154984D01*
X0015716Y0154216D01*
X0010200Y0154216D01*
X0010200Y0154136D01*
X0010345Y0153218D01*
X0010632Y0152335D01*
X0011054Y0151508D01*
X0011600Y0150756D01*
X0012256Y0150100D01*
X0013008Y0149554D01*
X0013835Y0149132D01*
X0014718Y0148845D01*
X0015636Y0148700D01*
X0015716Y0148700D01*
X0015716Y0154216D01*
X0016484Y0154216D01*
X0016484Y0148700D01*
X0016564Y0148700D01*
X0017482Y0148845D01*
X0018365Y0149132D01*
X0019192Y0149554D01*
X0019944Y0150100D01*
X0020600Y0150756D01*
X0020600Y0081994D01*
X0020565Y0081959D02*
X0018565Y0079959D01*
X0018200Y0079077D01*
X0018200Y0149079D01*
X0016484Y0150400D02*
X0015716Y0150400D01*
X0015716Y0152800D02*
X0016484Y0152800D01*
X0016484Y0154216D02*
X0016484Y0154984D01*
X0015716Y0154984D01*
X0015716Y0160500D01*
X0015636Y0160500D01*
X0014718Y0160355D01*
X0013835Y0160068D01*
X0013400Y0159846D02*
X0013400Y0162895D01*
X0011053Y0164800D02*
X0006200Y0164800D01*
X0006200Y0167200D02*
X0010000Y0167200D01*
X0010003Y0169600D02*
X0006200Y0169600D01*
X0006200Y0172000D02*
X0011094Y0172000D01*
X0011000Y0171906D02*
X0011000Y0206961D01*
X0013400Y0206961D02*
X0013400Y0173864D01*
X0014695Y0174400D02*
X0006200Y0174400D01*
X0006200Y0176800D02*
X0049157Y0176800D01*
X0049157Y0174400D02*
X0017505Y0174400D01*
X0018200Y0174112D02*
X0018200Y0179000D01*
X0016988Y0179000D02*
X0021212Y0179000D01*
X0023712Y0181500D01*
X0049157Y0181500D01*
X0049157Y0162900D01*
X0034854Y0162900D01*
X0033800Y0161846D01*
X0033800Y0131354D01*
X0034854Y0130300D01*
X0068846Y0130300D01*
X0069900Y0131354D01*
X0069900Y0161846D01*
X0068846Y0162900D01*
X0054357Y0162900D01*
X0054357Y0182181D01*
X0070177Y0198000D01*
X0108853Y0198000D01*
X0109458Y0197395D01*
X0110848Y0196819D01*
X0112352Y0196819D01*
X0113742Y0197395D01*
X0114805Y0198458D01*
X0115381Y0199848D01*
X0115381Y0201352D01*
X0114805Y0202742D01*
X0113742Y0203805D01*
X0112352Y0204381D01*
X0110848Y0204381D01*
X0109458Y0203805D01*
X0108853Y0203200D01*
X0006200Y0203200D01*
X0006200Y0200800D02*
X0065623Y0200800D01*
X0066200Y0201377D02*
X0066200Y0206961D01*
X0063800Y0206961D02*
X0063800Y0198977D01*
X0063223Y0198400D02*
X0022012Y0198400D01*
X0021212Y0199200D02*
X0024200Y0196212D01*
X0024200Y0191988D01*
X0021312Y0189100D01*
X0023712Y0186700D01*
X0051432Y0186700D01*
X0051496Y0186673D01*
X0067627Y0202804D01*
X0068583Y0203200D01*
X0108853Y0203200D01*
X0109400Y0203747D02*
X0109400Y0206961D01*
X0107000Y0206961D02*
X0107000Y0203200D01*
X0104600Y0203200D02*
X0104600Y0206961D01*
X0102200Y0206961D02*
X0102200Y0203200D01*
X0099800Y0203200D02*
X0099800Y0206961D01*
X0097400Y0206961D02*
X0097400Y0203200D01*
X0095000Y0203200D02*
X0095000Y0206961D01*
X0092600Y0206961D02*
X0092600Y0203200D01*
X0090200Y0203200D02*
X0090200Y0206961D01*
X0087800Y0206961D02*
X0087800Y0203200D01*
X0085400Y0203200D02*
X0085400Y0206961D01*
X0083000Y0206961D02*
X0083000Y0203200D01*
X0080600Y0203200D02*
X0080600Y0206961D01*
X0078200Y0206961D02*
X0078200Y0203200D01*
X0075800Y0203200D02*
X0075800Y0206961D01*
X0073400Y0206961D02*
X0073400Y0203200D01*
X0071000Y0203200D02*
X0071000Y0206961D01*
X0068600Y0206961D02*
X0068600Y0203200D01*
X0071000Y0198000D02*
X0071000Y0195324D01*
X0071424Y0195500D02*
X0070174Y0194982D01*
X0061218Y0186026D01*
X0060700Y0184776D01*
X0060700Y0183424D01*
X0060700Y0169772D01*
X0060319Y0168852D01*
X0060319Y0167348D01*
X0060895Y0165958D01*
X0061958Y0164895D01*
X0063348Y0164319D01*
X0064852Y0164319D01*
X0066242Y0164895D01*
X0067305Y0165958D01*
X0067881Y0167348D01*
X0067881Y0168852D01*
X0067500Y0169772D01*
X0067500Y0182692D01*
X0073508Y0188700D01*
X0091192Y0188700D01*
X0104674Y0175218D01*
X0105924Y0174700D01*
X0185776Y0174700D01*
X0187026Y0175218D01*
X0187982Y0176174D01*
X0196008Y0184200D01*
X0230146Y0184200D01*
X0231396Y0184718D01*
X0232352Y0185674D01*
X0234300Y0187622D01*
X0235607Y0187622D01*
X0237481Y0188398D01*
X0238916Y0189833D01*
X0239692Y0191708D01*
X0239692Y0193737D01*
X0238916Y0195611D01*
X0237481Y0197046D01*
X0235607Y0197822D01*
X0233578Y0197822D01*
X0231703Y0197046D01*
X0230269Y0195611D01*
X0229492Y0193737D01*
X0229492Y0192430D01*
X0228062Y0191000D01*
X0193924Y0191000D01*
X0192674Y0190482D01*
X0183692Y0181500D01*
X0108008Y0181500D01*
X0095482Y0194026D01*
X0094526Y0194982D01*
X0093276Y0195500D01*
X0071424Y0195500D01*
X0073400Y0195500D02*
X0073400Y0198000D01*
X0075800Y0198000D02*
X0075800Y0195500D01*
X0078200Y0195500D02*
X0078200Y0198000D01*
X0080600Y0198000D02*
X0080600Y0195500D01*
X0083000Y0195500D02*
X0083000Y0198000D01*
X0085400Y0198000D02*
X0085400Y0195500D01*
X0087800Y0195500D02*
X0087800Y0198000D01*
X0090200Y0198000D02*
X0090200Y0195500D01*
X0092600Y0195500D02*
X0092600Y0198000D01*
X0095000Y0198000D02*
X0095000Y0194508D01*
X0095908Y0193600D02*
X0229492Y0193600D01*
X0229400Y0192338D02*
X0229400Y0206961D01*
X0227000Y0206961D02*
X0227000Y0191000D01*
X0228262Y0191200D02*
X0098308Y0191200D01*
X0097400Y0192108D02*
X0097400Y0198000D01*
X0099800Y0198000D02*
X0099800Y0189708D01*
X0100708Y0188800D02*
X0190992Y0188800D01*
X0191000Y0188808D02*
X0191000Y0206961D01*
X0188600Y0206961D02*
X0188600Y0186408D01*
X0188592Y0186400D02*
X0103108Y0186400D01*
X0102200Y0187308D02*
X0102200Y0198000D01*
X0104600Y0198000D02*
X0104600Y0184908D01*
X0105508Y0184000D02*
X0186192Y0184000D01*
X0186200Y0184008D02*
X0186200Y0206961D01*
X0183800Y0206961D02*
X0183800Y0181608D01*
X0183792Y0181600D02*
X0107908Y0181600D01*
X0107000Y0182508D02*
X0107000Y0198000D01*
X0109400Y0197453D02*
X0109400Y0181500D01*
X0111800Y0181500D02*
X0111800Y0196819D01*
X0114200Y0197853D02*
X0114200Y0181500D01*
X0116600Y0181500D02*
X0116600Y0206961D01*
X0114200Y0206961D02*
X0114200Y0203347D01*
X0114347Y0203200D02*
X0205988Y0203200D01*
X0205400Y0202612D02*
X0205400Y0206961D01*
X0203000Y0206961D02*
X0203000Y0191000D01*
X0200600Y0191000D02*
X0200600Y0206961D01*
X0198200Y0206961D02*
X0198200Y0191000D01*
X0195800Y0191000D02*
X0195800Y0206961D01*
X0193400Y0206961D02*
X0193400Y0190783D01*
X0195808Y0184000D02*
X0230780Y0184000D01*
X0230855Y0184103D02*
X0230401Y0183479D01*
X0230051Y0182792D01*
X0229813Y0182058D01*
X0229692Y0181297D01*
X0229692Y0181295D01*
X0234208Y0181295D01*
X0234208Y0180527D01*
X0229692Y0180527D01*
X0229692Y0180525D01*
X0229813Y0179764D01*
X0230051Y0179030D01*
X0230401Y0178343D01*
X0230855Y0177719D01*
X0231400Y0177174D01*
X0232024Y0176720D01*
X0232711Y0176370D01*
X0233445Y0176132D01*
X0234206Y0176011D01*
X0234208Y0176011D01*
X0234208Y0180527D01*
X0234976Y0180527D01*
X0234976Y0176011D01*
X0234978Y0176011D01*
X0235740Y0176132D01*
X0236473Y0176370D01*
X0237160Y0176720D01*
X0237784Y0177174D01*
X0238330Y0177719D01*
X0238783Y0178343D01*
X0239133Y0179030D01*
X0239371Y0179764D01*
X0239492Y0180525D01*
X0239492Y0180527D01*
X0234976Y0180527D01*
X0234976Y0181295D01*
X0234208Y0181295D01*
X0234208Y0185811D01*
X0234206Y0185811D01*
X0233445Y0185690D01*
X0232711Y0185452D01*
X0232024Y0185102D01*
X0231400Y0184649D01*
X0230855Y0184103D01*
X0231800Y0184939D02*
X0231800Y0185122D01*
X0232352Y0185674D02*
X0232352Y0185674D01*
X0233078Y0186400D02*
X0241298Y0186400D01*
X0241400Y0186781D02*
X0241400Y0206961D01*
X0239000Y0206961D02*
X0239000Y0195407D01*
X0238527Y0196000D02*
X0265701Y0196000D01*
X0265701Y0193600D02*
X0256429Y0193600D01*
X0255800Y0193963D02*
X0255800Y0206961D01*
X0253400Y0206961D02*
X0253400Y0194651D01*
X0252983Y0194763D02*
X0255655Y0194047D01*
X0258051Y0192664D01*
X0260006Y0190708D01*
X0261390Y0188312D01*
X0262105Y0185641D01*
X0262105Y0182874D01*
X0261390Y0180202D01*
X0260006Y0177807D01*
X0258051Y0175851D01*
X0255655Y0174468D01*
X0252983Y0173752D01*
X0250217Y0173752D01*
X0247545Y0174468D01*
X0245149Y0175851D01*
X0243193Y0177807D01*
X0241810Y0180202D01*
X0241094Y0182874D01*
X0241094Y0185641D01*
X0241810Y0188312D01*
X0243193Y0190708D01*
X0245149Y0192664D01*
X0247545Y0194047D01*
X0250217Y0194763D01*
X0252983Y0194763D01*
X0251000Y0194763D02*
X0251000Y0206961D01*
X0248600Y0206961D02*
X0248600Y0194330D01*
X0246771Y0193600D02*
X0239692Y0193600D01*
X0239482Y0191200D02*
X0243685Y0191200D01*
X0243800Y0191315D02*
X0243800Y0206961D01*
X0246200Y0206961D02*
X0246200Y0193271D01*
X0242092Y0188800D02*
X0237883Y0188800D01*
X0236600Y0188034D02*
X0236600Y0185387D01*
X0236473Y0185452D02*
X0235740Y0185690D01*
X0234978Y0185811D01*
X0234976Y0185811D01*
X0234976Y0181295D01*
X0239492Y0181295D01*
X0239492Y0181297D01*
X0239371Y0182058D01*
X0239133Y0182792D01*
X0238783Y0183479D01*
X0238330Y0184103D01*
X0237784Y0184649D01*
X0237160Y0185102D01*
X0236473Y0185452D01*
X0234976Y0184000D02*
X0234208Y0184000D01*
X0234200Y0185810D02*
X0234200Y0187522D01*
X0238405Y0184000D02*
X0241094Y0184000D01*
X0241400Y0181734D02*
X0241400Y0160535D01*
X0241526Y0160482D02*
X0240276Y0161000D01*
X0238094Y0161000D01*
X0237481Y0161613D01*
X0235607Y0162389D01*
X0233578Y0162389D01*
X0231703Y0161613D01*
X0230269Y0160178D01*
X0229492Y0158303D01*
X0229492Y0156275D01*
X0230269Y0154400D01*
X0231703Y0152965D01*
X0233578Y0152189D01*
X0235607Y0152189D01*
X0237481Y0152965D01*
X0238454Y0153938D01*
X0238700Y0153692D01*
X0238700Y0148583D01*
X0237481Y0149802D01*
X0235607Y0150578D01*
X0233578Y0150578D01*
X0231703Y0149802D01*
X0230780Y0148878D01*
X0225302Y0148878D01*
X0224052Y0148360D01*
X0218718Y0143026D01*
X0218200Y0141776D01*
X0218200Y0128302D01*
X0218135Y0128459D01*
X0214635Y0131959D01*
X0213959Y0132635D01*
X0213077Y0133000D01*
X0203094Y0133000D01*
X0200000Y0136094D01*
X0200000Y0158226D01*
X0200057Y0158147D01*
X0200647Y0157557D01*
X0201322Y0157067D01*
X0202066Y0156688D01*
X0202859Y0156430D01*
X0203683Y0156300D01*
X0203700Y0156300D01*
X0203700Y0161200D01*
X0204500Y0161200D01*
X0204500Y0156300D01*
X0204517Y0156300D01*
X0205341Y0156430D01*
X0206134Y0156688D01*
X0206878Y0157067D01*
X0207553Y0157557D01*
X0208143Y0158147D01*
X0208200Y0158226D01*
X0208200Y0149623D01*
X0208311Y0149355D01*
X0208311Y0148446D01*
X0208812Y0147237D01*
X0209737Y0146312D01*
X0210946Y0145811D01*
X0212254Y0145811D01*
X0213463Y0146312D01*
X0214388Y0147237D01*
X0214889Y0148446D01*
X0214889Y0149754D01*
X0214388Y0150963D01*
X0213463Y0151888D01*
X0213000Y0152080D01*
X0213000Y0157705D01*
X0213147Y0157557D01*
X0213822Y0157067D01*
X0214566Y0156688D01*
X0215359Y0156430D01*
X0216183Y0156300D01*
X0216200Y0156300D01*
X0216200Y0161200D01*
X0217000Y0161200D01*
X0217000Y0162000D01*
X0221900Y0162000D01*
X0221900Y0162017D01*
X0221769Y0162841D01*
X0221512Y0163634D01*
X0221133Y0164378D01*
X0220643Y0165053D01*
X0220053Y0165643D01*
X0219378Y0166133D01*
X0218658Y0166499D01*
X0219715Y0166937D01*
X0221263Y0168484D01*
X0222100Y0170506D01*
X0222100Y0172694D01*
X0221263Y0174715D01*
X0219715Y0176263D01*
X0217694Y0177100D01*
X0215506Y0177100D01*
X0213484Y0176263D01*
X0211937Y0174715D01*
X0211100Y0172694D01*
X0211100Y0170994D01*
X0209600Y0172494D01*
X0209600Y0172694D01*
X0208763Y0174715D01*
X0207215Y0176263D01*
X0205194Y0177100D01*
X0203006Y0177100D01*
X0200984Y0176263D01*
X0199437Y0174715D01*
X0199274Y0174320D01*
X0197135Y0176459D01*
X0196459Y0177135D01*
X0195577Y0177500D01*
X0193851Y0177500D01*
X0193463Y0177888D01*
X0192254Y0178389D01*
X0190946Y0178389D01*
X0189737Y0177888D01*
X0188812Y0176963D01*
X0188311Y0175754D01*
X0188311Y0174446D01*
X0188812Y0173237D01*
X0189699Y0172350D01*
X0189349Y0172000D01*
X0180851Y0172000D01*
X0180463Y0172388D01*
X0179254Y0172889D01*
X0177946Y0172889D01*
X0176737Y0172388D01*
X0175812Y0171463D01*
X0175311Y0170254D01*
X0175311Y0168946D01*
X0175812Y0167737D01*
X0176737Y0166812D01*
X0177946Y0166311D01*
X0179254Y0166311D01*
X0180463Y0166812D01*
X0180851Y0167200D01*
X0189349Y0167200D01*
X0189737Y0166812D01*
X0190946Y0166311D01*
X0192254Y0166311D01*
X0193463Y0166812D01*
X0194388Y0167737D01*
X0194889Y0168946D01*
X0194889Y0170254D01*
X0194388Y0171463D01*
X0193501Y0172350D01*
X0193851Y0172700D01*
X0194106Y0172700D01*
X0195200Y0171606D01*
X0195200Y0134623D01*
X0195565Y0133741D01*
X0196241Y0133065D01*
X0200741Y0128565D01*
X0201623Y0128200D01*
X0211606Y0128200D01*
X0213700Y0126106D01*
X0213700Y0125997D01*
X0212754Y0126389D01*
X0211446Y0126389D01*
X0210237Y0125888D01*
X0209849Y0125500D01*
X0164889Y0125500D01*
X0164889Y0126754D01*
X0164704Y0127200D01*
X0174349Y0127200D01*
X0174737Y0126812D01*
X0175946Y0126311D01*
X0177254Y0126311D01*
X0178463Y0126812D01*
X0179388Y0127737D01*
X0179889Y0128946D01*
X0179889Y0130254D01*
X0179388Y0131463D01*
X0178463Y0132388D01*
X0177254Y0132889D01*
X0175946Y0132889D01*
X0174737Y0132388D01*
X0174349Y0132000D01*
X0139851Y0132000D01*
X0139463Y0132388D01*
X0138254Y0132889D01*
X0136946Y0132889D01*
X0135737Y0132388D01*
X0134812Y0131463D01*
X0134311Y0130254D01*
X0134311Y0128946D01*
X0134812Y0127737D01*
X0135737Y0126812D01*
X0136946Y0126311D01*
X0138254Y0126311D01*
X0139463Y0126812D01*
X0139851Y0127200D01*
X0158496Y0127200D01*
X0158311Y0126754D01*
X0158311Y0125500D01*
X0147623Y0125500D01*
X0146741Y0125135D01*
X0146065Y0124459D01*
X0138606Y0117000D01*
X0091594Y0117000D01*
X0091294Y0117300D01*
X0118846Y0117300D01*
X0119900Y0118354D01*
X0119900Y0143846D01*
X0118846Y0144900D01*
X0089354Y0144900D01*
X0088300Y0143846D01*
X0088300Y0126051D01*
X0087963Y0126388D01*
X0086754Y0126889D01*
X0085446Y0126889D01*
X0084237Y0126388D01*
X0083312Y0125463D01*
X0082811Y0124254D01*
X0082811Y0122946D01*
X0083312Y0121737D01*
X0083950Y0121099D01*
X0083950Y0118373D01*
X0084315Y0117491D01*
X0088706Y0113100D01*
X0074741Y0099135D01*
X0074741Y0099135D01*
X0074065Y0098459D01*
X0073700Y0097577D01*
X0073700Y0096351D01*
X0073312Y0095963D01*
X0072811Y0094754D01*
X0072811Y0093446D01*
X0073312Y0092237D01*
X0074237Y0091312D01*
X0075446Y0090811D01*
X0076754Y0090811D01*
X0076811Y0090835D01*
X0076811Y0089946D01*
X0077312Y0088737D01*
X0078237Y0087812D01*
X0079446Y0087311D01*
X0079995Y0087311D01*
X0087565Y0079741D01*
X0088241Y0079065D01*
X0089123Y0078700D01*
X0093203Y0078700D01*
X0092811Y0077754D01*
X0092811Y0077205D01*
X0076030Y0060424D01*
X0075664Y0059542D01*
X0075664Y0033443D01*
X0073064Y0030843D01*
X0070343Y0033564D01*
X0065786Y0033564D01*
X0063158Y0030936D01*
X0058500Y0035594D01*
X0058500Y0044106D01*
X0067971Y0053577D01*
X0068237Y0053312D01*
X0069446Y0052811D01*
X0070754Y0052811D01*
X0071963Y0053312D01*
X0072888Y0054237D01*
X0073389Y0055446D01*
X0073389Y0056754D01*
X0072888Y0057963D01*
X0071963Y0058888D01*
X0070754Y0059389D01*
X0069446Y0059389D01*
X0068237Y0058888D01*
X0067849Y0058500D01*
X0066623Y0058500D01*
X0065741Y0058135D01*
X0065065Y0057459D01*
X0054065Y0046459D01*
X0053700Y0045577D01*
X0053700Y0034123D01*
X0054065Y0033241D01*
X0054741Y0032565D01*
X0061276Y0026030D01*
X0062158Y0025664D01*
X0062686Y0025664D01*
X0065428Y0022923D01*
X0062764Y0020260D01*
X0062764Y0018464D01*
X0067664Y0018464D01*
X0067664Y0017664D01*
X0068464Y0017664D01*
X0068464Y0012764D01*
X0070260Y0012764D01*
X0072923Y0015428D01*
X0075786Y0012564D01*
X0080343Y0012564D01*
X0083064Y0015286D01*
X0085786Y0012564D01*
X0090343Y0012564D01*
X0093243Y0015464D01*
X0118082Y0015464D01*
X0119037Y0015860D01*
X0119769Y0016592D01*
X0122573Y0019396D01*
X0123304Y0020127D01*
X0123700Y0021083D01*
X0123700Y0040007D01*
X0123812Y0039737D01*
X0124200Y0039349D01*
X0124200Y0020623D01*
X0124565Y0019741D01*
X0128835Y0015471D01*
X0129717Y0015106D01*
X0147774Y0015106D01*
X0148162Y0014717D01*
X0149371Y0014217D01*
X0150679Y0014217D01*
X0151888Y0014717D01*
X0152813Y0015642D01*
X0153314Y0016851D01*
X0153314Y0018160D01*
X0152813Y0019369D01*
X0151888Y0020294D01*
X0150679Y0020794D01*
X0149371Y0020794D01*
X0148162Y0020294D01*
X0147774Y0019905D01*
X0131189Y0019905D01*
X0129000Y0022094D01*
X0129000Y0039349D01*
X0129388Y0039737D01*
X0129889Y0040946D01*
X0129889Y0042254D01*
X0129388Y0043463D01*
X0128463Y0044388D01*
X0127254Y0044889D01*
X0125946Y0044889D01*
X0125297Y0044620D01*
X0131738Y0051061D01*
X0132004Y0051061D01*
X0133213Y0051562D01*
X0134138Y0052487D01*
X0134639Y0053696D01*
X0134639Y0053962D01*
X0142827Y0062150D01*
X0159854Y0062150D01*
X0160208Y0061294D01*
X0161924Y0059578D01*
X0164166Y0058650D01*
X0166593Y0058650D01*
X0168835Y0059578D01*
X0170551Y0061294D01*
X0171480Y0063536D01*
X0171480Y0065963D01*
X0170551Y0068205D01*
X0168835Y0069921D01*
X0168161Y0070200D01*
X0209842Y0070200D01*
X0209168Y0069921D01*
X0207452Y0068205D01*
X0206524Y0065963D01*
X0206524Y0063536D01*
X0207452Y0061294D01*
X0209168Y0059578D01*
X0211410Y0058650D01*
X0213837Y0058650D01*
X0216079Y0059578D01*
X0217795Y0061294D01*
X0218724Y0063536D01*
X0218724Y0065963D01*
X0217795Y0068205D01*
X0216079Y0069921D01*
X0215405Y0070200D01*
X0216606Y0070200D01*
X0222200Y0064606D01*
X0222200Y0044123D01*
X0222200Y0006200D01*
X0219800Y0006200D02*
X0219800Y0067006D01*
X0220406Y0066400D02*
X0218543Y0066400D01*
X0218724Y0064000D02*
X0222200Y0064000D01*
X0224600Y0065600D02*
X0224600Y0044600D01*
X0230100Y0039100D01*
X0249100Y0039100D01*
X0245188Y0042400D02*
X0230194Y0042400D01*
X0229400Y0043194D02*
X0229400Y0067078D01*
X0230780Y0067078D02*
X0231703Y0066154D01*
X0233578Y0065378D01*
X0235607Y0065378D01*
X0237481Y0066154D01*
X0238916Y0067589D01*
X0239692Y0069463D01*
X0239692Y0071492D01*
X0238916Y0073367D01*
X0237481Y0074802D01*
X0235607Y0075578D01*
X0233578Y0075578D01*
X0231703Y0074802D01*
X0230780Y0073878D01*
X0227630Y0073878D01*
X0225000Y0076508D01*
X0225000Y0083892D01*
X0225674Y0083218D01*
X0229485Y0079407D01*
X0230735Y0078889D01*
X0230780Y0078889D01*
X0231703Y0077965D01*
X0233578Y0077189D01*
X0235607Y0077189D01*
X0237481Y0077965D01*
X0238916Y0079400D01*
X0239692Y0081275D01*
X0239692Y0083303D01*
X0238916Y0085178D01*
X0237481Y0086613D01*
X0235607Y0087389D01*
X0233578Y0087389D01*
X0231839Y0086669D01*
X0231000Y0087508D01*
X0231000Y0090480D01*
X0231703Y0089776D01*
X0233578Y0089000D01*
X0235607Y0089000D01*
X0237481Y0089776D01*
X0238916Y0091211D01*
X0239692Y0093086D01*
X0239692Y0095114D01*
X0238916Y0096989D01*
X0237481Y0098424D01*
X0235607Y0099200D01*
X0233578Y0099200D01*
X0231703Y0098424D01*
X0231000Y0097720D01*
X0231000Y0102574D01*
X0231400Y0102174D01*
X0232024Y0101720D01*
X0232711Y0101370D01*
X0233445Y0101132D01*
X0234206Y0101011D01*
X0234208Y0101011D01*
X0234208Y0105527D01*
X0234976Y0105527D01*
X0234976Y0101011D01*
X0234978Y0101011D01*
X0235740Y0101132D01*
X0236473Y0101370D01*
X0237160Y0101720D01*
X0237784Y0102174D01*
X0238330Y0102719D01*
X0238783Y0103343D01*
X0239133Y0104030D01*
X0239371Y0104764D01*
X0239492Y0105525D01*
X0239492Y0105527D01*
X0234976Y0105527D01*
X0234976Y0106295D01*
X0234208Y0106295D01*
X0234208Y0110811D01*
X0234206Y0110811D01*
X0233445Y0110690D01*
X0232711Y0110452D01*
X0232024Y0110102D01*
X0231400Y0109649D01*
X0231000Y0109249D01*
X0231000Y0114102D01*
X0231703Y0113398D01*
X0233578Y0112622D01*
X0235607Y0112622D01*
X0237481Y0113398D01*
X0238916Y0114833D01*
X0239692Y0116708D01*
X0239692Y0118737D01*
X0238916Y0120611D01*
X0237481Y0122046D01*
X0235607Y0122822D01*
X0233578Y0122822D01*
X0231703Y0122046D01*
X0231000Y0121342D01*
X0231000Y0132192D01*
X0232008Y0133200D01*
X0240276Y0133200D01*
X0241526Y0133718D01*
X0244982Y0137174D01*
X0245500Y0138424D01*
X0245500Y0145334D01*
X0247545Y0144153D01*
X0250217Y0143437D01*
X0252983Y0143437D01*
X0255655Y0144153D01*
X0258051Y0145536D01*
X0260006Y0147492D01*
X0261390Y0149888D01*
X0262105Y0152559D01*
X0262105Y0155326D01*
X0261390Y0157997D01*
X0260006Y0160393D01*
X0258051Y0162349D01*
X0255655Y0163732D01*
X0252983Y0164448D01*
X0250217Y0164448D01*
X0247545Y0163732D01*
X0245149Y0162349D01*
X0243193Y0160393D01*
X0242616Y0159392D01*
X0242482Y0159526D01*
X0241526Y0160482D01*
X0242008Y0160000D02*
X0242967Y0160000D01*
X0243800Y0161000D02*
X0243800Y0177200D01*
X0244200Y0176800D02*
X0237270Y0176800D01*
X0236600Y0176435D02*
X0236600Y0173788D01*
X0237481Y0173424D02*
X0235607Y0174200D01*
X0233578Y0174200D01*
X0231703Y0173424D01*
X0230269Y0171989D01*
X0229492Y0170114D01*
X0229492Y0168086D01*
X0230269Y0166211D01*
X0231703Y0164776D01*
X0233578Y0164000D01*
X0235607Y0164000D01*
X0237481Y0164776D01*
X0238916Y0166211D01*
X0239692Y0168086D01*
X0239692Y0170114D01*
X0238916Y0171989D01*
X0237481Y0173424D01*
X0238905Y0172000D02*
X0265701Y0172000D01*
X0265701Y0169600D02*
X0239692Y0169600D01*
X0239000Y0171785D02*
X0239000Y0178769D01*
X0239188Y0179200D02*
X0242389Y0179200D01*
X0241436Y0181600D02*
X0239444Y0181600D01*
X0239000Y0181295D02*
X0239000Y0180527D01*
X0236600Y0180527D02*
X0236600Y0181295D01*
X0234976Y0181600D02*
X0234208Y0181600D01*
X0234200Y0181295D02*
X0234200Y0180527D01*
X0234592Y0180911D02*
X0226911Y0180911D01*
X0223600Y0177600D01*
X0223600Y0164600D01*
X0220600Y0161600D01*
X0216600Y0161600D01*
X0216600Y0132100D01*
X0215394Y0131200D02*
X0218200Y0131200D01*
X0217400Y0129194D02*
X0217400Y0156361D01*
X0217017Y0156300D02*
X0217841Y0156430D01*
X0218634Y0156688D01*
X0219378Y0157067D01*
X0220053Y0157557D01*
X0220643Y0158147D01*
X0221133Y0158822D01*
X0221512Y0159566D01*
X0221769Y0160359D01*
X0221900Y0161183D01*
X0221900Y0161200D01*
X0217000Y0161200D01*
X0217000Y0156300D01*
X0217017Y0156300D01*
X0217000Y0157600D02*
X0216200Y0157600D01*
X0215000Y0156547D02*
X0215000Y0131594D01*
X0212600Y0130600D02*
X0202100Y0130600D01*
X0197600Y0135100D01*
X0197600Y0172600D01*
X0195100Y0175100D01*
X0191600Y0175100D01*
X0188600Y0173748D02*
X0188600Y0172000D01*
X0189349Y0172000D02*
X0180851Y0172000D01*
X0181400Y0172000D02*
X0181400Y0174700D01*
X0183800Y0174700D02*
X0183800Y0172000D01*
X0186200Y0172000D02*
X0186200Y0174875D01*
X0188330Y0174400D02*
X0067500Y0174400D01*
X0067500Y0172000D02*
X0176349Y0172000D01*
X0176600Y0172251D02*
X0176600Y0174700D01*
X0174200Y0174700D02*
X0174200Y0132000D01*
X0171800Y0132000D02*
X0171800Y0174700D01*
X0169400Y0174700D02*
X0169400Y0132000D01*
X0167000Y0132000D02*
X0167000Y0174700D01*
X0164600Y0174700D02*
X0164600Y0132000D01*
X0162200Y0132000D02*
X0162200Y0174700D01*
X0159800Y0174700D02*
X0159800Y0132000D01*
X0157400Y0132000D02*
X0157400Y0174700D01*
X0155000Y0174700D02*
X0155000Y0132000D01*
X0152600Y0132000D02*
X0152600Y0174700D01*
X0150200Y0174700D02*
X0150200Y0132000D01*
X0147800Y0132000D02*
X0147800Y0174700D01*
X0145400Y0174700D02*
X0145400Y0132000D01*
X0143000Y0132000D02*
X0143000Y0174700D01*
X0140600Y0174700D02*
X0140600Y0132000D01*
X0138200Y0132889D02*
X0138200Y0174700D01*
X0135800Y0174700D02*
X0135800Y0132414D01*
X0134703Y0131200D02*
X0119900Y0131200D01*
X0119900Y0128800D02*
X0134371Y0128800D01*
X0135800Y0126786D02*
X0135800Y0117000D01*
X0133400Y0117000D02*
X0133400Y0174700D01*
X0131000Y0174700D02*
X0131000Y0117000D01*
X0128600Y0117000D02*
X0128600Y0174700D01*
X0126200Y0174700D02*
X0126200Y0117000D01*
X0123800Y0117000D02*
X0123800Y0174700D01*
X0121400Y0174700D02*
X0121400Y0117000D01*
X0119000Y0117000D02*
X0119000Y0117454D01*
X0119900Y0119200D02*
X0140806Y0119200D01*
X0140600Y0118994D02*
X0140600Y0127200D01*
X0138469Y0126400D02*
X0158311Y0126400D01*
X0157400Y0127200D02*
X0157400Y0125500D01*
X0155000Y0125500D02*
X0155000Y0127200D01*
X0152600Y0127200D02*
X0152600Y0125500D01*
X0150200Y0125500D02*
X0150200Y0127200D01*
X0147800Y0127200D02*
X0147800Y0125500D01*
X0148100Y0123100D02*
X0160100Y0123100D01*
X0161600Y0124600D01*
X0163100Y0123100D01*
X0161600Y0123100D01*
X0161600Y0126100D01*
X0161600Y0124600D01*
X0161600Y0123100D02*
X0160100Y0123100D01*
X0163100Y0123100D02*
X0212100Y0123100D01*
X0208600Y0120600D02*
X0149100Y0120600D01*
X0140600Y0112100D01*
X0091100Y0112100D01*
X0076100Y0097100D01*
X0076100Y0094100D01*
X0073079Y0092800D02*
X0047051Y0092800D01*
X0047000Y0092851D02*
X0047000Y0130300D01*
X0044600Y0130300D02*
X0044600Y0093389D01*
X0044446Y0093389D02*
X0043237Y0092888D01*
X0042312Y0091963D01*
X0041811Y0090754D01*
X0041811Y0089446D01*
X0042280Y0088314D01*
X0040000Y0090594D01*
X0040000Y0115077D01*
X0039635Y0115959D01*
X0034459Y0121135D01*
X0033577Y0121500D01*
X0030963Y0121500D01*
X0030796Y0121904D01*
X0029663Y0123037D01*
X0030796Y0124170D01*
X0031550Y0125989D01*
X0031550Y0127959D01*
X0030796Y0129778D01*
X0029494Y0131080D01*
X0029694Y0131225D01*
X0030223Y0131754D01*
X0030662Y0132359D01*
X0031002Y0133025D01*
X0031233Y0133736D01*
X0031350Y0134474D01*
X0031350Y0134759D01*
X0026689Y0134759D01*
X0026689Y0134937D01*
X0031350Y0134937D01*
X0031350Y0135222D01*
X0031233Y0135960D01*
X0031002Y0136671D01*
X0030662Y0137337D01*
X0030223Y0137942D01*
X0029694Y0138471D01*
X0029089Y0138910D01*
X0028423Y0139250D01*
X0027712Y0139481D01*
X0026974Y0139598D01*
X0026689Y0139598D01*
X0026689Y0134937D01*
X0026511Y0134937D01*
X0026511Y0134759D01*
X0021850Y0134759D01*
X0021850Y0134474D01*
X0021967Y0133736D01*
X0022198Y0133025D01*
X0022538Y0132359D01*
X0022977Y0131754D01*
X0023506Y0131225D01*
X0023706Y0131080D01*
X0022404Y0129778D01*
X0021650Y0127959D01*
X0021650Y0125989D01*
X0022404Y0124170D01*
X0023537Y0123037D01*
X0022404Y0121904D01*
X0021650Y0120085D01*
X0021650Y0118115D01*
X0022404Y0116296D01*
X0023537Y0115163D01*
X0022404Y0114030D01*
X0021650Y0112211D01*
X0021650Y0110241D01*
X0022404Y0108422D01*
X0023537Y0107289D01*
X0022404Y0106156D01*
X0021650Y0104337D01*
X0021650Y0102367D01*
X0022404Y0100548D01*
X0023796Y0099156D01*
X0025615Y0098402D01*
X0027585Y0098402D01*
X0029404Y0099156D01*
X0030796Y0100548D01*
X0031550Y0102367D01*
X0031550Y0104337D01*
X0030796Y0106156D01*
X0029663Y0107289D01*
X0030796Y0108422D01*
X0030963Y0108826D01*
X0031480Y0108826D01*
X0032700Y0107606D01*
X0032700Y0088123D01*
X0033065Y0087241D01*
X0033741Y0086565D01*
X0042311Y0077995D01*
X0042311Y0077446D01*
X0042812Y0076237D01*
X0043737Y0075312D01*
X0044946Y0074811D01*
X0046254Y0074811D01*
X0047463Y0075312D01*
X0048388Y0076237D01*
X0048889Y0077446D01*
X0048889Y0078311D01*
X0049254Y0078311D01*
X0050463Y0078812D01*
X0051388Y0079737D01*
X0051889Y0080946D01*
X0051889Y0082254D01*
X0051495Y0083205D01*
X0052446Y0082811D01*
X0053754Y0082811D01*
X0054963Y0083312D01*
X0055888Y0084237D01*
X0056389Y0085446D01*
X0056389Y0086754D01*
X0055888Y0087963D01*
X0054963Y0088888D01*
X0053754Y0089389D01*
X0052446Y0089389D01*
X0051237Y0088888D01*
X0050849Y0088500D01*
X0050094Y0088500D01*
X0048389Y0090205D01*
X0048389Y0090754D01*
X0047888Y0091963D01*
X0046963Y0092888D01*
X0045754Y0093389D01*
X0044446Y0093389D01*
X0043149Y0092800D02*
X0040000Y0092800D01*
X0040000Y0095200D02*
X0072996Y0095200D01*
X0073400Y0096051D02*
X0073400Y0188592D01*
X0075800Y0188700D02*
X0075800Y0100194D01*
X0075606Y0100000D02*
X0040000Y0100000D01*
X0040000Y0097600D02*
X0073709Y0097600D01*
X0078623Y0096229D02*
X0092094Y0109700D01*
X0141077Y0109700D01*
X0141959Y0110065D01*
X0150094Y0118200D01*
X0207606Y0118200D01*
X0208565Y0117241D01*
X0209241Y0116565D01*
X0210123Y0116200D01*
X0214577Y0116200D01*
X0215459Y0116565D01*
X0218135Y0119241D01*
X0218200Y0119398D01*
X0218200Y0074949D01*
X0218077Y0075000D01*
X0143123Y0075000D01*
X0142241Y0074635D01*
X0141565Y0073959D01*
X0120106Y0052500D01*
X0116894Y0052500D01*
X0117205Y0052811D01*
X0117754Y0052811D01*
X0118963Y0053312D01*
X0119888Y0054237D01*
X0120389Y0055446D01*
X0120389Y0056754D01*
X0119888Y0057963D01*
X0118963Y0058888D01*
X0117754Y0059389D01*
X0116446Y0059389D01*
X0116350Y0059349D01*
X0115888Y0060463D01*
X0114963Y0061388D01*
X0113754Y0061889D01*
X0113205Y0061889D01*
X0111635Y0063459D01*
X0111635Y0063459D01*
X0110959Y0064135D01*
X0110077Y0064500D01*
X0104094Y0064500D01*
X0102459Y0066135D01*
X0101577Y0066500D01*
X0100351Y0066500D01*
X0099963Y0066888D01*
X0098754Y0067389D01*
X0097446Y0067389D01*
X0096889Y0067158D01*
X0096889Y0067254D01*
X0096388Y0068463D01*
X0095463Y0069388D01*
X0094254Y0069889D01*
X0092946Y0069889D01*
X0091814Y0069420D01*
X0096205Y0073811D01*
X0096754Y0073811D01*
X0097963Y0074312D01*
X0098888Y0075237D01*
X0099389Y0076446D01*
X0099389Y0077754D01*
X0098997Y0078700D01*
X0111106Y0078700D01*
X0111565Y0078241D01*
X0112241Y0077565D01*
X0113123Y0077200D01*
X0204577Y0077200D01*
X0205459Y0077565D01*
X0208635Y0080741D01*
X0209000Y0081623D01*
X0209000Y0087349D01*
X0209388Y0087737D01*
X0209889Y0088946D01*
X0209889Y0090254D01*
X0209388Y0091463D01*
X0208463Y0092388D01*
X0207254Y0092889D01*
X0205946Y0092889D01*
X0204737Y0092388D01*
X0203812Y0091463D01*
X0203311Y0090254D01*
X0203311Y0088946D01*
X0203812Y0087737D01*
X0204200Y0087349D01*
X0204200Y0083094D01*
X0203106Y0082000D01*
X0114594Y0082000D01*
X0114135Y0082459D01*
X0113459Y0083135D01*
X0112577Y0083500D01*
X0090594Y0083500D01*
X0083389Y0090705D01*
X0083389Y0091254D01*
X0082888Y0092463D01*
X0081963Y0093388D01*
X0080754Y0093889D01*
X0079446Y0093889D01*
X0079389Y0093865D01*
X0079389Y0094754D01*
X0078888Y0095963D01*
X0078623Y0096229D01*
X0079204Y0095200D02*
X0109200Y0095200D01*
X0109200Y0094623D02*
X0109565Y0093741D01*
X0113241Y0090065D01*
X0114123Y0089700D01*
X0134349Y0089700D01*
X0134737Y0089312D01*
X0135946Y0088811D01*
X0137254Y0088811D01*
X0138463Y0089312D01*
X0139388Y0090237D01*
X0139889Y0091446D01*
X0139889Y0092754D01*
X0139388Y0093963D01*
X0138463Y0094888D01*
X0137254Y0095389D01*
X0135946Y0095389D01*
X0134737Y0094888D01*
X0134349Y0094500D01*
X0115594Y0094500D01*
X0114000Y0096094D01*
X0114000Y0098349D01*
X0114388Y0098737D01*
X0114889Y0099946D01*
X0114889Y0101254D01*
X0114388Y0102463D01*
X0113463Y0103388D01*
X0112254Y0103889D01*
X0110946Y0103889D01*
X0109737Y0103388D01*
X0109349Y0103000D01*
X0098851Y0103000D01*
X0098463Y0103388D01*
X0097254Y0103889D01*
X0095946Y0103889D01*
X0094737Y0103388D01*
X0093812Y0102463D01*
X0093311Y0101254D01*
X0093311Y0099946D01*
X0093812Y0098737D01*
X0094737Y0097812D01*
X0095946Y0097311D01*
X0097254Y0097311D01*
X0098463Y0097812D01*
X0098851Y0098200D01*
X0109200Y0098200D01*
X0109200Y0094623D01*
X0109400Y0094140D02*
X0109400Y0083500D01*
X0107000Y0083500D02*
X0107000Y0098200D01*
X0109200Y0097600D02*
X0097952Y0097600D01*
X0097400Y0097371D02*
X0097400Y0083500D01*
X0095000Y0083500D02*
X0095000Y0097703D01*
X0095248Y0097600D02*
X0079994Y0097600D01*
X0080600Y0098206D02*
X0080600Y0093889D01*
X0082551Y0092800D02*
X0110506Y0092800D01*
X0111800Y0091506D02*
X0111800Y0083500D01*
X0113302Y0083200D02*
X0204200Y0083200D01*
X0203000Y0082000D02*
X0203000Y0118200D01*
X0200600Y0118200D02*
X0200600Y0082000D01*
X0198200Y0082000D02*
X0198200Y0118200D01*
X0195800Y0118200D02*
X0195800Y0082000D01*
X0193400Y0082000D02*
X0193400Y0118200D01*
X0191000Y0118200D02*
X0191000Y0082000D01*
X0188600Y0082000D02*
X0188600Y0118200D01*
X0186200Y0118200D02*
X0186200Y0082000D01*
X0183800Y0082000D02*
X0183800Y0118200D01*
X0181400Y0118200D02*
X0181400Y0082000D01*
X0179000Y0082000D02*
X0179000Y0118200D01*
X0176600Y0118200D02*
X0176600Y0082000D01*
X0174200Y0082000D02*
X0174200Y0118200D01*
X0171800Y0118200D02*
X0171800Y0082000D01*
X0169400Y0082000D02*
X0169400Y0118200D01*
X0167000Y0118200D02*
X0167000Y0082000D01*
X0164600Y0082000D02*
X0164600Y0118200D01*
X0162200Y0118200D02*
X0162200Y0082000D01*
X0159800Y0082000D02*
X0159800Y0118200D01*
X0157400Y0118200D02*
X0157400Y0082000D01*
X0155000Y0082000D02*
X0155000Y0118200D01*
X0152600Y0118200D02*
X0152600Y0082000D01*
X0150200Y0082000D02*
X0150200Y0118200D01*
X0148694Y0116800D02*
X0209006Y0116800D01*
X0210200Y0116200D02*
X0210200Y0075000D01*
X0207800Y0075000D02*
X0207800Y0079906D01*
X0208659Y0080800D02*
X0218200Y0080800D01*
X0218200Y0078400D02*
X0206294Y0078400D01*
X0205400Y0077541D02*
X0205400Y0075000D01*
X0203000Y0075000D02*
X0203000Y0077200D01*
X0200600Y0077200D02*
X0200600Y0075000D01*
X0198200Y0075000D02*
X0198200Y0077200D01*
X0195800Y0077200D02*
X0195800Y0075000D01*
X0193400Y0075000D02*
X0193400Y0077200D01*
X0191000Y0077200D02*
X0191000Y0075000D01*
X0188600Y0075000D02*
X0188600Y0077200D01*
X0186200Y0077200D02*
X0186200Y0075000D01*
X0183800Y0075000D02*
X0183800Y0077200D01*
X0181400Y0077200D02*
X0181400Y0075000D01*
X0179000Y0075000D02*
X0179000Y0077200D01*
X0176600Y0077200D02*
X0176600Y0075000D01*
X0174200Y0075000D02*
X0174200Y0077200D01*
X0171800Y0077200D02*
X0171800Y0075000D01*
X0169400Y0075000D02*
X0169400Y0077200D01*
X0167000Y0077200D02*
X0167000Y0075000D01*
X0164600Y0075000D02*
X0164600Y0077200D01*
X0162200Y0077200D02*
X0162200Y0075000D01*
X0159800Y0075000D02*
X0159800Y0077200D01*
X0157400Y0077200D02*
X0157400Y0075000D01*
X0155000Y0075000D02*
X0155000Y0077200D01*
X0152600Y0077200D02*
X0152600Y0075000D01*
X0150200Y0075000D02*
X0150200Y0077200D01*
X0147800Y0077200D02*
X0147800Y0075000D01*
X0145400Y0075000D02*
X0145400Y0077200D01*
X0143000Y0077200D02*
X0143000Y0074949D01*
X0141206Y0073600D02*
X0095994Y0073600D01*
X0095000Y0072606D02*
X0095000Y0069580D01*
X0096051Y0068800D02*
X0136406Y0068800D01*
X0135800Y0068194D02*
X0135800Y0077200D01*
X0133400Y0077200D02*
X0133400Y0065794D01*
X0134006Y0066400D02*
X0101819Y0066400D01*
X0102200Y0066242D02*
X0102200Y0078700D01*
X0099800Y0078700D02*
X0099800Y0066956D01*
X0097400Y0067370D02*
X0097400Y0074079D01*
X0099204Y0076000D02*
X0218200Y0076000D01*
X0217400Y0075000D02*
X0217400Y0118506D01*
X0218094Y0119200D02*
X0218200Y0119200D01*
X0218200Y0116800D02*
X0215694Y0116800D01*
X0215000Y0116375D02*
X0215000Y0075000D01*
X0212600Y0075000D02*
X0212600Y0116200D01*
X0214100Y0118600D02*
X0210600Y0118600D01*
X0208600Y0120600D01*
X0207800Y0118006D02*
X0207800Y0092663D01*
X0207469Y0092800D02*
X0218200Y0092800D01*
X0218200Y0090400D02*
X0209829Y0090400D01*
X0209497Y0088000D02*
X0218200Y0088000D01*
X0218200Y0085600D02*
X0209000Y0085600D01*
X0209000Y0083200D02*
X0218200Y0083200D01*
X0225000Y0083200D02*
X0225692Y0083200D01*
X0227000Y0081892D02*
X0227000Y0074508D01*
X0225508Y0076000D02*
X0241512Y0076000D01*
X0241400Y0076419D02*
X0241400Y0041500D01*
X0239000Y0041500D02*
X0239000Y0067793D01*
X0239417Y0068800D02*
X0248862Y0068800D01*
X0248600Y0068870D02*
X0248600Y0054000D01*
X0248900Y0054000D02*
X0247070Y0054000D01*
X0244200Y0051130D01*
X0244200Y0049300D01*
X0248900Y0049300D01*
X0248900Y0054000D01*
X0249300Y0054000D02*
X0249300Y0049300D01*
X0248900Y0049300D01*
X0248900Y0048900D01*
X0244200Y0048900D01*
X0244200Y0047070D01*
X0247070Y0044200D01*
X0248900Y0044200D01*
X0248900Y0048900D01*
X0249300Y0048900D01*
X0249300Y0049300D01*
X0254000Y0049300D01*
X0254000Y0051130D01*
X0251130Y0054000D01*
X0249300Y0054000D01*
X0251000Y0054000D02*
X0251000Y0068437D01*
X0250217Y0068437D02*
X0252983Y0068437D01*
X0255655Y0069153D01*
X0258051Y0070536D01*
X0260006Y0072492D01*
X0261390Y0074888D01*
X0262105Y0077559D01*
X0262105Y0080326D01*
X0261390Y0082997D01*
X0260006Y0085393D01*
X0258051Y0087349D01*
X0255655Y0088732D01*
X0252983Y0089448D01*
X0250217Y0089448D01*
X0247545Y0088732D01*
X0245149Y0087349D01*
X0243193Y0085393D01*
X0241810Y0082997D01*
X0241094Y0080326D01*
X0241094Y0077559D01*
X0241810Y0074888D01*
X0243193Y0072492D01*
X0245149Y0070536D01*
X0247545Y0069153D01*
X0250217Y0068437D01*
X0246200Y0069929D02*
X0246200Y0053130D01*
X0245070Y0052000D02*
X0227000Y0052000D01*
X0227000Y0049600D02*
X0244200Y0049600D01*
X0246200Y0049300D02*
X0246200Y0048900D01*
X0248600Y0048900D02*
X0248600Y0049300D01*
X0248900Y0049600D02*
X0249300Y0049600D01*
X0249300Y0048900D02*
X0254000Y0048900D01*
X0254000Y0047070D01*
X0251130Y0044200D01*
X0249300Y0044200D01*
X0249300Y0048900D01*
X0249300Y0047200D02*
X0248900Y0047200D01*
X0248900Y0044800D02*
X0249300Y0044800D01*
X0248600Y0044200D02*
X0248600Y0044200D01*
X0246988Y0044200D02*
X0244288Y0041500D01*
X0231094Y0041500D01*
X0227000Y0045594D01*
X0227000Y0067078D01*
X0226635Y0066959D02*
X0226516Y0067078D01*
X0230780Y0067078D01*
X0231458Y0066400D02*
X0226866Y0066400D01*
X0227000Y0066077D02*
X0226635Y0066959D01*
X0227000Y0066077D02*
X0227000Y0045594D01*
X0227794Y0044800D02*
X0246470Y0044800D01*
X0246200Y0045070D02*
X0246200Y0043412D01*
X0246988Y0044200D02*
X0251212Y0044200D01*
X0254200Y0041212D01*
X0254200Y0036988D01*
X0251212Y0034000D01*
X0246988Y0034000D01*
X0244288Y0036700D01*
X0229623Y0036700D01*
X0228741Y0037065D01*
X0222565Y0043241D01*
X0222200Y0044123D01*
X0222200Y0044800D02*
X0162460Y0044800D01*
X0162677Y0044583D02*
X0160961Y0046299D01*
X0158719Y0047228D01*
X0156292Y0047228D01*
X0154050Y0046299D01*
X0152334Y0044583D01*
X0151406Y0042341D01*
X0151406Y0039914D01*
X0152334Y0037672D01*
X0154050Y0035956D01*
X0156292Y0035028D01*
X0158719Y0035028D01*
X0160961Y0035956D01*
X0162677Y0037672D01*
X0163605Y0039914D01*
X0163605Y0042341D01*
X0162677Y0044583D01*
X0162200Y0045060D02*
X0162200Y0059464D01*
X0162837Y0059200D02*
X0139877Y0059200D01*
X0140600Y0059923D02*
X0140600Y0019905D01*
X0138200Y0019905D02*
X0138200Y0057523D01*
X0137477Y0056800D02*
X0222200Y0056800D01*
X0222200Y0054400D02*
X0135077Y0054400D01*
X0135800Y0055123D02*
X0135800Y0019905D01*
X0133400Y0019905D02*
X0133400Y0051749D01*
X0133651Y0052000D02*
X0222200Y0052000D01*
X0222200Y0049600D02*
X0130277Y0049600D01*
X0131000Y0050323D02*
X0131000Y0020094D01*
X0130294Y0020800D02*
X0160142Y0020800D01*
X0160208Y0020961D02*
X0159280Y0018719D01*
X0159280Y0016292D01*
X0160208Y0014050D01*
X0161924Y0012334D01*
X0164166Y0011406D01*
X0166593Y0011406D01*
X0168835Y0012334D01*
X0170551Y0014050D01*
X0171480Y0016292D01*
X0171480Y0018719D01*
X0170551Y0020961D01*
X0168835Y0022677D01*
X0166593Y0023605D01*
X0164166Y0023605D01*
X0161924Y0022677D01*
X0160208Y0020961D01*
X0159800Y0019975D02*
X0159800Y0035475D01*
X0159135Y0035200D02*
X0245788Y0035200D01*
X0246200Y0034788D02*
X0246200Y0028283D01*
X0246083Y0028000D02*
X0129000Y0028000D01*
X0129000Y0025600D02*
X0245500Y0025600D01*
X0245500Y0026593D02*
X0245500Y0024166D01*
X0246429Y0021924D01*
X0248145Y0020208D01*
X0250387Y0019280D01*
X0252813Y0019280D01*
X0255055Y0020208D01*
X0256771Y0021924D01*
X0257700Y0024166D01*
X0257700Y0026593D01*
X0256771Y0028835D01*
X0255055Y0030551D01*
X0252813Y0031480D01*
X0250387Y0031480D01*
X0248145Y0030551D01*
X0246429Y0028835D01*
X0245500Y0026593D01*
X0245900Y0023200D02*
X0214816Y0023200D01*
X0215000Y0023124D02*
X0215000Y0059131D01*
X0215166Y0059200D02*
X0222200Y0059200D01*
X0222200Y0061600D02*
X0217922Y0061600D01*
X0217400Y0060899D02*
X0217400Y0021356D01*
X0217795Y0020961D02*
X0216079Y0022677D01*
X0213837Y0023605D01*
X0211410Y0023605D01*
X0209168Y0022677D01*
X0207452Y0020961D01*
X0206524Y0018719D01*
X0206524Y0016292D01*
X0207452Y0014050D01*
X0209168Y0012334D01*
X0211410Y0011406D01*
X0213837Y0011406D01*
X0216079Y0012334D01*
X0217795Y0014050D01*
X0218724Y0016292D01*
X0218724Y0018719D01*
X0217795Y0020961D01*
X0217862Y0020800D02*
X0247553Y0020800D01*
X0248600Y0020020D02*
X0248600Y0016960D01*
X0248145Y0016771D02*
X0246429Y0015055D01*
X0245500Y0012813D01*
X0245500Y0010387D01*
X0246429Y0008145D01*
X0248145Y0006429D01*
X0248697Y0006200D01*
X0006200Y0006200D01*
X0006200Y0206961D01*
X0265701Y0206961D01*
X0265701Y0006200D01*
X0254503Y0006200D01*
X0255055Y0006429D01*
X0256771Y0008145D01*
X0257700Y0010387D01*
X0257700Y0012813D01*
X0256771Y0015055D01*
X0255055Y0016771D01*
X0252813Y0017700D01*
X0250387Y0017700D01*
X0248145Y0016771D01*
X0247373Y0016000D02*
X0218603Y0016000D01*
X0218724Y0018400D02*
X0265701Y0018400D01*
X0265701Y0016000D02*
X0255827Y0016000D01*
X0255800Y0016027D02*
X0255800Y0020953D01*
X0255647Y0020800D02*
X0265701Y0020800D01*
X0265701Y0023200D02*
X0257300Y0023200D01*
X0253400Y0019523D02*
X0253400Y0017457D01*
X0251000Y0017700D02*
X0251000Y0019280D01*
X0246200Y0022476D02*
X0246200Y0014503D01*
X0245826Y0013600D02*
X0217345Y0013600D01*
X0217400Y0013655D02*
X0217400Y0006200D01*
X0215000Y0006200D02*
X0215000Y0011887D01*
X0212600Y0011406D02*
X0212600Y0006200D01*
X0210200Y0006200D02*
X0210200Y0011907D01*
X0207902Y0013600D02*
X0170101Y0013600D01*
X0169400Y0012899D02*
X0169400Y0006200D01*
X0167000Y0006200D02*
X0167000Y0011574D01*
X0164600Y0011406D02*
X0164600Y0006200D01*
X0162200Y0006200D02*
X0162200Y0012220D01*
X0160658Y0013600D02*
X0091378Y0013600D01*
X0090200Y0012564D02*
X0090200Y0006200D01*
X0087800Y0006200D02*
X0087800Y0012564D01*
X0085400Y0012951D02*
X0085400Y0006200D01*
X0083000Y0006200D02*
X0083000Y0015222D01*
X0081378Y0013600D02*
X0084751Y0013600D01*
X0080600Y0012822D02*
X0080600Y0006200D01*
X0078200Y0006200D02*
X0078200Y0012564D01*
X0075800Y0012564D02*
X0075800Y0006200D01*
X0073400Y0006200D02*
X0073400Y0014951D01*
X0074751Y0013600D02*
X0071095Y0013600D01*
X0071000Y0013505D02*
X0071000Y0006200D01*
X0068600Y0006200D02*
X0068600Y0012764D01*
X0068464Y0013600D02*
X0067664Y0013600D01*
X0067664Y0012764D02*
X0067664Y0017664D01*
X0062764Y0017664D01*
X0062764Y0015869D01*
X0065869Y0012764D01*
X0067664Y0012764D01*
X0066200Y0012764D02*
X0066200Y0006200D01*
X0063800Y0006200D02*
X0063800Y0014834D01*
X0062764Y0016000D02*
X0029811Y0016000D01*
X0030200Y0016389D02*
X0030200Y0006200D01*
X0032600Y0006200D02*
X0032600Y0068206D01*
X0032006Y0068800D02*
X0031020Y0068800D01*
X0031002Y0068856D02*
X0030662Y0069522D01*
X0030223Y0070127D01*
X0029694Y0070656D01*
X0029494Y0070801D01*
X0029749Y0071057D01*
X0041700Y0059106D01*
X0041700Y0048851D01*
X0040812Y0047963D01*
X0040311Y0046754D01*
X0040311Y0045446D01*
X0040812Y0044237D01*
X0041737Y0043312D01*
X0042946Y0042811D01*
X0044254Y0042811D01*
X0045463Y0043312D01*
X0046388Y0044237D01*
X0046889Y0045446D01*
X0046889Y0046754D01*
X0046500Y0047693D01*
X0046500Y0060577D01*
X0046449Y0060700D01*
X0051077Y0060700D01*
X0051959Y0061065D01*
X0068705Y0077811D01*
X0068754Y0077811D01*
X0069963Y0078312D01*
X0070888Y0079237D01*
X0071389Y0080446D01*
X0071389Y0081754D01*
X0070888Y0082963D01*
X0069963Y0083888D01*
X0068754Y0084389D01*
X0067446Y0084389D01*
X0066237Y0083888D01*
X0065312Y0082963D01*
X0064811Y0081754D01*
X0064811Y0080705D01*
X0049606Y0065500D01*
X0047094Y0065500D01*
X0029959Y0082635D01*
X0029077Y0083000D01*
X0022123Y0083000D01*
X0021241Y0082635D01*
X0020565Y0081959D01*
X0019406Y0080800D02*
X0006200Y0080800D01*
X0006200Y0078400D02*
X0018200Y0078400D01*
X0018200Y0079077D02*
X0018200Y0052623D01*
X0018200Y0006200D01*
X0015800Y0006200D02*
X0015800Y0154216D01*
X0016484Y0154216D02*
X0022000Y0154216D01*
X0022000Y0154136D01*
X0021855Y0153218D01*
X0021568Y0152335D01*
X0021146Y0151508D01*
X0020600Y0150756D01*
X0020244Y0150400D02*
X0033800Y0150400D01*
X0033800Y0148000D02*
X0006200Y0148000D01*
X0006200Y0145600D02*
X0033800Y0145600D01*
X0033800Y0143200D02*
X0006200Y0143200D01*
X0006200Y0140800D02*
X0033800Y0140800D01*
X0033800Y0138400D02*
X0029765Y0138400D01*
X0030200Y0137965D02*
X0030200Y0181500D01*
X0032600Y0181500D02*
X0032600Y0121500D01*
X0030922Y0121600D02*
X0083449Y0121600D01*
X0083000Y0122490D02*
X0083000Y0107394D01*
X0082806Y0107200D02*
X0040000Y0107200D01*
X0040000Y0104800D02*
X0080406Y0104800D01*
X0080600Y0104994D02*
X0080600Y0188700D01*
X0078200Y0188700D02*
X0078200Y0102594D01*
X0078006Y0102400D02*
X0040000Y0102400D01*
X0032700Y0102400D02*
X0031550Y0102400D01*
X0031358Y0104800D02*
X0032700Y0104800D01*
X0032700Y0107200D02*
X0029752Y0107200D01*
X0030200Y0106752D02*
X0030200Y0107826D01*
X0032600Y0107706D02*
X0032600Y0079994D01*
X0031794Y0080800D02*
X0039506Y0080800D01*
X0039800Y0080506D02*
X0039800Y0072794D01*
X0038994Y0073600D02*
X0057706Y0073600D01*
X0056600Y0072494D02*
X0056600Y0130300D01*
X0054200Y0130300D02*
X0054200Y0089204D01*
X0055851Y0088000D02*
X0078049Y0088000D01*
X0078200Y0087849D02*
X0078200Y0062594D01*
X0077206Y0061600D02*
X0052494Y0061600D01*
X0051800Y0060999D02*
X0051800Y0006200D01*
X0054200Y0006200D02*
X0054200Y0033106D01*
X0054506Y0032800D02*
X0030824Y0032800D01*
X0030796Y0032733D02*
X0031550Y0034552D01*
X0031550Y0036522D01*
X0030796Y0038341D01*
X0029663Y0039474D01*
X0030796Y0040607D01*
X0031550Y0042426D01*
X0031550Y0044396D01*
X0030796Y0046215D01*
X0029663Y0047348D01*
X0030796Y0048481D01*
X0031550Y0050300D01*
X0031550Y0052270D01*
X0030796Y0054089D01*
X0029663Y0055222D01*
X0030796Y0056355D01*
X0031550Y0058175D01*
X0031550Y0060144D01*
X0030796Y0061963D01*
X0029494Y0063265D01*
X0029694Y0063410D01*
X0030223Y0063939D01*
X0030662Y0064544D01*
X0031002Y0065210D01*
X0031233Y0065921D01*
X0031350Y0066659D01*
X0031350Y0066944D01*
X0026689Y0066944D01*
X0026689Y0067122D01*
X0031350Y0067122D01*
X0031350Y0067407D01*
X0031233Y0068145D01*
X0031002Y0068856D01*
X0030200Y0070150D02*
X0030200Y0070606D01*
X0030200Y0067122D02*
X0030200Y0066944D01*
X0031309Y0066400D02*
X0034406Y0066400D01*
X0035000Y0065806D02*
X0035000Y0006200D01*
X0037400Y0006200D02*
X0037400Y0063406D01*
X0036806Y0064000D02*
X0030267Y0064000D01*
X0030200Y0063916D02*
X0030200Y0062559D01*
X0030946Y0061600D02*
X0039206Y0061600D01*
X0039800Y0061006D02*
X0039800Y0006200D01*
X0042200Y0006200D02*
X0042200Y0043120D01*
X0040579Y0044800D02*
X0031382Y0044800D01*
X0030200Y0046811D02*
X0030200Y0047885D01*
X0029811Y0047200D02*
X0040496Y0047200D01*
X0041700Y0049600D02*
X0031259Y0049600D01*
X0031550Y0052000D02*
X0041700Y0052000D01*
X0041700Y0054400D02*
X0030485Y0054400D01*
X0030200Y0054685D02*
X0030200Y0055759D01*
X0030980Y0056800D02*
X0041700Y0056800D01*
X0041606Y0059200D02*
X0031550Y0059200D01*
X0033100Y0067033D02*
X0040100Y0060033D01*
X0040100Y0050100D01*
X0044100Y0046600D02*
X0043600Y0046100D01*
X0044100Y0046600D02*
X0044100Y0060100D01*
X0029293Y0074907D01*
X0026600Y0074907D01*
X0028600Y0080600D02*
X0022600Y0080600D01*
X0020600Y0078600D01*
X0020600Y0053100D01*
X0022415Y0051285D01*
X0026600Y0051285D01*
X0023000Y0047885D02*
X0023000Y0046811D01*
X0023389Y0047200D02*
X0006200Y0047200D01*
X0006200Y0044800D02*
X0021818Y0044800D01*
X0021650Y0044396D02*
X0022404Y0046215D01*
X0023537Y0047348D01*
X0022404Y0048481D01*
X0022237Y0048885D01*
X0021938Y0048885D01*
X0021055Y0049250D01*
X0019241Y0051065D01*
X0018565Y0051741D01*
X0018200Y0052623D01*
X0018458Y0052000D02*
X0006200Y0052000D01*
X0006200Y0049600D02*
X0020706Y0049600D01*
X0020600Y0049706D02*
X0020600Y0006200D01*
X0023000Y0006200D02*
X0023000Y0016389D01*
X0023389Y0016000D02*
X0006200Y0016000D01*
X0006200Y0013600D02*
X0065034Y0013600D01*
X0067664Y0016000D02*
X0068464Y0016000D01*
X0067664Y0018400D02*
X0031382Y0018400D01*
X0031550Y0018804D02*
X0031550Y0020774D01*
X0030796Y0022593D01*
X0029663Y0023726D01*
X0030796Y0024859D01*
X0031550Y0026678D01*
X0031550Y0028648D01*
X0030796Y0030467D01*
X0029663Y0031600D01*
X0030796Y0032733D01*
X0030200Y0032137D02*
X0030200Y0031063D01*
X0030824Y0030400D02*
X0056906Y0030400D01*
X0056600Y0030706D02*
X0056600Y0006200D01*
X0059000Y0006200D02*
X0059000Y0028306D01*
X0059306Y0028000D02*
X0031550Y0028000D01*
X0031103Y0025600D02*
X0062751Y0025600D01*
X0061400Y0025979D02*
X0061400Y0006200D01*
X0049400Y0006200D02*
X0049400Y0060700D01*
X0047000Y0060700D02*
X0047000Y0006200D01*
X0044600Y0006200D02*
X0044600Y0042954D01*
X0046621Y0044800D02*
X0053700Y0044800D01*
X0054200Y0046594D02*
X0054200Y0063306D01*
X0054894Y0064000D02*
X0079606Y0064000D01*
X0080600Y0064994D02*
X0080600Y0086706D01*
X0081706Y0085600D02*
X0056389Y0085600D01*
X0054693Y0083200D02*
X0065549Y0083200D01*
X0066200Y0083851D02*
X0066200Y0130300D01*
X0063800Y0130300D02*
X0063800Y0079694D01*
X0064811Y0080800D02*
X0051829Y0080800D01*
X0051800Y0080731D02*
X0051800Y0067694D01*
X0052906Y0068800D02*
X0043794Y0068800D01*
X0044600Y0067994D02*
X0044600Y0074954D01*
X0043049Y0076000D02*
X0036594Y0076000D01*
X0037400Y0075194D02*
X0037400Y0082906D01*
X0037106Y0083200D02*
X0006200Y0083200D01*
X0006200Y0085600D02*
X0034706Y0085600D01*
X0035000Y0085306D02*
X0035000Y0077594D01*
X0034194Y0078400D02*
X0041906Y0078400D01*
X0042200Y0078106D02*
X0042200Y0070394D01*
X0041394Y0071200D02*
X0055306Y0071200D01*
X0054200Y0070094D02*
X0054200Y0082996D01*
X0051800Y0083079D02*
X0051800Y0082469D01*
X0051507Y0083200D02*
X0051497Y0083200D01*
X0048600Y0081600D02*
X0045600Y0081600D01*
X0037600Y0089600D01*
X0037600Y0114600D01*
X0033100Y0119100D01*
X0026600Y0119100D01*
X0023000Y0115700D02*
X0023000Y0114626D01*
X0022774Y0114400D02*
X0006200Y0114400D01*
X0006200Y0112000D02*
X0021650Y0112000D01*
X0021916Y0109600D02*
X0006200Y0109600D01*
X0006200Y0107200D02*
X0023448Y0107200D01*
X0023000Y0106752D02*
X0023000Y0107826D01*
X0021842Y0104800D02*
X0006200Y0104800D01*
X0006200Y0102400D02*
X0021650Y0102400D01*
X0022952Y0100000D02*
X0006200Y0100000D01*
X0006200Y0097600D02*
X0032700Y0097600D01*
X0032700Y0100000D02*
X0030248Y0100000D01*
X0030200Y0099952D02*
X0030200Y0082394D01*
X0028600Y0080600D02*
X0046100Y0063100D01*
X0050600Y0063100D01*
X0068100Y0080600D01*
X0068100Y0081100D01*
X0071389Y0080800D02*
X0086506Y0080800D01*
X0085400Y0081906D02*
X0085400Y0069794D01*
X0084406Y0068800D02*
X0059694Y0068800D01*
X0059000Y0068106D02*
X0059000Y0051394D01*
X0059606Y0052000D02*
X0046500Y0052000D01*
X0046500Y0049600D02*
X0057206Y0049600D01*
X0056600Y0048994D02*
X0056600Y0065706D01*
X0057294Y0066400D02*
X0082006Y0066400D01*
X0083000Y0067394D02*
X0083000Y0084306D01*
X0084106Y0083200D02*
X0070651Y0083200D01*
X0071000Y0082693D02*
X0071000Y0186192D01*
X0071208Y0186400D02*
X0093492Y0186400D01*
X0092600Y0187292D02*
X0092600Y0144900D01*
X0095000Y0144900D02*
X0095000Y0184892D01*
X0095892Y0184000D02*
X0068808Y0184000D01*
X0068600Y0183792D02*
X0068600Y0162900D01*
X0069346Y0162400D02*
X0195200Y0162400D01*
X0195200Y0160000D02*
X0069900Y0160000D01*
X0066200Y0162900D02*
X0066200Y0164877D01*
X0066014Y0164800D02*
X0195200Y0164800D01*
X0195200Y0167200D02*
X0193851Y0167200D01*
X0193400Y0166786D02*
X0193400Y0125500D01*
X0195800Y0125500D02*
X0195800Y0133506D01*
X0195706Y0133600D02*
X0119900Y0133600D01*
X0119900Y0136000D02*
X0195200Y0136000D01*
X0195200Y0138400D02*
X0119900Y0138400D01*
X0119900Y0140800D02*
X0195200Y0140800D01*
X0195200Y0143200D02*
X0119900Y0143200D01*
X0119000Y0144746D02*
X0119000Y0174700D01*
X0116600Y0174700D02*
X0116600Y0144900D01*
X0114200Y0144900D02*
X0114200Y0174700D01*
X0111800Y0174700D02*
X0111800Y0144900D01*
X0109400Y0144900D02*
X0109400Y0174700D01*
X0107000Y0174700D02*
X0107000Y0144900D01*
X0104600Y0144900D02*
X0104600Y0175292D01*
X0103092Y0176800D02*
X0067500Y0176800D01*
X0067500Y0179200D02*
X0100692Y0179200D01*
X0099800Y0180092D02*
X0099800Y0144900D01*
X0097400Y0144900D02*
X0097400Y0182492D01*
X0098292Y0181600D02*
X0067500Y0181600D01*
X0060700Y0181600D02*
X0054357Y0181600D01*
X0054357Y0179200D02*
X0060700Y0179200D01*
X0060700Y0176800D02*
X0054357Y0176800D01*
X0054357Y0174400D02*
X0060700Y0174400D01*
X0060700Y0172000D02*
X0054357Y0172000D01*
X0054357Y0169600D02*
X0060629Y0169600D01*
X0060380Y0167200D02*
X0054357Y0167200D01*
X0054357Y0164800D02*
X0062186Y0164800D01*
X0061400Y0165453D02*
X0061400Y0162900D01*
X0063800Y0162900D02*
X0063800Y0164319D01*
X0067820Y0167200D02*
X0176349Y0167200D01*
X0176600Y0166949D02*
X0176600Y0132889D01*
X0179000Y0131851D02*
X0179000Y0166311D01*
X0181400Y0167200D02*
X0181400Y0125500D01*
X0179000Y0125500D02*
X0179000Y0127349D01*
X0179829Y0128800D02*
X0200506Y0128800D01*
X0200600Y0128706D02*
X0200600Y0125500D01*
X0198200Y0125500D02*
X0198200Y0131106D01*
X0198106Y0131200D02*
X0179497Y0131200D01*
X0176600Y0129600D02*
X0137600Y0129600D01*
X0136731Y0126400D02*
X0119900Y0126400D01*
X0119900Y0124000D02*
X0145606Y0124000D01*
X0145400Y0123794D02*
X0145400Y0127200D01*
X0143000Y0127200D02*
X0143000Y0121394D01*
X0143206Y0121600D02*
X0119900Y0121600D01*
X0116600Y0117300D02*
X0116600Y0117000D01*
X0114200Y0117000D02*
X0114200Y0117300D01*
X0111800Y0117300D02*
X0111800Y0117000D01*
X0109400Y0117000D02*
X0109400Y0117300D01*
X0107000Y0117300D02*
X0107000Y0117000D01*
X0104600Y0117000D02*
X0104600Y0117300D01*
X0102200Y0117300D02*
X0102200Y0117000D01*
X0099800Y0117000D02*
X0099800Y0117300D01*
X0097400Y0117300D02*
X0097400Y0117000D01*
X0095000Y0117000D02*
X0095000Y0117300D01*
X0092600Y0117300D02*
X0092600Y0117000D01*
X0090600Y0114600D02*
X0086350Y0118850D01*
X0086350Y0123350D01*
X0086100Y0123600D01*
X0086350Y0123350D02*
X0086600Y0123100D01*
X0082811Y0124000D02*
X0030626Y0124000D01*
X0030200Y0123574D02*
X0030200Y0122500D01*
X0035000Y0120594D02*
X0035000Y0130300D01*
X0033954Y0131200D02*
X0029659Y0131200D01*
X0030200Y0131731D02*
X0030200Y0130374D01*
X0031201Y0128800D02*
X0088300Y0128800D01*
X0087800Y0126456D02*
X0087800Y0188700D01*
X0085400Y0188700D02*
X0085400Y0126870D01*
X0084265Y0126400D02*
X0031550Y0126400D01*
X0037400Y0130300D02*
X0037400Y0118194D01*
X0036394Y0119200D02*
X0083950Y0119200D01*
X0085006Y0116800D02*
X0038794Y0116800D01*
X0039800Y0115560D02*
X0039800Y0130300D01*
X0042200Y0130300D02*
X0042200Y0091693D01*
X0041811Y0090400D02*
X0040194Y0090400D01*
X0042200Y0088507D02*
X0042200Y0088394D01*
X0045100Y0090100D02*
X0049100Y0086100D01*
X0053100Y0086100D01*
X0051800Y0089121D02*
X0051800Y0130300D01*
X0049400Y0130300D02*
X0049400Y0089194D01*
X0048389Y0090400D02*
X0076811Y0090400D01*
X0075800Y0090811D02*
X0075800Y0059869D01*
X0075664Y0059200D02*
X0071210Y0059200D01*
X0071000Y0059287D02*
X0071000Y0079507D01*
X0070051Y0078400D02*
X0093079Y0078400D01*
X0092600Y0078700D02*
X0092600Y0076994D01*
X0091606Y0076000D02*
X0066894Y0076000D01*
X0066200Y0075306D02*
X0066200Y0058325D01*
X0064406Y0056800D02*
X0046500Y0056800D01*
X0046500Y0054400D02*
X0062006Y0054400D01*
X0061400Y0053794D02*
X0061400Y0070506D01*
X0062094Y0071200D02*
X0086806Y0071200D01*
X0087800Y0072194D02*
X0087800Y0079506D01*
X0089600Y0081100D02*
X0112100Y0081100D01*
X0113600Y0079600D01*
X0204100Y0079600D01*
X0206600Y0082100D01*
X0206600Y0089600D01*
X0205400Y0092663D02*
X0205400Y0118200D01*
X0205400Y0125500D02*
X0205400Y0128200D01*
X0203000Y0128200D02*
X0203000Y0125500D01*
X0207800Y0125500D02*
X0207800Y0128200D01*
X0210200Y0128200D02*
X0210200Y0125851D01*
X0212600Y0126389D02*
X0212600Y0127206D01*
X0213406Y0126400D02*
X0177469Y0126400D01*
X0176600Y0126311D02*
X0176600Y0125500D01*
X0175731Y0126400D02*
X0164889Y0126400D01*
X0167000Y0127200D02*
X0167000Y0125500D01*
X0169400Y0125500D02*
X0169400Y0127200D01*
X0171800Y0127200D02*
X0171800Y0125500D01*
X0174200Y0125500D02*
X0174200Y0127200D01*
X0183800Y0125500D02*
X0183800Y0167200D01*
X0186200Y0167200D02*
X0186200Y0125500D01*
X0188600Y0125500D02*
X0188600Y0167200D01*
X0191000Y0166311D02*
X0191000Y0125500D01*
X0202494Y0133600D02*
X0218200Y0133600D01*
X0218200Y0136000D02*
X0200094Y0136000D01*
X0200600Y0135494D02*
X0200600Y0157605D01*
X0200605Y0157600D02*
X0200000Y0157600D01*
X0200000Y0155200D02*
X0208200Y0155200D01*
X0208200Y0152800D02*
X0200000Y0152800D01*
X0200000Y0150400D02*
X0208200Y0150400D01*
X0208496Y0148000D02*
X0200000Y0148000D01*
X0200000Y0145600D02*
X0221292Y0145600D01*
X0222200Y0146508D02*
X0222200Y0184200D01*
X0219800Y0184200D02*
X0219800Y0176178D01*
X0218418Y0176800D02*
X0231914Y0176800D01*
X0231800Y0176883D02*
X0231800Y0173464D01*
X0230280Y0172000D02*
X0222100Y0172000D01*
X0221725Y0169600D02*
X0229492Y0169600D01*
X0229859Y0167200D02*
X0219978Y0167200D01*
X0219800Y0167022D02*
X0219800Y0165826D01*
X0220826Y0164800D02*
X0231680Y0164800D01*
X0231800Y0164736D02*
X0231800Y0161653D01*
X0230195Y0160000D02*
X0221653Y0160000D01*
X0219800Y0161200D02*
X0219800Y0162000D01*
X0221839Y0162400D02*
X0245238Y0162400D01*
X0246200Y0162956D02*
X0246200Y0175244D01*
X0247798Y0174400D02*
X0221393Y0174400D01*
X0217400Y0177100D02*
X0217400Y0184200D01*
X0215000Y0184200D02*
X0215000Y0176890D01*
X0214782Y0176800D02*
X0205918Y0176800D01*
X0205400Y0177015D02*
X0205400Y0184200D01*
X0203000Y0184200D02*
X0203000Y0177098D01*
X0202282Y0176800D02*
X0196794Y0176800D01*
X0195800Y0177408D02*
X0195800Y0183992D01*
X0198200Y0184200D02*
X0198200Y0175394D01*
X0199194Y0174400D02*
X0199307Y0174400D01*
X0200600Y0175878D02*
X0200600Y0184200D01*
X0193408Y0181600D02*
X0229740Y0181600D01*
X0231800Y0181295D02*
X0231800Y0180527D01*
X0229996Y0179200D02*
X0191008Y0179200D01*
X0191000Y0179192D02*
X0191000Y0178389D01*
X0193400Y0177914D02*
X0193400Y0181592D01*
X0188744Y0176800D02*
X0188608Y0176800D01*
X0188600Y0176792D02*
X0188600Y0176452D01*
X0193851Y0172000D02*
X0194806Y0172000D01*
X0194889Y0169600D02*
X0195200Y0169600D01*
X0191600Y0169600D02*
X0178600Y0169600D01*
X0175311Y0169600D02*
X0067571Y0169600D01*
X0059000Y0162900D02*
X0059000Y0186823D01*
X0058577Y0186400D02*
X0061592Y0186400D01*
X0061400Y0186208D02*
X0061400Y0189223D01*
X0060977Y0188800D02*
X0063992Y0188800D01*
X0063800Y0188608D02*
X0063800Y0191623D01*
X0063377Y0191200D02*
X0066392Y0191200D01*
X0066200Y0191008D02*
X0066200Y0194023D01*
X0065777Y0193600D02*
X0068792Y0193600D01*
X0068600Y0193408D02*
X0068600Y0196423D01*
X0068177Y0196000D02*
X0204988Y0196000D01*
X0205400Y0195588D02*
X0205400Y0191000D01*
X0207800Y0191000D02*
X0207800Y0194000D01*
X0206988Y0194000D02*
X0211212Y0194000D01*
X0214200Y0196988D01*
X0214200Y0201212D01*
X0211212Y0204200D01*
X0206988Y0204200D01*
X0204000Y0201212D01*
X0204000Y0196988D01*
X0206988Y0194000D01*
X0210200Y0194000D02*
X0210200Y0191000D01*
X0212600Y0191000D02*
X0212600Y0195388D01*
X0213212Y0196000D02*
X0215270Y0196000D01*
X0215000Y0196270D02*
X0215000Y0191000D01*
X0217400Y0191000D02*
X0217400Y0194200D01*
X0217070Y0194200D02*
X0218900Y0194200D01*
X0218900Y0198900D01*
X0219300Y0198900D01*
X0219300Y0199300D01*
X0224000Y0199300D01*
X0224000Y0201130D01*
X0221130Y0204000D01*
X0219300Y0204000D01*
X0219300Y0199300D01*
X0218900Y0199300D01*
X0218900Y0204000D01*
X0217070Y0204000D01*
X0214200Y0201130D01*
X0214200Y0199300D01*
X0218900Y0199300D01*
X0218900Y0198900D01*
X0214200Y0198900D01*
X0214200Y0197070D01*
X0217070Y0194200D01*
X0219300Y0194200D02*
X0221130Y0194200D01*
X0224000Y0197070D01*
X0224000Y0198900D01*
X0219300Y0198900D01*
X0219300Y0194200D01*
X0219800Y0194200D02*
X0219800Y0191000D01*
X0222200Y0191000D02*
X0222200Y0195270D01*
X0222930Y0196000D02*
X0230658Y0196000D01*
X0231800Y0197086D02*
X0231800Y0206961D01*
X0234200Y0206961D02*
X0234200Y0197822D01*
X0236600Y0197411D02*
X0236600Y0206961D01*
X0224600Y0206961D02*
X0224600Y0191000D01*
X0219300Y0196000D02*
X0218900Y0196000D01*
X0220100Y0198100D02*
X0219100Y0199100D01*
X0219800Y0198900D02*
X0219800Y0199300D01*
X0219300Y0198400D02*
X0218900Y0198400D01*
X0217400Y0198900D02*
X0217400Y0199300D01*
X0218900Y0200800D02*
X0219300Y0200800D01*
X0219300Y0203200D02*
X0218900Y0203200D01*
X0219800Y0204000D02*
X0219800Y0206961D01*
X0217400Y0206961D02*
X0217400Y0204000D01*
X0216270Y0203200D02*
X0212212Y0203200D01*
X0212600Y0202812D02*
X0212600Y0206961D01*
X0215000Y0206961D02*
X0215000Y0201930D01*
X0214200Y0200800D02*
X0214200Y0200800D01*
X0215000Y0199300D02*
X0215000Y0198900D01*
X0214200Y0198400D02*
X0214200Y0198400D01*
X0210200Y0204200D02*
X0210200Y0206961D01*
X0207800Y0206961D02*
X0207800Y0204200D01*
X0204000Y0200800D02*
X0115381Y0200800D01*
X0114747Y0198400D02*
X0204000Y0198400D01*
X0207800Y0184200D02*
X0207800Y0175678D01*
X0208893Y0174400D02*
X0211807Y0174400D01*
X0212600Y0175378D02*
X0212600Y0184200D01*
X0210200Y0184200D02*
X0210200Y0171894D01*
X0210094Y0172000D02*
X0211100Y0172000D01*
X0210600Y0168100D02*
X0207100Y0171600D01*
X0204100Y0171600D01*
X0210600Y0168100D02*
X0210600Y0150100D01*
X0211600Y0149100D01*
X0214621Y0150400D02*
X0233148Y0150400D01*
X0234200Y0150578D02*
X0234200Y0152189D01*
X0232103Y0152800D02*
X0213000Y0152800D01*
X0213000Y0155200D02*
X0229937Y0155200D01*
X0229492Y0157600D02*
X0220095Y0157600D01*
X0219800Y0157374D02*
X0219800Y0144108D01*
X0218892Y0143200D02*
X0200000Y0143200D01*
X0200000Y0140800D02*
X0218200Y0140800D01*
X0218200Y0138400D02*
X0200000Y0138400D01*
X0203000Y0133094D02*
X0203000Y0156408D01*
X0203700Y0157600D02*
X0204500Y0157600D01*
X0205400Y0156450D02*
X0205400Y0133000D01*
X0207800Y0133000D02*
X0207800Y0157805D01*
X0207595Y0157600D02*
X0208200Y0157600D01*
X0204500Y0160000D02*
X0203700Y0160000D01*
X0195200Y0157600D02*
X0069900Y0157600D01*
X0069900Y0155200D02*
X0195200Y0155200D01*
X0195200Y0152800D02*
X0069900Y0152800D01*
X0069900Y0150400D02*
X0195200Y0150400D01*
X0195200Y0148000D02*
X0069900Y0148000D01*
X0069900Y0145600D02*
X0195200Y0145600D01*
X0210200Y0146120D02*
X0210200Y0133000D01*
X0212600Y0133000D02*
X0212600Y0145954D01*
X0214704Y0148000D02*
X0223692Y0148000D01*
X0224600Y0148587D02*
X0224600Y0184200D01*
X0227000Y0184200D02*
X0227000Y0148878D01*
X0229400Y0148878D02*
X0229400Y0184200D01*
X0234208Y0179200D02*
X0234976Y0179200D01*
X0239000Y0183053D02*
X0239000Y0190037D01*
X0224000Y0198400D02*
X0265701Y0198400D01*
X0265701Y0200800D02*
X0224000Y0200800D01*
X0222200Y0199300D02*
X0222200Y0198900D01*
X0222200Y0202930D02*
X0222200Y0206961D01*
X0221930Y0203200D02*
X0265701Y0203200D01*
X0265701Y0205600D02*
X0006200Y0205600D01*
X0006200Y0206961D02*
X0006200Y0006200D01*
X0006200Y0006400D02*
X0248214Y0006400D01*
X0248600Y0006240D02*
X0248600Y0006200D01*
X0246200Y0006200D02*
X0246200Y0008697D01*
X0246157Y0008800D02*
X0006200Y0008800D01*
X0006200Y0011200D02*
X0245500Y0011200D01*
X0243800Y0006200D02*
X0243800Y0036700D01*
X0241400Y0036700D02*
X0241400Y0006200D01*
X0239000Y0006200D02*
X0239000Y0036700D01*
X0236600Y0036700D02*
X0236600Y0006200D01*
X0234200Y0006200D02*
X0234200Y0036700D01*
X0231800Y0036700D02*
X0231800Y0006200D01*
X0229400Y0006200D02*
X0229400Y0036792D01*
X0228206Y0037600D02*
X0162605Y0037600D01*
X0162200Y0037195D02*
X0162200Y0022791D01*
X0163187Y0023200D02*
X0129000Y0023200D01*
X0126600Y0021100D02*
X0130194Y0017506D01*
X0150025Y0017506D01*
X0147800Y0019932D02*
X0147800Y0062150D01*
X0145400Y0062150D02*
X0145400Y0019905D01*
X0143000Y0019905D02*
X0143000Y0062150D01*
X0142277Y0061600D02*
X0160082Y0061600D01*
X0159800Y0062150D02*
X0159800Y0046780D01*
X0158785Y0047200D02*
X0222200Y0047200D01*
X0227000Y0047200D02*
X0244200Y0047200D01*
X0248900Y0052000D02*
X0249300Y0052000D01*
X0251000Y0049300D02*
X0251000Y0048900D01*
X0253400Y0048900D02*
X0253400Y0049300D01*
X0254000Y0049600D02*
X0265701Y0049600D01*
X0265701Y0047200D02*
X0254000Y0047200D01*
X0253400Y0046470D02*
X0253400Y0042012D01*
X0253012Y0042400D02*
X0265701Y0042400D01*
X0265701Y0040000D02*
X0254200Y0040000D01*
X0254200Y0037600D02*
X0265701Y0037600D01*
X0265701Y0035200D02*
X0252412Y0035200D01*
X0253400Y0036188D02*
X0253400Y0031237D01*
X0255206Y0030400D02*
X0265701Y0030400D01*
X0265701Y0028000D02*
X0257117Y0028000D01*
X0255800Y0029806D02*
X0255800Y0069237D01*
X0254338Y0068800D02*
X0265701Y0068800D01*
X0265701Y0066400D02*
X0237727Y0066400D01*
X0236600Y0065789D02*
X0236600Y0041500D01*
X0234200Y0041500D02*
X0234200Y0065378D01*
X0231800Y0066114D02*
X0231800Y0041500D01*
X0227000Y0038806D02*
X0227000Y0006200D01*
X0224600Y0006200D02*
X0224600Y0041206D01*
X0223406Y0042400D02*
X0163581Y0042400D01*
X0163605Y0040000D02*
X0225806Y0040000D01*
X0227000Y0054400D02*
X0265701Y0054400D01*
X0265701Y0052000D02*
X0253130Y0052000D01*
X0253400Y0051730D02*
X0253400Y0068549D01*
X0258200Y0070685D02*
X0258200Y0006200D01*
X0255800Y0006200D02*
X0255800Y0007173D01*
X0254986Y0006400D02*
X0265701Y0006400D01*
X0265400Y0006200D02*
X0265400Y0206961D01*
X0263000Y0206961D02*
X0263000Y0006200D01*
X0260600Y0006200D02*
X0260600Y0073520D01*
X0260646Y0073600D02*
X0265701Y0073600D01*
X0265701Y0076000D02*
X0261688Y0076000D01*
X0262105Y0078400D02*
X0265701Y0078400D01*
X0265701Y0080800D02*
X0261978Y0080800D01*
X0261273Y0083200D02*
X0265701Y0083200D01*
X0265701Y0085600D02*
X0259800Y0085600D01*
X0260600Y0084365D02*
X0260600Y0103835D01*
X0261157Y0104800D02*
X0265701Y0104800D01*
X0265701Y0107200D02*
X0261925Y0107200D01*
X0262105Y0107874D02*
X0261390Y0105202D01*
X0260006Y0102807D01*
X0258051Y0100851D01*
X0255655Y0099468D01*
X0252983Y0098752D01*
X0250217Y0098752D01*
X0247545Y0099468D01*
X0245149Y0100851D01*
X0243193Y0102807D01*
X0241810Y0105202D01*
X0241094Y0107874D01*
X0241094Y0110641D01*
X0241810Y0113312D01*
X0243193Y0115708D01*
X0245149Y0117664D01*
X0247545Y0119047D01*
X0250217Y0119763D01*
X0252983Y0119763D01*
X0255655Y0119047D01*
X0258051Y0117664D01*
X0260006Y0115708D01*
X0261390Y0113312D01*
X0262105Y0110641D01*
X0262105Y0107874D01*
X0262105Y0109600D02*
X0265701Y0109600D01*
X0265701Y0112000D02*
X0261741Y0112000D01*
X0260762Y0114400D02*
X0265701Y0114400D01*
X0265701Y0116800D02*
X0258915Y0116800D01*
X0258200Y0117515D02*
X0258200Y0145685D01*
X0258115Y0145600D02*
X0265701Y0145600D01*
X0265701Y0143200D02*
X0245500Y0143200D01*
X0246200Y0144930D02*
X0246200Y0118271D01*
X0248116Y0119200D02*
X0239500Y0119200D01*
X0239000Y0120407D02*
X0239000Y0133200D01*
X0241242Y0133600D02*
X0265701Y0133600D01*
X0265701Y0131200D02*
X0231000Y0131200D01*
X0231800Y0132992D02*
X0231800Y0122086D01*
X0231258Y0121600D02*
X0231000Y0121600D01*
X0231000Y0124000D02*
X0265701Y0124000D01*
X0265701Y0121600D02*
X0237927Y0121600D01*
X0236600Y0122411D02*
X0236600Y0133200D01*
X0234200Y0133200D02*
X0234200Y0122822D01*
X0231000Y0126400D02*
X0265701Y0126400D01*
X0265701Y0128800D02*
X0231000Y0128800D01*
X0241400Y0133665D02*
X0241400Y0111781D01*
X0241459Y0112000D02*
X0231000Y0112000D01*
X0231800Y0113358D02*
X0231800Y0109939D01*
X0231351Y0109600D02*
X0231000Y0109600D01*
X0234208Y0109600D02*
X0234976Y0109600D01*
X0234976Y0110811D02*
X0234976Y0106295D01*
X0239492Y0106295D01*
X0239492Y0106297D01*
X0239371Y0107058D01*
X0239133Y0107792D01*
X0238783Y0108479D01*
X0238330Y0109103D01*
X0237784Y0109649D01*
X0237160Y0110102D01*
X0236473Y0110452D01*
X0235740Y0110690D01*
X0234978Y0110811D01*
X0234976Y0110811D01*
X0234200Y0110810D02*
X0234200Y0112622D01*
X0236600Y0113034D02*
X0236600Y0110387D01*
X0237833Y0109600D02*
X0241094Y0109600D01*
X0241275Y0107200D02*
X0239325Y0107200D01*
X0239000Y0108053D02*
X0239000Y0115037D01*
X0238483Y0114400D02*
X0242438Y0114400D01*
X0243800Y0116315D02*
X0243800Y0135992D01*
X0243808Y0136000D02*
X0265701Y0136000D01*
X0265701Y0138400D02*
X0245490Y0138400D01*
X0245500Y0140800D02*
X0265701Y0140800D01*
X0265701Y0148000D02*
X0260300Y0148000D01*
X0260600Y0148520D02*
X0260600Y0114680D01*
X0255800Y0118963D02*
X0255800Y0144237D01*
X0253400Y0143549D02*
X0253400Y0119651D01*
X0255084Y0119200D02*
X0265701Y0119200D01*
X0251000Y0119763D02*
X0251000Y0143437D01*
X0248600Y0143870D02*
X0248600Y0119330D01*
X0244285Y0116800D02*
X0239692Y0116800D01*
X0241400Y0106734D02*
X0241400Y0081466D01*
X0241222Y0080800D02*
X0239496Y0080800D01*
X0239000Y0079604D02*
X0239000Y0073163D01*
X0238683Y0073600D02*
X0242554Y0073600D01*
X0243800Y0071885D02*
X0243800Y0041500D01*
X0251000Y0044200D02*
X0251000Y0044200D01*
X0251730Y0044800D02*
X0265701Y0044800D01*
X0265701Y0056800D02*
X0227000Y0056800D01*
X0227000Y0059200D02*
X0265701Y0059200D01*
X0265701Y0061600D02*
X0227000Y0061600D01*
X0227000Y0064000D02*
X0265701Y0064000D01*
X0265701Y0071200D02*
X0258715Y0071200D01*
X0244485Y0071200D02*
X0239692Y0071200D01*
X0236600Y0075166D02*
X0236600Y0077600D01*
X0237916Y0078400D02*
X0241094Y0078400D01*
X0234200Y0077189D02*
X0234200Y0075578D01*
X0231800Y0074842D02*
X0231800Y0077925D01*
X0231269Y0078400D02*
X0225000Y0078400D01*
X0225000Y0080800D02*
X0228092Y0080800D01*
X0229400Y0079492D02*
X0229400Y0073878D01*
X0224600Y0065600D02*
X0217600Y0072600D01*
X0143600Y0072600D01*
X0121100Y0050100D01*
X0105100Y0050100D01*
X0103600Y0048600D01*
X0103600Y0031600D01*
X0090600Y0040600D02*
X0083100Y0033100D01*
X0083100Y0023100D01*
X0078064Y0018064D01*
X0066200Y0017664D02*
X0066200Y0018464D01*
X0063800Y0018464D02*
X0063800Y0017664D01*
X0063305Y0020800D02*
X0031539Y0020800D01*
X0031550Y0018804D02*
X0030796Y0016985D01*
X0029404Y0015593D01*
X0027585Y0014839D01*
X0025615Y0014839D01*
X0023796Y0015593D01*
X0022404Y0016985D01*
X0021650Y0018804D01*
X0021650Y0020774D01*
X0022404Y0022593D01*
X0023537Y0023726D01*
X0022404Y0024859D01*
X0021650Y0026678D01*
X0021650Y0028648D01*
X0022404Y0030467D01*
X0023537Y0031600D01*
X0022404Y0032733D01*
X0021650Y0034552D01*
X0021650Y0036522D01*
X0022404Y0038341D01*
X0023537Y0039474D01*
X0022404Y0040607D01*
X0021650Y0042426D01*
X0021650Y0044396D01*
X0021661Y0042400D02*
X0006200Y0042400D01*
X0006200Y0040000D02*
X0023011Y0040000D01*
X0023000Y0040011D02*
X0023000Y0038937D01*
X0022097Y0037600D02*
X0006200Y0037600D01*
X0006200Y0035200D02*
X0021650Y0035200D01*
X0022376Y0032800D02*
X0006200Y0032800D01*
X0006200Y0030400D02*
X0022376Y0030400D01*
X0023000Y0031063D02*
X0023000Y0032137D01*
X0021650Y0028000D02*
X0006200Y0028000D01*
X0006200Y0025600D02*
X0022097Y0025600D01*
X0023000Y0024263D02*
X0023000Y0023189D01*
X0023011Y0023200D02*
X0006200Y0023200D01*
X0006200Y0020800D02*
X0021661Y0020800D01*
X0021818Y0018400D02*
X0006200Y0018400D01*
X0008600Y0006200D02*
X0008600Y0206961D01*
X0015800Y0206961D02*
X0015800Y0198012D01*
X0016188Y0198400D02*
X0006200Y0198400D01*
X0006200Y0196000D02*
X0014000Y0196000D01*
X0014000Y0196212D02*
X0014000Y0191988D01*
X0016888Y0189100D01*
X0014000Y0186212D01*
X0014000Y0181988D01*
X0016988Y0179000D01*
X0016788Y0179200D02*
X0006200Y0179200D01*
X0006200Y0181600D02*
X0014388Y0181600D01*
X0015800Y0180188D02*
X0015800Y0174480D01*
X0020600Y0172506D02*
X0020600Y0179000D01*
X0021412Y0179200D02*
X0049157Y0179200D01*
X0047000Y0181500D02*
X0047000Y0162900D01*
X0044600Y0162900D02*
X0044600Y0181500D01*
X0042200Y0181500D02*
X0042200Y0162900D01*
X0039800Y0162900D02*
X0039800Y0181500D01*
X0037400Y0181500D02*
X0037400Y0162900D01*
X0035000Y0162900D02*
X0035000Y0181500D01*
X0035000Y0186700D02*
X0035000Y0206961D01*
X0032600Y0206961D02*
X0032600Y0186700D01*
X0030200Y0186700D02*
X0030200Y0206961D01*
X0027800Y0206961D02*
X0027800Y0186700D01*
X0025400Y0186700D02*
X0025400Y0206961D01*
X0023000Y0206961D02*
X0023000Y0197412D01*
X0024200Y0196000D02*
X0060823Y0196000D01*
X0061400Y0196577D02*
X0061400Y0206961D01*
X0059000Y0206961D02*
X0059000Y0194177D01*
X0058423Y0193600D02*
X0024200Y0193600D01*
X0023412Y0191200D02*
X0056023Y0191200D01*
X0056600Y0191777D02*
X0056600Y0206961D01*
X0054200Y0206961D02*
X0054200Y0189377D01*
X0053623Y0188800D02*
X0021612Y0188800D01*
X0023000Y0187412D02*
X0023000Y0190788D01*
X0016588Y0188800D02*
X0006200Y0188800D01*
X0006200Y0186400D02*
X0014188Y0186400D01*
X0015800Y0188012D02*
X0015800Y0190188D01*
X0014788Y0191200D02*
X0006200Y0191200D01*
X0006200Y0193600D02*
X0014000Y0193600D01*
X0014000Y0196212D02*
X0016988Y0199200D01*
X0021212Y0199200D01*
X0020600Y0199200D02*
X0020600Y0206961D01*
X0018200Y0206961D02*
X0018200Y0199200D01*
X0014000Y0184000D02*
X0006200Y0184000D01*
X0023000Y0180788D02*
X0023000Y0137965D01*
X0022977Y0137942D02*
X0022538Y0137337D01*
X0022198Y0136671D01*
X0021967Y0135960D01*
X0021850Y0135222D01*
X0021850Y0134937D01*
X0026511Y0134937D01*
X0026511Y0139598D01*
X0026226Y0139598D01*
X0025488Y0139481D01*
X0024777Y0139250D01*
X0024111Y0138910D01*
X0023506Y0138471D01*
X0022977Y0137942D01*
X0023435Y0138400D02*
X0006200Y0138400D01*
X0006200Y0136000D02*
X0021980Y0136000D01*
X0023000Y0134937D02*
X0023000Y0134759D01*
X0022011Y0133600D02*
X0006200Y0133600D01*
X0006200Y0131200D02*
X0023541Y0131200D01*
X0023000Y0131731D02*
X0023000Y0130374D01*
X0021999Y0128800D02*
X0006200Y0128800D01*
X0006200Y0126400D02*
X0021650Y0126400D01*
X0022574Y0124000D02*
X0006200Y0124000D01*
X0006200Y0121600D02*
X0022278Y0121600D01*
X0023000Y0122500D02*
X0023000Y0123574D01*
X0021650Y0119200D02*
X0006200Y0119200D01*
X0006200Y0116800D02*
X0022195Y0116800D01*
X0026600Y0111226D02*
X0032474Y0111226D01*
X0035100Y0108600D01*
X0035100Y0088600D01*
X0045600Y0078100D01*
X0047000Y0075120D02*
X0047000Y0065594D01*
X0046194Y0066400D02*
X0050506Y0066400D01*
X0049400Y0065500D02*
X0049400Y0078371D01*
X0049469Y0078400D02*
X0062506Y0078400D01*
X0061400Y0077294D02*
X0061400Y0130300D01*
X0059000Y0130300D02*
X0059000Y0074894D01*
X0060106Y0076000D02*
X0048151Y0076000D01*
X0033100Y0067033D02*
X0026600Y0067033D01*
X0027800Y0066944D02*
X0027800Y0067122D01*
X0018200Y0066400D02*
X0006200Y0066400D01*
X0006200Y0064000D02*
X0018200Y0064000D01*
X0018200Y0061600D02*
X0006200Y0061600D01*
X0006200Y0059200D02*
X0018200Y0059200D01*
X0018200Y0056800D02*
X0006200Y0056800D01*
X0006200Y0054400D02*
X0018200Y0054400D01*
X0031539Y0042400D02*
X0053700Y0042400D01*
X0053700Y0040000D02*
X0030189Y0040000D01*
X0030200Y0040011D02*
X0030200Y0038937D01*
X0031103Y0037600D02*
X0053700Y0037600D01*
X0053700Y0035200D02*
X0031550Y0035200D01*
X0030200Y0024263D02*
X0030200Y0023189D01*
X0030189Y0023200D02*
X0065151Y0023200D01*
X0063800Y0024551D02*
X0063800Y0021295D01*
X0062636Y0028064D02*
X0056100Y0034600D01*
X0056100Y0045100D01*
X0067100Y0056100D01*
X0070100Y0056100D01*
X0068990Y0059200D02*
X0046500Y0059200D01*
X0046704Y0047200D02*
X0054806Y0047200D01*
X0059194Y0044800D02*
X0075664Y0044800D01*
X0075664Y0047200D02*
X0061594Y0047200D01*
X0061400Y0047006D02*
X0061400Y0032694D01*
X0061294Y0032800D02*
X0065022Y0032800D01*
X0066200Y0033564D02*
X0066200Y0051806D01*
X0066394Y0052000D02*
X0075664Y0052000D01*
X0075664Y0054400D02*
X0072956Y0054400D01*
X0073370Y0056800D02*
X0075664Y0056800D01*
X0078064Y0059064D02*
X0096100Y0077100D01*
X0099121Y0078400D02*
X0111406Y0078400D01*
X0111800Y0078006D02*
X0111800Y0063294D01*
X0111094Y0064000D02*
X0131606Y0064000D01*
X0131000Y0063394D02*
X0131000Y0077200D01*
X0128600Y0077200D02*
X0128600Y0060994D01*
X0129206Y0061600D02*
X0114452Y0061600D01*
X0114200Y0061704D02*
X0114200Y0077200D01*
X0116600Y0077200D02*
X0116600Y0059389D01*
X0118210Y0059200D02*
X0126806Y0059200D01*
X0126200Y0058594D02*
X0126200Y0077200D01*
X0123800Y0077200D02*
X0123800Y0056194D01*
X0124406Y0056800D02*
X0120370Y0056800D01*
X0119956Y0054400D02*
X0122006Y0054400D01*
X0121400Y0053794D02*
X0121400Y0077200D01*
X0119000Y0077200D02*
X0119000Y0058851D01*
X0117100Y0056100D02*
X0114100Y0053100D01*
X0096600Y0053100D01*
X0090600Y0059100D01*
X0090600Y0040600D01*
X0084600Y0040600D02*
X0084600Y0059600D01*
X0091600Y0066600D01*
X0093600Y0066600D01*
X0092600Y0069746D02*
X0092600Y0070206D01*
X0093594Y0071200D02*
X0138806Y0071200D01*
X0138200Y0070594D02*
X0138200Y0077200D01*
X0140600Y0077200D02*
X0140600Y0072994D01*
X0140600Y0082000D02*
X0140600Y0109700D01*
X0138200Y0109700D02*
X0138200Y0094997D01*
X0137710Y0095200D02*
X0218200Y0095200D01*
X0218200Y0097600D02*
X0114000Y0097600D01*
X0114200Y0098549D02*
X0114200Y0095894D01*
X0114894Y0095200D02*
X0135490Y0095200D01*
X0135800Y0095329D02*
X0135800Y0109700D01*
X0133400Y0109700D02*
X0133400Y0094500D01*
X0131000Y0094500D02*
X0131000Y0109700D01*
X0128600Y0109700D02*
X0128600Y0094500D01*
X0126200Y0094500D02*
X0126200Y0109700D01*
X0123800Y0109700D02*
X0123800Y0094500D01*
X0121400Y0094500D02*
X0121400Y0109700D01*
X0119000Y0109700D02*
X0119000Y0094500D01*
X0116600Y0094500D02*
X0116600Y0109700D01*
X0114200Y0109700D02*
X0114200Y0102651D01*
X0114414Y0102400D02*
X0218200Y0102400D01*
X0218200Y0104800D02*
X0087194Y0104800D01*
X0087800Y0105406D02*
X0087800Y0086294D01*
X0088494Y0085600D02*
X0204200Y0085600D01*
X0203703Y0088000D02*
X0086094Y0088000D01*
X0085400Y0088694D02*
X0085400Y0103006D01*
X0084794Y0102400D02*
X0093786Y0102400D01*
X0095000Y0103497D02*
X0095000Y0109700D01*
X0092600Y0109700D02*
X0092600Y0083500D01*
X0090200Y0083894D02*
X0090200Y0107806D01*
X0089594Y0107200D02*
X0218200Y0107200D01*
X0218200Y0109600D02*
X0091994Y0109600D01*
X0092100Y0109600D02*
X0088600Y0106100D01*
X0088600Y0096600D01*
X0101600Y0083600D01*
X0114600Y0083600D01*
X0114200Y0082394D02*
X0114200Y0089700D01*
X0112906Y0090400D02*
X0083694Y0090400D01*
X0083000Y0092193D02*
X0083000Y0100606D01*
X0082394Y0100000D02*
X0093311Y0100000D01*
X0096600Y0100600D02*
X0111600Y0100600D01*
X0111600Y0095100D01*
X0114600Y0092100D01*
X0136600Y0092100D01*
X0139456Y0090400D02*
X0203371Y0090400D01*
X0205731Y0092800D02*
X0139870Y0092800D01*
X0138200Y0089203D02*
X0138200Y0082000D01*
X0135800Y0082000D02*
X0135800Y0088871D01*
X0133400Y0089700D02*
X0133400Y0082000D01*
X0131000Y0082000D02*
X0131000Y0089700D01*
X0128600Y0089700D02*
X0128600Y0082000D01*
X0126200Y0082000D02*
X0126200Y0089700D01*
X0123800Y0089700D02*
X0123800Y0082000D01*
X0121400Y0082000D02*
X0121400Y0089700D01*
X0119000Y0089700D02*
X0119000Y0082000D01*
X0116600Y0082000D02*
X0116600Y0089700D01*
X0114889Y0100000D02*
X0218200Y0100000D01*
X0231000Y0100000D02*
X0246623Y0100000D01*
X0246200Y0100244D02*
X0246200Y0087956D01*
X0246277Y0088000D02*
X0231000Y0088000D01*
X0231800Y0086708D02*
X0231800Y0089736D01*
X0231080Y0090400D02*
X0231000Y0090400D01*
X0234200Y0089000D02*
X0234200Y0087389D01*
X0236600Y0086977D02*
X0236600Y0089411D01*
X0238105Y0090400D02*
X0265701Y0090400D01*
X0265701Y0088000D02*
X0256923Y0088000D01*
X0255800Y0088648D02*
X0255800Y0099552D01*
X0256577Y0100000D02*
X0265701Y0100000D01*
X0265701Y0097600D02*
X0238305Y0097600D01*
X0239000Y0096785D02*
X0239000Y0103769D01*
X0239377Y0104800D02*
X0242043Y0104800D01*
X0243600Y0102400D02*
X0238011Y0102400D01*
X0236600Y0101435D02*
X0236600Y0098788D01*
X0234200Y0099200D02*
X0234200Y0101012D01*
X0234208Y0102400D02*
X0234976Y0102400D01*
X0234976Y0104800D02*
X0234208Y0104800D01*
X0234208Y0107200D02*
X0234976Y0107200D01*
X0236600Y0106295D02*
X0236600Y0105527D01*
X0239000Y0105527D02*
X0239000Y0106295D01*
X0243800Y0102200D02*
X0243800Y0086000D01*
X0243400Y0085600D02*
X0238494Y0085600D01*
X0239000Y0084974D02*
X0239000Y0091415D01*
X0239574Y0092800D02*
X0265701Y0092800D01*
X0265701Y0095200D02*
X0239657Y0095200D01*
X0231800Y0098464D02*
X0231800Y0101883D01*
X0231173Y0102400D02*
X0231000Y0102400D01*
X0218200Y0112000D02*
X0143894Y0112000D01*
X0143000Y0111106D02*
X0143000Y0082000D01*
X0145400Y0082000D02*
X0145400Y0113506D01*
X0146294Y0114400D02*
X0218200Y0114400D01*
X0214100Y0118600D02*
X0216100Y0120600D01*
X0216100Y0127100D01*
X0212600Y0130600D01*
X0217794Y0128800D02*
X0218200Y0128800D01*
X0203600Y0110600D02*
X0202600Y0109600D01*
X0185600Y0109600D01*
X0184100Y0108100D01*
X0182600Y0109600D01*
X0184100Y0109600D01*
X0184100Y0108100D01*
X0184100Y0102100D01*
X0184100Y0109600D02*
X0185600Y0109600D01*
X0182600Y0109600D02*
X0152100Y0109600D01*
X0151600Y0109600D01*
X0149600Y0111600D01*
X0147600Y0109600D01*
X0149600Y0109600D01*
X0149600Y0111600D01*
X0149600Y0114100D01*
X0147800Y0115906D02*
X0147800Y0082000D01*
X0169400Y0070200D02*
X0169400Y0069356D01*
X0169956Y0068800D02*
X0208047Y0068800D01*
X0207800Y0068553D02*
X0207800Y0070200D01*
X0205400Y0070200D02*
X0205400Y0006200D01*
X0203000Y0006200D02*
X0203000Y0070200D01*
X0200600Y0070200D02*
X0200600Y0006200D01*
X0198200Y0006200D02*
X0198200Y0070200D01*
X0195800Y0070200D02*
X0195800Y0006200D01*
X0193400Y0006200D02*
X0193400Y0070200D01*
X0191000Y0070200D02*
X0191000Y0006200D01*
X0188600Y0006200D02*
X0188600Y0070200D01*
X0186200Y0070200D02*
X0186200Y0006200D01*
X0183800Y0006200D02*
X0183800Y0070200D01*
X0181400Y0070200D02*
X0181400Y0006200D01*
X0179000Y0006200D02*
X0179000Y0070200D01*
X0176600Y0070200D02*
X0176600Y0006200D01*
X0174200Y0006200D02*
X0174200Y0070200D01*
X0171800Y0070200D02*
X0171800Y0006200D01*
X0171359Y0016000D02*
X0206645Y0016000D01*
X0206524Y0018400D02*
X0171480Y0018400D01*
X0170617Y0020800D02*
X0207386Y0020800D01*
X0207800Y0021309D02*
X0207800Y0060947D01*
X0207326Y0061600D02*
X0170677Y0061600D01*
X0169400Y0060143D02*
X0169400Y0022112D01*
X0167572Y0023200D02*
X0210431Y0023200D01*
X0210200Y0023104D02*
X0210200Y0059151D01*
X0210081Y0059200D02*
X0167922Y0059200D01*
X0167000Y0058818D02*
X0167000Y0023437D01*
X0164600Y0023605D02*
X0164600Y0058650D01*
X0157400Y0062150D02*
X0157400Y0047228D01*
X0156226Y0047200D02*
X0127877Y0047200D01*
X0128600Y0047923D02*
X0128600Y0044251D01*
X0127469Y0044800D02*
X0152551Y0044800D01*
X0152600Y0044849D02*
X0152600Y0062150D01*
X0155000Y0062150D02*
X0155000Y0046692D01*
X0151430Y0042400D02*
X0129829Y0042400D01*
X0129497Y0040000D02*
X0151406Y0040000D01*
X0152406Y0037600D02*
X0129000Y0037600D01*
X0129000Y0035200D02*
X0155876Y0035200D01*
X0155000Y0035563D02*
X0155000Y0006200D01*
X0152600Y0006200D02*
X0152600Y0015429D01*
X0152962Y0016000D02*
X0159401Y0016000D01*
X0159800Y0015036D02*
X0159800Y0006200D01*
X0157400Y0006200D02*
X0157400Y0035028D01*
X0152600Y0037406D02*
X0152600Y0019582D01*
X0153215Y0018400D02*
X0159280Y0018400D01*
X0150200Y0020794D02*
X0150200Y0062150D01*
X0171480Y0064000D02*
X0206524Y0064000D01*
X0206705Y0066400D02*
X0171298Y0066400D01*
X0212600Y0058650D02*
X0212600Y0023605D01*
X0207800Y0013702D02*
X0207800Y0006200D01*
X0247994Y0030400D02*
X0129000Y0030400D01*
X0129000Y0032800D02*
X0265701Y0032800D01*
X0265701Y0025600D02*
X0257700Y0025600D01*
X0251000Y0031480D02*
X0251000Y0034000D01*
X0248600Y0034000D02*
X0248600Y0030739D01*
X0257374Y0013600D02*
X0265701Y0013600D01*
X0265701Y0011200D02*
X0257700Y0011200D01*
X0257043Y0008800D02*
X0265701Y0008800D01*
X0218006Y0068800D02*
X0217200Y0068800D01*
X0217400Y0068600D02*
X0217400Y0069406D01*
X0239692Y0083200D02*
X0241927Y0083200D01*
X0248600Y0089015D02*
X0248600Y0099185D01*
X0251000Y0098752D02*
X0251000Y0089448D01*
X0253400Y0089336D02*
X0253400Y0098864D01*
X0258200Y0101000D02*
X0258200Y0087200D01*
X0259600Y0102400D02*
X0265701Y0102400D01*
X0265701Y0150400D02*
X0261527Y0150400D01*
X0262105Y0152800D02*
X0265701Y0152800D01*
X0265701Y0155200D02*
X0262105Y0155200D01*
X0261496Y0157600D02*
X0265701Y0157600D01*
X0265701Y0160000D02*
X0260233Y0160000D01*
X0260600Y0159365D02*
X0260600Y0178835D01*
X0260811Y0179200D02*
X0265701Y0179200D01*
X0265701Y0181600D02*
X0261764Y0181600D01*
X0262105Y0184000D02*
X0265701Y0184000D01*
X0265701Y0186400D02*
X0261902Y0186400D01*
X0261108Y0188800D02*
X0265701Y0188800D01*
X0265701Y0191200D02*
X0259515Y0191200D01*
X0258200Y0192515D02*
X0258200Y0206961D01*
X0260600Y0206961D02*
X0260600Y0189680D01*
X0259000Y0176800D02*
X0265701Y0176800D01*
X0265701Y0174400D02*
X0255402Y0174400D01*
X0255800Y0174552D02*
X0255800Y0163648D01*
X0257962Y0162400D02*
X0265701Y0162400D01*
X0265701Y0164800D02*
X0237505Y0164800D01*
X0236600Y0164411D02*
X0236600Y0161977D01*
X0234200Y0162389D02*
X0234200Y0164000D01*
X0239000Y0166415D02*
X0239000Y0161000D01*
X0239325Y0167200D02*
X0265701Y0167200D01*
X0258200Y0162200D02*
X0258200Y0176000D01*
X0253400Y0173864D02*
X0253400Y0164336D01*
X0251000Y0164448D02*
X0251000Y0173752D01*
X0248600Y0174185D02*
X0248600Y0164015D01*
X0238700Y0152800D02*
X0237082Y0152800D01*
X0236600Y0152600D02*
X0236600Y0150166D01*
X0236036Y0150400D02*
X0238700Y0150400D01*
X0231800Y0149842D02*
X0231800Y0152925D01*
X0217000Y0160000D02*
X0216200Y0160000D01*
X0217400Y0161200D02*
X0217400Y0162000D01*
X0213105Y0157600D02*
X0213000Y0157600D01*
X0234200Y0174200D02*
X0234200Y0176012D01*
X0234208Y0176800D02*
X0234976Y0176800D01*
X0181400Y0181500D02*
X0181400Y0206961D01*
X0179000Y0206961D02*
X0179000Y0181500D01*
X0176600Y0181500D02*
X0176600Y0206961D01*
X0174200Y0206961D02*
X0174200Y0181500D01*
X0171800Y0181500D02*
X0171800Y0206961D01*
X0169400Y0206961D02*
X0169400Y0181500D01*
X0167000Y0181500D02*
X0167000Y0206961D01*
X0164600Y0206961D02*
X0164600Y0181500D01*
X0162200Y0181500D02*
X0162200Y0206961D01*
X0159800Y0206961D02*
X0159800Y0181500D01*
X0157400Y0181500D02*
X0157400Y0206961D01*
X0155000Y0206961D02*
X0155000Y0181500D01*
X0152600Y0181500D02*
X0152600Y0206961D01*
X0150200Y0206961D02*
X0150200Y0181500D01*
X0147800Y0181500D02*
X0147800Y0206961D01*
X0145400Y0206961D02*
X0145400Y0181500D01*
X0143000Y0181500D02*
X0143000Y0206961D01*
X0140600Y0206961D02*
X0140600Y0181500D01*
X0138200Y0181500D02*
X0138200Y0206961D01*
X0135800Y0206961D02*
X0135800Y0181500D01*
X0133400Y0181500D02*
X0133400Y0206961D01*
X0131000Y0206961D02*
X0131000Y0181500D01*
X0128600Y0181500D02*
X0128600Y0206961D01*
X0126200Y0206961D02*
X0126200Y0181500D01*
X0123800Y0181500D02*
X0123800Y0206961D01*
X0121400Y0206961D02*
X0121400Y0181500D01*
X0119000Y0181500D02*
X0119000Y0206961D01*
X0111800Y0206961D02*
X0111800Y0204381D01*
X0090200Y0188700D02*
X0090200Y0144900D01*
X0088300Y0143200D02*
X0069900Y0143200D01*
X0069900Y0140800D02*
X0088300Y0140800D01*
X0088300Y0138400D02*
X0069900Y0138400D01*
X0069900Y0136000D02*
X0088300Y0136000D01*
X0088300Y0133600D02*
X0069900Y0133600D01*
X0069746Y0131200D02*
X0088300Y0131200D01*
X0088300Y0126400D02*
X0087935Y0126400D01*
X0083000Y0124710D02*
X0083000Y0188700D01*
X0102200Y0177692D02*
X0102200Y0144900D01*
X0068600Y0130300D02*
X0068600Y0084389D01*
X0068600Y0077706D02*
X0068600Y0059039D01*
X0063800Y0056194D02*
X0063800Y0072906D01*
X0064494Y0073600D02*
X0089206Y0073600D01*
X0090200Y0074594D02*
X0090200Y0078700D01*
X0089600Y0081100D02*
X0080100Y0090600D01*
X0073400Y0092149D02*
X0073400Y0031178D01*
X0075022Y0032800D02*
X0071107Y0032800D01*
X0071000Y0032907D02*
X0071000Y0052913D01*
X0068600Y0053161D02*
X0068600Y0033564D01*
X0063800Y0031578D02*
X0063800Y0049406D01*
X0063994Y0049600D02*
X0075664Y0049600D01*
X0075664Y0042400D02*
X0058500Y0042400D01*
X0059000Y0044606D02*
X0059000Y0035094D01*
X0058894Y0035200D02*
X0075664Y0035200D01*
X0075664Y0037600D02*
X0058500Y0037600D01*
X0058500Y0040000D02*
X0075664Y0040000D01*
X0078064Y0028064D02*
X0078064Y0059064D01*
X0094600Y0059600D02*
X0098600Y0055600D01*
X0109100Y0055600D01*
X0109600Y0056100D01*
X0113100Y0058600D02*
X0109600Y0062100D01*
X0103100Y0062100D01*
X0101100Y0064100D01*
X0098100Y0064100D01*
X0099100Y0060100D02*
X0100600Y0058600D01*
X0106100Y0058600D01*
X0107000Y0064500D02*
X0107000Y0078700D01*
X0104600Y0078700D02*
X0104600Y0064500D01*
X0109400Y0064500D02*
X0109400Y0078700D01*
X0104600Y0083500D02*
X0104600Y0098200D01*
X0102200Y0098200D02*
X0102200Y0083500D01*
X0099800Y0083500D02*
X0099800Y0098200D01*
X0099800Y0103000D02*
X0099800Y0109700D01*
X0097400Y0109700D02*
X0097400Y0103829D01*
X0102200Y0103000D02*
X0102200Y0109700D01*
X0104600Y0109700D02*
X0104600Y0103000D01*
X0107000Y0103000D02*
X0107000Y0109700D01*
X0109400Y0109700D02*
X0109400Y0103051D01*
X0111800Y0103889D02*
X0111800Y0109700D01*
X0092100Y0109600D02*
X0147600Y0109600D01*
X0149600Y0109600D02*
X0151600Y0109600D01*
X0139600Y0114600D02*
X0090600Y0114600D01*
X0087800Y0114006D02*
X0087800Y0112194D01*
X0087606Y0112000D02*
X0040000Y0112000D01*
X0040000Y0109600D02*
X0085206Y0109600D01*
X0085400Y0109794D02*
X0085400Y0116406D01*
X0087406Y0114400D02*
X0040000Y0114400D01*
X0027800Y0098492D02*
X0027800Y0083000D01*
X0025400Y0083000D02*
X0025400Y0098492D01*
X0023000Y0099952D02*
X0023000Y0083000D01*
X0018200Y0076000D02*
X0006200Y0076000D01*
X0006200Y0073600D02*
X0018200Y0073600D01*
X0018200Y0071200D02*
X0006200Y0071200D01*
X0006200Y0068800D02*
X0018200Y0068800D01*
X0006200Y0088000D02*
X0032751Y0088000D01*
X0032700Y0090400D02*
X0006200Y0090400D01*
X0006200Y0092800D02*
X0032700Y0092800D01*
X0032700Y0095200D02*
X0006200Y0095200D01*
X0031189Y0133600D02*
X0033800Y0133600D01*
X0033800Y0136000D02*
X0031220Y0136000D01*
X0030200Y0134937D02*
X0030200Y0134759D01*
X0027800Y0134759D02*
X0027800Y0134937D01*
X0026689Y0136000D02*
X0026511Y0136000D01*
X0025400Y0134937D02*
X0025400Y0134759D01*
X0026511Y0138400D02*
X0026689Y0138400D01*
X0027800Y0139452D02*
X0027800Y0181500D01*
X0025400Y0181500D02*
X0025400Y0139452D01*
X0013400Y0149354D02*
X0013400Y0006200D01*
X0011000Y0006200D02*
X0011000Y0151613D01*
X0010481Y0152800D02*
X0006200Y0152800D01*
X0006200Y0150400D02*
X0011956Y0150400D01*
X0011000Y0154216D02*
X0011000Y0154984D01*
X0010221Y0155200D02*
X0006200Y0155200D01*
X0006200Y0157600D02*
X0011007Y0157600D01*
X0011000Y0157587D02*
X0011000Y0164853D01*
X0015716Y0160000D02*
X0016484Y0160000D01*
X0016484Y0160500D02*
X0016484Y0154984D01*
X0022000Y0154984D01*
X0022000Y0155064D01*
X0021855Y0155982D01*
X0021568Y0156865D01*
X0021146Y0157692D01*
X0020600Y0158444D01*
X0020600Y0164253D01*
X0021147Y0164800D02*
X0049157Y0164800D01*
X0049157Y0167200D02*
X0022200Y0167200D01*
X0022197Y0169600D02*
X0049157Y0169600D01*
X0049157Y0172000D02*
X0021106Y0172000D01*
X0018200Y0162647D02*
X0018200Y0160121D01*
X0018365Y0160068D02*
X0017482Y0160355D01*
X0016564Y0160500D01*
X0016484Y0160500D01*
X0018365Y0160068D02*
X0019192Y0159646D01*
X0019944Y0159100D01*
X0020600Y0158444D01*
X0021193Y0157600D02*
X0033800Y0157600D01*
X0033800Y0155200D02*
X0021979Y0155200D01*
X0020600Y0154984D02*
X0020600Y0154216D01*
X0021719Y0152800D02*
X0033800Y0152800D01*
X0033800Y0160000D02*
X0018498Y0160000D01*
X0017604Y0162400D02*
X0034354Y0162400D01*
X0018200Y0154984D02*
X0018200Y0154216D01*
X0016484Y0155200D02*
X0015716Y0155200D01*
X0013400Y0154984D02*
X0013400Y0154216D01*
X0015716Y0157600D02*
X0016484Y0157600D01*
X0037400Y0186700D02*
X0037400Y0206961D01*
X0039800Y0206961D02*
X0039800Y0186700D01*
X0042200Y0186700D02*
X0042200Y0206961D01*
X0044600Y0206961D02*
X0044600Y0186700D01*
X0047000Y0186700D02*
X0047000Y0206961D01*
X0049400Y0206961D02*
X0049400Y0186700D01*
X0051800Y0186977D02*
X0051800Y0206961D01*
X0056600Y0184423D02*
X0056600Y0162900D01*
X0056177Y0184000D02*
X0060700Y0184000D01*
X0138200Y0126311D02*
X0138200Y0117000D01*
X0139600Y0114600D02*
X0148100Y0123100D01*
X0179000Y0172889D02*
X0179000Y0174700D01*
X0119000Y0053349D02*
X0119000Y0052500D01*
X0126200Y0045523D02*
X0126200Y0044889D01*
X0125731Y0044800D02*
X0125477Y0044800D01*
X0126600Y0041600D02*
X0126600Y0021100D01*
X0124200Y0020800D02*
X0123583Y0020800D01*
X0122573Y0019396D02*
X0122573Y0019396D01*
X0121577Y0018400D02*
X0125906Y0018400D01*
X0126200Y0018106D02*
X0126200Y0006200D01*
X0123800Y0006200D02*
X0123800Y0039765D01*
X0123703Y0040000D02*
X0123700Y0040000D01*
X0123700Y0037600D02*
X0124200Y0037600D01*
X0124200Y0035200D02*
X0123700Y0035200D01*
X0123700Y0032800D02*
X0124200Y0032800D01*
X0124200Y0030400D02*
X0123700Y0030400D01*
X0123700Y0028000D02*
X0124200Y0028000D01*
X0124200Y0025600D02*
X0123700Y0025600D01*
X0123700Y0023200D02*
X0124200Y0023200D01*
X0121400Y0018223D02*
X0121400Y0006200D01*
X0119000Y0006200D02*
X0119000Y0015845D01*
X0119177Y0016000D02*
X0128306Y0016000D01*
X0128600Y0015706D02*
X0128600Y0006200D01*
X0131000Y0006200D02*
X0131000Y0015106D01*
X0133400Y0015106D02*
X0133400Y0006200D01*
X0135800Y0006200D02*
X0135800Y0015106D01*
X0138200Y0015106D02*
X0138200Y0006200D01*
X0140600Y0006200D02*
X0140600Y0015106D01*
X0143000Y0015106D02*
X0143000Y0006200D01*
X0145400Y0006200D02*
X0145400Y0015106D01*
X0147800Y0015079D02*
X0147800Y0006200D01*
X0150200Y0006200D02*
X0150200Y0014217D01*
X0119769Y0016592D02*
X0119769Y0016592D01*
X0116600Y0015464D02*
X0116600Y0006200D01*
X0114200Y0006200D02*
X0114200Y0015464D01*
X0111800Y0015464D02*
X0111800Y0006200D01*
X0109400Y0006200D02*
X0109400Y0015464D01*
X0107000Y0015464D02*
X0107000Y0006200D01*
X0104600Y0006200D02*
X0104600Y0015464D01*
X0102200Y0015464D02*
X0102200Y0006200D01*
X0099800Y0006200D02*
X0099800Y0015464D01*
X0097400Y0015464D02*
X0097400Y0006200D01*
X0095000Y0006200D02*
X0095000Y0015464D01*
X0092600Y0014822D02*
X0092600Y0006200D01*
X0068064Y0028064D02*
X0062636Y0028064D01*
X0027800Y0014929D02*
X0027800Y0006200D01*
X0025400Y0006200D02*
X0025400Y0014929D01*
D22*
X0051600Y0024100D03*
X0056600Y0024100D03*
X0054100Y0019100D03*
X0059100Y0019100D03*
X0084600Y0040600D03*
X0103600Y0031600D03*
X0123600Y0015100D03*
X0150025Y0017506D03*
X0176600Y0029100D03*
X0181600Y0029100D03*
X0186600Y0029100D03*
X0191600Y0029100D03*
X0196600Y0029100D03*
X0201600Y0029100D03*
X0201600Y0056600D03*
X0196600Y0056600D03*
X0191600Y0056600D03*
X0186600Y0056600D03*
X0181600Y0056600D03*
X0176600Y0056600D03*
X0179100Y0084100D03*
X0179100Y0089100D03*
X0184100Y0089100D03*
X0184100Y0084100D03*
X0184100Y0094100D03*
X0179100Y0094100D03*
X0179100Y0099100D03*
X0184100Y0102100D03*
X0203600Y0110600D03*
X0212100Y0123100D03*
X0216600Y0132100D03*
X0211600Y0149100D03*
X0191600Y0169600D03*
X0191600Y0175100D03*
X0178600Y0169600D03*
X0194100Y0199100D03*
X0194100Y0204100D03*
X0246600Y0169100D03*
X0251600Y0169100D03*
X0256600Y0169100D03*
X0176600Y0129600D03*
X0161600Y0126100D03*
X0149600Y0114100D03*
X0137600Y0129600D03*
X0111600Y0100600D03*
X0096600Y0100600D03*
X0088600Y0096600D03*
X0080100Y0090600D03*
X0076100Y0094100D03*
X0069100Y0094100D03*
X0069100Y0099100D03*
X0064100Y0099100D03*
X0053100Y0086100D03*
X0048600Y0081600D03*
X0045600Y0078100D03*
X0045100Y0090100D03*
X0026600Y0091600D03*
X0026600Y0086600D03*
X0068100Y0081100D03*
X0071600Y0074100D03*
X0076600Y0071600D03*
X0076600Y0066600D03*
X0070100Y0056100D03*
X0090600Y0059100D03*
X0094600Y0059600D03*
X0099100Y0060100D03*
X0098100Y0064100D03*
X0093600Y0066600D03*
X0106100Y0058600D03*
X0109600Y0056100D03*
X0113100Y0058600D03*
X0117100Y0056100D03*
X0131350Y0054350D03*
X0126600Y0041600D03*
X0096100Y0077100D03*
X0114600Y0083600D03*
X0136600Y0092100D03*
X0086100Y0123600D03*
X0076600Y0124100D03*
X0071600Y0124100D03*
X0066600Y0124100D03*
X0061600Y0124100D03*
X0056600Y0124100D03*
X0124100Y0186600D03*
X0124100Y0191600D03*
X0124100Y0196600D03*
X0124100Y0201600D03*
X0246600Y0094100D03*
X0251600Y0094100D03*
X0256600Y0094100D03*
X0206600Y0089600D03*
X0043600Y0046100D03*
X0040100Y0050100D03*
D23*
X0094100Y0124100D03*
X0094100Y0129100D03*
X0094100Y0134100D03*
X0099100Y0134100D03*
X0099100Y0129100D03*
X0099100Y0124100D03*
X0104100Y0124100D03*
X0104100Y0129100D03*
X0104100Y0134100D03*
X0109100Y0134100D03*
X0114100Y0134100D03*
X0114100Y0129100D03*
X0109100Y0129100D03*
X0109100Y0124100D03*
X0114100Y0124100D03*
X0059100Y0136600D03*
X0059100Y0141600D03*
X0059100Y0146600D03*
X0054100Y0141600D03*
X0049100Y0141600D03*
X0049100Y0136600D03*
X0054100Y0136600D03*
X0044100Y0136600D03*
X0044100Y0141600D03*
X0044100Y0146600D03*
X0039100Y0146600D03*
X0039100Y0141600D03*
X0039100Y0136600D03*
X0039100Y0151600D03*
X0039100Y0156600D03*
X0044100Y0156600D03*
X0044100Y0151600D03*
X0049100Y0151600D03*
X0054100Y0151600D03*
X0054100Y0156600D03*
X0049100Y0156600D03*
X0059100Y0156600D03*
X0059100Y0151600D03*
D24*
X0064100Y0168100D02*
X0064100Y0184100D01*
X0072100Y0192100D01*
X0092600Y0192100D01*
X0106600Y0178100D01*
X0185100Y0178100D01*
X0194600Y0187600D01*
X0229470Y0187600D01*
X0234592Y0192722D01*
X0234903Y0157600D02*
X0234592Y0157289D01*
X0234903Y0157600D02*
X0239600Y0157600D01*
X0242100Y0155100D01*
X0242100Y0139100D01*
X0239600Y0136600D01*
X0230600Y0136600D01*
X0227600Y0133600D01*
X0227600Y0086100D01*
X0231411Y0082289D01*
X0234592Y0082289D01*
X0234592Y0070478D02*
X0226222Y0070478D01*
X0221600Y0075100D01*
X0221600Y0141100D01*
X0225978Y0145478D01*
X0234592Y0145478D01*
M02*
