G75*
%MOIN*%
%OFA0B0*%
%FSLAX25Y25*%
%IPPOS*%
%LPD*%
%AMOC8*
5,1,8,0,0,1.08239X$1,22.5*
%
%ADD10C,0.00000*%
D10*
X0001600Y0001600D02*
X0001600Y0211561D01*
X0270301Y0211561D01*
X0270301Y0001600D01*
X0001600Y0001600D01*
X0245694Y0078943D02*
X0245696Y0079096D01*
X0245702Y0079250D01*
X0245712Y0079403D01*
X0245726Y0079555D01*
X0245744Y0079708D01*
X0245766Y0079859D01*
X0245791Y0080010D01*
X0245821Y0080161D01*
X0245855Y0080311D01*
X0245892Y0080459D01*
X0245933Y0080607D01*
X0245978Y0080753D01*
X0246027Y0080899D01*
X0246080Y0081043D01*
X0246136Y0081185D01*
X0246196Y0081326D01*
X0246260Y0081466D01*
X0246327Y0081604D01*
X0246398Y0081740D01*
X0246473Y0081874D01*
X0246550Y0082006D01*
X0246632Y0082136D01*
X0246716Y0082264D01*
X0246804Y0082390D01*
X0246895Y0082513D01*
X0246989Y0082634D01*
X0247087Y0082752D01*
X0247187Y0082868D01*
X0247291Y0082981D01*
X0247397Y0083092D01*
X0247506Y0083200D01*
X0247618Y0083305D01*
X0247732Y0083406D01*
X0247850Y0083505D01*
X0247969Y0083601D01*
X0248091Y0083694D01*
X0248216Y0083783D01*
X0248343Y0083870D01*
X0248472Y0083952D01*
X0248603Y0084032D01*
X0248736Y0084108D01*
X0248871Y0084181D01*
X0249008Y0084250D01*
X0249147Y0084315D01*
X0249287Y0084377D01*
X0249429Y0084435D01*
X0249572Y0084490D01*
X0249717Y0084541D01*
X0249863Y0084588D01*
X0250010Y0084631D01*
X0250158Y0084670D01*
X0250307Y0084706D01*
X0250457Y0084737D01*
X0250608Y0084765D01*
X0250759Y0084789D01*
X0250912Y0084809D01*
X0251064Y0084825D01*
X0251217Y0084837D01*
X0251370Y0084845D01*
X0251523Y0084849D01*
X0251677Y0084849D01*
X0251830Y0084845D01*
X0251983Y0084837D01*
X0252136Y0084825D01*
X0252288Y0084809D01*
X0252441Y0084789D01*
X0252592Y0084765D01*
X0252743Y0084737D01*
X0252893Y0084706D01*
X0253042Y0084670D01*
X0253190Y0084631D01*
X0253337Y0084588D01*
X0253483Y0084541D01*
X0253628Y0084490D01*
X0253771Y0084435D01*
X0253913Y0084377D01*
X0254053Y0084315D01*
X0254192Y0084250D01*
X0254329Y0084181D01*
X0254464Y0084108D01*
X0254597Y0084032D01*
X0254728Y0083952D01*
X0254857Y0083870D01*
X0254984Y0083783D01*
X0255109Y0083694D01*
X0255231Y0083601D01*
X0255350Y0083505D01*
X0255468Y0083406D01*
X0255582Y0083305D01*
X0255694Y0083200D01*
X0255803Y0083092D01*
X0255909Y0082981D01*
X0256013Y0082868D01*
X0256113Y0082752D01*
X0256211Y0082634D01*
X0256305Y0082513D01*
X0256396Y0082390D01*
X0256484Y0082264D01*
X0256568Y0082136D01*
X0256650Y0082006D01*
X0256727Y0081874D01*
X0256802Y0081740D01*
X0256873Y0081604D01*
X0256940Y0081466D01*
X0257004Y0081326D01*
X0257064Y0081185D01*
X0257120Y0081043D01*
X0257173Y0080899D01*
X0257222Y0080753D01*
X0257267Y0080607D01*
X0257308Y0080459D01*
X0257345Y0080311D01*
X0257379Y0080161D01*
X0257409Y0080010D01*
X0257434Y0079859D01*
X0257456Y0079708D01*
X0257474Y0079555D01*
X0257488Y0079403D01*
X0257498Y0079250D01*
X0257504Y0079096D01*
X0257506Y0078943D01*
X0257504Y0078790D01*
X0257498Y0078636D01*
X0257488Y0078483D01*
X0257474Y0078331D01*
X0257456Y0078178D01*
X0257434Y0078027D01*
X0257409Y0077876D01*
X0257379Y0077725D01*
X0257345Y0077575D01*
X0257308Y0077427D01*
X0257267Y0077279D01*
X0257222Y0077133D01*
X0257173Y0076987D01*
X0257120Y0076843D01*
X0257064Y0076701D01*
X0257004Y0076560D01*
X0256940Y0076420D01*
X0256873Y0076282D01*
X0256802Y0076146D01*
X0256727Y0076012D01*
X0256650Y0075880D01*
X0256568Y0075750D01*
X0256484Y0075622D01*
X0256396Y0075496D01*
X0256305Y0075373D01*
X0256211Y0075252D01*
X0256113Y0075134D01*
X0256013Y0075018D01*
X0255909Y0074905D01*
X0255803Y0074794D01*
X0255694Y0074686D01*
X0255582Y0074581D01*
X0255468Y0074480D01*
X0255350Y0074381D01*
X0255231Y0074285D01*
X0255109Y0074192D01*
X0254984Y0074103D01*
X0254857Y0074016D01*
X0254728Y0073934D01*
X0254597Y0073854D01*
X0254464Y0073778D01*
X0254329Y0073705D01*
X0254192Y0073636D01*
X0254053Y0073571D01*
X0253913Y0073509D01*
X0253771Y0073451D01*
X0253628Y0073396D01*
X0253483Y0073345D01*
X0253337Y0073298D01*
X0253190Y0073255D01*
X0253042Y0073216D01*
X0252893Y0073180D01*
X0252743Y0073149D01*
X0252592Y0073121D01*
X0252441Y0073097D01*
X0252288Y0073077D01*
X0252136Y0073061D01*
X0251983Y0073049D01*
X0251830Y0073041D01*
X0251677Y0073037D01*
X0251523Y0073037D01*
X0251370Y0073041D01*
X0251217Y0073049D01*
X0251064Y0073061D01*
X0250912Y0073077D01*
X0250759Y0073097D01*
X0250608Y0073121D01*
X0250457Y0073149D01*
X0250307Y0073180D01*
X0250158Y0073216D01*
X0250010Y0073255D01*
X0249863Y0073298D01*
X0249717Y0073345D01*
X0249572Y0073396D01*
X0249429Y0073451D01*
X0249287Y0073509D01*
X0249147Y0073571D01*
X0249008Y0073636D01*
X0248871Y0073705D01*
X0248736Y0073778D01*
X0248603Y0073854D01*
X0248472Y0073934D01*
X0248343Y0074016D01*
X0248216Y0074103D01*
X0248091Y0074192D01*
X0247969Y0074285D01*
X0247850Y0074381D01*
X0247732Y0074480D01*
X0247618Y0074581D01*
X0247506Y0074686D01*
X0247397Y0074794D01*
X0247291Y0074905D01*
X0247187Y0075018D01*
X0247087Y0075134D01*
X0246989Y0075252D01*
X0246895Y0075373D01*
X0246804Y0075496D01*
X0246716Y0075622D01*
X0246632Y0075750D01*
X0246550Y0075880D01*
X0246473Y0076012D01*
X0246398Y0076146D01*
X0246327Y0076282D01*
X0246260Y0076420D01*
X0246196Y0076560D01*
X0246136Y0076701D01*
X0246080Y0076843D01*
X0246027Y0076987D01*
X0245978Y0077133D01*
X0245933Y0077279D01*
X0245892Y0077427D01*
X0245855Y0077575D01*
X0245821Y0077725D01*
X0245791Y0077876D01*
X0245766Y0078027D01*
X0245744Y0078178D01*
X0245726Y0078331D01*
X0245712Y0078483D01*
X0245702Y0078636D01*
X0245696Y0078790D01*
X0245694Y0078943D01*
X0245694Y0109257D02*
X0245696Y0109410D01*
X0245702Y0109564D01*
X0245712Y0109717D01*
X0245726Y0109869D01*
X0245744Y0110022D01*
X0245766Y0110173D01*
X0245791Y0110324D01*
X0245821Y0110475D01*
X0245855Y0110625D01*
X0245892Y0110773D01*
X0245933Y0110921D01*
X0245978Y0111067D01*
X0246027Y0111213D01*
X0246080Y0111357D01*
X0246136Y0111499D01*
X0246196Y0111640D01*
X0246260Y0111780D01*
X0246327Y0111918D01*
X0246398Y0112054D01*
X0246473Y0112188D01*
X0246550Y0112320D01*
X0246632Y0112450D01*
X0246716Y0112578D01*
X0246804Y0112704D01*
X0246895Y0112827D01*
X0246989Y0112948D01*
X0247087Y0113066D01*
X0247187Y0113182D01*
X0247291Y0113295D01*
X0247397Y0113406D01*
X0247506Y0113514D01*
X0247618Y0113619D01*
X0247732Y0113720D01*
X0247850Y0113819D01*
X0247969Y0113915D01*
X0248091Y0114008D01*
X0248216Y0114097D01*
X0248343Y0114184D01*
X0248472Y0114266D01*
X0248603Y0114346D01*
X0248736Y0114422D01*
X0248871Y0114495D01*
X0249008Y0114564D01*
X0249147Y0114629D01*
X0249287Y0114691D01*
X0249429Y0114749D01*
X0249572Y0114804D01*
X0249717Y0114855D01*
X0249863Y0114902D01*
X0250010Y0114945D01*
X0250158Y0114984D01*
X0250307Y0115020D01*
X0250457Y0115051D01*
X0250608Y0115079D01*
X0250759Y0115103D01*
X0250912Y0115123D01*
X0251064Y0115139D01*
X0251217Y0115151D01*
X0251370Y0115159D01*
X0251523Y0115163D01*
X0251677Y0115163D01*
X0251830Y0115159D01*
X0251983Y0115151D01*
X0252136Y0115139D01*
X0252288Y0115123D01*
X0252441Y0115103D01*
X0252592Y0115079D01*
X0252743Y0115051D01*
X0252893Y0115020D01*
X0253042Y0114984D01*
X0253190Y0114945D01*
X0253337Y0114902D01*
X0253483Y0114855D01*
X0253628Y0114804D01*
X0253771Y0114749D01*
X0253913Y0114691D01*
X0254053Y0114629D01*
X0254192Y0114564D01*
X0254329Y0114495D01*
X0254464Y0114422D01*
X0254597Y0114346D01*
X0254728Y0114266D01*
X0254857Y0114184D01*
X0254984Y0114097D01*
X0255109Y0114008D01*
X0255231Y0113915D01*
X0255350Y0113819D01*
X0255468Y0113720D01*
X0255582Y0113619D01*
X0255694Y0113514D01*
X0255803Y0113406D01*
X0255909Y0113295D01*
X0256013Y0113182D01*
X0256113Y0113066D01*
X0256211Y0112948D01*
X0256305Y0112827D01*
X0256396Y0112704D01*
X0256484Y0112578D01*
X0256568Y0112450D01*
X0256650Y0112320D01*
X0256727Y0112188D01*
X0256802Y0112054D01*
X0256873Y0111918D01*
X0256940Y0111780D01*
X0257004Y0111640D01*
X0257064Y0111499D01*
X0257120Y0111357D01*
X0257173Y0111213D01*
X0257222Y0111067D01*
X0257267Y0110921D01*
X0257308Y0110773D01*
X0257345Y0110625D01*
X0257379Y0110475D01*
X0257409Y0110324D01*
X0257434Y0110173D01*
X0257456Y0110022D01*
X0257474Y0109869D01*
X0257488Y0109717D01*
X0257498Y0109564D01*
X0257504Y0109410D01*
X0257506Y0109257D01*
X0257504Y0109104D01*
X0257498Y0108950D01*
X0257488Y0108797D01*
X0257474Y0108645D01*
X0257456Y0108492D01*
X0257434Y0108341D01*
X0257409Y0108190D01*
X0257379Y0108039D01*
X0257345Y0107889D01*
X0257308Y0107741D01*
X0257267Y0107593D01*
X0257222Y0107447D01*
X0257173Y0107301D01*
X0257120Y0107157D01*
X0257064Y0107015D01*
X0257004Y0106874D01*
X0256940Y0106734D01*
X0256873Y0106596D01*
X0256802Y0106460D01*
X0256727Y0106326D01*
X0256650Y0106194D01*
X0256568Y0106064D01*
X0256484Y0105936D01*
X0256396Y0105810D01*
X0256305Y0105687D01*
X0256211Y0105566D01*
X0256113Y0105448D01*
X0256013Y0105332D01*
X0255909Y0105219D01*
X0255803Y0105108D01*
X0255694Y0105000D01*
X0255582Y0104895D01*
X0255468Y0104794D01*
X0255350Y0104695D01*
X0255231Y0104599D01*
X0255109Y0104506D01*
X0254984Y0104417D01*
X0254857Y0104330D01*
X0254728Y0104248D01*
X0254597Y0104168D01*
X0254464Y0104092D01*
X0254329Y0104019D01*
X0254192Y0103950D01*
X0254053Y0103885D01*
X0253913Y0103823D01*
X0253771Y0103765D01*
X0253628Y0103710D01*
X0253483Y0103659D01*
X0253337Y0103612D01*
X0253190Y0103569D01*
X0253042Y0103530D01*
X0252893Y0103494D01*
X0252743Y0103463D01*
X0252592Y0103435D01*
X0252441Y0103411D01*
X0252288Y0103391D01*
X0252136Y0103375D01*
X0251983Y0103363D01*
X0251830Y0103355D01*
X0251677Y0103351D01*
X0251523Y0103351D01*
X0251370Y0103355D01*
X0251217Y0103363D01*
X0251064Y0103375D01*
X0250912Y0103391D01*
X0250759Y0103411D01*
X0250608Y0103435D01*
X0250457Y0103463D01*
X0250307Y0103494D01*
X0250158Y0103530D01*
X0250010Y0103569D01*
X0249863Y0103612D01*
X0249717Y0103659D01*
X0249572Y0103710D01*
X0249429Y0103765D01*
X0249287Y0103823D01*
X0249147Y0103885D01*
X0249008Y0103950D01*
X0248871Y0104019D01*
X0248736Y0104092D01*
X0248603Y0104168D01*
X0248472Y0104248D01*
X0248343Y0104330D01*
X0248216Y0104417D01*
X0248091Y0104506D01*
X0247969Y0104599D01*
X0247850Y0104695D01*
X0247732Y0104794D01*
X0247618Y0104895D01*
X0247506Y0105000D01*
X0247397Y0105108D01*
X0247291Y0105219D01*
X0247187Y0105332D01*
X0247087Y0105448D01*
X0246989Y0105566D01*
X0246895Y0105687D01*
X0246804Y0105810D01*
X0246716Y0105936D01*
X0246632Y0106064D01*
X0246550Y0106194D01*
X0246473Y0106326D01*
X0246398Y0106460D01*
X0246327Y0106596D01*
X0246260Y0106734D01*
X0246196Y0106874D01*
X0246136Y0107015D01*
X0246080Y0107157D01*
X0246027Y0107301D01*
X0245978Y0107447D01*
X0245933Y0107593D01*
X0245892Y0107741D01*
X0245855Y0107889D01*
X0245821Y0108039D01*
X0245791Y0108190D01*
X0245766Y0108341D01*
X0245744Y0108492D01*
X0245726Y0108645D01*
X0245712Y0108797D01*
X0245702Y0108950D01*
X0245696Y0109104D01*
X0245694Y0109257D01*
X0245694Y0153943D02*
X0245696Y0154096D01*
X0245702Y0154250D01*
X0245712Y0154403D01*
X0245726Y0154555D01*
X0245744Y0154708D01*
X0245766Y0154859D01*
X0245791Y0155010D01*
X0245821Y0155161D01*
X0245855Y0155311D01*
X0245892Y0155459D01*
X0245933Y0155607D01*
X0245978Y0155753D01*
X0246027Y0155899D01*
X0246080Y0156043D01*
X0246136Y0156185D01*
X0246196Y0156326D01*
X0246260Y0156466D01*
X0246327Y0156604D01*
X0246398Y0156740D01*
X0246473Y0156874D01*
X0246550Y0157006D01*
X0246632Y0157136D01*
X0246716Y0157264D01*
X0246804Y0157390D01*
X0246895Y0157513D01*
X0246989Y0157634D01*
X0247087Y0157752D01*
X0247187Y0157868D01*
X0247291Y0157981D01*
X0247397Y0158092D01*
X0247506Y0158200D01*
X0247618Y0158305D01*
X0247732Y0158406D01*
X0247850Y0158505D01*
X0247969Y0158601D01*
X0248091Y0158694D01*
X0248216Y0158783D01*
X0248343Y0158870D01*
X0248472Y0158952D01*
X0248603Y0159032D01*
X0248736Y0159108D01*
X0248871Y0159181D01*
X0249008Y0159250D01*
X0249147Y0159315D01*
X0249287Y0159377D01*
X0249429Y0159435D01*
X0249572Y0159490D01*
X0249717Y0159541D01*
X0249863Y0159588D01*
X0250010Y0159631D01*
X0250158Y0159670D01*
X0250307Y0159706D01*
X0250457Y0159737D01*
X0250608Y0159765D01*
X0250759Y0159789D01*
X0250912Y0159809D01*
X0251064Y0159825D01*
X0251217Y0159837D01*
X0251370Y0159845D01*
X0251523Y0159849D01*
X0251677Y0159849D01*
X0251830Y0159845D01*
X0251983Y0159837D01*
X0252136Y0159825D01*
X0252288Y0159809D01*
X0252441Y0159789D01*
X0252592Y0159765D01*
X0252743Y0159737D01*
X0252893Y0159706D01*
X0253042Y0159670D01*
X0253190Y0159631D01*
X0253337Y0159588D01*
X0253483Y0159541D01*
X0253628Y0159490D01*
X0253771Y0159435D01*
X0253913Y0159377D01*
X0254053Y0159315D01*
X0254192Y0159250D01*
X0254329Y0159181D01*
X0254464Y0159108D01*
X0254597Y0159032D01*
X0254728Y0158952D01*
X0254857Y0158870D01*
X0254984Y0158783D01*
X0255109Y0158694D01*
X0255231Y0158601D01*
X0255350Y0158505D01*
X0255468Y0158406D01*
X0255582Y0158305D01*
X0255694Y0158200D01*
X0255803Y0158092D01*
X0255909Y0157981D01*
X0256013Y0157868D01*
X0256113Y0157752D01*
X0256211Y0157634D01*
X0256305Y0157513D01*
X0256396Y0157390D01*
X0256484Y0157264D01*
X0256568Y0157136D01*
X0256650Y0157006D01*
X0256727Y0156874D01*
X0256802Y0156740D01*
X0256873Y0156604D01*
X0256940Y0156466D01*
X0257004Y0156326D01*
X0257064Y0156185D01*
X0257120Y0156043D01*
X0257173Y0155899D01*
X0257222Y0155753D01*
X0257267Y0155607D01*
X0257308Y0155459D01*
X0257345Y0155311D01*
X0257379Y0155161D01*
X0257409Y0155010D01*
X0257434Y0154859D01*
X0257456Y0154708D01*
X0257474Y0154555D01*
X0257488Y0154403D01*
X0257498Y0154250D01*
X0257504Y0154096D01*
X0257506Y0153943D01*
X0257504Y0153790D01*
X0257498Y0153636D01*
X0257488Y0153483D01*
X0257474Y0153331D01*
X0257456Y0153178D01*
X0257434Y0153027D01*
X0257409Y0152876D01*
X0257379Y0152725D01*
X0257345Y0152575D01*
X0257308Y0152427D01*
X0257267Y0152279D01*
X0257222Y0152133D01*
X0257173Y0151987D01*
X0257120Y0151843D01*
X0257064Y0151701D01*
X0257004Y0151560D01*
X0256940Y0151420D01*
X0256873Y0151282D01*
X0256802Y0151146D01*
X0256727Y0151012D01*
X0256650Y0150880D01*
X0256568Y0150750D01*
X0256484Y0150622D01*
X0256396Y0150496D01*
X0256305Y0150373D01*
X0256211Y0150252D01*
X0256113Y0150134D01*
X0256013Y0150018D01*
X0255909Y0149905D01*
X0255803Y0149794D01*
X0255694Y0149686D01*
X0255582Y0149581D01*
X0255468Y0149480D01*
X0255350Y0149381D01*
X0255231Y0149285D01*
X0255109Y0149192D01*
X0254984Y0149103D01*
X0254857Y0149016D01*
X0254728Y0148934D01*
X0254597Y0148854D01*
X0254464Y0148778D01*
X0254329Y0148705D01*
X0254192Y0148636D01*
X0254053Y0148571D01*
X0253913Y0148509D01*
X0253771Y0148451D01*
X0253628Y0148396D01*
X0253483Y0148345D01*
X0253337Y0148298D01*
X0253190Y0148255D01*
X0253042Y0148216D01*
X0252893Y0148180D01*
X0252743Y0148149D01*
X0252592Y0148121D01*
X0252441Y0148097D01*
X0252288Y0148077D01*
X0252136Y0148061D01*
X0251983Y0148049D01*
X0251830Y0148041D01*
X0251677Y0148037D01*
X0251523Y0148037D01*
X0251370Y0148041D01*
X0251217Y0148049D01*
X0251064Y0148061D01*
X0250912Y0148077D01*
X0250759Y0148097D01*
X0250608Y0148121D01*
X0250457Y0148149D01*
X0250307Y0148180D01*
X0250158Y0148216D01*
X0250010Y0148255D01*
X0249863Y0148298D01*
X0249717Y0148345D01*
X0249572Y0148396D01*
X0249429Y0148451D01*
X0249287Y0148509D01*
X0249147Y0148571D01*
X0249008Y0148636D01*
X0248871Y0148705D01*
X0248736Y0148778D01*
X0248603Y0148854D01*
X0248472Y0148934D01*
X0248343Y0149016D01*
X0248216Y0149103D01*
X0248091Y0149192D01*
X0247969Y0149285D01*
X0247850Y0149381D01*
X0247732Y0149480D01*
X0247618Y0149581D01*
X0247506Y0149686D01*
X0247397Y0149794D01*
X0247291Y0149905D01*
X0247187Y0150018D01*
X0247087Y0150134D01*
X0246989Y0150252D01*
X0246895Y0150373D01*
X0246804Y0150496D01*
X0246716Y0150622D01*
X0246632Y0150750D01*
X0246550Y0150880D01*
X0246473Y0151012D01*
X0246398Y0151146D01*
X0246327Y0151282D01*
X0246260Y0151420D01*
X0246196Y0151560D01*
X0246136Y0151701D01*
X0246080Y0151843D01*
X0246027Y0151987D01*
X0245978Y0152133D01*
X0245933Y0152279D01*
X0245892Y0152427D01*
X0245855Y0152575D01*
X0245821Y0152725D01*
X0245791Y0152876D01*
X0245766Y0153027D01*
X0245744Y0153178D01*
X0245726Y0153331D01*
X0245712Y0153483D01*
X0245702Y0153636D01*
X0245696Y0153790D01*
X0245694Y0153943D01*
X0245694Y0184257D02*
X0245696Y0184410D01*
X0245702Y0184564D01*
X0245712Y0184717D01*
X0245726Y0184869D01*
X0245744Y0185022D01*
X0245766Y0185173D01*
X0245791Y0185324D01*
X0245821Y0185475D01*
X0245855Y0185625D01*
X0245892Y0185773D01*
X0245933Y0185921D01*
X0245978Y0186067D01*
X0246027Y0186213D01*
X0246080Y0186357D01*
X0246136Y0186499D01*
X0246196Y0186640D01*
X0246260Y0186780D01*
X0246327Y0186918D01*
X0246398Y0187054D01*
X0246473Y0187188D01*
X0246550Y0187320D01*
X0246632Y0187450D01*
X0246716Y0187578D01*
X0246804Y0187704D01*
X0246895Y0187827D01*
X0246989Y0187948D01*
X0247087Y0188066D01*
X0247187Y0188182D01*
X0247291Y0188295D01*
X0247397Y0188406D01*
X0247506Y0188514D01*
X0247618Y0188619D01*
X0247732Y0188720D01*
X0247850Y0188819D01*
X0247969Y0188915D01*
X0248091Y0189008D01*
X0248216Y0189097D01*
X0248343Y0189184D01*
X0248472Y0189266D01*
X0248603Y0189346D01*
X0248736Y0189422D01*
X0248871Y0189495D01*
X0249008Y0189564D01*
X0249147Y0189629D01*
X0249287Y0189691D01*
X0249429Y0189749D01*
X0249572Y0189804D01*
X0249717Y0189855D01*
X0249863Y0189902D01*
X0250010Y0189945D01*
X0250158Y0189984D01*
X0250307Y0190020D01*
X0250457Y0190051D01*
X0250608Y0190079D01*
X0250759Y0190103D01*
X0250912Y0190123D01*
X0251064Y0190139D01*
X0251217Y0190151D01*
X0251370Y0190159D01*
X0251523Y0190163D01*
X0251677Y0190163D01*
X0251830Y0190159D01*
X0251983Y0190151D01*
X0252136Y0190139D01*
X0252288Y0190123D01*
X0252441Y0190103D01*
X0252592Y0190079D01*
X0252743Y0190051D01*
X0252893Y0190020D01*
X0253042Y0189984D01*
X0253190Y0189945D01*
X0253337Y0189902D01*
X0253483Y0189855D01*
X0253628Y0189804D01*
X0253771Y0189749D01*
X0253913Y0189691D01*
X0254053Y0189629D01*
X0254192Y0189564D01*
X0254329Y0189495D01*
X0254464Y0189422D01*
X0254597Y0189346D01*
X0254728Y0189266D01*
X0254857Y0189184D01*
X0254984Y0189097D01*
X0255109Y0189008D01*
X0255231Y0188915D01*
X0255350Y0188819D01*
X0255468Y0188720D01*
X0255582Y0188619D01*
X0255694Y0188514D01*
X0255803Y0188406D01*
X0255909Y0188295D01*
X0256013Y0188182D01*
X0256113Y0188066D01*
X0256211Y0187948D01*
X0256305Y0187827D01*
X0256396Y0187704D01*
X0256484Y0187578D01*
X0256568Y0187450D01*
X0256650Y0187320D01*
X0256727Y0187188D01*
X0256802Y0187054D01*
X0256873Y0186918D01*
X0256940Y0186780D01*
X0257004Y0186640D01*
X0257064Y0186499D01*
X0257120Y0186357D01*
X0257173Y0186213D01*
X0257222Y0186067D01*
X0257267Y0185921D01*
X0257308Y0185773D01*
X0257345Y0185625D01*
X0257379Y0185475D01*
X0257409Y0185324D01*
X0257434Y0185173D01*
X0257456Y0185022D01*
X0257474Y0184869D01*
X0257488Y0184717D01*
X0257498Y0184564D01*
X0257504Y0184410D01*
X0257506Y0184257D01*
X0257504Y0184104D01*
X0257498Y0183950D01*
X0257488Y0183797D01*
X0257474Y0183645D01*
X0257456Y0183492D01*
X0257434Y0183341D01*
X0257409Y0183190D01*
X0257379Y0183039D01*
X0257345Y0182889D01*
X0257308Y0182741D01*
X0257267Y0182593D01*
X0257222Y0182447D01*
X0257173Y0182301D01*
X0257120Y0182157D01*
X0257064Y0182015D01*
X0257004Y0181874D01*
X0256940Y0181734D01*
X0256873Y0181596D01*
X0256802Y0181460D01*
X0256727Y0181326D01*
X0256650Y0181194D01*
X0256568Y0181064D01*
X0256484Y0180936D01*
X0256396Y0180810D01*
X0256305Y0180687D01*
X0256211Y0180566D01*
X0256113Y0180448D01*
X0256013Y0180332D01*
X0255909Y0180219D01*
X0255803Y0180108D01*
X0255694Y0180000D01*
X0255582Y0179895D01*
X0255468Y0179794D01*
X0255350Y0179695D01*
X0255231Y0179599D01*
X0255109Y0179506D01*
X0254984Y0179417D01*
X0254857Y0179330D01*
X0254728Y0179248D01*
X0254597Y0179168D01*
X0254464Y0179092D01*
X0254329Y0179019D01*
X0254192Y0178950D01*
X0254053Y0178885D01*
X0253913Y0178823D01*
X0253771Y0178765D01*
X0253628Y0178710D01*
X0253483Y0178659D01*
X0253337Y0178612D01*
X0253190Y0178569D01*
X0253042Y0178530D01*
X0252893Y0178494D01*
X0252743Y0178463D01*
X0252592Y0178435D01*
X0252441Y0178411D01*
X0252288Y0178391D01*
X0252136Y0178375D01*
X0251983Y0178363D01*
X0251830Y0178355D01*
X0251677Y0178351D01*
X0251523Y0178351D01*
X0251370Y0178355D01*
X0251217Y0178363D01*
X0251064Y0178375D01*
X0250912Y0178391D01*
X0250759Y0178411D01*
X0250608Y0178435D01*
X0250457Y0178463D01*
X0250307Y0178494D01*
X0250158Y0178530D01*
X0250010Y0178569D01*
X0249863Y0178612D01*
X0249717Y0178659D01*
X0249572Y0178710D01*
X0249429Y0178765D01*
X0249287Y0178823D01*
X0249147Y0178885D01*
X0249008Y0178950D01*
X0248871Y0179019D01*
X0248736Y0179092D01*
X0248603Y0179168D01*
X0248472Y0179248D01*
X0248343Y0179330D01*
X0248216Y0179417D01*
X0248091Y0179506D01*
X0247969Y0179599D01*
X0247850Y0179695D01*
X0247732Y0179794D01*
X0247618Y0179895D01*
X0247506Y0180000D01*
X0247397Y0180108D01*
X0247291Y0180219D01*
X0247187Y0180332D01*
X0247087Y0180448D01*
X0246989Y0180566D01*
X0246895Y0180687D01*
X0246804Y0180810D01*
X0246716Y0180936D01*
X0246632Y0181064D01*
X0246550Y0181194D01*
X0246473Y0181326D01*
X0246398Y0181460D01*
X0246327Y0181596D01*
X0246260Y0181734D01*
X0246196Y0181874D01*
X0246136Y0182015D01*
X0246080Y0182157D01*
X0246027Y0182301D01*
X0245978Y0182447D01*
X0245933Y0182593D01*
X0245892Y0182741D01*
X0245855Y0182889D01*
X0245821Y0183039D01*
X0245791Y0183190D01*
X0245766Y0183341D01*
X0245744Y0183492D01*
X0245726Y0183645D01*
X0245712Y0183797D01*
X0245702Y0183950D01*
X0245696Y0184104D01*
X0245694Y0184257D01*
M02*
