G75*
%MOIN*%
%OFA0B0*%
%FSLAX25Y25*%
%IPPOS*%
%LPD*%
%AMOC8*
5,1,8,0,0,1.08239X$1,22.5*
%
%ADD10C,0.00000*%
%ADD11R,0.32500X0.29000*%
%ADD12R,0.28000X0.24000*%
%ADD13C,0.06600*%
%ADD14C,0.06299*%
%ADD15R,0.04016X0.04724*%
%ADD16R,0.06693X0.03937*%
%ADD17R,0.03543X0.03150*%
%ADD18R,0.04724X0.03150*%
%ADD19R,0.04800X0.08800*%
%ADD20R,0.14173X0.08661*%
%ADD21R,0.07087X0.06299*%
%ADD22C,0.07400*%
%ADD23R,0.05000X0.02200*%
%ADD24R,0.02200X0.05000*%
%ADD25C,0.01772*%
%ADD26C,0.01000*%
%ADD27R,0.03150X0.04724*%
%ADD28OC8,0.07400*%
%ADD29R,0.02200X0.07800*%
%ADD30R,0.05512X0.03937*%
%ADD31C,0.08600*%
%ADD32R,0.07874X0.06299*%
%ADD33R,0.05512X0.07087*%
%ADD34OC8,0.06600*%
%ADD35R,0.24409X0.21260*%
%ADD36R,0.06299X0.03937*%
%ADD37R,0.13780X0.06299*%
%ADD38R,0.15748X0.09843*%
%ADD39R,0.09449X0.07087*%
%ADD40R,0.09055X0.06299*%
%ADD41C,0.01200*%
%ADD42C,0.01600*%
%ADD43C,0.03962*%
%ADD44C,0.02978*%
%ADD45C,0.03200*%
%ADD46C,0.03175*%
%ADD47C,0.05000*%
D10*
X0001600Y0001600D02*
X0001600Y0211561D01*
X0270301Y0211561D01*
X0270301Y0001600D01*
X0001600Y0001600D01*
X0245694Y0078943D02*
X0245696Y0079096D01*
X0245702Y0079250D01*
X0245712Y0079403D01*
X0245726Y0079555D01*
X0245744Y0079708D01*
X0245766Y0079859D01*
X0245791Y0080010D01*
X0245821Y0080161D01*
X0245855Y0080311D01*
X0245892Y0080459D01*
X0245933Y0080607D01*
X0245978Y0080753D01*
X0246027Y0080899D01*
X0246080Y0081043D01*
X0246136Y0081185D01*
X0246196Y0081326D01*
X0246260Y0081466D01*
X0246327Y0081604D01*
X0246398Y0081740D01*
X0246473Y0081874D01*
X0246550Y0082006D01*
X0246632Y0082136D01*
X0246716Y0082264D01*
X0246804Y0082390D01*
X0246895Y0082513D01*
X0246989Y0082634D01*
X0247087Y0082752D01*
X0247187Y0082868D01*
X0247291Y0082981D01*
X0247397Y0083092D01*
X0247506Y0083200D01*
X0247618Y0083305D01*
X0247732Y0083406D01*
X0247850Y0083505D01*
X0247969Y0083601D01*
X0248091Y0083694D01*
X0248216Y0083783D01*
X0248343Y0083870D01*
X0248472Y0083952D01*
X0248603Y0084032D01*
X0248736Y0084108D01*
X0248871Y0084181D01*
X0249008Y0084250D01*
X0249147Y0084315D01*
X0249287Y0084377D01*
X0249429Y0084435D01*
X0249572Y0084490D01*
X0249717Y0084541D01*
X0249863Y0084588D01*
X0250010Y0084631D01*
X0250158Y0084670D01*
X0250307Y0084706D01*
X0250457Y0084737D01*
X0250608Y0084765D01*
X0250759Y0084789D01*
X0250912Y0084809D01*
X0251064Y0084825D01*
X0251217Y0084837D01*
X0251370Y0084845D01*
X0251523Y0084849D01*
X0251677Y0084849D01*
X0251830Y0084845D01*
X0251983Y0084837D01*
X0252136Y0084825D01*
X0252288Y0084809D01*
X0252441Y0084789D01*
X0252592Y0084765D01*
X0252743Y0084737D01*
X0252893Y0084706D01*
X0253042Y0084670D01*
X0253190Y0084631D01*
X0253337Y0084588D01*
X0253483Y0084541D01*
X0253628Y0084490D01*
X0253771Y0084435D01*
X0253913Y0084377D01*
X0254053Y0084315D01*
X0254192Y0084250D01*
X0254329Y0084181D01*
X0254464Y0084108D01*
X0254597Y0084032D01*
X0254728Y0083952D01*
X0254857Y0083870D01*
X0254984Y0083783D01*
X0255109Y0083694D01*
X0255231Y0083601D01*
X0255350Y0083505D01*
X0255468Y0083406D01*
X0255582Y0083305D01*
X0255694Y0083200D01*
X0255803Y0083092D01*
X0255909Y0082981D01*
X0256013Y0082868D01*
X0256113Y0082752D01*
X0256211Y0082634D01*
X0256305Y0082513D01*
X0256396Y0082390D01*
X0256484Y0082264D01*
X0256568Y0082136D01*
X0256650Y0082006D01*
X0256727Y0081874D01*
X0256802Y0081740D01*
X0256873Y0081604D01*
X0256940Y0081466D01*
X0257004Y0081326D01*
X0257064Y0081185D01*
X0257120Y0081043D01*
X0257173Y0080899D01*
X0257222Y0080753D01*
X0257267Y0080607D01*
X0257308Y0080459D01*
X0257345Y0080311D01*
X0257379Y0080161D01*
X0257409Y0080010D01*
X0257434Y0079859D01*
X0257456Y0079708D01*
X0257474Y0079555D01*
X0257488Y0079403D01*
X0257498Y0079250D01*
X0257504Y0079096D01*
X0257506Y0078943D01*
X0257504Y0078790D01*
X0257498Y0078636D01*
X0257488Y0078483D01*
X0257474Y0078331D01*
X0257456Y0078178D01*
X0257434Y0078027D01*
X0257409Y0077876D01*
X0257379Y0077725D01*
X0257345Y0077575D01*
X0257308Y0077427D01*
X0257267Y0077279D01*
X0257222Y0077133D01*
X0257173Y0076987D01*
X0257120Y0076843D01*
X0257064Y0076701D01*
X0257004Y0076560D01*
X0256940Y0076420D01*
X0256873Y0076282D01*
X0256802Y0076146D01*
X0256727Y0076012D01*
X0256650Y0075880D01*
X0256568Y0075750D01*
X0256484Y0075622D01*
X0256396Y0075496D01*
X0256305Y0075373D01*
X0256211Y0075252D01*
X0256113Y0075134D01*
X0256013Y0075018D01*
X0255909Y0074905D01*
X0255803Y0074794D01*
X0255694Y0074686D01*
X0255582Y0074581D01*
X0255468Y0074480D01*
X0255350Y0074381D01*
X0255231Y0074285D01*
X0255109Y0074192D01*
X0254984Y0074103D01*
X0254857Y0074016D01*
X0254728Y0073934D01*
X0254597Y0073854D01*
X0254464Y0073778D01*
X0254329Y0073705D01*
X0254192Y0073636D01*
X0254053Y0073571D01*
X0253913Y0073509D01*
X0253771Y0073451D01*
X0253628Y0073396D01*
X0253483Y0073345D01*
X0253337Y0073298D01*
X0253190Y0073255D01*
X0253042Y0073216D01*
X0252893Y0073180D01*
X0252743Y0073149D01*
X0252592Y0073121D01*
X0252441Y0073097D01*
X0252288Y0073077D01*
X0252136Y0073061D01*
X0251983Y0073049D01*
X0251830Y0073041D01*
X0251677Y0073037D01*
X0251523Y0073037D01*
X0251370Y0073041D01*
X0251217Y0073049D01*
X0251064Y0073061D01*
X0250912Y0073077D01*
X0250759Y0073097D01*
X0250608Y0073121D01*
X0250457Y0073149D01*
X0250307Y0073180D01*
X0250158Y0073216D01*
X0250010Y0073255D01*
X0249863Y0073298D01*
X0249717Y0073345D01*
X0249572Y0073396D01*
X0249429Y0073451D01*
X0249287Y0073509D01*
X0249147Y0073571D01*
X0249008Y0073636D01*
X0248871Y0073705D01*
X0248736Y0073778D01*
X0248603Y0073854D01*
X0248472Y0073934D01*
X0248343Y0074016D01*
X0248216Y0074103D01*
X0248091Y0074192D01*
X0247969Y0074285D01*
X0247850Y0074381D01*
X0247732Y0074480D01*
X0247618Y0074581D01*
X0247506Y0074686D01*
X0247397Y0074794D01*
X0247291Y0074905D01*
X0247187Y0075018D01*
X0247087Y0075134D01*
X0246989Y0075252D01*
X0246895Y0075373D01*
X0246804Y0075496D01*
X0246716Y0075622D01*
X0246632Y0075750D01*
X0246550Y0075880D01*
X0246473Y0076012D01*
X0246398Y0076146D01*
X0246327Y0076282D01*
X0246260Y0076420D01*
X0246196Y0076560D01*
X0246136Y0076701D01*
X0246080Y0076843D01*
X0246027Y0076987D01*
X0245978Y0077133D01*
X0245933Y0077279D01*
X0245892Y0077427D01*
X0245855Y0077575D01*
X0245821Y0077725D01*
X0245791Y0077876D01*
X0245766Y0078027D01*
X0245744Y0078178D01*
X0245726Y0078331D01*
X0245712Y0078483D01*
X0245702Y0078636D01*
X0245696Y0078790D01*
X0245694Y0078943D01*
X0245694Y0109257D02*
X0245696Y0109410D01*
X0245702Y0109564D01*
X0245712Y0109717D01*
X0245726Y0109869D01*
X0245744Y0110022D01*
X0245766Y0110173D01*
X0245791Y0110324D01*
X0245821Y0110475D01*
X0245855Y0110625D01*
X0245892Y0110773D01*
X0245933Y0110921D01*
X0245978Y0111067D01*
X0246027Y0111213D01*
X0246080Y0111357D01*
X0246136Y0111499D01*
X0246196Y0111640D01*
X0246260Y0111780D01*
X0246327Y0111918D01*
X0246398Y0112054D01*
X0246473Y0112188D01*
X0246550Y0112320D01*
X0246632Y0112450D01*
X0246716Y0112578D01*
X0246804Y0112704D01*
X0246895Y0112827D01*
X0246989Y0112948D01*
X0247087Y0113066D01*
X0247187Y0113182D01*
X0247291Y0113295D01*
X0247397Y0113406D01*
X0247506Y0113514D01*
X0247618Y0113619D01*
X0247732Y0113720D01*
X0247850Y0113819D01*
X0247969Y0113915D01*
X0248091Y0114008D01*
X0248216Y0114097D01*
X0248343Y0114184D01*
X0248472Y0114266D01*
X0248603Y0114346D01*
X0248736Y0114422D01*
X0248871Y0114495D01*
X0249008Y0114564D01*
X0249147Y0114629D01*
X0249287Y0114691D01*
X0249429Y0114749D01*
X0249572Y0114804D01*
X0249717Y0114855D01*
X0249863Y0114902D01*
X0250010Y0114945D01*
X0250158Y0114984D01*
X0250307Y0115020D01*
X0250457Y0115051D01*
X0250608Y0115079D01*
X0250759Y0115103D01*
X0250912Y0115123D01*
X0251064Y0115139D01*
X0251217Y0115151D01*
X0251370Y0115159D01*
X0251523Y0115163D01*
X0251677Y0115163D01*
X0251830Y0115159D01*
X0251983Y0115151D01*
X0252136Y0115139D01*
X0252288Y0115123D01*
X0252441Y0115103D01*
X0252592Y0115079D01*
X0252743Y0115051D01*
X0252893Y0115020D01*
X0253042Y0114984D01*
X0253190Y0114945D01*
X0253337Y0114902D01*
X0253483Y0114855D01*
X0253628Y0114804D01*
X0253771Y0114749D01*
X0253913Y0114691D01*
X0254053Y0114629D01*
X0254192Y0114564D01*
X0254329Y0114495D01*
X0254464Y0114422D01*
X0254597Y0114346D01*
X0254728Y0114266D01*
X0254857Y0114184D01*
X0254984Y0114097D01*
X0255109Y0114008D01*
X0255231Y0113915D01*
X0255350Y0113819D01*
X0255468Y0113720D01*
X0255582Y0113619D01*
X0255694Y0113514D01*
X0255803Y0113406D01*
X0255909Y0113295D01*
X0256013Y0113182D01*
X0256113Y0113066D01*
X0256211Y0112948D01*
X0256305Y0112827D01*
X0256396Y0112704D01*
X0256484Y0112578D01*
X0256568Y0112450D01*
X0256650Y0112320D01*
X0256727Y0112188D01*
X0256802Y0112054D01*
X0256873Y0111918D01*
X0256940Y0111780D01*
X0257004Y0111640D01*
X0257064Y0111499D01*
X0257120Y0111357D01*
X0257173Y0111213D01*
X0257222Y0111067D01*
X0257267Y0110921D01*
X0257308Y0110773D01*
X0257345Y0110625D01*
X0257379Y0110475D01*
X0257409Y0110324D01*
X0257434Y0110173D01*
X0257456Y0110022D01*
X0257474Y0109869D01*
X0257488Y0109717D01*
X0257498Y0109564D01*
X0257504Y0109410D01*
X0257506Y0109257D01*
X0257504Y0109104D01*
X0257498Y0108950D01*
X0257488Y0108797D01*
X0257474Y0108645D01*
X0257456Y0108492D01*
X0257434Y0108341D01*
X0257409Y0108190D01*
X0257379Y0108039D01*
X0257345Y0107889D01*
X0257308Y0107741D01*
X0257267Y0107593D01*
X0257222Y0107447D01*
X0257173Y0107301D01*
X0257120Y0107157D01*
X0257064Y0107015D01*
X0257004Y0106874D01*
X0256940Y0106734D01*
X0256873Y0106596D01*
X0256802Y0106460D01*
X0256727Y0106326D01*
X0256650Y0106194D01*
X0256568Y0106064D01*
X0256484Y0105936D01*
X0256396Y0105810D01*
X0256305Y0105687D01*
X0256211Y0105566D01*
X0256113Y0105448D01*
X0256013Y0105332D01*
X0255909Y0105219D01*
X0255803Y0105108D01*
X0255694Y0105000D01*
X0255582Y0104895D01*
X0255468Y0104794D01*
X0255350Y0104695D01*
X0255231Y0104599D01*
X0255109Y0104506D01*
X0254984Y0104417D01*
X0254857Y0104330D01*
X0254728Y0104248D01*
X0254597Y0104168D01*
X0254464Y0104092D01*
X0254329Y0104019D01*
X0254192Y0103950D01*
X0254053Y0103885D01*
X0253913Y0103823D01*
X0253771Y0103765D01*
X0253628Y0103710D01*
X0253483Y0103659D01*
X0253337Y0103612D01*
X0253190Y0103569D01*
X0253042Y0103530D01*
X0252893Y0103494D01*
X0252743Y0103463D01*
X0252592Y0103435D01*
X0252441Y0103411D01*
X0252288Y0103391D01*
X0252136Y0103375D01*
X0251983Y0103363D01*
X0251830Y0103355D01*
X0251677Y0103351D01*
X0251523Y0103351D01*
X0251370Y0103355D01*
X0251217Y0103363D01*
X0251064Y0103375D01*
X0250912Y0103391D01*
X0250759Y0103411D01*
X0250608Y0103435D01*
X0250457Y0103463D01*
X0250307Y0103494D01*
X0250158Y0103530D01*
X0250010Y0103569D01*
X0249863Y0103612D01*
X0249717Y0103659D01*
X0249572Y0103710D01*
X0249429Y0103765D01*
X0249287Y0103823D01*
X0249147Y0103885D01*
X0249008Y0103950D01*
X0248871Y0104019D01*
X0248736Y0104092D01*
X0248603Y0104168D01*
X0248472Y0104248D01*
X0248343Y0104330D01*
X0248216Y0104417D01*
X0248091Y0104506D01*
X0247969Y0104599D01*
X0247850Y0104695D01*
X0247732Y0104794D01*
X0247618Y0104895D01*
X0247506Y0105000D01*
X0247397Y0105108D01*
X0247291Y0105219D01*
X0247187Y0105332D01*
X0247087Y0105448D01*
X0246989Y0105566D01*
X0246895Y0105687D01*
X0246804Y0105810D01*
X0246716Y0105936D01*
X0246632Y0106064D01*
X0246550Y0106194D01*
X0246473Y0106326D01*
X0246398Y0106460D01*
X0246327Y0106596D01*
X0246260Y0106734D01*
X0246196Y0106874D01*
X0246136Y0107015D01*
X0246080Y0107157D01*
X0246027Y0107301D01*
X0245978Y0107447D01*
X0245933Y0107593D01*
X0245892Y0107741D01*
X0245855Y0107889D01*
X0245821Y0108039D01*
X0245791Y0108190D01*
X0245766Y0108341D01*
X0245744Y0108492D01*
X0245726Y0108645D01*
X0245712Y0108797D01*
X0245702Y0108950D01*
X0245696Y0109104D01*
X0245694Y0109257D01*
X0245694Y0153943D02*
X0245696Y0154096D01*
X0245702Y0154250D01*
X0245712Y0154403D01*
X0245726Y0154555D01*
X0245744Y0154708D01*
X0245766Y0154859D01*
X0245791Y0155010D01*
X0245821Y0155161D01*
X0245855Y0155311D01*
X0245892Y0155459D01*
X0245933Y0155607D01*
X0245978Y0155753D01*
X0246027Y0155899D01*
X0246080Y0156043D01*
X0246136Y0156185D01*
X0246196Y0156326D01*
X0246260Y0156466D01*
X0246327Y0156604D01*
X0246398Y0156740D01*
X0246473Y0156874D01*
X0246550Y0157006D01*
X0246632Y0157136D01*
X0246716Y0157264D01*
X0246804Y0157390D01*
X0246895Y0157513D01*
X0246989Y0157634D01*
X0247087Y0157752D01*
X0247187Y0157868D01*
X0247291Y0157981D01*
X0247397Y0158092D01*
X0247506Y0158200D01*
X0247618Y0158305D01*
X0247732Y0158406D01*
X0247850Y0158505D01*
X0247969Y0158601D01*
X0248091Y0158694D01*
X0248216Y0158783D01*
X0248343Y0158870D01*
X0248472Y0158952D01*
X0248603Y0159032D01*
X0248736Y0159108D01*
X0248871Y0159181D01*
X0249008Y0159250D01*
X0249147Y0159315D01*
X0249287Y0159377D01*
X0249429Y0159435D01*
X0249572Y0159490D01*
X0249717Y0159541D01*
X0249863Y0159588D01*
X0250010Y0159631D01*
X0250158Y0159670D01*
X0250307Y0159706D01*
X0250457Y0159737D01*
X0250608Y0159765D01*
X0250759Y0159789D01*
X0250912Y0159809D01*
X0251064Y0159825D01*
X0251217Y0159837D01*
X0251370Y0159845D01*
X0251523Y0159849D01*
X0251677Y0159849D01*
X0251830Y0159845D01*
X0251983Y0159837D01*
X0252136Y0159825D01*
X0252288Y0159809D01*
X0252441Y0159789D01*
X0252592Y0159765D01*
X0252743Y0159737D01*
X0252893Y0159706D01*
X0253042Y0159670D01*
X0253190Y0159631D01*
X0253337Y0159588D01*
X0253483Y0159541D01*
X0253628Y0159490D01*
X0253771Y0159435D01*
X0253913Y0159377D01*
X0254053Y0159315D01*
X0254192Y0159250D01*
X0254329Y0159181D01*
X0254464Y0159108D01*
X0254597Y0159032D01*
X0254728Y0158952D01*
X0254857Y0158870D01*
X0254984Y0158783D01*
X0255109Y0158694D01*
X0255231Y0158601D01*
X0255350Y0158505D01*
X0255468Y0158406D01*
X0255582Y0158305D01*
X0255694Y0158200D01*
X0255803Y0158092D01*
X0255909Y0157981D01*
X0256013Y0157868D01*
X0256113Y0157752D01*
X0256211Y0157634D01*
X0256305Y0157513D01*
X0256396Y0157390D01*
X0256484Y0157264D01*
X0256568Y0157136D01*
X0256650Y0157006D01*
X0256727Y0156874D01*
X0256802Y0156740D01*
X0256873Y0156604D01*
X0256940Y0156466D01*
X0257004Y0156326D01*
X0257064Y0156185D01*
X0257120Y0156043D01*
X0257173Y0155899D01*
X0257222Y0155753D01*
X0257267Y0155607D01*
X0257308Y0155459D01*
X0257345Y0155311D01*
X0257379Y0155161D01*
X0257409Y0155010D01*
X0257434Y0154859D01*
X0257456Y0154708D01*
X0257474Y0154555D01*
X0257488Y0154403D01*
X0257498Y0154250D01*
X0257504Y0154096D01*
X0257506Y0153943D01*
X0257504Y0153790D01*
X0257498Y0153636D01*
X0257488Y0153483D01*
X0257474Y0153331D01*
X0257456Y0153178D01*
X0257434Y0153027D01*
X0257409Y0152876D01*
X0257379Y0152725D01*
X0257345Y0152575D01*
X0257308Y0152427D01*
X0257267Y0152279D01*
X0257222Y0152133D01*
X0257173Y0151987D01*
X0257120Y0151843D01*
X0257064Y0151701D01*
X0257004Y0151560D01*
X0256940Y0151420D01*
X0256873Y0151282D01*
X0256802Y0151146D01*
X0256727Y0151012D01*
X0256650Y0150880D01*
X0256568Y0150750D01*
X0256484Y0150622D01*
X0256396Y0150496D01*
X0256305Y0150373D01*
X0256211Y0150252D01*
X0256113Y0150134D01*
X0256013Y0150018D01*
X0255909Y0149905D01*
X0255803Y0149794D01*
X0255694Y0149686D01*
X0255582Y0149581D01*
X0255468Y0149480D01*
X0255350Y0149381D01*
X0255231Y0149285D01*
X0255109Y0149192D01*
X0254984Y0149103D01*
X0254857Y0149016D01*
X0254728Y0148934D01*
X0254597Y0148854D01*
X0254464Y0148778D01*
X0254329Y0148705D01*
X0254192Y0148636D01*
X0254053Y0148571D01*
X0253913Y0148509D01*
X0253771Y0148451D01*
X0253628Y0148396D01*
X0253483Y0148345D01*
X0253337Y0148298D01*
X0253190Y0148255D01*
X0253042Y0148216D01*
X0252893Y0148180D01*
X0252743Y0148149D01*
X0252592Y0148121D01*
X0252441Y0148097D01*
X0252288Y0148077D01*
X0252136Y0148061D01*
X0251983Y0148049D01*
X0251830Y0148041D01*
X0251677Y0148037D01*
X0251523Y0148037D01*
X0251370Y0148041D01*
X0251217Y0148049D01*
X0251064Y0148061D01*
X0250912Y0148077D01*
X0250759Y0148097D01*
X0250608Y0148121D01*
X0250457Y0148149D01*
X0250307Y0148180D01*
X0250158Y0148216D01*
X0250010Y0148255D01*
X0249863Y0148298D01*
X0249717Y0148345D01*
X0249572Y0148396D01*
X0249429Y0148451D01*
X0249287Y0148509D01*
X0249147Y0148571D01*
X0249008Y0148636D01*
X0248871Y0148705D01*
X0248736Y0148778D01*
X0248603Y0148854D01*
X0248472Y0148934D01*
X0248343Y0149016D01*
X0248216Y0149103D01*
X0248091Y0149192D01*
X0247969Y0149285D01*
X0247850Y0149381D01*
X0247732Y0149480D01*
X0247618Y0149581D01*
X0247506Y0149686D01*
X0247397Y0149794D01*
X0247291Y0149905D01*
X0247187Y0150018D01*
X0247087Y0150134D01*
X0246989Y0150252D01*
X0246895Y0150373D01*
X0246804Y0150496D01*
X0246716Y0150622D01*
X0246632Y0150750D01*
X0246550Y0150880D01*
X0246473Y0151012D01*
X0246398Y0151146D01*
X0246327Y0151282D01*
X0246260Y0151420D01*
X0246196Y0151560D01*
X0246136Y0151701D01*
X0246080Y0151843D01*
X0246027Y0151987D01*
X0245978Y0152133D01*
X0245933Y0152279D01*
X0245892Y0152427D01*
X0245855Y0152575D01*
X0245821Y0152725D01*
X0245791Y0152876D01*
X0245766Y0153027D01*
X0245744Y0153178D01*
X0245726Y0153331D01*
X0245712Y0153483D01*
X0245702Y0153636D01*
X0245696Y0153790D01*
X0245694Y0153943D01*
X0245694Y0184257D02*
X0245696Y0184410D01*
X0245702Y0184564D01*
X0245712Y0184717D01*
X0245726Y0184869D01*
X0245744Y0185022D01*
X0245766Y0185173D01*
X0245791Y0185324D01*
X0245821Y0185475D01*
X0245855Y0185625D01*
X0245892Y0185773D01*
X0245933Y0185921D01*
X0245978Y0186067D01*
X0246027Y0186213D01*
X0246080Y0186357D01*
X0246136Y0186499D01*
X0246196Y0186640D01*
X0246260Y0186780D01*
X0246327Y0186918D01*
X0246398Y0187054D01*
X0246473Y0187188D01*
X0246550Y0187320D01*
X0246632Y0187450D01*
X0246716Y0187578D01*
X0246804Y0187704D01*
X0246895Y0187827D01*
X0246989Y0187948D01*
X0247087Y0188066D01*
X0247187Y0188182D01*
X0247291Y0188295D01*
X0247397Y0188406D01*
X0247506Y0188514D01*
X0247618Y0188619D01*
X0247732Y0188720D01*
X0247850Y0188819D01*
X0247969Y0188915D01*
X0248091Y0189008D01*
X0248216Y0189097D01*
X0248343Y0189184D01*
X0248472Y0189266D01*
X0248603Y0189346D01*
X0248736Y0189422D01*
X0248871Y0189495D01*
X0249008Y0189564D01*
X0249147Y0189629D01*
X0249287Y0189691D01*
X0249429Y0189749D01*
X0249572Y0189804D01*
X0249717Y0189855D01*
X0249863Y0189902D01*
X0250010Y0189945D01*
X0250158Y0189984D01*
X0250307Y0190020D01*
X0250457Y0190051D01*
X0250608Y0190079D01*
X0250759Y0190103D01*
X0250912Y0190123D01*
X0251064Y0190139D01*
X0251217Y0190151D01*
X0251370Y0190159D01*
X0251523Y0190163D01*
X0251677Y0190163D01*
X0251830Y0190159D01*
X0251983Y0190151D01*
X0252136Y0190139D01*
X0252288Y0190123D01*
X0252441Y0190103D01*
X0252592Y0190079D01*
X0252743Y0190051D01*
X0252893Y0190020D01*
X0253042Y0189984D01*
X0253190Y0189945D01*
X0253337Y0189902D01*
X0253483Y0189855D01*
X0253628Y0189804D01*
X0253771Y0189749D01*
X0253913Y0189691D01*
X0254053Y0189629D01*
X0254192Y0189564D01*
X0254329Y0189495D01*
X0254464Y0189422D01*
X0254597Y0189346D01*
X0254728Y0189266D01*
X0254857Y0189184D01*
X0254984Y0189097D01*
X0255109Y0189008D01*
X0255231Y0188915D01*
X0255350Y0188819D01*
X0255468Y0188720D01*
X0255582Y0188619D01*
X0255694Y0188514D01*
X0255803Y0188406D01*
X0255909Y0188295D01*
X0256013Y0188182D01*
X0256113Y0188066D01*
X0256211Y0187948D01*
X0256305Y0187827D01*
X0256396Y0187704D01*
X0256484Y0187578D01*
X0256568Y0187450D01*
X0256650Y0187320D01*
X0256727Y0187188D01*
X0256802Y0187054D01*
X0256873Y0186918D01*
X0256940Y0186780D01*
X0257004Y0186640D01*
X0257064Y0186499D01*
X0257120Y0186357D01*
X0257173Y0186213D01*
X0257222Y0186067D01*
X0257267Y0185921D01*
X0257308Y0185773D01*
X0257345Y0185625D01*
X0257379Y0185475D01*
X0257409Y0185324D01*
X0257434Y0185173D01*
X0257456Y0185022D01*
X0257474Y0184869D01*
X0257488Y0184717D01*
X0257498Y0184564D01*
X0257504Y0184410D01*
X0257506Y0184257D01*
X0257504Y0184104D01*
X0257498Y0183950D01*
X0257488Y0183797D01*
X0257474Y0183645D01*
X0257456Y0183492D01*
X0257434Y0183341D01*
X0257409Y0183190D01*
X0257379Y0183039D01*
X0257345Y0182889D01*
X0257308Y0182741D01*
X0257267Y0182593D01*
X0257222Y0182447D01*
X0257173Y0182301D01*
X0257120Y0182157D01*
X0257064Y0182015D01*
X0257004Y0181874D01*
X0256940Y0181734D01*
X0256873Y0181596D01*
X0256802Y0181460D01*
X0256727Y0181326D01*
X0256650Y0181194D01*
X0256568Y0181064D01*
X0256484Y0180936D01*
X0256396Y0180810D01*
X0256305Y0180687D01*
X0256211Y0180566D01*
X0256113Y0180448D01*
X0256013Y0180332D01*
X0255909Y0180219D01*
X0255803Y0180108D01*
X0255694Y0180000D01*
X0255582Y0179895D01*
X0255468Y0179794D01*
X0255350Y0179695D01*
X0255231Y0179599D01*
X0255109Y0179506D01*
X0254984Y0179417D01*
X0254857Y0179330D01*
X0254728Y0179248D01*
X0254597Y0179168D01*
X0254464Y0179092D01*
X0254329Y0179019D01*
X0254192Y0178950D01*
X0254053Y0178885D01*
X0253913Y0178823D01*
X0253771Y0178765D01*
X0253628Y0178710D01*
X0253483Y0178659D01*
X0253337Y0178612D01*
X0253190Y0178569D01*
X0253042Y0178530D01*
X0252893Y0178494D01*
X0252743Y0178463D01*
X0252592Y0178435D01*
X0252441Y0178411D01*
X0252288Y0178391D01*
X0252136Y0178375D01*
X0251983Y0178363D01*
X0251830Y0178355D01*
X0251677Y0178351D01*
X0251523Y0178351D01*
X0251370Y0178355D01*
X0251217Y0178363D01*
X0251064Y0178375D01*
X0250912Y0178391D01*
X0250759Y0178411D01*
X0250608Y0178435D01*
X0250457Y0178463D01*
X0250307Y0178494D01*
X0250158Y0178530D01*
X0250010Y0178569D01*
X0249863Y0178612D01*
X0249717Y0178659D01*
X0249572Y0178710D01*
X0249429Y0178765D01*
X0249287Y0178823D01*
X0249147Y0178885D01*
X0249008Y0178950D01*
X0248871Y0179019D01*
X0248736Y0179092D01*
X0248603Y0179168D01*
X0248472Y0179248D01*
X0248343Y0179330D01*
X0248216Y0179417D01*
X0248091Y0179506D01*
X0247969Y0179599D01*
X0247850Y0179695D01*
X0247732Y0179794D01*
X0247618Y0179895D01*
X0247506Y0180000D01*
X0247397Y0180108D01*
X0247291Y0180219D01*
X0247187Y0180332D01*
X0247087Y0180448D01*
X0246989Y0180566D01*
X0246895Y0180687D01*
X0246804Y0180810D01*
X0246716Y0180936D01*
X0246632Y0181064D01*
X0246550Y0181194D01*
X0246473Y0181326D01*
X0246398Y0181460D01*
X0246327Y0181596D01*
X0246260Y0181734D01*
X0246196Y0181874D01*
X0246136Y0182015D01*
X0246080Y0182157D01*
X0246027Y0182301D01*
X0245978Y0182447D01*
X0245933Y0182593D01*
X0245892Y0182741D01*
X0245855Y0182889D01*
X0245821Y0183039D01*
X0245791Y0183190D01*
X0245766Y0183341D01*
X0245744Y0183492D01*
X0245726Y0183645D01*
X0245712Y0183797D01*
X0245702Y0183950D01*
X0245696Y0184104D01*
X0245694Y0184257D01*
D11*
X0051850Y0146600D03*
D12*
X0104100Y0131100D03*
D13*
X0234592Y0117722D03*
X0234592Y0105911D03*
X0234592Y0094100D03*
X0234592Y0082289D03*
X0234592Y0070478D03*
X0234592Y0145478D03*
X0234592Y0157289D03*
X0234592Y0169100D03*
X0234592Y0180911D03*
X0234592Y0192722D03*
D14*
X0026600Y0134848D03*
X0026600Y0126974D03*
X0026600Y0119100D03*
X0026600Y0111226D03*
X0026600Y0103352D03*
X0026600Y0074907D03*
X0026600Y0067033D03*
X0026600Y0059159D03*
X0026600Y0051285D03*
X0026600Y0043411D03*
X0026600Y0035537D03*
X0026600Y0027663D03*
X0026600Y0019789D03*
D15*
X0154100Y0113663D03*
X0154100Y0126537D03*
X0199100Y0126537D03*
X0199100Y0113663D03*
D16*
X0185084Y0138726D03*
X0185084Y0144631D03*
X0185084Y0150537D03*
X0185084Y0156443D03*
X0185084Y0162348D03*
X0185084Y0168254D03*
X0185084Y0174159D03*
X0185084Y0180065D03*
X0133116Y0180065D03*
X0133116Y0174159D03*
X0133116Y0168254D03*
X0133116Y0162348D03*
X0133116Y0156443D03*
X0133116Y0150537D03*
X0133116Y0144631D03*
X0133116Y0138726D03*
D17*
X0137663Y0122840D03*
X0137663Y0115360D03*
X0145931Y0119100D03*
X0182663Y0115360D03*
X0182663Y0122840D03*
X0190931Y0119100D03*
D18*
X0206600Y0115557D03*
X0206600Y0122643D03*
X0204100Y0138057D03*
X0211600Y0138057D03*
X0211600Y0145143D03*
X0204100Y0145143D03*
X0176600Y0122643D03*
X0169100Y0122643D03*
X0169100Y0115557D03*
X0176600Y0115557D03*
X0161600Y0115557D03*
X0161600Y0122643D03*
X0131600Y0122643D03*
X0131600Y0115557D03*
X0124100Y0115557D03*
X0124100Y0122643D03*
X0114100Y0095143D03*
X0114100Y0088057D03*
X0159100Y0088057D03*
X0159100Y0095143D03*
X0166600Y0095143D03*
X0166600Y0088057D03*
X0206600Y0085143D03*
X0206600Y0078057D03*
X0214100Y0078057D03*
X0214100Y0085143D03*
X0214100Y0090557D03*
X0214100Y0097643D03*
X0126600Y0027643D03*
X0126600Y0020557D03*
X0119100Y0020557D03*
X0119100Y0027643D03*
X0111600Y0027643D03*
X0111600Y0020557D03*
X0051600Y0097557D03*
X0044100Y0097557D03*
X0044100Y0104643D03*
X0051600Y0104643D03*
X0120100Y0160557D03*
X0120100Y0167643D03*
X0194100Y0183057D03*
X0201600Y0183057D03*
X0201600Y0190143D03*
X0194100Y0190143D03*
D19*
X0113200Y0151300D03*
X0104100Y0151300D03*
X0095000Y0151300D03*
D20*
X0104100Y0126899D03*
D21*
X0103100Y0163588D03*
X0112100Y0163588D03*
X0112100Y0174612D03*
X0103100Y0174612D03*
X0196600Y0147112D03*
X0196600Y0136088D03*
D22*
X0204100Y0161600D03*
X0204100Y0171600D03*
X0216600Y0171600D03*
X0216600Y0161600D03*
D23*
G36*
X0091390Y0074244D02*
X0087856Y0070710D01*
X0086300Y0072266D01*
X0089834Y0075800D01*
X0091390Y0074244D01*
G37*
G36*
X0089163Y0076471D02*
X0085629Y0072937D01*
X0084073Y0074493D01*
X0087607Y0078027D01*
X0089163Y0076471D01*
G37*
G36*
X0086936Y0078698D02*
X0083402Y0075164D01*
X0081846Y0076720D01*
X0085380Y0080254D01*
X0086936Y0078698D01*
G37*
G36*
X0084709Y0080926D02*
X0081175Y0077392D01*
X0079619Y0078948D01*
X0083153Y0082482D01*
X0084709Y0080926D01*
G37*
G36*
X0082482Y0083153D02*
X0078948Y0079619D01*
X0077392Y0081175D01*
X0080926Y0084709D01*
X0082482Y0083153D01*
G37*
G36*
X0080254Y0085380D02*
X0076720Y0081846D01*
X0075164Y0083402D01*
X0078698Y0086936D01*
X0080254Y0085380D01*
G37*
G36*
X0078027Y0087607D02*
X0074493Y0084073D01*
X0072937Y0085629D01*
X0076471Y0089163D01*
X0078027Y0087607D01*
G37*
G36*
X0075800Y0089834D02*
X0072266Y0086300D01*
X0070710Y0087856D01*
X0074244Y0091390D01*
X0075800Y0089834D01*
G37*
G36*
X0051900Y0065934D02*
X0048366Y0062400D01*
X0046810Y0063956D01*
X0050344Y0067490D01*
X0051900Y0065934D01*
G37*
G36*
X0054127Y0063707D02*
X0050593Y0060173D01*
X0049037Y0061729D01*
X0052571Y0065263D01*
X0054127Y0063707D01*
G37*
G36*
X0056354Y0061480D02*
X0052820Y0057946D01*
X0051264Y0059502D01*
X0054798Y0063036D01*
X0056354Y0061480D01*
G37*
G36*
X0058581Y0059252D02*
X0055047Y0055718D01*
X0053491Y0057274D01*
X0057025Y0060808D01*
X0058581Y0059252D01*
G37*
G36*
X0060808Y0057025D02*
X0057274Y0053491D01*
X0055718Y0055047D01*
X0059252Y0058581D01*
X0060808Y0057025D01*
G37*
G36*
X0063036Y0054798D02*
X0059502Y0051264D01*
X0057946Y0052820D01*
X0061480Y0056354D01*
X0063036Y0054798D01*
G37*
G36*
X0065263Y0052571D02*
X0061729Y0049037D01*
X0060173Y0050593D01*
X0063707Y0054127D01*
X0065263Y0052571D01*
G37*
G36*
X0067490Y0050344D02*
X0063956Y0046810D01*
X0062400Y0048366D01*
X0065934Y0051900D01*
X0067490Y0050344D01*
G37*
D24*
G36*
X0075800Y0048366D02*
X0074244Y0046810D01*
X0070710Y0050344D01*
X0072266Y0051900D01*
X0075800Y0048366D01*
G37*
G36*
X0078027Y0050593D02*
X0076471Y0049037D01*
X0072937Y0052571D01*
X0074493Y0054127D01*
X0078027Y0050593D01*
G37*
G36*
X0080254Y0052820D02*
X0078698Y0051264D01*
X0075164Y0054798D01*
X0076720Y0056354D01*
X0080254Y0052820D01*
G37*
G36*
X0082482Y0055047D02*
X0080926Y0053491D01*
X0077392Y0057025D01*
X0078948Y0058581D01*
X0082482Y0055047D01*
G37*
G36*
X0084709Y0057274D02*
X0083153Y0055718D01*
X0079619Y0059252D01*
X0081175Y0060808D01*
X0084709Y0057274D01*
G37*
G36*
X0086936Y0059502D02*
X0085380Y0057946D01*
X0081846Y0061480D01*
X0083402Y0063036D01*
X0086936Y0059502D01*
G37*
G36*
X0089163Y0061729D02*
X0087607Y0060173D01*
X0084073Y0063707D01*
X0085629Y0065263D01*
X0089163Y0061729D01*
G37*
G36*
X0091390Y0063956D02*
X0089834Y0062400D01*
X0086300Y0065934D01*
X0087856Y0067490D01*
X0091390Y0063956D01*
G37*
G36*
X0065263Y0085629D02*
X0063707Y0084073D01*
X0060173Y0087607D01*
X0061729Y0089163D01*
X0065263Y0085629D01*
G37*
G36*
X0067490Y0087856D02*
X0065934Y0086300D01*
X0062400Y0089834D01*
X0063956Y0091390D01*
X0067490Y0087856D01*
G37*
G36*
X0063036Y0083402D02*
X0061480Y0081846D01*
X0057946Y0085380D01*
X0059502Y0086936D01*
X0063036Y0083402D01*
G37*
G36*
X0060808Y0081175D02*
X0059252Y0079619D01*
X0055718Y0083153D01*
X0057274Y0084709D01*
X0060808Y0081175D01*
G37*
G36*
X0058581Y0078948D02*
X0057025Y0077392D01*
X0053491Y0080926D01*
X0055047Y0082482D01*
X0058581Y0078948D01*
G37*
G36*
X0056354Y0076720D02*
X0054798Y0075164D01*
X0051264Y0078698D01*
X0052820Y0080254D01*
X0056354Y0076720D01*
G37*
G36*
X0054127Y0074493D02*
X0052571Y0072937D01*
X0049037Y0076471D01*
X0050593Y0078027D01*
X0054127Y0074493D01*
G37*
G36*
X0051900Y0072266D02*
X0050344Y0070710D01*
X0046810Y0074244D01*
X0048366Y0075800D01*
X0051900Y0072266D01*
G37*
D25*
X0053017Y0048233D02*
X0048967Y0044183D01*
X0052307Y0040843D02*
X0056357Y0044893D01*
X0059698Y0041552D02*
X0055648Y0037502D01*
D26*
X0054844Y0036699D02*
X0057673Y0039527D01*
X0060501Y0042356D01*
X0057161Y0045696D02*
X0054332Y0042868D01*
X0051504Y0040039D01*
X0048163Y0043380D02*
X0050992Y0046208D01*
X0053820Y0049037D01*
D27*
G36*
X0047308Y0053524D02*
X0049535Y0051297D01*
X0046196Y0047958D01*
X0043969Y0050185D01*
X0047308Y0053524D01*
G37*
G36*
X0042297Y0058535D02*
X0044524Y0056308D01*
X0041185Y0052969D01*
X0038958Y0055196D01*
X0042297Y0058535D01*
G37*
G36*
X0086039Y0086322D02*
X0083812Y0088549D01*
X0087151Y0091888D01*
X0089378Y0089661D01*
X0086039Y0086322D01*
G37*
G36*
X0091049Y0081312D02*
X0088822Y0083539D01*
X0092161Y0086878D01*
X0094388Y0084651D01*
X0091049Y0081312D01*
G37*
G36*
X0096049Y0086312D02*
X0093822Y0088539D01*
X0097161Y0091878D01*
X0099388Y0089651D01*
X0096049Y0086312D01*
G37*
G36*
X0091039Y0091322D02*
X0088812Y0093549D01*
X0092151Y0096888D01*
X0094378Y0094661D01*
X0091039Y0091322D01*
G37*
X0088057Y0164100D03*
X0095143Y0164100D03*
X0095143Y0171100D03*
X0088057Y0171100D03*
X0022643Y0204100D03*
X0015557Y0204100D03*
D28*
X0068064Y0028064D03*
X0078064Y0028064D03*
X0088064Y0028064D03*
X0088064Y0018064D03*
X0078064Y0018064D03*
X0068064Y0018064D03*
D29*
X0121600Y0082300D03*
X0126600Y0082300D03*
X0131600Y0082300D03*
X0136600Y0082300D03*
X0141600Y0082300D03*
X0146600Y0082300D03*
X0151600Y0082300D03*
X0151600Y0100900D03*
X0146600Y0100900D03*
X0141600Y0100900D03*
X0136600Y0100900D03*
X0131600Y0100900D03*
X0126600Y0100900D03*
X0121600Y0100900D03*
D30*
X0134769Y0027840D03*
X0143431Y0024100D03*
X0134769Y0020360D03*
D31*
X0157506Y0041128D03*
X0165380Y0064750D03*
X0212624Y0064750D03*
X0251600Y0025380D03*
X0251600Y0011600D03*
X0212624Y0017506D03*
X0165380Y0017506D03*
X0016100Y0154600D03*
X0016100Y0168380D03*
D32*
X0105320Y0046600D03*
X0105320Y0036600D03*
X0142880Y0036600D03*
X0142880Y0046600D03*
D33*
X0139793Y0061600D03*
X0126407Y0061600D03*
D34*
X0249100Y0049100D03*
X0249100Y0039100D03*
X0219100Y0199100D03*
X0209100Y0199100D03*
X0019100Y0194100D03*
X0019100Y0184100D03*
D35*
X0051757Y0146600D03*
D36*
X0080498Y0137624D03*
X0080498Y0155576D03*
D37*
X0090970Y0194100D03*
X0112230Y0194100D03*
D38*
X0074848Y0186600D03*
X0043352Y0186600D03*
D39*
X0194100Y0094572D03*
X0194100Y0078628D03*
D40*
X0079002Y0116600D03*
X0054198Y0116600D03*
D41*
X0057100Y0113698D01*
X0057100Y0098600D01*
X0056057Y0097557D01*
X0051600Y0097557D01*
X0044100Y0097557D01*
X0044100Y0091100D01*
X0045100Y0090100D01*
X0041811Y0090355D02*
X0041811Y0089446D01*
X0042312Y0088237D01*
X0043237Y0087312D01*
X0044446Y0086811D01*
X0045417Y0086811D01*
X0040065Y0081459D01*
X0039700Y0080577D01*
X0039700Y0073594D01*
X0030675Y0064569D01*
X0031002Y0065210D01*
X0031233Y0065921D01*
X0031350Y0066659D01*
X0031350Y0066944D01*
X0026689Y0066944D01*
X0026689Y0067122D01*
X0031350Y0067122D01*
X0031350Y0067407D01*
X0031233Y0068145D01*
X0031002Y0068856D01*
X0030662Y0069522D01*
X0030223Y0070127D01*
X0029694Y0070656D01*
X0029494Y0070801D01*
X0030796Y0072103D01*
X0031550Y0073923D01*
X0031550Y0075892D01*
X0030796Y0077711D01*
X0029404Y0079103D01*
X0027585Y0079857D01*
X0025615Y0079857D01*
X0023796Y0079103D01*
X0022404Y0077711D01*
X0022320Y0077507D01*
X0020370Y0077507D01*
X0019700Y0078177D01*
X0019700Y0123523D01*
X0020551Y0124374D01*
X0022320Y0124374D01*
X0022404Y0124170D01*
X0023537Y0123037D01*
X0022404Y0121904D01*
X0021650Y0120085D01*
X0021650Y0118115D01*
X0022404Y0116296D01*
X0023537Y0115163D01*
X0022404Y0114030D01*
X0021650Y0112211D01*
X0021650Y0110241D01*
X0022404Y0108422D01*
X0023537Y0107289D01*
X0022404Y0106156D01*
X0021650Y0104337D01*
X0021650Y0102367D01*
X0022404Y0100548D01*
X0023796Y0099156D01*
X0025615Y0098402D01*
X0027585Y0098402D01*
X0029404Y0099156D01*
X0030796Y0100548D01*
X0030963Y0100952D01*
X0043286Y0100952D01*
X0044050Y0101269D01*
X0047208Y0101269D01*
X0047850Y0101911D01*
X0048492Y0101269D01*
X0054700Y0101269D01*
X0054700Y0100931D01*
X0048492Y0100931D01*
X0047850Y0100289D01*
X0047208Y0100931D01*
X0040992Y0100931D01*
X0039938Y0099877D01*
X0039938Y0095236D01*
X0040992Y0094182D01*
X0041700Y0094182D01*
X0041700Y0090623D01*
X0041811Y0090355D01*
X0041792Y0090400D02*
X0019700Y0090400D01*
X0019700Y0088000D02*
X0042549Y0088000D01*
X0042200Y0088507D02*
X0042200Y0083594D01*
X0041806Y0083200D02*
X0019700Y0083200D01*
X0019700Y0085600D02*
X0044206Y0085600D01*
X0044600Y0085994D02*
X0044600Y0086811D01*
X0048600Y0081600D02*
X0049919Y0081600D01*
X0053809Y0077709D01*
X0051582Y0075482D02*
X0048964Y0078100D01*
X0045600Y0078100D01*
X0042100Y0080100D02*
X0055100Y0093100D01*
X0060690Y0093100D01*
X0064945Y0088845D01*
X0067491Y0090400D02*
X0070709Y0090400D01*
X0071000Y0090691D02*
X0071000Y0143200D01*
X0069900Y0143200D02*
X0083106Y0143200D01*
X0083700Y0142606D01*
X0083700Y0141192D01*
X0080882Y0141192D01*
X0080882Y0138008D01*
X0080113Y0138008D01*
X0080113Y0137239D01*
X0075748Y0137239D01*
X0075748Y0135444D01*
X0075857Y0135038D01*
X0076068Y0134673D01*
X0076366Y0134375D01*
X0076730Y0134164D01*
X0077137Y0134055D01*
X0080113Y0134055D01*
X0080113Y0137239D01*
X0080882Y0137239D01*
X0080882Y0134055D01*
X0083700Y0134055D01*
X0083700Y0125851D01*
X0083312Y0125463D01*
X0082811Y0124254D01*
X0082811Y0122946D01*
X0083312Y0121737D01*
X0083699Y0121350D01*
X0079602Y0121350D01*
X0079602Y0117200D01*
X0085106Y0117200D01*
X0091700Y0110606D01*
X0091700Y0098425D01*
X0091534Y0098380D01*
X0091169Y0098170D01*
X0089482Y0096483D01*
X0091594Y0094371D01*
X0091329Y0094106D01*
X0089217Y0096218D01*
X0087530Y0094531D01*
X0087320Y0094166D01*
X0087211Y0093759D01*
X0087211Y0093489D01*
X0086941Y0093489D01*
X0086534Y0093380D01*
X0086169Y0093170D01*
X0084482Y0091483D01*
X0086594Y0089371D01*
X0086329Y0089106D01*
X0084217Y0091218D01*
X0083389Y0090390D01*
X0083389Y0091254D01*
X0082888Y0092463D01*
X0081963Y0093388D01*
X0080754Y0093889D01*
X0079446Y0093889D01*
X0079389Y0093865D01*
X0079389Y0094754D01*
X0078888Y0095963D01*
X0077963Y0096888D01*
X0076754Y0097389D01*
X0075446Y0097389D01*
X0074237Y0096888D01*
X0073312Y0095963D01*
X0072811Y0094754D01*
X0072811Y0093446D01*
X0073087Y0092778D01*
X0069100Y0088791D01*
X0064700Y0093191D01*
X0063993Y0093191D01*
X0062724Y0094459D01*
X0062049Y0095135D01*
X0061167Y0095500D01*
X0057363Y0095500D01*
X0057416Y0095522D01*
X0059135Y0097241D01*
X0059500Y0098123D01*
X0059500Y0111679D01*
X0060526Y0112705D01*
X0060526Y0120495D01*
X0059472Y0121550D01*
X0048925Y0121550D01*
X0047871Y0120495D01*
X0047871Y0114223D01*
X0033761Y0128333D01*
X0033761Y0128334D01*
X0033085Y0129009D01*
X0032203Y0129374D01*
X0030963Y0129374D01*
X0030796Y0129778D01*
X0029494Y0131080D01*
X0029694Y0131225D01*
X0030223Y0131754D01*
X0030662Y0132359D01*
X0031002Y0133025D01*
X0031233Y0133736D01*
X0031350Y0134474D01*
X0031350Y0134759D01*
X0026689Y0134759D01*
X0026689Y0134937D01*
X0031350Y0134937D01*
X0031350Y0135222D01*
X0031233Y0135960D01*
X0031002Y0136671D01*
X0030662Y0137337D01*
X0030223Y0137942D01*
X0029694Y0138471D01*
X0029089Y0138910D01*
X0028423Y0139250D01*
X0027712Y0139481D01*
X0026974Y0139598D01*
X0026689Y0139598D01*
X0026689Y0134937D01*
X0026511Y0134937D01*
X0026511Y0134759D01*
X0021850Y0134759D01*
X0021850Y0134474D01*
X0021967Y0133736D01*
X0022198Y0133025D01*
X0022538Y0132359D01*
X0022977Y0131754D01*
X0023506Y0131225D01*
X0023706Y0131080D01*
X0022404Y0129778D01*
X0022320Y0129574D01*
X0020303Y0129574D01*
X0019700Y0130177D01*
X0019700Y0136023D01*
X0027677Y0144000D01*
X0033800Y0144000D01*
X0033800Y0131354D01*
X0034854Y0130300D01*
X0068846Y0130300D01*
X0069900Y0131354D01*
X0069900Y0143200D01*
X0069900Y0140800D02*
X0076293Y0140800D01*
X0076366Y0140872D02*
X0076068Y0140575D01*
X0075857Y0140210D01*
X0075748Y0139803D01*
X0075748Y0138008D01*
X0080113Y0138008D01*
X0080113Y0141192D01*
X0077137Y0141192D01*
X0076730Y0141083D01*
X0076366Y0140872D01*
X0075800Y0139997D02*
X0075800Y0143200D01*
X0078200Y0143200D02*
X0078200Y0141192D01*
X0080113Y0140800D02*
X0080882Y0140800D01*
X0083000Y0141192D02*
X0083000Y0143200D01*
X0080600Y0143200D02*
X0080600Y0138008D01*
X0080882Y0138400D02*
X0080113Y0138400D01*
X0080600Y0137239D02*
X0080600Y0121350D01*
X0078402Y0121350D02*
X0074263Y0121350D01*
X0073856Y0121241D01*
X0073492Y0121030D01*
X0073194Y0120732D01*
X0072983Y0120367D01*
X0072874Y0119960D01*
X0072874Y0117200D01*
X0078402Y0117200D01*
X0078402Y0121350D01*
X0078200Y0121350D02*
X0078200Y0134055D01*
X0075800Y0135251D02*
X0075800Y0121350D01*
X0073400Y0120938D02*
X0073400Y0143200D01*
X0075748Y0138400D02*
X0069900Y0138400D01*
X0069900Y0136000D02*
X0075748Y0136000D01*
X0075800Y0137239D02*
X0075800Y0138008D01*
X0078200Y0138008D02*
X0078200Y0137239D01*
X0080113Y0136000D02*
X0080882Y0136000D01*
X0083000Y0134055D02*
X0083000Y0124710D01*
X0082811Y0124000D02*
X0038094Y0124000D01*
X0037400Y0124694D02*
X0037400Y0130300D01*
X0035000Y0130300D02*
X0035000Y0127094D01*
X0035694Y0126400D02*
X0083700Y0126400D01*
X0083700Y0128800D02*
X0033294Y0128800D01*
X0032600Y0129210D02*
X0032600Y0144000D01*
X0033800Y0143200D02*
X0026877Y0143200D01*
X0027800Y0144000D02*
X0027800Y0139452D01*
X0026511Y0139598D02*
X0026226Y0139598D01*
X0025488Y0139481D01*
X0024777Y0139250D01*
X0024111Y0138910D01*
X0023506Y0138471D01*
X0022977Y0137942D01*
X0022538Y0137337D01*
X0022198Y0136671D01*
X0021967Y0135960D01*
X0021850Y0135222D01*
X0021850Y0134937D01*
X0026511Y0134937D01*
X0026511Y0139598D01*
X0025400Y0139452D02*
X0025400Y0141723D01*
X0024477Y0140800D02*
X0033800Y0140800D01*
X0030200Y0137965D02*
X0030200Y0144000D01*
X0030200Y0149200D02*
X0030200Y0164980D01*
X0032600Y0164980D02*
X0032600Y0149200D01*
X0033800Y0149200D02*
X0026083Y0149200D01*
X0025127Y0148804D01*
X0015627Y0139304D01*
X0014896Y0138573D01*
X0014500Y0137617D01*
X0014500Y0016583D01*
X0014896Y0015627D01*
X0020896Y0009627D01*
X0021627Y0008896D01*
X0022583Y0008500D01*
X0084617Y0008500D01*
X0085573Y0008896D01*
X0089241Y0012564D01*
X0090343Y0012564D01*
X0093564Y0015786D01*
X0093564Y0020343D01*
X0090843Y0023064D01*
X0093564Y0025786D01*
X0093564Y0026743D01*
X0093565Y0026741D01*
X0094609Y0025697D01*
X0095284Y0025022D01*
X0096166Y0024657D01*
X0103149Y0024657D01*
X0103700Y0024106D01*
X0103700Y0021623D01*
X0104065Y0020741D01*
X0105609Y0019197D01*
X0106284Y0018522D01*
X0107166Y0018157D01*
X0107517Y0018157D01*
X0108492Y0017182D01*
X0114708Y0017182D01*
X0115350Y0017824D01*
X0115992Y0017182D01*
X0122208Y0017182D01*
X0122991Y0017966D01*
X0123255Y0017702D01*
X0123620Y0017491D01*
X0124027Y0017382D01*
X0126413Y0017382D01*
X0126413Y0020369D01*
X0126787Y0020369D01*
X0126787Y0017382D01*
X0129173Y0017382D01*
X0129580Y0017491D01*
X0129945Y0017702D01*
X0130243Y0017999D01*
X0130413Y0018295D01*
X0130413Y0018181D01*
X0130522Y0017774D01*
X0130733Y0017409D01*
X0131031Y0017111D01*
X0131396Y0016900D01*
X0131803Y0016791D01*
X0134385Y0016791D01*
X0134385Y0019976D01*
X0130562Y0019976D01*
X0130562Y0020369D01*
X0126787Y0020369D01*
X0126787Y0020744D01*
X0126413Y0020744D01*
X0126413Y0023731D01*
X0125669Y0023731D01*
X0126206Y0024269D01*
X0129708Y0024269D01*
X0130389Y0024950D01*
X0131268Y0024072D01*
X0138271Y0024072D01*
X0138875Y0024676D01*
X0138875Y0023191D01*
X0138805Y0023311D01*
X0138508Y0023609D01*
X0138143Y0023819D01*
X0137736Y0023928D01*
X0135154Y0023928D01*
X0135154Y0020744D01*
X0139125Y0020744D01*
X0139125Y0021136D01*
X0139929Y0020331D01*
X0143805Y0020331D01*
X0146736Y0017400D01*
X0146736Y0016851D01*
X0147237Y0015642D01*
X0148162Y0014717D01*
X0149371Y0014217D01*
X0150679Y0014217D01*
X0151888Y0014717D01*
X0152277Y0015106D01*
X0159771Y0015106D01*
X0160208Y0014050D01*
X0161924Y0012334D01*
X0164166Y0011406D01*
X0166593Y0011406D01*
X0168835Y0012334D01*
X0170551Y0014050D01*
X0171480Y0016292D01*
X0171480Y0018719D01*
X0170551Y0020961D01*
X0168835Y0022677D01*
X0166593Y0023605D01*
X0164166Y0023605D01*
X0161924Y0022677D01*
X0160208Y0020961D01*
X0159771Y0019905D01*
X0152277Y0019905D01*
X0151888Y0020294D01*
X0150679Y0020794D01*
X0150130Y0020794D01*
X0147987Y0022938D01*
X0147987Y0026814D01*
X0146932Y0027868D01*
X0139929Y0027868D01*
X0139325Y0027264D01*
X0139325Y0030554D01*
X0138271Y0031609D01*
X0131268Y0031609D01*
X0130213Y0030554D01*
X0130213Y0030512D01*
X0129708Y0031018D01*
X0123492Y0031018D01*
X0122850Y0030376D01*
X0122208Y0031018D01*
X0121500Y0031018D01*
X0121500Y0031106D01*
X0124594Y0034200D01*
X0137143Y0034200D01*
X0137143Y0032705D01*
X0138197Y0031650D01*
X0147562Y0031650D01*
X0148617Y0032705D01*
X0148617Y0040495D01*
X0147562Y0041550D01*
X0138197Y0041550D01*
X0137143Y0040495D01*
X0137143Y0039000D01*
X0128651Y0039000D01*
X0129388Y0039737D01*
X0129889Y0040946D01*
X0129889Y0042254D01*
X0129388Y0043463D01*
X0128807Y0044044D01*
X0128807Y0052242D01*
X0129487Y0051562D01*
X0130696Y0051061D01*
X0131245Y0051061D01*
X0137143Y0045163D01*
X0137143Y0042705D01*
X0138197Y0041650D01*
X0147562Y0041650D01*
X0148617Y0042705D01*
X0148617Y0050495D01*
X0147562Y0051550D01*
X0142193Y0051550D01*
X0142193Y0056257D01*
X0143294Y0056257D01*
X0144349Y0057311D01*
X0144349Y0062350D01*
X0159771Y0062350D01*
X0160208Y0061294D01*
X0161924Y0059578D01*
X0164166Y0058650D01*
X0166593Y0058650D01*
X0168835Y0059578D01*
X0170551Y0061294D01*
X0171480Y0063536D01*
X0171480Y0065963D01*
X0170551Y0068205D01*
X0168835Y0069921D01*
X0166593Y0070850D01*
X0164166Y0070850D01*
X0161924Y0069921D01*
X0160208Y0068205D01*
X0159771Y0067150D01*
X0142465Y0067150D01*
X0141967Y0066943D01*
X0137837Y0066943D01*
X0143594Y0072700D01*
X0169577Y0072700D01*
X0170459Y0073065D01*
X0171135Y0073741D01*
X0174459Y0077065D01*
X0175135Y0077741D01*
X0175500Y0078623D01*
X0175500Y0098077D01*
X0175135Y0098959D01*
X0171159Y0102935D01*
X0170277Y0103300D01*
X0154500Y0103300D01*
X0154500Y0104200D01*
X0219077Y0104200D01*
X0219959Y0104565D01*
X0226959Y0111565D01*
X0227635Y0112241D01*
X0228000Y0113123D01*
X0228000Y0165106D01*
X0229594Y0166700D01*
X0230066Y0166700D01*
X0230269Y0166211D01*
X0231703Y0164776D01*
X0233578Y0164000D01*
X0235607Y0164000D01*
X0237481Y0164776D01*
X0238700Y0165995D01*
X0238700Y0160394D01*
X0237481Y0161613D01*
X0235607Y0162389D01*
X0233578Y0162389D01*
X0231703Y0161613D01*
X0230269Y0160178D01*
X0229492Y0158303D01*
X0229492Y0156275D01*
X0230269Y0154400D01*
X0231703Y0152965D01*
X0233578Y0152189D01*
X0235607Y0152189D01*
X0237481Y0152965D01*
X0238700Y0154184D01*
X0238700Y0148583D01*
X0237481Y0149802D01*
X0235607Y0150578D01*
X0233578Y0150578D01*
X0231703Y0149802D01*
X0230269Y0148367D01*
X0229492Y0146492D01*
X0229492Y0144463D01*
X0230269Y0142589D01*
X0231703Y0141154D01*
X0233578Y0140378D01*
X0235607Y0140378D01*
X0237481Y0141154D01*
X0238700Y0142373D01*
X0238700Y0122508D01*
X0237859Y0121667D01*
X0237481Y0122046D01*
X0235607Y0122822D01*
X0233578Y0122822D01*
X0231703Y0122046D01*
X0230269Y0120611D01*
X0229492Y0118737D01*
X0229492Y0116708D01*
X0230269Y0114833D01*
X0231703Y0113398D01*
X0233578Y0112622D01*
X0235607Y0112622D01*
X0237481Y0113398D01*
X0238405Y0114322D01*
X0239398Y0114322D01*
X0240648Y0114840D01*
X0241604Y0115796D01*
X0241604Y0115796D01*
X0244026Y0118218D01*
X0244982Y0119174D01*
X0245500Y0120424D01*
X0245500Y0145334D01*
X0247545Y0144153D01*
X0250217Y0143437D01*
X0252983Y0143437D01*
X0255655Y0144153D01*
X0258051Y0145536D01*
X0260006Y0147492D01*
X0261390Y0149888D01*
X0262105Y0152559D01*
X0262105Y0155326D01*
X0261390Y0157997D01*
X0260006Y0160393D01*
X0258051Y0162349D01*
X0255655Y0163732D01*
X0252983Y0164448D01*
X0250217Y0164448D01*
X0247545Y0163732D01*
X0245500Y0162551D01*
X0245500Y0175649D01*
X0247545Y0174468D01*
X0250217Y0173752D01*
X0252983Y0173752D01*
X0255655Y0174468D01*
X0258051Y0175851D01*
X0260006Y0177807D01*
X0261390Y0180202D01*
X0262105Y0182874D01*
X0262105Y0185641D01*
X0261390Y0188312D01*
X0260006Y0190708D01*
X0258051Y0192664D01*
X0255655Y0194047D01*
X0252983Y0194763D01*
X0250217Y0194763D01*
X0247545Y0194047D01*
X0245149Y0192664D01*
X0244247Y0191761D01*
X0240404Y0195604D01*
X0239154Y0196122D01*
X0238405Y0196122D01*
X0237481Y0197046D01*
X0235607Y0197822D01*
X0233578Y0197822D01*
X0231703Y0197046D01*
X0230269Y0195611D01*
X0229492Y0193737D01*
X0229492Y0191708D01*
X0230269Y0189833D01*
X0231703Y0188398D01*
X0233578Y0187622D01*
X0235607Y0187622D01*
X0237481Y0188398D01*
X0237737Y0188655D01*
X0238700Y0187692D01*
X0238700Y0183593D01*
X0238330Y0184103D01*
X0237784Y0184649D01*
X0237160Y0185102D01*
X0236473Y0185452D01*
X0235740Y0185690D01*
X0234978Y0185811D01*
X0234976Y0185811D01*
X0234976Y0181295D01*
X0234208Y0181295D01*
X0234208Y0180527D01*
X0229692Y0180527D01*
X0229692Y0180525D01*
X0229813Y0179764D01*
X0230051Y0179030D01*
X0230401Y0178343D01*
X0230855Y0177719D01*
X0231400Y0177174D01*
X0232024Y0176720D01*
X0232711Y0176370D01*
X0233445Y0176132D01*
X0234206Y0176011D01*
X0234208Y0176011D01*
X0234208Y0180527D01*
X0234976Y0180527D01*
X0234976Y0176011D01*
X0234978Y0176011D01*
X0235740Y0176132D01*
X0236473Y0176370D01*
X0237160Y0176720D01*
X0237784Y0177174D01*
X0238330Y0177719D01*
X0238700Y0178229D01*
X0238700Y0172205D01*
X0237481Y0173424D01*
X0235607Y0174200D01*
X0233578Y0174200D01*
X0231703Y0173424D01*
X0230269Y0171989D01*
X0230066Y0171500D01*
X0228123Y0171500D01*
X0227241Y0171135D01*
X0226565Y0170459D01*
X0225500Y0169394D01*
X0225500Y0183077D01*
X0225135Y0183959D01*
X0224459Y0184635D01*
X0221135Y0187959D01*
X0220459Y0188635D01*
X0219577Y0189000D01*
X0205762Y0189000D01*
X0205762Y0192464D01*
X0204708Y0193518D01*
X0204000Y0193518D01*
X0204000Y0195606D01*
X0204691Y0196297D01*
X0206988Y0194000D01*
X0211212Y0194000D01*
X0214200Y0196988D01*
X0214200Y0201212D01*
X0211212Y0204200D01*
X0206988Y0204200D01*
X0204288Y0201500D01*
X0203623Y0201500D01*
X0202741Y0201135D01*
X0199565Y0197959D01*
X0199200Y0197077D01*
X0199200Y0193518D01*
X0198492Y0193518D01*
X0197850Y0192876D01*
X0197208Y0193518D01*
X0190992Y0193518D01*
X0190474Y0193000D01*
X0189623Y0193000D01*
X0188741Y0192635D01*
X0188065Y0191959D01*
X0187741Y0191635D01*
X0187065Y0190959D01*
X0186700Y0190077D01*
X0186700Y0183833D01*
X0180992Y0183833D01*
X0179938Y0182779D01*
X0179938Y0182423D01*
X0179241Y0182135D01*
X0178565Y0181459D01*
X0176565Y0179459D01*
X0176200Y0178577D01*
X0176200Y0171851D01*
X0175812Y0171463D01*
X0175311Y0170254D01*
X0175311Y0168946D01*
X0175812Y0167737D01*
X0176737Y0166812D01*
X0177946Y0166311D01*
X0179254Y0166311D01*
X0179938Y0166594D01*
X0179938Y0165539D01*
X0180176Y0165301D01*
X0179938Y0165062D01*
X0179938Y0159634D01*
X0180355Y0159216D01*
X0180247Y0159029D01*
X0180138Y0158622D01*
X0180138Y0156827D01*
X0184700Y0156827D01*
X0184700Y0156058D01*
X0180138Y0156058D01*
X0180138Y0154263D01*
X0180247Y0153856D01*
X0180355Y0153669D01*
X0179938Y0153251D01*
X0179938Y0147823D01*
X0180176Y0147584D01*
X0179938Y0147346D01*
X0179938Y0141917D01*
X0180176Y0141679D01*
X0179938Y0141440D01*
X0179938Y0136012D01*
X0180992Y0134957D01*
X0185459Y0134957D01*
X0186219Y0134197D01*
X0186894Y0133522D01*
X0187776Y0133157D01*
X0191257Y0133157D01*
X0191257Y0132193D01*
X0191450Y0132000D01*
X0178851Y0132000D01*
X0178463Y0132388D01*
X0177254Y0132889D01*
X0175946Y0132889D01*
X0174737Y0132388D01*
X0173812Y0131463D01*
X0173311Y0130254D01*
X0173311Y0128946D01*
X0173812Y0127737D01*
X0174200Y0127349D01*
X0174200Y0126018D01*
X0173492Y0126018D01*
X0172850Y0125376D01*
X0172208Y0126018D01*
X0171500Y0126018D01*
X0171500Y0159077D01*
X0171135Y0159959D01*
X0166711Y0164383D01*
X0165829Y0164748D01*
X0138262Y0164748D01*
X0138262Y0165062D01*
X0138024Y0165301D01*
X0138262Y0165539D01*
X0138262Y0170968D01*
X0138024Y0171206D01*
X0138262Y0171445D01*
X0138262Y0176873D01*
X0138024Y0177112D01*
X0138262Y0177350D01*
X0138262Y0182779D01*
X0137208Y0183833D01*
X0129024Y0183833D01*
X0127969Y0182779D01*
X0127969Y0177350D01*
X0128208Y0177112D01*
X0127969Y0176873D01*
X0127969Y0176264D01*
X0127800Y0176194D01*
X0126241Y0174635D01*
X0125565Y0173959D01*
X0125200Y0173077D01*
X0125200Y0129594D01*
X0122741Y0127135D01*
X0122741Y0127135D01*
X0122065Y0126459D01*
X0121883Y0126018D01*
X0120992Y0126018D01*
X0119938Y0124964D01*
X0119938Y0121500D01*
X0119900Y0121500D01*
X0119900Y0143846D01*
X0118846Y0144900D01*
X0106700Y0144900D01*
X0106700Y0145100D01*
X0107246Y0145100D01*
X0108300Y0146154D01*
X0108300Y0154123D01*
X0109200Y0155023D01*
X0109200Y0151900D01*
X0112600Y0151900D01*
X0112600Y0157300D01*
X0111477Y0157300D01*
X0112816Y0158639D01*
X0113373Y0158639D01*
X0113659Y0158353D01*
X0114614Y0157957D01*
X0116217Y0157957D01*
X0116992Y0157182D01*
X0123208Y0157182D01*
X0124262Y0158236D01*
X0124262Y0162877D01*
X0123208Y0163931D01*
X0117443Y0163931D01*
X0117443Y0164491D01*
X0117527Y0164469D01*
X0119913Y0164468D01*
X0119913Y0167456D01*
X0120287Y0167456D01*
X0120287Y0164469D01*
X0122673Y0164469D01*
X0123080Y0164578D01*
X0123445Y0164788D01*
X0123743Y0165086D01*
X0123953Y0165451D01*
X0124062Y0165858D01*
X0124062Y0167456D01*
X0120287Y0167456D01*
X0120287Y0167831D01*
X0119913Y0167831D01*
X0119913Y0170818D01*
X0117527Y0170818D01*
X0117120Y0170709D01*
X0117024Y0170653D01*
X0117134Y0170845D01*
X0117243Y0171252D01*
X0117243Y0174012D01*
X0112700Y0174012D01*
X0112700Y0175212D01*
X0111500Y0175212D01*
X0111500Y0179361D01*
X0108346Y0179361D01*
X0107939Y0179252D01*
X0107600Y0179057D01*
X0107261Y0179252D01*
X0106854Y0179361D01*
X0103700Y0179361D01*
X0103700Y0175212D01*
X0102500Y0175212D01*
X0102500Y0179361D01*
X0099346Y0179361D01*
X0098939Y0179252D01*
X0098574Y0179042D01*
X0098276Y0178744D01*
X0098066Y0178379D01*
X0097957Y0177972D01*
X0097957Y0175212D01*
X0102500Y0175212D01*
X0102500Y0174012D01*
X0098227Y0174012D01*
X0098209Y0174080D01*
X0097998Y0174445D01*
X0097701Y0174743D01*
X0097336Y0174953D01*
X0096929Y0175062D01*
X0095331Y0175062D01*
X0095331Y0171287D01*
X0094956Y0171287D01*
X0094956Y0170913D01*
X0091969Y0170913D01*
X0091969Y0168527D01*
X0092078Y0168120D01*
X0092288Y0167755D01*
X0092444Y0167600D01*
X0092288Y0167445D01*
X0092078Y0167080D01*
X0091969Y0166673D01*
X0091968Y0164287D01*
X0094956Y0164287D01*
X0094956Y0163913D01*
X0091969Y0163913D01*
X0091969Y0161527D01*
X0092078Y0161120D01*
X0092288Y0160755D01*
X0092586Y0160457D01*
X0092951Y0160247D01*
X0093358Y0160138D01*
X0094956Y0160138D01*
X0094956Y0163913D01*
X0095331Y0163913D01*
X0095331Y0160138D01*
X0095973Y0160138D01*
X0093527Y0157692D01*
X0093335Y0157500D01*
X0091854Y0157500D01*
X0090800Y0156446D01*
X0090800Y0154700D01*
X0090657Y0154700D01*
X0090657Y0160217D01*
X0091431Y0160992D01*
X0091431Y0167208D01*
X0091039Y0167600D01*
X0091431Y0167992D01*
X0091431Y0174208D01*
X0090377Y0175262D01*
X0085736Y0175262D01*
X0084682Y0174208D01*
X0084682Y0173700D01*
X0083878Y0173700D01*
X0082922Y0173304D01*
X0082191Y0172573D01*
X0079813Y0170195D01*
X0079026Y0170982D01*
X0077776Y0171500D01*
X0065772Y0171500D01*
X0064852Y0171881D01*
X0063348Y0171881D01*
X0062428Y0171500D01*
X0050012Y0171500D01*
X0046752Y0174760D01*
X0046752Y0179879D01*
X0051972Y0179879D01*
X0053026Y0180933D01*
X0053026Y0192267D01*
X0051972Y0193321D01*
X0034732Y0193321D01*
X0033678Y0192267D01*
X0033678Y0180933D01*
X0034732Y0179879D01*
X0039952Y0179879D01*
X0039952Y0174760D01*
X0036971Y0171780D01*
X0021294Y0171780D01*
X0021271Y0171835D01*
X0019555Y0173551D01*
X0017313Y0174480D01*
X0014887Y0174480D01*
X0012645Y0173551D01*
X0010929Y0171835D01*
X0010000Y0169593D01*
X0010000Y0167166D01*
X0010929Y0164924D01*
X0012645Y0163208D01*
X0014887Y0162280D01*
X0017313Y0162280D01*
X0019555Y0163208D01*
X0021271Y0164924D01*
X0021294Y0164980D01*
X0039056Y0164980D01*
X0040305Y0165497D01*
X0043352Y0168544D01*
X0045722Y0166174D01*
X0046678Y0165218D01*
X0047928Y0164700D01*
X0062428Y0164700D01*
X0063348Y0164319D01*
X0064852Y0164319D01*
X0065772Y0164700D01*
X0075692Y0164700D01*
X0076365Y0164026D01*
X0077098Y0163294D01*
X0077098Y0159345D01*
X0076602Y0159345D01*
X0075548Y0158290D01*
X0075548Y0152862D01*
X0076602Y0151808D01*
X0083500Y0151808D01*
X0081692Y0150000D01*
X0069900Y0150000D01*
X0069900Y0161846D01*
X0068846Y0162900D01*
X0034854Y0162900D01*
X0033800Y0161846D01*
X0033800Y0149200D01*
X0033800Y0150400D02*
X0020244Y0150400D01*
X0019944Y0150100D02*
X0020600Y0150756D01*
X0020600Y0144277D01*
X0019523Y0143200D02*
X0006200Y0143200D01*
X0006200Y0140800D02*
X0017123Y0140800D01*
X0018200Y0141877D02*
X0018200Y0149079D01*
X0018365Y0149132D02*
X0019192Y0149554D01*
X0019944Y0150100D01*
X0020600Y0150756D02*
X0021146Y0151508D01*
X0021568Y0152335D01*
X0021855Y0153218D01*
X0022000Y0154136D01*
X0022000Y0154216D01*
X0016484Y0154216D01*
X0016484Y0148700D01*
X0016564Y0148700D01*
X0017482Y0148845D01*
X0018365Y0149132D01*
X0016484Y0150400D02*
X0015716Y0150400D01*
X0015716Y0148700D02*
X0015716Y0154216D01*
X0010200Y0154216D01*
X0010200Y0154136D01*
X0010345Y0153218D01*
X0010632Y0152335D01*
X0011054Y0151508D01*
X0011600Y0150756D01*
X0012256Y0150100D01*
X0013008Y0149554D01*
X0013835Y0149132D01*
X0014718Y0148845D01*
X0015636Y0148700D01*
X0015716Y0148700D01*
X0013400Y0149354D02*
X0013400Y0006200D01*
X0011000Y0006200D02*
X0011000Y0151613D01*
X0010481Y0152800D02*
X0006200Y0152800D01*
X0006200Y0150400D02*
X0011956Y0150400D01*
X0015716Y0152800D02*
X0016484Y0152800D01*
X0016484Y0154216D02*
X0015716Y0154216D01*
X0015716Y0154984D01*
X0010200Y0154984D01*
X0010200Y0155064D01*
X0010345Y0155982D01*
X0010632Y0156865D01*
X0011054Y0157692D01*
X0011600Y0158444D01*
X0012256Y0159100D01*
X0013008Y0159646D01*
X0013835Y0160068D01*
X0014718Y0160355D01*
X0015636Y0160500D01*
X0015716Y0160500D01*
X0015716Y0154984D01*
X0016484Y0154984D01*
X0016484Y0160500D01*
X0016564Y0160500D01*
X0017482Y0160355D01*
X0018365Y0160068D01*
X0019192Y0159646D01*
X0019944Y0159100D01*
X0020600Y0158444D01*
X0020600Y0164253D01*
X0021147Y0164800D02*
X0047686Y0164800D01*
X0047000Y0165084D02*
X0047000Y0162900D01*
X0049400Y0162900D02*
X0049400Y0164700D01*
X0051800Y0164700D02*
X0051800Y0162900D01*
X0054200Y0162900D02*
X0054200Y0164700D01*
X0056600Y0164700D02*
X0056600Y0162900D01*
X0059000Y0162900D02*
X0059000Y0164700D01*
X0061400Y0164700D02*
X0061400Y0162900D01*
X0063800Y0162900D02*
X0063800Y0164319D01*
X0066200Y0164700D02*
X0066200Y0162900D01*
X0068600Y0162900D02*
X0068600Y0164700D01*
X0071000Y0164700D02*
X0071000Y0150000D01*
X0069900Y0150400D02*
X0082092Y0150400D01*
X0083000Y0151308D02*
X0083000Y0151808D01*
X0080600Y0151808D02*
X0080600Y0150000D01*
X0078200Y0150000D02*
X0078200Y0151808D01*
X0075800Y0152610D02*
X0075800Y0150000D01*
X0073400Y0150000D02*
X0073400Y0164700D01*
X0075800Y0164592D02*
X0075800Y0158542D01*
X0075548Y0157600D02*
X0069900Y0157600D01*
X0069900Y0155200D02*
X0075548Y0155200D01*
X0075610Y0152800D02*
X0069900Y0152800D01*
X0061600Y0146600D02*
X0051757Y0146600D01*
X0051757Y0154257D01*
X0054100Y0156600D01*
X0051757Y0153943D02*
X0049100Y0156600D01*
X0049100Y0151600D01*
X0049100Y0149257D01*
X0046757Y0151600D01*
X0044100Y0154257D01*
X0044100Y0156600D01*
X0039100Y0156600D02*
X0039100Y0151600D01*
X0039100Y0146600D01*
X0039100Y0141600D01*
X0039100Y0136600D01*
X0044100Y0136600D01*
X0051757Y0144257D01*
X0051757Y0146600D01*
X0059100Y0139257D01*
X0059100Y0136600D01*
X0054100Y0136600D02*
X0054100Y0141600D01*
X0054100Y0144257D01*
X0051757Y0146600D01*
X0054100Y0146600D01*
X0059100Y0151600D01*
X0059100Y0153943D02*
X0059100Y0156600D01*
X0054100Y0151600D01*
X0051757Y0149257D01*
X0051757Y0146600D01*
X0056757Y0141600D01*
X0059100Y0141600D01*
X0054100Y0141600D02*
X0051757Y0143943D01*
X0051757Y0146600D01*
X0051757Y0153943D01*
X0054100Y0151600D02*
X0054100Y0148943D01*
X0051757Y0146600D01*
X0059100Y0153943D01*
X0051757Y0146600D02*
X0049100Y0149257D01*
X0046757Y0151600D02*
X0044100Y0151600D01*
X0049100Y0146600D01*
X0049100Y0143943D02*
X0049100Y0141600D01*
X0049100Y0136600D01*
X0051757Y0139257D01*
X0051757Y0146600D01*
X0049100Y0143943D01*
X0046757Y0141600D02*
X0044100Y0141600D01*
X0046757Y0141600D02*
X0051757Y0146600D01*
X0051757Y0138943D01*
X0054100Y0136600D01*
X0054200Y0130300D02*
X0054200Y0121550D01*
X0051800Y0121550D02*
X0051800Y0130300D01*
X0049400Y0130300D02*
X0049400Y0121550D01*
X0047871Y0119200D02*
X0042894Y0119200D01*
X0042200Y0119894D02*
X0042200Y0130300D01*
X0039800Y0130300D02*
X0039800Y0122294D01*
X0040494Y0121600D02*
X0083449Y0121600D01*
X0083000Y0121350D02*
X0083000Y0122490D01*
X0086100Y0123600D02*
X0086100Y0119600D01*
X0094100Y0111600D01*
X0094100Y0102100D01*
X0095600Y0100600D01*
X0094100Y0099100D01*
X0094100Y0100600D01*
X0096600Y0100600D01*
X0095600Y0100600D01*
X0094100Y0100600D02*
X0094100Y0102100D01*
X0091700Y0102400D02*
X0059500Y0102400D01*
X0059500Y0104800D02*
X0091700Y0104800D01*
X0091700Y0107200D02*
X0059500Y0107200D01*
X0059500Y0109600D02*
X0091700Y0109600D01*
X0091595Y0110105D02*
X0085100Y0116600D01*
X0079002Y0116600D01*
X0079602Y0116800D02*
X0085506Y0116800D01*
X0085400Y0116906D02*
X0085400Y0092401D01*
X0085799Y0092800D02*
X0082551Y0092800D01*
X0083000Y0092193D02*
X0083000Y0111850D01*
X0083740Y0111850D02*
X0084147Y0111959D01*
X0084512Y0112170D01*
X0084809Y0112468D01*
X0085020Y0112833D01*
X0085129Y0113240D01*
X0085129Y0116000D01*
X0079602Y0116000D01*
X0079602Y0117200D01*
X0078402Y0117200D01*
X0078402Y0116000D01*
X0079602Y0116000D01*
X0079602Y0111850D01*
X0083740Y0111850D01*
X0084217Y0112000D02*
X0090306Y0112000D01*
X0090200Y0112106D02*
X0090200Y0097201D01*
X0090599Y0097600D02*
X0059284Y0097600D01*
X0059000Y0097106D02*
X0059000Y0095500D01*
X0061400Y0095404D02*
X0061400Y0130300D01*
X0059000Y0130300D02*
X0059000Y0121550D01*
X0056600Y0121550D02*
X0056600Y0130300D01*
X0063800Y0130300D02*
X0063800Y0093384D01*
X0065091Y0092800D02*
X0073079Y0092800D01*
X0072996Y0095200D02*
X0061891Y0095200D01*
X0059500Y0100000D02*
X0091700Y0100000D01*
X0094100Y0099100D02*
X0094100Y0098600D01*
X0101100Y0091600D01*
X0101100Y0087600D01*
X0097595Y0084095D01*
X0091605Y0084095D01*
X0091605Y0080470D01*
X0086618Y0075482D01*
X0088845Y0073255D02*
X0092690Y0077100D01*
X0096100Y0077100D01*
X0102100Y0071100D01*
X0102100Y0068100D01*
X0098100Y0064100D01*
X0099100Y0060100D02*
X0099100Y0059100D01*
X0092600Y0052600D01*
X0087827Y0052600D01*
X0082164Y0058263D01*
X0079937Y0056036D02*
X0085873Y0050100D01*
X0093600Y0050100D01*
X0104600Y0061100D01*
X0104600Y0105600D01*
X0110600Y0111600D01*
X0141100Y0111600D01*
X0145931Y0116431D01*
X0145931Y0119100D01*
X0152100Y0119100D01*
X0154100Y0121100D01*
X0159643Y0115557D01*
X0161600Y0115557D01*
X0161600Y0122643D02*
X0161600Y0126100D01*
X0154100Y0126537D02*
X0154100Y0121100D01*
X0150634Y0116700D02*
X0149423Y0116700D01*
X0148448Y0115725D01*
X0148236Y0115725D01*
X0147965Y0115071D01*
X0144394Y0111500D01*
X0150492Y0111500D01*
X0150492Y0113259D01*
X0153696Y0113259D01*
X0153696Y0114067D01*
X0150492Y0114067D01*
X0150492Y0116236D01*
X0150601Y0116643D01*
X0150634Y0116700D01*
X0150200Y0116700D02*
X0150200Y0111500D01*
X0150492Y0112000D02*
X0144894Y0112000D01*
X0145400Y0111500D02*
X0145400Y0112506D01*
X0147800Y0111500D02*
X0147800Y0114906D01*
X0147294Y0114400D02*
X0150492Y0114400D01*
X0150037Y0113663D02*
X0149600Y0114100D01*
X0150037Y0113663D02*
X0154100Y0113663D01*
X0152600Y0113259D02*
X0152600Y0114067D01*
X0155000Y0104200D02*
X0155000Y0103300D01*
X0157400Y0103300D02*
X0157400Y0104200D01*
X0159800Y0104200D02*
X0159800Y0103300D01*
X0162200Y0103300D02*
X0162200Y0104200D01*
X0164600Y0104200D02*
X0164600Y0103300D01*
X0167000Y0103300D02*
X0167000Y0104200D01*
X0169400Y0104200D02*
X0169400Y0103300D01*
X0169800Y0100900D02*
X0173100Y0097600D01*
X0173100Y0079100D01*
X0169100Y0075100D01*
X0142600Y0075100D01*
X0135600Y0068100D01*
X0119100Y0068100D01*
X0117600Y0066600D01*
X0117600Y0063100D01*
X0119600Y0061100D01*
X0119600Y0058600D01*
X0121100Y0057100D01*
X0121100Y0054600D01*
X0119600Y0053100D01*
X0107600Y0053100D01*
X0106100Y0054600D01*
X0101600Y0054600D01*
X0094600Y0047600D01*
X0083919Y0047600D01*
X0077709Y0053809D01*
X0074619Y0056800D02*
X0073370Y0056800D01*
X0073389Y0056754D02*
X0072888Y0057963D01*
X0072500Y0058351D01*
X0072500Y0066350D01*
X0072135Y0067232D01*
X0060774Y0078593D01*
X0062609Y0080428D01*
X0063993Y0081813D01*
X0064811Y0080995D01*
X0064811Y0080446D01*
X0065312Y0079237D01*
X0066237Y0078312D01*
X0067446Y0077811D01*
X0068754Y0077811D01*
X0069963Y0078312D01*
X0070888Y0079237D01*
X0071389Y0080446D01*
X0071389Y0081754D01*
X0070888Y0082963D01*
X0069963Y0083888D01*
X0068754Y0084389D01*
X0068205Y0084389D01*
X0067387Y0085207D01*
X0069100Y0086919D01*
X0071520Y0084499D01*
X0073747Y0082272D01*
X0075974Y0080045D01*
X0076257Y0080045D01*
X0077037Y0079265D01*
X0079936Y0082164D01*
X0079936Y0082164D01*
X0079937Y0082164D02*
X0082836Y0085063D01*
X0079937Y0082164D01*
X0079937Y0082164D01*
X0079937Y0082448D01*
X0086595Y0089105D01*
X0091595Y0094105D01*
X0091095Y0094105D01*
X0088600Y0096600D01*
X0088199Y0095200D02*
X0079204Y0095200D01*
X0078200Y0096651D02*
X0078200Y0111850D01*
X0078402Y0111850D02*
X0078402Y0116000D01*
X0072874Y0116000D01*
X0072874Y0113240D01*
X0072983Y0112833D01*
X0073194Y0112468D01*
X0073492Y0112170D01*
X0073856Y0111959D01*
X0074263Y0111850D01*
X0078402Y0111850D01*
X0078402Y0112000D02*
X0079602Y0112000D01*
X0080600Y0111850D02*
X0080600Y0093889D01*
X0080100Y0090600D02*
X0079464Y0090600D01*
X0075482Y0086618D01*
X0073255Y0088845D02*
X0076100Y0091690D01*
X0076100Y0094100D01*
X0075800Y0097389D02*
X0075800Y0111850D01*
X0073786Y0112000D02*
X0059821Y0112000D01*
X0060526Y0114400D02*
X0072874Y0114400D01*
X0073400Y0116000D02*
X0073400Y0117200D01*
X0072874Y0119200D02*
X0060526Y0119200D01*
X0060526Y0116800D02*
X0078402Y0116800D01*
X0078200Y0117200D02*
X0078200Y0116000D01*
X0078402Y0114400D02*
X0079602Y0114400D01*
X0080600Y0116000D02*
X0080600Y0117200D01*
X0079602Y0119200D02*
X0078402Y0119200D01*
X0075800Y0117200D02*
X0075800Y0116000D01*
X0073400Y0112262D02*
X0073400Y0096051D01*
X0066200Y0091691D02*
X0066200Y0130300D01*
X0068600Y0130300D02*
X0068600Y0089291D01*
X0068600Y0086419D02*
X0068600Y0084389D01*
X0067781Y0085600D02*
X0070419Y0085600D01*
X0071000Y0085019D02*
X0071000Y0082693D01*
X0070651Y0083200D02*
X0072819Y0083200D01*
X0073400Y0082619D02*
X0073400Y0055581D01*
X0073389Y0055570D02*
X0073389Y0056754D01*
X0073389Y0055570D02*
X0075591Y0057772D01*
X0077818Y0059999D01*
X0080045Y0062226D01*
X0082272Y0064453D01*
X0084499Y0066680D01*
X0086919Y0069100D01*
X0084882Y0071137D01*
X0082655Y0073364D01*
X0080428Y0075591D01*
X0077818Y0078201D01*
X0077818Y0078484D01*
X0077037Y0079264D01*
X0079936Y0082164D01*
X0080600Y0082827D02*
X0080600Y0082827D01*
X0080973Y0083200D02*
X0080973Y0083200D01*
X0082836Y0085063D02*
X0082055Y0085843D01*
X0082055Y0086126D01*
X0080836Y0087345D01*
X0081963Y0087812D01*
X0082270Y0088118D01*
X0082320Y0087931D01*
X0082530Y0087566D01*
X0083660Y0086436D01*
X0086329Y0089105D01*
X0086594Y0088840D01*
X0083925Y0086171D01*
X0084465Y0085632D01*
X0083366Y0084533D01*
X0082836Y0085063D01*
X0083000Y0084898D02*
X0083000Y0087097D01*
X0082301Y0088000D02*
X0082151Y0088000D01*
X0082298Y0085600D02*
X0084433Y0085600D01*
X0085400Y0087646D02*
X0085400Y0088176D01*
X0085224Y0088000D02*
X0085754Y0088000D01*
X0086860Y0089106D02*
X0086595Y0089371D01*
X0088660Y0091436D01*
X0091329Y0094105D01*
X0091594Y0093840D01*
X0088925Y0091171D01*
X0086860Y0089106D01*
X0087800Y0090046D02*
X0087800Y0090576D01*
X0087624Y0090400D02*
X0088154Y0090400D01*
X0085565Y0090400D02*
X0085035Y0090400D01*
X0085400Y0090565D02*
X0085400Y0090035D01*
X0083399Y0090400D02*
X0083389Y0090400D01*
X0087800Y0094801D02*
X0087800Y0114506D01*
X0087906Y0114400D02*
X0085129Y0114400D01*
X0083000Y0116000D02*
X0083000Y0117200D01*
X0086100Y0123600D02*
X0086100Y0143600D01*
X0083100Y0146600D01*
X0090657Y0155200D02*
X0090800Y0155200D01*
X0090657Y0157600D02*
X0093435Y0157600D01*
X0093527Y0157692D02*
X0093527Y0157692D01*
X0092600Y0157500D02*
X0092600Y0160449D01*
X0090657Y0160000D02*
X0095835Y0160000D01*
X0095000Y0159165D02*
X0095000Y0163913D01*
X0095000Y0164287D02*
X0095000Y0170913D01*
X0094956Y0170913D02*
X0095331Y0170913D01*
X0095331Y0167138D01*
X0095331Y0164287D01*
X0094956Y0164287D01*
X0094956Y0170913D01*
X0094956Y0171287D02*
X0091968Y0171287D01*
X0091969Y0173673D01*
X0092078Y0174080D01*
X0092288Y0174445D01*
X0092586Y0174743D01*
X0092951Y0174953D01*
X0093358Y0175062D01*
X0094956Y0175062D01*
X0094956Y0171287D01*
X0095000Y0171287D02*
X0095000Y0189350D01*
X0092600Y0189350D02*
X0092600Y0174751D01*
X0092262Y0174400D02*
X0091239Y0174400D01*
X0090200Y0175262D02*
X0090200Y0189350D01*
X0090370Y0189350D02*
X0090370Y0193500D01*
X0082480Y0193500D01*
X0082480Y0193121D01*
X0075448Y0193121D01*
X0075448Y0187200D01*
X0074248Y0187200D01*
X0074248Y0186000D01*
X0065374Y0186000D01*
X0065374Y0181468D01*
X0065483Y0181061D01*
X0065694Y0180696D01*
X0065992Y0180398D01*
X0066356Y0180188D01*
X0066763Y0180079D01*
X0074248Y0180079D01*
X0074248Y0186000D01*
X0075448Y0186000D01*
X0075448Y0180079D01*
X0082933Y0180079D01*
X0083340Y0180188D01*
X0083704Y0180398D01*
X0084002Y0180696D01*
X0084213Y0181061D01*
X0084322Y0181468D01*
X0084322Y0186000D01*
X0075448Y0186000D01*
X0075448Y0187200D01*
X0084322Y0187200D01*
X0084322Y0189350D01*
X0090370Y0189350D01*
X0091570Y0189350D02*
X0098070Y0189350D01*
X0098477Y0189459D01*
X0098842Y0189670D01*
X0099140Y0189968D01*
X0099351Y0190333D01*
X0099460Y0190740D01*
X0099460Y0193500D01*
X0091570Y0193500D01*
X0091570Y0189350D01*
X0091570Y0191200D02*
X0090370Y0191200D01*
X0090370Y0193500D02*
X0091570Y0193500D01*
X0091570Y0194700D01*
X0090370Y0194700D01*
X0090370Y0193500D01*
X0090370Y0193600D02*
X0024200Y0193600D01*
X0024200Y0191988D02*
X0024200Y0196212D01*
X0021212Y0199200D01*
X0017957Y0199200D01*
X0017957Y0200017D01*
X0018931Y0200992D01*
X0018931Y0206961D01*
X0019546Y0206961D01*
X0019469Y0206673D01*
X0019468Y0204287D01*
X0022456Y0204287D01*
X0022456Y0203913D01*
X0019469Y0203913D01*
X0019469Y0201527D01*
X0019578Y0201120D01*
X0019788Y0200755D01*
X0020086Y0200457D01*
X0020451Y0200247D01*
X0020858Y0200138D01*
X0022456Y0200138D01*
X0022456Y0203913D01*
X0022831Y0203913D01*
X0022831Y0204287D01*
X0025818Y0204287D01*
X0025818Y0206673D01*
X0025741Y0206961D01*
X0265701Y0206961D01*
X0265701Y0006200D01*
X0254503Y0006200D01*
X0255055Y0006429D01*
X0256771Y0008145D01*
X0257700Y0010387D01*
X0257700Y0012813D01*
X0256771Y0015055D01*
X0255055Y0016771D01*
X0252813Y0017700D01*
X0250387Y0017700D01*
X0248145Y0016771D01*
X0247273Y0015900D01*
X0220310Y0015900D01*
X0218724Y0017487D01*
X0218724Y0018719D01*
X0217795Y0020961D01*
X0216079Y0022677D01*
X0213837Y0023605D01*
X0211410Y0023605D01*
X0209168Y0022677D01*
X0207452Y0020961D01*
X0206524Y0018719D01*
X0206524Y0016292D01*
X0207452Y0014050D01*
X0209168Y0012334D01*
X0211410Y0011406D01*
X0212642Y0011406D01*
X0214884Y0009164D01*
X0216093Y0007955D01*
X0217674Y0007300D01*
X0247273Y0007300D01*
X0248145Y0006429D01*
X0248697Y0006200D01*
X0006200Y0006200D01*
X0006200Y0206961D01*
X0012182Y0206961D01*
X0012182Y0200992D01*
X0013157Y0200017D01*
X0013157Y0197166D01*
X0013522Y0196284D01*
X0014000Y0195806D01*
X0014000Y0191988D01*
X0016888Y0189100D01*
X0014000Y0186212D01*
X0014000Y0181988D01*
X0016988Y0179000D01*
X0021212Y0179000D01*
X0024200Y0181988D01*
X0024200Y0186212D01*
X0021312Y0189100D01*
X0024200Y0191988D01*
X0023412Y0191200D02*
X0033678Y0191200D01*
X0033678Y0188800D02*
X0021612Y0188800D01*
X0023000Y0187412D02*
X0023000Y0190788D01*
X0024012Y0186400D02*
X0033678Y0186400D01*
X0033678Y0184000D02*
X0024200Y0184000D01*
X0023812Y0181600D02*
X0033678Y0181600D01*
X0035000Y0179879D02*
X0035000Y0171780D01*
X0037192Y0172000D02*
X0021106Y0172000D01*
X0020600Y0172506D02*
X0020600Y0179000D01*
X0021412Y0179200D02*
X0039952Y0179200D01*
X0039800Y0179879D02*
X0039800Y0174608D01*
X0039592Y0174400D02*
X0017505Y0174400D01*
X0018200Y0174112D02*
X0018200Y0179000D01*
X0016788Y0179200D02*
X0006200Y0179200D01*
X0006200Y0181600D02*
X0014388Y0181600D01*
X0015800Y0180188D02*
X0015800Y0174480D01*
X0014695Y0174400D02*
X0006200Y0174400D01*
X0006200Y0172000D02*
X0011094Y0172000D01*
X0011000Y0171906D02*
X0011000Y0206961D01*
X0012182Y0205600D02*
X0006200Y0205600D01*
X0006200Y0206961D02*
X0006200Y0006200D01*
X0006200Y0006400D02*
X0248214Y0006400D01*
X0248600Y0006240D02*
X0248600Y0006200D01*
X0246200Y0006200D02*
X0246200Y0007300D01*
X0243800Y0007300D02*
X0243800Y0006200D01*
X0241400Y0006200D02*
X0241400Y0007300D01*
X0239000Y0007300D02*
X0239000Y0006200D01*
X0236600Y0006200D02*
X0236600Y0007300D01*
X0234200Y0007300D02*
X0234200Y0006200D01*
X0231800Y0006200D02*
X0231800Y0007300D01*
X0229400Y0007300D02*
X0229400Y0006200D01*
X0227000Y0006200D02*
X0227000Y0007300D01*
X0224600Y0007300D02*
X0224600Y0006200D01*
X0222200Y0006200D02*
X0222200Y0007300D01*
X0219800Y0007300D02*
X0219800Y0006200D01*
X0217400Y0006200D02*
X0217400Y0007413D01*
X0215248Y0008800D02*
X0085341Y0008800D01*
X0085400Y0008824D02*
X0085400Y0006200D01*
X0083000Y0006200D02*
X0083000Y0008500D01*
X0080600Y0008500D02*
X0080600Y0006200D01*
X0078200Y0006200D02*
X0078200Y0008500D01*
X0075800Y0008500D02*
X0075800Y0006200D01*
X0073400Y0006200D02*
X0073400Y0008500D01*
X0071000Y0008500D02*
X0071000Y0006200D01*
X0068600Y0006200D02*
X0068600Y0008500D01*
X0066200Y0008500D02*
X0066200Y0006200D01*
X0063800Y0006200D02*
X0063800Y0008500D01*
X0061400Y0008500D02*
X0061400Y0006200D01*
X0059000Y0006200D02*
X0059000Y0008500D01*
X0056600Y0008500D02*
X0056600Y0006200D01*
X0054200Y0006200D02*
X0054200Y0008500D01*
X0051800Y0008500D02*
X0051800Y0006200D01*
X0049400Y0006200D02*
X0049400Y0008500D01*
X0047000Y0008500D02*
X0047000Y0006200D01*
X0044600Y0006200D02*
X0044600Y0008500D01*
X0042200Y0008500D02*
X0042200Y0006200D01*
X0039800Y0006200D02*
X0039800Y0008500D01*
X0037400Y0008500D02*
X0037400Y0006200D01*
X0035000Y0006200D02*
X0035000Y0008500D01*
X0032600Y0008500D02*
X0032600Y0006200D01*
X0030200Y0006200D02*
X0030200Y0008500D01*
X0027800Y0008500D02*
X0027800Y0006200D01*
X0025400Y0006200D02*
X0025400Y0008500D01*
X0023000Y0008500D02*
X0023000Y0006200D01*
X0020600Y0006200D02*
X0020600Y0009923D01*
X0021859Y0008800D02*
X0006200Y0008800D01*
X0006200Y0011200D02*
X0019323Y0011200D01*
X0018200Y0012323D02*
X0018200Y0006200D01*
X0015800Y0006200D02*
X0015800Y0014723D01*
X0016923Y0013600D02*
X0006200Y0013600D01*
X0006200Y0016000D02*
X0014741Y0016000D01*
X0014500Y0018400D02*
X0006200Y0018400D01*
X0006200Y0020800D02*
X0014500Y0020800D01*
X0014500Y0023200D02*
X0006200Y0023200D01*
X0006200Y0025600D02*
X0014500Y0025600D01*
X0014500Y0028000D02*
X0006200Y0028000D01*
X0006200Y0030400D02*
X0014500Y0030400D01*
X0014500Y0032800D02*
X0006200Y0032800D01*
X0006200Y0035200D02*
X0014500Y0035200D01*
X0014500Y0037600D02*
X0006200Y0037600D01*
X0006200Y0040000D02*
X0014500Y0040000D01*
X0014500Y0042400D02*
X0006200Y0042400D01*
X0006200Y0044800D02*
X0014500Y0044800D01*
X0014500Y0047200D02*
X0006200Y0047200D01*
X0006200Y0049600D02*
X0014500Y0049600D01*
X0014500Y0052000D02*
X0006200Y0052000D01*
X0006200Y0054400D02*
X0014500Y0054400D01*
X0014500Y0056800D02*
X0006200Y0056800D01*
X0006200Y0059200D02*
X0014500Y0059200D01*
X0014500Y0061600D02*
X0006200Y0061600D01*
X0006200Y0064000D02*
X0014500Y0064000D01*
X0014500Y0066400D02*
X0006200Y0066400D01*
X0006200Y0068800D02*
X0014500Y0068800D01*
X0014500Y0071200D02*
X0006200Y0071200D01*
X0006200Y0073600D02*
X0014500Y0073600D01*
X0014500Y0076000D02*
X0006200Y0076000D01*
X0006200Y0078400D02*
X0014500Y0078400D01*
X0014500Y0080800D02*
X0006200Y0080800D01*
X0006200Y0083200D02*
X0014500Y0083200D01*
X0014500Y0085600D02*
X0006200Y0085600D01*
X0006200Y0088000D02*
X0014500Y0088000D01*
X0014500Y0090400D02*
X0006200Y0090400D01*
X0006200Y0092800D02*
X0014500Y0092800D01*
X0014500Y0095200D02*
X0006200Y0095200D01*
X0006200Y0097600D02*
X0014500Y0097600D01*
X0014500Y0100000D02*
X0006200Y0100000D01*
X0006200Y0102400D02*
X0014500Y0102400D01*
X0014500Y0104800D02*
X0006200Y0104800D01*
X0006200Y0107200D02*
X0014500Y0107200D01*
X0014500Y0109600D02*
X0006200Y0109600D01*
X0006200Y0112000D02*
X0014500Y0112000D01*
X0014500Y0114400D02*
X0006200Y0114400D01*
X0006200Y0116800D02*
X0014500Y0116800D01*
X0014500Y0119200D02*
X0006200Y0119200D01*
X0006200Y0121600D02*
X0014500Y0121600D01*
X0014500Y0124000D02*
X0006200Y0124000D01*
X0006200Y0126400D02*
X0014500Y0126400D01*
X0014500Y0128800D02*
X0006200Y0128800D01*
X0006200Y0131200D02*
X0014500Y0131200D01*
X0014500Y0133600D02*
X0006200Y0133600D01*
X0006200Y0136000D02*
X0014500Y0136000D01*
X0014824Y0138400D02*
X0006200Y0138400D01*
X0015800Y0139477D02*
X0015800Y0154216D01*
X0016484Y0154216D02*
X0016484Y0154984D01*
X0022000Y0154984D01*
X0022000Y0155064D01*
X0021855Y0155982D01*
X0021568Y0156865D01*
X0021146Y0157692D01*
X0020600Y0158444D01*
X0021193Y0157600D02*
X0033800Y0157600D01*
X0033800Y0155200D02*
X0021979Y0155200D01*
X0020600Y0154984D02*
X0020600Y0154216D01*
X0021719Y0152800D02*
X0033800Y0152800D01*
X0027800Y0149200D02*
X0027800Y0164980D01*
X0025400Y0164980D02*
X0025400Y0148917D01*
X0024323Y0148000D02*
X0006200Y0148000D01*
X0006200Y0145600D02*
X0021923Y0145600D01*
X0023000Y0146677D02*
X0023000Y0164980D01*
X0018200Y0162647D02*
X0018200Y0160121D01*
X0018498Y0160000D02*
X0033800Y0160000D01*
X0034354Y0162400D02*
X0017604Y0162400D01*
X0015800Y0162280D02*
X0015800Y0154984D01*
X0015716Y0155200D02*
X0016484Y0155200D01*
X0018200Y0154984D02*
X0018200Y0154216D01*
X0016484Y0157600D02*
X0015716Y0157600D01*
X0013400Y0159846D02*
X0013400Y0162895D01*
X0014596Y0162400D02*
X0006200Y0162400D01*
X0006200Y0160000D02*
X0013702Y0160000D01*
X0015716Y0160000D02*
X0016484Y0160000D01*
X0011007Y0157600D02*
X0006200Y0157600D01*
X0006200Y0155200D02*
X0010221Y0155200D01*
X0011000Y0154984D02*
X0011000Y0154216D01*
X0013400Y0154216D02*
X0013400Y0154984D01*
X0011000Y0157587D02*
X0011000Y0164853D01*
X0011053Y0164800D02*
X0006200Y0164800D01*
X0006200Y0167200D02*
X0010000Y0167200D01*
X0010003Y0169600D02*
X0006200Y0169600D01*
X0013400Y0173864D02*
X0013400Y0196579D01*
X0013806Y0196000D02*
X0006200Y0196000D01*
X0006200Y0193600D02*
X0014000Y0193600D01*
X0014788Y0191200D02*
X0006200Y0191200D01*
X0006200Y0188800D02*
X0016588Y0188800D01*
X0015800Y0188012D02*
X0015800Y0190188D01*
X0014188Y0186400D02*
X0006200Y0186400D01*
X0006200Y0184000D02*
X0014000Y0184000D01*
X0023000Y0180788D02*
X0023000Y0171780D01*
X0025400Y0171780D02*
X0025400Y0200657D01*
X0025498Y0200755D02*
X0025709Y0201120D01*
X0025818Y0201527D01*
X0025818Y0203913D01*
X0022831Y0203913D01*
X0022831Y0200138D01*
X0024429Y0200138D01*
X0024836Y0200247D01*
X0025201Y0200457D01*
X0025498Y0200755D01*
X0025524Y0200800D02*
X0107819Y0200800D01*
X0107819Y0201352D02*
X0107819Y0199848D01*
X0108150Y0199050D01*
X0104595Y0199050D01*
X0103540Y0197995D01*
X0103540Y0190205D01*
X0104595Y0189150D01*
X0119865Y0189150D01*
X0120920Y0190205D01*
X0120920Y0197995D01*
X0119865Y0199050D01*
X0115050Y0199050D01*
X0115381Y0199848D01*
X0115381Y0201352D01*
X0114805Y0202742D01*
X0113742Y0203805D01*
X0112352Y0204381D01*
X0110848Y0204381D01*
X0109458Y0203805D01*
X0108395Y0202742D01*
X0107819Y0201352D01*
X0108853Y0203200D02*
X0025818Y0203200D01*
X0025400Y0203913D02*
X0025400Y0204287D01*
X0025818Y0205600D02*
X0265701Y0205600D01*
X0265400Y0206961D02*
X0265400Y0006200D01*
X0265701Y0006400D02*
X0254986Y0006400D01*
X0255800Y0006200D02*
X0255800Y0007173D01*
X0257043Y0008800D02*
X0265701Y0008800D01*
X0265701Y0011200D02*
X0257700Y0011200D01*
X0257374Y0013600D02*
X0265701Y0013600D01*
X0265701Y0016000D02*
X0255827Y0016000D01*
X0255800Y0016027D02*
X0255800Y0020953D01*
X0255647Y0020800D02*
X0265701Y0020800D01*
X0265701Y0018400D02*
X0218724Y0018400D01*
X0219800Y0016410D02*
X0219800Y0022819D01*
X0219955Y0022664D02*
X0221164Y0021455D01*
X0222745Y0020800D01*
X0217862Y0020800D01*
X0217400Y0021356D02*
X0217400Y0025219D01*
X0217019Y0025600D02*
X0147987Y0025600D01*
X0147800Y0027001D02*
X0147800Y0031888D01*
X0148617Y0032800D02*
X0209819Y0032800D01*
X0210200Y0032419D02*
X0210200Y0023104D01*
X0210431Y0023200D02*
X0167572Y0023200D01*
X0167000Y0023437D02*
X0167000Y0036828D01*
X0164600Y0036828D02*
X0164600Y0023605D01*
X0163187Y0023200D02*
X0147987Y0023200D01*
X0150125Y0020800D02*
X0160142Y0020800D01*
X0159800Y0019975D02*
X0159800Y0035475D01*
X0159135Y0035200D02*
X0207419Y0035200D01*
X0207800Y0034819D02*
X0207800Y0021309D01*
X0207386Y0020800D02*
X0170617Y0020800D01*
X0169400Y0022112D02*
X0169400Y0036828D01*
X0171800Y0036828D02*
X0171800Y0006200D01*
X0174200Y0006200D02*
X0174200Y0036828D01*
X0176600Y0036828D02*
X0176600Y0006200D01*
X0179000Y0006200D02*
X0179000Y0036828D01*
X0181400Y0036828D02*
X0181400Y0006200D01*
X0183800Y0006200D02*
X0183800Y0036828D01*
X0186200Y0036828D02*
X0186200Y0006200D01*
X0188600Y0006200D02*
X0188600Y0036828D01*
X0191000Y0036828D02*
X0191000Y0006200D01*
X0193400Y0006200D02*
X0193400Y0036828D01*
X0195800Y0036828D02*
X0195800Y0006200D01*
X0198200Y0006200D02*
X0198200Y0036828D01*
X0200600Y0036828D02*
X0200600Y0006200D01*
X0203000Y0006200D02*
X0203000Y0036828D01*
X0205400Y0036828D02*
X0205400Y0006200D01*
X0207800Y0006200D02*
X0207800Y0013702D01*
X0207902Y0013600D02*
X0170101Y0013600D01*
X0169400Y0012899D02*
X0169400Y0006200D01*
X0167000Y0006200D02*
X0167000Y0011574D01*
X0164600Y0011406D02*
X0164600Y0006200D01*
X0162200Y0006200D02*
X0162200Y0012220D01*
X0160658Y0013600D02*
X0091378Y0013600D01*
X0090200Y0012564D02*
X0090200Y0006200D01*
X0087800Y0006200D02*
X0087800Y0011123D01*
X0087877Y0011200D02*
X0212848Y0011200D01*
X0212600Y0011406D02*
X0212600Y0006200D01*
X0215000Y0006200D02*
X0215000Y0009048D01*
X0210200Y0006200D02*
X0210200Y0011907D01*
X0206645Y0016000D02*
X0171359Y0016000D01*
X0171480Y0018400D02*
X0206524Y0018400D01*
X0212600Y0023605D02*
X0212600Y0030019D01*
X0212219Y0030400D02*
X0139325Y0030400D01*
X0138200Y0031609D02*
X0138200Y0031650D01*
X0137143Y0032800D02*
X0123194Y0032800D01*
X0123800Y0033406D02*
X0123800Y0031018D01*
X0122874Y0030400D02*
X0122826Y0030400D01*
X0126200Y0031018D02*
X0126200Y0034200D01*
X0128600Y0034200D02*
X0128600Y0031018D01*
X0131000Y0031341D02*
X0131000Y0034200D01*
X0133400Y0034200D02*
X0133400Y0031609D01*
X0135800Y0031609D02*
X0135800Y0034200D01*
X0135800Y0039000D02*
X0135800Y0046506D01*
X0135106Y0047200D02*
X0128807Y0047200D01*
X0128807Y0044800D02*
X0137143Y0044800D01*
X0139100Y0046600D02*
X0131350Y0054350D01*
X0129049Y0052000D02*
X0128807Y0052000D01*
X0131000Y0051061D02*
X0131000Y0039000D01*
X0129497Y0040000D02*
X0137143Y0040000D01*
X0138200Y0041550D02*
X0138200Y0041650D01*
X0137447Y0042400D02*
X0129829Y0042400D01*
X0126600Y0041600D02*
X0126407Y0041793D01*
X0126407Y0061600D01*
X0117100Y0060100D02*
X0117100Y0056100D01*
X0117100Y0060100D02*
X0114600Y0062600D01*
X0114600Y0069600D01*
X0115600Y0070600D01*
X0133600Y0070600D01*
X0141600Y0078600D01*
X0141600Y0082300D01*
X0136600Y0082300D02*
X0136600Y0077600D01*
X0132100Y0073100D01*
X0113600Y0073100D01*
X0112100Y0071600D01*
X0112100Y0059600D01*
X0113100Y0058600D01*
X0109600Y0056100D02*
X0109600Y0072600D01*
X0112600Y0075600D01*
X0130100Y0075600D01*
X0131600Y0077100D01*
X0131600Y0082300D01*
X0133100Y0088600D02*
X0123100Y0088600D01*
X0121600Y0087100D01*
X0121600Y0082300D01*
X0118700Y0083200D02*
X0109500Y0083200D01*
X0110755Y0085202D02*
X0111120Y0084991D01*
X0111527Y0084882D01*
X0113913Y0084882D01*
X0113913Y0087869D01*
X0114287Y0087869D01*
X0114287Y0084882D01*
X0116673Y0084882D01*
X0117080Y0084991D01*
X0117445Y0085202D01*
X0117743Y0085499D01*
X0117953Y0085864D01*
X0118062Y0086271D01*
X0118062Y0087869D01*
X0114287Y0087869D01*
X0114287Y0088244D01*
X0113913Y0088244D01*
X0113913Y0091231D01*
X0111527Y0091231D01*
X0111120Y0091122D01*
X0110755Y0090912D01*
X0110457Y0090614D01*
X0110247Y0090249D01*
X0110138Y0089842D01*
X0110138Y0088244D01*
X0113913Y0088244D01*
X0113913Y0087869D01*
X0110138Y0087869D01*
X0110138Y0086271D01*
X0110247Y0085864D01*
X0110457Y0085499D01*
X0110755Y0085202D01*
X0110399Y0085600D02*
X0109500Y0085600D01*
X0109500Y0088000D02*
X0113913Y0088000D01*
X0114100Y0088057D02*
X0114100Y0084100D01*
X0114600Y0083600D01*
X0114287Y0085600D02*
X0113913Y0085600D01*
X0111800Y0084882D02*
X0111800Y0077866D01*
X0112123Y0078000D02*
X0111241Y0077635D01*
X0109500Y0075894D01*
X0109500Y0098049D01*
X0109737Y0097812D01*
X0110125Y0097651D01*
X0109938Y0097464D01*
X0109938Y0092823D01*
X0110992Y0091769D01*
X0117208Y0091769D01*
X0117683Y0092243D01*
X0125621Y0092243D01*
X0126503Y0092609D01*
X0127959Y0094065D01*
X0128635Y0094741D01*
X0129000Y0095623D01*
X0129000Y0095754D01*
X0129241Y0095996D01*
X0129518Y0095720D01*
X0129882Y0095509D01*
X0130289Y0095400D01*
X0131600Y0095400D01*
X0132911Y0095400D01*
X0133318Y0095509D01*
X0133682Y0095720D01*
X0133959Y0095996D01*
X0134200Y0095754D01*
X0134200Y0094351D01*
X0133812Y0093963D01*
X0133311Y0092754D01*
X0133311Y0092205D01*
X0132106Y0091000D01*
X0122623Y0091000D01*
X0121741Y0090635D01*
X0121065Y0089959D01*
X0119565Y0088459D01*
X0119200Y0087577D01*
X0119200Y0087446D01*
X0118700Y0086946D01*
X0118700Y0078000D01*
X0112123Y0078000D01*
X0114200Y0078000D02*
X0114200Y0087869D01*
X0114287Y0088000D02*
X0119375Y0088000D01*
X0119000Y0087246D02*
X0119000Y0092243D01*
X0120100Y0091557D02*
X0116600Y0088057D01*
X0114100Y0088057D01*
X0114200Y0088244D02*
X0114200Y0091769D01*
X0114287Y0091231D02*
X0114287Y0088244D01*
X0118062Y0088244D01*
X0118062Y0089842D01*
X0117953Y0090249D01*
X0117743Y0090614D01*
X0117445Y0090912D01*
X0117080Y0091122D01*
X0116673Y0091231D01*
X0114287Y0091231D01*
X0114287Y0090400D02*
X0113913Y0090400D01*
X0111800Y0091231D02*
X0111800Y0091769D01*
X0110334Y0090400D02*
X0109500Y0090400D01*
X0109500Y0092800D02*
X0109961Y0092800D01*
X0109938Y0095200D02*
X0109500Y0095200D01*
X0109500Y0097600D02*
X0110074Y0097600D01*
X0113100Y0100600D02*
X0114100Y0099600D01*
X0114100Y0095143D01*
X0114600Y0094643D01*
X0125143Y0094643D01*
X0126600Y0096100D01*
X0126600Y0100900D01*
X0131600Y0100900D02*
X0131600Y0100900D01*
X0131600Y0095600D01*
X0127557Y0091557D01*
X0120100Y0091557D01*
X0121400Y0092243D02*
X0121400Y0090294D01*
X0121506Y0090400D02*
X0117866Y0090400D01*
X0116600Y0091231D02*
X0116600Y0091769D01*
X0116600Y0088244D02*
X0116600Y0087869D01*
X0117801Y0085600D02*
X0118700Y0085600D01*
X0116600Y0084882D02*
X0116600Y0078000D01*
X0118700Y0078400D02*
X0109500Y0078400D01*
X0109500Y0076000D02*
X0109606Y0076000D01*
X0109500Y0080800D02*
X0118700Y0080800D01*
X0111800Y0087869D02*
X0111800Y0088244D01*
X0123800Y0091000D02*
X0123800Y0092243D01*
X0126200Y0092483D02*
X0126200Y0091000D01*
X0126694Y0092800D02*
X0133330Y0092800D01*
X0133400Y0092969D02*
X0133400Y0095557D01*
X0134200Y0095200D02*
X0128825Y0095200D01*
X0128600Y0094706D02*
X0128600Y0091000D01*
X0131000Y0091000D02*
X0131000Y0095400D01*
X0131600Y0095400D02*
X0131600Y0100900D01*
X0131600Y0095400D01*
X0131600Y0097600D02*
X0131600Y0097600D01*
X0131600Y0100000D02*
X0131600Y0100000D01*
X0136600Y0100900D02*
X0136600Y0092100D01*
X0133100Y0088600D01*
X0136600Y0092100D02*
X0140100Y0088600D01*
X0158557Y0088600D01*
X0159100Y0088057D01*
X0166600Y0088057D01*
X0165600Y0092100D02*
X0150600Y0092100D01*
X0146600Y0096100D01*
X0146600Y0100900D01*
X0151600Y0100900D02*
X0151600Y0096600D01*
X0153057Y0095143D01*
X0159100Y0095143D01*
X0165600Y0092100D02*
X0166600Y0093100D01*
X0166600Y0095143D01*
X0174094Y0100000D02*
X0209974Y0100000D01*
X0209938Y0099964D02*
X0209938Y0095323D01*
X0210992Y0094269D01*
X0212537Y0094269D01*
X0212874Y0093931D01*
X0210992Y0093931D01*
X0209938Y0092877D01*
X0209938Y0088288D01*
X0209711Y0088515D01*
X0209889Y0088946D01*
X0209889Y0090254D01*
X0209388Y0091463D01*
X0208463Y0092388D01*
X0207254Y0092889D01*
X0205946Y0092889D01*
X0204737Y0092388D01*
X0203812Y0091463D01*
X0203311Y0090254D01*
X0203311Y0088946D01*
X0203489Y0088515D01*
X0202517Y0087543D01*
X0196551Y0087543D01*
X0196500Y0087594D01*
X0196500Y0089229D01*
X0199570Y0089229D01*
X0200624Y0090284D01*
X0200624Y0098861D01*
X0199570Y0099916D01*
X0188630Y0099916D01*
X0187576Y0098861D01*
X0187576Y0090284D01*
X0188630Y0089229D01*
X0191700Y0089229D01*
X0191700Y0086123D01*
X0192065Y0085241D01*
X0192741Y0084565D01*
X0194197Y0083109D01*
X0194700Y0082900D01*
X0194700Y0079228D01*
X0193500Y0079228D01*
X0193500Y0083771D01*
X0189165Y0083771D01*
X0188758Y0083662D01*
X0188393Y0083451D01*
X0188095Y0083153D01*
X0187885Y0082788D01*
X0187776Y0082382D01*
X0187776Y0079228D01*
X0193500Y0079228D01*
X0193500Y0078028D01*
X0187776Y0078028D01*
X0187776Y0074874D01*
X0187885Y0074467D01*
X0188095Y0074102D01*
X0188393Y0073804D01*
X0188758Y0073593D01*
X0189165Y0073484D01*
X0193500Y0073484D01*
X0193500Y0078028D01*
X0194700Y0078028D01*
X0194700Y0079228D01*
X0200424Y0079228D01*
X0200424Y0082382D01*
X0200327Y0082743D01*
X0202517Y0082743D01*
X0203492Y0081769D01*
X0209708Y0081769D01*
X0210350Y0082411D01*
X0210992Y0081769D01*
X0217208Y0081769D01*
X0218262Y0082823D01*
X0218262Y0087464D01*
X0217876Y0087850D01*
X0218262Y0088236D01*
X0218262Y0091700D01*
X0230066Y0091700D01*
X0230269Y0091211D01*
X0231703Y0089776D01*
X0233578Y0089000D01*
X0235607Y0089000D01*
X0237481Y0089776D01*
X0238916Y0091211D01*
X0239692Y0093086D01*
X0239692Y0095114D01*
X0238916Y0096989D01*
X0237481Y0098424D01*
X0235607Y0099200D01*
X0233578Y0099200D01*
X0231703Y0098424D01*
X0230269Y0096989D01*
X0230066Y0096500D01*
X0218262Y0096500D01*
X0218262Y0099964D01*
X0217208Y0101018D01*
X0210992Y0101018D01*
X0209938Y0099964D01*
X0210200Y0100226D02*
X0210200Y0104200D01*
X0212600Y0104200D02*
X0212600Y0101018D01*
X0215000Y0101018D02*
X0215000Y0104200D01*
X0217400Y0104200D02*
X0217400Y0100826D01*
X0218226Y0100000D02*
X0246623Y0100000D01*
X0246200Y0100244D02*
X0246200Y0087956D01*
X0246277Y0088000D02*
X0218026Y0088000D01*
X0218262Y0085600D02*
X0230691Y0085600D01*
X0230269Y0085178D02*
X0229492Y0083303D01*
X0229492Y0081275D01*
X0230269Y0079400D01*
X0231703Y0077965D01*
X0233578Y0077189D01*
X0235607Y0077189D01*
X0237481Y0077965D01*
X0238916Y0079400D01*
X0239692Y0081275D01*
X0239692Y0083303D01*
X0238916Y0085178D01*
X0237481Y0086613D01*
X0235607Y0087389D01*
X0233578Y0087389D01*
X0231703Y0086613D01*
X0230269Y0085178D01*
X0229492Y0083200D02*
X0218262Y0083200D01*
X0217400Y0081961D02*
X0217400Y0080938D01*
X0217445Y0080912D02*
X0217080Y0081122D01*
X0216673Y0081231D01*
X0214287Y0081231D01*
X0214287Y0078244D01*
X0213913Y0078244D01*
X0213913Y0081231D01*
X0211527Y0081231D01*
X0211120Y0081122D01*
X0210755Y0080912D01*
X0210457Y0080614D01*
X0210350Y0080428D01*
X0210243Y0080614D01*
X0209945Y0080912D01*
X0209580Y0081122D01*
X0209173Y0081231D01*
X0206787Y0081231D01*
X0206787Y0078244D01*
X0206413Y0078244D01*
X0206413Y0081231D01*
X0204027Y0081231D01*
X0203620Y0081122D01*
X0203255Y0080912D01*
X0202957Y0080614D01*
X0202747Y0080249D01*
X0202638Y0079842D01*
X0202638Y0078244D01*
X0206413Y0078244D01*
X0206413Y0077869D01*
X0206787Y0077869D01*
X0206787Y0074882D01*
X0209173Y0074882D01*
X0209580Y0074991D01*
X0209945Y0075202D01*
X0210243Y0075499D01*
X0210350Y0075686D01*
X0210457Y0075499D01*
X0210755Y0075202D01*
X0211120Y0074991D01*
X0211527Y0074882D01*
X0213913Y0074882D01*
X0213913Y0077869D01*
X0214287Y0077869D01*
X0214287Y0074882D01*
X0216673Y0074882D01*
X0217080Y0074991D01*
X0217445Y0075202D01*
X0217743Y0075499D01*
X0217953Y0075864D01*
X0218062Y0076271D01*
X0218062Y0077869D01*
X0214287Y0077869D01*
X0214287Y0078244D01*
X0218062Y0078244D01*
X0218062Y0079842D01*
X0217953Y0080249D01*
X0217743Y0080614D01*
X0217445Y0080912D01*
X0217556Y0080800D02*
X0229689Y0080800D01*
X0231269Y0078400D02*
X0218062Y0078400D01*
X0217400Y0078244D02*
X0217400Y0077869D01*
X0219143Y0078057D02*
X0214100Y0078057D01*
X0206600Y0078057D01*
X0194671Y0078057D01*
X0194100Y0078628D01*
X0187072Y0078628D01*
X0184100Y0081600D01*
X0184100Y0102100D01*
X0183800Y0104200D02*
X0183800Y0045428D01*
X0181400Y0045428D02*
X0181400Y0104200D01*
X0179000Y0104200D02*
X0179000Y0045428D01*
X0176600Y0045428D02*
X0176600Y0104200D01*
X0174200Y0104200D02*
X0174200Y0099894D01*
X0175500Y0097600D02*
X0187576Y0097600D01*
X0187576Y0095200D02*
X0175500Y0095200D01*
X0175500Y0092800D02*
X0187576Y0092800D01*
X0187576Y0090400D02*
X0175500Y0090400D01*
X0175500Y0088000D02*
X0191700Y0088000D01*
X0191000Y0089229D02*
X0191000Y0083771D01*
X0191916Y0085600D02*
X0175500Y0085600D01*
X0175500Y0083200D02*
X0188142Y0083200D01*
X0188600Y0083571D02*
X0188600Y0089259D01*
X0194100Y0086600D02*
X0195557Y0085143D01*
X0206600Y0085143D01*
X0206600Y0089600D01*
X0207800Y0092663D02*
X0207800Y0104200D01*
X0205400Y0104200D02*
X0205400Y0092663D01*
X0205731Y0092800D02*
X0200624Y0092800D01*
X0200624Y0090400D02*
X0203371Y0090400D01*
X0203000Y0088026D02*
X0203000Y0104200D01*
X0200600Y0104200D02*
X0200600Y0098886D01*
X0200624Y0097600D02*
X0209938Y0097600D01*
X0210061Y0095200D02*
X0200624Y0095200D01*
X0200600Y0090259D02*
X0200600Y0087543D01*
X0198200Y0087543D02*
X0198200Y0089229D01*
X0196500Y0088000D02*
X0202974Y0088000D01*
X0206600Y0085143D02*
X0214100Y0085143D01*
X0214100Y0090557D01*
X0209938Y0090400D02*
X0209829Y0090400D01*
X0209938Y0092800D02*
X0207469Y0092800D01*
X0210200Y0093139D02*
X0210200Y0095061D01*
X0212600Y0094206D02*
X0212600Y0093931D01*
X0214100Y0096100D02*
X0216100Y0094100D01*
X0234592Y0094100D01*
X0238305Y0097600D02*
X0265701Y0097600D01*
X0265701Y0095200D02*
X0239657Y0095200D01*
X0239000Y0096785D02*
X0239000Y0103769D01*
X0239133Y0104030D02*
X0239371Y0104764D01*
X0239492Y0105525D01*
X0239492Y0105527D01*
X0234976Y0105527D01*
X0234976Y0101011D01*
X0234978Y0101011D01*
X0235740Y0101132D01*
X0236473Y0101370D01*
X0237160Y0101720D01*
X0237784Y0102174D01*
X0238330Y0102719D01*
X0238783Y0103343D01*
X0239133Y0104030D01*
X0239377Y0104800D02*
X0242043Y0104800D01*
X0241810Y0105202D02*
X0243193Y0102807D01*
X0245149Y0100851D01*
X0247545Y0099468D01*
X0250217Y0098752D01*
X0252983Y0098752D01*
X0255655Y0099468D01*
X0258051Y0100851D01*
X0260006Y0102807D01*
X0261390Y0105202D01*
X0262105Y0107874D01*
X0262105Y0110641D01*
X0261390Y0113312D01*
X0260006Y0115708D01*
X0258051Y0117664D01*
X0255655Y0119047D01*
X0252983Y0119763D01*
X0250217Y0119763D01*
X0247545Y0119047D01*
X0245149Y0117664D01*
X0243193Y0115708D01*
X0241810Y0113312D01*
X0241094Y0110641D01*
X0241094Y0107874D01*
X0241810Y0105202D01*
X0241400Y0106734D02*
X0241400Y0081466D01*
X0241222Y0080800D02*
X0239496Y0080800D01*
X0239000Y0079604D02*
X0239000Y0073163D01*
X0238916Y0073367D02*
X0237481Y0074802D01*
X0235607Y0075578D01*
X0233578Y0075578D01*
X0231703Y0074802D01*
X0230269Y0073367D01*
X0229492Y0071492D01*
X0229492Y0069463D01*
X0230269Y0067589D01*
X0231703Y0066154D01*
X0233578Y0065378D01*
X0235607Y0065378D01*
X0237481Y0066154D01*
X0238916Y0067589D01*
X0239692Y0069463D01*
X0239692Y0071492D01*
X0238916Y0073367D01*
X0238683Y0073600D02*
X0242554Y0073600D01*
X0243193Y0072492D02*
X0245149Y0070536D01*
X0247545Y0069153D01*
X0250217Y0068437D01*
X0252983Y0068437D01*
X0255655Y0069153D01*
X0258051Y0070536D01*
X0260006Y0072492D01*
X0261390Y0074888D01*
X0262105Y0077559D01*
X0262105Y0080326D01*
X0261390Y0082997D01*
X0260006Y0085393D01*
X0258051Y0087349D01*
X0255655Y0088732D01*
X0252983Y0089448D01*
X0250217Y0089448D01*
X0247545Y0088732D01*
X0245149Y0087349D01*
X0243193Y0085393D01*
X0241810Y0082997D01*
X0241094Y0080326D01*
X0241094Y0077559D01*
X0241810Y0074888D01*
X0243193Y0072492D01*
X0243800Y0071885D02*
X0243800Y0029400D01*
X0241400Y0029400D02*
X0241400Y0076419D01*
X0241512Y0076000D02*
X0217990Y0076000D01*
X0217400Y0075176D02*
X0217400Y0068600D01*
X0217200Y0068800D02*
X0229767Y0068800D01*
X0229492Y0071200D02*
X0142094Y0071200D01*
X0143000Y0072106D02*
X0143000Y0067150D01*
X0145400Y0067150D02*
X0145400Y0072700D01*
X0147800Y0072700D02*
X0147800Y0067150D01*
X0150200Y0067150D02*
X0150200Y0072700D01*
X0152600Y0072700D02*
X0152600Y0067150D01*
X0155000Y0067150D02*
X0155000Y0072700D01*
X0157400Y0072700D02*
X0157400Y0067150D01*
X0159800Y0067219D02*
X0159800Y0072700D01*
X0162200Y0072700D02*
X0162200Y0070035D01*
X0160803Y0068800D02*
X0139694Y0068800D01*
X0140600Y0069706D02*
X0140600Y0066943D01*
X0138200Y0066943D02*
X0138200Y0067306D01*
X0142943Y0064750D02*
X0165380Y0064750D01*
X0159800Y0062280D02*
X0159800Y0046780D01*
X0158785Y0047200D02*
X0244200Y0047200D01*
X0244200Y0047070D02*
X0247070Y0044200D01*
X0248900Y0044200D01*
X0248900Y0048900D01*
X0244200Y0048900D01*
X0244200Y0047070D01*
X0244200Y0049300D02*
X0248900Y0049300D01*
X0248900Y0054000D01*
X0247070Y0054000D01*
X0244200Y0051130D01*
X0244200Y0049300D01*
X0244200Y0049600D02*
X0148617Y0049600D01*
X0147800Y0051312D02*
X0147800Y0062350D01*
X0145400Y0062350D02*
X0145400Y0051550D01*
X0143000Y0051550D02*
X0143000Y0056257D01*
X0143838Y0056800D02*
X0265701Y0056800D01*
X0265701Y0054400D02*
X0142193Y0054400D01*
X0142193Y0052000D02*
X0245070Y0052000D01*
X0246200Y0053130D02*
X0246200Y0069929D01*
X0244485Y0071200D02*
X0239692Y0071200D01*
X0239417Y0068800D02*
X0248862Y0068800D01*
X0248600Y0068870D02*
X0248600Y0054000D01*
X0249300Y0054000D02*
X0249300Y0049300D01*
X0248900Y0049300D01*
X0248900Y0048900D01*
X0249300Y0048900D01*
X0249300Y0049300D01*
X0254000Y0049300D01*
X0254000Y0051130D01*
X0251130Y0054000D01*
X0249300Y0054000D01*
X0251000Y0054000D02*
X0251000Y0068437D01*
X0253400Y0068549D02*
X0253400Y0051730D01*
X0253130Y0052000D02*
X0265701Y0052000D01*
X0265701Y0049600D02*
X0254000Y0049600D01*
X0253400Y0049300D02*
X0253400Y0048900D01*
X0254000Y0048900D02*
X0249300Y0048900D01*
X0249300Y0044200D01*
X0251130Y0044200D01*
X0254000Y0047070D01*
X0254000Y0048900D01*
X0254000Y0047200D02*
X0265701Y0047200D01*
X0265701Y0044800D02*
X0251730Y0044800D01*
X0251212Y0044200D02*
X0246988Y0044200D01*
X0244000Y0041212D01*
X0244000Y0036988D01*
X0246988Y0034000D01*
X0251212Y0034000D01*
X0254200Y0036988D01*
X0254200Y0041212D01*
X0251212Y0044200D01*
X0251000Y0044200D02*
X0251000Y0044200D01*
X0249300Y0044800D02*
X0248900Y0044800D01*
X0248600Y0044200D02*
X0248600Y0044200D01*
X0246470Y0044800D02*
X0209943Y0044800D01*
X0210008Y0044773D02*
X0208428Y0045428D01*
X0161832Y0045428D01*
X0160961Y0046299D01*
X0158719Y0047228D01*
X0156292Y0047228D01*
X0154050Y0046299D01*
X0152334Y0044583D01*
X0151406Y0042341D01*
X0151406Y0039914D01*
X0152334Y0037672D01*
X0154050Y0035956D01*
X0156292Y0035028D01*
X0158719Y0035028D01*
X0160961Y0035956D01*
X0161832Y0036828D01*
X0205791Y0036828D01*
X0219955Y0022664D01*
X0219419Y0023200D02*
X0214816Y0023200D01*
X0215000Y0023124D02*
X0215000Y0027619D01*
X0214619Y0028000D02*
X0139325Y0028000D01*
X0140600Y0027868D02*
X0140600Y0031650D01*
X0143000Y0031650D02*
X0143000Y0027868D01*
X0145400Y0027868D02*
X0145400Y0031650D01*
X0148617Y0035200D02*
X0155876Y0035200D01*
X0155000Y0035563D02*
X0155000Y0019905D01*
X0152600Y0019905D02*
X0152600Y0037406D01*
X0152406Y0037600D02*
X0148617Y0037600D01*
X0148617Y0040000D02*
X0151406Y0040000D01*
X0151430Y0042400D02*
X0148312Y0042400D01*
X0147800Y0041888D02*
X0147800Y0041312D01*
X0145400Y0041550D02*
X0145400Y0041650D01*
X0143000Y0041650D02*
X0143000Y0041550D01*
X0140600Y0041550D02*
X0140600Y0041650D01*
X0139100Y0046600D02*
X0142880Y0046600D01*
X0139793Y0049687D01*
X0139793Y0061600D01*
X0142943Y0064750D01*
X0144349Y0061600D02*
X0160082Y0061600D01*
X0157400Y0062350D02*
X0157400Y0047228D01*
X0156226Y0047200D02*
X0148617Y0047200D01*
X0148617Y0044800D02*
X0152551Y0044800D01*
X0152600Y0044849D02*
X0152600Y0062350D01*
X0155000Y0062350D02*
X0155000Y0046692D01*
X0162200Y0045428D02*
X0162200Y0059464D01*
X0162837Y0059200D02*
X0144349Y0059200D01*
X0150200Y0062350D02*
X0150200Y0020794D01*
X0150025Y0017506D02*
X0165380Y0017506D01*
X0159800Y0015036D02*
X0159800Y0006200D01*
X0157400Y0006200D02*
X0157400Y0015106D01*
X0155000Y0015106D02*
X0155000Y0006200D01*
X0152600Y0006200D02*
X0152600Y0015106D01*
X0150200Y0014217D02*
X0150200Y0006200D01*
X0147800Y0006200D02*
X0147800Y0015079D01*
X0147089Y0016000D02*
X0093564Y0016000D01*
X0092600Y0014822D02*
X0092600Y0006200D01*
X0095000Y0006200D02*
X0095000Y0025306D01*
X0094706Y0025600D02*
X0093378Y0025600D01*
X0092600Y0024822D02*
X0092600Y0021307D01*
X0093107Y0020800D02*
X0104041Y0020800D01*
X0104600Y0020206D02*
X0104600Y0006200D01*
X0102200Y0006200D02*
X0102200Y0024657D01*
X0103700Y0023200D02*
X0090978Y0023200D01*
X0093564Y0018400D02*
X0106579Y0018400D01*
X0107000Y0018225D02*
X0107000Y0006200D01*
X0109400Y0006200D02*
X0109400Y0017182D01*
X0111800Y0017182D02*
X0111800Y0006200D01*
X0114200Y0006200D02*
X0114200Y0017182D01*
X0116600Y0017182D02*
X0116600Y0006200D01*
X0119000Y0006200D02*
X0119000Y0017182D01*
X0121400Y0017182D02*
X0121400Y0006200D01*
X0123800Y0006200D02*
X0123800Y0017443D01*
X0126200Y0017382D02*
X0126200Y0006200D01*
X0128600Y0006200D02*
X0128600Y0017382D01*
X0126787Y0018400D02*
X0126413Y0018400D01*
X0126600Y0020557D02*
X0134572Y0020557D01*
X0134769Y0020360D01*
X0134385Y0020744D02*
X0134385Y0019976D01*
X0135154Y0019976D01*
X0135154Y0020744D01*
X0134385Y0020744D01*
X0130562Y0020744D01*
X0126787Y0020744D01*
X0126787Y0023731D01*
X0129173Y0023731D01*
X0129580Y0023622D01*
X0129945Y0023412D01*
X0130243Y0023114D01*
X0130453Y0022749D01*
X0130461Y0022718D01*
X0130522Y0022946D01*
X0130733Y0023311D01*
X0131031Y0023609D01*
X0131396Y0023819D01*
X0131803Y0023928D01*
X0134385Y0023928D01*
X0134385Y0020744D01*
X0134385Y0020800D02*
X0135154Y0020800D01*
X0135800Y0020744D02*
X0135800Y0019976D01*
X0135154Y0019976D02*
X0139125Y0019976D01*
X0139125Y0018181D01*
X0139016Y0017774D01*
X0138805Y0017409D01*
X0138508Y0017111D01*
X0138143Y0016900D01*
X0137736Y0016791D01*
X0135154Y0016791D01*
X0135154Y0019976D01*
X0135154Y0018400D02*
X0134385Y0018400D01*
X0133400Y0019976D02*
X0133400Y0020744D01*
X0131000Y0020744D02*
X0131000Y0019976D01*
X0128600Y0020369D02*
X0128600Y0020744D01*
X0126787Y0020800D02*
X0126413Y0020800D01*
X0126413Y0023200D02*
X0126787Y0023200D01*
X0126200Y0023731D02*
X0126200Y0024263D01*
X0128600Y0024269D02*
X0128600Y0023731D01*
X0130156Y0023200D02*
X0130669Y0023200D01*
X0131000Y0023578D02*
X0131000Y0024339D01*
X0133400Y0024072D02*
X0133400Y0023928D01*
X0134385Y0023200D02*
X0135154Y0023200D01*
X0135800Y0023928D02*
X0135800Y0024072D01*
X0138200Y0024072D02*
X0138200Y0023786D01*
X0138869Y0023200D02*
X0138875Y0023200D01*
X0139125Y0020800D02*
X0139461Y0020800D01*
X0140600Y0020331D02*
X0140600Y0006200D01*
X0138200Y0006200D02*
X0138200Y0016933D01*
X0139125Y0018400D02*
X0145737Y0018400D01*
X0145400Y0018737D02*
X0145400Y0006200D01*
X0143000Y0006200D02*
X0143000Y0020331D01*
X0143431Y0024100D02*
X0150025Y0017506D01*
X0157400Y0019905D02*
X0157400Y0035028D01*
X0162200Y0036828D02*
X0162200Y0022791D01*
X0142880Y0036600D02*
X0123600Y0036600D01*
X0119100Y0032100D01*
X0119100Y0027643D01*
X0119100Y0020557D02*
X0126187Y0027643D01*
X0126600Y0027643D01*
X0134572Y0027643D01*
X0134769Y0027840D01*
X0138200Y0020744D02*
X0138200Y0019976D01*
X0135800Y0016791D02*
X0135800Y0006200D01*
X0133400Y0006200D02*
X0133400Y0016791D01*
X0131000Y0017142D02*
X0131000Y0006200D01*
X0111600Y0020557D02*
X0107643Y0020557D01*
X0106100Y0022100D01*
X0106100Y0025100D01*
X0104143Y0027057D01*
X0096643Y0027057D01*
X0095600Y0028100D01*
X0095600Y0042600D01*
X0093100Y0045100D01*
X0077510Y0045100D01*
X0073255Y0049355D01*
X0071309Y0047200D02*
X0066891Y0047200D01*
X0066200Y0046509D02*
X0066200Y0033564D01*
X0065786Y0033564D02*
X0062564Y0030343D01*
X0062564Y0025786D01*
X0065428Y0022923D01*
X0062764Y0020260D01*
X0062764Y0018464D01*
X0067664Y0018464D01*
X0067664Y0017664D01*
X0062764Y0017664D01*
X0062764Y0015869D01*
X0064934Y0013700D01*
X0048177Y0013700D01*
X0046200Y0015677D01*
X0046200Y0042090D01*
X0047210Y0041080D01*
X0049116Y0041080D01*
X0049365Y0041329D01*
X0049821Y0040873D01*
X0049821Y0040598D01*
X0049917Y0040117D01*
X0050104Y0039665D01*
X0050376Y0039258D01*
X0050549Y0039085D01*
X0054332Y0042868D01*
X0054332Y0042868D01*
X0058115Y0046651D01*
X0058066Y0046700D01*
X0058995Y0046700D01*
X0058700Y0045988D01*
X0058700Y0045733D01*
X0058560Y0046071D01*
X0058288Y0046478D01*
X0058115Y0046651D01*
X0054332Y0042868D01*
X0054332Y0042868D01*
X0050600Y0039136D01*
X0050600Y0033600D01*
X0066136Y0018064D01*
X0068064Y0018064D01*
X0067664Y0018400D02*
X0046200Y0018400D01*
X0046200Y0016000D02*
X0062764Y0016000D01*
X0063800Y0014834D02*
X0063800Y0013700D01*
X0061400Y0013700D02*
X0061400Y0037915D01*
X0061085Y0037600D02*
X0083248Y0037600D01*
X0083000Y0037703D02*
X0083000Y0030907D01*
X0083064Y0030843D02*
X0080343Y0033564D01*
X0075786Y0033564D01*
X0073064Y0030843D01*
X0070343Y0033564D01*
X0065786Y0033564D01*
X0065022Y0032800D02*
X0046200Y0032800D01*
X0046200Y0030400D02*
X0062622Y0030400D01*
X0063800Y0031578D02*
X0063800Y0044816D01*
X0063784Y0044800D02*
X0074416Y0044800D01*
X0074207Y0045009D02*
X0075476Y0043741D01*
X0076151Y0043065D01*
X0077033Y0042700D01*
X0082049Y0042700D01*
X0081812Y0042463D01*
X0081311Y0041254D01*
X0081311Y0039946D01*
X0081812Y0038737D01*
X0082737Y0037812D01*
X0083946Y0037311D01*
X0084495Y0037311D01*
X0085664Y0036141D01*
X0085664Y0033443D01*
X0083064Y0030843D01*
X0081107Y0032800D02*
X0085022Y0032800D01*
X0085400Y0033178D02*
X0085400Y0036406D01*
X0085664Y0035200D02*
X0058685Y0035200D01*
X0059000Y0035515D02*
X0059000Y0013700D01*
X0056600Y0013700D02*
X0056600Y0034350D01*
X0056344Y0034350D02*
X0057836Y0034350D01*
X0062850Y0039364D01*
X0062850Y0040856D01*
X0062623Y0041083D01*
X0063135Y0041595D01*
X0063500Y0042477D01*
X0063500Y0044516D01*
X0063993Y0045009D01*
X0064700Y0045009D01*
X0069100Y0049409D01*
X0073500Y0045009D01*
X0074207Y0045009D01*
X0073400Y0045109D02*
X0073400Y0031178D01*
X0075022Y0032800D02*
X0071107Y0032800D01*
X0071000Y0032907D02*
X0071000Y0047509D01*
X0068600Y0048909D02*
X0068600Y0033564D01*
X0075800Y0033564D02*
X0075800Y0043416D01*
X0078200Y0042700D02*
X0078200Y0033564D01*
X0080600Y0033307D02*
X0080600Y0042700D01*
X0081786Y0042400D02*
X0063468Y0042400D01*
X0061100Y0042954D02*
X0061100Y0045510D01*
X0064945Y0049355D01*
X0062718Y0051582D02*
X0060236Y0049100D01*
X0053883Y0049100D01*
X0050992Y0046208D01*
X0054332Y0042868D02*
X0050549Y0039085D01*
X0050722Y0038912D01*
X0051129Y0038640D01*
X0051582Y0038452D01*
X0052062Y0038357D01*
X0052338Y0038357D01*
X0052794Y0037901D01*
X0052544Y0037651D01*
X0052544Y0035746D01*
X0053892Y0034399D01*
X0055797Y0034399D01*
X0056047Y0034648D01*
X0056344Y0034350D01*
X0054200Y0034399D02*
X0054200Y0013700D01*
X0051800Y0013700D02*
X0051800Y0038409D01*
X0052544Y0037600D02*
X0046200Y0037600D01*
X0046200Y0035200D02*
X0053090Y0035200D01*
X0051464Y0040000D02*
X0051465Y0040000D01*
X0051800Y0040335D02*
X0051800Y0040336D01*
X0049965Y0040000D02*
X0046200Y0040000D01*
X0047000Y0041290D02*
X0047000Y0014877D01*
X0049400Y0013700D02*
X0049400Y0041295D01*
X0053864Y0042400D02*
X0053865Y0042400D01*
X0054200Y0042735D02*
X0054200Y0042736D01*
X0056264Y0044800D02*
X0056265Y0044800D01*
X0056600Y0045135D02*
X0056600Y0045136D01*
X0061100Y0042954D02*
X0057673Y0039527D01*
X0062850Y0040000D02*
X0081311Y0040000D01*
X0084600Y0040600D02*
X0088064Y0037136D01*
X0088064Y0028064D01*
X0097400Y0024657D02*
X0097400Y0006200D01*
X0099800Y0006200D02*
X0099800Y0024657D01*
X0103600Y0031600D02*
X0103600Y0034880D01*
X0105320Y0036600D01*
X0111600Y0044100D02*
X0109100Y0046600D01*
X0105320Y0046600D01*
X0111600Y0044100D02*
X0111600Y0027643D01*
X0133400Y0039000D02*
X0133400Y0048906D01*
X0132706Y0049600D02*
X0128807Y0049600D01*
X0107100Y0059600D02*
X0106100Y0058600D01*
X0107100Y0059600D02*
X0107100Y0104600D01*
X0111600Y0109100D01*
X0186100Y0109100D01*
X0190931Y0113931D01*
X0190931Y0119100D01*
X0198100Y0119100D01*
X0199100Y0120100D01*
X0203643Y0115557D01*
X0206600Y0115557D01*
X0205400Y0118931D02*
X0205400Y0119269D01*
X0203663Y0118931D02*
X0201500Y0121094D01*
X0201500Y0122375D01*
X0201853Y0122375D01*
X0202438Y0122959D01*
X0202438Y0120323D01*
X0203492Y0119269D01*
X0209708Y0119269D01*
X0210600Y0120161D01*
X0211446Y0119811D01*
X0212754Y0119811D01*
X0213963Y0120312D01*
X0214888Y0121237D01*
X0215389Y0122446D01*
X0215389Y0123754D01*
X0214888Y0124963D01*
X0213963Y0125888D01*
X0212754Y0126389D01*
X0211446Y0126389D01*
X0210237Y0125888D01*
X0210037Y0125689D01*
X0209708Y0126018D01*
X0203492Y0126018D01*
X0202908Y0125434D01*
X0202908Y0129645D01*
X0201853Y0130699D01*
X0198093Y0130699D01*
X0198135Y0130741D01*
X0198299Y0131139D01*
X0200889Y0131139D01*
X0201943Y0132193D01*
X0201943Y0134682D01*
X0207208Y0134682D01*
X0207850Y0135324D01*
X0208492Y0134682D01*
X0214708Y0134682D01*
X0215683Y0135657D01*
X0218034Y0135657D01*
X0218916Y0136022D01*
X0223200Y0140306D01*
X0223200Y0114594D01*
X0217606Y0109000D01*
X0189394Y0109000D01*
X0192290Y0111896D01*
X0192290Y0111896D01*
X0192965Y0112571D01*
X0193331Y0113453D01*
X0193331Y0115725D01*
X0193448Y0115725D01*
X0194423Y0116700D01*
X0195634Y0116700D01*
X0195601Y0116643D01*
X0195492Y0116236D01*
X0195492Y0114067D01*
X0198696Y0114067D01*
X0198696Y0113259D01*
X0195492Y0113259D01*
X0195492Y0111090D01*
X0195601Y0110683D01*
X0195812Y0110318D01*
X0196110Y0110020D01*
X0196475Y0109810D01*
X0196881Y0109701D01*
X0198696Y0109701D01*
X0198696Y0113259D01*
X0199504Y0113259D01*
X0199504Y0109701D01*
X0201319Y0109701D01*
X0201725Y0109810D01*
X0202090Y0110020D01*
X0202388Y0110318D01*
X0202599Y0110683D01*
X0202708Y0111090D01*
X0202708Y0112966D01*
X0203492Y0112182D01*
X0209708Y0112182D01*
X0210762Y0113236D01*
X0210762Y0117877D01*
X0209708Y0118931D01*
X0203663Y0118931D01*
X0203394Y0119200D02*
X0223200Y0119200D01*
X0222100Y0117600D02*
X0222100Y0130600D01*
X0220600Y0132100D01*
X0216600Y0132100D01*
X0215000Y0134974D02*
X0215000Y0124693D01*
X0215287Y0124000D02*
X0223200Y0124000D01*
X0223200Y0121600D02*
X0215039Y0121600D01*
X0215000Y0121507D02*
X0215000Y0109000D01*
X0215100Y0110600D02*
X0222100Y0117600D01*
X0223200Y0116800D02*
X0210762Y0116800D01*
X0210200Y0118439D02*
X0210200Y0119761D01*
X0212600Y0119811D02*
X0212600Y0109000D01*
X0210200Y0109000D02*
X0210200Y0112674D01*
X0210762Y0114400D02*
X0223006Y0114400D01*
X0222200Y0113594D02*
X0222200Y0139306D01*
X0221294Y0138400D02*
X0223200Y0138400D01*
X0223200Y0136000D02*
X0218863Y0136000D01*
X0219800Y0136906D02*
X0219800Y0111194D01*
X0220606Y0112000D02*
X0202708Y0112000D01*
X0203000Y0112674D02*
X0203000Y0109000D01*
X0203600Y0110600D02*
X0215100Y0110600D01*
X0217400Y0109000D02*
X0217400Y0135657D01*
X0217557Y0138057D02*
X0223100Y0143600D01*
X0223100Y0182600D01*
X0219100Y0186600D01*
X0196600Y0186600D01*
X0194100Y0184100D01*
X0194100Y0183057D01*
X0193100Y0179100D02*
X0198600Y0179100D01*
X0201600Y0182100D01*
X0201600Y0183057D01*
X0201600Y0177600D02*
X0200100Y0176100D01*
X0196600Y0176100D01*
X0195600Y0175100D01*
X0195600Y0171600D01*
X0194100Y0170100D01*
X0191600Y0170100D01*
X0191600Y0169600D01*
X0193851Y0167200D02*
X0200722Y0167200D01*
X0200600Y0167322D02*
X0200600Y0165595D01*
X0200647Y0165643D02*
X0200057Y0165053D01*
X0199567Y0164378D01*
X0199188Y0163634D01*
X0198930Y0162841D01*
X0198800Y0162017D01*
X0198800Y0162000D01*
X0203700Y0162000D01*
X0203700Y0161200D01*
X0204500Y0161200D01*
X0204500Y0162000D01*
X0209400Y0162000D01*
X0209400Y0162017D01*
X0209269Y0162841D01*
X0209012Y0163634D01*
X0208633Y0164378D01*
X0208143Y0165053D01*
X0207553Y0165643D01*
X0206878Y0166133D01*
X0206158Y0166499D01*
X0207215Y0166937D01*
X0208763Y0168484D01*
X0209600Y0170506D01*
X0209600Y0172694D01*
X0208763Y0174715D01*
X0208278Y0175200D01*
X0212422Y0175200D01*
X0211937Y0174715D01*
X0211100Y0172694D01*
X0211100Y0170506D01*
X0211937Y0168484D01*
X0213484Y0166937D01*
X0214542Y0166499D01*
X0213822Y0166133D01*
X0213147Y0165643D01*
X0212557Y0165053D01*
X0212067Y0164378D01*
X0211688Y0163634D01*
X0211430Y0162841D01*
X0211300Y0162017D01*
X0211300Y0162000D01*
X0216200Y0162000D01*
X0216200Y0161200D01*
X0217000Y0161200D01*
X0217000Y0156300D01*
X0217017Y0156300D01*
X0217841Y0156430D01*
X0218634Y0156688D01*
X0219378Y0157067D01*
X0220053Y0157557D01*
X0220643Y0158147D01*
X0220700Y0158226D01*
X0220700Y0144594D01*
X0216563Y0140457D01*
X0215683Y0140457D01*
X0214708Y0141431D01*
X0212326Y0141431D01*
X0212663Y0141769D01*
X0214708Y0141769D01*
X0215762Y0142823D01*
X0215762Y0147464D01*
X0214857Y0148369D01*
X0214889Y0148446D01*
X0214889Y0149754D01*
X0214388Y0150963D01*
X0213463Y0151888D01*
X0212254Y0152389D01*
X0210946Y0152389D01*
X0209737Y0151888D01*
X0208812Y0150963D01*
X0208311Y0149754D01*
X0208311Y0148446D01*
X0208343Y0148369D01*
X0207709Y0147734D01*
X0207445Y0147998D01*
X0207080Y0148209D01*
X0206673Y0148318D01*
X0204287Y0148318D01*
X0204287Y0145331D01*
X0203913Y0145331D01*
X0203913Y0148318D01*
X0201743Y0148318D01*
X0201743Y0150472D01*
X0201634Y0150879D01*
X0201424Y0151244D01*
X0201126Y0151542D01*
X0200761Y0151752D01*
X0200354Y0151861D01*
X0197200Y0151861D01*
X0197200Y0147712D01*
X0196000Y0147712D01*
X0196000Y0151861D01*
X0192846Y0151861D01*
X0192439Y0151752D01*
X0192074Y0151542D01*
X0191813Y0151281D01*
X0191198Y0151896D01*
X0191198Y0151896D01*
X0190522Y0152572D01*
X0190231Y0152692D01*
X0190231Y0153251D01*
X0189813Y0153669D01*
X0189922Y0153856D01*
X0190031Y0154263D01*
X0190031Y0156058D01*
X0185469Y0156058D01*
X0185469Y0156827D01*
X0190031Y0156827D01*
X0190031Y0158622D01*
X0189922Y0159029D01*
X0189813Y0159216D01*
X0190231Y0159634D01*
X0190231Y0165062D01*
X0189992Y0165301D01*
X0190231Y0165539D01*
X0190231Y0166607D01*
X0190946Y0166311D01*
X0192254Y0166311D01*
X0193463Y0166812D01*
X0194351Y0167700D01*
X0194577Y0167700D01*
X0195459Y0168065D01*
X0196135Y0168741D01*
X0196959Y0169565D01*
X0197635Y0170241D01*
X0198000Y0171123D01*
X0198000Y0173700D01*
X0199017Y0173700D01*
X0198600Y0172694D01*
X0198600Y0170506D01*
X0199437Y0168484D01*
X0200984Y0166937D01*
X0202042Y0166499D01*
X0201322Y0166133D01*
X0200647Y0165643D01*
X0199874Y0164800D02*
X0190231Y0164800D01*
X0191000Y0166311D02*
X0191000Y0152094D01*
X0190231Y0152800D02*
X0220700Y0152800D01*
X0220700Y0150400D02*
X0214621Y0150400D01*
X0215000Y0148226D02*
X0215000Y0156547D01*
X0215359Y0156430D02*
X0214566Y0156688D01*
X0213822Y0157067D01*
X0213147Y0157557D01*
X0212557Y0158147D01*
X0212067Y0158822D01*
X0211688Y0159566D01*
X0211430Y0160359D01*
X0211300Y0161183D01*
X0211300Y0161200D01*
X0216200Y0161200D01*
X0216200Y0156300D01*
X0216183Y0156300D01*
X0215359Y0156430D01*
X0216200Y0157600D02*
X0217000Y0157600D01*
X0217400Y0156361D02*
X0217400Y0141294D01*
X0216906Y0140800D02*
X0215339Y0140800D01*
X0215000Y0141139D02*
X0215000Y0142061D01*
X0215762Y0143200D02*
X0219306Y0143200D01*
X0219800Y0143694D02*
X0219800Y0157374D01*
X0220095Y0157600D02*
X0220700Y0157600D01*
X0220700Y0155200D02*
X0190031Y0155200D01*
X0188600Y0156058D02*
X0188600Y0156827D01*
X0188612Y0156600D02*
X0185242Y0156600D01*
X0185084Y0156443D01*
X0186200Y0156058D02*
X0186200Y0156827D01*
X0183800Y0156827D02*
X0183800Y0156058D01*
X0181400Y0156058D02*
X0181400Y0156827D01*
X0180138Y0157600D02*
X0171500Y0157600D01*
X0171500Y0155200D02*
X0180138Y0155200D01*
X0179938Y0152800D02*
X0171500Y0152800D01*
X0171500Y0150400D02*
X0179938Y0150400D01*
X0179938Y0148000D02*
X0171500Y0148000D01*
X0171500Y0145600D02*
X0179938Y0145600D01*
X0179938Y0143200D02*
X0171500Y0143200D01*
X0171500Y0140800D02*
X0179938Y0140800D01*
X0185084Y0138726D02*
X0188254Y0135557D01*
X0196100Y0135557D01*
X0196100Y0132100D01*
X0193600Y0129600D01*
X0176600Y0129600D01*
X0176600Y0122643D01*
X0182466Y0122643D01*
X0182663Y0122840D01*
X0182466Y0115557D02*
X0176600Y0115557D01*
X0169100Y0115557D01*
X0169100Y0122643D02*
X0169100Y0158600D01*
X0165352Y0162348D01*
X0133116Y0162348D01*
X0138262Y0164800D02*
X0179938Y0164800D01*
X0179000Y0166311D02*
X0179000Y0132000D01*
X0181400Y0132000D02*
X0181400Y0134957D01*
X0179950Y0136000D02*
X0171500Y0136000D01*
X0171500Y0133600D02*
X0186816Y0133600D01*
X0186200Y0134216D02*
X0186200Y0132000D01*
X0188600Y0132000D02*
X0188600Y0133157D01*
X0191000Y0133157D02*
X0191000Y0132000D01*
X0196100Y0135557D02*
X0197131Y0135557D01*
X0196600Y0136088D01*
X0198569Y0138057D01*
X0204100Y0138057D01*
X0211600Y0138057D01*
X0217557Y0138057D01*
X0212600Y0134682D02*
X0212600Y0126389D01*
X0210200Y0125851D02*
X0210200Y0134682D01*
X0207800Y0135274D02*
X0207800Y0126018D01*
X0205400Y0126018D02*
X0205400Y0134682D01*
X0203000Y0134682D02*
X0203000Y0125526D01*
X0202908Y0126400D02*
X0223200Y0126400D01*
X0223200Y0128800D02*
X0202908Y0128800D01*
X0200600Y0130699D02*
X0200600Y0131139D01*
X0200950Y0131200D02*
X0223200Y0131200D01*
X0223200Y0133600D02*
X0201943Y0133600D01*
X0198200Y0130898D02*
X0198200Y0130699D01*
X0199100Y0126537D02*
X0199100Y0120100D01*
X0201500Y0121600D02*
X0202438Y0121600D01*
X0203000Y0119761D02*
X0203000Y0119594D01*
X0206600Y0122643D02*
X0211643Y0122643D01*
X0212100Y0123100D01*
X0207800Y0119269D02*
X0207800Y0118931D01*
X0207800Y0112182D02*
X0207800Y0109000D01*
X0205400Y0109000D02*
X0205400Y0112182D01*
X0203600Y0110600D02*
X0202163Y0110600D01*
X0199100Y0113663D01*
X0198200Y0113259D02*
X0198200Y0114067D01*
X0198696Y0112000D02*
X0199504Y0112000D01*
X0200600Y0109701D02*
X0200600Y0109000D01*
X0198200Y0109000D02*
X0198200Y0109701D01*
X0195800Y0110339D02*
X0195800Y0109000D01*
X0193400Y0109000D02*
X0193400Y0115725D01*
X0193331Y0114400D02*
X0195492Y0114400D01*
X0195800Y0114067D02*
X0195800Y0113259D01*
X0195492Y0112000D02*
X0192394Y0112000D01*
X0191000Y0110606D02*
X0191000Y0109000D01*
X0189994Y0109600D02*
X0218206Y0109600D01*
X0218600Y0106600D02*
X0225600Y0113600D01*
X0225600Y0166100D01*
X0228600Y0169100D01*
X0234592Y0169100D01*
X0236600Y0173788D02*
X0236600Y0176435D01*
X0237270Y0176800D02*
X0238700Y0176800D01*
X0238700Y0174400D02*
X0225500Y0174400D01*
X0225500Y0172000D02*
X0230280Y0172000D01*
X0229400Y0171500D02*
X0229400Y0206961D01*
X0227000Y0206961D02*
X0227000Y0170894D01*
X0226565Y0170459D02*
X0226565Y0170459D01*
X0225706Y0169600D02*
X0225500Y0169600D01*
X0229400Y0166506D02*
X0229400Y0096500D01*
X0230880Y0097600D02*
X0218262Y0097600D01*
X0219800Y0096500D02*
X0219800Y0104499D01*
X0220194Y0104800D02*
X0229807Y0104800D01*
X0229813Y0104764D02*
X0230051Y0104030D01*
X0230401Y0103343D01*
X0230855Y0102719D01*
X0231400Y0102174D01*
X0232024Y0101720D01*
X0232711Y0101370D01*
X0233445Y0101132D01*
X0234206Y0101011D01*
X0234208Y0101011D01*
X0234208Y0105527D01*
X0229692Y0105527D01*
X0229692Y0105525D01*
X0229813Y0104764D01*
X0229692Y0106295D02*
X0234208Y0106295D01*
X0234208Y0105527D01*
X0234976Y0105527D01*
X0234976Y0106295D01*
X0234208Y0106295D01*
X0234208Y0110811D01*
X0234206Y0110811D01*
X0233445Y0110690D01*
X0232711Y0110452D01*
X0232024Y0110102D01*
X0231400Y0109649D01*
X0230855Y0109103D01*
X0230401Y0108479D01*
X0230051Y0107792D01*
X0229813Y0107058D01*
X0229692Y0106297D01*
X0229692Y0106295D01*
X0229859Y0107200D02*
X0222594Y0107200D01*
X0222200Y0106806D02*
X0222200Y0096500D01*
X0224600Y0096500D02*
X0224600Y0109206D01*
X0224994Y0109600D02*
X0231351Y0109600D01*
X0231800Y0109939D02*
X0231800Y0113358D01*
X0230702Y0114400D02*
X0228000Y0114400D01*
X0228000Y0116800D02*
X0229492Y0116800D01*
X0229684Y0119200D02*
X0228000Y0119200D01*
X0228000Y0121600D02*
X0231258Y0121600D01*
X0231800Y0122086D02*
X0231800Y0141114D01*
X0232559Y0140800D02*
X0228000Y0140800D01*
X0228000Y0143200D02*
X0230015Y0143200D01*
X0229492Y0145600D02*
X0228000Y0145600D01*
X0228000Y0148000D02*
X0230117Y0148000D01*
X0231800Y0149842D02*
X0231800Y0152925D01*
X0232103Y0152800D02*
X0228000Y0152800D01*
X0228000Y0150400D02*
X0233148Y0150400D01*
X0234200Y0150578D02*
X0234200Y0152189D01*
X0236600Y0152600D02*
X0236600Y0150166D01*
X0236036Y0150400D02*
X0238700Y0150400D01*
X0238700Y0152800D02*
X0237082Y0152800D01*
X0229937Y0155200D02*
X0228000Y0155200D01*
X0228000Y0157600D02*
X0229492Y0157600D01*
X0230195Y0160000D02*
X0228000Y0160000D01*
X0228000Y0162400D02*
X0238700Y0162400D01*
X0236600Y0161977D02*
X0236600Y0164411D01*
X0237505Y0164800D02*
X0238700Y0164800D01*
X0234200Y0164000D02*
X0234200Y0162389D01*
X0231800Y0161653D02*
X0231800Y0164736D01*
X0231680Y0164800D02*
X0228000Y0164800D01*
X0231800Y0173464D02*
X0231800Y0176883D01*
X0231914Y0176800D02*
X0225500Y0176800D01*
X0225500Y0179200D02*
X0229996Y0179200D01*
X0228789Y0180911D02*
X0219100Y0190600D01*
X0219100Y0199100D01*
X0219300Y0199300D02*
X0224000Y0199300D01*
X0224000Y0201130D01*
X0221130Y0204000D01*
X0219300Y0204000D01*
X0219300Y0199300D01*
X0219300Y0198900D01*
X0224000Y0198900D01*
X0224000Y0197070D01*
X0221130Y0194200D01*
X0219300Y0194200D01*
X0219300Y0198900D01*
X0218900Y0198900D01*
X0218900Y0194200D01*
X0217070Y0194200D01*
X0214200Y0197070D01*
X0214200Y0198900D01*
X0218900Y0198900D01*
X0218900Y0199300D01*
X0218900Y0204000D01*
X0217070Y0204000D01*
X0214200Y0201130D01*
X0214200Y0199300D01*
X0218900Y0199300D01*
X0219300Y0199300D01*
X0219800Y0199300D02*
X0219800Y0198900D01*
X0219300Y0198400D02*
X0218900Y0198400D01*
X0217400Y0198900D02*
X0217400Y0199300D01*
X0218900Y0200800D02*
X0219300Y0200800D01*
X0219300Y0203200D02*
X0218900Y0203200D01*
X0219800Y0204000D02*
X0219800Y0206961D01*
X0217400Y0206961D02*
X0217400Y0204000D01*
X0216270Y0203200D02*
X0212212Y0203200D01*
X0212600Y0202812D02*
X0212600Y0206961D01*
X0215000Y0206961D02*
X0215000Y0201930D01*
X0214200Y0200800D02*
X0214200Y0200800D01*
X0215000Y0199300D02*
X0215000Y0198900D01*
X0214200Y0198400D02*
X0214200Y0198400D01*
X0215000Y0196270D02*
X0215000Y0189000D01*
X0212600Y0189000D02*
X0212600Y0195388D01*
X0213212Y0196000D02*
X0215270Y0196000D01*
X0217400Y0194200D02*
X0217400Y0189000D01*
X0219800Y0188908D02*
X0219800Y0194200D01*
X0219300Y0196000D02*
X0218900Y0196000D01*
X0222200Y0195270D02*
X0222200Y0186894D01*
X0222694Y0186400D02*
X0238700Y0186400D01*
X0236600Y0185387D02*
X0236600Y0188034D01*
X0234200Y0187622D02*
X0234200Y0185810D01*
X0234206Y0185811D02*
X0233445Y0185690D01*
X0232711Y0185452D01*
X0232024Y0185102D01*
X0231400Y0184649D01*
X0230855Y0184103D01*
X0230401Y0183479D01*
X0230051Y0182792D01*
X0229813Y0182058D01*
X0229692Y0181297D01*
X0229692Y0181295D01*
X0234208Y0181295D01*
X0234208Y0185811D01*
X0234206Y0185811D01*
X0234208Y0184000D02*
X0234976Y0184000D01*
X0234976Y0181600D02*
X0234208Y0181600D01*
X0234200Y0181295D02*
X0234200Y0180527D01*
X0234592Y0180911D02*
X0228789Y0180911D01*
X0229740Y0181600D02*
X0225500Y0181600D01*
X0225094Y0184000D02*
X0230780Y0184000D01*
X0231800Y0184939D02*
X0231800Y0188358D01*
X0231302Y0188800D02*
X0220060Y0188800D01*
X0224600Y0184494D02*
X0224600Y0206961D01*
X0222200Y0206961D02*
X0222200Y0202930D01*
X0221930Y0203200D02*
X0265701Y0203200D01*
X0265701Y0200800D02*
X0224000Y0200800D01*
X0222200Y0199300D02*
X0222200Y0198900D01*
X0224000Y0198400D02*
X0265701Y0198400D01*
X0265701Y0196000D02*
X0239449Y0196000D01*
X0239000Y0196122D02*
X0239000Y0206961D01*
X0236600Y0206961D02*
X0236600Y0197411D01*
X0234200Y0197822D02*
X0234200Y0206961D01*
X0231800Y0206961D02*
X0231800Y0197086D01*
X0230658Y0196000D02*
X0222930Y0196000D01*
X0229492Y0193600D02*
X0204000Y0193600D01*
X0205400Y0192826D02*
X0205400Y0195588D01*
X0204988Y0196000D02*
X0204394Y0196000D01*
X0201600Y0196600D02*
X0204100Y0199100D01*
X0209100Y0199100D01*
X0205400Y0202612D02*
X0205400Y0206961D01*
X0203000Y0206961D02*
X0203000Y0201242D01*
X0202406Y0200800D02*
X0115381Y0200800D01*
X0116600Y0199050D02*
X0116600Y0206961D01*
X0114200Y0206961D02*
X0114200Y0203347D01*
X0114347Y0203200D02*
X0205988Y0203200D01*
X0207800Y0204200D02*
X0207800Y0206961D01*
X0210200Y0206961D02*
X0210200Y0204200D01*
X0201600Y0196600D02*
X0201600Y0190143D01*
X0199200Y0193600D02*
X0120920Y0193600D01*
X0120920Y0191200D02*
X0187306Y0191200D01*
X0188600Y0192494D02*
X0188600Y0206961D01*
X0186200Y0206961D02*
X0186200Y0183833D01*
X0186700Y0184000D02*
X0084322Y0184000D01*
X0083000Y0186000D02*
X0083000Y0187200D01*
X0084322Y0188800D02*
X0186700Y0188800D01*
X0186700Y0186400D02*
X0075448Y0186400D01*
X0075800Y0186000D02*
X0075800Y0187200D01*
X0074848Y0186600D02*
X0074848Y0199352D01*
X0070100Y0204100D01*
X0022643Y0204100D01*
X0023000Y0203913D02*
X0023000Y0204287D01*
X0022831Y0203200D02*
X0022456Y0203200D01*
X0020600Y0203913D02*
X0020600Y0204287D01*
X0019469Y0203200D02*
X0018931Y0203200D01*
X0018931Y0205600D02*
X0019469Y0205600D01*
X0015557Y0204100D02*
X0015557Y0197643D01*
X0019100Y0194100D01*
X0023000Y0197412D02*
X0023000Y0200138D01*
X0022831Y0200800D02*
X0022456Y0200800D01*
X0020600Y0200207D02*
X0020600Y0199200D01*
X0022012Y0198400D02*
X0082968Y0198400D01*
X0083000Y0198432D02*
X0083000Y0206961D01*
X0080600Y0206961D02*
X0080600Y0193121D01*
X0078200Y0193121D02*
X0078200Y0206961D01*
X0075800Y0206961D02*
X0075800Y0193121D01*
X0074248Y0193121D02*
X0066763Y0193121D01*
X0066356Y0193012D01*
X0065992Y0192802D01*
X0065694Y0192504D01*
X0065483Y0192139D01*
X0065374Y0191732D01*
X0065374Y0187200D01*
X0074248Y0187200D01*
X0074248Y0193121D01*
X0073400Y0193121D02*
X0073400Y0206961D01*
X0071000Y0206961D02*
X0071000Y0193121D01*
X0068600Y0193121D02*
X0068600Y0206961D01*
X0066200Y0206961D02*
X0066200Y0192922D01*
X0065374Y0191200D02*
X0053026Y0191200D01*
X0053026Y0188800D02*
X0065374Y0188800D01*
X0066200Y0187200D02*
X0066200Y0186000D01*
X0065374Y0184000D02*
X0053026Y0184000D01*
X0053026Y0181600D02*
X0065374Y0181600D01*
X0066200Y0180278D02*
X0066200Y0171500D01*
X0068600Y0171500D02*
X0068600Y0180079D01*
X0071000Y0180079D02*
X0071000Y0171500D01*
X0073400Y0171500D02*
X0073400Y0180079D01*
X0074248Y0181600D02*
X0075448Y0181600D01*
X0075800Y0180079D02*
X0075800Y0171500D01*
X0078200Y0171324D02*
X0078200Y0180079D01*
X0080600Y0180079D02*
X0080600Y0170982D01*
X0081618Y0172000D02*
X0049512Y0172000D01*
X0049400Y0172112D02*
X0049400Y0179879D01*
X0047000Y0179879D02*
X0047000Y0174512D01*
X0047112Y0174400D02*
X0084874Y0174400D01*
X0085400Y0174926D02*
X0085400Y0189350D01*
X0087800Y0189350D02*
X0087800Y0175262D01*
X0091431Y0172000D02*
X0091969Y0172000D01*
X0092600Y0171287D02*
X0092600Y0170913D01*
X0091969Y0169600D02*
X0091431Y0169600D01*
X0091431Y0167200D02*
X0092147Y0167200D01*
X0091969Y0164800D02*
X0091431Y0164800D01*
X0092600Y0164287D02*
X0092600Y0163913D01*
X0091969Y0162400D02*
X0091431Y0162400D01*
X0094956Y0162400D02*
X0095331Y0162400D01*
X0095331Y0164800D02*
X0094956Y0164800D01*
X0094956Y0167200D02*
X0095331Y0167200D01*
X0095331Y0169600D02*
X0094956Y0169600D01*
X0094956Y0172000D02*
X0095331Y0172000D01*
X0095331Y0174400D02*
X0094956Y0174400D01*
X0097400Y0174916D02*
X0097400Y0189350D01*
X0099460Y0191200D02*
X0103540Y0191200D01*
X0104600Y0189150D02*
X0104600Y0179361D01*
X0103700Y0179200D02*
X0102500Y0179200D01*
X0102200Y0179361D02*
X0102200Y0206961D01*
X0099800Y0206961D02*
X0099800Y0179361D01*
X0098848Y0179200D02*
X0046752Y0179200D01*
X0046752Y0176800D02*
X0097957Y0176800D01*
X0098024Y0174400D02*
X0102500Y0174400D01*
X0102500Y0174012D02*
X0103700Y0174012D01*
X0103700Y0175212D01*
X0108243Y0175212D01*
X0111500Y0175212D01*
X0111500Y0174012D01*
X0103700Y0174012D01*
X0103700Y0169862D01*
X0106854Y0169862D01*
X0107261Y0169971D01*
X0107600Y0170167D01*
X0107939Y0169971D01*
X0108346Y0169862D01*
X0111500Y0169862D01*
X0111500Y0174012D01*
X0112700Y0174012D01*
X0112700Y0169862D01*
X0115854Y0169862D01*
X0116261Y0169971D01*
X0116357Y0170027D01*
X0116247Y0169836D01*
X0116138Y0169429D01*
X0116138Y0168538D01*
X0107811Y0168538D01*
X0107600Y0168327D01*
X0107389Y0168538D01*
X0098811Y0168538D01*
X0097858Y0167585D01*
X0097843Y0167600D01*
X0097998Y0167755D01*
X0098209Y0168120D01*
X0098318Y0168527D01*
X0098318Y0170438D01*
X0098574Y0170182D01*
X0098939Y0169971D01*
X0099346Y0169862D01*
X0102500Y0169862D01*
X0102500Y0174012D01*
X0102200Y0174012D02*
X0102200Y0175212D01*
X0102500Y0176800D02*
X0103700Y0176800D01*
X0104600Y0175212D02*
X0104600Y0174012D01*
X0103700Y0174400D02*
X0111500Y0174400D01*
X0111800Y0174012D02*
X0111800Y0168538D01*
X0114200Y0168538D02*
X0114200Y0169862D01*
X0116184Y0169600D02*
X0098318Y0169600D01*
X0099800Y0169862D02*
X0099800Y0168538D01*
X0102200Y0168538D02*
X0102200Y0169862D01*
X0102500Y0172000D02*
X0103700Y0172000D01*
X0104600Y0169862D02*
X0104600Y0168538D01*
X0107000Y0168538D02*
X0107000Y0169901D01*
X0109400Y0169862D02*
X0109400Y0168538D01*
X0111500Y0172000D02*
X0112700Y0172000D01*
X0112700Y0174400D02*
X0126006Y0174400D01*
X0126200Y0174594D02*
X0126200Y0206961D01*
X0123800Y0206961D02*
X0123800Y0170101D01*
X0123743Y0170201D02*
X0123445Y0170498D01*
X0123080Y0170709D01*
X0122673Y0170818D01*
X0120287Y0170818D01*
X0120287Y0167831D01*
X0124062Y0167831D01*
X0124062Y0169429D01*
X0123953Y0169836D01*
X0123743Y0170201D01*
X0124016Y0169600D02*
X0125200Y0169600D01*
X0123800Y0167831D02*
X0123800Y0167456D01*
X0124062Y0167200D02*
X0125200Y0167200D01*
X0125200Y0164800D02*
X0123456Y0164800D01*
X0123800Y0165186D02*
X0123800Y0163339D01*
X0124262Y0162400D02*
X0125200Y0162400D01*
X0125200Y0160000D02*
X0124262Y0160000D01*
X0123800Y0157774D02*
X0123800Y0128194D01*
X0124406Y0128800D02*
X0119900Y0128800D01*
X0119900Y0126400D02*
X0122041Y0126400D01*
X0121400Y0126018D02*
X0121400Y0157182D01*
X0123626Y0157600D02*
X0125200Y0157600D01*
X0125200Y0155200D02*
X0117200Y0155200D01*
X0117200Y0155911D02*
X0117200Y0151900D01*
X0113800Y0151900D01*
X0112600Y0151900D01*
X0112600Y0150700D01*
X0113800Y0150700D01*
X0113800Y0151900D01*
X0113800Y0157300D01*
X0115811Y0157300D01*
X0116218Y0157191D01*
X0116582Y0156980D01*
X0116880Y0156682D01*
X0117091Y0156318D01*
X0117200Y0155911D01*
X0116600Y0156963D02*
X0116600Y0157574D01*
X0116574Y0157600D02*
X0111777Y0157600D01*
X0111800Y0157623D02*
X0111800Y0157300D01*
X0112600Y0155200D02*
X0113800Y0155200D01*
X0114200Y0157300D02*
X0114200Y0158128D01*
X0119000Y0157182D02*
X0119000Y0144746D01*
X0119900Y0143200D02*
X0125200Y0143200D01*
X0125200Y0140800D02*
X0119900Y0140800D01*
X0119900Y0138400D02*
X0125200Y0138400D01*
X0125200Y0136000D02*
X0119900Y0136000D01*
X0119900Y0133600D02*
X0125200Y0133600D01*
X0125200Y0131200D02*
X0119900Y0131200D01*
X0124100Y0125100D02*
X0127600Y0128600D01*
X0127600Y0172600D01*
X0129159Y0174159D01*
X0133116Y0174159D01*
X0127969Y0176800D02*
X0117243Y0176800D01*
X0117243Y0177972D02*
X0117243Y0175212D01*
X0112700Y0175212D01*
X0112700Y0179361D01*
X0115854Y0179361D01*
X0116261Y0179252D01*
X0116626Y0179042D01*
X0116924Y0178744D01*
X0117134Y0178379D01*
X0117243Y0177972D01*
X0116600Y0179057D02*
X0116600Y0189150D01*
X0114200Y0189150D02*
X0114200Y0179361D01*
X0112700Y0179200D02*
X0111500Y0179200D01*
X0109400Y0179361D02*
X0109400Y0189150D01*
X0107000Y0189150D02*
X0107000Y0179322D01*
X0107352Y0179200D02*
X0107848Y0179200D01*
X0107000Y0175212D02*
X0107000Y0174012D01*
X0109400Y0174012D02*
X0109400Y0175212D01*
X0111800Y0175212D02*
X0111800Y0189150D01*
X0119000Y0189150D02*
X0119000Y0170818D01*
X0119913Y0169600D02*
X0120287Y0169600D01*
X0121400Y0170818D02*
X0121400Y0206961D01*
X0119000Y0206961D02*
X0119000Y0199050D01*
X0120515Y0198400D02*
X0200006Y0198400D01*
X0200600Y0198994D02*
X0200600Y0206961D01*
X0198200Y0206961D02*
X0198200Y0193226D01*
X0195800Y0193518D02*
X0195800Y0206961D01*
X0193400Y0206961D02*
X0193400Y0193518D01*
X0191000Y0193518D02*
X0191000Y0206961D01*
X0183800Y0206961D02*
X0183800Y0183833D01*
X0181400Y0183833D02*
X0181400Y0206961D01*
X0179000Y0206961D02*
X0179000Y0181894D01*
X0178706Y0181600D02*
X0138262Y0181600D01*
X0138200Y0182841D02*
X0138200Y0206961D01*
X0135800Y0206961D02*
X0135800Y0183833D01*
X0133400Y0183833D02*
X0133400Y0206961D01*
X0131000Y0206961D02*
X0131000Y0183833D01*
X0128600Y0183409D02*
X0128600Y0206961D01*
X0140600Y0206961D02*
X0140600Y0164748D01*
X0143000Y0164748D02*
X0143000Y0206961D01*
X0145400Y0206961D02*
X0145400Y0164748D01*
X0147800Y0164748D02*
X0147800Y0206961D01*
X0150200Y0206961D02*
X0150200Y0164748D01*
X0152600Y0164748D02*
X0152600Y0206961D01*
X0155000Y0206961D02*
X0155000Y0164748D01*
X0157400Y0164748D02*
X0157400Y0206961D01*
X0159800Y0206961D02*
X0159800Y0164748D01*
X0162200Y0164748D02*
X0162200Y0206961D01*
X0164600Y0206961D02*
X0164600Y0164748D01*
X0167000Y0164094D02*
X0167000Y0206961D01*
X0169400Y0206961D02*
X0169400Y0161694D01*
X0168694Y0162400D02*
X0179938Y0162400D01*
X0179938Y0160000D02*
X0171094Y0160000D01*
X0176600Y0166949D02*
X0176600Y0132889D01*
X0174200Y0131851D02*
X0174200Y0206961D01*
X0171800Y0206961D02*
X0171800Y0126018D01*
X0171500Y0126400D02*
X0174200Y0126400D01*
X0173371Y0128800D02*
X0171500Y0128800D01*
X0171500Y0131200D02*
X0173703Y0131200D01*
X0171500Y0138400D02*
X0179938Y0138400D01*
X0183800Y0134957D02*
X0183800Y0132000D01*
X0192100Y0141600D02*
X0190600Y0143100D01*
X0190600Y0149100D01*
X0189163Y0150537D01*
X0185084Y0150537D01*
X0188612Y0156600D02*
X0196600Y0148612D01*
X0196600Y0147112D01*
X0198569Y0145143D01*
X0204100Y0145143D01*
X0204100Y0161600D01*
X0216600Y0161600D01*
X0216200Y0160000D02*
X0217000Y0160000D01*
X0215000Y0161200D02*
X0215000Y0162000D01*
X0212600Y0162000D02*
X0212600Y0161200D01*
X0211547Y0160000D02*
X0209153Y0160000D01*
X0209269Y0160359D02*
X0209400Y0161183D01*
X0209400Y0161200D01*
X0204500Y0161200D01*
X0204500Y0156300D01*
X0204517Y0156300D01*
X0205341Y0156430D01*
X0206134Y0156688D01*
X0206878Y0157067D01*
X0207553Y0157557D01*
X0208143Y0158147D01*
X0208633Y0158822D01*
X0209012Y0159566D01*
X0209269Y0160359D01*
X0207800Y0161200D02*
X0207800Y0162000D01*
X0209339Y0162400D02*
X0211361Y0162400D01*
X0212374Y0164800D02*
X0208326Y0164800D01*
X0207800Y0165395D02*
X0207800Y0167522D01*
X0207478Y0167200D02*
X0213222Y0167200D01*
X0212600Y0167822D02*
X0212600Y0165095D01*
X0211475Y0169600D02*
X0209225Y0169600D01*
X0209600Y0172000D02*
X0211100Y0172000D01*
X0211807Y0174400D02*
X0208893Y0174400D01*
X0210200Y0175200D02*
X0210200Y0152080D01*
X0208579Y0150400D02*
X0201743Y0150400D01*
X0200600Y0151795D02*
X0200600Y0157605D01*
X0200605Y0157600D02*
X0190031Y0157600D01*
X0190231Y0160000D02*
X0199047Y0160000D01*
X0198930Y0160359D02*
X0199188Y0159566D01*
X0199567Y0158822D01*
X0200057Y0158147D01*
X0200647Y0157557D01*
X0201322Y0157067D01*
X0202066Y0156688D01*
X0202859Y0156430D01*
X0203683Y0156300D01*
X0203700Y0156300D01*
X0203700Y0161200D01*
X0198800Y0161200D01*
X0198800Y0161183D01*
X0198930Y0160359D01*
X0200600Y0161200D02*
X0200600Y0162000D01*
X0198861Y0162400D02*
X0190231Y0162400D01*
X0193400Y0166786D02*
X0193400Y0151861D01*
X0195800Y0151861D02*
X0195800Y0168406D01*
X0196994Y0169600D02*
X0198975Y0169600D01*
X0198600Y0172000D02*
X0198000Y0172000D01*
X0198200Y0173700D02*
X0198200Y0151861D01*
X0197200Y0150400D02*
X0196000Y0150400D01*
X0196000Y0148000D02*
X0197200Y0148000D01*
X0203000Y0148318D02*
X0203000Y0156408D01*
X0203700Y0157600D02*
X0204500Y0157600D01*
X0205400Y0156450D02*
X0205400Y0148318D01*
X0204287Y0148000D02*
X0203913Y0148000D01*
X0203913Y0145600D02*
X0204287Y0145600D01*
X0207442Y0148000D02*
X0207974Y0148000D01*
X0207800Y0147826D02*
X0207800Y0157805D01*
X0207595Y0157600D02*
X0213105Y0157600D01*
X0212600Y0158105D02*
X0212600Y0152246D01*
X0211600Y0149100D02*
X0211600Y0145143D01*
X0211600Y0144100D01*
X0209100Y0141600D01*
X0192100Y0141600D01*
X0212600Y0141431D02*
X0212600Y0141706D01*
X0215762Y0145600D02*
X0220700Y0145600D01*
X0220700Y0148000D02*
X0215226Y0148000D01*
X0228000Y0138400D02*
X0238700Y0138400D01*
X0238700Y0136000D02*
X0228000Y0136000D01*
X0228000Y0133600D02*
X0238700Y0133600D01*
X0238700Y0131200D02*
X0228000Y0131200D01*
X0228000Y0128800D02*
X0238700Y0128800D01*
X0238700Y0126400D02*
X0228000Y0126400D01*
X0228000Y0124000D02*
X0238700Y0124000D01*
X0236600Y0122411D02*
X0236600Y0140789D01*
X0236625Y0140800D02*
X0238700Y0140800D01*
X0234200Y0140378D02*
X0234200Y0122822D01*
X0241400Y0115592D02*
X0241400Y0111781D01*
X0241459Y0112000D02*
X0227394Y0112000D01*
X0227000Y0111606D02*
X0227000Y0096500D01*
X0227000Y0091700D02*
X0227000Y0029400D01*
X0225381Y0029400D02*
X0210008Y0044773D01*
X0210200Y0044581D02*
X0210200Y0059151D01*
X0210081Y0059200D02*
X0167922Y0059200D01*
X0167000Y0058818D02*
X0167000Y0045428D01*
X0164600Y0045428D02*
X0164600Y0058650D01*
X0169400Y0060143D02*
X0169400Y0045428D01*
X0171800Y0045428D02*
X0171800Y0074406D01*
X0171135Y0073741D02*
X0171135Y0073741D01*
X0170994Y0073600D02*
X0188746Y0073600D01*
X0188600Y0073685D02*
X0188600Y0045428D01*
X0186200Y0045428D02*
X0186200Y0104200D01*
X0188600Y0104200D02*
X0188600Y0099886D01*
X0191000Y0099916D02*
X0191000Y0104200D01*
X0193400Y0104200D02*
X0193400Y0099916D01*
X0195800Y0099916D02*
X0195800Y0104200D01*
X0198200Y0104200D02*
X0198200Y0099916D01*
X0194100Y0094572D02*
X0194100Y0086600D01*
X0193400Y0083906D02*
X0193400Y0083771D01*
X0193500Y0083200D02*
X0194106Y0083200D01*
X0194700Y0080800D02*
X0193500Y0080800D01*
X0193400Y0079228D02*
X0193400Y0078028D01*
X0193500Y0078400D02*
X0175408Y0078400D01*
X0174459Y0077065D02*
X0174459Y0077065D01*
X0174200Y0076806D02*
X0174200Y0045428D01*
X0170677Y0061600D02*
X0207326Y0061600D01*
X0207452Y0061294D02*
X0209168Y0059578D01*
X0211410Y0058650D01*
X0213837Y0058650D01*
X0216079Y0059578D01*
X0217795Y0061294D01*
X0218724Y0063536D01*
X0218724Y0065963D01*
X0217795Y0068205D01*
X0216079Y0069921D01*
X0213837Y0070850D01*
X0211410Y0070850D01*
X0209168Y0069921D01*
X0207452Y0068205D01*
X0206524Y0065963D01*
X0206524Y0063536D01*
X0207452Y0061294D01*
X0207800Y0060947D02*
X0207800Y0045428D01*
X0205400Y0045428D02*
X0205400Y0074882D01*
X0206413Y0074882D02*
X0206413Y0077869D01*
X0202638Y0077869D01*
X0202638Y0076271D01*
X0202747Y0075864D01*
X0202957Y0075499D01*
X0203255Y0075202D01*
X0203620Y0074991D01*
X0204027Y0074882D01*
X0206413Y0074882D01*
X0206413Y0076000D02*
X0206787Y0076000D01*
X0207800Y0074882D02*
X0207800Y0068553D01*
X0208047Y0068800D02*
X0169956Y0068800D01*
X0169400Y0069356D02*
X0169400Y0072700D01*
X0167000Y0072700D02*
X0167000Y0070681D01*
X0164600Y0070850D02*
X0164600Y0072700D01*
X0171298Y0066400D02*
X0206705Y0066400D01*
X0206524Y0064000D02*
X0171480Y0064000D01*
X0173394Y0076000D02*
X0187776Y0076000D01*
X0188600Y0078028D02*
X0188600Y0079228D01*
X0187776Y0080800D02*
X0175500Y0080800D01*
X0191000Y0079228D02*
X0191000Y0078028D01*
X0193500Y0076000D02*
X0194700Y0076000D01*
X0194700Y0078028D02*
X0194700Y0073484D01*
X0199035Y0073484D01*
X0199442Y0073593D01*
X0199807Y0073804D01*
X0200105Y0074102D01*
X0200315Y0074467D01*
X0200424Y0074874D01*
X0200424Y0078028D01*
X0194700Y0078028D01*
X0194700Y0078400D02*
X0202638Y0078400D01*
X0203000Y0078244D02*
X0203000Y0077869D01*
X0202710Y0076000D02*
X0200424Y0076000D01*
X0199454Y0073600D02*
X0230502Y0073600D01*
X0231800Y0074842D02*
X0231800Y0077925D01*
X0234200Y0077189D02*
X0234200Y0075578D01*
X0236600Y0075166D02*
X0236600Y0077600D01*
X0237916Y0078400D02*
X0241094Y0078400D01*
X0241927Y0083200D02*
X0239692Y0083200D01*
X0239000Y0084974D02*
X0239000Y0091415D01*
X0238105Y0090400D02*
X0265701Y0090400D01*
X0265701Y0088000D02*
X0256923Y0088000D01*
X0255800Y0088648D02*
X0255800Y0099552D01*
X0256577Y0100000D02*
X0265701Y0100000D01*
X0265701Y0102400D02*
X0259600Y0102400D01*
X0260600Y0103835D02*
X0260600Y0084365D01*
X0261273Y0083200D02*
X0265701Y0083200D01*
X0265701Y0085600D02*
X0259800Y0085600D01*
X0258200Y0087200D02*
X0258200Y0101000D01*
X0253400Y0098864D02*
X0253400Y0089336D01*
X0251000Y0089448D02*
X0251000Y0098752D01*
X0248600Y0099185D02*
X0248600Y0089015D01*
X0243800Y0086000D02*
X0243800Y0102200D01*
X0243600Y0102400D02*
X0238011Y0102400D01*
X0236600Y0101435D02*
X0236600Y0098788D01*
X0234200Y0099200D02*
X0234200Y0101012D01*
X0234208Y0102400D02*
X0234976Y0102400D01*
X0234976Y0104800D02*
X0234208Y0104800D01*
X0234200Y0105527D02*
X0234200Y0106295D01*
X0234976Y0106295D02*
X0234976Y0110811D01*
X0234978Y0110811D01*
X0235740Y0110690D01*
X0236473Y0110452D01*
X0237160Y0110102D01*
X0237784Y0109649D01*
X0238330Y0109103D01*
X0238783Y0108479D01*
X0239133Y0107792D01*
X0239371Y0107058D01*
X0239492Y0106297D01*
X0239492Y0106295D01*
X0234976Y0106295D01*
X0234976Y0107200D02*
X0234208Y0107200D01*
X0234208Y0109600D02*
X0234976Y0109600D01*
X0234200Y0110810D02*
X0234200Y0112622D01*
X0236600Y0113034D02*
X0236600Y0110387D01*
X0237833Y0109600D02*
X0241094Y0109600D01*
X0241275Y0107200D02*
X0239325Y0107200D01*
X0239000Y0108053D02*
X0239000Y0114322D01*
X0239587Y0114400D02*
X0242438Y0114400D01*
X0243800Y0116315D02*
X0243800Y0117992D01*
X0244026Y0118218D02*
X0244026Y0118218D01*
X0244993Y0119200D02*
X0248116Y0119200D01*
X0248600Y0119330D02*
X0248600Y0143870D01*
X0251000Y0143437D02*
X0251000Y0119763D01*
X0253400Y0119651D02*
X0253400Y0143549D01*
X0255800Y0144237D02*
X0255800Y0118963D01*
X0255084Y0119200D02*
X0265701Y0119200D01*
X0265701Y0116800D02*
X0258915Y0116800D01*
X0258200Y0117515D02*
X0258200Y0145685D01*
X0258115Y0145600D02*
X0265701Y0145600D01*
X0265701Y0143200D02*
X0245500Y0143200D01*
X0246200Y0144930D02*
X0246200Y0118271D01*
X0244285Y0116800D02*
X0242608Y0116800D01*
X0245500Y0121600D02*
X0265701Y0121600D01*
X0265701Y0124000D02*
X0245500Y0124000D01*
X0245500Y0126400D02*
X0265701Y0126400D01*
X0265701Y0128800D02*
X0245500Y0128800D01*
X0245500Y0131200D02*
X0265701Y0131200D01*
X0265701Y0133600D02*
X0245500Y0133600D01*
X0245500Y0136000D02*
X0265701Y0136000D01*
X0265701Y0138400D02*
X0245500Y0138400D01*
X0245500Y0140800D02*
X0265701Y0140800D01*
X0265701Y0148000D02*
X0260300Y0148000D01*
X0260600Y0148520D02*
X0260600Y0114680D01*
X0260762Y0114400D02*
X0265701Y0114400D01*
X0265701Y0112000D02*
X0261741Y0112000D01*
X0262105Y0109600D02*
X0265701Y0109600D01*
X0265701Y0107200D02*
X0261925Y0107200D01*
X0261157Y0104800D02*
X0265701Y0104800D01*
X0265701Y0092800D02*
X0239574Y0092800D01*
X0236600Y0089411D02*
X0236600Y0086977D01*
X0238494Y0085600D02*
X0243400Y0085600D01*
X0234200Y0087389D02*
X0234200Y0089000D01*
X0231800Y0089736D02*
X0231800Y0086653D01*
X0231080Y0090400D02*
X0218262Y0090400D01*
X0219800Y0091700D02*
X0219800Y0034981D01*
X0219581Y0035200D02*
X0245788Y0035200D01*
X0246200Y0034788D02*
X0246200Y0029400D01*
X0246994Y0029400D02*
X0225381Y0029400D01*
X0224600Y0030181D02*
X0224600Y0091700D01*
X0222200Y0091700D02*
X0222200Y0032581D01*
X0221981Y0032800D02*
X0265701Y0032800D01*
X0265701Y0030400D02*
X0255206Y0030400D01*
X0255055Y0030551D02*
X0252813Y0031480D01*
X0250387Y0031480D01*
X0248145Y0030551D01*
X0246994Y0029400D01*
X0247994Y0030400D02*
X0224381Y0030400D01*
X0229400Y0029400D02*
X0229400Y0091700D01*
X0231800Y0098464D02*
X0231800Y0101883D01*
X0231173Y0102400D02*
X0171694Y0102400D01*
X0171800Y0102294D02*
X0171800Y0104200D01*
X0169800Y0100900D02*
X0151600Y0100900D01*
X0137663Y0115360D02*
X0137466Y0115557D01*
X0131600Y0115557D01*
X0124100Y0115557D01*
X0124100Y0122643D02*
X0124100Y0125100D01*
X0119938Y0124000D02*
X0119900Y0124000D01*
X0119900Y0121600D02*
X0119938Y0121600D01*
X0114100Y0124100D02*
X0109100Y0124100D01*
X0106899Y0124100D01*
X0106750Y0124250D01*
X0104100Y0126899D01*
X0104100Y0124100D01*
X0104100Y0120600D01*
X0105600Y0119100D01*
X0131100Y0119100D01*
X0131600Y0119600D01*
X0131600Y0122643D01*
X0137466Y0122643D01*
X0137663Y0122840D01*
X0137663Y0129537D01*
X0137600Y0129600D01*
X0125200Y0145600D02*
X0116548Y0145600D01*
X0116582Y0145620D02*
X0116880Y0145918D01*
X0117091Y0146282D01*
X0117200Y0146689D01*
X0117200Y0150700D01*
X0113800Y0150700D01*
X0113800Y0145300D01*
X0115811Y0145300D01*
X0116218Y0145409D01*
X0116582Y0145620D01*
X0116600Y0145637D02*
X0116600Y0144900D01*
X0114200Y0144900D02*
X0114200Y0145300D01*
X0113800Y0145600D02*
X0112600Y0145600D01*
X0112600Y0145300D02*
X0112600Y0150700D01*
X0109200Y0150700D01*
X0109200Y0146689D01*
X0109309Y0146282D01*
X0109520Y0145918D01*
X0109818Y0145620D01*
X0110182Y0145409D01*
X0110589Y0145300D01*
X0112600Y0145300D01*
X0111800Y0145300D02*
X0111800Y0144900D01*
X0109852Y0145600D02*
X0107746Y0145600D01*
X0107000Y0145100D02*
X0107000Y0144900D01*
X0109400Y0144900D02*
X0109400Y0146125D01*
X0109200Y0148000D02*
X0108300Y0148000D01*
X0108300Y0150400D02*
X0109200Y0150400D01*
X0109400Y0150700D02*
X0109400Y0151900D01*
X0109200Y0152800D02*
X0108300Y0152800D01*
X0111800Y0151900D02*
X0111800Y0150700D01*
X0112600Y0150400D02*
X0113800Y0150400D01*
X0114200Y0150700D02*
X0114200Y0151900D01*
X0113800Y0152800D02*
X0112600Y0152800D01*
X0116600Y0151900D02*
X0116600Y0150700D01*
X0117200Y0150400D02*
X0125200Y0150400D01*
X0125200Y0148000D02*
X0117200Y0148000D01*
X0113800Y0148000D02*
X0112600Y0148000D01*
X0117200Y0152800D02*
X0125200Y0152800D01*
X0121400Y0163931D02*
X0121400Y0164469D01*
X0120287Y0164800D02*
X0119913Y0164800D01*
X0119000Y0164469D02*
X0119000Y0163931D01*
X0119913Y0167200D02*
X0120287Y0167200D01*
X0121400Y0167456D02*
X0121400Y0167831D01*
X0125200Y0172000D02*
X0117243Y0172000D01*
X0116600Y0174012D02*
X0116600Y0175212D01*
X0114200Y0175212D02*
X0114200Y0174012D01*
X0112700Y0176800D02*
X0111500Y0176800D01*
X0116352Y0179200D02*
X0127969Y0179200D01*
X0127969Y0181600D02*
X0084322Y0181600D01*
X0083000Y0180097D02*
X0083000Y0173336D01*
X0077098Y0162400D02*
X0069346Y0162400D01*
X0069900Y0160000D02*
X0077098Y0160000D01*
X0063800Y0171881D02*
X0063800Y0206961D01*
X0061400Y0206961D02*
X0061400Y0171500D01*
X0059000Y0171500D02*
X0059000Y0206961D01*
X0056600Y0206961D02*
X0056600Y0171500D01*
X0054200Y0171500D02*
X0054200Y0206961D01*
X0051800Y0206961D02*
X0051800Y0193321D01*
X0049400Y0193321D02*
X0049400Y0206961D01*
X0047000Y0206961D02*
X0047000Y0193321D01*
X0044600Y0193321D02*
X0044600Y0206961D01*
X0042200Y0206961D02*
X0042200Y0193321D01*
X0039800Y0193321D02*
X0039800Y0206961D01*
X0037400Y0206961D02*
X0037400Y0193321D01*
X0035000Y0193321D02*
X0035000Y0206961D01*
X0032600Y0206961D02*
X0032600Y0171780D01*
X0030200Y0171780D02*
X0030200Y0206961D01*
X0027800Y0206961D02*
X0027800Y0171780D01*
X0037400Y0172208D02*
X0037400Y0179879D01*
X0039952Y0176800D02*
X0006200Y0176800D01*
X0024200Y0196000D02*
X0082480Y0196000D01*
X0082480Y0194700D02*
X0090370Y0194700D01*
X0090370Y0198850D01*
X0083870Y0198850D01*
X0083463Y0198741D01*
X0083098Y0198530D01*
X0082800Y0198232D01*
X0082589Y0197867D01*
X0082480Y0197460D01*
X0082480Y0194700D01*
X0083000Y0194700D02*
X0083000Y0193500D01*
X0085400Y0193500D02*
X0085400Y0194700D01*
X0087800Y0194700D02*
X0087800Y0193500D01*
X0090200Y0193500D02*
X0090200Y0194700D01*
X0090370Y0196000D02*
X0091570Y0196000D01*
X0091570Y0194700D02*
X0091570Y0198850D01*
X0098070Y0198850D01*
X0098477Y0198741D01*
X0098842Y0198530D01*
X0099140Y0198232D01*
X0099351Y0197867D01*
X0099460Y0197460D01*
X0099460Y0194700D01*
X0091570Y0194700D01*
X0092600Y0194700D02*
X0092600Y0193500D01*
X0091570Y0193600D02*
X0103540Y0193600D01*
X0103540Y0196000D02*
X0099460Y0196000D01*
X0097400Y0194700D02*
X0097400Y0193500D01*
X0095000Y0193500D02*
X0095000Y0194700D01*
X0095000Y0198850D02*
X0095000Y0206961D01*
X0092600Y0206961D02*
X0092600Y0198850D01*
X0091570Y0198400D02*
X0090370Y0198400D01*
X0090200Y0198850D02*
X0090200Y0206961D01*
X0087800Y0206961D02*
X0087800Y0198850D01*
X0085400Y0198850D02*
X0085400Y0206961D01*
X0097400Y0206961D02*
X0097400Y0198850D01*
X0098972Y0198400D02*
X0103945Y0198400D01*
X0104600Y0199050D02*
X0104600Y0206961D01*
X0107000Y0206961D02*
X0107000Y0199050D01*
X0109400Y0203747D02*
X0109400Y0206961D01*
X0111800Y0206961D02*
X0111800Y0204381D01*
X0120920Y0196000D02*
X0199200Y0196000D01*
X0193643Y0190600D02*
X0194100Y0190143D01*
X0193643Y0190600D02*
X0190100Y0190600D01*
X0189100Y0189600D01*
X0189100Y0182600D01*
X0186565Y0180065D01*
X0185084Y0180065D01*
X0185049Y0180100D01*
X0180600Y0180100D01*
X0178600Y0178100D01*
X0178600Y0169600D01*
X0175311Y0169600D02*
X0138262Y0169600D01*
X0138200Y0171030D02*
X0138200Y0171383D01*
X0138262Y0172000D02*
X0176200Y0172000D01*
X0176200Y0174400D02*
X0138262Y0174400D01*
X0138262Y0176800D02*
X0176200Y0176800D01*
X0176458Y0179200D02*
X0138262Y0179200D01*
X0138200Y0177288D02*
X0138200Y0176935D01*
X0138262Y0167200D02*
X0176349Y0167200D01*
X0185084Y0174159D02*
X0190659Y0174159D01*
X0191600Y0175100D01*
X0191600Y0177600D01*
X0193100Y0179100D01*
X0201600Y0177600D02*
X0215100Y0177600D01*
X0216600Y0176100D01*
X0216600Y0171600D01*
X0205400Y0162000D02*
X0205400Y0161200D01*
X0204500Y0160000D02*
X0203700Y0160000D01*
X0203000Y0161200D02*
X0203000Y0162000D01*
X0176600Y0179494D02*
X0176600Y0206961D01*
X0205762Y0191200D02*
X0229702Y0191200D01*
X0238405Y0184000D02*
X0238700Y0184000D01*
X0234976Y0179200D02*
X0234208Y0179200D01*
X0231800Y0180527D02*
X0231800Y0181295D01*
X0234208Y0176800D02*
X0234976Y0176800D01*
X0234200Y0176012D02*
X0234200Y0174200D01*
X0245500Y0174400D02*
X0247798Y0174400D01*
X0248600Y0174185D02*
X0248600Y0164015D01*
X0251000Y0164448D02*
X0251000Y0173752D01*
X0253400Y0173864D02*
X0253400Y0164336D01*
X0255800Y0163648D02*
X0255800Y0174552D01*
X0255402Y0174400D02*
X0265701Y0174400D01*
X0265701Y0172000D02*
X0245500Y0172000D01*
X0245500Y0169600D02*
X0265701Y0169600D01*
X0265701Y0167200D02*
X0245500Y0167200D01*
X0245500Y0164800D02*
X0265701Y0164800D01*
X0265701Y0162400D02*
X0257962Y0162400D01*
X0258200Y0162200D02*
X0258200Y0176000D01*
X0259000Y0176800D02*
X0265701Y0176800D01*
X0265701Y0179200D02*
X0260811Y0179200D01*
X0260600Y0178835D02*
X0260600Y0159365D01*
X0260233Y0160000D02*
X0265701Y0160000D01*
X0265701Y0157600D02*
X0261496Y0157600D01*
X0262105Y0155200D02*
X0265701Y0155200D01*
X0265701Y0152800D02*
X0262105Y0152800D01*
X0261527Y0150400D02*
X0265701Y0150400D01*
X0246200Y0162956D02*
X0246200Y0175244D01*
X0261764Y0181600D02*
X0265701Y0181600D01*
X0265701Y0184000D02*
X0262105Y0184000D01*
X0261902Y0186400D02*
X0265701Y0186400D01*
X0265701Y0188800D02*
X0261108Y0188800D01*
X0260600Y0189680D02*
X0260600Y0206961D01*
X0258200Y0206961D02*
X0258200Y0192515D01*
X0259515Y0191200D02*
X0265701Y0191200D01*
X0265701Y0193600D02*
X0256429Y0193600D01*
X0255800Y0193963D02*
X0255800Y0206961D01*
X0253400Y0206961D02*
X0253400Y0194651D01*
X0251000Y0194763D02*
X0251000Y0206961D01*
X0248600Y0206961D02*
X0248600Y0194330D01*
X0246771Y0193600D02*
X0242408Y0193600D01*
X0241400Y0194608D02*
X0241400Y0206961D01*
X0243800Y0206961D02*
X0243800Y0192208D01*
X0246200Y0193271D02*
X0246200Y0206961D01*
X0263000Y0206961D02*
X0263000Y0006200D01*
X0260600Y0006200D02*
X0260600Y0073520D01*
X0260646Y0073600D02*
X0265701Y0073600D01*
X0265701Y0076000D02*
X0261688Y0076000D01*
X0262105Y0078400D02*
X0265701Y0078400D01*
X0265701Y0080800D02*
X0261978Y0080800D01*
X0258715Y0071200D02*
X0265701Y0071200D01*
X0265701Y0068800D02*
X0254338Y0068800D01*
X0255800Y0069237D02*
X0255800Y0029806D01*
X0255055Y0030551D02*
X0256771Y0028835D01*
X0257700Y0026593D01*
X0257700Y0024166D01*
X0256771Y0021924D01*
X0255055Y0020208D01*
X0252813Y0019280D01*
X0250387Y0019280D01*
X0248145Y0020208D01*
X0247553Y0020800D01*
X0222745Y0020800D01*
X0222200Y0021026D02*
X0222200Y0015900D01*
X0220210Y0016000D02*
X0247373Y0016000D01*
X0246200Y0015900D02*
X0246200Y0020800D01*
X0243800Y0020800D02*
X0243800Y0015900D01*
X0241400Y0015900D02*
X0241400Y0020800D01*
X0239000Y0020800D02*
X0239000Y0015900D01*
X0236600Y0015900D02*
X0236600Y0020800D01*
X0234200Y0020800D02*
X0234200Y0015900D01*
X0231800Y0015900D02*
X0231800Y0020800D01*
X0229400Y0020800D02*
X0229400Y0015900D01*
X0227000Y0015900D02*
X0227000Y0020800D01*
X0224600Y0020800D02*
X0224600Y0015900D01*
X0231800Y0029400D02*
X0231800Y0066114D01*
X0231458Y0066400D02*
X0218543Y0066400D01*
X0218724Y0064000D02*
X0265701Y0064000D01*
X0265701Y0066400D02*
X0237727Y0066400D01*
X0236600Y0065789D02*
X0236600Y0029400D01*
X0234200Y0029400D02*
X0234200Y0065378D01*
X0239000Y0067793D02*
X0239000Y0029400D01*
X0244000Y0037600D02*
X0217181Y0037600D01*
X0217400Y0037381D02*
X0217400Y0060899D01*
X0217922Y0061600D02*
X0265701Y0061600D01*
X0265701Y0059200D02*
X0215166Y0059200D01*
X0215000Y0059131D02*
X0215000Y0039781D01*
X0214781Y0040000D02*
X0244000Y0040000D01*
X0245188Y0042400D02*
X0212381Y0042400D01*
X0212600Y0042181D02*
X0212600Y0058650D01*
X0224100Y0056100D02*
X0231100Y0049100D01*
X0249100Y0049100D01*
X0248600Y0048900D02*
X0248600Y0049300D01*
X0248900Y0049600D02*
X0249300Y0049600D01*
X0251000Y0049300D02*
X0251000Y0048900D01*
X0249300Y0047200D02*
X0248900Y0047200D01*
X0246200Y0048900D02*
X0246200Y0049300D01*
X0248900Y0052000D02*
X0249300Y0052000D01*
X0253400Y0046470D02*
X0253400Y0042012D01*
X0253012Y0042400D02*
X0265701Y0042400D01*
X0265701Y0040000D02*
X0254200Y0040000D01*
X0254200Y0037600D02*
X0265701Y0037600D01*
X0265701Y0035200D02*
X0252412Y0035200D01*
X0253400Y0036188D02*
X0253400Y0031237D01*
X0251000Y0031480D02*
X0251000Y0034000D01*
X0248600Y0034000D02*
X0248600Y0030739D01*
X0257117Y0028000D02*
X0265701Y0028000D01*
X0265701Y0025600D02*
X0257700Y0025600D01*
X0257300Y0023200D02*
X0265701Y0023200D01*
X0253400Y0019523D02*
X0253400Y0017457D01*
X0251000Y0017700D02*
X0251000Y0019280D01*
X0248600Y0020020D02*
X0248600Y0016960D01*
X0258200Y0006200D02*
X0258200Y0070685D01*
X0246200Y0045070D02*
X0246200Y0043412D01*
X0224100Y0056100D02*
X0224100Y0073100D01*
X0219143Y0078057D01*
X0215000Y0077869D02*
X0215000Y0078244D01*
X0214287Y0078400D02*
X0213913Y0078400D01*
X0213913Y0078244D02*
X0213913Y0077869D01*
X0206787Y0077869D01*
X0206787Y0078244D01*
X0210138Y0078244D01*
X0213913Y0078244D01*
X0212600Y0078244D02*
X0212600Y0077869D01*
X0213913Y0076000D02*
X0214287Y0076000D01*
X0215000Y0074882D02*
X0215000Y0070368D01*
X0212600Y0070850D02*
X0212600Y0074882D01*
X0210200Y0075457D02*
X0210200Y0070348D01*
X0203000Y0075457D02*
X0203000Y0045428D01*
X0200600Y0045428D02*
X0200600Y0082743D01*
X0200424Y0080800D02*
X0203144Y0080800D01*
X0203000Y0080656D02*
X0203000Y0082261D01*
X0205400Y0081769D02*
X0205400Y0081231D01*
X0206413Y0080800D02*
X0206787Y0080800D01*
X0207800Y0081231D02*
X0207800Y0081769D01*
X0210200Y0082261D02*
X0210200Y0080656D01*
X0210056Y0080800D02*
X0210644Y0080800D01*
X0212600Y0081231D02*
X0212600Y0081769D01*
X0213913Y0080800D02*
X0214287Y0080800D01*
X0215000Y0081231D02*
X0215000Y0081769D01*
X0210200Y0078244D02*
X0210200Y0077869D01*
X0207800Y0077869D02*
X0207800Y0078244D01*
X0206787Y0078400D02*
X0206413Y0078400D01*
X0205400Y0078244D02*
X0205400Y0077869D01*
X0198200Y0078028D02*
X0198200Y0079228D01*
X0195800Y0079228D02*
X0195800Y0078028D01*
X0195800Y0073484D02*
X0195800Y0045428D01*
X0193400Y0045428D02*
X0193400Y0073484D01*
X0193500Y0073600D02*
X0194700Y0073600D01*
X0198200Y0073484D02*
X0198200Y0045428D01*
X0191000Y0045428D02*
X0191000Y0073484D01*
X0214100Y0096100D02*
X0214100Y0097643D01*
X0218600Y0106600D02*
X0122600Y0106600D01*
X0121600Y0105600D01*
X0121600Y0100900D01*
X0113100Y0100600D02*
X0111600Y0100600D01*
X0096022Y0093284D02*
X0094233Y0091494D01*
X0093473Y0091494D01*
X0093707Y0091728D01*
X0091595Y0093840D01*
X0091860Y0094105D01*
X0093972Y0091993D01*
X0095642Y0093664D01*
X0096022Y0093284D01*
X0095538Y0092800D02*
X0094779Y0092800D01*
X0095000Y0093021D02*
X0095000Y0092262D01*
X0093165Y0092800D02*
X0092635Y0092800D01*
X0092600Y0092835D02*
X0092600Y0093365D01*
X0091595Y0094105D02*
X0091595Y0110105D01*
X0094100Y0124100D02*
X0099100Y0124100D01*
X0101301Y0124100D01*
X0104100Y0126899D01*
X0106301Y0129100D01*
X0109100Y0129100D01*
X0114100Y0129100D01*
X0114100Y0134100D01*
X0109100Y0134100D01*
X0104100Y0134100D01*
X0101600Y0134100D02*
X0099100Y0134100D01*
X0094100Y0134100D01*
X0094100Y0129100D02*
X0094100Y0124100D01*
X0094100Y0129100D02*
X0099100Y0129100D01*
X0101899Y0129100D01*
X0104100Y0126899D01*
X0101600Y0134100D02*
X0104100Y0136600D01*
X0106600Y0134100D01*
X0109100Y0134100D01*
X0083700Y0133600D02*
X0069900Y0133600D01*
X0069746Y0131200D02*
X0083700Y0131200D01*
X0080498Y0131600D02*
X0075498Y0126600D01*
X0037600Y0126600D01*
X0029352Y0134848D01*
X0026600Y0134848D01*
X0026511Y0136000D02*
X0026689Y0136000D01*
X0027800Y0134937D02*
X0027800Y0134759D01*
X0025400Y0134759D02*
X0025400Y0134937D01*
X0023000Y0134937D02*
X0023000Y0134759D01*
X0022011Y0133600D02*
X0019700Y0133600D01*
X0019700Y0131200D02*
X0023541Y0131200D01*
X0023000Y0131731D02*
X0023000Y0130374D01*
X0020600Y0129574D02*
X0020600Y0136923D01*
X0019700Y0136000D02*
X0021980Y0136000D01*
X0023000Y0137965D02*
X0023000Y0139323D01*
X0023435Y0138400D02*
X0022077Y0138400D01*
X0026511Y0138400D02*
X0026689Y0138400D01*
X0029765Y0138400D02*
X0033800Y0138400D01*
X0033800Y0136000D02*
X0031220Y0136000D01*
X0030200Y0134937D02*
X0030200Y0134759D01*
X0031189Y0133600D02*
X0033800Y0133600D01*
X0033954Y0131200D02*
X0029659Y0131200D01*
X0030200Y0131731D02*
X0030200Y0130374D01*
X0031726Y0126974D02*
X0026600Y0126974D01*
X0022574Y0124000D02*
X0020177Y0124000D01*
X0020600Y0124374D02*
X0020600Y0077507D01*
X0019700Y0078400D02*
X0023093Y0078400D01*
X0023000Y0078307D02*
X0023000Y0099952D01*
X0022952Y0100000D02*
X0019700Y0100000D01*
X0019700Y0097600D02*
X0039938Y0097600D01*
X0039974Y0095200D02*
X0019700Y0095200D01*
X0019700Y0092800D02*
X0041700Y0092800D01*
X0040061Y0100000D02*
X0030248Y0100000D01*
X0030200Y0099952D02*
X0030200Y0078307D01*
X0030107Y0078400D02*
X0039700Y0078400D01*
X0039700Y0076000D02*
X0031505Y0076000D01*
X0031416Y0073600D02*
X0039700Y0073600D01*
X0042100Y0072600D02*
X0028659Y0059159D01*
X0026600Y0059159D01*
X0023000Y0055759D02*
X0023000Y0054685D01*
X0022715Y0054400D02*
X0019700Y0054400D01*
X0019700Y0052000D02*
X0021650Y0052000D01*
X0021650Y0052270D02*
X0021650Y0050300D01*
X0022404Y0048481D01*
X0023537Y0047348D01*
X0022404Y0046215D01*
X0021650Y0044396D01*
X0021650Y0042426D01*
X0022404Y0040607D01*
X0023537Y0039474D01*
X0022404Y0038341D01*
X0021650Y0036522D01*
X0021650Y0034552D01*
X0022404Y0032733D01*
X0023537Y0031600D01*
X0022404Y0030467D01*
X0021650Y0028648D01*
X0021650Y0026678D01*
X0022404Y0024859D01*
X0023537Y0023726D01*
X0022404Y0022593D01*
X0021650Y0020774D01*
X0021650Y0018804D01*
X0022404Y0016985D01*
X0023796Y0015593D01*
X0025615Y0014839D01*
X0027585Y0014839D01*
X0029404Y0015593D01*
X0030796Y0016985D01*
X0031550Y0018804D01*
X0031550Y0020774D01*
X0030796Y0022593D01*
X0029663Y0023726D01*
X0030796Y0024859D01*
X0030963Y0025263D01*
X0035640Y0025263D01*
X0036522Y0025628D01*
X0038635Y0027741D01*
X0039000Y0028623D01*
X0039000Y0053276D01*
X0041476Y0055752D01*
X0041741Y0055487D01*
X0042006Y0055752D01*
X0044454Y0058200D01*
X0043924Y0058200D01*
X0041741Y0056017D01*
X0042006Y0055752D01*
X0044118Y0053640D01*
X0045805Y0055326D01*
X0046016Y0055691D01*
X0046125Y0056098D01*
X0046125Y0056519D01*
X0046016Y0056926D01*
X0045805Y0057291D01*
X0044896Y0058200D01*
X0049942Y0058200D01*
X0050196Y0058305D01*
X0050910Y0057591D01*
X0051304Y0057198D01*
X0050606Y0056500D01*
X0049634Y0056500D01*
X0048752Y0056135D01*
X0048246Y0055629D01*
X0047942Y0055325D01*
X0046563Y0055325D01*
X0042168Y0050930D01*
X0042168Y0049551D01*
X0041565Y0048948D01*
X0041401Y0048553D01*
X0040812Y0047963D01*
X0040311Y0046754D01*
X0040311Y0045446D01*
X0040812Y0044237D01*
X0041000Y0044049D01*
X0041000Y0015677D01*
X0039023Y0013700D01*
X0024177Y0013700D01*
X0019700Y0018177D01*
X0019700Y0071637D01*
X0020370Y0072307D01*
X0022320Y0072307D01*
X0022404Y0072103D01*
X0023706Y0070801D01*
X0023506Y0070656D01*
X0022977Y0070127D01*
X0022538Y0069522D01*
X0022198Y0068856D01*
X0021967Y0068145D01*
X0021850Y0067407D01*
X0021850Y0067122D01*
X0026511Y0067122D01*
X0026511Y0066944D01*
X0021850Y0066944D01*
X0021850Y0066659D01*
X0021967Y0065921D01*
X0022198Y0065210D01*
X0022538Y0064544D01*
X0022977Y0063939D01*
X0023506Y0063410D01*
X0023706Y0063265D01*
X0022404Y0061963D01*
X0021650Y0060144D01*
X0021650Y0058175D01*
X0022404Y0056355D01*
X0023537Y0055222D01*
X0022404Y0054089D01*
X0021650Y0052270D01*
X0021941Y0049600D02*
X0019700Y0049600D01*
X0019700Y0047200D02*
X0023389Y0047200D01*
X0023000Y0046811D02*
X0023000Y0047885D01*
X0021818Y0044800D02*
X0019700Y0044800D01*
X0019700Y0042400D02*
X0021661Y0042400D01*
X0023000Y0040011D02*
X0023000Y0038937D01*
X0023011Y0040000D02*
X0019700Y0040000D01*
X0019700Y0037600D02*
X0022097Y0037600D01*
X0021650Y0035200D02*
X0019700Y0035200D01*
X0019700Y0032800D02*
X0022376Y0032800D01*
X0023000Y0032137D02*
X0023000Y0031063D01*
X0022376Y0030400D02*
X0019700Y0030400D01*
X0019700Y0028000D02*
X0021650Y0028000D01*
X0022097Y0025600D02*
X0019700Y0025600D01*
X0023000Y0024263D02*
X0023000Y0023189D01*
X0023011Y0023200D02*
X0019700Y0023200D01*
X0019700Y0020800D02*
X0021661Y0020800D01*
X0021818Y0018400D02*
X0019700Y0018400D01*
X0020600Y0017277D02*
X0020600Y0072307D01*
X0019700Y0071200D02*
X0023307Y0071200D01*
X0023000Y0071507D02*
X0023000Y0070150D01*
X0022180Y0068800D02*
X0019700Y0068800D01*
X0019700Y0066400D02*
X0021891Y0066400D01*
X0023000Y0066944D02*
X0023000Y0067122D01*
X0025400Y0067122D02*
X0025400Y0066944D01*
X0027800Y0066944D02*
X0027800Y0067122D01*
X0030200Y0067122D02*
X0030200Y0066944D01*
X0031309Y0066400D02*
X0032506Y0066400D01*
X0032600Y0066494D02*
X0032600Y0100952D01*
X0035000Y0100952D02*
X0035000Y0068894D01*
X0034906Y0068800D02*
X0031020Y0068800D01*
X0030200Y0070150D02*
X0030200Y0071507D01*
X0029893Y0071200D02*
X0037306Y0071200D01*
X0037400Y0071294D02*
X0037400Y0100952D01*
X0039800Y0100952D02*
X0039800Y0080819D01*
X0039792Y0080800D02*
X0019700Y0080800D01*
X0025400Y0079767D02*
X0025400Y0098492D01*
X0027800Y0098492D02*
X0027800Y0079767D01*
X0042100Y0080100D02*
X0042100Y0072600D01*
X0046755Y0073255D02*
X0031600Y0058100D01*
X0031600Y0045600D01*
X0029411Y0043411D01*
X0026600Y0043411D01*
X0034100Y0036600D02*
X0034100Y0057100D01*
X0040100Y0063100D01*
X0047510Y0063100D01*
X0049355Y0064945D01*
X0051582Y0062718D02*
X0049464Y0060600D01*
X0041100Y0060600D01*
X0036600Y0056100D01*
X0036600Y0029100D01*
X0035163Y0027663D01*
X0026600Y0027663D01*
X0030200Y0024263D02*
X0030200Y0023189D01*
X0030189Y0023200D02*
X0041000Y0023200D01*
X0041000Y0020800D02*
X0031539Y0020800D01*
X0031382Y0018400D02*
X0041000Y0018400D01*
X0041000Y0016000D02*
X0029811Y0016000D01*
X0030200Y0016389D02*
X0030200Y0013700D01*
X0032600Y0013700D02*
X0032600Y0025263D01*
X0035000Y0025263D02*
X0035000Y0013700D01*
X0037400Y0013700D02*
X0037400Y0026506D01*
X0036454Y0025600D02*
X0041000Y0025600D01*
X0041000Y0028000D02*
X0038742Y0028000D01*
X0039000Y0030400D02*
X0041000Y0030400D01*
X0041000Y0032800D02*
X0039000Y0032800D01*
X0039000Y0035200D02*
X0041000Y0035200D01*
X0041000Y0037600D02*
X0039000Y0037600D01*
X0039000Y0040000D02*
X0041000Y0040000D01*
X0041000Y0042400D02*
X0039000Y0042400D01*
X0039000Y0044800D02*
X0040579Y0044800D01*
X0040496Y0047200D02*
X0039000Y0047200D01*
X0039000Y0049600D02*
X0042168Y0049600D01*
X0042200Y0050962D02*
X0042200Y0051721D01*
X0042167Y0051688D02*
X0043853Y0053374D01*
X0041741Y0055487D01*
X0039072Y0052818D01*
X0040202Y0051688D01*
X0040567Y0051477D01*
X0040974Y0051368D01*
X0041395Y0051368D01*
X0041802Y0051477D01*
X0042167Y0051688D01*
X0042479Y0052000D02*
X0043238Y0052000D01*
X0044600Y0053362D02*
X0044600Y0054121D01*
X0044879Y0054400D02*
X0045638Y0054400D01*
X0047000Y0055325D02*
X0047000Y0058200D01*
X0046050Y0056800D02*
X0050906Y0056800D01*
X0050910Y0057591D02*
X0053809Y0060490D01*
X0053809Y0060491D01*
X0056708Y0063390D01*
X0055928Y0064170D01*
X0055928Y0064453D01*
X0053318Y0067063D01*
X0051281Y0069100D01*
X0053701Y0071520D01*
X0055928Y0073747D01*
X0057380Y0075199D01*
X0067700Y0064879D01*
X0067700Y0058351D01*
X0067312Y0057963D01*
X0066811Y0056754D01*
X0066811Y0055446D01*
X0067312Y0054237D01*
X0068237Y0053312D01*
X0069446Y0052811D01*
X0070630Y0052811D01*
X0069100Y0051281D01*
X0066680Y0053701D01*
X0064453Y0055928D01*
X0062226Y0058155D01*
X0061943Y0058155D01*
X0061163Y0058935D01*
X0058264Y0056036D01*
X0058263Y0056036D01*
X0061600Y0059373D01*
X0061600Y0061100D01*
X0058600Y0064100D01*
X0057100Y0064100D01*
X0053809Y0060809D01*
X0053809Y0060491D01*
X0053809Y0060491D01*
X0050910Y0057591D01*
X0050919Y0057600D02*
X0043589Y0057600D01*
X0041741Y0055752D01*
X0040100Y0054111D01*
X0040100Y0050100D01*
X0039889Y0052000D02*
X0039000Y0052000D01*
X0039800Y0052089D02*
X0039800Y0014477D01*
X0041600Y0011100D02*
X0043600Y0013100D01*
X0045600Y0011100D01*
X0047100Y0011100D01*
X0043600Y0011100D02*
X0043600Y0013100D01*
X0046200Y0020800D02*
X0063305Y0020800D01*
X0063800Y0021295D02*
X0063800Y0024551D01*
X0062751Y0025600D02*
X0046200Y0025600D01*
X0046200Y0028000D02*
X0062564Y0028000D01*
X0065151Y0023200D02*
X0046200Y0023200D01*
X0033037Y0035537D02*
X0034100Y0036600D01*
X0033037Y0035537D02*
X0026600Y0035537D01*
X0043600Y0046100D02*
X0043600Y0047589D01*
X0046752Y0050741D01*
X0049605Y0053595D01*
X0049605Y0051605D01*
X0049600Y0051600D01*
X0051600Y0051600D01*
X0050600Y0052600D01*
X0050600Y0054100D01*
X0051600Y0054100D01*
X0051600Y0052600D01*
X0052600Y0051600D01*
X0058281Y0051600D01*
X0060491Y0053809D01*
X0058263Y0056036D02*
X0061163Y0058935D01*
X0060382Y0059716D01*
X0060382Y0059999D01*
X0057772Y0062609D01*
X0057489Y0062609D01*
X0056708Y0063390D01*
X0053809Y0060491D01*
X0050919Y0057600D01*
X0051800Y0058481D02*
X0051800Y0058481D01*
X0052519Y0059200D02*
X0052519Y0059200D01*
X0054200Y0060881D02*
X0054200Y0060881D01*
X0054919Y0061600D02*
X0054919Y0061600D01*
X0056600Y0063281D02*
X0056600Y0063281D01*
X0056600Y0063498D02*
X0056600Y0074419D01*
X0055781Y0073600D02*
X0058979Y0073600D01*
X0059000Y0073579D02*
X0059000Y0061381D01*
X0058781Y0061600D02*
X0067700Y0061600D01*
X0067700Y0059200D02*
X0060898Y0059200D01*
X0061400Y0058698D02*
X0061400Y0071179D01*
X0061379Y0071200D02*
X0053381Y0071200D01*
X0054200Y0072019D02*
X0054200Y0066181D01*
X0053981Y0066400D02*
X0066179Y0066400D01*
X0066200Y0066379D02*
X0066200Y0054181D01*
X0065981Y0054400D02*
X0067244Y0054400D01*
X0068600Y0053161D02*
X0068600Y0051781D01*
X0068381Y0052000D02*
X0069819Y0052000D01*
X0070100Y0056100D02*
X0070100Y0065873D01*
X0056036Y0079937D01*
X0053100Y0082873D01*
X0053100Y0086100D01*
X0061400Y0079219D02*
X0061400Y0077967D01*
X0060967Y0078400D02*
X0066149Y0078400D01*
X0066200Y0078349D02*
X0066200Y0073167D01*
X0065767Y0073600D02*
X0082419Y0073600D01*
X0083000Y0073019D02*
X0083000Y0065181D01*
X0081819Y0064000D02*
X0072500Y0064000D01*
X0072479Y0066400D02*
X0084219Y0066400D01*
X0085400Y0067581D02*
X0085400Y0070619D01*
X0084819Y0071200D02*
X0068167Y0071200D01*
X0068600Y0070767D02*
X0068600Y0077811D01*
X0070051Y0078400D02*
X0077818Y0078400D01*
X0078200Y0077819D02*
X0078200Y0060381D01*
X0077019Y0059200D02*
X0072500Y0059200D01*
X0072500Y0061600D02*
X0079419Y0061600D01*
X0080600Y0062781D02*
X0080600Y0075419D01*
X0080019Y0076000D02*
X0063367Y0076000D01*
X0063800Y0075567D02*
X0063800Y0081619D01*
X0062981Y0080800D02*
X0064811Y0080800D01*
X0068100Y0081100D02*
X0062718Y0086482D01*
X0062718Y0086618D01*
X0071389Y0080800D02*
X0075219Y0080800D01*
X0075800Y0080219D02*
X0075800Y0057981D01*
X0066830Y0056800D02*
X0063581Y0056800D01*
X0063800Y0056581D02*
X0063800Y0068779D01*
X0063779Y0068800D02*
X0051581Y0068800D01*
X0051800Y0068581D02*
X0051800Y0069619D01*
X0049355Y0073255D02*
X0046755Y0073255D01*
X0056098Y0064000D02*
X0067700Y0064000D01*
X0071000Y0068367D02*
X0071000Y0079507D01*
X0078200Y0080427D02*
X0078200Y0080427D01*
X0078573Y0080800D02*
X0078573Y0080800D01*
X0082164Y0079937D02*
X0091322Y0089095D01*
X0096605Y0089095D01*
X0090554Y0092800D02*
X0090024Y0092800D01*
X0090200Y0092976D02*
X0090200Y0092446D01*
X0090235Y0095200D02*
X0090765Y0095200D01*
X0090200Y0095235D02*
X0090200Y0095765D01*
X0086619Y0068800D02*
X0070567Y0068800D01*
X0056036Y0058263D02*
X0055763Y0058263D01*
X0051600Y0054100D01*
X0050600Y0054100D02*
X0050111Y0054100D01*
X0049605Y0053595D01*
X0049600Y0051600D02*
X0047611Y0051600D01*
X0046752Y0050741D01*
X0051600Y0051600D02*
X0051600Y0052600D01*
X0051600Y0051600D02*
X0052600Y0051600D01*
X0049400Y0056403D02*
X0049400Y0058200D01*
X0048246Y0055629D02*
X0048246Y0055629D01*
X0043358Y0054400D02*
X0042828Y0054400D01*
X0042200Y0055028D02*
X0042200Y0055558D01*
X0042200Y0055946D02*
X0042200Y0056476D01*
X0042524Y0056800D02*
X0043054Y0056800D01*
X0040654Y0054400D02*
X0040124Y0054400D01*
X0039800Y0054076D02*
X0039800Y0053546D01*
X0022220Y0056800D02*
X0019700Y0056800D01*
X0019700Y0059200D02*
X0021650Y0059200D01*
X0022254Y0061600D02*
X0019700Y0061600D01*
X0023000Y0062559D02*
X0023000Y0063916D01*
X0022933Y0064000D02*
X0019700Y0064000D01*
X0059000Y0056773D02*
X0059000Y0056773D01*
X0059027Y0056800D02*
X0059027Y0056800D01*
X0084391Y0060491D02*
X0089781Y0055100D01*
X0091600Y0055100D01*
X0094600Y0058100D01*
X0094600Y0059600D01*
X0090600Y0059100D02*
X0086982Y0062718D01*
X0086618Y0062718D01*
X0088845Y0064945D02*
X0090690Y0063100D01*
X0092100Y0063100D01*
X0093600Y0064600D01*
X0093600Y0066600D01*
X0054200Y0100931D02*
X0054200Y0101269D01*
X0051800Y0101269D02*
X0051800Y0100931D01*
X0049400Y0100931D02*
X0049400Y0101269D01*
X0047000Y0101269D02*
X0047000Y0100931D01*
X0044600Y0100931D02*
X0044600Y0101269D01*
X0042200Y0100952D02*
X0042200Y0100931D01*
X0042809Y0103352D02*
X0026600Y0103352D01*
X0021842Y0104800D02*
X0019700Y0104800D01*
X0019700Y0102400D02*
X0021650Y0102400D01*
X0023000Y0106752D02*
X0023000Y0107826D01*
X0023448Y0107200D02*
X0019700Y0107200D01*
X0019700Y0109600D02*
X0021916Y0109600D01*
X0021650Y0112000D02*
X0019700Y0112000D01*
X0019700Y0114400D02*
X0022774Y0114400D01*
X0023000Y0114626D02*
X0023000Y0115700D01*
X0022195Y0116800D02*
X0019700Y0116800D01*
X0019700Y0119200D02*
X0021650Y0119200D01*
X0022278Y0121600D02*
X0019700Y0121600D01*
X0023000Y0122500D02*
X0023000Y0123574D01*
X0031726Y0126974D02*
X0051600Y0107100D01*
X0051600Y0104643D01*
X0044100Y0104643D02*
X0042809Y0103352D01*
X0047694Y0114400D02*
X0047871Y0114400D01*
X0047000Y0115094D02*
X0047000Y0130300D01*
X0044600Y0130300D02*
X0044600Y0117494D01*
X0045294Y0116800D02*
X0047871Y0116800D01*
X0044600Y0162900D02*
X0044600Y0167296D01*
X0044696Y0167200D02*
X0042008Y0167200D01*
X0042200Y0167392D02*
X0042200Y0162900D01*
X0039800Y0162900D02*
X0039800Y0165288D01*
X0037400Y0164980D02*
X0037400Y0162900D01*
X0035000Y0162900D02*
X0035000Y0164980D01*
X0051800Y0171500D02*
X0051800Y0179879D01*
X0053026Y0186400D02*
X0074248Y0186400D01*
X0073400Y0186000D02*
X0073400Y0187200D01*
X0074248Y0188800D02*
X0075448Y0188800D01*
X0075448Y0191200D02*
X0074248Y0191200D01*
X0071000Y0187200D02*
X0071000Y0186000D01*
X0068600Y0186000D02*
X0068600Y0187200D01*
X0074248Y0184000D02*
X0075448Y0184000D01*
X0078200Y0186000D02*
X0078200Y0187200D01*
X0080600Y0187200D02*
X0080600Y0186000D01*
X0099800Y0175212D02*
X0099800Y0174012D01*
X0138200Y0165477D02*
X0138200Y0165124D01*
X0182466Y0115557D02*
X0182663Y0115360D01*
X0226959Y0111565D02*
X0226959Y0111565D01*
X0231800Y0106295D02*
X0231800Y0105527D01*
X0236600Y0105527D02*
X0236600Y0106295D01*
X0239000Y0106295D02*
X0239000Y0105527D01*
X0210200Y0189000D02*
X0210200Y0194000D01*
X0207800Y0194000D02*
X0207800Y0189000D01*
X0019762Y0200800D02*
X0018739Y0200800D01*
X0018200Y0200261D02*
X0018200Y0199200D01*
X0013157Y0198400D02*
X0006200Y0198400D01*
X0006200Y0200800D02*
X0012374Y0200800D01*
X0012182Y0203200D02*
X0006200Y0203200D01*
X0008600Y0206961D02*
X0008600Y0006200D01*
X0021877Y0016000D02*
X0023389Y0016000D01*
X0023000Y0016389D02*
X0023000Y0014877D01*
X0025400Y0014929D02*
X0025400Y0013700D01*
X0027800Y0013700D02*
X0027800Y0014929D01*
X0063800Y0017664D02*
X0063800Y0018464D01*
X0066200Y0018464D02*
X0066200Y0017664D01*
D42*
X0084100Y0011100D02*
X0088064Y0015064D01*
X0088064Y0018064D01*
X0084100Y0011100D02*
X0047100Y0011100D01*
X0043600Y0014600D01*
X0040100Y0011100D01*
X0041600Y0011100D01*
X0043600Y0011100D01*
X0047100Y0011100D01*
X0043600Y0013100D02*
X0043600Y0014600D01*
X0043600Y0046100D01*
X0017100Y0072714D02*
X0017100Y0017100D01*
X0023100Y0011100D01*
X0040100Y0011100D01*
X0017100Y0072714D02*
X0019293Y0074907D01*
X0017100Y0077100D01*
X0017100Y0074600D01*
X0017407Y0074907D01*
X0019293Y0074907D01*
X0026600Y0074907D01*
X0017100Y0074600D02*
X0017100Y0072714D01*
X0017100Y0077100D02*
X0017100Y0124600D01*
X0019226Y0126726D01*
X0019226Y0126974D01*
X0017100Y0129100D01*
X0017100Y0127100D01*
X0017226Y0126974D01*
X0019226Y0126974D01*
X0026600Y0126974D01*
X0017100Y0127100D02*
X0017100Y0124600D01*
X0017100Y0129100D02*
X0017100Y0137100D01*
X0026600Y0146600D01*
X0039100Y0146600D01*
X0044100Y0146600D01*
X0049100Y0146600D01*
X0051757Y0146600D01*
X0080498Y0137624D02*
X0080498Y0131600D01*
X0080498Y0118096D01*
X0079002Y0116600D01*
X0104100Y0126899D02*
X0104100Y0129100D01*
X0104100Y0134100D01*
X0104100Y0136600D01*
X0104100Y0151300D01*
X0104100Y0153600D01*
X0112100Y0161600D01*
X0112100Y0163588D01*
X0115131Y0160557D01*
X0120100Y0160557D01*
X0124600Y0165600D02*
X0124600Y0153100D01*
X0122800Y0151300D01*
X0113200Y0151300D01*
X0103100Y0163588D02*
X0095000Y0155488D01*
X0095000Y0151300D01*
X0088057Y0151557D02*
X0087800Y0151300D01*
X0088057Y0151557D02*
X0088057Y0164100D01*
X0095143Y0164100D02*
X0095143Y0171100D01*
X0095100Y0171143D01*
X0095100Y0173600D01*
X0097112Y0175612D01*
X0090970Y0181754D01*
X0090970Y0194100D01*
X0086600Y0194100D01*
X0086600Y0185100D01*
X0082348Y0194100D02*
X0074848Y0186600D01*
X0082348Y0194100D02*
X0086600Y0194100D01*
X0097112Y0175612D02*
X0102100Y0175612D01*
X0103100Y0174612D01*
X0112100Y0174612D01*
X0118088Y0174612D01*
X0120100Y0172600D01*
X0120100Y0167643D01*
X0122557Y0167643D01*
X0124600Y0165600D01*
X0088057Y0171100D02*
X0084395Y0171100D01*
X0079248Y0165952D01*
X0112230Y0194100D02*
X0112230Y0199970D01*
X0111600Y0200600D01*
X0185600Y0103600D02*
X0232281Y0103600D01*
X0234592Y0105911D01*
X0185600Y0103600D02*
X0184100Y0102100D01*
X0126600Y0020557D02*
X0126600Y0018100D01*
X0123600Y0015100D01*
D43*
X0080498Y0131600D03*
X0051757Y0146600D03*
X0064100Y0168100D03*
X0086600Y0185100D03*
X0111600Y0200600D03*
D44*
X0124100Y0201600D03*
X0124100Y0196600D03*
X0124100Y0191600D03*
X0124100Y0186600D03*
X0178600Y0169600D03*
X0191600Y0169600D03*
X0191600Y0175100D03*
X0194100Y0199100D03*
X0194100Y0204100D03*
X0246600Y0169100D03*
X0251600Y0169100D03*
X0256600Y0169100D03*
X0211600Y0149100D03*
X0216600Y0132100D03*
X0212100Y0123100D03*
X0203600Y0110600D03*
X0184100Y0102100D03*
X0179100Y0099100D03*
X0179100Y0094100D03*
X0184100Y0094100D03*
X0184100Y0089100D03*
X0184100Y0084100D03*
X0179100Y0084100D03*
X0179100Y0089100D03*
X0206600Y0089600D03*
X0246600Y0094100D03*
X0251600Y0094100D03*
X0256600Y0094100D03*
X0201600Y0056600D03*
X0196600Y0056600D03*
X0191600Y0056600D03*
X0186600Y0056600D03*
X0181600Y0056600D03*
X0176600Y0056600D03*
X0176600Y0029100D03*
X0181600Y0029100D03*
X0186600Y0029100D03*
X0191600Y0029100D03*
X0196600Y0029100D03*
X0201600Y0029100D03*
X0150025Y0017506D03*
X0123600Y0015100D03*
X0103600Y0031600D03*
X0084600Y0040600D03*
X0070100Y0056100D03*
X0076600Y0066600D03*
X0076600Y0071600D03*
X0071600Y0074100D03*
X0068100Y0081100D03*
X0080100Y0090600D03*
X0076100Y0094100D03*
X0069100Y0094100D03*
X0069100Y0099100D03*
X0064100Y0099100D03*
X0053100Y0086100D03*
X0048600Y0081600D03*
X0045600Y0078100D03*
X0045100Y0090100D03*
X0026600Y0091600D03*
X0026600Y0086600D03*
X0040100Y0050100D03*
X0043600Y0046100D03*
X0051600Y0024100D03*
X0056600Y0024100D03*
X0054100Y0019100D03*
X0059100Y0019100D03*
X0090600Y0059100D03*
X0094600Y0059600D03*
X0099100Y0060100D03*
X0098100Y0064100D03*
X0093600Y0066600D03*
X0106100Y0058600D03*
X0109600Y0056100D03*
X0113100Y0058600D03*
X0117100Y0056100D03*
X0131350Y0054350D03*
X0126600Y0041600D03*
X0096100Y0077100D03*
X0114600Y0083600D03*
X0111600Y0100600D03*
X0096600Y0100600D03*
X0088600Y0096600D03*
X0086100Y0123600D03*
X0076600Y0124100D03*
X0071600Y0124100D03*
X0066600Y0124100D03*
X0061600Y0124100D03*
X0056600Y0124100D03*
X0137600Y0129600D03*
X0149600Y0114100D03*
X0161600Y0126100D03*
X0176600Y0129600D03*
X0136600Y0092100D03*
D45*
X0083100Y0146600D02*
X0087800Y0151300D01*
X0095000Y0151300D01*
X0083100Y0146600D02*
X0061600Y0146600D01*
X0059100Y0146600D01*
X0051757Y0146600D01*
X0048604Y0168100D02*
X0064100Y0168100D01*
X0077100Y0168100D01*
X0079248Y0165952D01*
X0080498Y0164702D01*
X0080498Y0155576D01*
X0048604Y0168100D02*
X0043352Y0173352D01*
X0038380Y0168380D01*
X0016100Y0168380D01*
X0043352Y0173352D02*
X0043352Y0186600D01*
X0234592Y0192722D02*
X0238478Y0192722D01*
X0242100Y0189100D01*
X0242100Y0121100D01*
X0238722Y0117722D01*
X0234592Y0117722D01*
D46*
X0114100Y0124100D03*
X0109100Y0124100D03*
X0109100Y0129100D03*
X0114100Y0129100D03*
X0114100Y0134100D03*
X0109100Y0134100D03*
X0104100Y0134100D03*
X0104100Y0129100D03*
X0104100Y0124100D03*
X0099100Y0124100D03*
X0099100Y0129100D03*
X0099100Y0134100D03*
X0094100Y0134100D03*
X0094100Y0129100D03*
X0094100Y0124100D03*
X0059100Y0136600D03*
X0059100Y0141600D03*
X0059100Y0146600D03*
X0054100Y0141600D03*
X0049100Y0141600D03*
X0049100Y0136600D03*
X0054100Y0136600D03*
X0044100Y0136600D03*
X0044100Y0141600D03*
X0044100Y0146600D03*
X0039100Y0146600D03*
X0039100Y0141600D03*
X0039100Y0136600D03*
X0039100Y0151600D03*
X0039100Y0156600D03*
X0044100Y0156600D03*
X0044100Y0151600D03*
X0049100Y0151600D03*
X0054100Y0151600D03*
X0054100Y0156600D03*
X0049100Y0156600D03*
X0059100Y0156600D03*
X0059100Y0151600D03*
D47*
X0157506Y0041128D02*
X0207572Y0041128D01*
X0223600Y0025100D01*
X0251320Y0025100D01*
X0251600Y0025380D01*
X0251600Y0011600D02*
X0218529Y0011600D01*
X0212624Y0017506D01*
M02*
