M48
;GenerationSoftware,Autodesk,EAGLE,9.6.2*%
;CreationDate,2021-02-08T09:04:10Z*%
FMAT,2
ICI,OFF
METRIC,TZ,000.000
T6C0.700
T5C0.813
T4C0.900
T3C1.016
T2C1.321
T1C1.400
%
G90
M71
T1
X7620Y41910
X7620Y49530
X10160Y12700
X10160Y17780
T2
X41910Y38100
X52070Y35560
X52070Y40640
T3
X34290Y54610
X29210Y54610
X24130Y59690
X29210Y59690
X34290Y59690
T4
X16510Y7620
X38100Y15240
X30480Y15240
X38100Y12700
X30480Y12700
X22860Y12700
X15240Y12700
X24130Y7620
X53340Y7620
X45720Y7620
X30480Y17780
X38100Y17780
T5
X27178Y46990
X18034Y46990
X29718Y35560
X38862Y35560
X38862Y46990
X29718Y46990
X23622Y19050
X14478Y19050
X23622Y15240
X14478Y15240
X38862Y30480
X29718Y30480
X38862Y26670
X29718Y26670
X46228Y26670
X55372Y26670
X46228Y21590
X55372Y21590
X29718Y22860
X38862Y22860
X17780Y33020
X12700Y33020
X15240Y33020
X17780Y22860
X22860Y22860
X20320Y22860
X19050Y40640
X24130Y40640
X21590Y40640
X30480Y69850
X5080Y69850
X5080Y72390
X17780Y69850
X17780Y72390
X34290Y41910
X36830Y41910
X31750Y41910
X50800Y15240
X53340Y15240
X48260Y15240
X30480Y72390
X40640Y69850
X40640Y72390
X53340Y69850
X53340Y72390
X33020Y7620
X35560Y7620
T6
X52070Y48260
X52070Y50800
M30