%
M48
M72
T01C0.01378
T02C0.01575
T03C0.02756
T04C0.03200
T05C0.04000
T06C0.12598
%
T01
X23300Y53300
X23300Y73300
X16800Y96800
X16800Y111800
X16800Y126800
X50300Y94300
X58300Y100300
X59300Y114300
X54300Y121800
X74800Y110300
X74800Y99300
X88300Y104800
X81300Y129300
X88300Y80300
T02
X11800Y11800
X11800Y16800
X11800Y21800
X11800Y26800
X11800Y31800
X16800Y31800
X16800Y26800
X16800Y21800
X16800Y16800
X16800Y11800
X91800Y114300
X91800Y119300
X91800Y124300
X91800Y129300
X96800Y129300
X96800Y124300
X96800Y119300
X96800Y114300
X59300Y121800
X19300Y134300
X19300Y139300
X14300Y139300
X14300Y134300
X9300Y134300
X9300Y139300
T03
X51111Y26328
X58985Y26328
X66859Y26328
X74733Y26328
X82607Y26328
X43237Y26328
X35363Y26328
X27489Y26328
T04
X44300Y76800
X34300Y76800
X54300Y76800
X64300Y76800
X74300Y76800
X74300Y136800
X64300Y136800
X54300Y136800
X44300Y136800
X34300Y136800
T05
X16500Y60700
X16500Y42900
X42100Y42900
X42100Y60700
X66500Y60700
X66500Y42900
X92100Y42900
X92100Y60700
T06
X54300Y51800
M30
