G75*
%MOIN*%
%OFA0B0*%
%FSLAX25Y25*%
%IPPOS*%
%LPD*%
%AMOC8*
5,1,8,0,0,1.08239X$1,22.5*
%
%ADD10C,0.00000*%
%ADD11C,0.05200*%
%ADD12C,0.06299*%
%ADD13C,0.06000*%
%ADD14R,0.08000X0.02600*%
%ADD15R,0.03150X0.04724*%
%ADD16R,0.04724X0.03150*%
%ADD17C,0.01600*%
%ADD18C,0.02978*%
%ADD19C,0.01200*%
%ADD20C,0.03175*%
D10*
X0001800Y0001800D02*
X0001800Y0148001D01*
X0106721Y0148001D01*
X0106721Y0001800D01*
X0001800Y0001800D01*
X0048001Y0051800D02*
X0048003Y0051958D01*
X0048009Y0052116D01*
X0048019Y0052274D01*
X0048033Y0052432D01*
X0048051Y0052589D01*
X0048072Y0052746D01*
X0048098Y0052902D01*
X0048128Y0053058D01*
X0048161Y0053213D01*
X0048199Y0053366D01*
X0048240Y0053519D01*
X0048285Y0053671D01*
X0048334Y0053822D01*
X0048387Y0053971D01*
X0048443Y0054119D01*
X0048503Y0054265D01*
X0048567Y0054410D01*
X0048635Y0054553D01*
X0048706Y0054695D01*
X0048780Y0054835D01*
X0048858Y0054972D01*
X0048940Y0055108D01*
X0049024Y0055242D01*
X0049113Y0055373D01*
X0049204Y0055502D01*
X0049299Y0055629D01*
X0049396Y0055754D01*
X0049497Y0055876D01*
X0049601Y0055995D01*
X0049708Y0056112D01*
X0049818Y0056226D01*
X0049931Y0056337D01*
X0050046Y0056446D01*
X0050164Y0056551D01*
X0050285Y0056653D01*
X0050408Y0056753D01*
X0050534Y0056849D01*
X0050662Y0056942D01*
X0050792Y0057032D01*
X0050925Y0057118D01*
X0051060Y0057202D01*
X0051196Y0057281D01*
X0051335Y0057358D01*
X0051476Y0057430D01*
X0051618Y0057500D01*
X0051762Y0057565D01*
X0051908Y0057627D01*
X0052055Y0057685D01*
X0052204Y0057740D01*
X0052354Y0057791D01*
X0052505Y0057838D01*
X0052657Y0057881D01*
X0052810Y0057920D01*
X0052965Y0057956D01*
X0053120Y0057987D01*
X0053276Y0058015D01*
X0053432Y0058039D01*
X0053589Y0058059D01*
X0053747Y0058075D01*
X0053904Y0058087D01*
X0054063Y0058095D01*
X0054221Y0058099D01*
X0054379Y0058099D01*
X0054537Y0058095D01*
X0054696Y0058087D01*
X0054853Y0058075D01*
X0055011Y0058059D01*
X0055168Y0058039D01*
X0055324Y0058015D01*
X0055480Y0057987D01*
X0055635Y0057956D01*
X0055790Y0057920D01*
X0055943Y0057881D01*
X0056095Y0057838D01*
X0056246Y0057791D01*
X0056396Y0057740D01*
X0056545Y0057685D01*
X0056692Y0057627D01*
X0056838Y0057565D01*
X0056982Y0057500D01*
X0057124Y0057430D01*
X0057265Y0057358D01*
X0057404Y0057281D01*
X0057540Y0057202D01*
X0057675Y0057118D01*
X0057808Y0057032D01*
X0057938Y0056942D01*
X0058066Y0056849D01*
X0058192Y0056753D01*
X0058315Y0056653D01*
X0058436Y0056551D01*
X0058554Y0056446D01*
X0058669Y0056337D01*
X0058782Y0056226D01*
X0058892Y0056112D01*
X0058999Y0055995D01*
X0059103Y0055876D01*
X0059204Y0055754D01*
X0059301Y0055629D01*
X0059396Y0055502D01*
X0059487Y0055373D01*
X0059576Y0055242D01*
X0059660Y0055108D01*
X0059742Y0054972D01*
X0059820Y0054835D01*
X0059894Y0054695D01*
X0059965Y0054553D01*
X0060033Y0054410D01*
X0060097Y0054265D01*
X0060157Y0054119D01*
X0060213Y0053971D01*
X0060266Y0053822D01*
X0060315Y0053671D01*
X0060360Y0053519D01*
X0060401Y0053366D01*
X0060439Y0053213D01*
X0060472Y0053058D01*
X0060502Y0052902D01*
X0060528Y0052746D01*
X0060549Y0052589D01*
X0060567Y0052432D01*
X0060581Y0052274D01*
X0060591Y0052116D01*
X0060597Y0051958D01*
X0060599Y0051800D01*
X0060597Y0051642D01*
X0060591Y0051484D01*
X0060581Y0051326D01*
X0060567Y0051168D01*
X0060549Y0051011D01*
X0060528Y0050854D01*
X0060502Y0050698D01*
X0060472Y0050542D01*
X0060439Y0050387D01*
X0060401Y0050234D01*
X0060360Y0050081D01*
X0060315Y0049929D01*
X0060266Y0049778D01*
X0060213Y0049629D01*
X0060157Y0049481D01*
X0060097Y0049335D01*
X0060033Y0049190D01*
X0059965Y0049047D01*
X0059894Y0048905D01*
X0059820Y0048765D01*
X0059742Y0048628D01*
X0059660Y0048492D01*
X0059576Y0048358D01*
X0059487Y0048227D01*
X0059396Y0048098D01*
X0059301Y0047971D01*
X0059204Y0047846D01*
X0059103Y0047724D01*
X0058999Y0047605D01*
X0058892Y0047488D01*
X0058782Y0047374D01*
X0058669Y0047263D01*
X0058554Y0047154D01*
X0058436Y0047049D01*
X0058315Y0046947D01*
X0058192Y0046847D01*
X0058066Y0046751D01*
X0057938Y0046658D01*
X0057808Y0046568D01*
X0057675Y0046482D01*
X0057540Y0046398D01*
X0057404Y0046319D01*
X0057265Y0046242D01*
X0057124Y0046170D01*
X0056982Y0046100D01*
X0056838Y0046035D01*
X0056692Y0045973D01*
X0056545Y0045915D01*
X0056396Y0045860D01*
X0056246Y0045809D01*
X0056095Y0045762D01*
X0055943Y0045719D01*
X0055790Y0045680D01*
X0055635Y0045644D01*
X0055480Y0045613D01*
X0055324Y0045585D01*
X0055168Y0045561D01*
X0055011Y0045541D01*
X0054853Y0045525D01*
X0054696Y0045513D01*
X0054537Y0045505D01*
X0054379Y0045501D01*
X0054221Y0045501D01*
X0054063Y0045505D01*
X0053904Y0045513D01*
X0053747Y0045525D01*
X0053589Y0045541D01*
X0053432Y0045561D01*
X0053276Y0045585D01*
X0053120Y0045613D01*
X0052965Y0045644D01*
X0052810Y0045680D01*
X0052657Y0045719D01*
X0052505Y0045762D01*
X0052354Y0045809D01*
X0052204Y0045860D01*
X0052055Y0045915D01*
X0051908Y0045973D01*
X0051762Y0046035D01*
X0051618Y0046100D01*
X0051476Y0046170D01*
X0051335Y0046242D01*
X0051196Y0046319D01*
X0051060Y0046398D01*
X0050925Y0046482D01*
X0050792Y0046568D01*
X0050662Y0046658D01*
X0050534Y0046751D01*
X0050408Y0046847D01*
X0050285Y0046947D01*
X0050164Y0047049D01*
X0050046Y0047154D01*
X0049931Y0047263D01*
X0049818Y0047374D01*
X0049708Y0047488D01*
X0049601Y0047605D01*
X0049497Y0047724D01*
X0049396Y0047846D01*
X0049299Y0047971D01*
X0049204Y0048098D01*
X0049113Y0048227D01*
X0049024Y0048358D01*
X0048940Y0048492D01*
X0048858Y0048628D01*
X0048780Y0048765D01*
X0048706Y0048905D01*
X0048635Y0049047D01*
X0048567Y0049190D01*
X0048503Y0049335D01*
X0048443Y0049481D01*
X0048387Y0049629D01*
X0048334Y0049778D01*
X0048285Y0049929D01*
X0048240Y0050081D01*
X0048199Y0050234D01*
X0048161Y0050387D01*
X0048128Y0050542D01*
X0048098Y0050698D01*
X0048072Y0050854D01*
X0048051Y0051011D01*
X0048033Y0051168D01*
X0048019Y0051326D01*
X0048009Y0051484D01*
X0048003Y0051642D01*
X0048001Y0051800D01*
D11*
X0044300Y0074200D02*
X0044300Y0079400D01*
X0034300Y0079400D02*
X0034300Y0074200D01*
X0054300Y0074200D02*
X0054300Y0079400D01*
X0064300Y0079400D02*
X0064300Y0074200D01*
X0074300Y0074200D02*
X0074300Y0079400D01*
X0074300Y0134200D02*
X0074300Y0139400D01*
X0064300Y0139400D02*
X0064300Y0134200D01*
X0054300Y0134200D02*
X0054300Y0139400D01*
X0044300Y0139400D02*
X0044300Y0134200D01*
X0034300Y0134200D02*
X0034300Y0139400D01*
D12*
X0035363Y0026328D03*
X0043237Y0026328D03*
X0051111Y0026328D03*
X0058985Y0026328D03*
X0066859Y0026328D03*
X0074733Y0026328D03*
X0082607Y0026328D03*
X0027489Y0026328D03*
D13*
X0019500Y0042900D02*
X0013500Y0042900D01*
X0013500Y0060700D02*
X0019500Y0060700D01*
X0039100Y0060700D02*
X0045100Y0060700D01*
X0045100Y0042900D02*
X0039100Y0042900D01*
X0063500Y0042900D02*
X0069500Y0042900D01*
X0069500Y0060700D02*
X0063500Y0060700D01*
X0089100Y0060700D02*
X0095100Y0060700D01*
X0095100Y0042900D02*
X0089100Y0042900D01*
D14*
X0066400Y0089300D03*
X0066400Y0094300D03*
X0066400Y0099300D03*
X0066400Y0104300D03*
X0066400Y0109300D03*
X0066400Y0114300D03*
X0066400Y0119300D03*
X0066400Y0124300D03*
X0042200Y0124300D03*
X0042200Y0119300D03*
X0042200Y0114300D03*
X0042200Y0109300D03*
X0042200Y0104300D03*
X0042200Y0099300D03*
X0042200Y0094300D03*
X0042200Y0089300D03*
D15*
X0027843Y0089300D03*
X0027843Y0081800D03*
X0020757Y0081800D03*
X0020757Y0089300D03*
X0020757Y0096800D03*
X0027843Y0096800D03*
X0027843Y0104300D03*
X0027843Y0111800D03*
X0027843Y0119300D03*
X0027843Y0126800D03*
X0020757Y0126800D03*
X0020757Y0119300D03*
X0020757Y0111800D03*
X0020757Y0104300D03*
X0080757Y0099300D03*
X0080757Y0091800D03*
X0087843Y0091800D03*
X0087843Y0099300D03*
D16*
X0079300Y0055343D03*
X0079300Y0048257D03*
X0029300Y0048257D03*
X0029300Y0055343D03*
D17*
X0028600Y0058899D02*
X0028600Y0065719D01*
X0026200Y0065719D02*
X0026200Y0058899D01*
X0026117Y0058899D02*
X0025142Y0057924D01*
X0024830Y0057924D01*
X0023881Y0057531D01*
X0023155Y0056805D01*
X0023120Y0056770D01*
X0022610Y0056770D01*
X0021334Y0056242D01*
X0020358Y0055266D01*
X0019830Y0053990D01*
X0019830Y0052610D01*
X0020358Y0051334D01*
X0021334Y0050358D01*
X0022610Y0049830D01*
X0023990Y0049830D01*
X0024957Y0050230D01*
X0024957Y0045861D01*
X0025337Y0045481D01*
X0023822Y0045481D01*
X0023723Y0045722D01*
X0022322Y0047123D01*
X0020491Y0047881D01*
X0012509Y0047881D01*
X0010678Y0047123D01*
X0009277Y0045722D01*
X0008519Y0043891D01*
X0008519Y0041909D01*
X0009277Y0040078D01*
X0010678Y0038677D01*
X0012509Y0037919D01*
X0020491Y0037919D01*
X0022322Y0038677D01*
X0023723Y0040078D01*
X0023822Y0040319D01*
X0034778Y0040319D01*
X0034877Y0040078D01*
X0036278Y0038677D01*
X0038109Y0037919D01*
X0040656Y0037919D01*
X0040656Y0030812D01*
X0040331Y0030677D01*
X0039167Y0029513D01*
X0039138Y0029552D01*
X0038587Y0030103D01*
X0037957Y0030561D01*
X0037263Y0030915D01*
X0036522Y0031155D01*
X0035753Y0031277D01*
X0035363Y0031277D01*
X0035363Y0026328D01*
X0035363Y0031277D01*
X0034973Y0031277D01*
X0034204Y0031155D01*
X0033463Y0030915D01*
X0032769Y0030561D01*
X0032139Y0030103D01*
X0031588Y0029552D01*
X0031559Y0029513D01*
X0030395Y0030677D01*
X0028510Y0031458D01*
X0026468Y0031458D01*
X0024583Y0030677D01*
X0023139Y0029234D01*
X0022358Y0027348D01*
X0022358Y0025307D01*
X0023139Y0023421D01*
X0024019Y0022542D01*
X0024019Y0021747D01*
X0024442Y0020725D01*
X0028225Y0016942D01*
X0029247Y0016519D01*
X0087353Y0016519D01*
X0088375Y0016942D01*
X0089158Y0017725D01*
X0101921Y0030488D01*
X0101921Y0006600D01*
X0006600Y0006600D01*
X0006600Y0143201D01*
X0031622Y0143201D01*
X0030416Y0141995D01*
X0029719Y0140311D01*
X0029719Y0139381D01*
X0028787Y0139381D01*
X0027838Y0138988D01*
X0022112Y0133262D01*
X0021719Y0132313D01*
X0021719Y0131143D01*
X0018361Y0131143D01*
X0017488Y0130270D01*
X0016110Y0130270D01*
X0014834Y0129742D01*
X0013858Y0128766D01*
X0013330Y0127490D01*
X0013330Y0126110D01*
X0013858Y0124834D01*
X0014834Y0123858D01*
X0016110Y0123330D01*
X0017488Y0123330D01*
X0017768Y0123050D01*
X0017201Y0122483D01*
X0017201Y0116117D01*
X0017768Y0115550D01*
X0017488Y0115270D01*
X0016110Y0115270D01*
X0014834Y0114742D01*
X0013858Y0113766D01*
X0013330Y0112490D01*
X0013330Y0111110D01*
X0013858Y0109834D01*
X0014834Y0108858D01*
X0016110Y0108330D01*
X0017488Y0108330D01*
X0017768Y0108050D01*
X0017201Y0107483D01*
X0017201Y0101117D01*
X0017768Y0100550D01*
X0017488Y0100270D01*
X0016110Y0100270D01*
X0014834Y0099742D01*
X0013858Y0098766D01*
X0013330Y0097490D01*
X0013330Y0096110D01*
X0013858Y0094834D01*
X0014834Y0093858D01*
X0016110Y0093330D01*
X0017488Y0093330D01*
X0017768Y0093050D01*
X0017201Y0092483D01*
X0017201Y0091381D01*
X0016787Y0091381D01*
X0015838Y0090988D01*
X0013612Y0088762D01*
X0013219Y0087813D01*
X0013219Y0073787D01*
X0013612Y0072838D01*
X0019612Y0066838D01*
X0020338Y0066112D01*
X0021287Y0065719D01*
X0043038Y0065719D01*
X0042697Y0065500D01*
X0042300Y0065500D01*
X0042300Y0065130D01*
X0041900Y0064668D01*
X0041900Y0065500D01*
X0038722Y0065500D01*
X0037976Y0065382D01*
X0037257Y0065148D01*
X0036584Y0064805D01*
X0035973Y0064361D01*
X0035439Y0063827D01*
X0034995Y0063216D01*
X0034652Y0062543D01*
X0034418Y0061824D01*
X0034300Y0061078D01*
X0034300Y0060900D01*
X0038890Y0060900D01*
X0038707Y0060500D01*
X0034300Y0060500D01*
X0034300Y0060322D01*
X0034418Y0059576D01*
X0034652Y0058857D01*
X0034995Y0058184D01*
X0035439Y0057573D01*
X0035973Y0057039D01*
X0036584Y0056595D01*
X0036979Y0056393D01*
X0036319Y0051800D01*
X0036951Y0047401D01*
X0036278Y0047123D01*
X0034877Y0045722D01*
X0034778Y0045481D01*
X0033263Y0045481D01*
X0033643Y0045861D01*
X0033643Y0050652D01*
X0032495Y0051800D01*
X0033643Y0052948D01*
X0033643Y0057739D01*
X0032483Y0058899D01*
X0026117Y0058899D01*
X0024182Y0059576D02*
X0024300Y0060322D01*
X0024300Y0060500D01*
X0016700Y0060500D01*
X0016700Y0060900D01*
X0016300Y0060900D01*
X0016300Y0065500D01*
X0013122Y0065500D01*
X0012376Y0065382D01*
X0011657Y0065148D01*
X0010984Y0064805D01*
X0010373Y0064361D01*
X0009839Y0063827D01*
X0009395Y0063216D01*
X0009052Y0062543D01*
X0008818Y0061824D01*
X0008700Y0061078D01*
X0008700Y0060900D01*
X0016300Y0060900D01*
X0016300Y0060500D01*
X0016700Y0060500D01*
X0016700Y0055900D01*
X0019878Y0055900D01*
X0020624Y0056018D01*
X0021343Y0056252D01*
X0022016Y0056595D01*
X0022627Y0057039D01*
X0023161Y0057573D01*
X0023605Y0058184D01*
X0023948Y0058857D01*
X0024182Y0059576D01*
X0024060Y0059200D02*
X0034540Y0059200D01*
X0033400Y0057982D02*
X0033400Y0065719D01*
X0035800Y0065719D02*
X0035800Y0064188D01*
X0035612Y0064000D02*
X0022988Y0064000D01*
X0023161Y0063827D02*
X0022627Y0064361D01*
X0022016Y0064805D01*
X0021343Y0065148D01*
X0020624Y0065382D01*
X0019878Y0065500D01*
X0016700Y0065500D01*
X0016700Y0060900D01*
X0024300Y0060900D01*
X0024300Y0061078D01*
X0024182Y0061824D01*
X0023948Y0062543D01*
X0023605Y0063216D01*
X0023161Y0063827D01*
X0023800Y0062834D02*
X0023800Y0065719D01*
X0021400Y0065719D02*
X0021400Y0065119D01*
X0020050Y0066400D02*
X0006600Y0066400D01*
X0006600Y0064000D02*
X0010012Y0064000D01*
X0009400Y0063223D02*
X0009400Y0143201D01*
X0007000Y0143201D02*
X0007000Y0006600D01*
X0006600Y0008800D02*
X0101921Y0008800D01*
X0100600Y0006600D02*
X0100600Y0029167D01*
X0099433Y0028000D02*
X0101921Y0028000D01*
X0101921Y0025600D02*
X0097033Y0025600D01*
X0098200Y0026767D02*
X0098200Y0006600D01*
X0095800Y0006600D02*
X0095800Y0024367D01*
X0094633Y0023200D02*
X0101921Y0023200D01*
X0101921Y0020800D02*
X0092233Y0020800D01*
X0091000Y0019567D02*
X0091000Y0006600D01*
X0088600Y0006600D02*
X0088600Y0017167D01*
X0089833Y0018400D02*
X0101921Y0018400D01*
X0101921Y0016000D02*
X0006600Y0016000D01*
X0006600Y0013600D02*
X0101921Y0013600D01*
X0101921Y0011200D02*
X0006600Y0011200D01*
X0009400Y0006600D02*
X0009400Y0039956D01*
X0009356Y0040000D02*
X0006600Y0040000D01*
X0006600Y0037600D02*
X0040656Y0037600D01*
X0040600Y0037919D02*
X0040600Y0030789D01*
X0040054Y0030400D02*
X0038179Y0030400D01*
X0038200Y0030384D02*
X0038200Y0037919D01*
X0040656Y0035200D02*
X0006600Y0035200D01*
X0006600Y0032800D02*
X0040656Y0032800D01*
X0035800Y0031270D02*
X0035800Y0039156D01*
X0034956Y0040000D02*
X0023644Y0040000D01*
X0023800Y0040265D02*
X0023800Y0029895D01*
X0024305Y0030400D02*
X0006600Y0030400D01*
X0006600Y0028000D02*
X0022628Y0028000D01*
X0022358Y0025600D02*
X0006600Y0025600D01*
X0006600Y0023200D02*
X0023361Y0023200D01*
X0023800Y0022761D02*
X0023800Y0006600D01*
X0021400Y0006600D02*
X0021400Y0038295D01*
X0019000Y0037919D02*
X0019000Y0006600D01*
X0016600Y0006600D02*
X0016600Y0037919D01*
X0014200Y0037919D02*
X0014200Y0006600D01*
X0011800Y0006600D02*
X0011800Y0038213D01*
X0008519Y0042400D02*
X0006600Y0042400D01*
X0006600Y0044800D02*
X0008896Y0044800D01*
X0009400Y0045844D02*
X0009400Y0058177D01*
X0009395Y0058184D02*
X0009839Y0057573D01*
X0010373Y0057039D01*
X0010984Y0056595D01*
X0011657Y0056252D01*
X0012376Y0056018D01*
X0013122Y0055900D01*
X0016300Y0055900D01*
X0016300Y0060500D01*
X0008700Y0060500D01*
X0008700Y0060322D01*
X0008818Y0059576D01*
X0009052Y0058857D01*
X0009395Y0058184D01*
X0008940Y0059200D02*
X0006600Y0059200D01*
X0006600Y0056800D02*
X0010702Y0056800D01*
X0011800Y0056205D02*
X0011800Y0047587D01*
X0010865Y0047200D02*
X0006600Y0047200D01*
X0006600Y0049600D02*
X0024957Y0049600D01*
X0023800Y0049830D02*
X0023800Y0045535D01*
X0024957Y0047200D02*
X0022135Y0047200D01*
X0021400Y0047504D02*
X0021400Y0050331D01*
X0020082Y0052000D02*
X0006600Y0052000D01*
X0006600Y0054400D02*
X0020000Y0054400D01*
X0019000Y0055900D02*
X0019000Y0047881D01*
X0016600Y0047881D02*
X0016600Y0060500D01*
X0016600Y0060900D02*
X0016600Y0069850D01*
X0017650Y0068800D02*
X0006600Y0068800D01*
X0006600Y0071200D02*
X0015250Y0071200D01*
X0014200Y0072250D02*
X0014200Y0065500D01*
X0016300Y0064000D02*
X0016700Y0064000D01*
X0016700Y0061600D02*
X0016300Y0061600D01*
X0014200Y0060900D02*
X0014200Y0060500D01*
X0016300Y0059200D02*
X0016700Y0059200D01*
X0016700Y0056800D02*
X0016300Y0056800D01*
X0014200Y0055900D02*
X0014200Y0047881D01*
X0021400Y0056269D02*
X0021400Y0056281D01*
X0022298Y0056800D02*
X0023150Y0056800D01*
X0023800Y0057450D02*
X0023800Y0058566D01*
X0023800Y0060500D02*
X0023800Y0060900D01*
X0024217Y0061600D02*
X0034383Y0061600D01*
X0035800Y0060900D02*
X0035800Y0060500D01*
X0035800Y0057212D02*
X0035800Y0046644D01*
X0036465Y0047200D02*
X0033643Y0047200D01*
X0033400Y0045618D02*
X0033400Y0045481D01*
X0033643Y0049600D02*
X0036635Y0049600D01*
X0036319Y0051800D02*
X0036319Y0051800D01*
X0036348Y0052000D02*
X0032695Y0052000D01*
X0033400Y0052705D02*
X0033400Y0050895D01*
X0033643Y0054400D02*
X0036693Y0054400D01*
X0036302Y0056800D02*
X0033643Y0056800D01*
X0031000Y0058899D02*
X0031000Y0065719D01*
X0037460Y0070881D02*
X0038184Y0071605D01*
X0038881Y0073289D01*
X0038881Y0080311D01*
X0038184Y0081995D01*
X0036895Y0083284D01*
X0035211Y0083981D01*
X0035131Y0083981D01*
X0037274Y0086124D01*
X0037379Y0086019D01*
X0047021Y0086019D01*
X0048181Y0087179D01*
X0048181Y0091421D01*
X0047802Y0091800D01*
X0047847Y0091845D01*
X0048334Y0091358D01*
X0049610Y0090830D01*
X0050990Y0090830D01*
X0052266Y0091358D01*
X0053242Y0092334D01*
X0053770Y0093610D01*
X0053770Y0094990D01*
X0053242Y0096266D01*
X0052881Y0096626D01*
X0052881Y0125731D01*
X0053369Y0126219D01*
X0060419Y0126219D01*
X0060419Y0122179D01*
X0060798Y0121800D01*
X0060419Y0121421D01*
X0060419Y0117593D01*
X0059990Y0117770D01*
X0058610Y0117770D01*
X0057334Y0117242D01*
X0056358Y0116266D01*
X0055830Y0114990D01*
X0055830Y0113610D01*
X0056358Y0112334D01*
X0057334Y0111358D01*
X0058610Y0110830D01*
X0059990Y0110830D01*
X0060419Y0111007D01*
X0060419Y0107179D01*
X0060935Y0106663D01*
X0060723Y0106295D01*
X0060600Y0105837D01*
X0060600Y0104300D01*
X0066400Y0104300D01*
X0061300Y0104300D01*
X0058550Y0107050D01*
X0056550Y0107050D01*
X0056300Y0107300D01*
X0056300Y0109300D01*
X0054300Y0111300D01*
X0054300Y0121800D01*
X0052881Y0121600D02*
X0060598Y0121600D01*
X0060419Y0119200D02*
X0052881Y0119200D01*
X0052881Y0116800D02*
X0056893Y0116800D01*
X0057400Y0117269D02*
X0057400Y0126219D01*
X0055000Y0126219D02*
X0055000Y0101401D01*
X0054830Y0100990D02*
X0055358Y0102266D01*
X0056334Y0103242D01*
X0057610Y0103770D01*
X0058990Y0103770D01*
X0060266Y0103242D01*
X0060600Y0102907D01*
X0060600Y0104300D01*
X0066400Y0104300D01*
X0072200Y0104300D01*
X0072200Y0105837D01*
X0072077Y0106295D01*
X0071865Y0106663D01*
X0071921Y0106719D01*
X0074313Y0106719D01*
X0074581Y0106830D01*
X0075490Y0106830D01*
X0076766Y0107358D01*
X0077742Y0108334D01*
X0077976Y0108899D01*
X0077976Y0103258D01*
X0077201Y0102483D01*
X0077201Y0102081D01*
X0076926Y0102081D01*
X0076766Y0102242D01*
X0075490Y0102770D01*
X0074110Y0102770D01*
X0072834Y0102242D01*
X0072197Y0101605D01*
X0071865Y0101937D01*
X0072077Y0102305D01*
X0072200Y0102763D01*
X0072200Y0104300D01*
X0066400Y0104300D01*
X0066400Y0104300D01*
X0066400Y0104300D01*
X0067000Y0104300D02*
X0067000Y0104300D01*
X0064600Y0104300D02*
X0064600Y0104300D01*
X0062200Y0104300D02*
X0062200Y0104300D01*
X0060600Y0104800D02*
X0052881Y0104800D01*
X0052881Y0107200D02*
X0060419Y0107200D01*
X0058550Y0107050D02*
X0057550Y0108050D01*
X0056550Y0107050D01*
X0054300Y0104800D01*
X0054300Y0076800D01*
X0054300Y0076800D01*
X0054300Y0083800D01*
X0054646Y0083800D01*
X0055330Y0083692D01*
X0055989Y0083478D01*
X0056606Y0083163D01*
X0057166Y0082756D01*
X0057656Y0082266D01*
X0058063Y0081706D01*
X0058378Y0081089D01*
X0058592Y0080430D01*
X0058700Y0079746D01*
X0058700Y0076800D01*
X0054300Y0076800D01*
X0054300Y0076800D01*
X0058700Y0076800D01*
X0058700Y0073854D01*
X0058592Y0073170D01*
X0058378Y0072511D01*
X0058063Y0071894D01*
X0057656Y0071334D01*
X0057304Y0070981D01*
X0060831Y0070981D01*
X0060936Y0071086D01*
X0060416Y0071605D01*
X0059719Y0073289D01*
X0059719Y0080311D01*
X0060416Y0081995D01*
X0061705Y0083284D01*
X0063389Y0083981D01*
X0065211Y0083981D01*
X0066895Y0083284D01*
X0068184Y0081995D01*
X0068881Y0080311D01*
X0068881Y0073289D01*
X0068184Y0071605D01*
X0066895Y0070316D01*
X0066881Y0070311D01*
X0066881Y0070287D01*
X0066488Y0069338D01*
X0063923Y0066772D01*
X0065903Y0065500D01*
X0066300Y0065500D01*
X0066300Y0065130D01*
X0066700Y0064668D01*
X0066700Y0065500D01*
X0069878Y0065500D01*
X0070624Y0065382D01*
X0071343Y0065148D01*
X0072016Y0064805D01*
X0072627Y0064361D01*
X0073161Y0063827D01*
X0073605Y0063216D01*
X0073948Y0062543D01*
X0074182Y0061824D01*
X0074300Y0061078D01*
X0074300Y0060900D01*
X0069710Y0060900D01*
X0069893Y0060500D01*
X0074300Y0060500D01*
X0074300Y0060322D01*
X0074182Y0059576D01*
X0073948Y0058857D01*
X0073605Y0058184D01*
X0073161Y0057573D01*
X0072627Y0057039D01*
X0072016Y0056595D01*
X0071621Y0056393D01*
X0072281Y0051800D01*
X0071649Y0047401D01*
X0072322Y0047123D01*
X0073723Y0045722D01*
X0073822Y0045481D01*
X0075337Y0045481D01*
X0074957Y0045861D01*
X0074957Y0050652D01*
X0076105Y0051800D01*
X0074957Y0052948D01*
X0074957Y0057739D01*
X0076117Y0058899D01*
X0082483Y0058899D01*
X0083643Y0057739D01*
X0083643Y0054650D01*
X0083912Y0054381D01*
X0097731Y0054381D01*
X0098019Y0054669D01*
X0098019Y0056888D01*
X0097616Y0056595D01*
X0096943Y0056252D01*
X0096224Y0056018D01*
X0095478Y0055900D01*
X0092300Y0055900D01*
X0092300Y0060500D01*
X0091900Y0060500D01*
X0091900Y0055900D01*
X0088722Y0055900D01*
X0087976Y0056018D01*
X0087257Y0056252D01*
X0086584Y0056595D01*
X0085973Y0057039D01*
X0085439Y0057573D01*
X0084995Y0058184D01*
X0084652Y0058857D01*
X0084418Y0059576D01*
X0084300Y0060322D01*
X0084300Y0060500D01*
X0091900Y0060500D01*
X0091900Y0060900D01*
X0084300Y0060900D01*
X0084300Y0061078D01*
X0084418Y0061824D01*
X0084652Y0062543D01*
X0084995Y0063216D01*
X0085439Y0063827D01*
X0085973Y0064361D01*
X0086584Y0064805D01*
X0087257Y0065148D01*
X0087976Y0065382D01*
X0088675Y0065492D01*
X0086442Y0067725D01*
X0086019Y0068747D01*
X0086019Y0077674D01*
X0085358Y0078334D01*
X0084868Y0079519D01*
X0079747Y0079519D01*
X0078881Y0079877D01*
X0078881Y0073289D01*
X0078184Y0071605D01*
X0076895Y0070316D01*
X0075211Y0069619D01*
X0073389Y0069619D01*
X0071705Y0070316D01*
X0070416Y0071605D01*
X0069719Y0073289D01*
X0069719Y0080311D01*
X0070416Y0081995D01*
X0071705Y0083284D01*
X0073389Y0083981D01*
X0074686Y0083981D01*
X0072148Y0086519D01*
X0071721Y0086519D01*
X0071221Y0086019D01*
X0061579Y0086019D01*
X0060419Y0087179D01*
X0060419Y0091421D01*
X0060798Y0091800D01*
X0060419Y0092179D01*
X0060419Y0096421D01*
X0060717Y0096719D01*
X0059287Y0096719D01*
X0059004Y0096836D01*
X0058990Y0096830D01*
X0057610Y0096830D01*
X0056334Y0097358D01*
X0055358Y0098334D01*
X0054830Y0099610D01*
X0054830Y0100990D01*
X0054830Y0100000D02*
X0052881Y0100000D01*
X0052881Y0102400D02*
X0055493Y0102400D01*
X0057400Y0103683D02*
X0057400Y0111331D01*
X0056693Y0112000D02*
X0052881Y0112000D01*
X0052881Y0114400D02*
X0055830Y0114400D01*
X0056300Y0109300D02*
X0057550Y0108050D01*
X0060419Y0109600D02*
X0052881Y0109600D01*
X0059800Y0110830D02*
X0059800Y0103435D01*
X0056093Y0097600D02*
X0052881Y0097600D01*
X0053683Y0095200D02*
X0060419Y0095200D01*
X0059800Y0096719D02*
X0059800Y0080507D01*
X0059921Y0080800D02*
X0058472Y0080800D01*
X0057400Y0082523D02*
X0057400Y0096917D01*
X0055000Y0099199D02*
X0055000Y0083744D01*
X0054300Y0083800D02*
X0053954Y0083800D01*
X0053270Y0083692D01*
X0052611Y0083478D01*
X0051994Y0083163D01*
X0051434Y0082756D01*
X0050944Y0082266D01*
X0050537Y0081706D01*
X0050222Y0081089D01*
X0050008Y0080430D01*
X0049900Y0079746D01*
X0049900Y0076800D01*
X0054300Y0076800D01*
X0054300Y0076800D01*
X0054300Y0083800D01*
X0054300Y0083200D02*
X0054300Y0083200D01*
X0054300Y0080800D02*
X0054300Y0080800D01*
X0054300Y0078400D02*
X0054300Y0078400D01*
X0054300Y0076800D02*
X0049900Y0076800D01*
X0049900Y0073854D01*
X0050008Y0073170D01*
X0050222Y0072511D01*
X0050537Y0071894D01*
X0050944Y0071334D01*
X0051296Y0070981D01*
X0047560Y0070981D01*
X0048184Y0071605D01*
X0048881Y0073289D01*
X0048881Y0080311D01*
X0048184Y0081995D01*
X0046895Y0083284D01*
X0045211Y0083981D01*
X0043389Y0083981D01*
X0041705Y0083284D01*
X0040416Y0081995D01*
X0039719Y0080311D01*
X0039719Y0073289D01*
X0040416Y0071605D01*
X0041140Y0070881D01*
X0037460Y0070881D01*
X0037779Y0071200D02*
X0040821Y0071200D01*
X0040600Y0071421D02*
X0040600Y0070881D01*
X0038200Y0070881D02*
X0038200Y0071644D01*
X0038881Y0073600D02*
X0039719Y0073600D01*
X0039719Y0076000D02*
X0038881Y0076000D01*
X0038881Y0078400D02*
X0039719Y0078400D01*
X0039921Y0080800D02*
X0038679Y0080800D01*
X0038200Y0081956D02*
X0038200Y0086019D01*
X0036750Y0085600D02*
X0073067Y0085600D01*
X0071800Y0086519D02*
X0071800Y0083323D01*
X0071621Y0083200D02*
X0066979Y0083200D01*
X0067000Y0083179D02*
X0067000Y0086019D01*
X0064600Y0086019D02*
X0064600Y0083981D01*
X0062200Y0083489D02*
X0062200Y0086019D01*
X0060419Y0088000D02*
X0048181Y0088000D01*
X0047800Y0086798D02*
X0047800Y0082379D01*
X0046979Y0083200D02*
X0052066Y0083200D01*
X0052600Y0083472D02*
X0052600Y0091693D01*
X0053435Y0092800D02*
X0060419Y0092800D01*
X0060419Y0090400D02*
X0048181Y0090400D01*
X0050200Y0090830D02*
X0050200Y0081020D01*
X0050128Y0080800D02*
X0048679Y0080800D01*
X0048881Y0078400D02*
X0049900Y0078400D01*
X0050200Y0076800D02*
X0050200Y0076800D01*
X0049900Y0076000D02*
X0048881Y0076000D01*
X0048881Y0073600D02*
X0049940Y0073600D01*
X0050200Y0072580D02*
X0050200Y0070981D01*
X0051077Y0071200D02*
X0047779Y0071200D01*
X0047800Y0071221D02*
X0047800Y0070981D01*
X0052600Y0076800D02*
X0052600Y0076800D01*
X0055000Y0076800D02*
X0055000Y0076800D01*
X0057400Y0076800D02*
X0057400Y0076800D01*
X0058700Y0076000D02*
X0059719Y0076000D01*
X0059719Y0078400D02*
X0058700Y0078400D01*
X0058660Y0073600D02*
X0059719Y0073600D01*
X0059800Y0073093D02*
X0059800Y0070981D01*
X0060821Y0071200D02*
X0057523Y0071200D01*
X0057400Y0071077D02*
X0057400Y0070981D01*
X0064600Y0067450D02*
X0064600Y0066337D01*
X0064502Y0066400D02*
X0087767Y0066400D01*
X0088600Y0065567D02*
X0088600Y0065481D01*
X0086200Y0064526D02*
X0086200Y0068310D01*
X0086019Y0068800D02*
X0065950Y0068800D01*
X0067000Y0070421D02*
X0067000Y0065500D01*
X0069400Y0065500D02*
X0069400Y0086019D01*
X0066400Y0089300D02*
X0073300Y0089300D01*
X0080300Y0082300D01*
X0086300Y0082300D01*
X0088300Y0080300D01*
X0088800Y0079800D01*
X0088800Y0069300D01*
X0091800Y0066300D01*
X0097800Y0066300D01*
X0100800Y0063300D01*
X0100800Y0053800D01*
X0100800Y0051800D01*
X0100800Y0049800D01*
X0100800Y0033300D01*
X0086800Y0019300D01*
X0029800Y0019300D01*
X0026800Y0022300D01*
X0026800Y0025639D01*
X0027489Y0026328D01*
X0031000Y0030072D02*
X0031000Y0040319D01*
X0028600Y0040319D02*
X0028600Y0031421D01*
X0030672Y0030400D02*
X0032547Y0030400D01*
X0033400Y0030882D02*
X0033400Y0040319D01*
X0026200Y0040319D02*
X0026200Y0031347D01*
X0035363Y0030400D02*
X0035363Y0030400D01*
X0035363Y0028000D02*
X0035363Y0028000D01*
X0035363Y0026328D02*
X0035363Y0026328D01*
X0035800Y0016519D02*
X0035800Y0006600D01*
X0033400Y0006600D02*
X0033400Y0016519D01*
X0031000Y0016519D02*
X0031000Y0006600D01*
X0028600Y0006600D02*
X0028600Y0016787D01*
X0026767Y0018400D02*
X0006600Y0018400D01*
X0006600Y0020800D02*
X0024411Y0020800D01*
X0026200Y0018967D02*
X0026200Y0006600D01*
X0038200Y0006600D02*
X0038200Y0016519D01*
X0040600Y0016519D02*
X0040600Y0006600D01*
X0043000Y0006600D02*
X0043000Y0016519D01*
X0045400Y0016519D02*
X0045400Y0006600D01*
X0047800Y0006600D02*
X0047800Y0016519D01*
X0050200Y0016519D02*
X0050200Y0006600D01*
X0052600Y0006600D02*
X0052600Y0016519D01*
X0055000Y0016519D02*
X0055000Y0006600D01*
X0057400Y0006600D02*
X0057400Y0016519D01*
X0059800Y0016519D02*
X0059800Y0006600D01*
X0062200Y0006600D02*
X0062200Y0016519D01*
X0064600Y0016519D02*
X0064600Y0006600D01*
X0067000Y0006600D02*
X0067000Y0016519D01*
X0069400Y0016519D02*
X0069400Y0006600D01*
X0071800Y0006600D02*
X0071800Y0016519D01*
X0074200Y0016519D02*
X0074200Y0006600D01*
X0076600Y0006600D02*
X0076600Y0016519D01*
X0079000Y0016519D02*
X0079000Y0006600D01*
X0081400Y0006600D02*
X0081400Y0016519D01*
X0083800Y0016519D02*
X0083800Y0006600D01*
X0086200Y0006600D02*
X0086200Y0016519D01*
X0093400Y0021967D02*
X0093400Y0006600D01*
X0101833Y0030400D02*
X0101921Y0030400D01*
X0097750Y0054400D02*
X0083894Y0054400D01*
X0083800Y0054494D02*
X0083800Y0079519D01*
X0085331Y0078400D02*
X0078881Y0078400D01*
X0079000Y0079828D02*
X0079000Y0058899D01*
X0076600Y0058899D02*
X0076600Y0070194D01*
X0077779Y0071200D02*
X0086019Y0071200D01*
X0086019Y0073600D02*
X0078881Y0073600D01*
X0078881Y0076000D02*
X0086019Y0076000D01*
X0091242Y0082266D02*
X0090266Y0083242D01*
X0088990Y0083770D01*
X0088763Y0083770D01*
X0087875Y0084658D01*
X0086853Y0085081D01*
X0081452Y0085081D01*
X0079076Y0087457D01*
X0083152Y0087457D01*
X0084300Y0088605D01*
X0085448Y0087457D01*
X0090239Y0087457D01*
X0091399Y0088617D01*
X0091399Y0094983D01*
X0090704Y0095678D01*
X0090858Y0095833D01*
X0091095Y0096243D01*
X0091218Y0096701D01*
X0091218Y0099300D01*
X0091218Y0101899D01*
X0091095Y0102357D01*
X0090858Y0102767D01*
X0090523Y0103103D01*
X0090113Y0103340D01*
X0089655Y0103462D01*
X0087843Y0103462D01*
X0086881Y0103462D01*
X0086881Y0126813D01*
X0086488Y0127762D01*
X0085762Y0128488D01*
X0084770Y0129480D01*
X0084770Y0129990D01*
X0084242Y0131266D01*
X0083266Y0132242D01*
X0081990Y0132770D01*
X0080610Y0132770D01*
X0079334Y0132242D01*
X0078358Y0131266D01*
X0077830Y0129990D01*
X0077830Y0128610D01*
X0078358Y0127334D01*
X0079334Y0126358D01*
X0080610Y0125830D01*
X0081120Y0125830D01*
X0081719Y0125231D01*
X0081719Y0119314D01*
X0079375Y0121658D01*
X0078353Y0122081D01*
X0072283Y0122081D01*
X0072381Y0122179D01*
X0072381Y0126219D01*
X0073813Y0126219D01*
X0074762Y0126612D01*
X0075488Y0127338D01*
X0075762Y0127612D01*
X0076488Y0128338D01*
X0076881Y0129287D01*
X0076881Y0130311D01*
X0076895Y0130316D01*
X0078184Y0131605D01*
X0078881Y0133289D01*
X0078881Y0140311D01*
X0078184Y0141995D01*
X0076978Y0143201D01*
X0101921Y0143201D01*
X0101921Y0066112D01*
X0099375Y0068658D01*
X0098353Y0069081D01*
X0092952Y0069081D01*
X0091581Y0070452D01*
X0091581Y0079154D01*
X0091770Y0079610D01*
X0091770Y0080990D01*
X0091242Y0082266D01*
X0091000Y0082507D02*
X0091000Y0088218D01*
X0090782Y0088000D02*
X0101921Y0088000D01*
X0101921Y0090400D02*
X0091399Y0090400D01*
X0091399Y0092800D02*
X0101921Y0092800D01*
X0101921Y0095200D02*
X0091182Y0095200D01*
X0091000Y0095382D02*
X0091000Y0096078D01*
X0091218Y0097600D02*
X0101921Y0097600D01*
X0101921Y0100000D02*
X0091218Y0100000D01*
X0091218Y0099300D02*
X0087843Y0099300D01*
X0087843Y0103462D01*
X0087843Y0099300D01*
X0087843Y0099300D01*
X0087843Y0104343D01*
X0088300Y0104800D01*
X0088600Y0103462D02*
X0088600Y0143201D01*
X0086200Y0143201D02*
X0086200Y0128050D01*
X0085450Y0128800D02*
X0101921Y0128800D01*
X0101921Y0126400D02*
X0086881Y0126400D01*
X0086881Y0124000D02*
X0101921Y0124000D01*
X0101921Y0121600D02*
X0086881Y0121600D01*
X0086881Y0119200D02*
X0101921Y0119200D01*
X0101921Y0116800D02*
X0086881Y0116800D01*
X0086881Y0114400D02*
X0101921Y0114400D01*
X0101921Y0112000D02*
X0086881Y0112000D01*
X0086881Y0109600D02*
X0101921Y0109600D01*
X0101921Y0107200D02*
X0086881Y0107200D01*
X0086881Y0104800D02*
X0101921Y0104800D01*
X0101921Y0102400D02*
X0091071Y0102400D01*
X0091000Y0102522D02*
X0091000Y0143201D01*
X0093400Y0143201D02*
X0093400Y0069081D01*
X0095800Y0069081D02*
X0095800Y0143201D01*
X0098200Y0143201D02*
X0098200Y0069081D01*
X0099032Y0068800D02*
X0101921Y0068800D01*
X0100600Y0067433D02*
X0100600Y0143201D01*
X0101921Y0143200D02*
X0076979Y0143200D01*
X0079000Y0143201D02*
X0079000Y0131907D01*
X0078331Y0131200D02*
X0077779Y0131200D01*
X0078881Y0133600D02*
X0101921Y0133600D01*
X0101921Y0131200D02*
X0084269Y0131200D01*
X0083800Y0131707D02*
X0083800Y0143201D01*
X0081400Y0143201D02*
X0081400Y0132770D01*
X0078881Y0136000D02*
X0101921Y0136000D01*
X0101921Y0138400D02*
X0078881Y0138400D01*
X0078679Y0140800D02*
X0101921Y0140800D01*
X0081719Y0124000D02*
X0072381Y0124000D01*
X0074200Y0122081D02*
X0074200Y0126379D01*
X0074251Y0126400D02*
X0079293Y0126400D01*
X0079000Y0126693D02*
X0079000Y0121813D01*
X0079433Y0121600D02*
X0081719Y0121600D01*
X0081400Y0119633D02*
X0081400Y0125550D01*
X0077830Y0128800D02*
X0076680Y0128800D01*
X0076600Y0128608D02*
X0076600Y0122081D01*
X0077800Y0119300D02*
X0080757Y0116343D01*
X0080757Y0099300D01*
X0074800Y0099300D01*
X0073216Y0102400D02*
X0072103Y0102400D01*
X0071800Y0104300D02*
X0071800Y0104300D01*
X0072200Y0104800D02*
X0077976Y0104800D01*
X0077976Y0107200D02*
X0076384Y0107200D01*
X0076600Y0107290D02*
X0076600Y0102310D01*
X0076384Y0102400D02*
X0077201Y0102400D01*
X0074200Y0102770D02*
X0074200Y0106719D01*
X0069400Y0104300D02*
X0069400Y0104300D01*
X0059800Y0117770D02*
X0059800Y0126219D01*
X0060419Y0124000D02*
X0052881Y0124000D01*
X0047719Y0127313D02*
X0048112Y0128262D01*
X0050112Y0130262D01*
X0050838Y0130988D01*
X0051157Y0131120D01*
X0050944Y0131334D01*
X0050537Y0131894D01*
X0050222Y0132511D01*
X0050008Y0133170D01*
X0049900Y0133854D01*
X0049900Y0136800D01*
X0054300Y0136800D01*
X0054300Y0135800D01*
X0047300Y0128800D01*
X0043800Y0128800D01*
X0042200Y0127200D01*
X0042200Y0124300D01*
X0042200Y0124300D01*
X0042200Y0127400D01*
X0046437Y0127400D01*
X0046895Y0127277D01*
X0047305Y0127040D01*
X0047640Y0126705D01*
X0047719Y0126569D01*
X0047719Y0127313D01*
X0047800Y0127509D02*
X0047800Y0131221D01*
X0047779Y0131200D02*
X0051077Y0131200D01*
X0050200Y0130350D02*
X0050200Y0132580D01*
X0049940Y0133600D02*
X0048881Y0133600D01*
X0048881Y0133289D02*
X0048881Y0140311D01*
X0048184Y0141995D01*
X0046978Y0143201D01*
X0052068Y0143201D01*
X0051994Y0143163D01*
X0051434Y0142756D01*
X0050944Y0142266D01*
X0050537Y0141706D01*
X0050222Y0141089D01*
X0050008Y0140430D01*
X0049900Y0139746D01*
X0049900Y0136800D01*
X0054300Y0136800D01*
X0058700Y0136800D01*
X0058700Y0139746D01*
X0058592Y0140430D01*
X0058378Y0141089D01*
X0058063Y0141706D01*
X0057656Y0142266D01*
X0057166Y0142756D01*
X0056606Y0143163D01*
X0056532Y0143201D01*
X0061622Y0143201D01*
X0060416Y0141995D01*
X0059719Y0140311D01*
X0059719Y0133289D01*
X0060416Y0131605D01*
X0060640Y0131381D01*
X0057691Y0131381D01*
X0058063Y0131894D01*
X0058378Y0132511D01*
X0058592Y0133170D01*
X0058700Y0133854D01*
X0058700Y0136800D01*
X0054300Y0136800D01*
X0054300Y0136800D01*
X0054300Y0131381D01*
X0054300Y0131381D01*
X0054300Y0136800D01*
X0054300Y0136800D01*
X0054300Y0136800D01*
X0055000Y0136800D02*
X0055000Y0136800D01*
X0054300Y0136000D02*
X0054300Y0136000D01*
X0052600Y0136800D02*
X0052600Y0136800D01*
X0050200Y0136800D02*
X0050200Y0136800D01*
X0049900Y0136000D02*
X0048881Y0136000D01*
X0048881Y0138400D02*
X0049900Y0138400D01*
X0050128Y0140800D02*
X0048679Y0140800D01*
X0047800Y0142379D02*
X0047800Y0143201D01*
X0046979Y0143200D02*
X0052066Y0143200D01*
X0050200Y0143201D02*
X0050200Y0141020D01*
X0048881Y0133289D02*
X0048184Y0131605D01*
X0046895Y0130316D01*
X0045211Y0129619D01*
X0043389Y0129619D01*
X0041705Y0130316D01*
X0040416Y0131605D01*
X0039719Y0133289D01*
X0039719Y0140311D01*
X0040416Y0141995D01*
X0041622Y0143201D01*
X0036978Y0143201D01*
X0038184Y0141995D01*
X0038881Y0140311D01*
X0038881Y0133289D01*
X0038184Y0131605D01*
X0036895Y0130316D01*
X0035211Y0129619D01*
X0033389Y0129619D01*
X0031705Y0130316D01*
X0030416Y0131605D01*
X0029719Y0133289D01*
X0029719Y0133569D01*
X0027294Y0131143D01*
X0030239Y0131143D01*
X0031399Y0129983D01*
X0031399Y0128351D01*
X0036400Y0123350D01*
X0036400Y0124300D01*
X0042200Y0124300D01*
X0042200Y0124300D01*
X0042200Y0127400D01*
X0037963Y0127400D01*
X0037505Y0127277D01*
X0037095Y0127040D01*
X0036760Y0126705D01*
X0036523Y0126295D01*
X0036400Y0125837D01*
X0036400Y0124300D01*
X0042200Y0124300D01*
X0040600Y0124300D02*
X0040600Y0124300D01*
X0042200Y0126400D02*
X0042200Y0126400D01*
X0043000Y0127400D02*
X0043000Y0129780D01*
X0045400Y0129697D02*
X0045400Y0127400D01*
X0048650Y0128800D02*
X0031399Y0128800D01*
X0031000Y0130382D02*
X0031000Y0131021D01*
X0030821Y0131200D02*
X0027350Y0131200D01*
X0028600Y0131143D02*
X0028600Y0132450D01*
X0024850Y0136000D02*
X0006600Y0136000D01*
X0006600Y0138400D02*
X0027250Y0138400D01*
X0026200Y0137350D02*
X0026200Y0143201D01*
X0028600Y0143201D02*
X0028600Y0139304D01*
X0029921Y0140800D02*
X0006600Y0140800D01*
X0006600Y0143200D02*
X0031621Y0143200D01*
X0031000Y0143201D02*
X0031000Y0142579D01*
X0036979Y0143200D02*
X0041621Y0143200D01*
X0040600Y0143201D02*
X0040600Y0142179D01*
X0039921Y0140800D02*
X0038679Y0140800D01*
X0038200Y0141956D02*
X0038200Y0143201D01*
X0038881Y0138400D02*
X0039719Y0138400D01*
X0039719Y0136000D02*
X0038881Y0136000D01*
X0038881Y0133600D02*
X0039719Y0133600D01*
X0040600Y0131421D02*
X0040600Y0127400D01*
X0038200Y0127400D02*
X0038200Y0131644D01*
X0037779Y0131200D02*
X0040821Y0131200D01*
X0036583Y0126400D02*
X0033350Y0126400D01*
X0033400Y0126350D02*
X0033400Y0129619D01*
X0035800Y0129863D02*
X0035800Y0123950D01*
X0035750Y0124000D02*
X0036400Y0124000D01*
X0038200Y0124300D02*
X0038200Y0124300D01*
X0023800Y0134950D02*
X0023800Y0143201D01*
X0021400Y0143201D02*
X0021400Y0131143D01*
X0021719Y0131200D02*
X0006600Y0131200D01*
X0006600Y0133600D02*
X0022450Y0133600D01*
X0019000Y0131143D02*
X0019000Y0143201D01*
X0016600Y0143201D02*
X0016600Y0130270D01*
X0014200Y0129107D02*
X0014200Y0143201D01*
X0011800Y0143201D02*
X0011800Y0065195D01*
X0008783Y0061600D02*
X0006600Y0061600D01*
X0009400Y0060900D02*
X0009400Y0060500D01*
X0011800Y0060500D02*
X0011800Y0060900D01*
X0019000Y0060900D02*
X0019000Y0060500D01*
X0021400Y0060500D02*
X0021400Y0060900D01*
X0019000Y0065500D02*
X0019000Y0067450D01*
X0013296Y0073600D02*
X0006600Y0073600D01*
X0006600Y0076000D02*
X0013219Y0076000D01*
X0013219Y0078400D02*
X0006600Y0078400D01*
X0006600Y0080800D02*
X0013219Y0080800D01*
X0013219Y0083200D02*
X0006600Y0083200D01*
X0006600Y0085600D02*
X0013219Y0085600D01*
X0013296Y0088000D02*
X0006600Y0088000D01*
X0006600Y0090400D02*
X0015250Y0090400D01*
X0014200Y0089350D02*
X0014200Y0094493D01*
X0013707Y0095200D02*
X0006600Y0095200D01*
X0006600Y0092800D02*
X0017518Y0092800D01*
X0016600Y0093330D02*
X0016600Y0091304D01*
X0013375Y0097600D02*
X0006600Y0097600D01*
X0006600Y0100000D02*
X0015458Y0100000D01*
X0016600Y0100270D02*
X0016600Y0108330D01*
X0017201Y0107200D02*
X0006600Y0107200D01*
X0006600Y0104800D02*
X0017201Y0104800D01*
X0017201Y0102400D02*
X0006600Y0102400D01*
X0006600Y0109600D02*
X0014093Y0109600D01*
X0014200Y0109493D02*
X0014200Y0099107D01*
X0013330Y0112000D02*
X0006600Y0112000D01*
X0006600Y0114400D02*
X0014493Y0114400D01*
X0014200Y0114107D02*
X0014200Y0124493D01*
X0014693Y0124000D02*
X0006600Y0124000D01*
X0006600Y0126400D02*
X0013330Y0126400D01*
X0013893Y0128800D02*
X0006600Y0128800D01*
X0006600Y0121600D02*
X0017201Y0121600D01*
X0016600Y0123330D02*
X0016600Y0115270D01*
X0017201Y0116800D02*
X0006600Y0116800D01*
X0006600Y0119200D02*
X0017201Y0119200D01*
X0040600Y0086019D02*
X0040600Y0082179D01*
X0041621Y0083200D02*
X0036979Y0083200D01*
X0035800Y0083737D02*
X0035800Y0084650D01*
X0043000Y0083820D02*
X0043000Y0086019D01*
X0045400Y0086019D02*
X0045400Y0083903D01*
X0056534Y0083200D02*
X0061621Y0083200D01*
X0068679Y0080800D02*
X0069921Y0080800D01*
X0069719Y0078400D02*
X0068881Y0078400D01*
X0068881Y0076000D02*
X0069719Y0076000D01*
X0069719Y0073600D02*
X0068881Y0073600D01*
X0067779Y0071200D02*
X0070821Y0071200D01*
X0071800Y0070277D02*
X0071800Y0064915D01*
X0072988Y0064000D02*
X0085612Y0064000D01*
X0084383Y0061600D02*
X0074217Y0061600D01*
X0074200Y0061709D02*
X0074200Y0069619D01*
X0074200Y0060900D02*
X0074200Y0060500D01*
X0074200Y0059691D02*
X0074200Y0045481D01*
X0074957Y0047200D02*
X0072135Y0047200D01*
X0071800Y0047339D02*
X0071800Y0048454D01*
X0071965Y0049600D02*
X0074957Y0049600D01*
X0075905Y0052000D02*
X0072252Y0052000D01*
X0071907Y0054400D02*
X0074957Y0054400D01*
X0074957Y0056800D02*
X0072298Y0056800D01*
X0071800Y0056485D02*
X0071800Y0055146D01*
X0074060Y0059200D02*
X0084540Y0059200D01*
X0083643Y0056800D02*
X0086302Y0056800D01*
X0086200Y0056874D02*
X0086200Y0054381D01*
X0088600Y0054381D02*
X0088600Y0055919D01*
X0091000Y0055900D02*
X0091000Y0054381D01*
X0091900Y0056800D02*
X0092300Y0056800D01*
X0092300Y0059200D02*
X0091900Y0059200D01*
X0091000Y0060500D02*
X0091000Y0060900D01*
X0088600Y0060900D02*
X0088600Y0060500D01*
X0086200Y0060500D02*
X0086200Y0060900D01*
X0081400Y0058899D02*
X0081400Y0079519D01*
X0081400Y0085133D02*
X0081400Y0087457D01*
X0080933Y0085600D02*
X0101921Y0085600D01*
X0101921Y0083200D02*
X0090307Y0083200D01*
X0091770Y0080800D02*
X0101921Y0080800D01*
X0101921Y0078400D02*
X0091581Y0078400D01*
X0091581Y0076000D02*
X0101921Y0076000D01*
X0101921Y0073600D02*
X0091581Y0073600D01*
X0091581Y0071200D02*
X0101921Y0071200D01*
X0101921Y0066400D02*
X0101633Y0066400D01*
X0098019Y0056800D02*
X0097898Y0056800D01*
X0095800Y0055951D02*
X0095800Y0054381D01*
X0093400Y0054381D02*
X0093400Y0055900D01*
X0088600Y0083933D02*
X0088600Y0087457D01*
X0086200Y0087457D02*
X0086200Y0085081D01*
X0083800Y0085081D02*
X0083800Y0088105D01*
X0083695Y0088000D02*
X0084905Y0088000D01*
X0087843Y0099300D02*
X0087843Y0099300D01*
X0091218Y0099300D01*
X0091000Y0099300D02*
X0091000Y0099300D01*
X0088600Y0099300D02*
X0088600Y0099300D01*
X0087843Y0100000D02*
X0087843Y0100000D01*
X0087843Y0102400D02*
X0087843Y0102400D01*
X0077800Y0119300D02*
X0066400Y0119300D01*
X0059800Y0131381D02*
X0059800Y0133093D01*
X0059719Y0133600D02*
X0058660Y0133600D01*
X0058700Y0136000D02*
X0059719Y0136000D01*
X0059719Y0138400D02*
X0058700Y0138400D01*
X0057400Y0136800D02*
X0057400Y0136800D01*
X0054300Y0133600D02*
X0054300Y0133600D01*
X0058472Y0140800D02*
X0059921Y0140800D01*
X0059800Y0140507D02*
X0059800Y0143201D01*
X0061621Y0143200D02*
X0056534Y0143200D01*
X0057400Y0143201D02*
X0057400Y0142523D01*
X0074200Y0084467D02*
X0074200Y0083981D01*
X0071800Y0060900D02*
X0071800Y0060500D01*
X0043000Y0065695D02*
X0043000Y0065719D01*
X0040600Y0065719D02*
X0040600Y0065500D01*
X0038200Y0065417D02*
X0038200Y0065719D01*
X0038200Y0060900D02*
X0038200Y0060500D01*
D18*
X0023300Y0053300D03*
X0023300Y0073300D03*
X0016800Y0096800D03*
X0016800Y0111800D03*
X0016800Y0126800D03*
X0050300Y0094300D03*
X0058300Y0100300D03*
X0059300Y0114300D03*
X0054300Y0121800D03*
X0074800Y0110300D03*
X0074800Y0099300D03*
X0088300Y0104800D03*
X0081300Y0129300D03*
X0088300Y0080300D03*
D19*
X0087843Y0091800D02*
X0086800Y0091800D01*
X0084300Y0094300D01*
X0084300Y0126300D01*
X0081300Y0129300D01*
X0074300Y0129800D02*
X0074300Y0136800D01*
X0074300Y0129800D02*
X0073300Y0128800D01*
X0052300Y0128800D01*
X0050300Y0126800D01*
X0050300Y0094300D01*
X0058300Y0100300D02*
X0058800Y0100300D01*
X0059800Y0099300D01*
X0066400Y0099300D01*
X0066400Y0094300D02*
X0073300Y0094300D01*
X0075800Y0091800D01*
X0080757Y0091800D01*
X0073800Y0109300D02*
X0066400Y0109300D01*
X0066400Y0114300D02*
X0059300Y0114300D01*
X0073800Y0109300D02*
X0074800Y0110300D01*
X0064300Y0076800D02*
X0064300Y0070800D01*
X0061900Y0068400D01*
X0047424Y0068400D01*
X0047324Y0068300D01*
X0021800Y0068300D01*
X0015800Y0074300D01*
X0015800Y0087300D01*
X0017300Y0088800D01*
X0020257Y0088800D01*
X0020757Y0089300D01*
X0020757Y0096800D02*
X0016800Y0096800D01*
X0020757Y0104300D02*
X0021800Y0104300D01*
X0024300Y0101800D01*
X0024300Y0078300D01*
X0026800Y0075800D01*
X0033300Y0075800D01*
X0034300Y0076800D01*
X0029300Y0081800D02*
X0036800Y0089300D01*
X0042200Y0089300D01*
X0042200Y0094300D02*
X0036800Y0094300D01*
X0031800Y0089300D01*
X0027843Y0089300D01*
X0027843Y0081800D02*
X0029300Y0081800D01*
X0023300Y0073300D02*
X0020757Y0075843D01*
X0020757Y0081800D01*
X0027843Y0096800D02*
X0031800Y0096800D01*
X0034300Y0099300D01*
X0042200Y0099300D01*
X0042200Y0104300D02*
X0027843Y0104300D01*
X0027843Y0111800D02*
X0031800Y0111800D01*
X0034300Y0109300D01*
X0042200Y0109300D01*
X0042200Y0114300D02*
X0036800Y0114300D01*
X0031800Y0119300D01*
X0027843Y0119300D01*
X0024300Y0122843D02*
X0024300Y0131800D01*
X0029300Y0136800D01*
X0034300Y0136800D01*
X0029300Y0126800D02*
X0027843Y0126800D01*
X0029300Y0126800D02*
X0036800Y0119300D01*
X0042200Y0119300D01*
X0024300Y0122843D02*
X0020757Y0119300D01*
X0020757Y0111800D02*
X0016800Y0111800D01*
X0016800Y0126800D02*
X0020757Y0126800D01*
X0045300Y0065800D02*
X0063300Y0065800D01*
X0066500Y0062600D01*
X0066500Y0060700D01*
X0092100Y0060700D01*
X0100800Y0053800D02*
X0098800Y0051800D01*
X0100800Y0049800D01*
X0100800Y0051800D02*
X0098800Y0051800D01*
X0082843Y0051800D01*
X0079300Y0055343D01*
X0079300Y0048257D02*
X0079300Y0044400D01*
X0079250Y0044350D01*
X0080700Y0042900D01*
X0092100Y0042900D01*
X0080700Y0042900D02*
X0079300Y0042900D01*
X0079300Y0044400D01*
X0079250Y0044350D02*
X0077800Y0042900D01*
X0079300Y0042900D01*
X0077800Y0042900D02*
X0066500Y0042900D01*
X0062900Y0039300D01*
X0056300Y0039300D01*
X0051111Y0034111D01*
X0051111Y0026328D01*
X0043237Y0026328D02*
X0043237Y0041763D01*
X0042100Y0042900D01*
X0030800Y0042900D01*
X0029300Y0044400D01*
X0027800Y0042900D01*
X0029300Y0042900D01*
X0029300Y0044400D01*
X0029300Y0048257D01*
X0029300Y0042900D02*
X0030800Y0042900D01*
X0027800Y0042900D02*
X0016500Y0042900D01*
X0009800Y0036800D02*
X0006400Y0040200D01*
X0006400Y0057900D01*
X0009300Y0060800D01*
X0017200Y0060800D01*
X0017300Y0060700D01*
X0016500Y0060700D01*
X0017300Y0060700D02*
X0042100Y0060700D01*
X0042100Y0062600D01*
X0045300Y0065800D01*
X0029300Y0055343D02*
X0025343Y0055343D01*
X0023300Y0053300D01*
X0032800Y0036800D02*
X0009800Y0036800D01*
X0032800Y0036800D02*
X0035363Y0034237D01*
X0035363Y0026328D01*
D20*
X0016800Y0026800D03*
X0016800Y0021800D03*
X0016800Y0016800D03*
X0016800Y0011800D03*
X0011800Y0011800D03*
X0011800Y0016800D03*
X0011800Y0021800D03*
X0011800Y0026800D03*
X0011800Y0031800D03*
X0016800Y0031800D03*
X0059300Y0121800D03*
X0091800Y0119300D03*
X0091800Y0124300D03*
X0091800Y0129300D03*
X0096800Y0129300D03*
X0096800Y0124300D03*
X0096800Y0119300D03*
X0096800Y0114300D03*
X0091800Y0114300D03*
X0019300Y0134300D03*
X0019300Y0139300D03*
X0014300Y0139300D03*
X0014300Y0134300D03*
X0009300Y0134300D03*
X0009300Y0139300D03*
M02*
