G75*
%MOIN*%
%OFA0B0*%
%FSLAX25Y25*%
%IPPOS*%
%LPD*%
%AMOC8*
5,1,8,0,0,1.08239X$1,22.5*
%
%ADD10C,0.00000*%
D10*
X0001800Y0001800D02*
X0001800Y0148001D01*
X0106721Y0148001D01*
X0106721Y0001800D01*
X0001800Y0001800D01*
X0048001Y0051800D02*
X0048003Y0051958D01*
X0048009Y0052116D01*
X0048019Y0052274D01*
X0048033Y0052432D01*
X0048051Y0052589D01*
X0048072Y0052746D01*
X0048098Y0052902D01*
X0048128Y0053058D01*
X0048161Y0053213D01*
X0048199Y0053366D01*
X0048240Y0053519D01*
X0048285Y0053671D01*
X0048334Y0053822D01*
X0048387Y0053971D01*
X0048443Y0054119D01*
X0048503Y0054265D01*
X0048567Y0054410D01*
X0048635Y0054553D01*
X0048706Y0054695D01*
X0048780Y0054835D01*
X0048858Y0054972D01*
X0048940Y0055108D01*
X0049024Y0055242D01*
X0049113Y0055373D01*
X0049204Y0055502D01*
X0049299Y0055629D01*
X0049396Y0055754D01*
X0049497Y0055876D01*
X0049601Y0055995D01*
X0049708Y0056112D01*
X0049818Y0056226D01*
X0049931Y0056337D01*
X0050046Y0056446D01*
X0050164Y0056551D01*
X0050285Y0056653D01*
X0050408Y0056753D01*
X0050534Y0056849D01*
X0050662Y0056942D01*
X0050792Y0057032D01*
X0050925Y0057118D01*
X0051060Y0057202D01*
X0051196Y0057281D01*
X0051335Y0057358D01*
X0051476Y0057430D01*
X0051618Y0057500D01*
X0051762Y0057565D01*
X0051908Y0057627D01*
X0052055Y0057685D01*
X0052204Y0057740D01*
X0052354Y0057791D01*
X0052505Y0057838D01*
X0052657Y0057881D01*
X0052810Y0057920D01*
X0052965Y0057956D01*
X0053120Y0057987D01*
X0053276Y0058015D01*
X0053432Y0058039D01*
X0053589Y0058059D01*
X0053747Y0058075D01*
X0053904Y0058087D01*
X0054063Y0058095D01*
X0054221Y0058099D01*
X0054379Y0058099D01*
X0054537Y0058095D01*
X0054696Y0058087D01*
X0054853Y0058075D01*
X0055011Y0058059D01*
X0055168Y0058039D01*
X0055324Y0058015D01*
X0055480Y0057987D01*
X0055635Y0057956D01*
X0055790Y0057920D01*
X0055943Y0057881D01*
X0056095Y0057838D01*
X0056246Y0057791D01*
X0056396Y0057740D01*
X0056545Y0057685D01*
X0056692Y0057627D01*
X0056838Y0057565D01*
X0056982Y0057500D01*
X0057124Y0057430D01*
X0057265Y0057358D01*
X0057404Y0057281D01*
X0057540Y0057202D01*
X0057675Y0057118D01*
X0057808Y0057032D01*
X0057938Y0056942D01*
X0058066Y0056849D01*
X0058192Y0056753D01*
X0058315Y0056653D01*
X0058436Y0056551D01*
X0058554Y0056446D01*
X0058669Y0056337D01*
X0058782Y0056226D01*
X0058892Y0056112D01*
X0058999Y0055995D01*
X0059103Y0055876D01*
X0059204Y0055754D01*
X0059301Y0055629D01*
X0059396Y0055502D01*
X0059487Y0055373D01*
X0059576Y0055242D01*
X0059660Y0055108D01*
X0059742Y0054972D01*
X0059820Y0054835D01*
X0059894Y0054695D01*
X0059965Y0054553D01*
X0060033Y0054410D01*
X0060097Y0054265D01*
X0060157Y0054119D01*
X0060213Y0053971D01*
X0060266Y0053822D01*
X0060315Y0053671D01*
X0060360Y0053519D01*
X0060401Y0053366D01*
X0060439Y0053213D01*
X0060472Y0053058D01*
X0060502Y0052902D01*
X0060528Y0052746D01*
X0060549Y0052589D01*
X0060567Y0052432D01*
X0060581Y0052274D01*
X0060591Y0052116D01*
X0060597Y0051958D01*
X0060599Y0051800D01*
X0060597Y0051642D01*
X0060591Y0051484D01*
X0060581Y0051326D01*
X0060567Y0051168D01*
X0060549Y0051011D01*
X0060528Y0050854D01*
X0060502Y0050698D01*
X0060472Y0050542D01*
X0060439Y0050387D01*
X0060401Y0050234D01*
X0060360Y0050081D01*
X0060315Y0049929D01*
X0060266Y0049778D01*
X0060213Y0049629D01*
X0060157Y0049481D01*
X0060097Y0049335D01*
X0060033Y0049190D01*
X0059965Y0049047D01*
X0059894Y0048905D01*
X0059820Y0048765D01*
X0059742Y0048628D01*
X0059660Y0048492D01*
X0059576Y0048358D01*
X0059487Y0048227D01*
X0059396Y0048098D01*
X0059301Y0047971D01*
X0059204Y0047846D01*
X0059103Y0047724D01*
X0058999Y0047605D01*
X0058892Y0047488D01*
X0058782Y0047374D01*
X0058669Y0047263D01*
X0058554Y0047154D01*
X0058436Y0047049D01*
X0058315Y0046947D01*
X0058192Y0046847D01*
X0058066Y0046751D01*
X0057938Y0046658D01*
X0057808Y0046568D01*
X0057675Y0046482D01*
X0057540Y0046398D01*
X0057404Y0046319D01*
X0057265Y0046242D01*
X0057124Y0046170D01*
X0056982Y0046100D01*
X0056838Y0046035D01*
X0056692Y0045973D01*
X0056545Y0045915D01*
X0056396Y0045860D01*
X0056246Y0045809D01*
X0056095Y0045762D01*
X0055943Y0045719D01*
X0055790Y0045680D01*
X0055635Y0045644D01*
X0055480Y0045613D01*
X0055324Y0045585D01*
X0055168Y0045561D01*
X0055011Y0045541D01*
X0054853Y0045525D01*
X0054696Y0045513D01*
X0054537Y0045505D01*
X0054379Y0045501D01*
X0054221Y0045501D01*
X0054063Y0045505D01*
X0053904Y0045513D01*
X0053747Y0045525D01*
X0053589Y0045541D01*
X0053432Y0045561D01*
X0053276Y0045585D01*
X0053120Y0045613D01*
X0052965Y0045644D01*
X0052810Y0045680D01*
X0052657Y0045719D01*
X0052505Y0045762D01*
X0052354Y0045809D01*
X0052204Y0045860D01*
X0052055Y0045915D01*
X0051908Y0045973D01*
X0051762Y0046035D01*
X0051618Y0046100D01*
X0051476Y0046170D01*
X0051335Y0046242D01*
X0051196Y0046319D01*
X0051060Y0046398D01*
X0050925Y0046482D01*
X0050792Y0046568D01*
X0050662Y0046658D01*
X0050534Y0046751D01*
X0050408Y0046847D01*
X0050285Y0046947D01*
X0050164Y0047049D01*
X0050046Y0047154D01*
X0049931Y0047263D01*
X0049818Y0047374D01*
X0049708Y0047488D01*
X0049601Y0047605D01*
X0049497Y0047724D01*
X0049396Y0047846D01*
X0049299Y0047971D01*
X0049204Y0048098D01*
X0049113Y0048227D01*
X0049024Y0048358D01*
X0048940Y0048492D01*
X0048858Y0048628D01*
X0048780Y0048765D01*
X0048706Y0048905D01*
X0048635Y0049047D01*
X0048567Y0049190D01*
X0048503Y0049335D01*
X0048443Y0049481D01*
X0048387Y0049629D01*
X0048334Y0049778D01*
X0048285Y0049929D01*
X0048240Y0050081D01*
X0048199Y0050234D01*
X0048161Y0050387D01*
X0048128Y0050542D01*
X0048098Y0050698D01*
X0048072Y0050854D01*
X0048051Y0051011D01*
X0048033Y0051168D01*
X0048019Y0051326D01*
X0048009Y0051484D01*
X0048003Y0051642D01*
X0048001Y0051800D01*
M02*
